<svg width="36" height="36" viewBox="0 0 36 36" fill="none" xmlns="http://www.w3.org/2000/svg">
<g id="Group 1528">
<path id="Vector" d="M1.00544 31.4751H1V3.52493C1 2.1308 2.13423 1 3.52493 1H32.4805C33.8746 1 35.0054 2.13423 35.0054 3.52493V32.4751C35.0054 33.8692 33.8712 35 32.4805 35H3.53037C2.13625 35 1.00544 33.8658 1.00544 32.4751V31.4751Z" fill="white" stroke="url(#paint0_linear_237_2218)" stroke-width="2"/>
<path id="Vector_2" d="M8.07513 2.12109L8.08494 3.30717C8.08982 3.93385 7.58551 4.45203 6.95883 4.45691L4.47453 4.47645L4.49406 6.96075C4.49895 7.58743 3.99464 8.1056 3.36795 8.11048L2.18188 8.12029L2.12891 2.17406L8.08173 2.12506L8.07513 2.12109Z" fill="#DB8231"/>
<path id="Vector_3" d="M27.6921 2.17406L27.7019 3.36014C27.7068 3.98682 28.2197 4.49245 28.8517 4.48625L31.336 4.46671L31.3555 6.95101C31.3604 7.5777 31.8733 8.08332 32.5053 8.07712L33.6913 8.06732L33.6384 2.12109L27.6855 2.1701L27.6921 2.17406Z" fill="#DB8231"/>
<path id="Vector_4" d="M8.1281 33.2874L8.1183 32.1013C8.11342 31.4746 7.60052 30.969 6.96856 30.9752L4.48426 30.9947L4.46472 28.5104C4.45984 27.8838 3.94694 27.3781 3.31498 27.3843L2.12891 27.3941L2.18188 33.3404L8.1347 33.2914L8.1281 33.2874Z" fill="#DB8231"/>
<path id="Vector_5" d="M27.7452 33.3405L27.7354 32.1544C27.7305 31.5277 28.2348 31.0096 28.8615 31.0047L31.3458 30.9852L31.3263 28.5009C31.3214 27.8742 31.8257 27.356 32.4524 27.3511L33.6384 27.3413L33.6914 33.2875L27.7386 33.3365L27.7452 33.3405Z" fill="#DB8231"/>
<path id="Vector_6" d="M23.0627 12.4116C21.9162 11.3927 21.8015 9.63097 22.8204 8.48454C23.8393 7.33812 25.601 7.22337 26.7474 8.24227C27.8938 9.26117 28.0086 11.0229 26.9897 12.1693C25.9708 13.3157 24.2091 13.4305 23.0627 12.4116Z" fill="#F6C454"/>
<path id="Vector_7" d="M12.3651 24.5133C11.2187 23.4944 9.45698 23.6091 8.43807 24.7555C7.41917 25.902 7.53392 27.6637 8.68034 28.6826C9.82677 29.7015 11.5885 29.5867 12.6074 28.4403C13.6263 27.2939 13.5115 25.5322 12.3651 24.5133Z" fill="#F6C454"/>
<path id="Vector_8" d="M15.8332 20.5126C14.6868 19.4937 14.572 17.732 15.5909 16.5856C16.6098 15.4392 18.3715 15.3244 19.5179 16.3433C20.6643 17.3622 20.7791 19.1239 19.7602 20.2704C18.7413 21.4168 16.9796 21.5315 15.8332 20.5126Z" fill="#F6C454"/>
</g>
<defs>
<linearGradient id="paint0_linear_237_2218" x1="5.00683" y1="29.693" x2="22.2858" y2="-6.95568" gradientUnits="userSpaceOnUse">
<stop stop-color="#FEEDB1"/>
<stop offset="1" stop-color="#E7A92D"/>
</linearGradient>
</defs>
</svg>
