<svg width="36" height="36" viewBox="0 0 36 36" fill="none" xmlns="http://www.w3.org/2000/svg">
<g id="Group 1528">
<path id="Vector" d="M1.00544 31.4751H1V3.52493C1 2.1308 2.13423 1 3.52493 1H32.4805C33.8746 1 35.0054 2.13423 35.0054 3.52493V32.4751C35.0054 33.8692 33.8712 35 32.4805 35H3.53037C2.13625 35 1.00544 33.8658 1.00544 32.4751V31.4751Z" fill="white" stroke="url(#paint0_linear_238_2757)" stroke-width="2"/>
<g id="vuesax/outline/messages">
<g id="messages">
<path id="Vector_2" d="M11.6828 27.1864C11.5761 27.1864 11.4694 27.173 11.3628 27.1597C10.5628 27.053 9.88277 26.5463 9.54944 25.8263L7.86943 22.133C5.20276 20.1596 3.66943 17.213 3.66943 14.013C3.66943 8.31969 8.60277 3.67969 14.6694 3.67969C18.9494 3.67969 22.8561 6.02634 24.6294 9.66634C25.3094 11.013 25.6694 12.4797 25.6694 14.013C25.6694 19.5597 20.9894 24.1063 15.1494 24.333L13.4694 26.3597C13.0161 26.8797 12.3628 27.1864 11.6828 27.1864ZM14.6694 5.66634C9.70943 5.66634 5.66943 9.39967 5.66943 13.9997C5.66943 16.6263 6.97609 19.053 9.24276 20.653C9.38942 20.7597 9.50942 20.893 9.57609 21.053L11.3628 24.9863C11.4294 25.133 11.5628 25.173 11.6294 25.173C11.6961 25.1863 11.8294 25.173 11.9228 25.0663L13.8961 22.693C14.0828 22.4664 14.3628 22.333 14.6694 22.333C19.6294 22.333 23.6694 18.5997 23.6694 13.9997C23.6694 12.7863 23.3894 11.6263 22.8428 10.5463C21.4028 7.57297 18.1894 5.66634 14.6694 5.66634Z" fill="#CB9E31"/>
<path id="Vector_3" d="M24.3229 32.3336C23.6295 32.3336 22.9895 32.027 22.5362 31.4936L20.8562 29.4803C17.6295 29.347 14.5895 27.8669 12.6429 25.4669C12.3362 25.0936 12.3495 24.5603 12.6562 24.2003L13.8962 22.707C14.0829 22.4803 14.3629 22.347 14.6695 22.347C19.6295 22.347 23.6695 18.6137 23.6695 14.0137C23.6695 12.8003 23.3895 11.6403 22.8429 10.5603C22.6695 10.2136 22.7096 9.8003 22.9496 9.49363C23.1896 9.18697 23.5895 9.05361 23.9629 9.13361C28.8962 10.2669 32.3362 14.387 32.3362 19.1603C32.3362 22.3603 30.8029 25.307 28.1362 27.2803L26.4562 30.9736C26.1095 31.7203 25.4296 32.227 24.6162 32.3203C24.5229 32.3336 24.4162 32.3336 24.3229 32.3336ZM14.7495 24.8003C16.4162 26.4936 18.8162 27.4803 21.3362 27.4803C21.6295 27.4803 21.9095 27.6136 22.1095 27.8403L24.0829 30.2136C24.1762 30.3336 24.2962 30.347 24.3762 30.3336C24.4295 30.3336 24.5762 30.2936 24.6562 30.1336L26.4429 26.2003C26.5229 26.0403 26.6295 25.8936 26.7762 25.8003C29.0429 24.2003 30.3495 21.7736 30.3495 19.147C30.3495 15.947 28.3895 13.107 25.4029 11.707C25.5895 12.4537 25.6829 13.2136 25.6829 14.0003C25.6829 19.547 21.0029 24.0936 15.1629 24.3203L14.7495 24.8003Z" fill="#CB9E31"/>
<path id="Vector_4" d="M18.0031 15H11.3364C10.7898 15 10.3364 14.5467 10.3364 14C10.3364 13.4533 10.7898 13 11.3364 13H18.0031C18.5498 13 19.0031 13.4533 19.0031 14C19.0031 14.5467 18.5498 15 18.0031 15Z" fill="#CB9E31"/>
</g>
</g>
</g>
<defs>
<linearGradient id="paint0_linear_238_2757" x1="5.00683" y1="29.693" x2="22.2858" y2="-6.95568" gradientUnits="userSpaceOnUse">
<stop stop-color="#FEEDB1"/>
<stop offset="1" stop-color="#E7A92D"/>
</linearGradient>
</defs>
</svg>
