<svg width="36" height="37" viewBox="0 0 36 37" fill="none" xmlns="http://www.w3.org/2000/svg">
<g id="Group 1528">
<path id="Vector" d="M1.00544 31.9751H1V4.02493C1 2.6308 2.13423 1.5 3.52493 1.5H32.4805C33.8746 1.5 35.0054 2.63423 35.0054 4.02493V32.9751C35.0054 34.3692 33.8712 35.5 32.4805 35.5H3.53037C2.13625 35.5 1.00544 34.3658 1.00544 32.9751V31.9751Z" fill="white" stroke="url(#paint0_linear_237_2711)" stroke-width="2"/>
<path id="coolicon" d="M25.9091 31.9421C24.4263 31.9589 23.021 31.2935 22.1109 30.1437C21.2009 28.9938 20.8909 27.4921 21.2733 26.085L12.6952 21.2696C11.2129 22.6033 9.04014 22.8856 7.25574 21.9763C5.47133 21.0669 4.45536 19.1596 4.71228 17.2014C4.9692 15.2431 6.4443 13.6511 8.40514 13.2157C10.366 12.7804 12.3949 13.5944 13.4845 15.2537L21.272 10.881C21.1712 10.5071 21.1178 10.1225 21.113 9.73573C21.0934 7.48376 22.6858 5.52748 24.9269 5.05063C27.1679 4.57377 29.4419 5.70729 30.3731 7.76531C31.3042 9.82333 30.6366 12.2406 28.7743 13.5546C26.9121 14.8685 24.3665 14.7181 22.6779 13.1945L14.2491 17.9252C14.2408 18.2742 14.1911 18.621 14.1011 18.9588L22.6779 23.7728C24.2568 22.3497 26.6063 22.13 28.4303 23.2349C30.2543 24.3399 31.1089 26.5005 30.5227 28.525C29.9365 30.5496 28.0522 31.9452 25.9091 31.9421ZM25.9091 25.2129C24.7739 25.2129 23.8536 26.1167 23.8536 27.2316C23.8536 28.3466 24.7739 29.2504 25.9091 29.2504C27.0443 29.2504 27.9645 28.3466 27.9645 27.2316C27.9645 26.1167 27.0443 25.2129 25.9091 25.2129ZM9.46538 15.792C8.33018 15.792 7.40991 16.6958 7.40991 17.8108C7.40991 18.9257 8.33018 19.8295 9.46538 19.8295C10.6006 19.8295 11.5208 18.9257 11.5208 17.8108C11.5208 16.6958 10.6006 15.792 9.46538 15.792ZM25.9091 7.71697C24.7739 7.71697 23.8536 8.6208 23.8536 9.73573C23.8536 10.8507 24.7739 11.7545 25.9091 11.7545C27.0443 11.7545 27.9645 10.8507 27.9645 9.73573C27.9645 8.6208 27.0443 7.71697 25.9091 7.71697Z" fill="#CB9E31"/>
</g>
<defs>
<linearGradient id="paint0_linear_237_2711" x1="5.00683" y1="30.193" x2="22.2858" y2="-6.45568" gradientUnits="userSpaceOnUse">
<stop stop-color="#FEEDB1"/>
<stop offset="1" stop-color="#E7A92D"/>
</linearGradient>
</defs>
</svg>
