<svg width="36" height="36" viewBox="0 0 36 36" fill="none" xmlns="http://www.w3.org/2000/svg">
<g id="Group 1528">
<path id="Vector" d="M1.00544 31.4751H1V3.52493C1 2.1308 2.13423 1 3.52493 1H32.4805C33.8746 1 35.0054 2.13423 35.0054 3.52493V32.4751C35.0054 33.8692 33.8712 35 32.4805 35H3.53037C2.13625 35 1.00544 33.8658 1.00544 32.4751V31.4751Z" fill="white" stroke="url(#paint0_linear_237_2255)" stroke-width="2"/>
<g id="Group 1529">
<path id="Vector_2" d="M30.8458 27.8304C30.7105 26.3594 29.1492 25.3463 26.9599 24.0764C26.4083 23.7572 25.9156 23.4484 25.4819 23.157C26.953 22.2861 28.202 22.0328 28.2124 22.0294C28.4553 21.9843 28.6531 21.8108 28.7363 21.5783C28.8196 21.3459 28.771 21.0891 28.6149 20.9018L25.697 17.4218C25.5686 17.2657 25.3778 17.1755 25.1731 17.1755H25.1627C24.9649 17.1755 24.7741 17.2622 24.6423 17.408C24.1288 17.9874 23.5008 18.6327 22.7618 19.3335L14.7749 6.53789C14.6916 6.40605 14.5667 6.30543 14.421 6.25339L6.08373 3.24183C6.0074 3.21407 5.9276 3.2002 5.8478 3.2002C5.6882 3.2002 5.5286 3.25571 5.40023 3.36326C5.21287 3.51939 5.12266 3.7692 5.1643 4.01207L6.67355 12.7449C6.7013 12.8976 6.77763 13.0363 6.89213 13.1439L18.1022 23.2402C17.2834 23.8405 16.5374 24.3505 15.8782 24.7564C15.7048 24.8605 15.5868 25.0375 15.5556 25.2352C15.5243 25.433 15.5798 25.6377 15.7082 25.7938L18.6261 29.2738C18.7579 29.4334 18.9557 29.5201 19.1569 29.5201C19.1951 29.5201 19.2333 29.5201 19.2714 29.5097C19.5143 29.4715 19.7155 29.305 19.8057 29.076C19.8127 29.0621 20.2811 27.879 21.3913 26.5814C21.603 27.0602 21.8215 27.598 22.0401 28.1947C22.8589 30.4361 23.702 32.7502 25.6242 32.7502C26.3597 32.7502 27.1542 32.3894 28.0667 31.64L29.3053 30.6026C30.4225 29.645 30.9256 28.736 30.8423 27.827L30.8458 27.8304Z" fill="#CB9E31"/>
<g id="Group">
<path id="Vector_3" d="M5.84766 3.89453L7.3569 12.6274L19.2401 23.3309L20.9471 21.9014L5.84766 3.89453Z" fill="url(#paint1_linear_237_2255)"/>
<path id="Vector_4" d="M5.84766 3.89453L14.185 6.90262L22.6541 20.4685L20.9471 21.9014L5.84766 3.89453Z" fill="white"/>
<path id="Vector_5" d="M23.1641 22.0435L21.9324 23.0774L20.7007 24.1113L20.7527 24.1564C20.9436 24.3368 21.6617 25.1418 22.6922 27.9625C23.9031 31.2794 24.8572 33.3854 27.6224 31.1163L28.24 30.5993L28.8576 30.0824C31.5742 27.7578 29.6694 26.4498 26.6128 24.6803C24.0141 23.1745 23.3445 22.328 23.2022 22.1059L23.1675 22.0435H23.1641Z" fill="#F6C454"/>
<g id="Group_2" opacity="0.5">
<path id="Vector_6" d="M22.3765 20.7046L13.9005 7.1838L6.76709 4.50879L21.2177 21.6691L22.3765 20.7046Z" fill="url(#paint2_linear_237_2255)"/>
</g>
<path id="Vector_7" opacity="0.53" d="M19.24 23.3306L19.2227 19.8472L22.654 20.4682L22.4597 23.7053L19.24 23.3306Z" fill="url(#paint3_linear_237_2255)"/>
<path id="Vector_8" d="M20.9469 21.9012C20.9469 21.9012 18.4558 23.9899 16.2388 25.35L19.1567 28.8299C19.1567 28.8299 20.1142 26.311 22.6886 24.4375L22.9142 24.2501L23.1397 24.0628C25.433 21.8561 28.0803 21.3496 28.0803 21.3496L25.1624 17.8696C23.4381 19.816 20.9469 21.9047 20.9469 21.9047V21.9012Z" fill="#CB9E31"/>
</g>
</g>
</g>
<defs>
<linearGradient id="paint0_linear_237_2255" x1="5.00683" y1="29.693" x2="22.2858" y2="-6.95568" gradientUnits="userSpaceOnUse">
<stop stop-color="#FEEDB1"/>
<stop offset="1" stop-color="#E7A92D"/>
</linearGradient>
<linearGradient id="paint1_linear_237_2255" x1="8.49299" y1="6.5973" x2="25.0584" y2="12.6657" gradientUnits="userSpaceOnUse">
<stop stop-color="#FEEDB1"/>
<stop offset="1" stop-color="#E7A92D"/>
</linearGradient>
<linearGradient id="paint2_linear_237_2255" x1="9.50178" y1="6.89506" x2="25.9066" y2="13.9316" gradientUnits="userSpaceOnUse">
<stop stop-color="#FEEDB1"/>
<stop offset="1" stop-color="#E7A92D"/>
</linearGradient>
<linearGradient id="paint3_linear_237_2255" x1="19.8238" y1="20.3837" x2="23.4549" y2="21.9065" gradientUnits="userSpaceOnUse">
<stop stop-color="#FEEDB1"/>
<stop offset="1" stop-color="#E7A92D"/>
</linearGradient>
</defs>
</svg>
