<svg width="36" height="36" viewBox="0 0 36 36" fill="none" xmlns="http://www.w3.org/2000/svg">
<rect width="36" height="36" rx="18" fill="#00B0F2"/>
<path fill-rule="evenodd" clip-rule="evenodd" d="M22.0018 26.9128C23.2599 27.4632 23.7317 26.3099 23.7317 26.3099L27.0605 9.58727C27.0343 8.46019 25.5141 9.14168 25.5141 9.14168L6.878 16.4546C6.878 16.4546 5.98683 16.7691 6.06546 17.3195C6.14409 17.87 6.85179 18.1321 6.85179 18.1321L11.5436 19.7048C11.5436 19.7048 12.959 24.3441 13.2473 25.2353C13.5094 26.1003 13.7453 26.1265 13.7453 26.1265C14.0074 26.2313 14.2433 26.0478 14.2433 26.0478L17.2838 23.2957L22.0018 26.9128ZM22.8144 12.5494C22.8144 12.5494 23.4697 12.1562 23.4435 12.5494C23.4435 12.5494 23.5483 12.6018 23.2076 12.9688C22.893 13.2833 15.4753 19.9409 14.4793 20.8321C14.4006 20.8845 14.3482 20.9631 14.3482 21.068L14.0599 23.5318C14.0075 23.7939 13.6667 23.8201 13.5881 23.5842L12.3562 19.5477C12.3038 19.3905 12.3562 19.207 12.5134 19.1021L22.8144 12.5494Z" fill="white"/>
</svg>
