<svg width="36" height="36" viewBox="0 0 36 36" fill="none" xmlns="http://www.w3.org/2000/svg">
<g id="Group 1528">
<g id="YouTube">
<rect id="Rectangle" width="36" height="36" rx="18" fill="#FF0000"/>
<g id="Group">
<path id="Exclude" fill-rule="evenodd" clip-rule="evenodd" d="M27.6375 18.1272C27.4057 17.2661 26.7268 16.5872 25.8657 16.3553C24.2926 15.9248 18.0001 15.9248 18.0001 15.9248C18.0001 15.9248 11.7076 15.9248 10.1345 16.3388C9.29002 16.5706 8.59454 17.2661 8.36271 18.1272C7.94873 19.7003 7.94873 22.9624 7.94873 22.9624C7.94873 22.9624 7.94873 26.2411 8.36271 27.7977C8.59454 28.6588 9.27346 29.3377 10.1345 29.5695C11.7242 30.0001 18.0001 30 18.0001 30C18.0001 30 24.2926 30 25.8657 29.5861C26.7268 29.3542 27.4057 28.6753 27.6375 27.8142C28.0515 26.2411 28.0515 22.979 28.0515 22.979C28.0515 22.979 28.068 19.7003 27.6375 18.1272ZM23.5326 24.5554V24.848C23.5326 25.2165 23.5435 25.4983 23.5651 25.6825C23.5868 25.8667 23.6302 26.0076 23.706 26.0835C23.771 26.1702 23.8794 26.2135 24.0311 26.2135C24.2262 26.2135 24.3563 26.1377 24.4321 25.9859C24.508 25.8342 24.5405 25.585 24.5513 25.2273L25.6676 25.2924C25.6784 25.3465 25.6784 25.4116 25.6784 25.4983C25.6784 26.0293 25.5375 26.4303 25.2449 26.6904C24.9523 26.9505 24.5405 27.0805 24.0095 27.0805C23.3701 27.0805 22.9257 26.8746 22.6656 26.4736C22.4055 26.0726 22.2755 25.4549 22.2755 24.6096V23.6017C22.2755 22.7347 22.4055 22.1062 22.6765 21.7052C22.9474 21.3042 23.4026 21.1091 24.042 21.1091C24.4863 21.1091 24.8331 21.1958 25.0715 21.3584C25.3099 21.521 25.4725 21.781 25.57 22.117C25.6676 22.4638 25.7109 22.9406 25.7109 23.5475V24.5337H23.5326V24.5554ZM23.6952 22.1278C23.6302 22.2145 23.5868 22.3446 23.5651 22.5288C23.5435 22.7131 23.5326 22.9948 23.5326 23.3741V23.786H24.4863V23.3741C24.4863 23.0057 24.4755 22.7239 24.4538 22.5288C24.4321 22.3338 24.3779 22.2037 24.3129 22.1278C24.2479 22.052 24.1395 22.0086 24.0095 22.0086C23.8577 21.9978 23.7602 22.0411 23.6952 22.1278ZM17.2686 27.0154V21.2391H15.9681V25.8233C15.9248 25.9317 15.8489 26.0184 15.7405 26.0834C15.6322 26.1593 15.5238 26.1918 15.4154 26.1918C15.2854 26.1918 15.1878 26.1376 15.1337 26.0293C15.0795 25.9209 15.047 25.7366 15.047 25.4765V21.2391H13.7465V25.5524C13.7465 26.0943 13.8332 26.4844 14.0174 26.7337C14.2016 26.9829 14.4834 27.113 14.8627 27.113C15.4154 27.113 15.8381 26.8421 16.109 26.311H16.1415L16.2499 27.0154H17.2686ZM14.1366 20.1554H12.8469V27.0046H11.579V20.1554H10.2893V19.1041H14.1366V20.1554ZM21.1917 21.3691C21.3651 21.5317 21.4952 21.7918 21.571 22.1603C21.6469 22.5179 21.6794 23.0273 21.6903 23.6883V24.5987C21.6903 25.4548 21.5819 26.0942 21.376 26.4952C21.1701 26.8962 20.8558 27.1021 20.4115 27.1021C20.1622 27.1021 19.9454 27.0371 19.7395 26.9287C19.5336 26.8095 19.3819 26.6578 19.2844 26.4627H19.2519L19.1218 27.0046H18.0489V18.8115H19.306V21.8568H19.3169C19.4253 21.6401 19.5878 21.4558 19.7937 21.3258C19.9996 21.1849 20.2272 21.1199 20.4656 21.1199C20.7691 21.1199 21.0183 21.2066 21.1917 21.3691ZM20.3248 25.4982C20.3573 25.2598 20.3789 24.9346 20.3789 24.512H20.3898V23.7534C20.3898 23.309 20.3789 22.9622 20.3464 22.713C20.3139 22.4746 20.2706 22.3012 20.1947 22.1928C20.1297 22.0952 20.0213 22.0411 19.8913 22.0411C19.772 22.0411 19.6528 22.0952 19.5445 22.1928C19.4361 22.3012 19.3602 22.4312 19.3169 22.5829V25.8558C19.3711 25.9533 19.4469 26.0292 19.5336 26.0834C19.6203 26.1376 19.7179 26.1593 19.8262 26.1593C19.9563 26.1593 20.0647 26.1051 20.1514 26.0075C20.2272 25.91 20.2922 25.7366 20.3248 25.4982Z" fill="white"/>
<g id="You">
<path id="Vector" d="M16.7812 13.7377C16.5211 13.5643 16.3369 13.2933 16.2285 12.914C16.1201 12.5455 16.0659 12.047 16.0659 11.4401V10.6057C16.0659 9.98793 16.1309 9.48941 16.2502 9.1101C16.3802 8.7308 16.5753 8.45986 16.8354 8.28646C17.1063 8.11307 17.4531 8.02637 17.8866 8.02637C18.3093 8.02637 18.656 8.11307 18.9161 8.28646C19.1762 8.45986 19.3605 8.74163 19.4797 9.1101C19.5989 9.47857 19.6639 9.97709 19.6639 10.6057V11.4401C19.6639 12.0579 19.6097 12.5455 19.4905 12.9249C19.3713 13.2933 19.1871 13.5751 18.927 13.7485C18.6669 13.9219 18.3093 14.0086 17.8649 14.0086C17.4098 13.9978 17.0413 13.9111 16.7812 13.7377ZM18.2442 12.8273C18.3201 12.6431 18.3526 12.3288 18.3526 11.9061V10.1071C18.3526 9.69532 18.3201 9.39188 18.2442 9.1968C18.1684 9.00173 18.0492 8.91503 17.8649 8.91503C17.6915 8.91503 17.5615 9.01257 17.4964 9.1968C17.4206 9.39188 17.3881 9.69532 17.3881 10.1071V11.9061C17.3881 12.3288 17.4206 12.6431 17.4964 12.8273C17.5615 13.0116 17.6915 13.1091 17.8758 13.1091C18.0492 13.1091 18.1684 13.0224 18.2442 12.8273Z" fill="white"/>
<path id="Vector_2" d="M13.6165 11.3428L12.1426 6H13.4322L13.9524 8.41673C14.0825 9.01279 14.18 9.52214 14.245 9.9448H14.2775C14.3209 9.64135 14.4184 9.14284 14.5701 8.42757L15.112 6H16.4017L14.9061 11.3428V13.9004H13.6273V11.3428H13.6165Z" fill="white"/>
<path id="Vector_3" d="M23.8581 8.13477V13.9111H22.8394L22.731 13.2067H22.6985C22.4275 13.7377 22.0049 14.0086 21.4522 14.0086C21.0729 14.0086 20.7911 13.8786 20.6069 13.6293C20.4226 13.38 20.3359 12.9899 20.3359 12.448V8.13477H21.6364V12.3722C21.6364 12.6323 21.6689 12.8165 21.7231 12.9249C21.7773 13.0333 21.8748 13.0874 22.0049 13.0874C22.1133 13.0874 22.2216 13.0549 22.33 12.9791C22.4384 12.914 22.5142 12.8273 22.5576 12.719V8.13477H23.8581Z" fill="white"/>
</g>
</g>
</g>
</g>
</svg>
