<svg width="36" height="36" viewBox="0 0 36 36" fill="none" xmlns="http://www.w3.org/2000/svg">
<g id="Group 1528">
<g id="Group">
<path id="Vector" d="M35.9881 18.0006C35.9881 27.0918 29.2512 34.6076 20.4994 35.8272C19.6811 35.9407 18.8439 36 17.9941 36C17.0131 36 16.0498 35.9218 15.1117 35.7705C6.54398 34.3906 0 26.9593 0 18.0006C0 8.05942 8.05704 0 17.9953 0C27.9336 0 35.9907 8.05942 35.9907 18.0006H35.9881Z" fill="#1C1C1B"/>
<g id="layer1">
<path id="path1009" d="M7.29779 7.93848L15.5969 19.0375L7.24609 28.0618H9.12608L16.4379 20.1613L22.3452 28.0618H28.7416L19.976 16.3384L27.7493 7.93848H25.8693L19.1362 15.2147L13.6955 7.93848H7.29904H7.29779ZM10.0616 9.32333H12.9995L25.9753 26.6769H23.0374L10.0616 9.32333Z" fill="white"/>
</g>
</g>
</g>
</svg>
