<svg width="24" height="20" viewBox="-6 0 24 20" fill="none" xmlns="http://www.w3.org/2000/svg">
<path d="M11.3896 10.0068C11.3841 9.81315 11.3454 9.63607 11.2734 9.47559C11.2015 9.3151 11.0908 9.16016 10.9414 9.01074L2.62402 0.958984C2.38607 0.721029 2.09277 0.602051 1.74414 0.602051C1.51172 0.602051 1.30143 0.657389 1.11328 0.768066C0.919596 0.878743 0.767415 1.02816 0.656738 1.21631C0.540527 1.40446 0.482422 1.61475 0.482422 1.84717C0.482422 2.19027 0.612467 2.49186 0.872559 2.75195L8.39307 9.99854L0.872559 17.2534C0.612467 17.519 0.482422 17.8206 0.482422 18.1582C0.482422 18.3962 0.540527 18.6092 0.656738 18.7974C0.767415 18.9855 0.919596 19.1349 1.11328 19.2456C1.30143 19.3618 1.51172 19.4199 1.74414 19.4199C2.09277 19.4199 2.38607 19.2982 2.62402 19.0547L10.9414 11.0029C11.0964 10.8535 11.2098 10.6986 11.2817 10.5381C11.3537 10.3721 11.3896 10.195 11.3896 10.0068Z" fill="white"/>
</svg>
