<svg width="24" height="19" viewBox="-5 0 24 19" fill="none" xmlns="http://www.w3.org/2000/svg">
<g id="Group 478">
<path id="Vector" d="M0.834927 8.31494H2.81643C3.18917 8.31494 3.49328 8.61905 3.49328 8.99179V17.4376C3.49328 17.8103 3.18917 18.1144 2.81643 18.1144H0.834927C0.462186 18.1144 0.158081 17.8103 0.158081 17.4376V8.99172C0.158081 8.61905 0.462248 8.31494 0.834927 8.31494Z" fill="#FFD630"/>
<path id="Vector_2" d="M1.82568 8.31494H2.8164C3.18914 8.31494 3.49325 8.61905 3.49325 8.99179V17.4376C3.49325 17.8103 3.18914 18.1144 2.8164 18.1144H1.82568V8.31494Z" fill="#F5BE18"/>
<path id="Vector_3" d="M5.52414 5.50928H7.50564C7.87838 5.50928 8.18248 5.81338 8.18248 6.18612V17.4373C8.18248 17.81 7.87838 18.1142 7.50564 18.1142H5.52414C5.15139 18.1142 4.84729 17.81 4.84729 17.4373V6.18606C4.84723 5.81338 5.15133 5.50928 5.52414 5.50928Z" fill="#FFD630"/>
<path id="Vector_4" d="M6.51404 5.50928H7.50476C7.8775 5.50928 8.1816 5.81338 8.1816 6.18612V17.4373C8.1816 17.81 7.8775 18.1142 7.50476 18.1142H6.51404V5.50928Z" fill="#F5BE18"/>
<path id="Vector_5" d="M12.8608 3.71429V17.4374C12.8608 17.8101 12.5567 18.1142 12.184 18.1142H10.2025C9.82973 18.1142 9.52563 17.8101 9.52563 17.4374V3.71429H8.54468L11.1933 0.114258L13.8417 3.71429H12.8608Z" fill="#FFD630"/>
<path id="Vector_6" d="M12.8612 3.71429V17.4374C12.8612 17.8101 12.5571 18.1142 12.1843 18.1142H11.1936V0.114258L13.8421 3.71429H12.8612Z" fill="#F5BE18"/>
<path id="Vector_7" d="M10.5653 5.2251L8.02478 8.43273L9.52558 8.50142C9.52558 8.50142 9.0842 11.9543 6.73972 13.9161C4.39525 15.878 1.93323 15.2599 1.93323 15.2599C1.93323 15.2599 4.60128 16.0741 7.52447 14.7695C10.4477 13.4648 11.1931 10.679 11.1931 8.51113H12.5565L10.5653 5.2251Z" fill="#F7F7F8"/>
</g>
</svg>
