<svg width="24" height="24" viewBox="-1.5 -1.5 24 24" fill="none" xmlns="http://www.w3.org/2000/svg">
<g id="Group">
<path id="Vector" d="M18.2181 20.1142C17.617 20.1142 17.0474 19.8755 16.6139 19.442L13.8362 16.6643C13.7355 16.5635 13.6788 16.4269 13.6788 16.2844C13.6788 16.1419 13.7355 16.0054 13.8362 15.9045L16.1155 13.6251C16.2163 13.5244 16.353 13.4678 16.4955 13.4678C16.638 13.4678 16.7746 13.5244 16.8754 13.6251L19.6532 16.4028C20.0714 16.821 20.3098 17.3707 20.3247 17.9509C20.3398 18.5413 20.1224 19.0921 19.7129 19.5017C19.3178 19.8967 18.7871 20.1142 18.2181 20.1142ZM14.976 16.2846L17.3738 18.6824C17.6043 18.9129 17.9041 19.0399 18.2182 19.0399C18.5001 19.0399 18.761 18.9342 18.953 18.7421C19.1523 18.5428 19.2579 18.2717 19.2505 17.9786C19.2427 17.6752 19.1159 17.3854 18.8934 17.1629L16.4957 14.7651L14.976 16.2846Z" fill="#CB9E31"/>
<path id="Vector_2" d="M12.6966 18.3415C12.5591 18.3415 12.4216 18.289 12.3166 18.1842C12.1069 17.9744 12.1069 17.6342 12.3166 17.4244L18.0151 11.7257C18.2249 11.5159 18.565 11.5159 18.7749 11.7257C18.9847 11.9355 18.9847 12.2757 18.7749 12.4854L13.0765 18.1841C12.9715 18.2889 12.8341 18.3414 12.6966 18.3414L12.6966 18.3415Z" fill="#CB9E31"/>
<path id="Vector_3" d="M15.7357 19.8608C15.5982 19.8608 15.4608 19.8083 15.3558 19.7035C15.146 19.4937 15.146 19.1535 15.3558 18.9437L19.1549 15.1446C19.3646 14.9349 19.7048 14.9349 19.9146 15.1446C20.1244 15.3544 20.1244 15.6947 19.9146 15.9045L16.1156 19.7035C16.0107 19.8083 15.8733 19.8608 15.7357 19.8608Z" fill="#CB9E31"/>
<path id="Vector_4" d="M6.70087 10.8264C6.55834 10.8264 6.4218 10.7698 6.32102 10.6691L1.97967 6.32774C1.90574 6.25381 1.85501 6.15998 1.83366 6.05765L0.784417 1.0284C0.746538 0.84702 0.804903 0.658862 0.938643 0.530743C1.07238 0.402511 1.26284 0.352263 1.44248 0.397873L6.29065 1.62802C6.38438 1.65179 6.47 1.7005 6.53842 1.76882L10.8798 6.11017C10.9805 6.21086 11.0371 6.3475 11.0371 6.49002C11.0371 6.63254 10.9805 6.76909 10.8798 6.86987L7.08075 10.6689C6.97997 10.7699 6.8434 10.8264 6.70087 10.8264ZM2.8528 5.68132L6.70087 9.52939L7.84056 8.38971L4.25916 4.80831C4.15431 4.70337 4.10184 4.56586 4.10184 4.42836C4.10184 4.29086 4.15431 4.15335 4.25916 4.04851C4.46895 3.83871 4.80918 3.83871 5.01899 4.04851L8.60039 7.6299L9.74007 6.49022L5.88309 2.63324L2.01183 1.65097L2.8528 5.68132Z" fill="#CB9E31"/>
<path id="Vector_5" d="M15.3558 15.6819C15.2183 15.6819 15.0808 15.6294 14.9758 15.5245L12.0194 12.5681C11.9187 12.4673 11.8621 12.3307 11.8621 12.1882C11.8621 12.0457 11.9187 11.9091 12.0194 11.8083L13.9189 9.90877C14.1289 9.69898 14.4689 9.69908 14.6787 9.90877L17.6349 12.865C17.7357 12.9658 17.7922 13.1024 17.7922 13.2449C17.7922 13.3875 17.7356 13.524 17.6349 13.6249L15.7354 15.5244C15.6306 15.6292 15.4931 15.6817 15.3556 15.6817L15.3558 15.6819ZM13.1592 12.1883L15.3558 14.3849L16.4955 13.2452L14.2989 11.0487L13.1592 12.1883Z" fill="#CB9E31"/>
<path id="Vector_6" d="M13.456 17.5816C13.3185 17.5816 13.1811 17.5291 13.0762 17.4242L10.1197 14.4681C9.90995 14.2583 9.90995 13.918 10.1197 13.7082L12.0193 11.8087C12.2291 11.5989 12.5692 11.5989 12.7791 11.8087L15.7353 14.7649C15.9451 14.9747 15.9451 15.3149 15.7353 15.5247L13.8358 17.4242C13.7309 17.5291 13.5935 17.5816 13.4559 17.5816H13.456ZM11.2596 14.0881L13.456 16.2846L14.5957 15.1449L12.3992 12.9484L11.2596 14.0881Z" fill="#CB9E31"/>
<path id="Vector_7" d="M8.60011 8.92698C8.4626 8.92698 8.3251 8.87461 8.22016 8.76966L4.25878 4.80829C4.04899 4.59849 4.04899 4.25826 4.25878 4.04846C4.46857 3.83867 4.80881 3.83867 5.01861 4.04846L8.97999 8.00983C9.18978 8.21962 9.18978 8.55986 8.97999 8.76966C8.87514 8.87461 8.73751 8.92698 8.60011 8.92698Z" fill="#CB9E31"/>
<path id="Vector_8" d="M15.3558 15.6822C15.2183 15.6822 15.0808 15.6297 14.9758 15.5249L12.0194 12.5684C11.8096 12.3586 11.8096 12.0185 12.0194 11.8087C12.2293 11.5989 12.5693 11.5989 12.7792 11.8087L15.7354 14.7649C15.9452 14.9747 15.9452 15.3149 15.7354 15.5247C15.6306 15.6296 15.4932 15.6821 15.3557 15.6821L15.3558 15.6822Z" fill="#CB9E31"/>
<path id="Vector_9" d="M7.54335 17.5816C7.40584 17.5816 7.26834 17.5291 7.1635 17.4243L3.36447 13.6253C3.26378 13.5245 3.20715 13.3878 3.20715 13.2453C3.20715 13.1028 3.26378 12.9661 3.36447 12.8654L14.461 1.76878C14.5295 1.70036 14.6151 1.65175 14.7088 1.62798L19.5572 0.397832C19.7366 0.352319 19.9272 0.402471 20.061 0.530703C20.1947 0.658935 20.2531 0.846979 20.2153 1.02836L19.1661 6.05761C19.1447 6.15994 19.094 6.25377 19.02 6.32779L7.92323 17.4244C7.81828 17.5292 7.68085 17.5816 7.54335 17.5816ZM4.50403 13.2453L7.54335 16.2846L18.1469 5.68128L18.9877 1.65096L15.1164 2.63323L4.50403 13.2453Z" fill="#CB9E31"/>
<path id="Vector_10" d="M2.78169 20.1142C2.21282 20.1142 1.68201 19.8967 1.28707 19.5017C0.877531 19.0921 0.660207 18.5414 0.675297 17.9509C0.690082 17.3707 0.928565 16.821 1.34681 16.4028L4.12455 13.6251C4.22534 13.5244 4.36198 13.4678 4.5045 13.4678C4.64702 13.4678 4.78357 13.5244 4.88445 13.6251L7.16384 15.9045C7.37363 16.1143 7.37363 16.4545 7.16384 16.6642L4.3861 19.4419C3.95252 19.8754 3.38273 20.1142 2.78169 20.1142ZM4.50435 14.7649L2.10659 17.1627C1.88405 17.3853 1.75717 17.675 1.74942 17.9784C1.74198 18.2716 1.84751 18.5426 2.04685 18.7419C2.23886 18.934 2.49985 19.0397 2.78164 19.0397C3.09569 19.0397 3.39554 18.9127 3.62603 18.6822L6.02379 16.2844L4.50435 14.7649Z" fill="#CB9E31"/>
<path id="Vector_11" d="M8.30336 18.3414C8.16585 18.3414 8.02835 18.2889 7.92351 18.1841L2.22485 12.4854C2.01506 12.2756 2.01506 11.9354 2.22485 11.7257C2.43464 11.5159 2.77487 11.5159 2.98468 11.7257L8.68334 17.4244C8.89313 17.6342 8.89313 17.9744 8.68334 18.1842C8.57839 18.289 8.44088 18.3415 8.30339 18.3415L8.30336 18.3414Z" fill="#CB9E31"/>
<path id="Vector_12" d="M5.2642 19.8608C5.12669 19.8608 4.98919 19.8084 4.88435 19.7035L1.08532 15.9045C0.875531 15.6947 0.875531 15.3545 1.08532 15.1447C1.29511 14.9348 1.63535 14.9349 1.84515 15.1447L5.64418 18.9437C5.85397 19.1535 5.85397 19.4937 5.64418 19.7035C5.53923 19.8084 5.40172 19.8608 5.26422 19.8608H5.2642Z" fill="#CB9E31"/>
<path id="Vector_13" d="M5.64398 15.682C5.50648 15.682 5.36897 15.6295 5.26403 15.5246C5.05424 15.3149 5.05424 14.9746 5.26403 14.7648L11.9809 8.04797C12.1907 7.83818 12.5309 7.83818 12.7407 8.04797C12.9505 8.25776 12.9505 8.59799 12.7407 8.8078L6.02386 15.5246C5.91892 15.6295 5.78148 15.682 5.64398 15.682Z" fill="#CB9E31"/>
</g>
</svg>
