<svg width="85" height="82" viewBox="0 0 85 82" fill="none" xmlns="http://www.w3.org/2000/svg">
<path d="M32.7071 21.2227L42.1508 50.3471L17.5159 31.5794L33.5309 57.9543L10.5352 44.1611L36.1572 74.2839C38.6115 72.9528 48.7235 64.9435 54.7189 61.7328C65.0105 56.2323 74.6618 52.1788 75.3313 53.0373L64.0574 15.1325L63.0766 41.9297L49.7045 14.1215L51.9847 45.0543L32.7071 21.2227Z" fill="url(#paint0_linear_188_1380)"/>
<path d="M32.7071 21.2227L42.1508 50.3471L17.5159 31.5794L33.5309 57.9543L10.5352 44.1611L36.1572 74.2839C36.3373 72.9644 44.0523 67.518 54.6876 61.7498L32.7071 21.2227Z" fill="url(#paint1_linear_188_1380)"/>
<path d="M7.83843 40.0875C9.69494 39.0806 12.0245 39.7717 13.0315 41.6283C14.0385 43.485 13.3474 45.8144 11.4907 46.8214C9.63396 47.8284 7.30461 47.1373 6.2976 45.2806C5.29059 43.4239 5.98192 41.0944 7.83843 40.0875ZM62.0935 10.4579C63.95 9.45103 66.2795 10.1421 67.2865 11.9988C68.2934 13.8553 67.6024 16.1848 65.7457 17.1918C63.889 18.1988 61.5596 17.5077 60.5526 15.651C59.5458 13.7942 60.2369 11.4648 62.0935 10.4579ZM47.5794 9.90042C49.4359 8.89351 51.7655 9.58455 52.7725 11.4413C53.7794 13.2978 53.0884 15.6273 51.2317 16.6343C49.3751 17.6412 47.0456 16.9502 46.0386 15.0935C45.0316 13.2368 45.7229 10.9073 47.5794 9.90042ZM30.5386 17.1475C32.3951 16.1406 34.7247 16.8316 35.7317 18.6883C36.7386 20.5448 36.0475 22.8744 34.1908 23.8814C32.3341 24.8884 30.0048 24.1973 28.9978 22.3406C27.9909 20.4841 28.6823 18.1543 30.5386 17.1475ZM14.8987 27.5033C16.7552 26.4963 19.0848 27.1874 20.0918 29.0441C21.0987 30.9006 20.4077 33.2301 18.551 34.2371C16.6945 35.244 14.3649 34.553 13.3579 32.6963C12.3511 30.8395 13.0424 28.5101 14.8987 27.5033Z" fill="url(#paint2_linear_188_1380)"/>
<path d="M7.83818 40.0875C9.69468 39.0806 12.0242 39.7717 13.0312 41.6283C14.0382 43.485 13.3471 45.8144 11.4904 46.8214C9.63371 47.8284 7.30436 47.1373 6.29735 45.2806C5.29034 43.4239 5.98167 41.0944 7.83818 40.0875ZM30.5213 17.116L34.1733 23.8495C32.3168 24.8564 29.9872 24.1654 28.9802 22.3087C27.9734 20.4524 28.6649 18.1228 30.5213 17.116ZM14.8814 27.4718C16.7379 26.4648 19.0675 27.1559 20.0745 29.0126C21.0814 30.8691 20.3903 33.1986 18.5336 34.2056C16.6771 35.2126 14.3476 34.5215 13.3406 32.6648C12.3339 30.8082 13.0251 28.4786 14.8814 27.4718Z" fill="url(#paint3_linear_188_1380)"/>
<path d="M54.6713 61.7193C64.7086 56.2754 74.7689 51.9998 75.315 53.0067C75.8611 54.0136 67.526 59.5931 56.7021 65.4636C45.8782 71.3341 36.6557 75.2773 36.1096 74.2704C35.5635 73.2635 44.634 67.1631 54.64 61.7362L54.6713 61.7193Z" fill="#CB9E31"/>
<defs>
<linearGradient id="paint0_linear_188_1380" x1="18.5398" y1="36.5454" x2="83.6103" y2="39.1151" gradientUnits="userSpaceOnUse">
<stop stop-color="#FEEDB1"/>
<stop offset="1" stop-color="#E7A92D"/>
</linearGradient>
<linearGradient id="paint1_linear_188_1380" x1="13.8486" y1="39.0897" x2="49.3567" y2="31.5901" gradientUnits="userSpaceOnUse">
<stop stop-color="#FEEDB1"/>
<stop offset="1" stop-color="#E7A92D"/>
</linearGradient>
<linearGradient id="paint2_linear_188_1380" x1="11.8445" y1="29.9763" x2="44.822" y2="52.3019" gradientUnits="userSpaceOnUse">
<stop stop-color="#FEEDB1"/>
<stop offset="1" stop-color="#E7A92D"/>
</linearGradient>
<linearGradient id="paint3_linear_188_1380" x1="6.47679" y1="32.8523" x2="36.5135" y2="41.1168" gradientUnits="userSpaceOnUse">
<stop stop-color="#FEEDB1"/>
<stop offset="1" stop-color="#E7A92D"/>
</linearGradient>
</defs>
</svg>
