<svg width="19" height="20" viewBox="0 0 19 20" fill="none" xmlns="http://www.w3.org/2000/svg">
<g id="Group 1535">
<g id="Group 1529">
<path id="Vector" d="M18.1641 14.81C17.9604 13.9368 16.9374 13.4574 15.5155 12.876C15.1573 12.7299 14.8354 12.5852 14.5504 12.4461C15.3625 11.8001 16.0924 11.544 16.0984 11.541C16.2406 11.4937 16.3451 11.373 16.3759 11.2263C16.4066 11.0796 16.356 10.9292 16.2466 10.8296L14.2028 8.97985C14.1126 8.89665 13.9904 8.85828 13.8673 8.8753L13.861 8.87617C13.7421 8.89261 13.6346 8.96064 13.5674 9.05922C13.3069 9.4503 12.983 9.89054 12.5969 10.3734L6.73057 3.34399C6.66954 3.27165 6.58607 3.22154 6.49413 3.20236L1.23075 2.08495C1.18255 2.07461 1.13342 2.0729 1.08544 2.07954C0.989474 2.09281 0.898129 2.13946 0.829887 2.2148C0.730221 2.32426 0.696756 2.48196 0.741986 2.62453L2.37567 7.74976C2.40505 7.83924 2.46249 7.91634 2.54028 7.97149L10.1201 13.1098C9.67772 13.5388 9.27162 13.9075 8.90901 14.2064C8.81336 14.2834 8.75715 14.3996 8.75482 14.5211C8.75249 14.6426 8.80289 14.7611 8.89306 14.8443L10.9369 16.694C11.0294 16.779 11.1555 16.8147 11.2765 16.798C11.2995 16.7948 11.3224 16.7917 11.3445 16.7822C11.4874 16.7391 11.5945 16.6222 11.6297 16.477C11.6327 16.4681 11.816 15.7178 12.3756 14.8453C12.5427 15.1155 12.7188 15.4207 12.8999 15.7613C13.5786 17.0409 14.278 18.3622 15.4337 18.2024C15.8759 18.1412 16.3236 17.8582 16.81 17.3317L17.4684 16.6049C18.0605 15.9363 18.2874 15.3479 18.1618 14.8082L18.1641 14.81Z" fill="#CB9E31"/>
<g id="Group">
<path id="Vector_2" d="M1.14331 2.49707L2.77699 7.62231L10.812 13.0698L11.7195 12.0683L1.14331 2.49707Z" fill="url(#paint0_linear_238_2822)"/>
<path id="Vector_3" d="M1.14331 2.49707L6.40639 3.6124L12.6267 11.0648L11.7195 12.0683L1.14331 2.49707Z" fill="white"/>
<path id="Vector_4" d="M13.0644 11.9695L12.4098 12.6936L11.7552 13.4176L11.7903 13.4404C11.92 13.533 12.4188 13.9573 13.2729 15.5676C14.2768 17.4612 15.0256 18.6482 16.4995 17.0539L16.8279 16.6917L17.1562 16.3295C18.5963 14.7059 17.3423 14.0778 15.3573 13.2681C13.6695 12.5788 13.1965 12.1255 13.0925 12.0038L13.0665 11.9692L13.0644 11.9695Z" fill="#F6C454"/>
<g id="Group_2" opacity="0.5">
<path id="Vector_5" d="M12.4793 11.2299L6.25857 3.80522L1.74707 2.79004L11.8628 11.9062L12.4793 11.2299Z" fill="url(#paint1_linear_238_2822)"/>
</g>
<path id="Vector_6" opacity="0.53" d="M10.8118 13.0696L10.5117 10.9766L12.6265 11.0646L12.7789 13.0271L10.8118 13.0696Z" fill="url(#paint2_linear_238_2822)"/>
<path id="Vector_7" d="M11.7193 12.0682C11.7193 12.0682 10.3952 13.5312 9.17529 14.5333L11.2191 16.383C11.2191 16.383 11.5854 14.7889 12.9775 13.4483L13.0975 13.3169L13.2175 13.1855C14.4129 11.668 15.9625 11.1433 15.9625 11.1433L13.9187 9.29355C13.0438 10.6073 11.7196 12.0703 11.7196 12.0703L11.7193 12.0682Z" fill="#CB9E31"/>
</g>
</g>
<g id="Group 1530">
<path id="Vector_8" d="M0.82649 15.61C0.989351 14.7282 1.98895 14.2018 3.38231 13.5549C3.73337 13.3923 4.0482 13.2328 4.32642 13.0805C3.48516 12.4731 2.7441 12.2511 2.738 12.2484C2.59368 12.2078 2.48369 12.092 2.44617 11.9469C2.40864 11.8018 2.45215 11.6493 2.55686 11.5447L4.51243 9.60189C4.59864 9.51458 4.71896 9.47057 4.8427 9.48185L4.84899 9.48242C4.96853 9.49332 5.0791 9.55627 5.15077 9.65162C5.42924 10.0302 5.77328 10.4549 6.18138 10.9192L11.7144 3.62462C11.772 3.54951 11.8531 3.49557 11.944 3.47215L17.1497 2.11116C17.1974 2.09858 17.2464 2.09459 17.2947 2.09899C17.3911 2.10779 17.4845 2.15014 17.5562 2.22223C17.6609 2.32693 17.7016 2.4829 17.6631 2.62742L16.2695 7.82309C16.2443 7.91384 16.1905 7.99352 16.1154 8.05223L8.78273 13.5375C9.24461 13.9455 9.66742 14.2949 10.0435 14.5766C10.1427 14.6491 10.2042 14.7625 10.2122 14.8838C10.2202 15.0051 10.1753 15.1258 10.0891 15.2131L8.13355 17.1558C8.04506 17.245 7.92074 17.2866 7.7991 17.2755C7.77603 17.2734 7.75296 17.2713 7.73046 17.2629C7.58575 17.2264 7.47329 17.1147 7.43138 16.9713C7.42795 16.9625 7.21002 16.2215 6.61039 15.376C6.45608 15.6537 6.29431 15.9668 6.1293 16.3154C5.51083 17.6252 4.87366 18.9776 3.71177 18.8717C3.26715 18.8311 2.80676 18.5692 2.29647 18.0659L1.60491 17.3706C0.982363 16.7302 0.728351 16.153 0.828779 15.6081L0.82649 15.61Z" fill="#CB9E31"/>
<g id="Group_3">
<path id="Vector_9" d="M17.2563 2.51855L15.8628 7.71423L8.08979 13.5295L7.1367 12.5713L17.2563 2.51855Z" fill="url(#paint3_linear_238_2822)"/>
<path id="Vector_10" d="M17.2563 2.51855L12.0508 3.87745L6.1838 11.6111L7.1367 12.5713L17.2563 2.51855Z" fill="white"/>
<path id="Vector_11" d="M5.78852 12.5351L6.47608 13.228L7.16363 13.9209L7.12969 13.9453C7.0044 14.0438 6.5259 14.4908 5.74757 16.1391C4.83284 18.0774 4.14003 19.2978 2.59355 17.7738L2.24872 17.4273L1.90389 17.0808C0.389829 15.5259 1.61331 14.8402 3.55852 13.939C5.21236 13.172 5.66379 12.6972 5.76201 12.5708L5.78643 12.535L5.78852 12.5351Z" fill="#F6C454"/>
<g id="Group_4" opacity="0.5">
<path id="Vector_12" d="M6.3386 11.7692L12.2073 4.06325L16.6667 2.83936L6.98594 12.4161L6.3386 11.7692Z" fill="url(#paint4_linear_238_2822)"/>
</g>
<path id="Vector_13" opacity="0.53" d="M8.08979 13.5295L8.29224 11.4248L6.18381 11.6111L6.12287 13.5786L8.08979 13.5295Z" fill="url(#paint5_linear_238_2822)"/>
<path id="Vector_14" d="M7.13666 12.5716C7.13666 12.5716 8.52741 13.9715 9.79261 14.9158L7.83704 16.8585C7.83704 16.8585 7.397 15.2831 5.94407 14.0088L5.81807 13.8831L5.69207 13.7574C4.42737 12.2971 2.85507 11.8451 2.85507 11.8451L4.81064 9.90229C5.74573 11.1739 7.13647 12.5737 7.13647 12.5737L7.13666 12.5716Z" fill="#CB9E31"/>
</g>
</g>
</g>
<defs>
<linearGradient id="paint0_linear_238_2822" x1="2.95862" y1="3.90217" x2="13.4235" y2="6.1733" gradientUnits="userSpaceOnUse">
<stop stop-color="#FEEDB1"/>
<stop offset="1" stop-color="#E7A92D"/>
</linearGradient>
<linearGradient id="paint1_linear_238_2822" x1="3.58979" y1="3.99741" x2="14.0386" y2="6.86402" gradientUnits="userSpaceOnUse">
<stop stop-color="#FEEDB1"/>
<stop offset="1" stop-color="#E7A92D"/>
</linearGradient>
<linearGradient id="paint2_linear_238_2822" x1="10.9178" y1="11.2492" x2="13.2277" y2="11.8628" gradientUnits="userSpaceOnUse">
<stop stop-color="#FEEDB1"/>
<stop offset="1" stop-color="#E7A92D"/>
</linearGradient>
<linearGradient id="paint3_linear_238_2822" x1="15.5083" y1="4.00656" x2="5.16044" y2="6.76192" gradientUnits="userSpaceOnUse">
<stop stop-color="#FEEDB1"/>
<stop offset="1" stop-color="#E7A92D"/>
</linearGradient>
<linearGradient id="paint4_linear_238_2822" x1="14.8822" y1="4.13112" x2="4.57796" y2="7.48057" gradientUnits="userSpaceOnUse">
<stop stop-color="#FEEDB1"/>
<stop offset="1" stop-color="#E7A92D"/>
</linearGradient>
<linearGradient id="paint5_linear_238_2822" x1="7.89928" y1="11.716" x2="5.62046" y2="12.4364" gradientUnits="userSpaceOnUse">
<stop stop-color="#FEEDB1"/>
<stop offset="1" stop-color="#E7A92D"/>
</linearGradient>
</defs>
</svg>
