<svg width="29" height="20" viewBox="0 0 29 20" fill="none" xmlns="http://www.w3.org/2000/svg">
<g id="Group 480">
<path id="Vector" d="M19.8641 0C15.1377 0 11.3022 2.7238 11.3022 6.07554C11.3022 9.43576 15.1377 12.1511 19.8641 12.1511C21.8073 12.1511 23.5977 11.6928 25.0317 10.9207L28.4004 13.0421L26.924 9.51217C27.8658 8.53636 28.4259 7.34839 28.4259 6.07554C28.4259 2.71532 24.5904 0 19.8641 0Z" fill="#F7F7F8"/>
<g id="Group">
<path id="Vector_2" d="M15.8163 3.7251H24.0471C24.3096 3.7251 24.5223 3.93597 24.5223 4.19604C24.5223 4.45611 24.3096 4.66698 24.0471 4.66698H15.8163C15.5538 4.66698 15.3411 4.45611 15.3411 4.19604C15.3411 3.93597 15.5538 3.7251 15.8163 3.7251Z" fill="#E6E6E6"/>
<path id="Vector_3" d="M15.8163 5.63428H24.0471C24.3096 5.63428 24.5223 5.84515 24.5223 6.10522C24.5223 6.36529 24.3096 6.57616 24.0471 6.57616H15.8163C15.5538 6.57616 15.3411 6.36529 15.3411 6.10522C15.3411 5.84515 15.5538 5.63428 15.8163 5.63428Z" fill="#E6E6E6"/>
<path id="Vector_4" d="M15.8163 7.53516H24.0471C24.3096 7.53516 24.5223 7.74603 24.5223 8.0061C24.5223 8.26617 24.3096 8.47704 24.0471 8.47704H15.8163C15.5538 8.47704 15.3411 8.26617 15.3411 8.0061C15.3411 7.74595 15.5538 7.53516 15.8163 7.53516Z" fill="#E6E6E6"/>
</g>
<g id="Group_2">
<path id="Vector_5" d="M15.6805 3.54688H23.9114C24.1738 3.54688 24.3866 3.75774 24.3866 4.01782C24.3866 4.27789 24.1738 4.48876 23.9114 4.48876H15.6805C15.4181 4.48876 15.2053 4.27789 15.2053 4.01782C15.2054 3.75767 15.4181 3.54688 15.6805 3.54688Z" fill="#CB9E31"/>
<path id="Vector_6" d="M15.6805 5.44775H23.9114C24.1738 5.44775 24.3866 5.65862 24.3866 5.91869C24.3866 6.17876 24.1738 6.38963 23.9114 6.38963H15.6805C15.4181 6.38963 15.2053 6.17876 15.2053 5.91869C15.2054 5.65855 15.4181 5.44775 15.6805 5.44775Z" fill="#CB9E31"/>
<path id="Vector_7" d="M15.6805 7.35693H23.9114C24.1738 7.35693 24.3866 7.5678 24.3866 7.82787C24.3866 8.08794 24.1738 8.29881 23.9114 8.29881H15.6805C15.4181 8.29881 15.2053 8.08794 15.2053 7.82787C15.2054 7.5678 15.4181 7.35693 15.6805 7.35693Z" fill="#CB9E31"/>
</g>
<path id="Vector_8" d="M9.13823 6.95801C13.8646 6.95801 17.7 9.68181 17.7 13.0336C17.7 16.3938 13.8646 19.1091 9.13823 19.1091C7.19502 19.1091 5.40462 18.6508 3.97056 17.8787L0.601858 20.0001L2.07832 16.4702C1.13644 15.4944 0.576416 14.3065 0.576416 13.0336C0.576416 9.6734 4.41186 6.95801 9.13823 6.95801Z" fill="url(#paint0_linear_238_2843)"/>
<g id="Group_3">
<path id="Vector_9" d="M4.9552 10.6831H13.186C13.4485 10.6831 13.6613 10.894 13.6613 11.154C13.6613 11.4141 13.4485 11.625 13.186 11.625H4.9552C4.69276 11.625 4.47998 11.4141 4.47998 11.154C4.47998 10.894 4.69276 10.6831 4.9552 10.6831Z" fill="#FAC852"/>
<path id="Vector_10" d="M4.9552 12.584H13.186C13.4485 12.584 13.6613 12.7949 13.6613 13.0549C13.6613 13.315 13.4485 13.5259 13.186 13.5259H4.9552C4.69276 13.5259 4.47998 13.315 4.47998 13.0549C4.47998 12.7949 4.69276 12.584 4.9552 12.584Z" fill="#FAC852"/>
<path id="Vector_11" d="M4.9552 14.4932H13.186C13.4485 14.4932 13.6613 14.704 13.6613 14.9641C13.6613 15.2242 13.4485 15.435 13.186 15.435H4.9552C4.69276 15.435 4.47998 15.2242 4.47998 14.9641C4.47998 14.704 4.69276 14.4932 4.9552 14.4932Z" fill="#FAC852"/>
</g>
<g id="Group_4">
<path id="Vector_12" d="M5.09045 10.5049H13.3213C13.5837 10.5049 13.7965 10.7158 13.7965 10.9758C13.7965 11.2359 13.5837 11.4468 13.3213 11.4468H5.09045C4.82801 11.4468 4.61523 11.2359 4.61523 10.9758C4.61531 10.7157 4.82809 10.5049 5.09045 10.5049Z" fill="white"/>
<path id="Vector_13" d="M5.09045 12.4053H13.3213C13.5837 12.4053 13.7965 12.6161 13.7965 12.8762C13.7965 13.1363 13.5837 13.3472 13.3213 13.3472H5.09045C4.82801 13.3472 4.61523 13.1363 4.61523 12.8762C4.61531 12.6161 4.82809 12.4053 5.09045 12.4053Z" fill="white"/>
<path id="Vector_14" d="M5.09045 14.3149H13.3213C13.5837 14.3149 13.7965 14.5258 13.7965 14.7859C13.7965 15.046 13.5837 15.2568 13.3213 15.2568H5.09045C4.82801 15.2568 4.61523 15.046 4.61523 14.7859C4.61531 14.5258 4.82809 14.3149 5.09045 14.3149Z" fill="white"/>
</g>
</g>
<defs>
<linearGradient id="paint0_linear_238_2843" x1="3.57638" y1="8.77161" x2="18.9794" y2="18.3079" gradientUnits="userSpaceOnUse">
<stop stop-color="#FEEDB1"/>
<stop offset="1" stop-color="#E7A92D"/>
</linearGradient>
</defs>
</svg>
