<svg width="18" height="20" viewBox="0 0 18 20" fill="none" xmlns="http://www.w3.org/2000/svg">
<g id="Group 1534">
<g id="Layer 1">
<g id="Group">
<path id="Vector" fill-rule="evenodd" clip-rule="evenodd" d="M9.21196 9.71201L0.695312 6.34421L9.20872 3.29053L17.7221 6.34421L9.20872 9.71525L9.21196 9.71201Z" fill="#C2C2C2"/>
<path id="Vector_2" fill-rule="evenodd" clip-rule="evenodd" d="M9.21196 9.71201L0.695312 6.34421L9.20872 3.29053L17.7221 6.34421L9.20872 9.71525L9.21196 9.71201ZM16.9449 6.35393L9.21196 3.58197L1.47897 6.35393L9.21196 9.41409L16.9449 6.35393Z" fill="url(#paint0_linear_238_2862)"/>
<path id="Vector_3" fill-rule="evenodd" clip-rule="evenodd" d="M9.21199 9.41739V3.58203L1.479 6.35399L9.21199 9.41739Z" fill="url(#paint1_radial_238_2862)"/>
<path id="Vector_4" fill-rule="evenodd" clip-rule="evenodd" d="M9.21191 3.58203V9.41739L16.9449 6.35399L9.21191 3.58203Z" fill="url(#paint2_radial_238_2862)"/>
<g id="Group_2">
<path id="Vector_5" fill-rule="evenodd" clip-rule="evenodd" d="M9.21196 9.71527L0.695312 6.34424C0.938183 9.54365 1.06448 12.8467 1.02885 15.9457C1.02885 16.0299 1.07743 16.0979 1.15191 16.1368L8.89461 19.9255C8.99823 19.9773 9.10509 20 9.20872 20C9.31234 20 9.42244 19.9741 9.52283 19.9255L17.2655 16.1368C17.34 16.1011 17.3886 16.0299 17.3886 15.9457C17.353 12.8467 17.4793 9.54365 17.7221 6.34424L9.20548 9.71527H9.21196Z" fill="url(#paint3_linear_238_2862)"/>
<path id="Vector_6" fill-rule="evenodd" clip-rule="evenodd" d="M9.21196 9.71527L0.695312 6.34424C0.938183 9.54365 1.06448 12.8467 1.02885 15.9457C1.02885 16.0299 1.07743 16.0979 1.15191 16.1368L8.89461 19.9255C8.99823 19.9773 9.10509 20 9.20872 20V9.71527H9.21196Z" fill="url(#paint4_linear_238_2862)"/>
<path id="Vector_7" fill-rule="evenodd" clip-rule="evenodd" d="M9.21191 9.71527L17.7286 6.34424C17.4857 9.54365 17.3594 12.8467 17.395 15.9457C17.395 16.0299 17.3464 16.0979 17.272 16.1368L9.52926 19.9255C9.42564 19.9773 9.31878 20 9.21515 20V9.71527H9.21191Z" fill="url(#paint5_linear_238_2862)"/>
<g id="Vector_8" style="mix-blend-mode:screen" opacity="0.65">
<path fill-rule="evenodd" clip-rule="evenodd" d="M9.21196 9.71527L0.695312 6.34424C0.938183 9.54365 1.06448 12.8467 1.02885 15.9457C1.02885 16.0299 1.07743 16.0979 1.15191 16.1368L8.89461 19.9255C8.99823 19.9773 9.10509 20 9.20872 20V9.71527H9.21196Z" fill="#CB9E31"/>
</g>
</g>
</g>
</g>
<g id="Group_3">
<path id="Vector_9" fill-rule="evenodd" clip-rule="evenodd" d="M0.425944 5.34431L0.519854 8.08388C0.519854 8.17131 0.574904 8.24579 0.655861 8.28141L9.02354 11.7431C9.14984 11.7949 9.27613 11.7949 9.40242 11.7431L17.7701 8.28141C17.8511 8.24903 17.9029 8.17455 17.9061 8.08388L18 5.34431C18 5.26982 17.9579 5.20506 17.8867 5.18239L9.37004 2.30357C9.26318 2.26795 9.15955 2.26795 9.05269 2.30357L0.539283 5.17915C0.468042 5.20182 0.422706 5.26659 0.425944 5.34107V5.34431Z" fill="#CB9E31"/>
<path id="Vector_10" fill-rule="evenodd" clip-rule="evenodd" d="M0.523173 8.08032C0.526412 8.16776 0.578224 8.24224 0.659181 8.27462L9.02687 11.7363C9.09163 11.7622 9.15316 11.7752 9.21792 11.7752V8.69883L0.461646 5.23389C0.438978 5.26303 0.426025 5.30189 0.426025 5.34075L0.519935 8.08032H0.523173Z" fill="url(#paint6_linear_238_2862)"/>
<g id="Vector_11" style="mix-blend-mode:screen" opacity="0.4">
<path fill-rule="evenodd" clip-rule="evenodd" d="M0.523194 8.08057C0.526433 8.168 0.578245 8.24248 0.659202 8.27486L9.02689 11.7366C9.09165 11.7625 9.15318 11.7754 9.21794 11.7754C8.53143 11.484 5.90843 10.302 3.85213 9.46655C2.15852 8.77679 1.29066 8.48859 0.879404 8.31048C0.519956 8.15829 0.523194 8.08057 0.523194 8.08057Z" fill="url(#paint7_linear_238_2862)"/>
</g>
<path id="Vector_12" fill-rule="evenodd" clip-rule="evenodd" d="M0.461426 5.23402L9.21446 8.69897L17.9675 5.23402C17.9481 5.20812 17.9222 5.18869 17.8898 5.17897L9.37314 2.30015C9.26628 2.26453 9.16265 2.26453 9.05579 2.30015L0.539144 5.17897C0.506762 5.18869 0.480855 5.20812 0.461426 5.23402Z" fill="url(#paint8_linear_238_2862)"/>
<g id="Vector_13" style="mix-blend-mode:screen" opacity="0.5">
<path fill-rule="evenodd" clip-rule="evenodd" d="M0.425944 5.34431L0.519854 8.08388C0.519854 8.17131 0.574904 8.24579 0.655861 8.28141L9.02354 11.7431C9.14984 11.7949 9.27613 11.7949 9.40242 11.7431L17.7701 8.28141C17.8511 8.24903 17.9029 8.17455 17.9061 8.08388L18 5.34431C18 5.26982 17.9579 5.20506 17.8867 5.18239L9.37004 2.30357C9.26318 2.26795 9.15955 2.26795 9.05269 2.30357L0.539283 5.17915C0.468042 5.20182 0.422706 5.26659 0.425944 5.34107V5.34431Z" fill="url(#paint9_linear_238_2862)"/>
</g>
<path id="Vector_14" fill-rule="evenodd" clip-rule="evenodd" d="M9.21466 8.69883V11.7752C9.27619 11.7752 9.34096 11.7622 9.40248 11.7363L17.7702 8.27462C17.8511 8.239 17.9029 8.16776 17.9062 8.08032L18.0001 5.34075C18.0001 5.29865 17.9871 5.26303 17.9645 5.23389L9.21143 8.69883H9.21466Z" fill="#CB9E31"/>
<g id="Vector_15" style="mix-blend-mode:screen">
<path fill-rule="evenodd" clip-rule="evenodd" d="M5.89533 7.38428C6.32602 7.58181 8.86482 8.66987 9.0073 8.8836C9.14007 9.07789 9.19188 10.8492 9.21455 11.2087C9.23722 10.846 9.28903 9.05522 9.41856 8.86093C9.55457 8.65368 11.3259 7.89269 11.6724 7.72753C11.3065 7.85706 9.44123 8.56948 9.21131 8.56948C8.95549 8.56948 6.35516 7.55591 5.89209 7.38752L5.89533 7.38428Z" fill="url(#paint10_linear_238_2862)"/>
</g>
<g id="Vector_16" style="mix-blend-mode:screen">
<path fill-rule="evenodd" clip-rule="evenodd" d="M0.523092 8.08064C0.665576 7.51394 0.626717 5.79442 0.759486 5.70699C0.872825 5.63575 4.14995 6.7659 5.16677 7.09621C4.40901 6.76266 0.950543 5.37345 0.950543 5.26658C0.950543 5.13381 4.17586 3.9648 4.51911 3.83203L0.539283 5.17915C0.468041 5.20182 0.422706 5.26658 0.425944 5.34106L0.519854 8.08064H0.523092Z" fill="url(#paint11_linear_238_2862)"/>
</g>
<path id="Vector_17" fill-rule="evenodd" clip-rule="evenodd" d="M9.30211 4.85545C8.16871 4.06208 7.58906 3.76416 6.27433 3.29785C6.17718 3.26546 6.08327 3.22984 5.98612 3.19746C5.88897 3.16184 5.78859 3.15212 5.69468 3.19746C5.1215 3.46624 4.52242 3.65729 3.91039 3.81597C3.85534 3.83216 3.81972 3.88721 3.82296 3.9455V4.07179C3.85534 4.06208 3.88449 4.05236 3.91363 4.04265C3.99135 4.07179 4.0723 4.10094 4.15002 4.13332C5.59105 4.68706 7.12599 5.01089 8.66417 5.23757L9.30535 4.85869L9.30211 4.85545Z" fill="url(#paint12_linear_238_2862)"/>
<path id="Vector_18" fill-rule="evenodd" clip-rule="evenodd" d="M4.34112 4.04895C5.81453 4.62536 7.26852 4.90385 8.8326 5.13377C8.77431 5.16615 8.71926 5.20177 8.66097 5.23415C7.12603 5.00748 5.59109 4.68365 4.14682 4.1299C4.06911 4.10076 3.98815 4.07162 3.91043 4.03923C3.88129 4.04895 3.85214 4.05866 3.823 4.06838V3.94208C3.823 3.87732 3.89424 3.87408 3.99463 3.91294L4.33788 4.04895H4.34112Z" fill="url(#paint13_radial_238_2862)"/>
<path id="Vector_19" fill-rule="evenodd" clip-rule="evenodd" d="M9.12726 4.85545C10.2607 4.06208 10.8403 3.76416 12.155 3.29785C12.2522 3.26546 12.3461 3.22984 12.4432 3.19746C12.5404 3.16184 12.6408 3.15212 12.7347 3.19746C13.3079 3.46624 13.9069 3.65729 14.519 3.81597C14.574 3.83216 14.6096 3.88721 14.6064 3.9455V4.07179C14.574 4.06208 14.5449 4.05236 14.5157 4.04265C14.438 4.07179 14.3571 4.10094 14.2793 4.13332C12.8383 4.68706 11.3034 5.01089 9.7652 5.23757C9.55147 5.11128 9.33775 4.98498 9.12402 4.85869L9.12726 4.85545Z" fill="url(#paint14_linear_238_2862)"/>
<path id="Vector_20" fill-rule="evenodd" clip-rule="evenodd" d="M14.0882 4.04895C12.6147 4.62536 11.1608 4.90385 9.59668 5.13377C9.65497 5.16615 9.71002 5.20177 9.76831 5.23415C11.3032 5.00748 12.8382 4.68365 14.2825 4.1299C14.3602 4.10076 14.4411 4.07162 14.5188 4.03923C14.548 4.04895 14.5771 4.05866 14.6063 4.06838V3.94208C14.6063 3.87732 14.535 3.87408 14.4347 3.91294L14.0914 4.04895H14.0882Z" fill="url(#paint15_radial_238_2862)"/>
<path id="Vector_21" fill-rule="evenodd" clip-rule="evenodd" d="M5.70749 10.3669L5.83055 10.4187C5.83055 10.4705 5.83055 10.5093 5.73988 10.5223L5.56177 10.5482C5.53586 10.5547 5.50996 10.5482 5.48729 10.5417L3.55728 9.70949C3.42128 9.6512 3.42128 9.56053 3.41804 9.42452L3.3468 6.61695C3.34356 6.50361 3.40832 6.40646 3.51519 6.3676L4.03007 6.17978C5.50024 5.63899 6.84736 5.28278 8.4244 5.04639L9.26959 5.30869C8.68994 6.04053 7.28453 6.672 6.12523 7.11888L5.83702 7.24193C5.73664 7.28403 5.67511 7.3747 5.67511 7.48156L5.70102 10.3701L5.70749 10.3669Z" fill="url(#paint16_linear_238_2862)"/>
<path id="Vector_22" fill-rule="evenodd" clip-rule="evenodd" d="M5.70758 10.3669L5.68168 7.47839C5.68168 7.37153 5.74644 7.28085 5.84359 7.23876L6.1318 7.1157C7.28786 6.66882 8.69651 6.0406 9.27616 5.30551L9.18548 5.27637C8.41802 6.11832 6.78593 6.71416 5.66225 7.14161C5.5392 7.18695 5.47119 7.33914 5.47119 7.46867C5.47119 8.19081 5.48738 9.22705 5.51653 10.3896C5.51653 10.4544 5.49062 10.5547 5.66549 10.5288L5.74321 10.5191C5.83388 10.5062 5.83388 10.4673 5.83388 10.4155L5.71082 10.3637L5.70758 10.3669Z" fill="url(#paint17_radial_238_2862)"/>
<path id="Vector_23" fill-rule="evenodd" clip-rule="evenodd" d="M12.7218 10.3698L12.5987 10.4216C12.5987 10.4734 12.5987 10.5123 12.6894 10.5252L12.8675 10.5511C12.8934 10.5576 12.9193 10.5511 12.942 10.5447L14.872 9.71242C15.008 9.65413 15.008 9.56346 15.0112 9.42745L15.0825 6.61988C15.0857 6.50654 15.0209 6.40939 14.9141 6.37053L14.3992 6.18271C12.929 5.64192 11.5819 5.28571 10.0049 5.04932L9.15967 5.31162C9.73932 6.04347 11.1447 6.67493 12.304 7.12181L12.5922 7.24486C12.6926 7.28696 12.7541 7.37763 12.7541 7.48449L12.7282 10.373L12.7218 10.3698Z" fill="url(#paint18_linear_238_2862)"/>
<path id="Vector_24" fill-rule="evenodd" clip-rule="evenodd" d="M12.7216 10.3699L12.7476 7.48132C12.7476 7.37446 12.6828 7.28378 12.5856 7.24169L12.2974 7.11863C11.1414 6.67175 9.73273 6.04353 9.15308 5.30844L9.24375 5.2793C10.0112 6.12125 11.6433 6.71709 12.767 7.14454C12.89 7.18988 12.958 7.34207 12.958 7.4716C12.958 8.19374 12.9419 9.22998 12.9127 10.3925C12.9127 10.4573 12.9386 10.5577 12.7637 10.5318L12.686 10.5221C12.5954 10.5091 12.5954 10.4702 12.5954 10.4184L12.7184 10.3666L12.7216 10.3699Z" fill="url(#paint19_radial_238_2862)"/>
<path id="Vector_25" style="mix-blend-mode:screen" fill-rule="evenodd" clip-rule="evenodd" d="M11.5881 6.68506C11.7889 6.74335 12.388 6.9506 12.741 7.10279C12.9288 7.18375 13 7.29709 12.9968 7.55615C12.9871 8.0257 12.9709 8.97128 12.9417 9.21091C12.932 8.98423 12.9255 8.01599 12.9126 7.55615C12.9061 7.34243 12.8672 7.26147 12.7118 7.1708C12.4042 6.98946 11.7921 6.77897 11.5881 6.68506Z" fill="url(#paint20_radial_238_2862)"/>
<path id="Vector_26" style="mix-blend-mode:screen" fill-rule="evenodd" clip-rule="evenodd" d="M6.84088 6.68164C6.64011 6.73993 6.04103 6.94718 5.68806 7.09938C5.50024 7.18033 5.429 7.29367 5.43223 7.55273C5.44195 8.02228 5.48081 9.20425 5.51319 10.3895C5.50348 9.04234 5.50348 8.00933 5.51319 7.55273C5.51967 7.33901 5.55853 7.25805 5.71396 7.16738C6.0216 6.98604 6.63363 6.77555 6.83764 6.68164H6.84088Z" fill="url(#paint21_radial_238_2862)"/>
<path id="Vector_27" fill-rule="evenodd" clip-rule="evenodd" d="M11.8506 1.39989C11.8895 2.7211 11.1091 3.58572 10.1862 4.17509C9.98539 4.46653 9.78785 4.75474 9.60327 5.03647C10.5488 4.85836 11.7859 4.65111 12.7573 4.18804C13.3402 3.91279 13.9264 3.38495 14.2146 2.70815C14.5416 1.94716 14.451 0.965963 13.7547 0.794334C13.6997 0.78462 13.6446 0.774905 13.5896 0.76519C13.5604 0.76519 13.5345 0.761952 13.5054 0.758713C12.7476 0.716616 12.2489 1.02749 11.8539 1.39665L11.8506 1.39989Z" fill="url(#paint22_linear_238_2862)"/>
<path id="Vector_28" fill-rule="evenodd" clip-rule="evenodd" d="M9.0008 4.78373L9.59988 5.02012C10.1925 4.15227 10.7916 3.29413 11.423 2.45541C12.0739 1.59404 12.6633 0.703512 13.6509 0.68732C12.8349 0.570743 12.2002 0.357017 11.5364 0.0850026C10.9664 -0.148153 10.5131 0.110909 10.1925 0.920476C9.69702 2.16721 9.32786 3.48518 8.99756 4.78373H9.0008Z" fill="url(#paint23_linear_238_2862)"/>
<path id="Vector_29" d="M9.53831 4.99423C10.0921 4.15876 10.6717 3.333 11.2805 2.53315C11.844 1.79482 12.7507 0.269601 13.9067 0.765056C14.5091 1.02088 14.5447 1.83368 14.4087 2.38095C14.2921 2.85374 14.0298 3.27471 13.6898 3.61797C12.7474 4.57326 11.0894 4.84203 9.82328 5.07519L9.44116 5.14643L9.54155 4.99423H9.53831ZM9.61279 5.00395C10.9664 4.68984 13.0389 4.40487 13.8452 3.09985C14.3018 2.36152 14.4993 1.3609 13.8096 0.978781C12.9903 0.525424 11.9573 1.95998 11.4521 2.62382C10.8822 3.37186 10.2475 4.27858 9.61279 5.00719V5.00395Z" fill="url(#paint24_radial_238_2862)"/>
<path id="Vector_30" fill-rule="evenodd" clip-rule="evenodd" d="M9.47705 4.4831C9.55801 4.61587 9.69078 4.64177 9.72316 4.73568C9.75878 4.84902 9.70697 5.13399 9.55477 5.23114C9.71992 5.20523 10.1506 5.15666 10.251 4.99798C10.332 4.86845 10.3514 4.509 10.1603 4.38919C10.0437 4.31471 9.99194 4.40214 9.83974 4.43128C9.70697 4.45719 9.56448 4.47986 9.48029 4.48634L9.47705 4.4831Z" fill="url(#paint25_linear_238_2862)"/>
<path id="Vector_31" fill-rule="evenodd" clip-rule="evenodd" d="M6.17707 5.03335C6.88949 6.92773 8.37261 5.71662 9.6582 5.04954L9.01055 4.78076C8.15889 5.02039 7.01578 5.12078 6.17383 5.03335H6.17707Z" fill="url(#paint26_linear_238_2862)"/>
<path id="Vector_32" fill-rule="evenodd" clip-rule="evenodd" d="M5.21851 1.76285C5.61034 1.67866 5.77549 1.72399 6.25475 1.92477C6.71782 2.11906 7.11937 2.30041 7.60187 2.43641C8.1038 2.5789 8.30458 2.59185 8.55068 2.87358C8.70612 3.05168 8.82917 3.27512 8.93928 3.5018C9.17891 3.9843 9.41206 4.41823 9.72294 4.86187C9.70998 4.92988 9.70027 5.00112 9.68732 5.06912C9.31815 4.94931 9.02995 4.82625 8.72231 4.61901C8.03904 4.15917 7.54682 3.46294 7.01251 2.85091C6.64982 2.43641 6.26123 2.08344 5.65243 1.85352C5.497 1.79524 5.35127 1.76609 5.21851 1.76609V1.76285Z" fill="url(#paint27_linear_238_2862)"/>
<path id="Vector_33" fill-rule="evenodd" clip-rule="evenodd" d="M8.20435 2.55927C7.70566 2.58841 7.46279 2.773 7.04829 3.22311C6.67589 3.63114 6.37149 4.1784 6.30673 4.73539C6.25167 5.21465 6.39092 5.67448 6.85075 6.02098C6.06709 5.66153 5.31258 5.32475 4.42853 5.06569C4.26986 4.99445 4.13061 4.8973 4.01727 4.78072C2.89683 3.63761 4.22776 1.62017 5.67203 1.66227C5.75622 1.66227 5.83718 1.67198 5.90842 1.70437C6.64351 2.04115 7.31707 2.33259 8.20435 2.56251V2.55927Z" fill="url(#paint28_linear_238_2862)"/>
<path id="Vector_34" fill-rule="evenodd" clip-rule="evenodd" d="M8.03249 2.70504C8.3207 2.68561 8.53119 2.92848 8.64129 3.10658C8.81939 3.38831 8.95216 3.69595 9.1076 3.99063C9.26303 4.28531 9.48971 4.60914 9.68401 4.88116L9.65487 4.98478C9.36342 5.15641 9.03312 5.3507 8.73844 5.51909C8.41137 5.70368 8.01306 5.87854 7.64714 5.96274C7.26502 6.05017 6.83757 5.97893 6.58823 5.62272C6.24173 5.12403 6.47812 4.36627 6.74042 3.88377C6.8991 3.59556 7.11606 3.2685 7.36541 3.05153C7.54351 2.89286 7.79286 2.72771 8.03897 2.71152L8.03249 2.70504ZM8.00011 2.53989C7.01568 2.60465 5.73008 4.67714 6.43279 5.67777C6.53317 5.82025 6.66594 5.93359 6.82462 6.00807C7.05454 6.11817 7.34274 6.14732 7.67305 6.07608C8.34661 5.93035 9.09464 5.40899 9.68725 5.06574L9.76173 4.83582C9.39904 4.34036 9.05255 3.58585 8.75139 3.04506C8.60567 2.78276 8.41785 2.60789 8.19441 2.55608C8.13288 2.54313 8.06811 2.53665 8.00335 2.53989H8.00011Z" fill="url(#paint29_radial_238_2862)"/>
<path id="Vector_35" style="mix-blend-mode:screen" fill-rule="evenodd" clip-rule="evenodd" d="M7.78002 2.58496C6.80854 3.07718 6.22565 4.22352 6.26451 5.28244C6.07346 4.37249 6.72759 2.94441 7.78002 2.58496Z" fill="url(#paint30_radial_238_2862)"/>
<path id="Vector_36" style="mix-blend-mode:screen" fill-rule="evenodd" clip-rule="evenodd" d="M10.2283 3.9811C10.8565 3.00314 12.0708 0.985698 12.9808 0.771973C11.9446 1.40343 10.9893 2.99342 10.2283 3.9811Z" fill="url(#paint31_radial_238_2862)"/>
<path id="Vector_37" style="mix-blend-mode:screen" opacity="0.75" d="M11.6143 4.52495C12.6796 4.17198 13.8098 3.59233 14.1693 2.3877C14.0851 2.81515 13.7418 4.01007 11.6143 4.52495Z" fill="url(#paint32_radial_238_2862)"/>
<path id="Vector_38" fill-rule="evenodd" clip-rule="evenodd" d="M9.7684 4.68694C9.75221 4.62218 9.68744 4.58979 9.59029 4.58008C9.61296 4.6157 9.63563 4.65132 9.6583 4.68694C9.70039 4.70637 9.6421 5.07877 9.60972 5.10792C9.60325 5.11439 9.59677 5.11763 9.58705 5.11763C9.52553 5.15325 9.46076 5.19211 9.396 5.23097C9.40571 5.23097 9.40895 5.23097 9.41219 5.23097C9.48991 5.23097 9.6162 5.23745 9.67773 5.17268C9.71982 5.13058 9.74573 5.05286 9.75868 4.96867C9.77163 4.86828 9.78135 4.73875 9.76516 4.68046L9.7684 4.68694Z" fill="url(#paint33_radial_238_2862)"/>
<g id="Vector_39" style="mix-blend-mode:overlay">
<path fill-rule="evenodd" clip-rule="evenodd" d="M11.4198 0.175983C11.6432 0.205127 11.8699 0.247225 12.0901 0.295799C11.9055 0.231033 11.721 0.159791 11.5364 0.082073C10.9665 -0.151082 10.5131 0.107979 10.1925 0.917546C10.0014 1.39681 9.82982 1.88903 9.67114 2.38448C9.87192 1.88255 10.1536 1.19928 10.4062 0.745918C10.6297 0.341134 10.9535 0.114456 11.423 0.172744L11.4198 0.175983Z" fill="url(#paint34_radial_238_2862)"/>
</g>
<g id="Vector_40" style="mix-blend-mode:overlay">
<path fill-rule="evenodd" clip-rule="evenodd" d="M7.07408 2.20004C6.67578 2.04784 6.30014 1.88269 5.90831 1.70135C5.83706 1.66896 5.75611 1.66249 5.67191 1.65925C4.35394 1.62363 3.12987 3.30105 3.77753 4.46035C3.45694 3.52773 3.92972 2.48825 4.89149 2.05756C5.33513 1.86002 5.85326 1.85355 6.45234 2.00898C6.65635 2.06079 6.87007 2.13204 7.07732 2.1968L7.07408 2.20004Z" fill="url(#paint35_radial_238_2862)"/>
</g>
<path id="Vector_41" fill-rule="evenodd" clip-rule="evenodd" d="M9.65168 5.03991C9.68406 5.05287 9.71968 5.06582 9.75206 5.07877C11.3615 3.94862 12.8446 3.56326 15.0661 4.41493C15.1049 4.21092 15.147 3.8709 15.1373 3.56974C15.4449 3.4564 15.7914 3.31068 16.0796 3.14229C15.4967 2.89294 14.7228 2.68893 13.7902 2.78932C12.32 2.94475 10.5584 3.98424 9.64844 5.03991H9.65168Z" fill="url(#paint36_linear_238_2862)"/>
<path id="Vector_42" fill-rule="evenodd" clip-rule="evenodd" d="M9.84609 5.14025C11.177 4.13639 12.8318 3.70894 14.969 4.59946C14.9982 4.5606 15.05 4.46022 15.0694 4.41488C12.8447 3.56322 11.3648 3.94857 9.75542 5.07873C9.72303 5.06577 9.68741 5.05282 9.65503 5.03987C9.68741 5.05282 9.8137 5.1273 9.84933 5.14025H9.84609Z" fill="url(#paint37_radial_238_2862)"/>
<path id="Vector_43" fill-rule="evenodd" clip-rule="evenodd" d="M15.1406 3.57296C15.1406 3.61829 15.1406 3.66687 15.1406 3.7122C15.445 3.60858 15.8012 3.492 16.083 3.33657V3.14551C15.7948 3.3139 15.4483 3.45962 15.1406 3.57296Z" fill="url(#paint38_radial_238_2862)"/>
<path id="Vector_44" fill-rule="evenodd" clip-rule="evenodd" d="M10.3738 5.06233C9.57717 5.03643 8.9619 4.98138 8.30453 4.89071C8.21062 4.87775 8.12966 4.89071 8.04223 4.92309C7.46582 5.16596 7.14847 6.26697 7.06104 6.80128C7.08694 6.88224 7.10637 6.92758 7.13552 6.99558C7.71193 6.79805 8.25919 6.65556 8.84856 6.57461C9.40554 6.76566 9.91719 7.05063 10.4321 7.33236C10.458 7.29026 10.4839 7.20607 10.5066 7.13806C10.6102 6.61023 10.6911 5.78447 10.6069 5.31492C10.5713 5.12062 10.5325 5.06557 10.377 5.06233H10.3738Z" fill="url(#paint39_radial_238_2862)"/>
<path id="Vector_45" fill-rule="evenodd" clip-rule="evenodd" d="M10.4419 4.83243C9.61609 4.80652 8.98139 4.74823 8.29812 4.65432C8.20097 4.64137 8.11677 4.65432 8.0261 4.68994C7.31692 4.98786 7.1032 6.43213 7.05786 6.80129C7.6537 6.59728 8.25602 6.43861 8.86481 6.35441C9.44123 6.55195 9.9723 6.84663 10.5034 7.13807C10.6167 6.61024 10.7819 5.65171 10.6782 5.09473C10.6426 4.89396 10.6005 4.83567 10.4419 4.83243Z" fill="url(#paint40_linear_238_2862)"/>
</g>
</g>
<defs>
<linearGradient id="paint0_linear_238_2862" x1="3.67832" y1="4.18393" x2="11.9487" y2="14.5195" gradientUnits="userSpaceOnUse">
<stop stop-color="#FEEDB1"/>
<stop offset="1" stop-color="#E7A92D"/>
</linearGradient>
<radialGradient id="paint1_radial_238_2862" cx="0" cy="0" r="1" gradientUnits="userSpaceOnUse" gradientTransform="translate(11.9257 11.0203) scale(14.3131 14.3131)">
<stop stop-color="#FFB300"/>
<stop offset="1" stop-color="#A84D20"/>
</radialGradient>
<radialGradient id="paint2_radial_238_2862" cx="0" cy="0" r="1" gradientUnits="userSpaceOnUse" gradientTransform="translate(18.2305 6.26008) scale(14.0282 14.0282)">
<stop stop-color="#FFCC14"/>
<stop offset="1" stop-color="#EB9900"/>
</radialGradient>
<linearGradient id="paint3_linear_238_2862" x1="3.67832" y1="8.24318" x2="19.4225" y2="17.5" gradientUnits="userSpaceOnUse">
<stop stop-color="#FEEDB1"/>
<stop offset="1" stop-color="#E7A92D"/>
</linearGradient>
<linearGradient id="paint4_linear_238_2862" x1="2.18738" y1="8.24318" x2="11.9412" y2="11.1117" gradientUnits="userSpaceOnUse">
<stop stop-color="#FEEDB1"/>
<stop offset="1" stop-color="#E7A92D"/>
</linearGradient>
<linearGradient id="paint5_linear_238_2862" x1="10.704" y1="8.24318" x2="20.4578" y2="11.1117" gradientUnits="userSpaceOnUse">
<stop stop-color="#FEEDB1"/>
<stop offset="1" stop-color="#E7A92D"/>
</linearGradient>
<linearGradient id="paint6_linear_238_2862" x1="1.96632" y1="6.1435" x2="9.77111" y2="11.0901" gradientUnits="userSpaceOnUse">
<stop stop-color="#FEEDB1"/>
<stop offset="1" stop-color="#E7A92D"/>
</linearGradient>
<linearGradient id="paint7_linear_238_2862" x1="2.04647" y1="8.59437" x2="6.89518" y2="13.9747" gradientUnits="userSpaceOnUse">
<stop stop-color="#FEEDB1"/>
<stop offset="1" stop-color="#E7A92D"/>
</linearGradient>
<linearGradient id="paint8_linear_238_2862" x1="3.5284" y1="3.16696" x2="11.7469" y2="13.7254" gradientUnits="userSpaceOnUse">
<stop stop-color="#FEEDB1"/>
<stop offset="1" stop-color="#E7A92D"/>
</linearGradient>
<linearGradient id="paint9_linear_238_2862" x1="3.50469" y1="3.59862" x2="15.9287" y2="14.4306" gradientUnits="userSpaceOnUse">
<stop stop-color="#FEEDB1"/>
<stop offset="1" stop-color="#E7A92D"/>
</linearGradient>
<linearGradient id="paint10_linear_238_2862" x1="6.90477" y1="7.91609" x2="11.6745" y2="11.3155" gradientUnits="userSpaceOnUse">
<stop stop-color="#FEEDB1"/>
<stop offset="1" stop-color="#E7A92D"/>
</linearGradient>
<linearGradient id="paint11_linear_238_2862" x1="1.25638" y1="4.42283" x2="5.87644" y2="6.85389" gradientUnits="userSpaceOnUse">
<stop stop-color="#FEEDB1"/>
<stop offset="1" stop-color="#E7A92D"/>
</linearGradient>
<linearGradient id="paint12_linear_238_2862" x1="3.82296" y1="4.20132" x2="9.30211" y2="4.20132" gradientUnits="userSpaceOnUse">
<stop stop-color="#FFBD00"/>
<stop offset="1" stop-color="#D67200"/>
</linearGradient>
<radialGradient id="paint13_radial_238_2862" cx="0" cy="0" r="1" gradientUnits="userSpaceOnUse" gradientTransform="translate(4.69409 4.0198) scale(3.30951)">
<stop stop-color="#FFC382"/>
<stop offset="1" stop-color="#9E2410"/>
</radialGradient>
<linearGradient id="paint14_linear_238_2862" x1="9.12726" y1="4.19808" x2="14.6064" y2="4.19808" gradientUnits="userSpaceOnUse">
<stop stop-color="#A63A00"/>
<stop offset="1" stop-color="#FFBD00"/>
</linearGradient>
<radialGradient id="paint15_radial_238_2862" cx="0" cy="0" r="1" gradientUnits="userSpaceOnUse" gradientTransform="translate(13.1555 2.91232) scale(3.81144)">
<stop stop-color="#E8814D"/>
<stop offset="1" stop-color="#9E3726"/>
</radialGradient>
<linearGradient id="paint16_linear_238_2862" x1="4.532" y1="10.1305" x2="6.98985" y2="4.33397" gradientUnits="userSpaceOnUse">
<stop stop-color="#D97130"/>
<stop offset="0.01" stop-color="#DE7927"/>
<stop offset="0.02" stop-color="#EA8E11"/>
<stop offset="0.04" stop-color="#F29B04"/>
<stop offset="0.05" stop-color="#F5A000"/>
<stop offset="0.36" stop-color="#F5AF00"/>
<stop offset="0.46" stop-color="#FFDD57"/>
<stop offset="0.58" stop-color="#FFB54D"/>
<stop offset="1" stop-color="#E08A00"/>
</linearGradient>
<radialGradient id="paint17_radial_238_2862" cx="0" cy="0" r="1" gradientUnits="userSpaceOnUse" gradientTransform="translate(5.64282 7.40391) scale(3.19941)">
<stop stop-color="#E8814D"/>
<stop offset="1" stop-color="#9E3726"/>
</radialGradient>
<linearGradient id="paint18_linear_238_2862" x1="11.4815" y1="4.36604" x2="13.8325" y2="10.1787" gradientUnits="userSpaceOnUse">
<stop stop-color="#B05B00"/>
<stop offset="0.42" stop-color="#F5A000"/>
<stop offset="0.54" stop-color="#FFCC14"/>
<stop offset="0.64" stop-color="#F5A000"/>
<stop offset="0.95" stop-color="#BD6500"/>
<stop offset="0.97" stop-color="#B86200"/>
<stop offset="0.98" stop-color="#AB5900"/>
<stop offset="0.99" stop-color="#A15300"/>
</linearGradient>
<radialGradient id="paint19_radial_238_2862" cx="0" cy="0" r="1" gradientUnits="userSpaceOnUse" gradientTransform="translate(13.0099 7.31617) scale(3.94745)">
<stop stop-color="#FFDD57"/>
<stop offset="1" stop-color="#9E3726"/>
</radialGradient>
<radialGradient id="paint20_radial_238_2862" cx="0" cy="0" r="1" gradientUnits="userSpaceOnUse" gradientTransform="translate(13.2332 7.23556) scale(2.20526)">
<stop stop-color="#FFF2BB"/>
<stop offset="1"/>
</radialGradient>
<radialGradient id="paint21_radial_238_2862" cx="0" cy="0" r="1" gradientUnits="userSpaceOnUse" gradientTransform="translate(5.06631 7.33253) scale(3.45523 3.45523)">
<stop stop-color="#FFF2BB"/>
<stop offset="1"/>
</radialGradient>
<linearGradient id="paint22_linear_238_2862" x1="11.394" y1="5.58697" x2="12.9354" y2="0.544988" gradientUnits="userSpaceOnUse">
<stop stop-color="#8F3508"/>
<stop offset="0.21" stop-color="#BD500B"/>
<stop offset="0.7" stop-color="#F7A100"/>
<stop offset="1" stop-color="#964324"/>
</linearGradient>
<linearGradient id="paint23_linear_238_2862" x1="10.1763" y1="5.2468" x2="12.1937" y2="0.114147" gradientUnits="userSpaceOnUse">
<stop offset="0.3" stop-color="#C25D0A"/>
<stop offset="0.86" stop-color="#FFF14F"/>
<stop offset="0.94" stop-color="#F5B90A"/>
<stop offset="1" stop-color="#E68A00"/>
</linearGradient>
<radialGradient id="paint24_radial_238_2862" cx="0" cy="0" r="1" gradientUnits="userSpaceOnUse" gradientTransform="translate(11.4392 1.19251) scale(6.4992)">
<stop stop-color="#F59F41"/>
<stop offset="1" stop-color="#A64416"/>
</radialGradient>
<linearGradient id="paint25_linear_238_2862" x1="10.0308" y1="5.2538" x2="9.77173" y2="4.42805" gradientUnits="userSpaceOnUse">
<stop stop-color="#8F3508"/>
<stop offset="0.21" stop-color="#BD500B"/>
<stop offset="0.7" stop-color="#F7A100"/>
<stop offset="1" stop-color="#964324"/>
</linearGradient>
<linearGradient id="paint26_linear_238_2862" x1="7.40761" y1="6.18293" x2="8.20098" y2="4.40188" gradientUnits="userSpaceOnUse">
<stop offset="0.05" stop-color="#B7402C"/>
<stop offset="1" stop-color="#E68A00"/>
</linearGradient>
<linearGradient id="paint27_linear_238_2862" x1="7.20356" y1="4.49271" x2="7.7314" y2="2.20326" gradientUnits="userSpaceOnUse">
<stop stop-color="#D46C2C"/>
<stop offset="1" stop-color="#964324"/>
</linearGradient>
<linearGradient id="paint28_linear_238_2862" x1="5.0017" y1="5.29237" x2="6.35854" y2="1.8339" gradientUnits="userSpaceOnUse">
<stop stop-color="#F28B1D"/>
<stop offset="0.41" stop-color="#FFDC2B"/>
<stop offset="0.55" stop-color="#FFF79D"/>
<stop offset="0.78" stop-color="#F5B90A"/>
<stop offset="1" stop-color="#E68A00"/>
</linearGradient>
<radialGradient id="paint29_radial_238_2862" cx="0" cy="0" r="1" gradientUnits="userSpaceOnUse" gradientTransform="translate(7.12578 2.73095) scale(5.69287)">
<stop stop-color="#F59F41"/>
<stop offset="1" stop-color="#A64416"/>
</radialGradient>
<radialGradient id="paint30_radial_238_2862" cx="0" cy="0" r="1" gradientUnits="userSpaceOnUse" gradientTransform="translate(6.42643 3.2229) scale(2.98568)">
<stop stop-color="#FFF2BB"/>
<stop offset="1"/>
</radialGradient>
<radialGradient id="paint31_radial_238_2862" cx="0" cy="0" r="1" gradientUnits="userSpaceOnUse" gradientTransform="translate(11.883 1.33219) scale(3.30303)">
<stop stop-color="#FFF2BB"/>
<stop offset="1"/>
</radialGradient>
<radialGradient id="paint32_radial_238_2862" cx="0" cy="0" r="1" gradientUnits="userSpaceOnUse" gradientTransform="translate(13.8033 3.75424) scale(1.99801)">
<stop stop-color="#9691FF"/>
<stop offset="0.03" stop-color="#908BF5"/>
<stop offset="0.31" stop-color="#5D5A9F"/>
<stop offset="0.55" stop-color="#35335B"/>
<stop offset="0.76" stop-color="#181729"/>
<stop offset="0.91" stop-color="#06060B"/>
<stop offset="1"/>
</radialGradient>
<radialGradient id="paint33_radial_238_2862" cx="0" cy="0" r="1" gradientUnits="userSpaceOnUse" gradientTransform="translate(9.99508 4.69018) scale(0.6347)">
<stop stop-color="#FFC382"/>
<stop offset="1" stop-color="#9E3726"/>
</radialGradient>
<radialGradient id="paint34_radial_238_2862" cx="0" cy="0" r="1" gradientUnits="userSpaceOnUse" gradientTransform="translate(12.5856 3.44663) scale(3.80173)">
<stop offset="0.67" stop-color="#6689BA"/>
<stop offset="0.72" stop-color="#5F90BE"/>
<stop offset="0.79" stop-color="#4EA4C9"/>
<stop offset="0.88" stop-color="#32C4DC"/>
<stop offset="0.97" stop-color="#0BF1F7"/>
<stop offset="1" stop-color="#00FFFF"/>
</radialGradient>
<radialGradient id="paint35_radial_238_2862" cx="0" cy="0" r="1" gradientUnits="userSpaceOnUse" gradientTransform="translate(6.90245 5.18896) scale(3.97012)">
<stop offset="0.67" stop-color="#6689BA"/>
<stop offset="0.72" stop-color="#5F90BE"/>
<stop offset="0.79" stop-color="#4EA4C9"/>
<stop offset="0.88" stop-color="#32C4DC"/>
<stop offset="0.97" stop-color="#0BF1F7"/>
<stop offset="1" stop-color="#00FFFF"/>
</radialGradient>
<linearGradient id="paint36_linear_238_2862" x1="11.5623" y1="2.91885" x2="14.2435" y2="5.33136" gradientUnits="userSpaceOnUse">
<stop stop-color="#F28B1D"/>
<stop offset="0.41" stop-color="#FFDC2B"/>
<stop offset="0.55" stop-color="#FFF79D"/>
<stop offset="0.78" stop-color="#F5B90A"/>
<stop offset="1" stop-color="#E68A00"/>
</linearGradient>
<radialGradient id="paint37_radial_238_2862" cx="0" cy="0" r="1" gradientUnits="userSpaceOnUse" gradientTransform="translate(14.6808 4.73223) scale(4.75702)">
<stop stop-color="#F59F41"/>
<stop offset="1" stop-color="#A64416"/>
</radialGradient>
<radialGradient id="paint38_radial_238_2862" cx="0" cy="0" r="1" gradientUnits="userSpaceOnUse" gradientTransform="translate(16.3906 4.66749) scale(2.55823)">
<stop stop-color="#F59F41"/>
<stop offset="1" stop-color="#A64416"/>
</radialGradient>
<radialGradient id="paint39_radial_238_2862" cx="0" cy="0" r="1" gradientUnits="userSpaceOnUse" gradientTransform="translate(10.4709 7.37122) scale(3.64953)">
<stop stop-color="#F59F41"/>
<stop offset="1" stop-color="#A64416"/>
</radialGradient>
<linearGradient id="paint40_linear_238_2862" x1="9.09797" y1="4.66404" x2="8.79681" y2="7.00207" gradientUnits="userSpaceOnUse">
<stop stop-color="#F28B1D"/>
<stop offset="0.26" stop-color="#FFDC2B"/>
<stop offset="0.39" stop-color="#FFF79D"/>
<stop offset="0.8" stop-color="#F5B90A"/>
<stop offset="1" stop-color="#E68A00"/>
</linearGradient>
</defs>
</svg>
