<svg width="16" height="29" viewBox="0 0 16 29" fill="none" xmlns="http://www.w3.org/2000/svg">
<path d="M15.4901 15.1819L14.3388 12.5878L10.6676 14.8558L13.9584 2.84405L12.8071 0.25L0.00976562 13.8231L1.16103 16.4122L5.98844 16.7383L1.53655 26.1559L2.68782 28.75L15.4901 15.1819Z" fill="#FFAA00"/>
<path d="M1.61067 26.319L14.4129 12.7509L14.3388 12.5878L10.6676 14.8558L11.3149 12.484L9.58553 12.4248L12.8812 0.413055L12.8071 0.25L0.00976562 13.8231L0.0838814 13.9812L4.90635 14.3073L4.24919 16.6197L5.98844 16.7383L1.53655 26.1559L1.61067 26.319Z" fill="#FFFB21"/>
<path d="M14.3388 12.5878L9.51141 12.2617L12.8071 0.25L0.00976562 13.8231L4.83223 14.1442L1.53655 26.1559L14.3388 12.5878Z" fill="#FFD321"/>
</svg>
