<svg width="85" height="96" viewBox="0 0 85 96" fill="none" xmlns="http://www.w3.org/2000/svg">
<g id="Group 1534">
<g id="Layer 1">
<g id="Group">
<path id="Vector" fill-rule="evenodd" clip-rule="evenodd" d="M42.6679 46.6941L1.85156 30.5538L42.6523 15.9189L83.4531 30.5538L42.6523 46.7096L42.6679 46.6941Z" fill="#C2C2C2"/>
<path id="Vector_2" fill-rule="evenodd" clip-rule="evenodd" d="M42.6679 46.6941L1.85156 30.5538L42.6523 15.9189L83.4531 30.5538L42.6523 46.7096L42.6679 46.6941ZM79.7284 30.6004L42.6679 17.3157L5.60728 30.6004L42.6679 45.2663L79.7284 30.6004Z" fill="url(#paint0_linear_121_1253)"/>
<path id="Vector_3" fill-rule="evenodd" clip-rule="evenodd" d="M42.668 45.2826V17.3164L5.60742 30.6011L42.668 45.2826Z" fill="url(#paint1_radial_121_1253)"/>
<path id="Vector_4" fill-rule="evenodd" clip-rule="evenodd" d="M42.668 17.3164V45.2826L79.7285 30.6011L42.668 17.3164Z" fill="url(#paint2_radial_121_1253)"/>
<g id="Group_2">
<path id="Vector_5" fill-rule="evenodd" clip-rule="evenodd" d="M42.6679 46.71L1.85156 30.5542C3.01553 45.8875 3.62079 61.7174 3.45007 76.5695C3.45007 76.973 3.68286 77.299 4.03981 77.4852L41.147 95.643C41.6436 95.8913 42.1557 96 42.6523 96C43.149 96 43.6766 95.8758 44.1577 95.643L81.2649 77.4852C81.6218 77.3145 81.8546 76.973 81.8546 76.5695C81.6839 61.7174 82.2892 45.8875 83.4531 30.5542L42.6368 46.71H42.6679Z" fill="url(#paint3_linear_121_1253)"/>
<path id="Vector_6" fill-rule="evenodd" clip-rule="evenodd" d="M42.6679 46.71L1.85156 30.5542C3.01553 45.8875 3.62079 61.7174 3.45007 76.5695C3.45007 76.973 3.68286 77.299 4.03981 77.4852L41.147 95.643C41.6436 95.8913 42.1557 96 42.6523 96V46.71H42.6679Z" fill="url(#paint4_linear_121_1253)"/>
<path id="Vector_7" fill-rule="evenodd" clip-rule="evenodd" d="M42.668 46.7102L83.4843 30.5544C82.3203 45.8877 81.715 61.7176 81.8858 76.5698C81.8858 76.9733 81.653 77.2992 81.296 77.4854L44.1889 95.6432C43.6923 95.8916 43.1801 96.0002 42.6835 96.0002V46.7102H42.668Z" fill="url(#paint5_linear_121_1253)"/>
<g id="Vector_8" style="mix-blend-mode:screen" opacity="0.65">
<path fill-rule="evenodd" clip-rule="evenodd" d="M42.6679 46.71L1.85156 30.5542C3.01553 45.8875 3.62079 61.7174 3.45007 76.5695C3.45007 76.973 3.68286 77.299 4.03981 77.4852L41.147 95.643C41.6436 95.8913 42.1557 96 42.6523 96V46.71H42.6679Z" fill="#CB9E31"/>
</g>
</g>
</g>
</g>
<g id="Group_3">
<path id="Vector_9" fill-rule="evenodd" clip-rule="evenodd" d="M0.560839 25.7616L1.0109 38.8911C1.0109 39.3102 1.27474 39.6671 1.66272 39.8378L41.7651 56.4282C42.3704 56.6765 42.9757 56.6765 43.5809 56.4282L83.6833 39.8378C84.0713 39.6826 84.3196 39.3257 84.3351 38.8911L84.7852 25.7616C84.7852 25.4047 84.5835 25.0943 84.242 24.9857L43.4257 11.1888C42.9136 11.0181 42.417 11.0181 41.9048 11.1888L1.10402 24.9702C0.762592 25.0788 0.545319 25.3892 0.560839 25.7461V25.7616Z" fill="#CB9E31"/>
<path id="Vector_10" fill-rule="evenodd" clip-rule="evenodd" d="M1.02638 38.8753C1.0419 39.2943 1.29021 39.6513 1.6782 39.8065L41.7806 56.3968C42.091 56.521 42.3859 56.583 42.6963 56.583V41.8395L0.731506 25.2336C0.622869 25.3733 0.560791 25.5596 0.560791 25.7458L1.01086 38.8753H1.02638Z" fill="url(#paint6_linear_121_1253)"/>
<g id="Vector_11" style="mix-blend-mode:screen" opacity="0.4">
<path fill-rule="evenodd" clip-rule="evenodd" d="M1.02637 38.8752C1.04189 39.2943 1.2902 39.6512 1.67819 39.8064L41.7806 56.3968C42.091 56.5209 42.3859 56.583 42.6962 56.583C39.4061 55.1862 26.8353 49.5216 16.9804 45.5176C8.86372 42.2119 4.70449 40.8307 2.73352 39.9771C1.01085 39.2477 1.02637 38.8752 1.02637 38.8752Z" fill="url(#paint7_linear_121_1253)"/>
</g>
<path id="Vector_12" fill-rule="evenodd" clip-rule="evenodd" d="M0.731445 25.2344L42.6807 41.8402L84.6299 25.2344C84.5368 25.1102 84.4126 25.0171 84.2574 24.9705L43.4411 11.1737C42.929 11.003 42.4324 11.003 41.9202 11.1737L1.10391 24.9705C0.948718 25.0171 0.824562 25.1102 0.731445 25.2344Z" fill="url(#paint8_linear_121_1253)"/>
<g id="Vector_13" style="mix-blend-mode:screen" opacity="0.5">
<path fill-rule="evenodd" clip-rule="evenodd" d="M0.560839 25.7616L1.0109 38.8911C1.0109 39.3102 1.27474 39.6671 1.66272 39.8378L41.7651 56.4282C42.3704 56.6765 42.9757 56.6765 43.5809 56.4282L83.6833 39.8378C84.0713 39.6826 84.3196 39.3257 84.3351 38.8911L84.7852 25.7616C84.7852 25.4047 84.5835 25.0943 84.242 24.9857L43.4257 11.1888C42.9136 11.0181 42.417 11.0181 41.9048 11.1888L1.10402 24.9702C0.762592 25.0788 0.545319 25.3892 0.560839 25.7461V25.7616Z" fill="url(#paint9_linear_121_1253)"/>
</g>
<path id="Vector_14" fill-rule="evenodd" clip-rule="evenodd" d="M42.6806 41.8393V56.5828C42.9754 56.5828 43.2858 56.5207 43.5807 56.3966L83.6831 39.8062C84.0711 39.6355 84.3194 39.2941 84.3349 38.875L84.785 25.7455C84.785 25.5438 84.7229 25.3731 84.6143 25.2334L42.665 41.8393H42.6806Z" fill="#CB9E31"/>
<g id="Vector_15" style="mix-blend-mode:screen">
<path fill-rule="evenodd" clip-rule="evenodd" d="M26.7731 35.5386C28.8372 36.4853 41.0045 41.6998 41.6873 42.7241C42.3236 43.6553 42.5719 52.1444 42.6806 53.8671C42.7892 52.1289 43.0375 43.5466 43.6583 42.6155C44.3101 41.6222 52.7993 37.9751 54.4599 37.1836C52.7062 37.8044 43.7669 41.2187 42.6651 41.2187C41.439 41.2187 28.9769 36.3611 26.7576 35.5541L26.7731 35.5386Z" fill="url(#paint10_linear_121_1253)"/>
</g>
<g id="Vector_16" style="mix-blend-mode:screen">
<path fill-rule="evenodd" clip-rule="evenodd" d="M1.02642 38.8758C1.70928 36.1598 1.52305 27.919 2.15935 27.5C2.70253 27.1585 18.4083 32.5748 23.2814 34.1578C19.6498 32.5593 3.075 25.9014 3.075 25.3893C3.075 24.753 18.5324 19.1505 20.1775 18.5142L1.10402 24.9703C0.762592 25.0789 0.545319 25.3893 0.560839 25.7463L1.0109 38.8758H1.02642Z" fill="url(#paint11_linear_121_1253)"/>
</g>
<path id="Vector_17" fill-rule="evenodd" clip-rule="evenodd" d="M43.0998 23.4187C37.668 19.6164 34.89 18.1886 28.5891 15.9538C28.1235 15.7986 27.6734 15.6279 27.2079 15.4727C26.7423 15.302 26.2612 15.2554 25.8111 15.4727C23.0641 16.7608 20.193 17.6764 17.2598 18.4369C16.996 18.5145 16.8253 18.7783 16.8408 19.0577V19.6629C16.996 19.6164 17.1357 19.5698 17.2754 19.5233C17.6478 19.6629 18.0358 19.8026 18.4083 19.9578C25.3145 22.6116 32.6707 24.1636 40.0425 25.25L43.1153 23.4342L43.0998 23.4187Z" fill="url(#paint12_linear_121_1253)"/>
<path id="Vector_18" fill-rule="evenodd" clip-rule="evenodd" d="M19.3239 19.5538C26.3853 22.3163 33.3536 23.651 40.8495 24.7528C40.5702 24.908 40.3063 25.0788 40.027 25.234C32.6707 24.1476 25.3145 22.5956 18.3928 19.9418C18.0203 19.8021 17.6323 19.6625 17.2598 19.5073C17.1202 19.5538 16.9805 19.6004 16.8408 19.6469V19.0417C16.8408 18.7313 17.1823 18.7158 17.6634 18.902L19.3084 19.5538H19.3239Z" fill="url(#paint13_radial_121_1253)"/>
<path id="Vector_19" fill-rule="evenodd" clip-rule="evenodd" d="M42.2616 23.4182C47.6934 19.6159 50.4714 18.1881 56.7724 15.9533C57.2379 15.7981 57.688 15.6274 58.1536 15.4722C58.6192 15.3015 59.1003 15.2549 59.5503 15.4722C62.2973 16.7603 65.1684 17.676 68.1016 18.4364C68.3654 18.514 68.5361 18.7778 68.5206 19.0572V19.6625C68.3654 19.6159 68.2257 19.5693 68.0861 19.5228C67.7136 19.6625 67.3256 19.8021 66.9531 19.9573C60.047 22.6112 52.6907 24.1631 45.319 25.2495C44.2947 24.6442 43.2704 24.039 42.2461 23.4337L42.2616 23.4182Z" fill="url(#paint14_linear_121_1253)"/>
<path id="Vector_20" fill-rule="evenodd" clip-rule="evenodd" d="M66.0373 19.5536C58.9759 22.316 52.0076 23.6507 44.5117 24.7526C44.7911 24.9078 45.0549 25.0785 45.3343 25.2337C52.6905 24.1473 60.0467 22.5954 66.9684 19.9416C67.3409 19.8019 67.7289 19.6622 68.1014 19.507C68.241 19.5536 68.3807 19.6001 68.5204 19.6467V19.0414C68.5204 18.731 68.179 18.7155 67.6979 18.9018L66.0528 19.5536H66.0373Z" fill="url(#paint15_radial_121_1253)"/>
<path id="Vector_21" fill-rule="evenodd" clip-rule="evenodd" d="M25.8731 49.8325L26.4629 50.0808C26.4629 50.3292 26.4629 50.5154 26.0283 50.5775L25.1747 50.7016C25.0506 50.7327 24.9264 50.7016 24.8178 50.6706L15.5682 46.6821C14.9163 46.4027 14.9163 45.9682 14.9008 45.3164L14.5594 31.8609C14.5439 31.3178 14.8543 30.8522 15.3664 30.6659L17.834 29.7658C24.8799 27.1741 31.336 25.4669 38.894 24.334L42.9446 25.5911C40.1666 29.0985 33.4311 32.1248 27.8751 34.2665L26.4939 34.8562C26.0128 35.058 25.7179 35.4925 25.7179 36.0047L25.8421 49.8481L25.8731 49.8325Z" fill="url(#paint16_linear_121_1253)"/>
<path id="Vector_22" fill-rule="evenodd" clip-rule="evenodd" d="M25.8729 49.8325L25.7488 35.9891C25.7488 35.4769 26.0591 35.0424 26.5247 34.8406L27.906 34.2509C33.4464 32.1092 40.1974 29.0984 42.9754 25.5755L42.5409 25.4358C38.8627 29.4709 31.0409 32.3265 25.6556 34.375C25.0659 34.5923 24.74 35.3217 24.74 35.9425C24.74 39.4033 24.8176 44.3696 24.9573 49.9411C24.9573 50.2515 24.8331 50.7326 25.6712 50.6084L26.0436 50.5619C26.4782 50.4998 26.4782 50.3136 26.4782 50.0652L25.8884 49.8169L25.8729 49.8325Z" fill="url(#paint17_radial_121_1253)"/>
<path id="Vector_23" fill-rule="evenodd" clip-rule="evenodd" d="M59.4885 49.8479L58.8987 50.0962C58.8987 50.3445 58.8987 50.5308 59.3333 50.5929L60.1868 50.717C60.311 50.7481 60.4351 50.717 60.5438 50.686L69.7934 46.6975C70.4452 46.4181 70.4452 45.9836 70.4607 45.3317L70.8022 31.8763C70.8177 31.3331 70.5073 30.8676 69.9952 30.6813L67.5276 29.7812C60.4817 27.1894 54.0256 25.4823 46.4676 24.3494L42.417 25.6064C45.195 29.1139 51.9305 32.1402 57.4864 34.2819L58.8677 34.8716C59.3488 35.0733 59.6436 35.5079 59.6436 36.02L59.5195 49.8634L59.4885 49.8479Z" fill="url(#paint18_linear_121_1253)"/>
<path id="Vector_24" fill-rule="evenodd" clip-rule="evenodd" d="M59.4882 49.8476L59.6124 36.0042C59.6124 35.492 59.302 35.0575 58.8364 34.8557L57.4552 34.266C51.9147 32.1243 45.1637 29.1135 42.3857 25.5906L42.8203 25.4509C46.4984 29.486 54.3202 32.3416 59.7055 34.3902C60.2953 34.6074 60.6212 35.3369 60.6212 35.9576C60.6212 39.4185 60.5436 44.3847 60.4039 49.9562C60.4039 50.2666 60.528 50.7477 59.69 50.6236L59.3175 50.577C58.883 50.5149 58.883 50.3287 58.883 50.0804L59.4727 49.8321L59.4882 49.8476Z" fill="url(#paint19_radial_121_1253)"/>
<path id="Vector_25" style="mix-blend-mode:screen" fill-rule="evenodd" clip-rule="evenodd" d="M54.0564 32.1873C55.0186 32.4666 57.8897 33.4599 59.5813 34.1893C60.4815 34.5773 60.8229 35.1204 60.8074 36.362C60.7608 38.6123 60.6832 43.144 60.5436 44.2925C60.497 43.2061 60.466 38.5658 60.4039 36.362C60.3728 35.3377 60.1866 34.9497 59.4417 34.5152C57.9673 33.6461 55.0341 32.6373 54.0564 32.1873Z" fill="url(#paint20_radial_121_1253)"/>
<path id="Vector_26" style="mix-blend-mode:screen" fill-rule="evenodd" clip-rule="evenodd" d="M31.3052 32.1714C30.343 32.4507 27.4719 33.444 25.7803 34.1734C24.8801 34.5614 24.5387 35.1046 24.5542 36.3461C24.6008 38.5965 24.787 44.2611 24.9422 49.9412C24.8956 43.4851 24.8956 38.5344 24.9422 36.3461C24.9732 35.3218 25.1595 34.9339 25.9044 34.4993C27.3788 33.6302 30.3119 32.6215 31.2897 32.1714H31.3052Z" fill="url(#paint21_radial_121_1253)"/>
<path id="Vector_27" fill-rule="evenodd" clip-rule="evenodd" d="M55.3135 6.85904C55.4997 13.191 51.7595 17.3347 47.3365 20.1593C46.3743 21.556 45.4276 22.9373 44.543 24.2875C49.0747 23.4339 55.0031 22.4406 59.659 20.2213C62.4525 18.9022 65.2615 16.3725 66.6427 13.1289C68.2102 9.48184 67.7757 4.77943 64.439 3.9569C64.1751 3.91034 63.9113 3.86378 63.6475 3.81722C63.5078 3.81722 63.3836 3.8017 63.244 3.78618C59.6124 3.58443 57.2224 5.0743 55.329 6.84352L55.3135 6.85904Z" fill="url(#paint22_linear_121_1253)"/>
<path id="Vector_28" fill-rule="evenodd" clip-rule="evenodd" d="M41.6564 23.0767L44.5275 24.2096C47.3676 20.0504 50.2387 15.9377 53.265 11.9182C56.3844 7.78998 59.209 3.52211 63.9424 3.44452C60.0315 2.88581 56.9897 1.86153 53.8082 0.557888C51.0767 -0.559517 48.904 0.682044 47.3676 4.56192C44.9931 10.5369 43.2239 16.8534 41.6409 23.0767H41.6564Z" fill="url(#paint23_linear_121_1253)"/>
<path id="Vector_29" d="M44.2327 24.0853C46.8865 20.0813 49.6645 16.1238 52.5822 12.2905C55.2826 8.75206 59.628 1.44237 65.1685 3.81685C68.0551 5.0429 68.2258 8.93829 67.574 11.5611C67.0153 13.8269 65.7582 15.8445 64.1287 17.4895C59.6125 22.0678 51.6665 23.3559 45.5984 24.4733L43.7671 24.8147L44.2482 24.0853H44.2327ZM44.5896 24.1319C51.0768 22.6265 61.0093 21.2608 64.8736 15.0064C67.0619 11.468 68.0086 6.67244 64.7029 4.84114C60.7765 2.66841 55.8257 9.54355 53.4047 12.7251C50.6733 16.3101 47.6314 20.6555 44.5896 24.1474V24.1319Z" fill="url(#paint24_radial_121_1253)"/>
<path id="Vector_30" fill-rule="evenodd" clip-rule="evenodd" d="M43.938 21.6341C44.326 22.2704 44.9623 22.3945 45.1175 22.8446C45.2882 23.3878 45.0399 24.7535 44.3105 25.2191C45.102 25.0949 47.166 24.8621 47.6471 24.1017C48.0351 23.4809 48.1283 21.7582 47.2126 21.184C46.6539 20.827 46.4056 21.2461 45.6762 21.3857C45.0399 21.5099 44.357 21.6185 43.9535 21.6496L43.938 21.6341Z" fill="url(#paint25_linear_121_1253)"/>
<path id="Vector_31" fill-rule="evenodd" clip-rule="evenodd" d="M28.1234 24.2716C31.5377 33.3505 38.6457 27.5462 44.8069 24.3492L41.703 23.061C37.6214 24.2095 32.143 24.6906 28.1079 24.2716H28.1234Z" fill="url(#paint26_linear_121_1253)"/>
<path id="Vector_32" fill-rule="evenodd" clip-rule="evenodd" d="M23.5298 8.59718C25.4076 8.19368 26.1991 8.41095 28.496 9.37316C30.7153 10.3043 32.6397 11.1734 34.9521 11.8252C37.3577 12.5081 38.3199 12.5702 39.4994 13.9204C40.2443 14.7739 40.834 15.8448 41.3617 16.9312C42.5101 19.2436 43.6275 21.3232 45.1174 23.4494C45.0553 23.7753 45.0088 24.1167 44.9467 24.4426C43.1775 23.8684 41.7962 23.2786 40.3219 22.2854C37.0473 20.0816 34.6883 16.7449 32.1276 13.8117C30.3894 11.8252 28.5271 10.1336 25.6094 9.03173C24.8645 8.75238 24.1661 8.6127 23.5298 8.6127V8.59718Z" fill="url(#paint27_linear_121_1253)"/>
<path id="Vector_33" fill-rule="evenodd" clip-rule="evenodd" d="M37.8386 12.415C35.4486 12.5547 34.2846 13.4393 32.2981 15.5965C30.5134 17.552 29.0545 20.1748 28.7442 22.8442C28.4803 25.141 29.1477 27.3448 31.3514 29.0054C27.5957 27.2827 23.9797 25.6687 19.7428 24.4271C18.9824 24.0857 18.315 23.6201 17.7719 23.0614C12.4021 17.583 18.7806 7.91439 25.7023 8.11615C26.1058 8.11615 26.4938 8.1627 26.8353 8.3179C30.3582 9.93193 33.5862 11.3287 37.8386 12.4306V12.415Z" fill="url(#paint28_linear_121_1253)"/>
<path id="Vector_34" fill-rule="evenodd" clip-rule="evenodd" d="M37.0159 13.1131C38.3971 13.02 39.4059 14.1839 39.9335 15.0375C40.7871 16.3877 41.4234 17.862 42.1683 19.2743C42.9133 20.6866 43.9996 22.2385 44.9308 23.5422L44.7911 24.0388C43.3944 24.8613 41.8114 25.7925 40.3991 26.5995C38.8316 27.4841 36.9227 28.3222 35.169 28.7257C33.3377 29.1447 31.2892 28.8033 30.0942 27.0962C28.4336 24.7061 29.5665 21.0746 30.8236 18.7622C31.584 17.3809 32.6238 15.8135 33.8188 14.7737C34.6724 14.0132 35.8674 13.2217 37.0469 13.1441L37.0159 13.1131ZM36.8607 12.3216C32.1427 12.632 25.9815 22.5645 29.3492 27.36C29.8303 28.0428 30.4666 28.586 31.2271 28.943C32.329 29.4706 33.7102 29.6103 35.2932 29.2689C38.5213 28.5705 42.1063 26.0719 44.9463 24.4268L45.3033 23.3249C43.5651 20.9504 41.9045 17.3344 40.4612 14.7426C39.7628 13.4855 38.8627 12.6475 37.7918 12.3992C37.497 12.3371 37.1866 12.3061 36.8762 12.3216H36.8607Z" fill="url(#paint29_radial_121_1253)"/>
<path id="Vector_35" style="mix-blend-mode:screen" fill-rule="evenodd" clip-rule="evenodd" d="M35.8054 12.5391C31.1495 14.898 28.356 20.3919 28.5423 25.4668C27.6266 21.1058 30.7616 14.2617 35.8054 12.5391Z" fill="url(#paint30_radial_121_1253)"/>
<path id="Vector_36" style="mix-blend-mode:screen" fill-rule="evenodd" clip-rule="evenodd" d="M47.5386 19.228C50.5494 14.5411 56.3692 4.87243 60.7302 3.84814C55.7639 6.87445 51.1857 14.4945 47.5386 19.228Z" fill="url(#paint31_radial_121_1253)"/>
<path id="Vector_37" style="mix-blend-mode:screen" opacity="0.75" d="M54.1807 21.8356C59.2866 20.144 64.7029 17.366 66.4256 11.5928C66.022 13.6413 64.377 19.368 54.1807 21.8356Z" fill="url(#paint32_radial_121_1253)"/>
<path id="Vector_38" fill-rule="evenodd" clip-rule="evenodd" d="M45.3348 22.6108C45.2572 22.3004 44.9468 22.1452 44.4812 22.0986C44.5899 22.2693 44.6985 22.4401 44.8071 22.6108C45.0089 22.7039 44.7295 24.4886 44.5743 24.6283C44.5433 24.6594 44.5123 24.6749 44.4657 24.6749C44.1708 24.8456 43.8604 25.0318 43.55 25.2181C43.5966 25.2181 43.6121 25.2181 43.6276 25.2181C44.0001 25.2181 44.6054 25.2491 44.9002 24.9387C45.102 24.7369 45.2262 24.3645 45.2882 23.961C45.3503 23.4799 45.3969 22.8591 45.3193 22.5797L45.3348 22.6108Z" fill="url(#paint33_radial_121_1253)"/>
<g id="Vector_39" style="mix-blend-mode:overlay">
<path fill-rule="evenodd" clip-rule="evenodd" d="M53.2497 0.993061C54.3205 1.13274 55.4069 1.33449 56.4622 1.56728C55.5776 1.25689 54.693 0.915464 53.8084 0.542996C51.0769 -0.574409 48.9042 0.667152 47.3678 4.54703C46.4521 6.84392 45.6296 9.20288 44.8691 11.5774C45.8314 9.17184 47.1815 5.89723 48.3921 3.72449C49.4629 1.78456 51.0149 0.698191 53.2652 0.977542L53.2497 0.993061Z" fill="url(#paint34_radial_121_1253)"/>
</g>
<g id="Vector_40" style="mix-blend-mode:overlay">
<path fill-rule="evenodd" clip-rule="evenodd" d="M32.4224 10.6923C30.5135 9.96292 28.7132 9.17142 26.8354 8.30233C26.4939 8.14713 26.1059 8.11609 25.7024 8.10057C19.386 7.92986 13.5196 15.969 16.6235 21.5249C15.0871 17.0553 17.3529 12.0736 21.9622 10.0095C24.0884 9.06278 26.5715 9.03175 29.4426 9.77668C30.4204 10.025 31.4446 10.3664 32.4379 10.6768L32.4224 10.6923Z" fill="url(#paint35_radial_121_1253)"/>
</g>
<path id="Vector_41" fill-rule="evenodd" clip-rule="evenodd" d="M44.7758 24.3032C44.931 24.3652 45.1017 24.4273 45.2569 24.4894C52.9701 19.0731 60.078 17.2263 70.7244 21.3079C70.9106 20.3302 71.1124 18.7006 71.0658 17.2573C72.5402 16.7141 74.2008 16.0157 75.582 15.2087C72.7885 14.0137 69.0793 13.036 64.6097 13.5171C57.5638 14.262 49.1212 19.2438 44.7603 24.3032H44.7758Z" fill="url(#paint36_linear_121_1253)"/>
<path id="Vector_42" fill-rule="evenodd" clip-rule="evenodd" d="M45.7069 24.7845C52.0854 19.9734 60.0159 17.9248 70.2588 22.1927C70.3984 22.0065 70.6468 21.5254 70.7399 21.3081C60.078 17.2265 52.9856 19.0733 45.2724 24.4896C45.1172 24.4275 44.9465 24.3654 44.7913 24.3034C44.9465 24.3654 45.5517 24.7224 45.7224 24.7845H45.7069Z" fill="url(#paint37_radial_121_1253)"/>
<path id="Vector_43" fill-rule="evenodd" clip-rule="evenodd" d="M71.0813 17.2729C71.0813 17.4902 71.0813 17.723 71.0813 17.9403C72.5401 17.4437 74.2473 16.885 75.5975 16.14V15.2244C74.2162 16.0314 72.5557 16.7298 71.0813 17.2729Z" fill="url(#paint38_radial_121_1253)"/>
<path id="Vector_44" fill-rule="evenodd" clip-rule="evenodd" d="M48.2366 24.4115C44.4188 24.2874 41.4701 24.0235 38.3196 23.589C37.8695 23.5269 37.4815 23.589 37.0625 23.7442C34.3 24.9081 32.7791 30.1848 32.3601 32.7455C32.4843 33.1335 32.5774 33.3507 32.7171 33.6767C35.4795 32.73 38.1023 32.0471 40.9269 31.6591C43.5962 32.5748 46.0483 33.9405 48.5159 35.2907C48.6401 35.0889 48.7642 34.6854 48.8729 34.3595C49.3695 31.8298 49.7575 27.8724 49.354 25.622C49.1833 24.6909 48.997 24.427 48.2521 24.4115H48.2366Z" fill="url(#paint39_radial_121_1253)"/>
<path id="Vector_45" fill-rule="evenodd" clip-rule="evenodd" d="M48.5626 23.31C44.6051 23.1858 41.5633 22.9065 38.2887 22.4564C37.8231 22.3943 37.4196 22.4564 36.9851 22.6271C33.5863 24.0549 32.562 30.9766 32.3447 32.7458C35.2003 31.7681 38.0869 31.0076 41.0046 30.6041C43.7671 31.5508 46.3123 32.9631 48.8575 34.3599C49.4007 31.8302 50.1922 27.2364 49.6955 24.567C49.5248 23.6048 49.3231 23.3255 48.5626 23.31Z" fill="url(#paint40_linear_121_1253)"/>
</g>
</g>
<defs>
<linearGradient id="paint0_linear_121_1253" x1="16.1477" y1="20.2006" x2="55.784" y2="69.734" gradientUnits="userSpaceOnUse">
<stop stop-color="#FEEDB1"/>
<stop offset="1" stop-color="#E7A92D"/>
</linearGradient>
<radialGradient id="paint1_radial_121_1253" cx="0" cy="0" r="1" gradientUnits="userSpaceOnUse" gradientTransform="translate(55.6733 52.9647) scale(68.5962 68.5962)">
<stop stop-color="#FFB300"/>
<stop offset="1" stop-color="#A84D20"/>
</radialGradient>
<radialGradient id="paint2_radial_121_1253" cx="0" cy="0" r="1" gradientUnits="userSpaceOnUse" gradientTransform="translate(85.8898 30.151) scale(67.2305 67.2305)">
<stop stop-color="#FFCC14"/>
<stop offset="1" stop-color="#EB9900"/>
</radialGradient>
<linearGradient id="paint3_linear_121_1253" x1="16.1477" y1="39.6549" x2="91.602" y2="84.0185" gradientUnits="userSpaceOnUse">
<stop stop-color="#FEEDB1"/>
<stop offset="1" stop-color="#E7A92D"/>
</linearGradient>
<linearGradient id="paint4_linear_121_1253" x1="9.00236" y1="39.6549" x2="55.7478" y2="53.4022" gradientUnits="userSpaceOnUse">
<stop stop-color="#FEEDB1"/>
<stop offset="1" stop-color="#E7A92D"/>
</linearGradient>
<linearGradient id="paint5_linear_121_1253" x1="49.8188" y1="39.6552" x2="96.5642" y2="53.4025" gradientUnits="userSpaceOnUse">
<stop stop-color="#FEEDB1"/>
<stop offset="1" stop-color="#E7A92D"/>
</linearGradient>
<linearGradient id="paint6_linear_121_1253" x1="7.9427" y1="29.593" x2="45.3474" y2="53.2997" gradientUnits="userSpaceOnUse">
<stop stop-color="#FEEDB1"/>
<stop offset="1" stop-color="#E7A92D"/>
</linearGradient>
<linearGradient id="paint7_linear_121_1253" x1="8.3267" y1="41.3376" x2="31.5643" y2="67.1232" gradientUnits="userSpaceOnUse">
<stop stop-color="#FEEDB1"/>
<stop offset="1" stop-color="#E7A92D"/>
</linearGradient>
<linearGradient id="paint8_linear_121_1253" x1="15.43" y1="15.3279" x2="54.8176" y2="65.9295" gradientUnits="userSpaceOnUse">
<stop stop-color="#FEEDB1"/>
<stop offset="1" stop-color="#E7A92D"/>
</linearGradient>
<linearGradient id="paint9_linear_121_1253" x1="15.3158" y1="17.3954" x2="74.8583" y2="69.3078" gradientUnits="userSpaceOnUse">
<stop stop-color="#FEEDB1"/>
<stop offset="1" stop-color="#E7A92D"/>
</linearGradient>
<linearGradient id="paint10_linear_121_1253" x1="31.6109" y1="38.0873" x2="54.4698" y2="54.3792" gradientUnits="userSpaceOnUse">
<stop stop-color="#FEEDB1"/>
<stop offset="1" stop-color="#E7A92D"/>
</linearGradient>
<linearGradient id="paint11_linear_121_1253" x1="4.54071" y1="21.3456" x2="26.6825" y2="32.9965" gradientUnits="userSpaceOnUse">
<stop stop-color="#FEEDB1"/>
<stop offset="1" stop-color="#E7A92D"/>
</linearGradient>
<linearGradient id="paint12_linear_121_1253" x1="16.8408" y1="20.2837" x2="43.0998" y2="20.2837" gradientUnits="userSpaceOnUse">
<stop stop-color="#FFBD00"/>
<stop offset="1" stop-color="#D67200"/>
</linearGradient>
<radialGradient id="paint13_radial_121_1253" cx="0" cy="0" r="1" gradientUnits="userSpaceOnUse" gradientTransform="translate(21.0156 19.4141) scale(15.8609 15.8609)">
<stop stop-color="#FFC382"/>
<stop offset="1" stop-color="#9E2410"/>
</radialGradient>
<linearGradient id="paint14_linear_121_1253" x1="42.2616" y1="20.2677" x2="68.5206" y2="20.2677" gradientUnits="userSpaceOnUse">
<stop stop-color="#A63A00"/>
<stop offset="1" stop-color="#FFBD00"/>
</linearGradient>
<radialGradient id="paint15_radial_121_1253" cx="0" cy="0" r="1" gradientUnits="userSpaceOnUse" gradientTransform="translate(61.5677 14.1062) scale(18.2665 18.2665)">
<stop stop-color="#E8814D"/>
<stop offset="1" stop-color="#9E3726"/>
</radialGradient>
<linearGradient id="paint16_linear_121_1253" x1="20.2395" y1="48.6996" x2="32.0188" y2="20.9197" gradientUnits="userSpaceOnUse">
<stop stop-color="#D97130"/>
<stop offset="0.01" stop-color="#DE7927"/>
<stop offset="0.02" stop-color="#EA8E11"/>
<stop offset="0.04" stop-color="#F29B04"/>
<stop offset="0.05" stop-color="#F5A000"/>
<stop offset="0.36" stop-color="#F5AF00"/>
<stop offset="0.46" stop-color="#FFDD57"/>
<stop offset="0.58" stop-color="#FFB54D"/>
<stop offset="1" stop-color="#E08A00"/>
</linearGradient>
<radialGradient id="paint17_radial_121_1253" cx="0" cy="0" r="1" gradientUnits="userSpaceOnUse" gradientTransform="translate(25.5625 35.6321) scale(15.3333 15.3333)">
<stop stop-color="#E8814D"/>
<stop offset="1" stop-color="#9E3726"/>
</radialGradient>
<linearGradient id="paint18_linear_121_1253" x1="53.5445" y1="21.0747" x2="64.8116" y2="48.9323" gradientUnits="userSpaceOnUse">
<stop stop-color="#B05B00"/>
<stop offset="0.42" stop-color="#F5A000"/>
<stop offset="0.54" stop-color="#FFCC14"/>
<stop offset="0.64" stop-color="#F5A000"/>
<stop offset="0.95" stop-color="#BD6500"/>
<stop offset="0.97" stop-color="#B86200"/>
<stop offset="0.98" stop-color="#AB5900"/>
<stop offset="0.99" stop-color="#A15300"/>
</linearGradient>
<radialGradient id="paint19_radial_121_1253" cx="0" cy="0" r="1" gradientUnits="userSpaceOnUse" gradientTransform="translate(60.8695 35.2127) scale(18.9183 18.9183)">
<stop stop-color="#FFDD57"/>
<stop offset="1" stop-color="#9E3726"/>
</radialGradient>
<radialGradient id="paint20_radial_121_1253" cx="0" cy="0" r="1" gradientUnits="userSpaceOnUse" gradientTransform="translate(61.9403 34.8256) scale(10.5688 10.5688)">
<stop stop-color="#FFF2BB"/>
<stop offset="1"/>
</radialGradient>
<radialGradient id="paint21_radial_121_1253" cx="0" cy="0" r="1" gradientUnits="userSpaceOnUse" gradientTransform="translate(22.8005 35.2908) scale(16.5593 16.5593)">
<stop stop-color="#FFF2BB"/>
<stop offset="1"/>
</radialGradient>
<linearGradient id="paint22_linear_121_1253" x1="53.1253" y1="26.9258" x2="60.5125" y2="2.76189" gradientUnits="userSpaceOnUse">
<stop stop-color="#8F3508"/>
<stop offset="0.21" stop-color="#BD500B"/>
<stop offset="0.7" stop-color="#F7A100"/>
<stop offset="1" stop-color="#964324"/>
</linearGradient>
<linearGradient id="paint23_linear_121_1253" x1="47.29" y1="25.296" x2="56.9586" y2="0.697564" gradientUnits="userSpaceOnUse">
<stop offset="0.3" stop-color="#C25D0A"/>
<stop offset="0.86" stop-color="#FFF14F"/>
<stop offset="0.94" stop-color="#F5B90A"/>
<stop offset="1" stop-color="#E68A00"/>
</linearGradient>
<radialGradient id="paint24_radial_121_1253" cx="0" cy="0" r="1" gradientUnits="userSpaceOnUse" gradientTransform="translate(53.3426 5.86543) scale(31.1477 31.1477)">
<stop stop-color="#F59F41"/>
<stop offset="1" stop-color="#A64416"/>
</radialGradient>
<linearGradient id="paint25_linear_121_1253" x1="46.5918" y1="25.3277" x2="45.3503" y2="21.3702" gradientUnits="userSpaceOnUse">
<stop stop-color="#8F3508"/>
<stop offset="0.21" stop-color="#BD500B"/>
<stop offset="0.7" stop-color="#F7A100"/>
<stop offset="1" stop-color="#964324"/>
</linearGradient>
<linearGradient id="paint26_linear_121_1253" x1="34.0208" y1="29.781" x2="37.8231" y2="21.2453" gradientUnits="userSpaceOnUse">
<stop offset="0.05" stop-color="#B7402C"/>
<stop offset="1" stop-color="#E68A00"/>
</linearGradient>
<linearGradient id="paint27_linear_121_1253" x1="33.0432" y1="21.6801" x2="35.5729" y2="10.7078" gradientUnits="userSpaceOnUse">
<stop stop-color="#D46C2C"/>
<stop offset="1" stop-color="#964324"/>
</linearGradient>
<linearGradient id="paint28_linear_121_1253" x1="22.4898" y1="25.5135" x2="28.9925" y2="8.93868" gradientUnits="userSpaceOnUse">
<stop stop-color="#F28B1D"/>
<stop offset="0.41" stop-color="#FFDC2B"/>
<stop offset="0.55" stop-color="#FFF79D"/>
<stop offset="0.78" stop-color="#F5B90A"/>
<stop offset="1" stop-color="#E68A00"/>
</linearGradient>
<radialGradient id="paint29_radial_121_1253" cx="0" cy="0" r="1" gradientUnits="userSpaceOnUse" gradientTransform="translate(32.6704 13.2372) scale(27.2833 27.2833)">
<stop stop-color="#F59F41"/>
<stop offset="1" stop-color="#A64416"/>
</radialGradient>
<radialGradient id="paint30_radial_121_1253" cx="0" cy="0" r="1" gradientUnits="userSpaceOnUse" gradientTransform="translate(29.3182 15.5964) scale(14.309 14.309)">
<stop stop-color="#FFF2BB"/>
<stop offset="1"/>
</radialGradient>
<radialGradient id="paint31_radial_121_1253" cx="0" cy="0" r="1" gradientUnits="userSpaceOnUse" gradientTransform="translate(55.469 6.53302) scale(15.8299)">
<stop stop-color="#FFF2BB"/>
<stop offset="1"/>
</radialGradient>
<radialGradient id="paint32_radial_121_1253" cx="0" cy="0" r="1" gradientUnits="userSpaceOnUse" gradientTransform="translate(64.6719 18.142) scale(9.57554 9.57554)">
<stop stop-color="#9691FF"/>
<stop offset="0.03" stop-color="#908BF5"/>
<stop offset="0.31" stop-color="#5D5A9F"/>
<stop offset="0.55" stop-color="#35335B"/>
<stop offset="0.76" stop-color="#181729"/>
<stop offset="0.91" stop-color="#06060B"/>
<stop offset="1"/>
</radialGradient>
<radialGradient id="paint33_radial_121_1253" cx="0" cy="0" r="1" gradientUnits="userSpaceOnUse" gradientTransform="translate(46.4212 22.6263) scale(3.04182 3.04182)">
<stop stop-color="#FFC382"/>
<stop offset="1" stop-color="#9E3726"/>
</radialGradient>
<radialGradient id="paint34_radial_121_1253" cx="0" cy="0" r="1" gradientUnits="userSpaceOnUse" gradientTransform="translate(58.8367 16.6678) scale(18.2199 18.2199)">
<stop offset="0.67" stop-color="#6689BA"/>
<stop offset="0.72" stop-color="#5F90BE"/>
<stop offset="0.79" stop-color="#4EA4C9"/>
<stop offset="0.88" stop-color="#32C4DC"/>
<stop offset="0.97" stop-color="#0BF1F7"/>
<stop offset="1" stop-color="#00FFFF"/>
</radialGradient>
<radialGradient id="paint35_radial_121_1253" cx="0" cy="0" r="1" gradientUnits="userSpaceOnUse" gradientTransform="translate(31.5998 25.0168) scale(19.0269 19.0269)">
<stop offset="0.67" stop-color="#6689BA"/>
<stop offset="0.72" stop-color="#5F90BE"/>
<stop offset="0.79" stop-color="#4EA4C9"/>
<stop offset="0.88" stop-color="#32C4DC"/>
<stop offset="0.97" stop-color="#0BF1F7"/>
<stop offset="1" stop-color="#00FFFF"/>
</radialGradient>
<linearGradient id="paint36_linear_121_1253" x1="53.9323" y1="14.1379" x2="66.7824" y2="25.6999" gradientUnits="userSpaceOnUse">
<stop stop-color="#F28B1D"/>
<stop offset="0.41" stop-color="#FFDC2B"/>
<stop offset="0.55" stop-color="#FFF79D"/>
<stop offset="0.78" stop-color="#F5B90A"/>
<stop offset="1" stop-color="#E68A00"/>
</linearGradient>
<radialGradient id="paint37_radial_121_1253" cx="0" cy="0" r="1" gradientUnits="userSpaceOnUse" gradientTransform="translate(68.8775 22.829) scale(22.7982)">
<stop stop-color="#F59F41"/>
<stop offset="1" stop-color="#A64416"/>
</radialGradient>
<radialGradient id="paint38_radial_121_1253" cx="0" cy="0" r="1" gradientUnits="userSpaceOnUse" gradientTransform="translate(77.0718 22.5185) scale(12.2604 12.2604)">
<stop stop-color="#F59F41"/>
<stop offset="1" stop-color="#A64416"/>
</radialGradient>
<radialGradient id="paint39_radial_121_1253" cx="0" cy="0" r="1" gradientUnits="userSpaceOnUse" gradientTransform="translate(48.7021 35.4769) scale(17.4905 17.4905)">
<stop stop-color="#F59F41"/>
<stop offset="1" stop-color="#A64416"/>
</radialGradient>
<linearGradient id="paint40_linear_121_1253" x1="42.122" y1="22.5029" x2="40.6787" y2="33.708" gradientUnits="userSpaceOnUse">
<stop stop-color="#F28B1D"/>
<stop offset="0.26" stop-color="#FFDC2B"/>
<stop offset="0.39" stop-color="#FFF79D"/>
<stop offset="0.8" stop-color="#F5B90A"/>
<stop offset="1" stop-color="#E68A00"/>
</linearGradient>
</defs>
</svg>
