<svg width="80" height="80" viewBox="0 0 80 80" fill="none" xmlns="http://www.w3.org/2000/svg">
<path d="M34.25 3.89711C37.8081 1.84284 42.1919 1.84284 45.75 3.89711L68.391 16.9689C71.9491 19.0232 74.141 22.8196 74.141 26.9282V53.0718C74.141 57.1804 71.9491 60.9768 68.391 63.0311L45.75 76.1029C42.1919 78.1572 37.8081 78.1572 34.25 76.1029L11.609 63.0311C8.05087 60.9768 5.85898 57.1803 5.85898 53.0718V26.9282C5.85898 22.8196 8.05087 19.0232 11.609 16.9689L34.25 3.89711Z" fill="#CB9E31" stroke="white"/>
<path d="M34.3804 33.0509V35.0636L31.713 35.3663V33.0807C31.7187 32.2443 31.8538 31.4373 32.0996 30.678C32.1118 30.5982 32.1321 30.5192 32.1609 30.4418C33.0043 28.0764 34.8982 26.2706 37.2365 25.4635C38.0983 25.1634 39.025 25 39.9895 25C39.993 25 39.9965 25 40 25C40.0035 25 40.007 25 40.0105 25C40.975 25 41.9017 25.1634 42.7635 25.4635C45.1018 26.2706 46.9957 28.0764 47.8391 30.4418C47.8679 30.5192 47.8882 30.5982 47.9004 30.678C48.1462 31.4373 48.2813 32.2443 48.287 33.0807V35.3663L45.6196 35.0636V33.0509C45.6166 32.4533 45.5141 31.8776 45.3272 31.3388C45.3208 31.3238 45.3148 31.3085 45.3089 31.2931C45.2648 31.1677 45.2163 31.0447 45.1636 30.9242C44.3035 28.9848 42.3184 27.6169 40 27.6091C37.6816 27.6169 35.6965 28.9849 34.8364 30.9243C34.7837 31.0448 34.7352 31.1678 34.6911 31.2931C34.6852 31.3085 34.6792 31.3237 34.6728 31.3388C34.4859 31.8776 34.3834 32.4533 34.3804 33.0509Z" fill="white"/>
<path d="M46.3468 35.0666C49.883 35.0666 52.75 37.871 52.75 41.3299V48.7367C52.75 52.1956 49.883 55 46.3468 55H33.6532C30.117 55 27.25 52.1956 27.25 48.7367V41.3299C27.25 37.871 30.117 35.0666 33.6532 35.0666H46.3468ZM39.9924 42.0738C39.2608 42.0738 38.6663 42.6553 38.6663 43.3709V46.6807C38.6663 47.4113 39.2608 47.9927 39.9924 47.9927C40.7392 47.9927 41.3337 47.4113 41.3337 46.6807V43.3709C41.3337 42.6553 40.7392 42.0738 39.9924 42.0738Z" fill="white"/>
</svg>
