<svg width="115" height="174" viewBox="0 0 115 174" fill="none" xmlns="http://www.w3.org/2000/svg">
<path fill-rule="evenodd" clip-rule="evenodd" d="M41.3349 124.694L0.518555 108.554L41.3193 93.9187L82.1201 108.554L41.3193 124.709L41.3349 124.694Z" fill="#C2C2C2"/>
<path fill-rule="evenodd" clip-rule="evenodd" d="M41.3349 124.694L0.518555 108.554L41.3193 93.9187L82.1201 108.554L41.3193 124.709L41.3349 124.694ZM78.3954 108.6L41.3349 95.3155L4.27428 108.6L41.3349 123.266L78.3954 108.6Z" fill="url(#paint0_linear_121_1152)"/>
<path fill-rule="evenodd" clip-rule="evenodd" d="M41.335 123.282V95.3162L4.27441 108.601L41.335 123.282Z" fill="url(#paint1_radial_121_1152)"/>
<path fill-rule="evenodd" clip-rule="evenodd" d="M41.335 95.3162V123.282L78.3955 108.601L41.335 95.3162Z" fill="url(#paint2_radial_121_1152)"/>
<mask id="mask0_121_1152" style="mask-type:alpha" maskUnits="userSpaceOnUse" x="4" y="71" width="75" height="53">
<path fill-rule="evenodd" clip-rule="evenodd" d="M75.8165 71.1909L78.3954 108.6L41.3349 123.266L4.27428 108.6L75.8165 71.1909Z" fill="url(#paint3_linear_121_1152)"/>
<path d="M78.3954 108.6L75.8165 71.1909L4.27428 108.6L41.3349 123.266L78.3954 108.6Z" fill="url(#paint4_linear_121_1152)"/>
</mask>
<g mask="url(#mask0_121_1152)">
<path d="M34.5559 107.801C34.5559 107.801 41.0505 104.696 46.4051 109.683C51.7717 114.669 53.3603 135.737 46.7545 143.2C37.6535 143.416 26.3593 127.098 27.2364 119.068C28.1106 111.031 34.5608 107.802 34.5608 107.802L34.5559 107.801Z" fill="#DE7422"/>
<path d="M50.67 120.892C50.7016 121.112 50.7333 121.332 50.7579 121.556C47.0437 125.198 40.5997 130.343 32.1012 132.618C31.9889 132.451 31.8718 132.282 31.7595 132.115C40.4587 129.856 47.0153 124.524 50.6651 120.89L50.67 120.892Z" fill="#F75408"/>
<path d="M48.5213 112.861C48.5978 113.034 48.6744 113.208 48.7539 113.388C44.6792 117.392 37.4886 123.025 28.0695 124.699C28.0088 124.513 27.9482 124.327 27.8905 124.148C37.329 122.512 44.5141 116.833 48.5262 112.863L48.5213 112.861Z" fill="#F75408"/>
<path d="M36.0157 111.34C36.0157 111.34 36.038 111.279 36.0807 111.162C36.1233 111.045 36.1871 110.884 36.275 110.689C36.4339 110.298 36.6886 109.721 37.0056 109.033C37.1532 108.689 37.3426 108.322 37.5331 107.936C37.7237 107.55 37.9302 107.151 38.1378 106.734C38.3632 106.329 38.6016 105.904 38.84 105.479C39.0734 105.052 39.3119 104.626 39.5848 104.214C39.8458 103.803 40.1019 103.391 40.3609 102.985C40.6051 102.575 40.8856 102.203 41.1501 101.844C41.4146 101.485 41.6631 101.14 41.9056 100.811C42.0248 100.652 42.1391 100.491 42.2513 100.336C42.3665 100.188 42.4923 100.057 42.6014 99.926C43.4944 98.8983 44.0884 98.2169 44.0884 98.2169L38.2265 93.8412C38.2265 93.8412 37.7743 94.9155 37.0986 96.5279C37.0205 96.727 36.9286 96.9338 36.8494 97.1514C36.7752 97.3709 36.7038 97.5978 36.6255 97.8284C36.4739 98.2915 36.3141 98.7769 36.1511 99.2865C35.9852 99.7886 35.8152 100.302 35.6926 100.839C35.5571 101.365 35.4226 101.904 35.2831 102.441C35.1407 102.97 35.0328 103.512 34.929 104.043C34.8272 104.569 34.7225 105.087 34.6239 105.588C34.5471 106.091 34.4714 106.576 34.3989 107.036C34.3284 107.491 34.2611 107.921 34.2258 108.326C34.1304 109.125 34.0599 109.795 34.0297 110.277C34.0097 110.516 33.9932 110.7 33.9892 110.818C33.9851 110.937 33.9776 111.004 33.9776 111.004L36.0108 111.339L36.0157 111.34Z" fill="#469F36"/>
<path d="M35.1895 110.281C35.1895 110.281 35.1393 110.25 35.0468 110.197C34.9493 110.143 34.8234 110.059 34.6622 109.95C34.3454 109.746 33.8863 109.428 33.3378 109.032C33.0605 108.843 32.7757 108.613 32.4711 108.376C32.1666 108.139 31.8513 107.885 31.5261 107.628C31.214 107.35 30.8871 107.067 30.5574 106.776C30.2276 106.485 29.8957 106.2 29.59 105.874C29.2802 105.559 28.9684 105.25 28.6636 104.937C28.3527 104.641 28.0806 104.314 27.8163 103.997C27.555 103.687 27.3015 103.386 27.0608 103.096C26.9453 102.953 26.8278 102.816 26.7133 102.685C26.6077 102.546 26.514 102.404 26.4232 102.27C25.7036 101.225 25.2212 100.525 25.2212 100.525L19.9194 106.598C19.9194 106.598 20.7849 107.165 22.0811 108.022C22.2444 108.126 22.4037 108.241 22.5858 108.339C22.768 108.437 22.9571 108.531 23.1491 108.632C23.5302 108.828 23.934 109.038 24.3525 109.253C24.7661 109.467 25.1925 109.691 25.647 109.869C26.0925 110.056 26.5479 110.247 27.0004 110.431C27.4468 110.631 27.9114 110.781 28.3662 110.928C28.814 111.078 29.2619 111.228 29.69 111.371C30.1262 111.492 30.5476 111.607 30.9424 111.719C31.3371 111.831 31.7142 111.93 32.0678 112.002C32.7639 112.161 33.3544 112.287 33.7802 112.36C33.9896 112.398 34.1526 112.426 34.2594 112.439C34.3661 112.453 34.4244 112.461 34.4244 112.461L35.2005 110.266L35.1895 110.281Z" fill="#469F36"/>
<path d="M36.1927 111.253C36.209 111.208 36.1765 111.19 36.1428 111.083C36.1063 110.968 36.0642 110.808 36.0126 110.612C35.9044 110.219 35.7663 109.631 35.6105 108.924C35.5247 108.576 35.455 108.184 35.3816 107.772C35.3062 107.366 35.2291 106.933 35.151 106.487C35.0918 106.036 35.0268 105.57 34.9639 105.098C34.8989 104.632 34.831 104.159 34.8058 103.676C34.7666 103.2 34.7344 102.721 34.6981 102.253C34.6479 101.792 34.6502 101.325 34.6494 100.882C34.6485 100.44 34.6415 100.014 34.6383 99.6079C34.6392 99.406 34.636 99.2152 34.6328 99.0245C34.6394 98.8373 34.6609 98.6555 34.6684 98.4813C34.774 97.1166 34.8447 96.2006 34.8447 96.2006L27.4921 97.3817C27.4921 97.3817 27.7741 98.4639 28.1956 100.083C28.2521 100.281 28.2977 100.493 28.367 100.702C28.4383 100.905 28.5155 101.123 28.5927 101.34C28.747 101.776 28.91 102.233 29.0838 102.707C29.2526 103.179 29.4223 103.664 29.6436 104.13C29.853 104.598 30.0653 105.074 30.2756 105.555C30.4761 106.032 30.7183 106.487 30.9526 106.932C31.1821 107.376 31.4135 107.814 31.6343 108.236C31.871 108.644 32.1019 109.038 32.322 109.415C32.5393 109.785 32.7458 110.138 32.9567 110.448C33.3596 111.075 33.707 111.594 33.9649 111.959C34.0928 112.145 34.1885 112.281 34.259 112.363C34.3275 112.451 34.3292 112.477 34.3597 112.501C34.8635 112.804 35.9775 112.381 36.2005 111.262L36.1927 111.253Z" fill="#6DD14D"/>
<path opacity="0.2" d="M47.4808 129.092C47.7323 129.183 48.0111 129.215 48.3014 129.169C49.3299 129.012 50.1162 127.971 50.0503 126.847C50.0317 126.499 50.0111 126.157 49.9815 125.824C49.8918 124.704 48.9875 123.952 47.9587 124.14C46.9299 124.328 46.1712 125.386 46.2608 126.505C46.2858 126.805 46.3067 127.116 46.3227 127.425C46.3647 128.231 46.8349 128.857 47.4759 129.09L47.4808 129.092ZM45.4886 121.491C44.2607 116.209 42.1583 113.27 42.1163 113.217C41.4967 112.373 41.655 111.078 42.4703 110.325C43.2926 109.569 44.4615 109.64 45.088 110.481C45.1936 110.62 47.6756 114.019 49.1092 120.178C49.3595 121.255 48.7522 122.419 47.7516 122.775C47.3475 122.919 46.9478 122.913 46.5879 122.782C46.0603 122.59 45.6371 122.126 45.4857 121.483L45.4886 121.491Z" fill="#E6FF57"/>
<path d="M63.1128 102.303C63.1128 102.303 58.0706 97.1655 51.3337 100.022C44.5863 102.873 35.8923 122.129 39.5493 131.401C48.0282 134.715 64.2198 123.24 66.1402 115.394C68.0657 107.542 63.1075 102.303 63.1075 102.303H63.1128Z" fill="#FF7A14"/>
<path d="M43.4949 109.098C43.3899 109.294 43.285 109.49 43.1853 109.692C45.4309 114.385 49.7281 121.423 56.9372 126.466C57.0998 126.347 57.2677 126.228 57.4304 126.109C50.0271 121.013 45.688 113.761 43.5001 109.098H43.4949Z" fill="#F75408"/>
<path d="M51.1186 129.887C47.4248 127.915 42.7499 124.904 39.2398 120.924C39.1926 121.156 39.1506 121.382 39.1086 121.613C42.4981 125.361 46.8792 128.236 50.447 130.184C50.6674 130.089 50.893 129.994 51.1133 129.887H51.1186Z" fill="#F75408"/>
<path d="M48.2589 102.286C48.1277 102.422 47.9965 102.559 47.8601 102.702C50.3209 107.857 55.1532 115.608 63.4326 120.401C63.5533 120.247 63.674 120.093 63.7894 119.944C55.4785 115.181 50.6671 107.388 48.2536 102.286H48.2589Z" fill="#F75408"/>
<path d="M60.5313 105.131C60.5313 105.131 60.5313 105.065 60.5313 104.94C60.5313 104.816 60.526 104.644 60.5103 104.43C60.4946 104.008 60.4526 103.378 60.3896 102.624C60.3686 102.25 60.3162 101.84 60.2689 101.412C60.2217 100.985 60.164 100.539 60.1115 100.076C60.0381 99.6187 59.9594 99.1376 59.8807 98.6565C59.8072 98.1754 59.7285 97.6943 59.6131 97.2132C59.5082 96.738 59.4085 96.2628 59.3035 95.7936C59.2143 95.3244 59.0779 94.8789 58.952 94.4513C58.8261 94.0236 58.7106 93.6138 58.5952 93.2218C58.5375 93.0317 58.485 92.8417 58.4326 92.6575C58.3748 92.4794 58.3014 92.3131 58.2437 92.1527C57.7557 90.8816 57.4304 90.0382 57.4304 90.0382L64.4349 87.9297C64.4349 87.9297 64.4926 89.0938 64.5766 90.8401C64.5818 91.0539 64.5976 91.2796 64.5976 91.5112C64.5923 91.7429 64.5818 91.9804 64.5766 92.224C64.5608 92.711 64.5451 93.2218 64.5241 93.7564C64.5084 94.285 64.4926 94.8255 64.4244 95.3719C64.3719 95.9124 64.3142 96.4648 64.2618 97.0172C64.2145 97.5636 64.1306 98.11 64.0466 98.6446C63.9627 99.1732 63.884 99.6959 63.8053 100.201C63.7056 100.7 63.6112 101.181 63.522 101.638C63.4328 102.09 63.3488 102.517 63.2439 102.909C63.0602 103.693 62.8976 104.347 62.7612 104.81C62.6982 105.041 62.651 105.22 62.6143 105.332C62.5775 105.445 62.5618 105.511 62.5618 105.511L60.5365 105.131H60.5313Z" fill="#469F36"/>
<path d="M61.6698 104.418C61.6698 104.418 61.7275 104.406 61.8324 104.388C61.9426 104.37 62.0895 104.334 62.2784 104.287C62.6457 104.204 63.1861 104.061 63.8367 103.877C64.162 103.794 64.5083 103.675 64.8756 103.556C65.2429 103.438 65.6259 103.307 66.0194 103.176C66.4077 103.022 66.8117 102.867 67.2209 102.707C67.6302 102.547 68.0394 102.392 68.4382 102.19C68.8369 102 69.2357 101.816 69.6292 101.626C70.0227 101.454 70.39 101.24 70.7468 101.032C71.0983 100.83 71.4393 100.634 71.7646 100.444C71.9221 100.349 72.0795 100.26 72.2316 100.177C72.3785 100.082 72.5149 99.9808 72.6461 99.8857C73.6797 99.1492 74.3723 98.6562 74.3723 98.6562L77.279 106.176C77.279 106.176 76.2717 106.413 74.7606 106.776C74.5717 106.817 74.3828 106.871 74.1782 106.9C73.9736 106.93 73.7637 106.954 73.5486 106.983C73.1236 107.037 72.6723 107.096 72.2054 107.156C71.7437 107.215 71.2662 107.28 70.7782 107.292C70.2955 107.316 69.8023 107.34 69.3144 107.358C68.8264 107.393 68.3385 107.375 67.861 107.358C67.3888 107.346 66.9166 107.334 66.4654 107.322C66.0141 107.286 65.5787 107.251 65.1694 107.221C64.7602 107.191 64.3719 107.156 64.0151 107.102C63.3068 107.013 62.7087 106.93 62.2837 106.853C62.0738 106.817 61.9111 106.787 61.8062 106.764C61.7013 106.74 61.6436 106.728 61.6436 106.728L61.6645 104.4L61.6698 104.418Z" fill="#469F36"/>
<path d="M60.3947 104.988C60.3947 104.94 60.4315 104.934 60.4997 104.845C60.5731 104.75 60.6676 104.614 60.783 104.447C61.0191 104.115 61.3497 103.61 61.7379 102.998C61.9373 102.701 62.1367 102.357 62.3466 101.994C62.5564 101.638 62.7768 101.258 63.0024 100.866C63.2123 100.462 63.4326 100.046 63.653 99.6245C63.8734 99.2087 64.099 98.787 64.2879 98.3416C64.4873 97.908 64.6814 97.4684 64.8755 97.0408C65.0801 96.625 65.2375 96.1855 65.3897 95.7697C65.5419 95.354 65.694 94.956 65.8357 94.5759C65.9039 94.3858 65.9721 94.2076 66.0403 94.0295C66.098 93.8513 66.14 93.6731 66.1925 93.5068C66.5597 92.1882 66.8063 91.3032 66.8063 91.3032L73.3124 94.9263C73.3124 94.9263 72.6775 95.847 71.7278 97.2249C71.6072 97.3912 71.4917 97.5754 71.3553 97.7476C71.2189 97.9139 71.072 98.0921 70.9251 98.2703C70.6313 98.6267 70.3217 99.0008 69.9964 99.3869C69.6763 99.773 69.351 100.171 68.9838 100.533C68.627 100.901 68.265 101.276 67.9029 101.656C67.5514 102.036 67.1684 102.38 66.7958 102.719C66.4286 103.058 66.0613 103.39 65.7098 103.711C65.3477 104.014 64.9962 104.305 64.6604 104.584C64.3298 104.857 64.015 105.119 63.7107 105.338C63.1178 105.79 62.6141 106.158 62.2469 106.413C62.0632 106.544 61.9268 106.639 61.8324 106.693C61.7379 106.752 61.7274 106.776 61.6907 106.788C61.1136 106.9 60.2111 106.122 60.3842 104.994L60.3947 104.988Z" fill="#6DD14D"/>
<path opacity="0.2" d="M43.689 117.894C43.4214 117.894 43.1485 117.829 42.8914 117.686C41.9785 117.187 41.5955 115.94 42.0415 114.907C42.1779 114.586 42.3143 114.271 42.456 113.968C42.9229 112.947 44.03 112.549 44.9325 113.077C45.8349 113.606 46.1864 114.859 45.7195 115.881C45.5935 116.154 45.4676 116.439 45.3469 116.724C45.0321 117.467 44.3763 117.894 43.6942 117.894H43.689ZM48.1592 111.432C51.1184 106.888 54.0986 104.845 54.1563 104.809C55.0273 104.227 55.3211 102.956 54.8122 101.97C54.298 100.978 53.1752 100.646 52.299 101.222C52.1521 101.317 48.6577 103.663 45.2053 108.961C44.6019 109.888 44.775 111.188 45.5935 111.866C45.9241 112.139 46.3019 112.269 46.6849 112.269C47.2463 112.269 47.8025 111.978 48.1645 111.426L48.1592 111.432Z" fill="#E6FF57"/>
</g>
<path d="M22.5746 61.1047C22.5746 61.1047 28.4348 55.1335 36.2646 58.4539C44.1066 61.7674 54.2109 84.1471 49.9606 94.9227C40.1063 98.7746 21.288 85.4379 19.0561 76.319C16.8182 67.1932 22.5807 61.1047 22.5807 61.1047H22.5746Z" fill="#FF7A14"/>
<path d="M45.3751 69.002C45.497 69.2298 45.619 69.4576 45.7349 69.6923C43.1249 75.1457 38.1307 83.3258 29.7521 89.1865C29.5631 89.0484 29.3679 88.9104 29.1789 88.7723C37.7831 82.8495 42.8261 74.4208 45.369 69.002H45.3751Z" fill="#F75408"/>
<path d="M36.5147 93.163C40.8076 90.8712 46.2409 87.3714 50.3205 82.7463C50.3753 83.0156 50.4241 83.2779 50.4729 83.5471C46.5336 87.9029 41.4418 91.244 37.2952 93.5082C37.0391 93.3977 36.7769 93.2873 36.5208 93.163H36.5147Z" fill="#F75408"/>
<path d="M39.8381 61.0842C39.9905 61.243 40.143 61.4018 40.3015 61.5674C37.4416 67.5593 31.8253 76.5678 22.2028 82.1385C22.0625 81.9591 21.9223 81.7796 21.7881 81.607C31.4473 76.0708 37.0391 67.0139 39.8442 61.0842H39.8381Z" fill="#F75408"/>
<path d="M25.5748 64.3906C25.5748 64.3906 25.5748 64.3147 25.5748 64.1698C25.5748 64.0248 25.5809 63.8246 25.5992 63.5761C25.6175 63.086 25.6663 62.3542 25.7395 61.4776C25.7639 61.0427 25.8248 60.5664 25.8797 60.0693C25.9346 59.5723 26.0017 59.0546 26.0627 58.5162C26.148 57.9846 26.2395 57.4255 26.331 56.8663C26.4163 56.3072 26.5078 55.748 26.642 55.1889C26.7639 54.6366 26.8798 54.0844 27.0017 53.5391C27.1054 52.9937 27.2639 52.476 27.4103 51.979C27.5567 51.4819 27.6908 51.0056 27.825 50.55C27.892 50.3291 27.953 50.1082 28.014 49.8942C28.0811 49.6872 28.1664 49.4939 28.2335 49.3075C28.8006 47.8302 29.1787 46.85 29.1787 46.85L21.0379 44.3994C21.0379 44.3994 20.9709 45.7524 20.8733 47.7819C20.8672 48.0304 20.8489 48.2927 20.8489 48.562C20.855 48.8312 20.8672 49.1073 20.8733 49.3903C20.8916 49.9564 20.9099 50.55 20.9343 51.1713C20.9526 51.7857 20.9709 52.4139 21.0501 53.0489C21.1111 53.6771 21.1782 54.3191 21.2392 54.9611C21.294 55.5962 21.3916 56.2312 21.4892 56.8525C21.5867 57.4669 21.6782 58.0744 21.7697 58.6611C21.8855 59.241 21.9953 59.8001 22.099 60.3317C22.2026 60.8563 22.3002 61.3533 22.4222 61.8089C22.6356 62.7201 22.8246 63.4794 22.9832 64.0179C23.0564 64.2871 23.1112 64.4942 23.1539 64.6254C23.1966 64.7565 23.2149 64.8324 23.2149 64.8324L25.5687 64.3906H25.5748Z" fill="#469F36"/>
<path d="M24.2517 63.5622C24.2517 63.5622 24.1847 63.5484 24.0627 63.5277C23.9346 63.5069 23.7639 63.4655 23.5444 63.4103C23.1175 63.3137 22.4894 63.148 21.7333 62.934C21.3552 62.8374 20.9527 62.6993 20.5259 62.5612C20.099 62.4232 19.6539 62.2713 19.1965 62.1194C18.7453 61.94 18.2757 61.7605 17.8001 61.5741C17.3245 61.3877 16.8488 61.2082 16.3854 60.9735C15.9219 60.7526 15.4585 60.5386 15.0011 60.3177C14.5438 60.1175 14.1169 59.869 13.7023 59.6274C13.2937 59.3927 12.8973 59.1649 12.5193 58.944C12.3363 58.8336 12.1534 58.73 11.9765 58.6334C11.8058 58.5229 11.6472 58.4056 11.4948 58.2951C10.2935 57.4392 9.48857 56.8662 9.48857 56.8662L6.1103 65.6055C6.1103 65.6055 7.28111 65.8816 9.03732 66.3027C9.25685 66.351 9.47637 66.4131 9.71419 66.4476C9.95201 66.4822 10.1959 66.5098 10.446 66.5443C10.9399 66.6064 11.4643 66.6754 12.007 66.7445C12.5436 66.8135 13.0986 66.8894 13.6657 66.9032C14.2267 66.9309 14.7999 66.9585 15.367 66.9792C15.9341 67.0206 16.5012 66.9999 17.0561 66.9792C17.605 66.9654 18.1538 66.9516 18.6782 66.9378C19.2026 66.8963 19.7088 66.8549 20.1844 66.8204C20.66 66.7859 21.1113 66.7445 21.5259 66.6823C22.3492 66.5788 23.0443 66.4822 23.5383 66.3924C23.7822 66.351 23.9712 66.3165 24.0932 66.2889C24.2151 66.2613 24.2822 66.2475 24.2822 66.2475L24.2578 63.5415L24.2517 63.5622Z" fill="#469F36"/>
<path d="M25.7333 64.2247C25.7333 64.1695 25.6907 64.1626 25.6114 64.059C25.526 63.9486 25.4162 63.7898 25.2821 63.5965C25.0077 63.2099 24.6235 62.6232 24.1723 61.9122C23.9405 61.567 23.7088 61.1666 23.4649 60.7456C23.221 60.3314 22.9649 59.8896 22.7027 59.434C22.4587 58.9646 22.2026 58.4814 21.9465 57.9912C21.6904 57.508 21.4282 57.0179 21.2087 56.5002C20.9769 55.9963 20.7513 55.4854 20.5257 54.9884C20.2879 54.5052 20.1049 53.9944 19.9281 53.5112C19.7512 53.0279 19.5744 52.5654 19.4098 52.1236C19.3305 51.9028 19.2512 51.6957 19.1719 51.4886C19.1049 51.2815 19.0561 51.0744 18.9951 50.8811C18.5682 49.3486 18.2816 48.3201 18.2816 48.3201L10.7202 52.5309C10.7202 52.5309 11.458 53.6009 12.5617 55.2024C12.702 55.3957 12.8361 55.6097 12.9947 55.8099C13.1532 56.0032 13.324 56.2103 13.4947 56.4173C13.8362 56.8315 14.196 57.2664 14.5741 57.7151C14.946 58.1638 15.3241 58.6263 15.751 59.0474C16.1656 59.4754 16.5864 59.9103 17.0072 60.3521C17.4157 60.7939 17.8609 61.1943 18.2938 61.5877C18.7207 61.9812 19.1475 62.3678 19.5561 62.7405C19.9769 63.0926 20.3854 63.4308 20.7757 63.7553C21.1599 64.0728 21.5257 64.3766 21.8794 64.632C22.5685 65.1566 23.1539 65.5846 23.5808 65.8814C23.7942 66.0333 23.9527 66.1437 24.0625 66.2059C24.1723 66.2749 24.1845 66.3025 24.2271 66.3163C24.8979 66.4475 25.9468 65.5432 25.7455 64.2316L25.7333 64.2247Z" fill="#6DD14D"/>
<path opacity="0.2" d="M45.1493 79.2247C45.4603 79.2247 45.7774 79.1487 46.0762 78.9831C47.1372 78.4032 47.5824 76.9536 47.0641 75.7524C46.9055 75.3797 46.747 75.0138 46.5823 74.6618C46.0396 73.4744 44.7529 73.0119 43.7041 73.6263C42.6552 74.2407 42.2467 75.6972 42.7894 76.8845C42.9358 77.2021 43.0821 77.5334 43.2224 77.8648C43.5882 78.7277 44.3505 79.2247 45.1432 79.2247H45.1493ZM39.9538 71.7142C36.5146 66.4333 33.051 64.0587 32.9839 64.0173C31.9716 63.3408 31.6301 61.8635 32.2216 60.7176C32.8192 59.5648 34.1242 59.1782 35.1426 59.8478C35.3133 59.9583 39.3745 62.685 43.387 68.8425C44.0883 69.9194 43.887 71.4311 42.9358 72.2181C42.5516 72.5356 42.1125 72.6875 41.6674 72.6875C41.0149 72.6875 40.3685 72.3492 39.9477 71.7073L39.9538 71.7142Z" fill="#E6FF57"/>
<path fill-rule="evenodd" clip-rule="evenodd" d="M41.3349 124.71L0.518555 108.554C1.68252 123.887 2.28778 139.717 2.11706 154.569C2.11706 154.973 2.34986 155.299 2.70681 155.485L39.8139 173.643C40.3106 173.891 40.8227 174 41.3193 174C41.816 174 42.3436 173.876 42.8247 173.643L79.9319 155.485C80.2888 155.314 80.5216 154.973 80.5216 154.569C80.3509 139.717 80.9562 123.887 82.1201 108.554L41.3038 124.71H41.3349Z" fill="url(#paint5_linear_121_1152)"/>
<path fill-rule="evenodd" clip-rule="evenodd" d="M41.3349 124.71L0.518555 108.554C1.68252 123.887 2.28778 139.717 2.11706 154.569C2.11706 154.973 2.34986 155.299 2.70681 155.485L39.8139 173.643C40.3106 173.891 40.8227 174 41.3193 174V124.71H41.3349Z" fill="url(#paint6_linear_121_1152)"/>
<path fill-rule="evenodd" clip-rule="evenodd" d="M41.335 124.71L82.1513 108.554C80.9873 123.887 80.382 139.717 80.5528 154.57C80.5528 154.973 80.32 155.299 79.963 155.485L42.8559 173.643C42.3593 173.891 41.8471 174 41.3505 174V124.71H41.335Z" fill="url(#paint7_linear_121_1152)"/>
<g style="mix-blend-mode:screen" opacity="0.65">
<path fill-rule="evenodd" clip-rule="evenodd" d="M41.3349 124.71L0.518555 108.554C1.68252 123.887 2.28778 139.717 2.11706 154.569C2.11706 154.973 2.34986 155.299 2.70681 155.485L39.8139 173.643C40.3106 173.891 40.8227 174 41.3193 174V124.71H41.3349Z" fill="#CB9E31"/>
</g>
<path fill-rule="evenodd" clip-rule="evenodd" d="M28.5586 22.521L22.701 34.2801C22.5015 34.6485 22.5635 35.088 22.8233 35.4229L50.1836 69.1106C50.5975 69.6172 51.1297 69.9055 51.7802 69.9754L94.9436 74.4874C95.3587 74.5358 95.7471 74.3402 95.9677 73.9655L102.617 62.6351C102.787 62.3212 102.757 61.9522 102.509 61.6941L73.1902 30.1227C72.8212 29.7287 72.3845 29.4922 71.8528 29.3984L29.4132 22.0838C29.0612 22.0167 28.7223 22.1861 28.566 22.5074L28.5586 22.521Z" fill="#CB9E31"/>
<path fill-rule="evenodd" clip-rule="evenodd" d="M22.7222 34.2732C22.5363 34.649 22.5847 35.0811 22.8519 35.4024L50.2122 69.0901C50.426 69.3471 50.6557 69.5421 50.9286 69.6899L57.9506 56.726L28.9602 22.1377C28.7981 22.2088 28.6548 22.343 28.5661 22.5067L22.7086 34.2658L22.7222 34.2732Z" fill="url(#paint8_linear_121_1152)"/>
<g style="mix-blend-mode:screen" opacity="0.4">
<path fill-rule="evenodd" clip-rule="evenodd" d="M22.7222 34.2734C22.5362 34.6493 22.5846 35.0814 22.8518 35.4027L50.2121 69.0903C50.4259 69.3473 50.6556 69.5423 50.9285 69.6902C48.7008 66.895 40.3452 55.927 33.5869 47.7126C28.0243 40.9401 25.025 37.7447 23.6985 36.0554C22.5311 34.5936 22.7222 34.2734 22.7222 34.2734Z" fill="url(#paint9_linear_121_1152)"/>
</g>
<path fill-rule="evenodd" clip-rule="evenodd" d="M28.9598 22.1387L57.9366 56.7196L102.731 62.0975C102.709 61.944 102.644 61.803 102.529 61.6882L73.211 30.1168C72.842 29.7228 72.4053 29.4862 71.8737 29.3924L29.4129 22.0841C29.2543 22.0511 29.1008 22.0738 28.9598 22.1387Z" fill="url(#paint10_linear_121_1152)"/>
<g style="mix-blend-mode:screen" opacity="0.5">
<path fill-rule="evenodd" clip-rule="evenodd" d="M28.5586 22.521L22.701 34.2801C22.5015 34.6485 22.5635 35.088 22.8233 35.4229L50.1836 69.1106C50.5975 69.6172 51.1297 69.9055 51.7802 69.9754L94.9436 74.4874C95.3587 74.5358 95.7471 74.3402 95.9677 73.9655L102.617 62.6351C102.787 62.3212 102.757 61.9522 102.509 61.6941L73.1902 30.1227C72.8212 29.7287 72.3845 29.4922 71.8528 29.3984L29.4132 22.0838C29.0612 22.0167 28.7223 22.1861 28.566 22.5074L28.5586 22.521Z" fill="url(#paint11_linear_121_1152)"/>
</g>
<path fill-rule="evenodd" clip-rule="evenodd" d="M57.9369 56.7185L50.9149 69.6824C51.1742 69.8228 51.4767 69.9161 51.7951 69.9474L94.9586 74.4594C95.381 74.4941 95.762 74.3121 95.9752 73.951L102.624 62.6207C102.72 62.4433 102.747 62.2636 102.718 62.0891L57.9233 56.7111L57.9369 56.7185Z" fill="#CB9E31"/>
<g style="mix-blend-mode:screen">
<path fill-rule="evenodd" clip-rule="evenodd" d="M46.9504 43.6021C48.3145 45.4176 56.5296 55.7977 56.6421 57.0236C56.7581 58.1455 52.9333 65.7282 52.2083 67.2947C53.1317 65.818 57.4376 58.3899 58.427 57.8668C59.4732 57.3039 68.6747 58.1403 70.5118 58.2352C68.6741 57.9458 59.1877 56.6904 58.2188 56.1656C57.1408 55.5817 48.4964 45.375 46.9294 43.6084L46.9504 43.6021Z" fill="url(#paint12_linear_121_1152)"/>
</g>
<g style="mix-blend-mode:screen">
<path fill-rule="evenodd" clip-rule="evenodd" d="M22.7218 34.2737C24.6158 32.2108 28.377 24.876 29.136 24.8106C29.7763 24.7691 41.0066 37.0119 44.5376 40.7248C42.1057 37.5896 30.7025 23.8411 30.9464 23.3908C31.2495 22.8313 47.5095 25.267 49.259 25.491L29.4129 22.0836C29.061 22.0165 28.7221 22.186 28.5657 22.5072L22.7082 34.2663L22.7218 34.2737Z" fill="url(#paint13_linear_121_1152)"/>
</g>
<path fill-rule="evenodd" clip-rule="evenodd" d="M67.079 40.7209C64.1138 34.7905 62.3511 32.212 57.8751 27.2459C57.5397 26.8877 57.2252 26.5233 56.8898 26.1651C56.5617 25.7932 56.1608 25.5231 55.6616 25.4998C52.6327 25.3242 49.6721 24.7618 46.7307 24.0335C46.4618 23.9761 46.186 24.1267 46.0666 24.3798L45.7784 24.912C45.937 24.9449 46.082 24.9705 46.227 24.9961C46.488 25.2963 46.7626 25.6039 47.0162 25.9178C51.8248 31.5406 57.554 36.4088 63.5185 40.875L67.0853 40.7419L67.079 40.7209Z" fill="url(#paint14_linear_121_1152)"/>
<path fill-rule="evenodd" clip-rule="evenodd" d="M48.0133 25.9987C52.9067 31.7909 58.3981 36.2832 64.4645 40.8223C64.1449 40.8257 63.8316 40.8501 63.5121 40.8535C57.5612 36.3947 51.832 31.5265 47.0098 25.8963C46.7488 25.5961 46.4741 25.2885 46.2206 24.9746C46.0756 24.9491 45.9306 24.9235 45.7856 24.8979L46.0738 24.3657C46.2217 24.0928 46.5293 24.2417 46.8636 24.6346L47.9997 25.9913L48.0133 25.9987Z" fill="url(#paint15_radial_121_1152)"/>
<path fill-rule="evenodd" clip-rule="evenodd" d="M66.342 40.3214C72.9291 39.5651 76.0518 39.6328 82.6566 40.6687C83.1399 40.754 83.6169 40.8182 84.1002 40.9035C84.5909 40.9751 85.0361 41.1633 85.3284 41.5687C87.1303 44.0097 89.2187 46.1822 91.4357 48.2479C91.6307 48.4418 91.6551 48.7551 91.5084 48.9933L91.2202 49.5255C91.1059 49.4107 91.0052 49.3032 90.9046 49.1958C90.5106 49.1412 90.1029 49.0792 89.7015 49.0383C82.3649 48.0825 75.1575 45.9435 68.1581 43.3878C67.5457 42.3677 66.9333 41.3477 66.3209 40.3276L66.342 40.3214Z" fill="url(#paint16_linear_121_1152)"/>
<path fill-rule="evenodd" clip-rule="evenodd" d="M89.0886 48.2471C81.5638 47.3129 74.801 45.1677 67.685 42.5664C67.8568 42.836 68.0074 43.1117 68.1792 43.3812C75.1649 45.9296 82.3724 48.0686 89.7225 49.0317C90.1166 49.0863 90.5243 49.1483 90.9257 49.1892C91.0263 49.2967 91.127 49.4041 91.2276 49.5116L91.5159 48.9794C91.6637 48.7065 91.3709 48.5302 90.8591 48.4648L89.1022 48.2545L89.0886 48.2471Z" fill="url(#paint17_radial_121_1152)"/>
<path fill-rule="evenodd" clip-rule="evenodd" d="M39.3511 55.7419L39.7514 56.2411C39.6331 56.4594 39.5444 56.6232 39.1328 56.4708L38.3231 56.1734C38.1991 56.1416 38.1048 56.0552 38.024 55.9761L31.7905 48.0637C31.3504 47.5076 31.5574 47.1255 31.8542 46.545L37.9624 34.5511C38.2075 34.066 38.7022 33.8045 39.2412 33.8847L41.8397 34.2684C49.2694 35.3453 55.7594 36.9191 62.9447 39.5226L65.9076 42.5572C61.7944 44.3181 54.4306 43.7712 48.5252 43.0082L47.0298 42.8689C46.5107 42.8172 46.0445 43.0588 45.8005 43.5091L39.3164 55.7407L39.3511 55.7419Z" fill="url(#paint18_linear_121_1152)"/>
<path fill-rule="evenodd" clip-rule="evenodd" d="M39.351 55.742L45.8351 43.5104C46.079 43.0601 46.5589 42.8258 47.0644 42.8701L48.5598 43.0094C54.4515 43.765 61.8216 44.333 65.9422 42.5584L65.6266 42.2286C60.4706 44.0248 52.2329 42.8104 46.5219 42.0468C45.8999 41.957 45.2659 42.4431 44.9703 42.989C43.3219 46.0321 41.0249 50.4359 38.4941 55.4014C38.3463 55.6743 38.008 56.0382 38.804 56.3282L39.1537 56.4646C39.5653 56.617 39.654 56.4533 39.7723 56.2349L39.372 55.7357L39.351 55.742Z" fill="url(#paint19_radial_121_1152)"/>
<path fill-rule="evenodd" clip-rule="evenodd" d="M68.9014 71.7656L68.2646 71.7031C68.1463 71.9214 68.0576 72.0852 68.4101 72.3467L69.1016 72.8624C69.1959 72.9488 69.3199 72.9807 69.4302 73.0051L79.463 73.9034C80.1692 73.9682 80.3761 73.5862 80.7002 73.0204L87.409 61.3517C87.6813 60.8815 87.6301 60.3243 87.2685 59.9166L85.5275 57.9499C80.5665 52.3152 75.7027 47.7392 69.5966 43.1433L65.4362 42.3195C66.2084 46.7266 70.6895 52.5956 74.5548 57.1249L75.4884 58.3013C75.8154 58.7079 75.8677 59.2304 75.6238 59.6807L68.9213 71.794L68.9014 71.7656Z" fill="url(#paint20_linear_121_1152)"/>
<path fill-rule="evenodd" clip-rule="evenodd" d="M68.9015 71.7651L75.604 59.6518C75.8479 59.2015 75.7819 58.6716 75.4686 58.2724L74.535 57.096C70.6833 52.574 66.1812 46.7113 65.4164 42.2905L65.865 42.3747C67.1773 47.6745 72.695 53.9108 76.4546 58.277C76.8696 58.7489 76.8088 59.5455 76.5131 60.0913C74.8648 63.1344 72.4313 67.4643 69.6549 72.2968C69.5071 72.5697 69.3871 73.0518 68.7093 72.5435L68.404 72.3252C68.0515 72.0636 68.1402 71.8999 68.2584 71.6816L68.8952 71.7441L68.9015 71.7651Z" fill="url(#paint21_radial_121_1152)"/>
<path style="mix-blend-mode:screen" fill-rule="evenodd" clip-rule="evenodd" d="M72.5366 53.6494C73.2496 54.3533 75.3011 56.5941 76.4412 58.0412C77.0479 58.811 77.0894 59.4513 76.4844 60.5356C75.3717 62.4921 73.1451 66.4399 72.4753 67.3832C72.9518 66.4057 75.1346 62.3107 76.1296 60.3434C76.5901 59.428 76.6112 58.9981 76.1631 58.2612C75.2807 56.7948 73.182 54.5108 72.5366 53.6494Z" fill="url(#paint22_radial_121_1152)"/>
<path style="mix-blend-mode:screen" fill-rule="evenodd" clip-rule="evenodd" d="M52.5391 42.7996C51.56 42.5869 48.5624 42.0928 46.7275 41.9285C45.7512 41.841 45.1923 42.156 44.6146 43.2551C43.5838 45.2559 41.0496 50.3255 38.4808 55.394C41.5147 49.6949 43.8727 45.3418 44.9558 43.4399C45.4709 42.554 45.8195 42.3015 46.6815 42.2742C48.3918 42.2122 51.4514 42.7222 52.5254 42.7922L52.5391 42.7996Z" fill="url(#paint23_radial_121_1152)"/>
<path fill-rule="evenodd" clip-rule="evenodd" d="M85.7052 31.9772C82.8532 37.6336 77.5909 39.4958 72.3565 39.8728C70.8452 40.6427 69.3549 41.4063 67.934 42.1722C72.3252 43.58 78.0112 45.5302 83.162 45.7963C86.2466 45.9669 89.9214 45.0804 92.6808 42.8862C95.7961 40.4259 97.6536 36.0841 95.1114 33.7717C94.9016 33.6051 94.6918 33.4385 94.482 33.2719C94.3592 33.2053 94.2574 33.1326 94.142 33.0524C91.0449 31.1454 88.2338 31.3171 85.7263 31.971L85.7052 31.9772Z" fill="url(#paint24_linear_121_1152)"/>
<path fill-rule="evenodd" clip-rule="evenodd" d="M65.9725 39.7328L67.9574 42.0964C72.4356 39.7919 76.919 37.5431 81.4944 35.4501C86.2034 33.3059 90.7197 30.8984 94.9188 33.0846C91.746 30.7307 89.5592 28.3813 87.3826 25.7197C85.5131 23.4363 83.0113 23.4931 79.8124 26.1729C74.8788 30.2958 70.3148 35.0072 65.9588 39.7254L65.9725 39.7328Z" fill="url(#paint25_linear_121_1152)"/>
<path d="M67.7573 41.8467C71.9978 39.5899 76.3253 37.4332 80.7166 35.4522C84.7763 33.627 92.0787 29.2692 95.8194 33.9959C97.7737 36.4488 96.0685 39.9553 94.2462 41.9511C92.6758 43.6773 90.6095 44.8526 88.3932 45.523C82.2416 47.3977 74.6412 44.7458 68.7734 42.8383L67.0005 42.2663L67.7709 41.854L67.7573 41.8467ZM68.049 42.0576C74.4701 43.8236 83.8541 47.3533 90.2308 43.6944C93.8402 41.6253 96.9567 37.8595 94.9222 34.6748C92.5045 30.8943 84.8769 34.5816 81.2328 36.226C77.1236 38.0774 72.3793 40.4496 68.0416 42.0712L68.049 42.0576Z" fill="url(#paint26_radial_121_1152)"/>
<path fill-rule="evenodd" clip-rule="evenodd" d="M68.666 39.5511C68.7041 40.2953 69.2044 40.7076 69.1265 41.1772C69.018 41.7361 68.1492 42.8187 67.286 42.8807C68.0411 43.1485 69.9669 43.9269 70.7522 43.4874C71.389 43.1263 72.2913 41.6559 71.7597 40.7149C71.4384 40.135 71.0205 40.3852 70.3126 40.1606C69.694 39.9667 69.0418 39.737 68.6722 39.5721L68.666 39.5511Z" fill="url(#paint27_linear_121_1152)"/>
<path fill-rule="evenodd" clip-rule="evenodd" d="M53.504 34.3382C52.1821 43.9473 61.1965 42.229 68.1367 42.3523L66.021 39.7414C61.8851 38.8072 56.8388 36.621 53.4904 34.3308L53.504 34.3382Z" fill="url(#paint28_linear_121_1152)"/>
<path fill-rule="evenodd" clip-rule="evenodd" d="M56.93 18.3679C58.7734 18.9075 59.3658 19.4755 60.9272 21.4155C62.4351 23.2913 63.7133 24.972 65.4362 26.6465C67.2261 28.3926 68.0426 28.9055 68.4366 30.6545C68.6851 31.7598 68.6937 32.9823 68.6402 34.1888C68.5487 36.7691 68.5408 39.1299 68.8381 41.709C68.6283 41.966 68.4248 42.2441 68.215 42.5011C66.9328 41.1535 65.9992 39.9771 65.1758 38.4015C63.3461 34.9042 62.861 30.8467 62.0064 27.0479C61.4242 24.4734 60.5923 22.0989 58.5516 19.7404C58.0296 19.14 57.4821 18.6846 56.9226 18.3815L56.93 18.3679Z" fill="url(#paint29_linear_121_1152)"/>
<path fill-rule="evenodd" clip-rule="evenodd" d="M67.6934 28.5398C65.5253 27.5243 64.0805 27.7478 61.3064 28.6985C58.8057 29.5679 56.2738 31.1793 54.7295 33.3786C53.4036 35.2726 52.9408 37.5282 54.0877 40.0379C51.6057 36.7344 49.1949 33.593 46.0608 30.4834C45.5547 29.821 45.1897 29.0938 44.9782 28.3438C42.8658 20.9692 53.0794 15.5055 59.0695 18.9796C59.4243 19.1718 59.7433 19.3975 59.9696 19.6966C62.2985 22.7937 64.4717 25.5593 67.686 28.5534L67.6934 28.5398Z" fill="url(#paint30_linear_121_1152)"/>
<path fill-rule="evenodd" clip-rule="evenodd" d="M66.6376 28.7616C67.8965 29.3376 68.2291 30.8415 68.2866 31.8434C68.394 33.4371 68.2513 35.0366 68.2337 36.6332C68.2161 38.2298 68.4322 40.1118 68.6301 41.7016L68.2707 42.0718C66.6508 42.1298 64.8154 42.1946 63.1892 42.2316C61.3896 42.2629 59.312 42.0906 57.5778 41.6101C55.768 41.1064 54.1293 39.8305 53.8916 37.7602C53.5697 34.8678 56.2955 32.2142 58.5022 30.7796C59.8287 29.9273 61.4896 29.0443 63.0356 28.6991C64.1483 28.437 65.5761 28.3102 66.6501 28.8037L66.6376 28.7616ZM66.8781 27.9918C62.5818 26.0176 52.4337 31.8168 53.1109 37.6374C53.2087 38.467 53.5095 39.2477 54.0082 39.9237C54.7257 40.9125 55.8737 41.6932 57.4282 42.1469C60.5993 43.0703 64.9416 42.5807 68.2224 42.4868L69.061 41.688C68.6636 38.7722 68.9257 34.8018 68.891 31.8354C68.8756 30.3974 68.4833 29.2318 67.6599 28.5035C67.4302 28.3085 67.1721 28.1333 66.8918 27.9991L66.8781 27.9918Z" fill="url(#paint31_radial_121_1152)"/>
<path style="mix-blend-mode:screen" fill-rule="evenodd" clip-rule="evenodd" d="M65.8466 27.6805C60.6292 27.5372 55.5563 31.0375 53.303 35.5885C54.5749 31.3179 60.5911 26.793 65.8466 27.6805Z" fill="url(#paint32_radial_121_1152)"/>
<path style="mix-blend-mode:screen" fill-rule="evenodd" clip-rule="evenodd" d="M72.9777 39.1504C77.8573 36.4632 87.5796 30.7334 91.902 31.9098C86.0939 32.2055 78.439 36.7253 72.9777 39.1504Z" fill="url(#paint33_radial_121_1152)"/>
<path style="mix-blend-mode:screen" opacity="0.75" d="M77.5761 44.6066C82.8714 45.551 88.9571 45.688 93.2215 41.4321C91.891 43.0412 87.717 47.2931 77.5761 44.6066Z" fill="url(#paint34_radial_121_1152)"/>
<path fill-rule="evenodd" clip-rule="evenodd" d="M69.4287 41.075C69.5083 40.7651 69.3093 40.4808 68.922 40.2182C68.9363 40.42 68.9505 40.6219 68.9647 40.8237C69.0977 41.0017 68.0021 42.4379 67.7991 42.4868C67.757 42.4993 67.7223 42.4982 67.6814 42.476C67.3408 42.4857 66.9792 42.5016 66.6176 42.5176C66.6585 42.5397 66.6721 42.5471 66.6858 42.5545C67.0133 42.7319 67.5307 43.0475 67.9378 42.915C68.2113 42.8337 68.4979 42.5653 68.7447 42.2401C69.0284 41.8466 69.365 41.3229 69.4298 41.0403L69.4287 41.075Z" fill="url(#paint35_radial_121_1152)"/>
<g style="mix-blend-mode:overlay">
<path fill-rule="evenodd" clip-rule="evenodd" d="M86.6843 25.8363C87.5594 26.4692 88.4185 27.164 89.2356 27.8713C88.6056 27.177 87.9904 26.4555 87.3899 25.7067C85.5204 23.4232 83.0186 23.4801 79.8197 26.1599C77.9206 27.7434 76.0739 29.4259 74.2743 31.1516C76.2661 29.4947 79.0129 27.2584 81.1121 25.9245C82.9777 24.7287 84.8597 24.5127 86.7054 25.8301L86.6843 25.8363Z" fill="url(#paint36_radial_121_1152)"/>
</g>
<g style="mix-blend-mode:overlay">
<path fill-rule="evenodd" clip-rule="evenodd" d="M63.7513 24.4454C62.4202 22.8948 61.2142 21.3415 59.977 19.6829C59.7507 19.3838 59.4243 19.1717 59.0769 18.9659C53.6042 15.8074 44.6171 20.0821 44.7001 26.4458C45.4779 21.7839 49.843 18.4827 54.879 18.863C57.1994 19.0432 59.3976 20.1986 61.5673 22.2211C62.3088 22.9051 63.0468 23.6931 63.7724 24.4391L63.7513 24.4454Z" fill="url(#paint37_radial_121_1152)"/>
</g>
<path fill-rule="evenodd" clip-rule="evenodd" d="M68.1313 42.297C68.2382 42.4255 68.3587 42.5614 68.4656 42.6899C77.8275 41.6009 84.957 43.3624 92.3744 52.022C93.0038 51.251 93.9573 49.9142 94.6038 48.6229C96.1589 48.8475 97.9517 49.0243 99.5505 48.9726C97.6634 46.5913 94.8676 43.965 90.7083 42.2593C84.1581 39.5585 74.3619 39.9179 68.1177 42.2896L68.1313 42.297Z" fill="url(#paint38_linear_121_1152)"/>
<path fill-rule="evenodd" clip-rule="evenodd" d="M68.7208 43.1637C76.6208 41.9713 84.5697 43.9471 91.5435 52.5782C91.755 52.481 92.2025 52.1762 92.3879 52.0296C84.9569 43.3626 77.841 41.6085 68.4791 42.6974C68.3722 42.5689 68.2517 42.4331 68.1448 42.3046C68.2517 42.4331 68.6139 43.0352 68.7344 43.1711L68.7208 43.1637Z" fill="url(#paint39_radial_121_1152)"/>
<path fill-rule="evenodd" clip-rule="evenodd" d="M94.61 48.6441C94.5065 48.8351 94.3956 49.0398 94.2922 49.2309C95.8114 49.489 97.5786 49.8108 99.1206 49.7989L99.5567 48.9937C97.9579 49.0455 96.1651 48.8687 94.61 48.6441Z" fill="url(#paint40_radial_121_1152)"/>
<path fill-rule="evenodd" clip-rule="evenodd" d="M71.1227 44.0406C67.8248 42.1131 65.3577 40.4767 62.7945 38.5941C62.4283 38.3252 62.0576 38.195 61.6152 38.1319C58.6318 37.8397 54.7814 41.755 53.1933 43.8071C53.1177 44.2073 53.0961 44.4427 53.0637 44.7958C55.9436 45.2791 58.575 45.9279 61.2434 46.932C63.1545 49.0085 64.6601 51.3772 66.1868 53.7397C66.3921 53.6214 66.6934 53.3257 66.9442 53.0909C68.5857 51.1031 70.8117 47.8081 71.5287 45.6372C71.8221 44.7371 71.784 44.4165 71.1363 44.048L71.1227 44.0406Z" fill="url(#paint41_radial_121_1152)"/>
<path fill-rule="evenodd" clip-rule="evenodd" d="M71.9339 43.2271C68.5132 41.2331 65.9716 39.5387 63.3066 37.5834C62.9268 37.307 62.5424 37.1694 62.079 37.1126C58.4105 36.7493 54.2132 42.3476 53.1795 43.7998C56.1561 44.3002 59.0564 45.0063 61.8141 46.0412C63.7923 48.1893 65.3576 50.6433 66.9304 53.0837C68.6128 51.118 71.4967 47.4557 72.3313 44.8721C72.6395 43.9447 72.5952 43.603 71.9339 43.2271Z" fill="url(#paint42_linear_121_1152)"/>
<defs>
<linearGradient id="paint0_linear_121_1152" x1="14.8147" y1="98.2004" x2="54.451" y2="147.734" gradientUnits="userSpaceOnUse">
<stop stop-color="#FEEDB1"/>
<stop offset="1" stop-color="#E7A92D"/>
</linearGradient>
<radialGradient id="paint1_radial_121_1152" cx="0" cy="0" r="1" gradientUnits="userSpaceOnUse" gradientTransform="translate(54.3403 130.964) scale(68.5962 68.5962)">
<stop stop-color="#FFB300"/>
<stop offset="1" stop-color="#A84D20"/>
</radialGradient>
<radialGradient id="paint2_radial_121_1152" cx="0" cy="0" r="1" gradientUnits="userSpaceOnUse" gradientTransform="translate(84.5568 108.151) scale(67.2305 67.2305)">
<stop stop-color="#FFCC14"/>
<stop offset="1" stop-color="#EB9900"/>
</radialGradient>
<linearGradient id="paint3_linear_121_1152" x1="14.1622" y1="78.6309" x2="80.0334" y2="123.843" gradientUnits="userSpaceOnUse">
<stop stop-color="#FEEDB1"/>
<stop offset="1" stop-color="#E7A92D"/>
</linearGradient>
<linearGradient id="paint4_linear_121_1152" x1="14.1622" y1="78.6309" x2="80.0334" y2="123.843" gradientUnits="userSpaceOnUse">
<stop stop-color="#FEEDB1"/>
<stop offset="1" stop-color="#E7A92D"/>
</linearGradient>
<linearGradient id="paint5_linear_121_1152" x1="14.8147" y1="117.655" x2="90.269" y2="162.018" gradientUnits="userSpaceOnUse">
<stop stop-color="#FEEDB1"/>
<stop offset="1" stop-color="#E7A92D"/>
</linearGradient>
<linearGradient id="paint6_linear_121_1152" x1="7.66935" y1="117.655" x2="54.4147" y2="131.402" gradientUnits="userSpaceOnUse">
<stop stop-color="#FEEDB1"/>
<stop offset="1" stop-color="#E7A92D"/>
</linearGradient>
<linearGradient id="paint7_linear_121_1152" x1="48.4858" y1="117.655" x2="95.2312" y2="131.402" gradientUnits="userSpaceOnUse">
<stop stop-color="#FEEDB1"/>
<stop offset="1" stop-color="#E7A92D"/>
</linearGradient>
<linearGradient id="paint8_linear_121_1152" x1="33.2247" y1="29.4054" x2="54.8235" y2="68.0656" gradientUnits="userSpaceOnUse">
<stop stop-color="#FEEDB1"/>
<stop offset="1" stop-color="#E7A92D"/>
</linearGradient>
<linearGradient id="paint9_linear_121_1152" x1="27.9685" y1="39.9156" x2="36.1202" y2="73.6562" gradientUnits="userSpaceOnUse">
<stop stop-color="#FEEDB1"/>
<stop offset="1" stop-color="#E7A92D"/>
</linearGradient>
<linearGradient id="paint10_linear_121_1152" x1="46.6024" y1="20.4285" x2="57.1353" y2="83.6817" gradientUnits="userSpaceOnUse">
<stop stop-color="#FEEDB1"/>
<stop offset="1" stop-color="#E7A92D"/>
</linearGradient>
<linearGradient id="paint11_linear_121_1152" x1="45.5173" y1="22.192" x2="73.148" y2="96.1971" gradientUnits="userSpaceOnUse">
<stop stop-color="#FEEDB1"/>
<stop offset="1" stop-color="#E7A92D"/>
</linearGradient>
<linearGradient id="paint12_linear_121_1152" x1="49.9904" y1="48.1473" x2="62.3307" y2="73.3599" gradientUnits="userSpaceOnUse">
<stop stop-color="#FEEDB1"/>
<stop offset="1" stop-color="#E7A92D"/>
</linearGradient>
<linearGradient id="paint13_linear_121_1152" x1="34.1611" y1="20.5333" x2="48.0813" y2="41.3235" gradientUnits="userSpaceOnUse">
<stop stop-color="#FEEDB1"/>
<stop offset="1" stop-color="#E7A92D"/>
</linearGradient>
<linearGradient id="paint14_linear_121_1152" x1="45.4827" y1="25.4578" x2="68.5721" y2="37.9644" gradientUnits="userSpaceOnUse">
<stop stop-color="#FFBD00"/>
<stop offset="1" stop-color="#D67200"/>
</linearGradient>
<radialGradient id="paint15_radial_121_1152" cx="0" cy="0" r="1" gradientUnits="userSpaceOnUse" gradientTransform="translate(49.5673 26.6815) rotate(28.4425) scale(15.8609 15.8609)">
<stop stop-color="#FFC382"/>
<stop offset="1" stop-color="#9E2410"/>
</radialGradient>
<linearGradient id="paint16_linear_121_1152" x1="67.8425" y1="37.5512" x2="90.9319" y2="50.0578" gradientUnits="userSpaceOnUse">
<stop stop-color="#A63A00"/>
<stop offset="1" stop-color="#FFBD00"/>
</linearGradient>
<radialGradient id="paint17_radial_121_1152" cx="0" cy="0" r="1" gradientUnits="userSpaceOnUse" gradientTransform="translate(87.7529 41.3285) rotate(28.4425) scale(18.2665 18.2665)">
<stop stop-color="#E8814D"/>
<stop offset="1" stop-color="#9E3726"/>
</radialGradient>
<linearGradient id="paint18_linear_121_1152" x1="34.9371" y1="52.0625" x2="58.5255" y2="33.246" gradientUnits="userSpaceOnUse">
<stop stop-color="#D97130"/>
<stop offset="0.01" stop-color="#DE7927"/>
<stop offset="0.02" stop-color="#EA8E11"/>
<stop offset="0.04" stop-color="#F29B04"/>
<stop offset="0.05" stop-color="#F5A000"/>
<stop offset="0.36" stop-color="#F5AF00"/>
<stop offset="0.46" stop-color="#FFDD57"/>
<stop offset="0.58" stop-color="#FFB54D"/>
<stop offset="1" stop-color="#E08A00"/>
</linearGradient>
<radialGradient id="paint19_radial_121_1152" cx="0" cy="0" r="1" gradientUnits="userSpaceOnUse" gradientTransform="translate(45.8413 43.1078) rotate(28.4425) scale(15.3333 15.3333)">
<stop stop-color="#E8814D"/>
<stop offset="1" stop-color="#9E3726"/>
</radialGradient>
<linearGradient id="paint20_linear_121_1152" x1="77.3789" y1="43.6345" x2="74.0182" y2="73.4958" gradientUnits="userSpaceOnUse">
<stop stop-color="#B05B00"/>
<stop offset="0.42" stop-color="#F5A000"/>
<stop offset="0.54" stop-color="#FFCC14"/>
<stop offset="0.64" stop-color="#F5A000"/>
<stop offset="0.95" stop-color="#BD6500"/>
<stop offset="0.97" stop-color="#B86200"/>
<stop offset="0.98" stop-color="#AB5900"/>
<stop offset="0.99" stop-color="#A15300"/>
</linearGradient>
<radialGradient id="paint21_radial_121_1152" cx="0" cy="0" r="1" gradientUnits="userSpaceOnUse" gradientTransform="translate(77.0863 59.5546) rotate(28.4425) scale(18.9183 18.9183)">
<stop stop-color="#FFDD57"/>
<stop offset="1" stop-color="#9E3726"/>
</radialGradient>
<radialGradient id="paint22_radial_121_1152" cx="0" cy="0" r="1" gradientUnits="userSpaceOnUse" gradientTransform="translate(78.2123 59.7242) rotate(28.4425) scale(10.5688 10.5688)">
<stop stop-color="#FFF2BB"/>
<stop offset="1"/>
</radialGradient>
<radialGradient id="paint23_radial_121_1152" cx="0" cy="0" r="1" gradientUnits="userSpaceOnUse" gradientTransform="translate(43.5753 41.4919) rotate(28.4425) scale(16.5593 16.5593)">
<stop stop-color="#FFF2BB"/>
<stop offset="1"/>
</radialGradient>
<linearGradient id="paint24_linear_121_1152" x1="74.2238" y1="48.5796" x2="92.2281" y2="30.8508" gradientUnits="userSpaceOnUse">
<stop stop-color="#8F3508"/>
<stop offset="0.21" stop-color="#BD500B"/>
<stop offset="0.7" stop-color="#F7A100"/>
<stop offset="1" stop-color="#964324"/>
</linearGradient>
<linearGradient id="paint25_linear_121_1152" x1="69.8691" y1="44.3673" x2="90.0863" y2="27.343" gradientUnits="userSpaceOnUse">
<stop offset="0.3" stop-color="#C25D0A"/>
<stop offset="0.86" stop-color="#FFF14F"/>
<stop offset="0.94" stop-color="#F5B90A"/>
<stop offset="1" stop-color="#E68A00"/>
</linearGradient>
<radialGradient id="paint26_radial_121_1152" cx="0" cy="0" r="1" gradientUnits="userSpaceOnUse" gradientTransform="translate(84.4453 30.1648) rotate(28.4425) scale(31.1477 31.1477)">
<stop stop-color="#F59F41"/>
<stop offset="1" stop-color="#A64416"/>
</radialGradient>
<linearGradient id="paint27_linear_121_1152" x1="69.2403" y1="44.0628" x2="70.0334" y2="39.9917" gradientUnits="userSpaceOnUse">
<stop stop-color="#8F3508"/>
<stop offset="0.21" stop-color="#BD500B"/>
<stop offset="0.7" stop-color="#F7A100"/>
<stop offset="1" stop-color="#964324"/>
</linearGradient>
<linearGradient id="paint28_linear_121_1152" x1="56.0656" y1="41.9914" x2="63.4743" y2="36.2969" gradientUnits="userSpaceOnUse">
<stop offset="0.05" stop-color="#B7402C"/>
<stop offset="1" stop-color="#E68A00"/>
</linearGradient>
<linearGradient id="paint29_linear_121_1152" x1="59.064" y1="34.4027" x2="66.5142" y2="25.9596" gradientUnits="userSpaceOnUse">
<stop stop-color="#D46C2C"/>
<stop offset="1" stop-color="#964324"/>
</linearGradient>
<linearGradient id="paint30_linear_121_1152" x1="47.9588" y1="32.7469" x2="61.5707" y2="21.2698" gradientUnits="userSpaceOnUse">
<stop stop-color="#F28B1D"/>
<stop offset="0.41" stop-color="#FFDC2B"/>
<stop offset="0.55" stop-color="#FFF79D"/>
<stop offset="0.78" stop-color="#F5B90A"/>
<stop offset="1" stop-color="#E68A00"/>
</linearGradient>
<radialGradient id="paint31_radial_121_1152" cx="0" cy="0" r="1" gradientUnits="userSpaceOnUse" gradientTransform="translate(62.7575 26.8012) rotate(28.4425) scale(27.2833 27.2833)">
<stop stop-color="#F59F41"/>
<stop offset="1" stop-color="#A64416"/>
</radialGradient>
<radialGradient id="paint32_radial_121_1152" cx="0" cy="0" r="1" gradientUnits="userSpaceOnUse" gradientTransform="translate(58.6863 27.2791) rotate(28.4425) scale(14.309 14.309)">
<stop stop-color="#FFF2BB"/>
<stop offset="1"/>
</radialGradient>
<radialGradient id="paint33_radial_121_1152" cx="0" cy="0" r="1" gradientUnits="userSpaceOnUse" gradientTransform="translate(85.9972 31.7648) rotate(28.4425) scale(15.8299)">
<stop stop-color="#FFF2BB"/>
<stop offset="1"/>
</radialGradient>
<radialGradient id="paint34_radial_121_1152" cx="0" cy="0" r="1" gradientUnits="userSpaceOnUse" gradientTransform="translate(88.5602 46.3555) rotate(28.4425) scale(9.57554 9.57554)">
<stop stop-color="#9691FF"/>
<stop offset="0.03" stop-color="#908BF5"/>
<stop offset="0.31" stop-color="#5D5A9F"/>
<stop offset="0.55" stop-color="#35335B"/>
<stop offset="0.76" stop-color="#181729"/>
<stop offset="0.91" stop-color="#06060B"/>
<stop offset="1"/>
</radialGradient>
<radialGradient id="paint35_radial_121_1152" cx="0" cy="0" r="1" gradientUnits="userSpaceOnUse" gradientTransform="translate(70.3765 41.6061) rotate(28.4425) scale(3.04182 3.04182)">
<stop stop-color="#FFC382"/>
<stop offset="1" stop-color="#9E3726"/>
</radialGradient>
<radialGradient id="paint36_radial_121_1152" cx="0" cy="0" r="1" gradientUnits="userSpaceOnUse" gradientTransform="translate(84.1315 42.28) rotate(28.4425) scale(18.2199 18.2199)">
<stop offset="0.67" stop-color="#6689BA"/>
<stop offset="0.72" stop-color="#5F90BE"/>
<stop offset="0.79" stop-color="#4EA4C9"/>
<stop offset="0.88" stop-color="#32C4DC"/>
<stop offset="0.97" stop-color="#0BF1F7"/>
<stop offset="1" stop-color="#00FFFF"/>
</radialGradient>
<radialGradient id="paint37_radial_121_1152" cx="0" cy="0" r="1" gradientUnits="userSpaceOnUse" gradientTransform="translate(56.2056 36.6491) rotate(28.4425) scale(19.0269 19.0269)">
<stop offset="0.67" stop-color="#6689BA"/>
<stop offset="0.72" stop-color="#5F90BE"/>
<stop offset="0.79" stop-color="#4EA4C9"/>
<stop offset="0.88" stop-color="#32C4DC"/>
<stop offset="0.97" stop-color="#0BF1F7"/>
<stop offset="1" stop-color="#00FFFF"/>
</radialGradient>
<linearGradient id="paint38_linear_121_1152" x1="81.0241" y1="37.7197" x2="86.8164" y2="54.0064" gradientUnits="userSpaceOnUse">
<stop stop-color="#F28B1D"/>
<stop offset="0.41" stop-color="#FFDC2B"/>
<stop offset="0.55" stop-color="#FFF79D"/>
<stop offset="0.78" stop-color="#F5B90A"/>
<stop offset="1" stop-color="#E68A00"/>
</linearGradient>
<radialGradient id="paint39_radial_121_1152" cx="0" cy="0" r="1" gradientUnits="userSpaceOnUse" gradientTransform="translate(90.0259 52.4799) rotate(28.4425) scale(22.7982)">
<stop stop-color="#F59F41"/>
<stop offset="1" stop-color="#A64416"/>
</radialGradient>
<radialGradient id="paint40_radial_121_1152" cx="0" cy="0" r="1" gradientUnits="userSpaceOnUse" gradientTransform="translate(97.3791 56.1097) rotate(28.4425) scale(12.2604 12.2604)">
<stop stop-color="#F59F41"/>
<stop offset="1" stop-color="#A64416"/>
</radialGradient>
<radialGradient id="paint41_radial_121_1152" cx="0" cy="0" r="1" gradientUnits="userSpaceOnUse" gradientTransform="translate(66.2619 53.9921) rotate(28.4425) scale(17.4905 17.4905)">
<stop stop-color="#F59F41"/>
<stop offset="1" stop-color="#A64416"/>
</radialGradient>
<linearGradient id="paint42_linear_121_1152" x1="66.6551" y1="39.45" x2="60.0492" y2="48.6152" gradientUnits="userSpaceOnUse">
<stop stop-color="#F28B1D"/>
<stop offset="0.26" stop-color="#FFDC2B"/>
<stop offset="0.39" stop-color="#FFF79D"/>
<stop offset="0.8" stop-color="#F5B90A"/>
<stop offset="1" stop-color="#E68A00"/>
</linearGradient>
</defs>
</svg>
