<svg width="80" height="80" viewBox="0 0 80 80" fill="none" xmlns="http://www.w3.org/2000/svg">
<path d="M34.25 3.89711C37.8081 1.84284 42.1919 1.84284 45.75 3.89711L68.391 16.9689C71.9491 19.0232 74.141 22.8196 74.141 26.9282V53.0718C74.141 57.1804 71.9491 60.9768 68.391 63.0311L45.75 76.1029C42.1919 78.1572 37.8081 78.1572 34.25 76.1029L11.609 63.0311C8.05087 60.9768 5.85898 57.1803 5.85898 53.0718V26.9282C5.85898 22.8196 8.05087 19.0232 11.609 16.9689L34.25 3.89711Z" fill="url(#paint0_linear_194_3023)" stroke="white"/>
<path d="M29.5 40H28V52C28 52.7956 28.3161 53.5587 28.8787 54.1213C29.4413 54.6839 30.2044 55 31 55H38.5V40H29.5ZM49 40H41.5V55H49C49.7956 55 50.5587 54.6839 51.1213 54.1213C51.6839 53.5587 52 52.7956 52 52V40H49ZM50.1865 32.5C50.4065 31.7707 50.5123 31.0117 50.5 30.25C50.5 27.355 48.145 25 45.25 25C42.817 25 41.1925 27.223 40.144 29.6275C39.1105 27.355 37.4035 25 34.75 25C31.855 25 29.5 27.355 29.5 30.25C29.5 31.144 29.6185 31.8835 29.8135 32.5H25V38.5H38.5V35.5H41.5V38.5H55V32.5H50.1865ZM32.5 30.25C32.5 29.0095 33.5095 28 34.75 28C36.082 28 37.321 30.2875 38.047 32.5H34C33.439 32.5 32.5 32.5 32.5 30.25ZM45.25 28C46.4905 28 47.5 29.0095 47.5 30.25C47.5 32.5 46.561 32.5 46 32.5H42.2845C43.0495 30.136 44.161 28 45.25 28Z" fill="white"/>
<defs>
<linearGradient id="paint0_linear_194_3023" x1="14.0156" y1="11.1246" x2="95.4526" y2="49.5261" gradientUnits="userSpaceOnUse">
<stop stop-color="#FEEDB1"/>
<stop offset="1" stop-color="#E7A92D"/>
</linearGradient>
</defs>
</svg>
