<svg width="24" height="20" viewBox="-5 0 24 20" fill="none" xmlns="http://www.w3.org/2000/svg">
<path d="M6.99995 0.5L0.944824 5.56776V14.4377L6.99995 19.5L13.0551 14.4377V5.56776L6.99995 0.5Z" fill="#F2AB00"/>
<path d="M6.99995 9.37005L4.18513 7.07892L0.944824 5.56787V14.4378L4.18513 12.9213L6.99995 9.37005Z" fill="#F2AB00"/>
<path d="M6.99995 9.36994V0.5L0.944824 5.56776L4.18513 7.07881L6.99995 9.36994Z" fill="#FFC237"/>
<path d="M9.81481 7.07881L13.0551 5.56776L7 0.5V9.36994L9.81481 7.07881Z" fill="#EEBE14"/>
<path d="M9.81481 7.07892L7 9.37005L9.81481 12.9213L13.0551 14.4378V5.56787L9.81481 7.07892Z" fill="#FFDC81"/>
<g style="mix-blend-mode:overlay" opacity="0.4">
<path d="M9.81481 7.07892L7 9.37005L9.81481 12.9213L13.0551 14.4378V5.56787L9.81481 7.07892Z" fill="white"/>
</g>
<path d="M7 9.36987V19.4999L13.0551 14.4376L9.81481 12.9211L7 9.36987Z" fill="#FFC237"/>
<path d="M4.18513 12.9211L0.944824 14.4376L6.99995 19.4999V9.36987L4.18513 12.9211Z" fill="#C48714"/>
<path d="M4.18506 12.9211V7.07875L6.99987 4.72217L9.81469 7.07875V12.9211L6.99987 15.2777L4.18506 12.9211Z" fill="#FFDC81"/>
</svg>
