<svg width="30" height="25" viewBox="0 0 30 25" fill="none" xmlns="http://www.w3.org/2000/svg">
<g id="Group 1">
<g id="Vector" filter="url(#filter0_i_355_4897)">
<path d="M14.75 24.3451L10.6264 21.6844C10.4069 21.5472 8.44108 20.258 6.39296 18.5848C3.46707 16.1709 0.102295 12.8153 0.102295 8.26185C0.102295 4.06503 3.51279 0.654541 7.70047 0.654541C10.8915 0.654541 13.6163 2.61123 14.75 5.38168C15.8838 2.61123 18.6085 0.654541 21.7905 0.654541C25.9873 0.654541 29.3978 4.06503 29.3978 8.26185C29.3978 12.8244 26.0421 16.18 23.1071 18.5848C21.0681 20.258 19.1023 21.5472 18.8737 21.6844L14.75 24.3451Z" fill="#F72A2A"/>
</g>
<g id="Vector_2" style="mix-blend-mode:overlay" opacity="0.6">
<path d="M4.22938 14.1452C3.84162 14.1452 3.46162 13.9513 3.24448 13.5945C2.43019 12.2917 2.00366 10.7872 2.00366 9.24392C2.00366 7.50678 2.53876 5.84718 3.54693 4.44351C3.91917 3.92392 4.64815 3.80759 5.16774 4.17984C5.68734 4.55208 5.80366 5.28106 5.43142 5.80065C4.71019 6.80882 4.32244 7.99535 4.32244 9.23617C4.32244 10.3451 4.63264 11.4231 5.21427 12.3537C5.5555 12.8966 5.38489 13.6178 4.84203 13.959C4.64815 14.0754 4.43876 14.1374 4.22938 14.1374V14.1452ZM8.19999 16.1072C8.47917 15.5256 8.23876 14.8354 7.65713 14.5562C7.46325 14.4631 7.27713 14.3623 7.09876 14.246C6.55591 13.9125 5.83468 14.0754 5.49346 14.6182C5.15223 15.1611 5.32285 15.8823 5.8657 16.2235C6.11387 16.3786 6.37754 16.526 6.64121 16.65C6.80407 16.7276 6.97468 16.7664 7.1453 16.7664C7.57958 16.7664 7.9906 16.526 8.19223 16.1072H8.19999Z" fill="white"/>
</g>
</g>
<defs>
<filter id="filter0_i_355_4897" x="0.102295" y="0.654541" width="29.2954" height="29.6907" filterUnits="userSpaceOnUse" color-interpolation-filters="sRGB">
<feFlood flood-opacity="0" result="BackgroundImageFix"/>
<feBlend mode="normal" in="SourceGraphic" in2="BackgroundImageFix" result="shape"/>
<feColorMatrix in="SourceAlpha" type="matrix" values="0 0 0 0 0 0 0 0 0 0 0 0 0 0 0 0 0 0 127 0" result="hardAlpha"/>
<feOffset dy="6"/>
<feGaussianBlur stdDeviation="3"/>
<feComposite in2="hardAlpha" operator="arithmetic" k2="-1" k3="1"/>
<feColorMatrix type="matrix" values="0 0 0 0 0 0 0 0 0 0 0 0 0 0 0 0 0 0 0.25 0"/>
<feBlend mode="normal" in2="shape" result="effect1_innerShadow_355_4897"/>
</filter>
</defs>
</svg>
