<svg width="28" height="30" viewBox="0 0 28 30" fill="none" xmlns="http://www.w3.org/2000/svg">
<rect x="1" y="1.96045" width="26" height="26" rx="13" fill="white"/>
<rect x="1" y="1.96045" width="26" height="26" rx="13" stroke="url(#paint0_linear_352_3960)"/>
<path d="M20.032 13.2824C21.575 10.6325 21.6475 4.67811 21.6124 2.3364V1.36332C16.5834 0.630197 11.46 0.630197 6.4311 1.36332C6.4311 1.36332 6.04206 9.94519 7.98505 13.2824C9.24448 15.4461 11.4018 17.0069 12.7645 17.8387C12.6282 17.8773 12.5271 17.9932 12.5271 18.1315V18.5698C12.5271 18.7396 12.6766 18.8768 12.8612 18.8768H13.1568V23L12.3293 24.3117H11.3974L9.69946 25.901V28.4898H8.86094V29.1049H19.1561V28.4898H18.3176V25.8755L16.556 24.3117H15.6878L14.8635 22.9949H14.8602V18.8768H15.0317C15.2163 18.8768 15.3658 18.7396 15.3658 18.5698V18.1315C15.3658 18.0197 15.3009 17.9231 15.2031 17.8692C16.5626 17.0456 18.7561 15.4715 20.0309 13.2824H20.032Z" fill="url(#paint1_linear_352_3960)"/>
<path d="M15.3289 5.66357V12.4136H14.1409V6.02357L14.7889 6.59957L11.9629 7.09457V6.14957L14.4379 5.66357H15.3289Z" fill="url(#paint2_linear_352_3960)"/>
<path d="M19.1562 29.229H8.861C8.78737 29.229 8.72693 29.1741 8.72693 29.1059V28.4918C8.72693 28.4237 8.78737 28.3687 8.861 28.3687H9.56544V25.903C9.56544 25.8704 9.57973 25.8399 9.60391 25.8166L11.3018 24.2273C11.3271 24.2039 11.3612 24.1907 11.3974 24.1907H12.2524L13.0228 22.9685V19.0019H12.8613C12.603 19.0019 12.3942 18.8087 12.3942 18.5708V18.1325C12.3942 18.0197 12.4415 17.9149 12.5217 17.8376C11.0227 16.9012 9.05992 15.3882 7.86863 13.3413C7.05319 11.9412 6.54106 9.49778 6.34764 6.07927C6.20368 3.54029 6.29819 1.38161 6.29929 1.36025C6.30149 1.30128 6.34874 1.25247 6.41248 1.24332C11.4634 0.506133 16.5857 0.506133 21.6366 1.24332C21.7014 1.25247 21.7498 1.30433 21.7498 1.36534V2.33842C21.7861 4.75843 21.7047 10.6793 20.1541 13.3423C18.887 15.5183 16.7011 17.0964 15.4208 17.8885C15.4746 17.9586 15.5043 18.0441 15.5043 18.1335V18.5718C15.5043 18.8097 15.2944 19.0029 15.0372 19.0029H14.9999V22.9593L15.7714 24.1917H16.5615C16.5967 24.1917 16.6297 24.2039 16.6538 24.2263L18.4155 25.7901C18.4419 25.8135 18.4562 25.845 18.4562 25.8786V28.3698H19.1606C19.2342 28.3698 19.2947 28.4247 19.2947 28.4928V29.1069C19.2947 29.1751 19.2353 29.23 19.1606 29.23L19.1562 29.229ZM8.99508 28.9829H19.0221V28.6148H18.3177C18.2441 28.6148 18.1836 28.5599 18.1836 28.4918V25.9294L16.5022 24.4367H15.6878C15.6406 24.4367 15.5955 24.4134 15.5724 24.3747L14.7581 23.0742C14.7383 23.0529 14.7262 23.0254 14.7262 22.9959V18.8778C14.7262 18.8097 14.7867 18.7548 14.8603 18.7548H15.0318C15.1416 18.7548 15.2318 18.6725 15.2318 18.5708V18.1325C15.2318 18.0685 15.1955 18.0095 15.134 17.9759C15.0944 17.9546 15.0702 17.9149 15.0691 17.8732C15.0691 17.8305 15.0911 17.7909 15.1296 17.7675C16.3637 17.0191 18.6276 15.4339 19.9134 13.2254C21.4344 10.6132 21.5146 4.74216 21.4772 2.33944V1.46905C16.5275 0.757285 11.5095 0.758302 6.55865 1.46905C6.52348 2.44214 6.31028 10.1475 8.10161 13.2234C9.31268 15.3027 11.3447 16.8249 12.836 17.735C12.8789 17.7614 12.9019 17.8082 12.8942 17.8549C12.8866 17.9017 12.8503 17.9414 12.8008 17.9546C12.7162 17.978 12.6591 18.0481 12.6591 18.1295V18.5677C12.6591 18.6694 12.7492 18.7518 12.8591 18.7518H13.1547C13.2283 18.7518 13.2888 18.8067 13.2888 18.8748V22.998C13.2888 23.0193 13.2822 23.0407 13.2712 23.06L12.4437 24.3717C12.4195 24.4093 12.3755 24.4327 12.3283 24.4327H11.4524L9.8325 25.9498V28.4887C9.8325 28.5569 9.77205 28.6118 9.69842 28.6118H8.99398V28.9798L8.99508 28.9829Z" fill="url(#paint3_linear_352_3960)"/>
<path d="M25.85 2.08441C24.2708 1.51906 22.675 2.11898 22.0574 3.51201C21.7695 4.16073 21.7695 4.86538 22.0574 5.44496C22.3212 5.97472 22.8135 6.37433 23.4454 6.56956C23.6367 6.62853 23.8433 6.53397 23.907 6.35806C23.9707 6.18215 23.8685 5.99201 23.6773 5.93202C23.2883 5.81203 22.9861 5.59342 22.7959 5.29651C22.7289 5.07078 22.7014 4.84911 22.7201 4.58678C22.7278 4.47798 22.7388 4.36918 22.7707 4.26547C22.9696 3.62081 23.6905 3.18256 24.3982 3.1968C25.3258 3.21612 25.85 3.89128 26.0742 4.65592C26.3204 5.49682 26.272 6.44042 25.9907 7.30471C25.4599 8.29101 24.5785 9.25088 23.2927 10.2535C23.1047 10.3999 22.9135 10.5432 22.7212 10.6836C22.5728 10.7913 22.4168 10.8961 22.2607 11.0018C21.6376 11.4208 20.9321 11.8956 20.5804 12.6765C20.3254 13.2439 20.3694 13.917 20.6991 14.4773C21.0464 15.067 21.664 15.4056 22.3168 15.4056C22.5146 15.4056 22.7157 15.3741 22.9135 15.31C23.7202 15.0477 24.4257 14.3359 24.1422 13.5347C24.0795 13.3578 23.8729 13.2612 23.6817 13.3191C23.4905 13.3761 23.385 13.5662 23.4476 13.7431C23.6103 14.2038 22.9937 14.5708 22.6696 14.6766C22.164 14.8413 21.6167 14.6278 21.3398 14.157C21.1134 13.7737 21.0815 13.3161 21.253 12.9338C21.5255 12.3277 22.0915 11.9475 22.6893 11.5448C22.8531 11.434 23.0168 11.3242 23.1718 11.2113C23.3707 11.0659 23.5685 10.9184 23.7619 10.7669C25.7423 9.22241 26.8358 7.74702 27.2028 6.12318C27.3765 5.35243 27.7941 2.78092 25.8467 2.08441H25.85Z" fill="url(#paint4_linear_352_3960)"/>
<path d="M22.3179 15.5291C21.597 15.5291 20.9486 15.158 20.5826 14.5367C20.2331 13.9439 20.187 13.2311 20.4573 12.6292C20.8233 11.8168 21.5442 11.3307 22.1816 10.9026C22.3388 10.7969 22.4915 10.6942 22.6377 10.5874C22.8476 10.4339 23.0333 10.2936 23.2059 10.1594C24.4752 9.17001 25.3456 8.22031 25.8654 7.25942C26.1467 6.38802 26.1742 5.47492 25.9445 4.68791C25.7972 4.18561 25.4016 3.34064 24.3949 3.31929C23.7191 3.302 23.0751 3.72601 22.8992 4.29847C22.8718 4.38693 22.8608 4.48048 22.8531 4.59436C22.8366 4.82925 22.8575 5.03159 22.9201 5.24716C23.0949 5.51051 23.3707 5.70675 23.7202 5.81454C23.9806 5.89486 24.1224 6.15618 24.0345 6.39615C23.9916 6.51207 23.9037 6.60663 23.7839 6.66154C23.6652 6.71645 23.529 6.7256 23.4026 6.68594C22.7355 6.47953 22.2146 6.05755 21.9354 5.49627C21.6321 4.88619 21.631 4.14595 21.9332 3.46571C22.5794 2.0076 24.2477 1.3782 25.8983 1.96896C27.9435 2.70106 27.516 5.3529 27.3369 6.14703C26.9633 7.79935 25.8555 9.29711 23.851 10.8599C23.663 11.0064 23.4696 11.1528 23.2575 11.3063C23.1036 11.4182 22.9454 11.5249 22.7707 11.6429C22.1882 12.0354 21.6376 12.4055 21.3794 12.98C21.2222 13.3277 21.253 13.7456 21.4596 14.0975C21.7047 14.5133 22.1849 14.7035 22.6278 14.5601C22.9003 14.4716 23.4542 14.1514 23.3234 13.7802C23.2817 13.6633 23.2927 13.5392 23.3531 13.4294C23.4136 13.3196 23.5169 13.2383 23.6432 13.2006C23.7685 13.162 23.9037 13.1722 24.0224 13.2271C24.1422 13.283 24.2301 13.3776 24.2719 13.4945C24.5818 14.37 23.8279 15.1427 22.9608 15.4244C22.752 15.4925 22.5366 15.5271 22.319 15.5271L22.3179 15.5291ZM24.362 3.07322C24.3752 3.07322 24.3884 3.07322 24.4004 3.07322C25.262 3.09152 25.9192 3.65687 26.2017 4.62385C26.4456 5.45764 26.416 6.42259 26.1181 7.33975C26.1159 7.34687 26.1126 7.35297 26.1093 7.35907C25.5741 8.35452 24.6807 9.33168 23.3784 10.3475C23.2037 10.4837 23.0157 10.6251 22.8036 10.7806C22.6542 10.8894 22.4981 10.9942 22.341 11.0999C21.7299 11.5107 21.0398 11.9754 20.7035 12.7238C20.4639 13.2576 20.5057 13.8911 20.8167 14.4188C21.1354 14.9597 21.6959 15.2831 22.3168 15.2831C22.5036 15.2831 22.6893 15.2536 22.8685 15.1946C23.6158 14.9516 24.2719 14.2998 24.0147 13.5728C23.996 13.5189 23.9543 13.4742 23.8982 13.4487C23.8433 13.4233 23.7806 13.4193 23.7235 13.4365C23.6641 13.4548 23.6169 13.4925 23.5883 13.5423C23.5608 13.5931 23.5553 13.6511 23.574 13.705C23.7608 14.2327 23.1454 14.6526 22.7135 14.793C22.1442 14.978 21.5299 14.7411 21.2222 14.2154C20.9771 13.7995 20.942 13.3023 21.1299 12.8864C21.4167 12.2479 21.997 11.8574 22.6102 11.4446C22.7729 11.3348 22.9344 11.226 23.0894 11.1131C23.2993 10.9606 23.4905 10.8162 23.6762 10.6718C25.6324 9.14662 26.7127 7.69258 27.0732 6.09619C27.2424 5.34884 27.649 2.85969 25.7994 2.19774C24.2905 1.65782 22.7685 2.22927 22.1794 3.55722C21.9058 4.17544 21.9047 4.84348 22.1772 5.39154C22.4256 5.88978 22.8904 6.266 23.4861 6.45004C23.5454 6.46834 23.6081 6.46428 23.663 6.43886C23.718 6.41344 23.7597 6.36971 23.7795 6.31582C23.8202 6.20499 23.7542 6.08399 23.6334 6.04637C23.2157 5.91723 22.8861 5.6793 22.6794 5.35697C22.6739 5.34782 22.6685 5.33765 22.6652 5.32647C22.5915 5.0804 22.5662 4.84247 22.5849 4.57708C22.5926 4.46523 22.6047 4.34626 22.641 4.23035C22.8465 3.56434 23.5817 3.0722 24.3609 3.0722L24.362 3.07322Z" fill="url(#paint5_linear_352_3960)"/>
<path d="M7.41902 12.677C7.06735 11.8961 6.3618 11.4212 5.73868 11.0023C5.58263 10.8966 5.42658 10.7928 5.27821 10.684C5.08479 10.5437 4.89467 10.4003 4.70675 10.2539C3.42094 9.25237 2.53957 8.29148 2.00876 7.30518C1.72852 6.44089 1.68017 5.49729 1.92524 4.65639C2.14943 3.89073 2.67254 3.21659 3.60118 3.19727C4.30892 3.18202 5.02985 3.62026 5.22876 4.26594C5.26063 4.37067 5.27162 4.47947 5.27931 4.58725C5.298 4.84857 5.27052 5.07125 5.20348 5.29596C5.01226 5.59287 4.71114 5.81047 4.3221 5.93147C4.13088 5.99045 4.02758 6.18161 4.09242 6.35751C4.15616 6.53342 4.36277 6.629 4.55399 6.56901C5.1859 6.37378 5.67824 5.97418 5.942 5.44442C6.22993 4.86585 6.22993 4.1612 5.942 3.51146C5.32437 2.11843 3.72866 1.5175 2.14943 2.08386C0.203142 2.78038 0.619654 5.35189 0.794391 6.12263C1.16145 7.74648 2.25493 9.22288 4.23529 10.7664C4.42871 10.9179 4.62652 11.0653 4.82544 11.2107C4.98149 11.3246 5.14414 11.4344 5.30789 11.5443C5.90573 11.9469 6.4706 12.3272 6.74425 12.9332C6.91569 13.3145 6.88382 13.7721 6.65743 14.1564C6.38049 14.6272 5.8332 14.8408 5.32767 14.676C5.00347 14.5703 4.38694 14.2032 4.54959 13.7426C4.61223 13.5657 4.50673 13.3765 4.31551 13.3186C4.12429 13.2606 3.91768 13.3572 3.85504 13.5342C3.5715 14.3354 4.27705 15.0472 5.08369 15.3095C5.28151 15.3736 5.48262 15.4051 5.68044 15.4051C6.33433 15.4051 6.95086 15.0665 7.29813 14.4767C7.62782 13.9165 7.67288 13.2433 7.41682 12.676L7.41902 12.677Z" fill="url(#paint6_linear_352_3960)"/>
<path d="M5.68267 15.5291C5.46617 15.5291 5.24967 15.4946 5.04086 15.4264C4.17377 15.1448 3.41988 14.372 3.72979 13.4965C3.77155 13.3796 3.85947 13.284 3.97925 13.2291C4.09794 13.1732 4.23312 13.164 4.3595 13.2027C4.48588 13.2403 4.58919 13.3216 4.64853 13.4315C4.70897 13.5413 4.71996 13.6653 4.6782 13.7823C4.54742 14.1534 5.10131 14.4727 5.37385 14.5621C5.81674 14.7055 6.297 14.5154 6.54097 14.0995C6.74758 13.7477 6.77835 13.3308 6.62119 12.982C6.36293 12.4075 5.81235 12.0374 5.22989 11.6449C5.05515 11.527 4.898 11.4212 4.74304 11.3084C4.53094 11.1538 4.33752 11.0084 4.1496 10.862C2.14396 9.29812 1.03729 7.80036 0.663643 6.14805C0.483411 5.3529 0.0570077 2.70106 2.1011 1.96896C3.75177 1.3782 5.41891 2.0076 6.06621 3.46571C6.36843 4.14595 6.36733 4.88619 6.06401 5.49627C5.78487 6.05755 5.26396 6.47953 4.59688 6.68594C4.4705 6.7256 4.33532 6.71645 4.21553 6.66154C4.09684 6.60663 4.00783 6.51308 3.96497 6.39615C3.87705 6.15618 4.01882 5.89486 4.27927 5.81454C4.62875 5.70675 4.90459 5.51051 5.07933 5.24716C5.14197 5.03159 5.16175 4.82925 5.14637 4.59436C5.13867 4.48048 5.12768 4.38693 5.10021 4.29847C4.92437 3.72601 4.28037 3.29997 3.6045 3.31929C2.59784 3.34064 2.20221 4.18561 2.05495 4.68791C1.82526 5.47492 1.85274 6.38802 2.13407 7.25942C2.65389 8.22132 3.52318 9.17001 4.7936 10.1594C4.96723 10.2946 5.15406 10.4349 5.36177 10.5874C5.50573 10.6932 5.65739 10.7949 5.80905 10.8965C6.45415 11.3307 7.17618 11.8168 7.54214 12.6292C7.81248 13.2311 7.76633 13.9439 7.41685 14.5367C7.05089 15.158 6.4025 15.5291 5.68157 15.5291H5.68267ZM4.20235 13.4254C4.16718 13.4254 4.13201 13.4335 4.09904 13.4487C4.04409 13.4752 4.00233 13.5189 3.98365 13.5728C3.72649 14.2998 4.38258 14.9516 5.12988 15.1946C5.31011 15.2536 5.49584 15.2831 5.68267 15.2831C6.30359 15.2831 6.86407 14.9597 7.18277 14.4188C7.49378 13.8911 7.53554 13.2566 7.29596 12.7238C6.95858 11.9754 6.26952 11.5107 5.66069 11.1019C5.49694 10.9921 5.34308 10.8884 5.19582 10.7806C4.98482 10.6271 4.79689 10.4858 4.62106 10.3475C3.31877 9.3327 2.4253 8.35452 1.8901 7.35907C1.8868 7.35297 1.88351 7.34687 1.88131 7.33975C1.58349 6.42259 1.55381 5.45764 1.79779 4.62385C2.08022 3.65687 2.73741 3.09152 3.59901 3.07322C4.39687 3.05797 5.14966 3.55417 5.35847 4.23136C5.39364 4.34728 5.40573 4.46726 5.41452 4.57911C5.4332 4.8445 5.40682 5.08243 5.33429 5.3285C5.331 5.33867 5.3266 5.34884 5.32001 5.359C5.1134 5.68133 4.78261 5.91927 4.36609 6.0484C4.24521 6.08602 4.18037 6.20702 4.21993 6.31786C4.23971 6.37175 4.28037 6.41547 4.33642 6.44089C4.39137 6.46631 4.45401 6.47038 4.51336 6.45207C5.109 6.26803 5.57497 5.89181 5.82224 5.39358C6.09478 4.84552 6.09368 4.17646 5.82004 3.55925C5.23099 2.2313 3.70781 1.65985 2.20001 2.19978C0.349335 2.8607 0.755957 5.35087 0.925199 6.09721C1.28566 7.6936 2.36486 9.14662 4.32213 10.6728C4.50786 10.8172 4.69908 10.9616 4.90899 11.1141C5.06065 11.224 5.2156 11.3297 5.38814 11.4446C6.00247 11.8584 6.58163 12.2479 6.86956 12.8864C7.05639 13.3023 7.02232 13.7985 6.77725 14.2154C6.46844 14.7401 5.85521 14.977 5.28594 14.793C4.85404 14.6526 4.23861 14.2327 4.42544 13.705C4.44522 13.6511 4.43972 13.5931 4.41225 13.5423C4.38368 13.4914 4.33642 13.4538 4.27818 13.4365C4.254 13.4294 4.22982 13.4254 4.20564 13.4254H4.20235Z" fill="url(#paint7_linear_352_3960)"/>
<defs>
<linearGradient id="paint0_linear_352_3960" x1="5.23025" y1="5.21501" x2="32.7152" y2="18.1755" gradientUnits="userSpaceOnUse">
<stop stop-color="#FEEDB1"/>
<stop offset="1" stop-color="#E7A92D"/>
</linearGradient>
<linearGradient id="paint1_linear_352_3960" x1="6.39923" y1="14.9591" x2="21.619" y2="14.9591" gradientUnits="userSpaceOnUse">
<stop stop-color="#A57D24"/>
<stop offset="0.21" stop-color="#D8BD62"/>
<stop offset="0.33" stop-color="#F1DD80"/>
<stop offset="0.52" stop-color="#FBF2A8"/>
<stop offset="0.73" stop-color="#F1DD80"/>
<stop offset="1" stop-color="#A57D24"/>
</linearGradient>
<linearGradient id="paint2_linear_352_3960" x1="10.7801" y1="3.00546" x2="20.6919" y2="10.3928" gradientUnits="userSpaceOnUse">
<stop offset="0.00561798" stop-color="#FF781F"/>
<stop offset="0.0551423" stop-color="#E96D1D"/>
<stop offset="0.1727" stop-color="#BC5718"/>
<stop offset="0.2949" stop-color="#954414"/>
<stop offset="0.4202" stop-color="#753410"/>
<stop offset="0.5495" stop-color="#5C280D"/>
<stop offset="0.6846" stop-color="#4B200B"/>
<stop offset="0.8292" stop-color="#401B0A"/>
<stop offset="1" stop-color="#3D190A"/>
</linearGradient>
<linearGradient id="paint3_linear_352_3960" x1="3.24413" y1="4.13818" x2="23.1166" y2="25.6165" gradientUnits="userSpaceOnUse">
<stop stop-color="#A57D24"/>
<stop offset="0.21" stop-color="#D8BD62"/>
<stop offset="0.33" stop-color="#F1DD80"/>
<stop offset="0.52" stop-color="#FBF2A8"/>
<stop offset="0.73" stop-color="#F1DD80"/>
<stop offset="1" stop-color="#A57D24"/>
</linearGradient>
<linearGradient id="paint4_linear_352_3960" x1="20.4167" y1="8.63978" x2="27.3666" y2="8.63978" gradientUnits="userSpaceOnUse">
<stop stop-color="#A57D24"/>
<stop offset="0.21" stop-color="#D8BD62"/>
<stop offset="0.33" stop-color="#F1DD80"/>
<stop offset="0.52" stop-color="#FBF2A8"/>
<stop offset="0.73" stop-color="#F1DD80"/>
<stop offset="1" stop-color="#A57D24"/>
</linearGradient>
<linearGradient id="paint5_linear_352_3960" x1="19.8639" y1="5.05905" x2="26.6134" y2="12.354" gradientUnits="userSpaceOnUse">
<stop stop-color="#A57D24"/>
<stop offset="0.21" stop-color="#D8BD62"/>
<stop offset="0.33" stop-color="#F1DD80"/>
<stop offset="0.52" stop-color="#FBF2A8"/>
<stop offset="0.73" stop-color="#F1DD80"/>
<stop offset="1" stop-color="#A57D24"/>
</linearGradient>
<linearGradient id="paint6_linear_352_3960" x1="0.632842" y1="8.63923" x2="7.58277" y2="8.63923" gradientUnits="userSpaceOnUse">
<stop stop-color="#A57D24"/>
<stop offset="0.21" stop-color="#D8BD62"/>
<stop offset="0.33" stop-color="#F1DD80"/>
<stop offset="0.52" stop-color="#FBF2A8"/>
<stop offset="0.73" stop-color="#F1DD80"/>
<stop offset="1" stop-color="#A57D24"/>
</linearGradient>
<linearGradient id="paint7_linear_352_3960" x1="-0.349613" y1="3.97818" x2="8.55514" y2="13.6025" gradientUnits="userSpaceOnUse">
<stop stop-color="#A57D24"/>
<stop offset="0.21" stop-color="#D8BD62"/>
<stop offset="0.33" stop-color="#F1DD80"/>
<stop offset="0.52" stop-color="#FBF2A8"/>
<stop offset="0.73" stop-color="#F1DD80"/>
<stop offset="1" stop-color="#A57D24"/>
</linearGradient>
</defs>
</svg>
