<svg width="53" height="60" viewBox="0 0 53 60" fill="none" xmlns="http://www.w3.org/2000/svg">
<g id="Group">
<g id="Layer_1">
<g id="Group_2">
<path id="Vector" d="M39.5464 21.4095C35.45 13.382 28.174 12.979 26.2162 13.0229C24.2584 12.979 16.9825 13.3845 12.886 21.4095C12.886 21.4095 10.5046 26.9601 12.886 31.586C15.2674 36.2145 20.1594 42.6045 20.4822 45.4612C20.8051 48.3152 20.8903 50.8904 20.8903 50.8904H31.5447C31.5447 50.8904 31.6299 48.3178 31.9528 45.4612C32.2756 42.6045 37.1676 36.2145 39.549 31.586C41.9304 26.9575 39.549 21.4095 39.549 21.4095H39.5464Z" fill="#FCE18E"/>
<g id="Vector_2" style="mix-blend-mode:multiply">
<path d="M39.5464 21.4095C35.45 13.382 28.174 12.979 26.2162 13.0229C24.2584 12.979 16.9825 13.3845 12.886 21.4095C12.886 21.4095 10.5046 26.9601 12.886 31.586C15.2674 36.2145 20.1594 42.6045 20.4822 45.4612C20.8051 48.3152 20.8903 50.8904 20.8903 50.8904H31.5447C31.5447 50.8904 31.6299 48.3178 31.9528 45.4612C32.2756 42.6045 37.1676 36.2145 39.549 31.586C41.9304 26.9575 39.549 21.4095 39.549 21.4095H39.5464ZM37.5653 27.4353C37.3742 28.3987 37.0436 29.3363 36.5761 30.2016C36.1008 31.072 35.4835 31.865 34.7423 32.5288C33.9467 33.2416 33.0221 33.7969 32.0302 34.1895C30.899 34.639 29.6928 34.8559 28.4866 34.9928C27.1719 35.1426 25.8417 35.1736 24.5193 35.0858C23.1839 34.9954 21.8512 34.7836 20.5623 34.4117C19.32 34.0526 18.1163 33.5438 17.0315 32.8361C15.9855 32.1542 15.0608 31.2838 14.3609 30.2429C13.6118 29.1271 13.134 27.8434 12.9894 26.5081C12.837 25.1082 13.0358 23.6824 13.4853 22.3523C13.945 20.9885 14.6656 19.7151 15.5696 18.5968C16.4736 17.4784 17.5714 16.5098 18.8163 15.7866C19.9631 15.1202 21.2339 14.6682 22.5537 14.5288C23.9949 14.1465 25.5111 14.0638 26.9937 14.1646C27.8228 14.2214 28.6544 14.3299 29.4706 14.4874C30.0156 14.5933 30.5503 14.7405 31.0694 14.9368C32.0457 15.3036 32.9575 15.8305 33.7659 16.4891C34.5563 17.1323 35.2433 17.902 35.809 18.7466C36.3746 19.5912 36.8215 20.5133 37.1469 21.4767C37.4698 22.4375 37.6712 23.4396 37.7435 24.4495C37.8133 25.4465 37.7565 26.4564 37.5627 27.4379L37.5653 27.4353Z" fill="#FBE2A8"/>
</g>
<g id="Vector_3" style="mix-blend-mode:multiply">
<path d="M40.117 30.0129C39.51 31.4153 38.6705 32.7119 37.6606 33.8562C36.6507 35.0004 35.4704 35.9896 34.1764 36.798C32.8643 37.6194 31.4334 38.2548 29.943 38.6784C28.4372 39.1071 26.8668 39.3189 25.3016 39.2983C23.5918 39.275 21.9052 38.9573 20.3244 38.2909C18.7696 37.6349 17.3541 36.6663 16.1712 35.4653C14.8823 34.1558 13.8957 32.5776 13.1854 30.8884C12.4699 29.1812 12.0748 27.3628 11.9224 25.5212C11.9172 25.4722 11.9146 25.4231 11.912 25.374C11.7054 27.2389 11.8139 29.5066 12.8858 31.5858C15.2672 36.2143 20.1591 42.6043 20.482 45.461C20.8049 48.315 20.8901 50.8902 20.8901 50.8902H31.5444C31.5444 50.8902 31.6297 48.3176 31.9525 45.461C32.2754 42.6043 37.1673 36.2143 39.5487 31.5858C39.8819 30.9375 40.1247 30.2686 40.29 29.5996C40.2358 29.7365 40.1789 29.8734 40.1221 30.0103L40.117 30.0129Z" fill="#FBE2A8"/>
</g>
<g id="Vector_4" style="mix-blend-mode:screen">
<path d="M27.0916 17.9716C26.7868 16.4994 25.4515 15.0788 23.8863 15.1822C23.2018 15.0711 22.4812 15.2054 21.8303 15.4404C20.9392 15.7633 20.0972 16.298 19.4334 16.9772C18.7309 17.7004 18.1549 18.6716 18.1911 19.7073C18.2246 20.7198 18.8239 21.6548 19.5806 22.3005C20.2935 22.9101 21.2285 23.2536 22.1687 23.2355C23.0779 23.2175 23.9638 22.8946 24.7283 22.4116C26.1799 21.4947 27.4636 19.7693 27.089 17.9716H27.0916Z" fill="#FAE5C4"/>
</g>
<g id="Vector_5" style="mix-blend-mode:screen">
<path d="M18.2943 22.8996C18.1213 22.2358 17.7158 21.5487 16.9874 21.4196C16.6775 21.3653 16.2513 21.4092 15.962 21.5952C15.9388 21.603 15.9129 21.6107 15.8897 21.6185C15.5539 21.7502 15.2956 22.024 15.1277 22.3391C14.7661 23.0158 14.7352 23.8965 15.0373 24.5991C15.1872 24.9452 15.4222 25.2629 15.7554 25.454C16.1402 25.6761 16.6155 25.7226 17.0442 25.6167C18.2272 25.3249 18.5707 23.956 18.2969 22.8996H18.2943Z" fill="#FAE5C4"/>
</g>
<g id="Group_3" style="mix-blend-mode:screen">
<path id="Vector_6" d="M35.1706 28.4632C35.0105 28.2075 34.7626 27.9802 34.4604 27.9182C34.1737 27.8588 33.8818 27.926 33.6235 28.0551C33.0759 28.3289 32.6343 28.8119 32.2882 29.3104C31.8465 29.951 31.5133 30.6742 31.2369 31.3999C30.9451 32.1722 30.723 32.9677 30.5396 33.771C30.4182 34.3005 30.3097 34.8326 30.2064 35.3672C29.9378 35.3672 29.6614 35.3233 29.3824 35.2174C28.5482 34.9023 28.0368 34.1429 27.6829 33.3319C27.7423 32.9109 27.763 32.4822 27.7707 32.0586C27.7785 31.6376 27.7914 31.2166 27.7837 30.7956C27.7759 30.2428 27.7449 29.6849 27.639 29.1425C27.5538 28.7112 27.4195 28.2127 27.0656 27.9208C26.9933 27.8614 26.9106 27.8175 26.8228 27.7839C26.7453 27.7555 26.6343 27.8175 26.5955 27.8847C26.3011 28.4167 26.2933 29.0573 26.345 29.6488C26.4044 30.3306 26.5568 31.0022 26.7402 31.6608C26.9081 32.2575 27.0889 32.8903 27.3471 33.4766C27.2103 34.3832 26.8357 35.5377 25.7768 35.5868C25.2369 35.6126 24.803 35.251 24.4879 34.8481C24.4285 34.7706 24.3717 34.6905 24.3174 34.6104C24.2968 34.1662 24.258 33.7245 24.2038 33.2854C24.116 32.57 24.0101 31.8468 23.8732 31.1391C23.7595 30.5579 23.6072 29.8786 23.1965 29.4292C23.0157 29.2329 22.791 29.1064 22.5198 29.0883C22.432 29.0831 22.3286 29.158 22.3028 29.2407C22.1013 29.9045 22.2357 30.6251 22.4268 31.276C22.6308 31.963 22.9253 32.6191 23.2249 33.2699C23.4522 33.7633 23.6769 34.2643 23.9713 34.7241C24.0256 35.8528 23.9507 36.9789 23.5942 38.0612C23.4005 38.6475 23.0777 39.3707 22.4371 39.5747C22.4242 39.5799 22.4087 39.5825 22.3958 39.585C22.2124 38.8231 22.0161 38.0637 21.7837 37.3147C21.453 36.2428 21.0734 35.1838 20.6704 34.1352C20.4974 33.6832 20.3166 33.2338 20.1461 32.7818C20.0066 32.4098 19.8646 32.0353 19.7019 31.6737C19.3997 31.0048 18.9942 30.2506 18.3174 29.8993C17.9998 29.734 17.633 29.734 17.416 30.0569C17.2197 30.3435 17.2197 30.7465 17.2301 31.0797C17.2456 31.5885 17.323 32.0999 17.4186 32.5984C17.5968 33.5515 17.8396 34.502 18.1366 35.4266C18.2606 35.8089 18.4259 36.1731 18.5912 36.5398C18.9167 37.2656 19.2679 37.9914 19.7535 38.6242C20.2133 39.226 20.8228 39.7581 21.5874 39.9053C21.7501 39.9363 21.9128 39.9492 22.0755 39.9389C22.2899 40.799 22.4862 41.6668 22.6747 42.5321C23.1242 44.5984 23.5064 46.6931 23.6666 48.8033C23.7053 49.3044 23.7286 49.808 23.7389 50.3117C23.7389 50.4202 23.9119 50.3608 23.9119 50.2755C23.9403 48.0801 23.6846 45.8872 23.2869 43.7331C23.088 42.6561 22.8581 41.5868 22.6153 40.52C22.5663 40.3031 22.5146 40.0861 22.4655 39.8692C22.5353 39.8485 22.6024 39.8227 22.667 39.7891C22.995 39.629 23.2585 39.3681 23.4599 39.0659C23.9636 38.3169 24.1651 37.3534 24.2658 36.4701C24.3149 36.0517 24.3329 35.6333 24.3329 35.2123C24.599 35.5119 24.9244 35.765 25.317 35.8502C25.8956 35.9742 26.5051 35.7314 26.9029 35.3052C27.2567 34.9281 27.4505 34.4348 27.5693 33.9363C27.7837 34.3315 28.0445 34.6957 28.3777 35.0005C28.8607 35.4447 29.4935 35.6823 30.147 35.672C29.9455 36.7697 29.7802 37.8778 29.6252 38.9807C29.3618 40.8842 29.15 42.7956 28.8943 44.7017C28.7651 45.6548 28.6799 46.6079 28.6205 47.5687C28.5663 48.4288 28.5043 49.2889 28.4888 50.149C28.4836 50.446 28.4991 50.8076 28.3674 51.084C28.2537 51.3216 28.5921 51.3629 28.6799 51.1744C28.822 50.8799 28.853 50.5545 28.8659 50.2316C28.8814 49.8855 28.8762 49.5394 28.8995 49.1959C28.9614 48.279 29.0053 47.3595 29.0777 46.4426C29.1526 45.5127 29.2843 44.5932 29.4031 43.6686C29.5193 42.7516 29.6304 41.8321 29.744 40.9152C29.961 39.1511 30.2038 37.3922 30.5137 35.641C31.1181 35.5506 31.6812 35.2717 32.1694 34.9075C32.7531 34.471 33.2438 33.9286 33.6829 33.3526C34.029 32.9006 34.3416 32.4228 34.6128 31.9243C34.9227 31.356 35.1965 30.7491 35.3334 30.1137C35.4496 29.5661 35.4728 28.9565 35.1629 28.4658L35.1706 28.4632ZM20.5335 38.9187C19.9782 38.3969 19.5856 37.7099 19.2524 37.0332C19.0923 36.7077 18.9451 36.3771 18.8004 36.0439C18.7281 35.876 18.6481 35.7107 18.5861 35.5377C18.3097 34.7602 18.1082 33.9492 17.9274 33.1434C17.8138 32.632 17.7131 32.118 17.6511 31.5988C17.6046 31.2088 17.5736 30.8007 17.6407 30.4081C17.6407 30.4004 17.6407 30.3978 17.6407 30.3926C17.6407 30.3926 17.6407 30.3926 17.6407 30.3849C17.6459 30.3668 17.6485 30.3487 17.6536 30.3306C17.664 30.2971 17.6743 30.2635 17.6872 30.2299C17.6924 30.217 17.6976 30.2067 17.7027 30.1937C17.7027 30.1912 17.7079 30.186 17.7105 30.1834C17.7182 30.1731 17.726 30.1602 17.7311 30.1498C17.7311 30.1498 17.7311 30.1498 17.7311 30.1473C17.7389 30.1421 17.744 30.1343 17.7518 30.1266C17.7518 30.1266 17.7518 30.1266 17.7544 30.124C17.757 30.124 17.7621 30.1214 17.7673 30.1214C17.7673 30.1214 17.7673 30.1214 17.7699 30.1214C17.7802 30.1214 17.7854 30.1214 17.788 30.1214C17.7957 30.1214 17.8035 30.1214 17.8112 30.1214C17.8164 30.1214 17.8319 30.124 17.8422 30.1266C17.868 30.1318 17.8913 30.1369 17.9171 30.1447C17.9326 30.1498 17.9481 30.155 17.9636 30.1627C17.9713 30.1653 17.9791 30.1705 17.9868 30.1731C17.9894 30.1731 17.9894 30.1731 17.992 30.1731C17.992 30.1731 17.9946 30.1731 17.9998 30.1757C18.1211 30.2377 18.2348 30.3151 18.3381 30.403C18.6196 30.638 18.8366 30.9505 19.0174 31.2682C19.3997 31.9398 19.6399 32.6785 19.9188 33.3965C20.3063 34.3935 20.6911 35.3905 21.0398 36.403C21.4066 37.4645 21.7139 38.5442 21.9929 39.6315C21.4479 39.6109 20.9055 39.2803 20.5258 38.9212L20.5335 38.9187ZM23.6769 33.4017C23.4134 32.8283 23.1474 32.2523 22.933 31.6582C22.7083 31.0306 22.5069 30.3487 22.5559 29.6772C22.5611 29.5945 22.5714 29.5144 22.5869 29.437C23.0079 29.5842 23.2249 30.1421 23.3463 30.5269C23.5142 31.0538 23.5917 31.6014 23.6769 32.1464C23.7673 32.725 23.8525 33.3113 23.9119 33.9002C23.8293 33.7374 23.7518 33.5695 23.6769 33.4042V33.4017ZM26.8383 30.5967C26.7066 29.9742 26.6059 29.3259 26.673 28.6905C26.6911 28.5071 26.7273 28.3212 26.7944 28.1481C27.0475 28.3315 27.1741 28.6905 27.2516 28.9746C27.3885 29.468 27.4324 29.9871 27.453 30.4985C27.4711 30.9376 27.466 31.3793 27.4582 31.8184C27.453 32.1051 27.4453 32.3918 27.4298 32.6785C27.3885 32.5622 27.3497 32.446 27.3136 32.3324C27.1302 31.7615 26.9623 31.1856 26.8383 30.5993V30.5967ZM34.7832 30.8653C34.3674 31.9578 33.6984 32.9858 32.9184 33.8511C32.3011 34.5355 31.4823 35.189 30.5757 35.3362C30.8418 33.8743 31.162 32.4073 31.7303 31.0306C31.9937 30.39 32.3114 29.7392 32.7402 29.1916C32.9184 28.9643 33.1173 28.7473 33.342 28.5691C33.5434 28.409 33.7759 28.2566 34.0368 28.2178C34.5895 28.1352 34.9614 28.7086 35.0467 29.1838C35.1474 29.7469 34.9795 30.341 34.7806 30.8653H34.7832Z" fill="#FAE5C4"/>
<path id="Vector_7" d="M17.7781 30.1213C17.7729 30.124 17.765 30.1266 17.7598 30.1292C17.7598 30.1345 17.765 30.1345 17.7808 30.1213H17.7781Z" fill="#FAE5C4"/>
</g>
<g id="Group_4">
<path id="Vector_8" d="M29.775 56.3091H22.6566C22.6566 56.3091 22.3983 59.7856 25.9187 60H26.5154C30.0332 59.7856 29.7775 56.3091 29.7775 56.3091H29.775Z" fill="#4D5052"/>
<g id="Group_5">
<path id="Vector_9" d="M31.6011 49.3198H20.828C20.3528 49.3198 19.9653 48.9324 19.9653 48.4572C19.9653 47.9819 20.3528 47.5945 20.828 47.5945H31.6011C32.0764 47.5945 32.4638 47.9819 32.4638 48.4572C32.4638 48.9324 32.0764 49.3198 31.6011 49.3198Z" fill="#8B8E91"/>
<path id="Vector_10" d="M31.6011 52.7009H20.828C20.3528 52.7009 19.9653 52.3135 19.9653 51.8383C19.9653 51.363 20.3528 50.9756 20.828 50.9756H31.6011C32.0764 50.9756 32.4638 51.363 32.4638 51.8383C32.4638 52.3135 32.0764 52.7009 31.6011 52.7009Z" fill="#8B8E91"/>
<path id="Vector_11" d="M31.6011 51.009H20.828C20.3528 51.009 19.9653 50.6216 19.9653 50.1464C19.9653 49.6711 20.3528 49.2837 20.828 49.2837H31.6011C32.0764 49.2837 32.4638 49.6711 32.4638 50.1464C32.4638 50.6216 32.0764 51.009 31.6011 51.009Z" fill="#8B8E91"/>
<path id="Vector_12" d="M31.6011 54.3926H20.828C20.3528 54.3926 19.9653 54.0052 19.9653 53.5299C19.9653 53.0547 20.3528 52.6672 20.828 52.6672H31.6011C32.0764 52.6672 32.4638 53.0547 32.4638 53.5299C32.4638 54.0052 32.0764 54.3926 31.6011 54.3926Z" fill="#8B8E91"/>
<path id="Vector_13" d="M31.6011 56.0818H20.828C20.3528 56.0818 19.9653 55.6944 19.9653 55.2191C19.9653 54.7439 20.3528 54.3564 20.828 54.3564H31.6011C32.0764 54.3564 32.4638 54.7439 32.4638 55.2191C32.4638 55.6944 32.0764 56.0818 31.6011 56.0818Z" fill="#8B8E91"/>
<path id="Vector_14" d="M31.6011 57.7734H20.828C20.3528 57.7734 19.9653 57.386 19.9653 56.9108C19.9653 56.4355 20.3528 56.0481 20.828 56.0481H31.6011C32.0764 56.0481 32.4638 56.4355 32.4638 56.9108C32.4638 57.386 32.0764 57.7734 31.6011 57.7734Z" fill="#8B8E91"/>
</g>
<g id="Group_6" style="mix-blend-mode:screen">
<path id="Vector_15" d="M24.8677 48.8317H20.5983C20.4097 48.8317 20.2573 48.6148 20.2573 48.3487C20.2573 48.0827 20.4123 47.8657 20.5983 47.8657H24.8677C25.0563 47.8657 25.2113 48.0827 25.2113 48.3487C25.2113 48.6148 25.0563 48.8317 24.8677 48.8317Z" fill="#B3B5B8"/>
</g>
<g id="Group_7" style="mix-blend-mode:screen">
<path id="Vector_16" d="M24.8677 50.6293H20.5983C20.4097 50.6293 20.2573 50.4124 20.2573 50.1463C20.2573 49.8803 20.4123 49.6633 20.5983 49.6633H24.8677C25.0563 49.6633 25.2113 49.8803 25.2113 50.1463C25.2113 50.4124 25.0563 50.6293 24.8677 50.6293Z" fill="#B3B5B8"/>
</g>
<g id="Group_8" style="mix-blend-mode:screen">
<path id="Vector_17" d="M24.8677 52.3185H20.5983C20.4097 52.3185 20.2573 52.1016 20.2573 51.8355C20.2573 51.5695 20.4123 51.3525 20.5983 51.3525H24.8677C25.0563 51.3525 25.2113 51.5695 25.2113 51.8355C25.2113 52.1016 25.0563 52.3185 24.8677 52.3185Z" fill="#B3B5B8"/>
</g>
<g id="Group_9" style="mix-blend-mode:screen">
<path id="Vector_18" d="M24.8677 54.0104H20.5983C20.4097 54.0104 20.2573 53.7935 20.2573 53.5274C20.2573 53.2614 20.4123 53.0444 20.5983 53.0444H24.8677C25.0563 53.0444 25.2113 53.2614 25.2113 53.5274C25.2113 53.7935 25.0563 54.0104 24.8677 54.0104Z" fill="#B3B5B8"/>
</g>
<g id="Group_10" style="mix-blend-mode:screen">
<path id="Vector_19" d="M24.8677 55.6427H20.5983C20.4097 55.6427 20.2573 55.4258 20.2573 55.1598C20.2573 54.8937 20.4123 54.6768 20.5983 54.6768H24.8677C25.0563 54.6768 25.2113 54.8937 25.2113 55.1598C25.2113 55.4258 25.0563 55.6427 24.8677 55.6427Z" fill="#B3B5B8"/>
</g>
<g id="Group_11" style="mix-blend-mode:screen">
<path id="Vector_20" d="M24.8677 57.3913H20.5983C20.4097 57.3913 20.2573 57.1743 20.2573 56.9083C20.2573 56.6423 20.4123 56.4253 20.5983 56.4253H24.8677C25.0563 56.4253 25.2113 56.6423 25.2113 56.9083C25.2113 57.1743 25.0563 57.3913 24.8677 57.3913Z" fill="#B3B5B8"/>
</g>
</g>
</g>
<g id="Group_12">
<path id="Vector_21" d="M26.4329 8.10504C25.5469 8.10504 24.8237 7.37925 24.8237 6.49591V1.60913C24.8237 0.723203 25.5469 0 26.4329 0C27.3188 0 28.042 0.725786 28.042 1.60913V6.49591C28.042 7.38183 27.3162 8.10504 26.4329 8.10504Z" fill="#F7BE5E"/>
<path id="Vector_22" d="M39.8046 13.9294C40.4452 14.5415 41.468 14.5183 42.0801 13.8777L45.4559 10.3444C46.0681 9.70382 46.0448 8.681 45.4043 8.06886C44.7637 7.45672 43.7409 7.47997 43.1288 8.12052L39.7529 11.6539C39.1408 12.2944 39.164 13.3172 39.8046 13.9294Z" fill="#F7BE5E"/>
<path id="Vector_23" d="M44.5441 25.7977C44.637 26.6785 45.4326 27.3242 46.3133 27.2312L51.1717 26.7224C52.0525 26.6294 52.6982 25.8339 52.6052 24.9531C52.5122 24.0724 51.7167 23.4267 50.8359 23.5197L45.9776 24.0285C45.0968 24.1215 44.4511 24.917 44.5441 25.7977Z" fill="#F7BE5E"/>
<path id="Vector_24" d="M40.3519 39.425C40.915 38.7405 41.9352 38.6424 42.6171 39.2055L46.3881 42.3101C47.0726 42.8731 47.1707 43.8934 46.6076 44.5752C46.0446 45.2597 45.0243 45.3578 44.3425 44.7948L40.5715 41.6902C39.887 41.1271 39.7889 40.1069 40.3519 39.425Z" fill="#F7BE5E"/>
<path id="Vector_25" d="M13.1958 13.9294C12.5552 14.5415 11.5324 14.5183 10.9203 13.8777L7.54445 10.3444C6.93231 9.70382 6.95555 8.681 7.59611 8.06886C8.23666 7.45672 9.25947 7.47997 9.87161 8.12052L13.2474 11.6539C13.8596 12.2944 13.8363 13.3172 13.1958 13.9294Z" fill="#F7BE5E"/>
<path id="Vector_26" d="M8.45627 25.7977C8.36328 26.6785 7.56776 27.3242 6.687 27.2312L1.82863 26.7224C0.947872 26.6294 0.302155 25.8339 0.395138 24.9531H0.392556C0.485539 24.0724 1.28106 23.4267 2.16182 23.5197L7.02019 24.0285C7.90095 24.1215 8.54667 24.917 8.45368 25.7977H8.45627Z" fill="#F7BE5E"/>
<path id="Vector_27" d="M12.6482 39.425C12.0851 38.7405 11.0649 38.6424 10.383 39.2055L6.61201 42.3101C5.92755 42.8731 5.82941 43.8934 6.39247 44.5752C6.95554 45.2597 7.97577 45.3578 8.65764 44.7948L12.4286 41.6902C13.1131 41.1271 13.2112 40.1069 12.6482 39.425Z" fill="#F7BE5E"/>
</g>
</g>
</g>
</svg>
