<svg width="43" height="50" viewBox="0 0 43 50" fill="none" xmlns="http://www.w3.org/2000/svg">
<g filter="url(#filter0_d_20_3599)">
<path d="M20.0028 34.5C16.027 34.5 12.7905 31.2635 12.7905 27.2878C12.7905 24.7182 14.1813 22.3245 16.4147 21.0371L16.9318 20.7373V15.5H23.0686V20.7373L23.5856 21.0371C25.8191 22.3245 27.2098 24.7182 27.2098 27.2878C27.2098 31.2635 23.9734 34.5 19.9976 34.5H20.0028Z" fill="white"/>
</g>
<path d="M20.0028 34.5C16.027 34.5 12.7905 31.2635 12.7905 27.2878C12.7905 24.7182 14.1813 22.3245 16.4147 21.0371L16.9318 20.7373V15.5H23.0686V20.7373L23.5856 21.0371C25.8191 22.3245 27.2098 24.7182 27.2098 27.2878C27.2098 31.2635 23.9734 34.5 19.9976 34.5H20.0028Z" fill="white"/>
<path d="M13.8247 27.2877C13.8247 30.6948 16.5959 33.4659 20.0029 33.4659C23.41 33.4659 26.1812 30.6948 26.1812 27.2877C26.1812 26.8534 26.1243 26.4295 26.0312 26.0159H13.9746C13.8867 26.4295 13.8247 26.8534 13.8247 27.2877Z" fill="#A3078D"/>
<path d="M23.079 21.9369L22.045 21.3423V16.5393H17.9762V21.3423L16.9421 21.9369C15.4066 22.8209 14.3468 24.3203 13.9849 26.016H26.0466C25.6847 24.3203 24.6249 22.8209 23.0894 21.9369H23.079Z" fill="#E0E0E0"/>
<path d="M26.0466 26.0158C26.0466 26.5741 23.3427 27.0291 20.0028 27.0291C16.6629 27.0291 13.959 26.5741 13.959 26.0158C13.959 25.4574 16.6629 25.0024 20.0028 25.0024C23.3427 25.0024 26.0466 25.4574 26.0466 26.0158Z" fill="#D108B3"/>
<g style="mix-blend-mode:overlay" opacity="0.6">
<path d="M16.0116 30.5965C15.7531 30.5965 15.4998 30.4673 15.355 30.2294C14.8122 29.3609 14.5278 28.3579 14.5278 27.329C14.5278 26.1709 14.8846 25.0645 15.5567 24.1288C15.8048 23.7824 16.2908 23.7048 16.6372 23.953C16.9836 24.2011 17.0612 24.6871 16.813 25.0335C16.3322 25.7056 16.0737 26.4967 16.0737 27.3239C16.0737 28.0632 16.2805 28.7818 16.6682 29.4022C16.8957 29.7641 16.782 30.245 16.4201 30.4724C16.2908 30.55 16.1512 30.5913 16.0116 30.5913V30.5965ZM18.6587 31.9045C18.8448 31.5168 18.6846 31.0567 18.2968 30.8705C18.1676 30.8085 18.0435 30.7413 17.9246 30.6637C17.5627 30.4414 17.0818 30.55 16.8544 30.9119C16.6269 31.2738 16.7406 31.7546 17.1025 31.9821C17.268 32.0855 17.4438 32.1837 17.6195 32.2665C17.7281 32.3182 17.8418 32.344 17.9556 32.344C18.2451 32.344 18.5191 32.1837 18.6535 31.9045H18.6587Z" fill="white"/>
</g>
<defs>
<filter id="filter0_d_20_3599" x="-2.20947" y="0.5" width="44.4194" height="49" filterUnits="userSpaceOnUse" color-interpolation-filters="sRGB">
<feFlood flood-opacity="0" result="BackgroundImageFix"/>
<feColorMatrix in="SourceAlpha" type="matrix" values="0 0 0 0 0 0 0 0 0 0 0 0 0 0 0 0 0 0 127 0" result="hardAlpha"/>
<feOffset/>
<feGaussianBlur stdDeviation="7.5"/>
<feComposite in2="hardAlpha" operator="out"/>
<feColorMatrix type="matrix" values="0 0 0 0 1 0 0 0 0 0 0 0 0 0 0 0 0 0 1 0"/>
<feBlend mode="normal" in2="BackgroundImageFix" result="effect1_dropShadow_20_3599"/>
<feBlend mode="normal" in="SourceGraphic" in2="effect1_dropShadow_20_3599" result="shape"/>
</filter>
</defs>
</svg>
