<svg width="24" height="20" viewBox="-1.5 0 24 20" fill="none" xmlns="http://www.w3.org/2000/svg">
<g id="Group">
<path id="Vector" d="M8.64153 10.3122C8.51956 10.3107 8.39932 10.2832 8.28884 10.2315L5.80993 8.97194L3.35118 10.2315C3.22554 10.2985 3.08353 10.3287 2.94151 10.3185C2.79949 10.3083 2.66324 10.2582 2.54846 10.1739C2.43367 10.0897 2.34502 9.97471 2.29271 9.84229C2.24041 9.70986 2.22657 9.56535 2.25281 9.4254L2.72642 6.67442L0.71105 4.71951C0.607211 4.62053 0.533263 4.49437 0.497631 4.3554C0.461999 4.21644 0.466116 4.07026 0.509513 3.93352C0.553506 3.79886 0.634463 3.67927 0.743149 3.5884C0.851835 3.49753 0.983873 3.43904 1.1242 3.4196L3.89533 3.01653L5.12471 0.517469C5.19572 0.400694 5.2956 0.304166 5.41473 0.237181C5.53386 0.170196 5.66822 0.13501 5.80489 0.13501C5.94157 0.13501 6.07594 0.170196 6.19507 0.237181C6.31419 0.304166 6.41407 0.400694 6.48508 0.517469L7.72453 3.0266L10.4957 3.42968C10.6349 3.45073 10.7655 3.51026 10.8727 3.60156C10.9799 3.69286 11.0595 3.8123 11.1024 3.94641C11.1454 4.08052 11.15 4.22396 11.1158 4.36056C11.0816 4.49716 11.0099 4.62148 10.9088 4.71951L8.89345 6.67442L9.39729 9.4254C9.42333 9.56459 9.40974 9.7083 9.35807 9.84014C9.30641 9.97198 9.21874 10.0867 9.10506 10.1711C8.96896 10.2651 8.80694 10.3144 8.64153 10.3122ZM2.85742 4.69936L4.04649 5.86827C4.13512 5.95247 4.2017 6.05716 4.24036 6.17313C4.27902 6.28911 4.28857 6.41281 4.26818 6.53335L3.98602 8.17587L5.45724 7.39995C5.56669 7.345 5.68746 7.31638 5.80993 7.31638C5.9324 7.31638 6.05318 7.345 6.16262 7.39995L7.63384 8.17587L7.38192 6.53335C7.36153 6.41281 7.37108 6.28911 7.40974 6.17313C7.4484 6.05716 7.51497 5.95247 7.60361 5.86827L8.79268 4.69936L7.10985 4.46759C6.98974 4.44848 6.87591 4.40104 6.77778 4.3292C6.67965 4.25735 6.60004 4.16317 6.54554 4.05444L5.80993 2.55299L5.07432 4.05444C5.01886 4.16442 4.9377 4.2594 4.83771 4.33132C4.73771 4.40325 4.62185 4.44999 4.49994 4.46759L2.85742 4.69936Z" fill="#CB9E31"/>
<path id="Vector_2" d="M10.7376 19.8649C10.5791 19.8631 10.4247 19.814 10.2942 19.7239C10.1796 19.6398 10.0906 19.5256 10.0373 19.3939C9.98387 19.2622 9.96817 19.1183 9.99192 18.9782L10.5764 15.6125L8.12771 13.2243C8.02441 13.1272 7.95138 13.0023 7.91742 12.8646C7.88345 12.7269 7.88999 12.5824 7.93625 12.4484C7.97948 12.3151 8.05891 12.1964 8.16568 12.1057C8.27245 12.0149 8.40234 11.9556 8.54086 11.9345L11.9267 11.4508L13.4281 8.37733C13.4991 8.26056 13.599 8.16403 13.7181 8.09704C13.8373 8.03006 13.9716 7.99487 14.1083 7.99487C14.245 7.99487 14.3794 8.03006 14.4985 8.09704C14.6176 8.16403 14.7175 8.26056 14.7885 8.37733L16.3 11.4508L19.6758 11.9345C19.8158 11.954 19.9476 12.0124 20.0561 12.103C20.1647 12.1937 20.2456 12.313 20.2897 12.4474C20.3338 12.5817 20.3393 12.7258 20.3056 12.8631C20.2718 13.0005 20.2003 13.1256 20.099 13.2243L17.6604 15.6125L18.2348 18.9782C18.2596 19.1173 18.2455 19.2606 18.1939 19.3923C18.1423 19.5239 18.0553 19.6386 17.9426 19.7239C17.8238 19.8002 17.6857 19.8408 17.5445 19.8408C17.4034 19.8408 17.2652 19.8002 17.1465 19.7239L14.1234 18.1418L11.1004 19.7239C10.9943 19.8026 10.869 19.8513 10.7376 19.8649ZM10.2741 13.2142L11.9166 14.8064C12.0029 14.8941 12.067 15.001 12.1038 15.1184C12.1406 15.2358 12.149 15.3603 12.1282 15.4815L11.7453 17.7286L13.7607 16.6605C13.8701 16.6055 13.9909 16.5769 14.1134 16.5769C14.2358 16.5769 14.3566 16.6055 14.466 16.6605L16.4814 17.7286L16.0985 15.4815C16.0732 15.3603 16.0794 15.2346 16.1164 15.1164C16.1535 14.9982 16.2201 14.8915 16.3101 14.8064L17.9426 13.2142L15.6853 12.8817C15.5641 12.8659 15.4488 12.8198 15.3501 12.7476C15.2515 12.6754 15.1727 12.5794 15.121 12.4685L14.1134 10.4532L13.1057 12.4685C13.054 12.5794 12.9752 12.6754 12.8766 12.7476C12.7779 12.8198 12.6626 12.8659 12.5414 12.8817L10.2741 13.2142Z" fill="#CB9E31"/>
</g>
</svg>
