<svg width="24" height="20" viewBox="-1.5 0 24 20" fill="none" xmlns="http://www.w3.org/2000/svg">
<g id="noun-bag-1561002 1" clip-path="url(#clip0_19_3446)">
<path id="Union" fill-rule="evenodd" clip-rule="evenodd" d="M6.48923 4.24546V5.06754H4.02299C3.82161 5.06593 3.62673 5.13832 3.47521 5.27092C3.32369 5.40352 3.22607 5.58709 3.20091 5.78686L1.55675 18.9401C1.52711 19.1754 1.60044 19.4119 1.75792 19.5891C1.91547 19.7663 2.1418 19.8669 2.37883 19.865H18.8204C19.0575 19.8669 19.2838 19.7663 19.4413 19.5891C19.5988 19.4119 19.6722 19.1754 19.6425 18.9401L17.9983 5.78686C17.9732 5.58709 17.8756 5.40351 17.724 5.27092C17.5725 5.13832 17.3776 5.06593 17.1763 5.06754H14.71V4.24546C14.71 3.15531 14.277 2.10977 13.5061 1.33889C12.7352 0.568057 11.6899 0.13501 10.5996 0.13501C9.50929 0.13501 8.46388 0.568057 7.69301 1.33889C6.92217 2.1098 6.48912 3.15518 6.48912 4.24546H6.48923ZM17.8894 18.2208H3.30983L4.74847 6.7117H16.4508L17.8894 18.2208ZM8.13339 4.24546C8.13339 3.36438 8.60343 2.55019 9.36651 2.10959C10.1296 1.66904 11.0697 1.66904 11.8327 2.10959C12.5958 2.55014 13.0659 3.36433 13.0659 4.24546V5.06754H8.13339V4.24546ZM8.13337 9.17795C8.13337 9.63194 7.76529 10 7.31129 10C6.8573 10 6.48921 9.63194 6.48921 9.17795C6.48921 8.72395 6.8573 8.35587 7.31129 8.35587C7.76529 8.35587 8.13337 8.72395 8.13337 9.17795ZM13.888 10C14.342 10 14.7101 9.63194 14.7101 9.17795C14.7101 8.72395 14.342 8.35587 13.888 8.35587C13.434 8.35587 13.0659 8.72395 13.0659 9.17795C13.0659 9.63194 13.434 10 13.888 10Z" fill="#CB9E31"/>
</g>
<defs>
<clipPath id="clip0_19_3446">
<rect width="19.73" height="19.73" fill="#CB9E31" transform="translate(0.734863 0.13501)"/>
</clipPath>
</defs>
</svg>
