<svg width="24" height="20" viewBox="-3 0 24 20" fill="none" xmlns="http://www.w3.org/2000/svg">
<path d="M17.2002 19.865C17.0014 19.8648 16.8107 19.7922 16.6702 19.6631L13.2002 16.4787L9.73021 19.6631C9.58959 19.792 9.39896 19.8644 9.20021 19.8644C9.00146 19.8644 8.81084 19.792 8.67021 19.6631L5.20021 16.4787L1.73021 19.6631C1.62481 19.7595 1.49057 19.8249 1.34455 19.851C1.19854 19.8772 1.04735 19.8629 0.910212 19.8099C0.773398 19.7586 0.656464 19.6709 0.574478 19.558C0.492492 19.4452 0.449211 19.3124 0.450212 19.1767V0.822682C0.450343 0.686641 0.4944 0.553688 0.57682 0.440612C0.65924 0.327537 0.776326 0.239412 0.913289 0.187368C1.05025 0.135324 1.20095 0.121695 1.34635 0.148202C1.49175 0.174709 1.62533 0.240164 1.73021 0.336299L5.20021 3.52073L8.67021 0.336299C8.81084 0.207408 9.00146 0.13501 9.20021 0.13501C9.39896 0.13501 9.58959 0.207408 9.73021 0.336299L13.2002 3.52073L16.6702 0.336299C16.7751 0.240164 16.9087 0.174709 17.0541 0.148202C17.1995 0.121695 17.3502 0.135324 17.4871 0.187368C17.6241 0.239412 17.7412 0.327537 17.8236 0.440612C17.906 0.553688 17.9501 0.686641 17.9502 0.822682V19.1767C17.9512 19.3124 17.9079 19.4452 17.8259 19.558C17.744 19.6709 17.627 19.7586 17.4902 19.8099C17.3985 19.8458 17.2999 19.8645 17.2002 19.865ZM5.20021 14.8176C5.29875 14.8172 5.39639 14.8349 5.48741 14.8695C5.57842 14.9042 5.66097 14.9552 5.73021 15.0195L9.20021 18.204L12.6702 15.0195C12.8108 14.8906 13.0015 14.8183 13.2002 14.8183C13.399 14.8183 13.5896 14.8906 13.7302 15.0195L16.4502 17.5157V2.48372L13.7302 4.97987C13.5896 5.10877 13.399 5.18116 13.2002 5.18116C13.0015 5.18116 12.8108 5.10877 12.6702 4.97987L9.20021 1.79545L5.73021 4.97987C5.58959 5.10877 5.39896 5.18116 5.20021 5.18116C5.00146 5.18116 4.81084 5.10877 4.67021 4.97987L1.95021 2.48372V17.5157L4.67021 15.0195C4.73946 14.9552 4.82201 14.9042 4.91302 14.8695C5.00403 14.8349 5.10167 14.8172 5.20021 14.8176Z" fill="#CB9E31"/>
<path d="M13.2002 8.39364H5.2002C5.00128 8.39364 4.81052 8.32113 4.66987 8.19205C4.52921 8.06297 4.4502 7.88791 4.4502 7.70537C4.4502 7.52282 4.52921 7.34776 4.66987 7.21868C4.81052 7.0896 5.00128 7.01709 5.2002 7.01709H13.2002C13.3991 7.01709 13.5899 7.0896 13.7305 7.21868C13.8712 7.34776 13.9502 7.52282 13.9502 7.70537C13.9502 7.88791 13.8712 8.06297 13.7305 8.19205C13.5899 8.32113 13.3991 8.39364 13.2002 8.39364Z" fill="#CB9E31"/>
<path d="M13.2002 12.9823H5.2002C5.00128 12.9823 4.81052 12.9098 4.66987 12.7807C4.52921 12.6516 4.4502 12.4765 4.4502 12.294C4.4502 12.1114 4.52921 11.9364 4.66987 11.8073C4.81052 11.6782 5.00128 11.6057 5.2002 11.6057H13.2002C13.3991 11.6057 13.5899 11.6782 13.7305 11.8073C13.8712 11.9364 13.9502 12.1114 13.9502 12.294C13.9502 12.4765 13.8712 12.6516 13.7305 12.7807C13.5899 12.9098 13.3991 12.9823 13.2002 12.9823Z" fill="#CB9E31"/>
</svg>
