<svg width="24" height="24" viewBox="-2 -2 24 24" fill="none" xmlns="http://www.w3.org/2000/svg">
<g id="Group">
<path id="Vector" d="M17.7185 19.8664C17.1174 19.8664 16.5478 19.6277 16.1143 19.1942L13.3365 16.4165C13.2358 16.3157 13.1792 16.1791 13.1792 16.0366C13.1792 15.8941 13.2358 15.7576 13.3365 15.6567L15.6159 13.3773C15.7167 13.2766 15.8533 13.22 15.9959 13.22C16.1384 13.22 16.2749 13.2766 16.3758 13.3773L19.1535 16.155C19.5718 16.5732 19.8102 17.1229 19.8251 17.7031C19.8401 18.2935 19.6228 18.8443 19.2133 19.2539C18.8181 19.6489 18.2874 19.8664 17.7185 19.8664ZM14.4764 16.0368L16.8742 18.4346C17.1046 18.6651 17.4045 18.7921 17.7185 18.7921C18.0004 18.7921 18.2613 18.6864 18.4533 18.4943C18.6527 18.295 18.7583 18.0239 18.7509 17.7308C18.743 17.4274 18.6163 17.1376 18.3938 16.9151L15.996 14.5173L14.4764 16.0368Z" fill="#CB9E31"/>
<path id="Vector_2" d="M12.197 18.0935C12.0595 18.0935 11.922 18.041 11.817 17.9361C11.6072 17.7264 11.6072 17.3861 11.817 17.1763L17.5154 11.4777C17.7253 11.2679 18.0654 11.2679 18.2753 11.4777C18.485 11.6874 18.485 12.0277 18.2753 12.2374L12.5768 17.936C12.4719 18.0409 12.3345 18.0934 12.197 18.0934L12.197 18.0935Z" fill="#CB9E31"/>
<path id="Vector_3" d="M15.2359 19.6133C15.0984 19.6133 14.961 19.5608 14.8561 19.4559C14.6463 19.2462 14.6463 18.9059 14.8561 18.6961L18.6551 14.8971C18.8649 14.6873 19.205 14.6873 19.4148 14.8971C19.6246 15.1069 19.6246 15.4471 19.4148 15.6569L15.6158 19.4559C15.511 19.5608 15.3735 19.6133 15.2359 19.6133Z" fill="#CB9E31"/>
<path id="Vector_4" d="M6.20124 10.5786C6.05871 10.5786 5.92217 10.522 5.82139 10.4213L1.48003 6.07993C1.40611 6.00601 1.35538 5.91218 1.33402 5.80984L0.284783 0.780596C0.246904 0.599217 0.305269 0.411059 0.43901 0.282941C0.572748 0.154709 0.763202 0.10446 0.94285 0.15007L5.79101 1.38022C5.88475 1.40399 5.97037 1.45269 6.03879 1.52101L10.3801 5.86237C10.4808 5.96306 10.5375 6.0997 10.5375 6.24222C10.5375 6.38474 10.4808 6.52129 10.3801 6.62207L6.58112 10.4211C6.48033 10.5221 6.34376 10.5786 6.20124 10.5786ZM2.35316 5.43351L6.20124 9.28159L7.34092 8.1419L3.75952 4.56051C3.65468 4.45556 3.6022 4.31805 3.6022 4.18055C3.6022 4.04306 3.65468 3.90554 3.75952 3.8007C3.96931 3.59091 4.30955 3.59091 4.51935 3.8007L8.10075 7.3821L9.24043 6.24242L5.38345 2.38544L1.51219 1.40316L2.35316 5.43351Z" fill="#CB9E31"/>
<path id="Vector_5" d="M14.856 15.4343C14.7185 15.4343 14.581 15.3818 14.4761 15.277L11.5196 12.3205C11.4189 12.2197 11.3623 12.0831 11.3623 11.9407C11.3623 11.7981 11.4189 11.6615 11.5196 11.5607L13.4191 9.66121C13.6291 9.45142 13.9692 9.45152 14.179 9.66121L17.1352 12.6174C17.236 12.7182 17.2925 12.8548 17.2925 12.9974C17.2925 13.1399 17.2359 13.2764 17.1352 13.3773L15.2357 15.2768C15.1308 15.3817 14.9934 15.4341 14.8559 15.4341L14.856 15.4343ZM12.6595 11.9408L14.856 14.1374L15.9957 12.9977L13.7991 10.8011L12.6595 11.9408Z" fill="#CB9E31"/>
<path id="Vector_6" d="M12.956 17.3338C12.8185 17.3338 12.6811 17.2813 12.5762 17.1764L9.61975 14.2202C9.40995 14.0105 9.40995 13.6702 9.61975 13.4604L11.5193 11.5609C11.7291 11.3511 12.0692 11.3511 12.2791 11.5609L15.2353 14.5171C15.4451 14.7269 15.4451 15.0671 15.2353 15.2769L13.3358 17.1764C13.2309 17.2813 13.0935 17.3338 12.9559 17.3338H12.956ZM10.7596 13.8403L12.956 16.0368L14.0957 14.8971L11.8992 12.7006L10.7596 13.8403Z" fill="#CB9E31"/>
<path id="Vector_7" d="M8.10023 8.67893C7.96273 8.67893 7.82522 8.62656 7.72028 8.52161L3.75891 4.56024C3.54911 4.35045 3.54911 4.01021 3.75891 3.80041C3.9687 3.59062 4.30893 3.59062 4.51874 3.80041L8.48011 7.76179C8.6899 7.97158 8.6899 8.31181 8.48011 8.52161C8.37526 8.62656 8.23763 8.67893 8.10023 8.67893Z" fill="#CB9E31"/>
<path id="Vector_8" d="M14.856 15.4342C14.7185 15.4342 14.581 15.3817 14.4761 15.2768L11.5196 12.3204C11.3099 12.1106 11.3099 11.7705 11.5196 11.5607C11.7295 11.3509 12.0696 11.3509 12.2795 11.5607L15.2357 14.5169C15.4455 14.7267 15.4455 15.0669 15.2357 15.2767C15.1308 15.3815 14.9934 15.434 14.8559 15.434L14.856 15.4342Z" fill="#CB9E31"/>
<path id="Vector_9" d="M7.04372 17.3338C6.90621 17.3338 6.7687 17.2813 6.66386 17.1765L2.86484 13.3775C2.76415 13.2767 2.70752 13.14 2.70752 12.9975C2.70752 12.855 2.76415 12.7183 2.86484 12.6175L13.9614 1.52097C14.0298 1.45256 14.1154 1.40395 14.2092 1.38018L19.0576 0.15003C19.237 0.104517 19.4276 0.154668 19.5613 0.2829C19.6951 0.411132 19.7534 0.599176 19.7157 0.780556L18.6664 5.8098C18.6451 5.91214 18.5943 6.00597 18.5204 6.07999L7.42359 17.1766C7.31865 17.2814 7.18121 17.3338 7.04372 17.3338ZM4.0044 12.9975L7.04372 16.0368L17.6473 5.43348L18.4881 1.40316L14.6168 2.38543L4.0044 12.9975Z" fill="#CB9E31"/>
<path id="Vector_10" d="M2.28194 19.8664C1.71306 19.8664 1.18226 19.6489 0.787313 19.2539C0.377775 18.8443 0.160451 18.2936 0.175541 17.7031C0.190326 17.1229 0.428809 16.5732 0.847056 16.155L3.62479 13.3773C3.72558 13.2766 3.86222 13.22 4.00474 13.22C4.14727 13.22 4.28381 13.2766 4.3847 13.3773L6.66409 15.6567C6.87388 15.8665 6.87388 16.2067 6.66409 16.4164L3.88635 19.1941C3.45276 19.6276 2.88297 19.8664 2.28194 19.8664ZM4.0046 14.5171L1.60684 16.9149C1.38429 17.1375 1.25741 17.4272 1.24967 17.7306C1.24223 18.0238 1.34775 18.2948 1.54709 18.4941C1.7391 18.6862 2.0001 18.7919 2.28189 18.7919C2.59594 18.7919 2.89579 18.6649 3.12627 18.4344L5.52403 16.0366L4.0046 14.5171Z" fill="#CB9E31"/>
<path id="Vector_11" d="M7.80373 18.0936C7.66622 18.0936 7.52871 18.0411 7.42387 17.9363L1.72521 12.2376C1.51542 12.0278 1.51542 11.6876 1.72521 11.4779C1.93501 11.2681 2.27524 11.2681 2.48504 11.4779L8.1837 17.1766C8.39349 17.3864 8.39349 17.7266 8.1837 17.9364C8.07876 18.0412 7.94125 18.0937 7.80375 18.0937L7.80373 18.0936Z" fill="#CB9E31"/>
<path id="Vector_12" d="M4.76444 19.6133C4.62693 19.6133 4.48943 19.5608 4.38459 19.4559L0.585566 15.6569C0.375775 15.4471 0.375775 15.1069 0.585566 14.8971C0.795357 14.6873 1.13559 14.6873 1.3454 14.8971L5.14442 18.6961C5.35421 18.9059 5.35421 19.2461 5.14442 19.4559C5.03947 19.5608 4.90197 19.6133 4.76447 19.6133H4.76444Z" fill="#CB9E31"/>
<path id="Vector_13" d="M5.14423 15.4342C5.00672 15.4342 4.86922 15.3817 4.76428 15.2768C4.55449 15.0671 4.55449 14.7268 4.76428 14.517L11.4811 7.80017C11.6909 7.59037 12.0311 7.59037 12.241 7.80017C12.4507 8.00996 12.4507 8.35019 12.241 8.56L5.52411 15.2768C5.41916 15.3817 5.28173 15.4342 5.14423 15.4342Z" fill="#CB9E31"/>
</g>
</svg>
