<svg width="24" height="24" viewBox="-2 0 24 24" fill="none" xmlns="http://www.w3.org/2000/svg">
<g id="Group">
<path id="Vector" d="M10.0503 12.25C8.91305 12.25 7.80135 11.9128 6.85577 11.281C5.91018 10.6491 5.17319 9.75111 4.73799 8.70043C4.30278 7.64976 4.18892 6.49362 4.41078 5.37823C4.63265 4.26284 5.18028 3.23829 5.98443 2.43414C6.78858 1.62999 7.81314 1.08235 8.92853 0.860487C10.0439 0.638622 11.2001 0.752491 12.2507 1.1877C13.3014 1.6229 14.1994 2.35989 14.8312 3.30547C15.4631 4.25106 15.8003 5.36276 15.8003 6.5C15.7977 8.02419 15.191 9.48518 14.1132 10.5629C13.0355 11.6407 11.5745 12.2474 10.0503 12.25ZM10.0503 2.25C9.20972 2.25 8.38803 2.49926 7.68912 2.96626C6.99021 3.43325 6.44548 4.09701 6.12381 4.8736C5.80214 5.65018 5.71797 6.50472 5.88196 7.32914C6.04594 8.15356 6.45072 8.91083 7.04509 9.50521C7.63946 10.0996 8.39674 10.5044 9.22116 10.6683C10.0456 10.8323 10.9001 10.7482 11.6767 10.4265C12.4533 10.1048 13.117 9.56009 13.584 8.86118C14.051 8.16227 14.3003 7.34057 14.3003 6.5C14.2977 5.37364 13.849 4.29417 13.0526 3.49772C12.2561 2.70126 11.1767 2.25264 10.0503 2.25Z" fill="#CB9E31"/>
<path id="Vector_2" d="M1.05029 20.25C0.852186 20.2474 0.662922 20.1676 0.522827 20.0275C0.382732 19.8874 0.302883 19.6981 0.300293 19.5C0.305575 17.181 1.22914 14.9585 2.86894 13.3187C4.50874 11.6789 6.73127 10.7553 9.05029 10.75H11.0503C11.2492 10.75 11.44 10.829 11.5806 10.9697C11.7213 11.1103 11.8003 11.3011 11.8003 11.5C11.8003 11.6989 11.7213 11.8897 11.5806 12.0303C11.44 12.171 11.2492 12.25 11.0503 12.25H9.05029C7.12829 12.2526 5.28576 13.0173 3.92669 14.3764C2.56763 15.7355 1.80294 17.578 1.80029 19.5C1.7977 19.6981 1.71785 19.8874 1.57776 20.0275C1.43766 20.1676 1.2484 20.2474 1.05029 20.25Z" fill="#CB9E31"/>
<path id="Vector_3" d="M14.5503 23.25C14.3522 23.2474 14.1629 23.1676 14.0228 23.0275C13.8827 22.8874 13.8029 22.6981 13.8003 22.5V14.5C13.8003 14.3011 13.8793 14.1103 14.02 13.9697C14.1606 13.829 14.3514 13.75 14.5503 13.75C14.7492 13.75 14.94 13.829 15.0806 13.9697C15.2213 14.1103 15.3003 14.3011 15.3003 14.5V22.5C15.2977 22.6981 15.2179 22.8874 15.0778 23.0275C14.9377 23.1676 14.7484 23.2474 14.5503 23.25Z" fill="#CB9E31"/>
<path id="Vector_4" d="M18.5503 19.25H10.5503C10.3514 19.25 10.1606 19.171 10.02 19.0303C9.87931 18.8897 9.80029 18.6989 9.80029 18.5C9.80029 18.3011 9.87931 18.1103 10.02 17.9697C10.1606 17.829 10.3514 17.75 10.5503 17.75H18.5503C18.7492 17.75 18.94 17.829 19.0806 17.9697C19.2213 18.1103 19.3003 18.3011 19.3003 18.5C19.3003 18.6989 19.2213 18.8897 19.0806 19.0303C18.94 19.171 18.7492 19.25 18.5503 19.25Z" fill="#CB9E31"/>
</g>
</svg>
