<svg width="23" height="24" viewBox="0 0 23 24" fill="none" xmlns="http://www.w3.org/2000/svg">
<path d="M11.5088 23.0977C10.2549 23.0977 9.05664 22.9014 7.91406 22.5088C6.77734 22.1221 5.73145 21.5771 4.77637 20.874C3.82129 20.1709 2.99219 19.3418 2.28906 18.3867C1.58594 17.4316 1.03809 16.3828 0.645508 15.2402C0.258789 14.0977 0.0654297 12.9023 0.0654297 11.6543C0.0654297 10.4004 0.258789 9.20508 0.645508 8.06836C1.03223 6.92578 1.57715 5.87695 2.28027 4.92188C2.98926 3.9668 3.81836 3.1377 4.76758 2.43457C5.72266 1.72559 6.76855 1.17773 7.90527 0.791016C9.04785 0.398437 10.2461 0.202148 11.5 0.202148C12.7539 0.202148 13.9521 0.398437 15.0947 0.791016C16.2373 1.17773 17.2861 1.72559 18.2412 2.43457C19.1963 3.1377 20.0254 3.9668 20.7285 4.92188C21.4375 5.87695 21.9854 6.92578 22.3721 8.06836C22.7646 9.20508 22.9609 10.4004 22.9609 11.6543C22.9609 12.9023 22.7646 14.0977 22.3721 15.2402C21.9854 16.3828 21.4375 17.4316 20.7285 18.3867C20.0254 19.3418 19.1963 20.1709 18.2412 20.874C17.2861 21.5771 16.2373 22.1221 15.0947 22.5088C13.958 22.9014 12.7627 23.0977 11.5088 23.0977ZM11.5088 21.4629C12.5986 21.4629 13.6328 21.2959 14.6113 20.9619C15.5957 20.6338 16.4951 20.1709 17.3096 19.5732C18.1299 18.9756 18.8389 18.2695 19.4365 17.4551C20.04 16.6348 20.5059 15.7354 20.834 14.7568C21.1621 13.7725 21.3232 12.7383 21.3174 11.6543C21.3174 10.5645 21.1504 9.53027 20.8164 8.55176C20.4883 7.56738 20.0254 6.66797 19.4277 5.85352C18.8301 5.0332 18.1211 4.32422 17.3008 3.72656C16.4863 3.12891 15.5869 2.66602 14.6025 2.33789C13.624 2.00977 12.5898 1.8457 11.5 1.8457C10.416 1.8457 9.38184 2.00977 8.39746 2.33789C7.41895 2.66602 6.52246 3.12891 5.70801 3.72656C4.89355 4.32422 4.1875 5.0332 3.58984 5.85352C2.99219 6.66797 2.5293 7.56738 2.20117 8.55176C1.87305 9.53027 1.70898 10.5645 1.70898 11.6543C1.70898 12.7383 1.87305 13.7725 2.20117 14.7568C2.5293 15.7354 2.99219 16.6348 3.58984 17.4551C4.19336 18.2695 4.90234 18.9756 5.7168 19.5732C6.53125 20.1709 7.42773 20.6338 8.40625 20.9619C9.39062 21.2959 10.4248 21.4629 11.5088 21.4629ZM6.24414 13.2363C5.81055 13.2363 5.43848 13.084 5.12793 12.7793C4.81738 12.4688 4.66211 12.0938 4.66211 11.6543C4.66211 11.2148 4.81738 10.8428 5.12793 10.5381C5.43848 10.2275 5.81055 10.0723 6.24414 10.0723C6.67773 10.0723 7.0498 10.2275 7.36035 10.5381C7.6709 10.8428 7.82617 11.2148 7.82617 11.6543C7.82617 12.0938 7.6709 12.4688 7.36035 12.7793C7.05566 13.084 6.68359 13.2363 6.24414 13.2363ZM11.5 13.2363C11.0605 13.2363 10.6855 13.084 10.375 12.7793C10.0703 12.4688 9.91797 12.0938 9.91797 11.6543C9.91797 11.2148 10.0703 10.8428 10.375 10.5381C10.6855 10.2275 11.0605 10.0723 11.5 10.0723C11.9336 10.0723 12.3057 10.2275 12.6162 10.5381C12.9268 10.8428 13.082 11.2148 13.082 11.6543C13.082 12.0938 12.9268 12.4688 12.6162 12.7793C12.3057 13.084 11.9336 13.2363 11.5 13.2363ZM16.7559 13.2363C16.3164 13.2363 15.9414 13.084 15.6309 12.7793C15.3203 12.4688 15.165 12.0938 15.165 11.6543C15.165 11.2148 15.3203 10.8428 15.6309 10.5381C15.9414 10.2275 16.3164 10.0723 16.7559 10.0723C17.1895 10.0723 17.5615 10.2275 17.8721 10.5381C18.1826 10.8428 18.3379 11.2148 18.3379 11.6543C18.3379 12.0938 18.1826 12.4688 17.8721 12.7793C17.5615 13.084 17.1895 13.2363 16.7559 13.2363Z" fill="white"/>
</svg>
