<svg width="42" height="39" viewBox="0 0 42 39" fill="none" xmlns="http://www.w3.org/2000/svg">
<path d="M40.6458 13.8212C40.7994 13.6321 40.7944 13.3599 40.634 13.1766L30.134 1.17661C30.0391 1.0681 29.9019 1.00586 29.7578 1.00586H11.7578C11.6136 1.00586 11.4764 1.0681 11.3815 1.17661L0.881463 13.1766C0.721072 13.3599 0.716102 13.6321 0.869694 13.8212L20.3697 37.8212C20.4646 37.938 20.6072 38.0059 20.7578 38.0059C20.9083 38.0059 21.0509 37.938 21.1458 37.8212L40.6458 13.8212Z" fill="#CB9E31" stroke="url(#paint0_linear_475_18001)" stroke-linecap="round" stroke-linejoin="round"/>
<path d="M29.7578 1.50586L40.2578 13.5059H1.25775L11.7578 1.50586H29.7578Z" fill="url(#paint1_linear_475_18001)"/>
<path d="M40.2578 13.5059L20.7578 37.5059V1.50586H29.7578L40.2578 13.5059Z" fill="url(#paint2_linear_475_18001)"/>
<path d="M40.2578 13.5059H20.7578V1.50586H29.7578L40.2578 13.5059Z" fill="#FEEDB0"/>
<path d="M1.25775 13.5059L20.7578 37.5059L10.7578 13.5059L20.7578 1.50586H11.7577L1.25775 13.5059Z" fill="url(#paint3_linear_475_18001)"/>
<path d="M12.2577 1.50586L1.25775 13.5059H10.7578L20.7578 1.50586H12.2577Z" fill="url(#paint4_linear_475_18001)"/>
<path d="M1.25775 13.5059L20.7578 37.5059L4.75775 13.5059L15.2578 1.50586H11.7577L1.25775 13.5059Z" fill="url(#paint5_linear_475_18001)"/>
<path d="M11.7577 1.50586L1.25775 13.5059H4.75775L15.2578 1.50586H11.7577Z" fill="url(#paint6_linear_475_18001)"/>
<path d="M40.2578 13.5059L20.7578 37.5059L30.7578 13.5059L20.7578 1.50586H29.7578L40.2578 13.5059Z" fill="url(#paint7_linear_475_18001)"/>
<path d="M29.7578 1.50586L40.2578 13.5059H30.7578L20.7578 1.50586H29.7578Z" fill="url(#paint8_linear_475_18001)"/>
<path d="M40.2578 13.5059L20.7578 37.5059L36.7578 13.5059L26.2578 1.50586H29.7578L40.2578 13.5059Z" fill="url(#paint9_linear_475_18001)"/>
<path d="M29.7578 1.50586L40.2578 13.5059H36.7578L26.2578 1.50586H29.7578Z" fill="url(#paint10_linear_475_18001)"/>
<defs>
<linearGradient id="paint0_linear_475_18001" x1="8.09034" y1="6.51194" x2="46.5755" y2="26.1718" gradientUnits="userSpaceOnUse">
<stop stop-color="#FEEDB1"/>
<stop offset="1" stop-color="#E7A92D"/>
</linearGradient>
<linearGradient id="paint1_linear_475_18001" x1="8.09034" y1="3.17455" x2="22.5822" y2="25.3838" gradientUnits="userSpaceOnUse">
<stop stop-color="#FEEDB1"/>
<stop offset="1" stop-color="#E7A92D"/>
</linearGradient>
<linearGradient id="paint2_linear_475_18001" x1="20.7578" y1="-1.32748" x2="47.7767" y2="3.80208" gradientUnits="userSpaceOnUse">
<stop stop-color="#FEEDB1"/>
<stop offset="1" stop-color="#B57914"/>
</linearGradient>
<linearGradient id="paint3_linear_475_18001" x1="17.3415" y1="6.51194" x2="4.47452" y2="21.2413" gradientUnits="userSpaceOnUse">
<stop stop-color="#FEEDB1"/>
<stop offset="0.349748" stop-color="#F6D583"/>
<stop offset="1" stop-color="#E7A92D"/>
</linearGradient>
<linearGradient id="paint4_linear_475_18001" x1="18.0911" y1="2.33919" x2="2.10328" y2="14.9287" gradientUnits="userSpaceOnUse">
<stop stop-color="#FEEDB1"/>
<stop offset="1" stop-color="#B57914"/>
</linearGradient>
<linearGradient id="paint5_linear_475_18001" x1="17.3415" y1="6.51194" x2="17.9556" y2="-6.44016" gradientUnits="userSpaceOnUse">
<stop stop-color="#FEEDB1"/>
<stop offset="1" stop-color="#E7A92D"/>
</linearGradient>
<linearGradient id="paint6_linear_475_18001" x1="12.805" y1="3.17455" x2="-0.567987" y2="10.5316" gradientUnits="userSpaceOnUse">
<stop stop-color="#FEEDB1"/>
<stop offset="1" stop-color="#E7A92D"/>
</linearGradient>
<linearGradient id="paint7_linear_475_18001" x1="24.174" y1="6.51194" x2="46.9521" y2="12.33" gradientUnits="userSpaceOnUse">
<stop stop-color="#FEEDB1"/>
<stop offset="1" stop-color="#E7A92D"/>
</linearGradient>
<linearGradient id="paint8_linear_475_18001" x1="24.174" y1="3.17455" x2="39.4618" y2="14.889" gradientUnits="userSpaceOnUse">
<stop stop-color="#FEEDB1"/>
<stop offset="1" stop-color="#E7A92D"/>
</linearGradient>
<linearGradient id="paint9_linear_475_18001" x1="33.0911" y1="18.6725" x2="37.1389" y2="31.9229" gradientUnits="userSpaceOnUse">
<stop stop-color="#FEEDB1"/>
<stop offset="1" stop-color="#E7A92D"/>
</linearGradient>
<linearGradient id="paint10_linear_475_18001" x1="28.7105" y1="3.17455" x2="71.5105" y2="11.1647" gradientUnits="userSpaceOnUse">
<stop stop-color="#FEEDB1"/>
<stop offset="1" stop-color="#E7A92D"/>
</linearGradient>
</defs>
</svg>
