<svg width="37" height="37" viewBox="0 0 37 37" fill="none" xmlns="http://www.w3.org/2000/svg">
<rect x="0.757751" y="0.505859" width="36" height="36" rx="18" fill="#00B0F2"/>
<path fill-rule="evenodd" clip-rule="evenodd" d="M22.7593 27.4187C24.0175 27.9691 24.4893 26.8158 24.4893 26.8158L27.8181 10.0931C27.7919 8.96605 26.2716 9.64754 26.2716 9.64754L7.63554 16.9604C7.63554 16.9604 6.74437 17.275 6.823 17.8254C6.90163 18.3758 7.60933 18.6379 7.60933 18.6379L12.3011 20.2106C12.3011 20.2106 13.7165 24.85 14.0048 25.7412C14.2669 26.6061 14.5028 26.6323 14.5028 26.6323C14.765 26.7372 15.0009 26.5537 15.0009 26.5537L18.0413 23.8015L22.7593 27.4187ZM23.5719 13.0552C23.5719 13.0552 24.2272 12.6621 24.201 13.0552C24.201 13.0552 24.3059 13.1077 23.9651 13.4746C23.6506 13.7891 16.2328 20.4468 15.2368 21.3379C15.1582 21.3904 15.1058 21.469 15.1058 21.5738L14.8174 24.0377C14.765 24.2998 14.4243 24.326 14.3456 24.0901L13.1137 20.0536C13.0613 19.8963 13.1137 19.7129 13.271 19.608L23.5719 13.0552Z" fill="white"/>
</svg>
