<svg width="37" height="37" viewBox="0 0 37 37" fill="none" xmlns="http://www.w3.org/2000/svg">
<path d="M1.76047 31.9809H1.75504V4.03079C1.75504 2.63666 2.88927 1.50586 4.27997 1.50586H33.2355C34.6297 1.50586 35.7605 2.64009 35.7605 4.03079V32.9809C35.7605 34.3751 34.6262 35.5059 33.2355 35.5059H4.28541C2.89128 35.5059 1.76047 34.3716 1.76047 32.9809V31.9809Z" fill="white" stroke="url(#paint0_linear_475_18014)" stroke-width="2"/>
<path d="M8.83032 2.62695L8.84012 3.81303C8.84501 4.43971 8.3407 4.95789 7.71401 4.96277L5.22971 4.98231L5.24925 7.46661C5.25413 8.09329 4.74982 8.61146 4.12314 8.61634L2.93706 8.62615L2.88409 2.67992L8.83691 2.63091L8.83032 2.62695Z" fill="#DB8231"/>
<path d="M28.4472 2.67992L28.457 3.866C28.4619 4.49268 28.9748 4.99831 29.6067 4.99211L32.091 4.97257L32.1106 7.45687C32.1154 8.08355 32.6283 8.58918 33.2603 8.58298L34.4464 8.57318L34.3934 2.62695L28.4406 2.67596L28.4472 2.67992Z" fill="#DB8231"/>
<path d="M8.88329 33.7933L8.87349 32.6072C8.8686 31.9805 8.35571 31.4749 7.72375 31.4811L5.23945 31.5006L5.21991 29.0163C5.21503 28.3896 4.70213 27.884 4.07017 27.8902L2.88409 27.9L2.93706 33.8462L8.88988 33.7972L8.88329 33.7933Z" fill="#DB8231"/>
<path d="M28.5002 33.8464L28.4904 32.6603C28.4855 32.0336 28.9899 31.5154 29.6165 31.5105L32.1008 31.491L32.0813 29.0067C32.0764 28.38 32.5807 27.8619 33.2074 27.857L34.3935 27.8472L34.4465 33.7934L28.4936 33.8424L28.5002 33.8464Z" fill="#DB8231"/>
<path d="M23.8176 12.9174C22.6711 11.8985 22.5564 10.1368 23.5753 8.9904C24.5942 7.84398 26.3559 7.72923 27.5023 8.74813C28.6487 9.76703 28.7635 11.5287 27.7446 12.6752C26.7257 13.8216 24.964 13.9363 23.8176 12.9174Z" fill="#F6C454"/>
<path d="M13.1201 25.0191C11.9737 24.0002 10.212 24.115 9.19311 25.2614C8.1742 26.4078 8.28896 28.1695 9.43538 29.1884C10.5818 30.2073 12.3435 30.0926 13.3624 28.9461C14.3813 27.7997 14.2665 26.038 13.1201 25.0191Z" fill="#F6C454"/>
<path d="M16.5881 21.0185C15.4416 19.9996 15.3269 18.2379 16.3458 17.0915C17.3647 15.9451 19.1264 15.8303 20.2728 16.8492C21.4192 17.8681 21.534 19.6298 20.5151 20.7762C19.4962 21.9226 17.7345 22.0374 16.5881 21.0185Z" fill="#F6C454"/>
<defs>
<linearGradient id="paint0_linear_475_18014" x1="5.76187" y1="30.1989" x2="23.0409" y2="-6.44982" gradientUnits="userSpaceOnUse">
<stop stop-color="#FEEDB1"/>
<stop offset="1" stop-color="#E7A92D"/>
</linearGradient>
</defs>
</svg>
