<svg width="36" height="36" viewBox="0 0 36 36" fill="none" xmlns="http://www.w3.org/2000/svg">
<path d="M1.00544 31.4751H1V3.52493C1 2.1308 2.13423 1 3.52493 1H32.4805C33.8746 1 35.0054 2.13423 35.0054 3.52493V32.4751C35.0054 33.8692 33.8712 35 32.4805 35H3.53037C2.13624 35 1.00544 33.8658 1.00544 32.4751V31.4751Z" fill="white" stroke="url(#paint0_linear_834_6489)" stroke-width="2"/>
<mask id="mask0_834_6489" style="mask-type:alpha" maskUnits="userSpaceOnUse" x="0" y="0" width="37" height="36">
<path d="M1.00544 31.4751H1V3.52493C1 2.1308 2.13423 1 3.52493 1H32.4805C33.8746 1 35.0054 2.13423 35.0054 3.52493V32.4751C35.0054 33.8692 33.8712 35 32.4805 35H3.53037C2.13624 35 1.00544 33.8658 1.00544 32.4751V31.4751Z" fill="white" stroke="url(#paint1_linear_834_6489)" stroke-width="2"/>
</mask>
<g mask="url(#mask0_834_6489)">
<path d="M18.1573 16.4022L29.5435 4.57576L34.0246 20.4064L22.6374 32.2294L18.1573 16.4022Z" fill="#CB9E31"/>
<path d="M18.1573 16.402L22.6374 32.2292L6.65028 28.1549L2.16919 12.3242L18.1573 16.402Z" fill="url(#paint2_linear_834_6489)"/>
<g style="mix-blend-mode:overlay" opacity="0.8">
<path d="M2.16919 12.3242L2.26078 12.6478L18.2489 16.7256L29.6361 4.90253L29.5435 4.57552L18.1573 16.402L2.16919 12.3242Z" fill="white"/>
</g>
<path d="M2.16917 12.3241L13.5598 0.500083L29.5435 4.57539L18.1573 16.4019L2.16917 12.3241Z" fill="url(#paint3_linear_834_6489)"/>
<path d="M17.9753 6.25137C16.3313 5.83184 14.0521 6.47699 12.8823 7.69303C11.7148 8.90466 12.0968 10.228 13.7408 10.6475C15.3803 11.0646 17.6595 10.4194 18.827 9.20777C19.9969 7.99173 19.6149 6.66843 17.9753 6.25137Z" fill="#333333"/>
<path d="M17.7232 25.645C17.2735 25.2071 16.7698 24.9184 16.3103 24.7994C15.8519 24.6838 15.4422 24.7402 15.1893 24.9977C14.6835 25.5127 14.9977 26.6358 15.8927 27.509C16.3424 27.9469 16.8462 28.2356 17.3056 28.3546C17.7641 28.4702 18.1738 28.4137 18.4267 28.1563C18.9281 27.6388 18.6139 26.5157 17.7232 25.645Z" fill="#333333"/>
<path d="M13.3176 21.3415C12.8723 20.9061 12.3641 20.615 11.9057 20.4993C11.4472 20.3837 11.0375 20.4402 10.7836 20.6943C10.2778 21.2092 10.593 22.3358 11.4871 23.2056C11.9333 23.6444 12.4405 23.9321 12.8999 24.0512C13.3584 24.1668 13.7681 24.1103 14.0176 23.8538C14.5234 23.3388 14.2082 22.2122 13.3132 21.339L13.3176 21.3415Z" fill="#333333"/>
<path d="M8.91384 17.0441C8.46413 16.6063 7.96038 16.3176 7.50096 16.1985C7.0425 16.0829 6.63277 16.1394 6.37988 16.3969C5.87752 16.9109 6.19271 18.0375 7.08333 18.9082C7.53304 19.346 8.03679 19.6347 8.49621 19.7538C8.95467 19.8694 9.36441 19.8129 9.61729 19.5554C10.1187 19.038 9.80446 17.9149 8.91384 17.0441Z" fill="#333333"/>
<path d="M27.1254 10.3803C27.8159 9.66802 28.5958 9.85995 28.8701 10.8159C29.14 11.7694 28.8045 13.1211 28.1139 13.8333C27.4233 14.5456 26.6425 14.3502 26.3691 13.3977C26.0983 12.4408 26.4348 11.0926 27.1254 10.3803Z" fill="#333333"/>
<path d="M25.6558 16.8934C26.3488 16.1767 27.1272 16.3765 27.4006 17.329C27.6739 18.2815 27.3373 19.6298 26.6443 20.3464C25.9538 21.0587 25.1729 20.8633 24.8996 19.9108C24.6297 18.9573 24.9652 17.6057 25.6558 16.8934Z" fill="#333333"/>
<path d="M29.2106 17.6682C29.9011 16.956 30.682 17.1513 30.9553 18.1039C31.2252 19.0574 30.8897 20.409 30.1991 21.1213C29.5086 21.8336 28.7277 21.6382 28.4543 20.6857C28.1844 19.7322 28.52 18.3805 29.2106 17.6682Z" fill="#333333"/>
<path d="M22.9712 19.14C22.2806 19.8523 21.4998 19.6569 21.2264 18.7044C20.9556 17.7474 21.2921 16.3992 21.9827 15.6869C22.6732 14.9747 23.4531 15.1666 23.7274 16.1226C23.9973 17.076 23.6618 18.4277 22.9712 19.14Z" fill="#333333"/>
<path d="M24.0679 22.9759C24.7585 22.2636 25.5393 22.459 25.8127 23.4115C26.0826 24.365 25.747 25.7166 25.0564 26.4289C24.3659 27.1412 23.585 26.9458 23.3117 25.9933C23.0418 25.0398 23.3773 23.6881 24.0679 22.9759Z" fill="#333333"/>
</g>
<defs>
<linearGradient id="paint0_linear_834_6489" x1="5.00683" y1="29.693" x2="22.2858" y2="-6.95568" gradientUnits="userSpaceOnUse">
<stop stop-color="#FEEDB1"/>
<stop offset="1" stop-color="#E7A92D"/>
</linearGradient>
<linearGradient id="paint1_linear_834_6489" x1="5.00683" y1="29.693" x2="22.2858" y2="-6.95568" gradientUnits="userSpaceOnUse">
<stop stop-color="#FEEDB1"/>
<stop offset="1" stop-color="#E7A92D"/>
</linearGradient>
<linearGradient id="paint2_linear_834_6489" x1="5.51174" y1="14.9517" x2="22.6475" y2="14.7786" gradientUnits="userSpaceOnUse">
<stop stop-color="#FEEDB1"/>
<stop offset="1" stop-color="#E7A92D"/>
</linearGradient>
<linearGradient id="paint3_linear_834_6489" x1="5.33822" y1="5.21955" x2="30.613" y2="16.0621" gradientUnits="userSpaceOnUse">
<stop stop-color="#FEEDB1"/>
<stop offset="1" stop-color="#E7A92D"/>
</linearGradient>
</defs>
</svg>
