<svg width="37" height="37" viewBox="0 0 37 37" fill="none" xmlns="http://www.w3.org/2000/svg">
<path d="M1.76044 32.2041H1.755V4.25393C1.755 2.85981 2.88924 1.729 4.27994 1.729H33.2355C34.6296 1.729 35.7604 2.86324 35.7604 4.25393V33.2041C35.7604 34.5982 34.6262 35.729 33.2355 35.729H4.28538C2.89125 35.729 1.76044 34.5948 1.76044 33.2041V32.2041Z" fill="white" stroke="url(#paint0_linear_748_6519)" stroke-width="2"/>
<path d="M8.83032 2.8501L8.84012 4.03618C8.84501 4.66286 8.3407 5.18103 7.71401 5.18591L5.22971 5.20545L5.24925 7.68975C5.25413 8.31643 4.74982 8.83461 4.12314 8.83949L2.93706 8.84929L2.88409 2.90307L8.83691 2.85406L8.83032 2.8501Z" fill="#DB8231"/>
<path d="M28.4471 2.90307L28.457 4.08915C28.4618 4.71583 28.9747 5.22145 29.6067 5.21526L32.091 5.19572L32.1105 7.68002C32.1154 8.3067 32.6283 8.81232 33.2603 8.80613L34.4463 8.79632L34.3934 2.8501L28.4406 2.89911L28.4471 2.90307Z" fill="#DB8231"/>
<path d="M8.88329 34.0164L8.87349 32.8303C8.8686 32.2036 8.35571 31.698 7.72375 31.7042L5.23945 31.7237L5.21991 29.2394C5.21503 28.6128 4.70213 28.1071 4.07017 28.1133L2.88409 28.1231L2.93706 34.0694L8.88988 34.0204L8.88329 34.0164Z" fill="#DB8231"/>
<path d="M28.5002 34.0695L28.4904 32.8834C28.4855 32.2567 28.9898 31.7386 29.6165 31.7337L32.1008 31.7142L32.0813 29.2299C32.0764 28.6032 32.5807 28.085 33.2074 28.0801L34.3935 28.0703L34.4464 34.0165L28.4936 34.0655L28.5002 34.0695Z" fill="#DB8231"/>
<path d="M23.8175 13.1406C22.6711 12.1217 22.5563 10.36 23.5752 9.21355C24.5941 8.06713 26.3558 7.95237 27.5022 8.97128C28.6487 9.99018 28.7634 11.7519 27.7445 12.8983C26.7256 14.0447 24.9639 14.1595 23.8175 13.1406Z" fill="#F6C454"/>
<path d="M13.1201 25.2423C11.9737 24.2234 10.212 24.3381 9.19308 25.4845C8.17417 26.631 8.28893 28.3927 9.43535 29.4116C10.5818 30.4305 12.3435 30.3157 13.3624 29.1693C14.3813 28.0229 14.2665 26.2612 13.1201 25.2423Z" fill="#F6C454"/>
<path d="M16.588 21.2416C15.4416 20.2227 15.3268 18.461 16.3457 17.3146C17.3646 16.1682 19.1263 16.0534 20.2727 17.0723C21.4192 18.0913 21.5339 19.8529 20.515 20.9994C19.4961 22.1458 17.7344 22.2605 16.588 21.2416Z" fill="#F6C454"/>
<defs>
<linearGradient id="paint0_linear_748_6519" x1="5.76184" y1="30.422" x2="23.0408" y2="-6.22667" gradientUnits="userSpaceOnUse">
<stop stop-color="#FEEDB1"/>
<stop offset="1" stop-color="#E7A92D"/>
</linearGradient>
</defs>
</svg>
