<svg width="60" height="60" viewBox="0 0 60 60" fill="none" xmlns="http://www.w3.org/2000/svg">
<g id="vuesax/outline/play-cricle">
<g id="play-cricle">
<path id="Vector" d="M47.6744 49.55C47.1994 49.55 46.7244 49.3749 46.3494 48.9999C45.6244 48.2749 45.6244 47.0749 46.3494 46.3499C55.3744 37.3249 55.3744 22.65 46.3494 13.65C45.6244 12.925 45.6244 11.725 46.3494 11C47.0744 10.275 48.2744 10.275 48.9994 11C59.4744 21.475 59.4744 38.5249 48.9994 48.9999C48.6244 49.3749 48.1494 49.55 47.6744 49.55Z" fill="url(#paint0_linear_195_1454)"/>
<path id="Vector_2" d="M12.3258 49.55C11.8508 49.55 11.3758 49.3749 11.0008 48.9999C0.525781 38.5249 0.525781 21.475 11.0008 11C11.7258 10.275 12.9258 10.275 13.6508 11C14.3758 11.725 14.3758 12.925 13.6508 13.65C4.62578 22.675 4.62578 37.3499 13.6508 46.3499C14.3758 47.0749 14.3758 48.2749 13.6508 48.9999C13.2758 49.3749 12.8008 49.55 12.3258 49.55Z" fill="url(#paint1_linear_195_1454)"/>
<path id="Vector_3" d="M29.9994 56.7749C26.8744 56.7499 23.8994 56.2498 21.1244 55.2748C20.1494 54.9248 19.6244 53.8499 19.9744 52.8749C20.3244 51.8999 21.3744 51.3749 22.3744 51.7249C24.7744 52.5499 27.3244 52.9999 30.0244 52.9999C32.6994 52.9999 35.2744 52.5499 37.6494 51.7249C38.6244 51.3999 39.6994 51.8999 40.0494 52.8749C40.3994 53.8499 39.8744 54.9248 38.8994 55.2748C36.0994 56.2498 33.1244 56.7749 29.9994 56.7749Z" fill="url(#paint2_linear_195_1454)"/>
<path id="Vector_4" d="M38.2499 8.35022C38.0499 8.35022 37.8249 8.32512 37.6249 8.25012C35.2249 7.42512 32.6499 6.9751 29.9749 6.9751C27.2999 6.9751 24.75 7.42512 22.35 8.25012C21.375 8.57512 20.3 8.07522 19.95 7.10022C19.6 6.12522 20.125 5.05016 21.1 4.70016C23.875 3.72516 26.8749 3.2251 29.9749 3.2251C33.0749 3.2251 36.075 3.72516 38.85 4.70016C39.825 5.05016 40.35 6.12522 40 7.10022C39.75 7.87522 39.0249 8.35022 38.2499 8.35022Z" fill="url(#paint3_linear_195_1454)"/>
<path id="Vector_5" d="M26.4006 41.9001C25.3006 41.9001 24.2506 41.625 23.3256 41.1C21.1756 39.85 19.9756 37.4 19.9756 34.2V25.8251C19.9756 22.6251 21.1506 20.1751 23.3256 18.9251C25.4756 17.6751 28.2006 17.875 30.9756 19.475L38.2256 23.6501C41.0006 25.2501 42.5256 27.5 42.5256 30C42.5256 32.5 41.0006 34.75 38.2256 36.35L30.9756 40.5251C29.4006 41.4501 27.8256 41.9001 26.4006 41.9001ZM26.4006 21.85C25.9506 21.85 25.5256 21.95 25.2006 22.15C24.2756 22.7 23.7256 24.0251 23.7256 25.8001V34.175C23.7256 35.95 24.2506 37.3001 25.2006 37.8251C26.1256 38.3501 27.5506 38.15 29.1006 37.275L36.3506 33.1C37.9006 32.2 38.7756 31.075 38.7756 30C38.7756 28.925 37.9006 27.8001 36.3506 26.9001L29.1006 22.7251C28.1006 22.1501 27.1756 21.85 26.4006 21.85Z" fill="url(#paint4_linear_195_1454)"/>
</g>
</g>
<defs>
<linearGradient id="paint0_linear_195_1454" x1="47.7416" y1="15.8926" x2="61.2512" y2="17.6932" gradientUnits="userSpaceOnUse">
<stop stop-color="#FEEDB1"/>
<stop offset="1" stop-color="#E7A92D"/>
</linearGradient>
<linearGradient id="paint1_linear_195_1454" x1="5.08043" y1="15.8926" x2="18.5901" y2="17.6932" gradientUnits="userSpaceOnUse">
<stop stop-color="#FEEDB1"/>
<stop offset="1" stop-color="#E7A92D"/>
</linearGradient>
<linearGradient id="paint2_linear_195_1454" x1="23.4208" y1="52.3336" x2="29.107" y2="62.8808" gradientUnits="userSpaceOnUse">
<stop stop-color="#FEEDB1"/>
<stop offset="1" stop-color="#E7A92D"/>
</linearGradient>
<linearGradient id="paint3_linear_195_1454" x1="23.392" y1="3.93779" x2="29.0247" y2="14.4413" gradientUnits="userSpaceOnUse">
<stop stop-color="#FEEDB1"/>
<stop offset="1" stop-color="#E7A92D"/>
</linearGradient>
<linearGradient id="paint4_linear_195_1454" x1="23.9262" y1="21.4206" x2="47.3124" y2="31.8747" gradientUnits="userSpaceOnUse">
<stop stop-color="#FEEDB1"/>
<stop offset="1" stop-color="#E7A92D"/>
</linearGradient>
</defs>
</svg>
