<svg width="28" height="31" viewBox="0 0 28 31" fill="none" xmlns="http://www.w3.org/2000/svg">
<g id="Group 1535">
<g id="Group 1529">
<path id="Vector" d="M26.6498 22.7148C26.3442 21.4049 24.8097 20.6859 22.6768 19.8137C22.1395 19.5947 21.6566 19.3776 21.2291 19.1689C22.4472 18.2 23.5422 17.8157 23.5511 17.8113C23.7645 17.7403 23.9212 17.5592 23.9673 17.3391C24.0134 17.1191 23.9376 16.8936 23.7734 16.7441L20.7077 13.9695C20.5725 13.8447 20.3891 13.7872 20.2045 13.8127L20.1951 13.814C20.0167 13.8387 19.8554 13.9407 19.7547 14.0886C19.3639 14.6752 18.878 15.3356 18.2989 16.0598L9.49942 5.51575C9.40787 5.40723 9.28267 5.33206 9.14475 5.3033L1.24969 3.62718C1.17739 3.61167 1.10369 3.6091 1.03172 3.61906C0.887775 3.63897 0.750758 3.70894 0.648395 3.82196C0.498896 3.98614 0.448698 4.2227 0.516544 4.43654L2.96707 12.1244C3.01114 12.2586 3.0973 12.3743 3.21398 12.457L14.5837 20.1645C13.9201 20.808 13.311 21.361 12.7671 21.8094C12.6236 21.9249 12.5393 22.0992 12.5358 22.2815C12.5323 22.4637 12.6079 22.6414 12.7432 22.7662L15.8089 25.5408C15.9477 25.6683 16.1369 25.7219 16.3184 25.6968C16.3528 25.692 16.3872 25.6872 16.4203 25.6731C16.6346 25.6084 16.7953 25.4331 16.8481 25.2153C16.8527 25.2019 17.1275 24.0764 17.967 22.7676C18.2176 23.1731 18.4818 23.6308 18.7534 24.1418C19.7715 26.0611 20.8205 28.0431 22.5541 27.8033C23.2175 27.7115 23.889 27.287 24.6185 26.4973L25.6062 25.4071C26.4944 24.4041 26.8347 23.5215 26.6462 22.7121L26.6498 22.7148Z" fill="#CB9E31"/>
<g id="Group">
<path id="Vector_2" d="M1.11841 4.24536L3.56893 11.9332L15.6215 20.1044L16.9827 18.6023L1.11841 4.24536Z" fill="url(#paint0_linear_355_4937)"/>
<path id="Vector_3" d="M1.11841 4.24536L9.01303 5.91835L18.3436 17.097L16.9827 18.6022L1.11841 4.24536Z" fill="white"/>
<path id="Vector_4" d="M19 18.4537L18.0181 19.5398L17.0363 20.626L17.0888 20.6602C17.2834 20.7991 18.0316 21.4355 19.3128 23.8509C20.8186 26.6914 21.9419 28.4718 24.1528 26.0803L24.6453 25.5371L25.1378 24.9938C27.2979 22.5584 25.4169 21.6163 22.4393 20.4017C19.9078 19.3678 19.1982 18.6878 19.0422 18.5053L19.0032 18.4533L19 18.4537Z" fill="#F6C454"/>
<g id="Group_2" opacity="0.5">
<path id="Vector_5" d="M18.1226 17.3442L8.79143 6.2071L2.02417 4.68433L17.1977 18.3586L18.1226 17.3442Z" fill="url(#paint1_linear_355_4937)"/>
</g>
<path id="Vector_6" opacity="0.53" d="M15.6213 20.1044L15.1711 16.9648L18.3434 17.0969L18.5719 20.0407L15.6213 20.1044Z" fill="url(#paint2_linear_355_4937)"/>
<path id="Vector_7" d="M16.9826 18.6018C16.9826 18.6018 14.9964 20.7963 13.1665 22.2995L16.2322 25.0741C16.2322 25.0741 16.7817 22.6828 18.8698 20.6719L19.0498 20.4748L19.2298 20.2777C21.023 18.0015 23.3473 17.2144 23.3473 17.2144L20.2816 14.4398C18.9692 16.4104 16.983 18.6049 16.983 18.6049L16.9826 18.6018Z" fill="#CB9E31"/>
</g>
</g>
<g id="Group 1530">
<path id="Vector_8" d="M0.643544 23.9152C0.887835 22.5925 2.38724 21.803 4.47728 20.8325C5.00386 20.5887 5.47611 20.3495 5.89344 20.121C4.63156 19.2098 3.51996 18.8769 3.51081 18.8729C3.29433 18.8119 3.12935 18.6383 3.07306 18.4206C3.01678 18.203 3.08204 17.9742 3.23909 17.8172L6.17246 14.9031C6.30177 14.7721 6.48225 14.7061 6.66786 14.723L6.67729 14.7239C6.85661 14.7402 7.02247 14.8346 7.12997 14.9777C7.54767 15.5455 8.06373 16.1825 8.67588 16.8791L16.9755 5.93717C17.0619 5.82451 17.1834 5.74361 17.3199 5.70846L25.1284 3.66698C25.1999 3.64812 25.2734 3.64213 25.3458 3.64873C25.4905 3.66192 25.6306 3.72545 25.7381 3.83358C25.8951 3.99064 25.9563 4.2246 25.8984 4.44137L23.8081 12.2349C23.7703 12.371 23.6896 12.4905 23.5769 12.5786L12.5779 20.8066C13.2707 21.4185 13.9049 21.9426 14.4691 22.3652C14.6178 22.4739 14.7101 22.6441 14.7221 22.826C14.7341 23.0079 14.6668 23.1889 14.5375 23.3198L11.6041 26.234C11.4714 26.3678 11.2849 26.4301 11.1025 26.4135C11.0678 26.4103 11.0332 26.4072 10.9995 26.3946C10.7824 26.3399 10.6137 26.1723 10.5509 25.9572C10.5457 25.944 10.2188 24.8325 9.3194 23.5642C9.08792 23.9808 8.84528 24.4504 8.59776 24.9734C7.67005 26.938 6.7143 28.9666 4.97147 28.8077C4.30454 28.7469 3.61395 28.3541 2.84852 27.5991L1.81118 26.5561C0.877354 25.5955 0.496336 24.7297 0.646978 23.9123L0.643544 23.9152Z" fill="#CB9E31"/>
<g id="Group_3">
<path id="Vector_9" d="M25.2886 4.27808L23.1982 12.0716L11.5387 20.7945L10.1091 19.3572L25.2886 4.27808Z" fill="url(#paint3_linear_355_4937)"/>
<path id="Vector_10" d="M25.2886 4.27808L17.4803 6.31642L8.67976 17.9169L10.1091 19.3572L25.2886 4.27808Z" fill="white"/>
<path id="Vector_11" d="M8.08672 19.303L9.11805 20.3423L10.1494 21.3816L10.0985 21.4182C9.91053 21.566 9.19279 22.2364 8.02529 24.7089C6.65319 27.6163 5.61398 29.447 3.29425 27.161L2.77701 26.6412L2.25977 26.1214C-0.0113265 23.7891 1.8239 22.7605 4.74172 21.4088C7.22247 20.2583 7.89961 19.546 8.04695 19.3564L8.08357 19.3027L8.08672 19.303Z" fill="#F6C454"/>
<g id="Group_4" opacity="0.5">
<path id="Vector_12" d="M8.91184 18.1541L17.7149 6.59513L24.4041 4.75928L9.88284 19.1245L8.91184 18.1541Z" fill="url(#paint4_linear_355_4937)"/>
</g>
<path id="Vector_13" opacity="0.53" d="M11.5386 20.7948L11.8423 17.6377L8.67964 17.9172L8.58823 20.8684L11.5386 20.7948Z" fill="url(#paint5_linear_355_4937)"/>
<path id="Vector_14" d="M10.1089 19.3574C10.1089 19.3574 12.195 21.4572 14.0929 22.8737L11.1595 25.7878C11.1595 25.7878 10.4994 23.4247 8.32003 21.5131L8.13103 21.3246L7.94204 21.1361C6.04499 18.9457 3.68653 18.2676 3.68653 18.2676L6.6199 15.3534C8.02252 17.2608 10.1086 19.3606 10.1086 19.3606L10.1089 19.3574Z" fill="#CB9E31"/>
</g>
</g>
</g>
<defs>
<linearGradient id="paint0_linear_355_4937" x1="3.84138" y1="6.35301" x2="19.5387" y2="9.75971" gradientUnits="userSpaceOnUse">
<stop stop-color="#FEEDB1"/>
<stop offset="1" stop-color="#E7A92D"/>
</linearGradient>
<linearGradient id="paint1_linear_355_4937" x1="4.78825" y1="6.49538" x2="20.4615" y2="10.7953" gradientUnits="userSpaceOnUse">
<stop stop-color="#FEEDB1"/>
<stop offset="1" stop-color="#E7A92D"/>
</linearGradient>
<linearGradient id="paint2_linear_355_4937" x1="15.7802" y1="17.3737" x2="19.245" y2="18.2942" gradientUnits="userSpaceOnUse">
<stop stop-color="#FEEDB1"/>
<stop offset="1" stop-color="#E7A92D"/>
</linearGradient>
<linearGradient id="paint3_linear_355_4937" x1="22.6666" y1="6.51008" x2="7.14471" y2="10.6431" gradientUnits="userSpaceOnUse">
<stop stop-color="#FEEDB1"/>
<stop offset="1" stop-color="#E7A92D"/>
</linearGradient>
<linearGradient id="paint4_linear_355_4937" x1="21.7272" y1="6.69692" x2="6.27087" y2="11.7211" gradientUnits="userSpaceOnUse">
<stop stop-color="#FEEDB1"/>
<stop offset="1" stop-color="#E7A92D"/>
</linearGradient>
<linearGradient id="paint5_linear_355_4937" x1="11.2529" y1="18.0745" x2="7.83462" y2="19.1551" gradientUnits="userSpaceOnUse">
<stop stop-color="#FEEDB1"/>
<stop offset="1" stop-color="#E7A92D"/>
</linearGradient>
</defs>
</svg>
