<svg width="24" height="22" viewBox="-1.5 0 24 22" fill="none" xmlns="http://www.w3.org/2000/svg">
<path d="M0.708115 12.4988L0.701172 9.37033L3.29792 9.10481C3.46983 8.46189 3.72524 7.83628 4.06318 7.24583L2.40626 5.22917L4.91634 2.70836L6.94004 4.35649C7.52926 4.01574 8.15346 3.75752 8.79551 3.58305L9.0503 0.985078L12.6077 0.977783L12.8736 3.57418C13.5165 3.74583 14.1415 4.00089 14.7326 4.33944L16.749 2.68217L19.2698 5.19199L17.6216 7.21568C17.9626 7.8049 18.2206 8.42911 18.3948 9.0715L20.9928 9.32568L21.0001 12.5H15.3299C15.934 10.7595 15.5458 8.82848 14.1926 7.48129C10.1915 3.49841 4.7207 7.94307 6.27373 12.5H3.49145L0.708555 12.499H0.708202V12.4988H0.708115Z" fill="url(#paint0_linear_195_1763)"/>
<path d="M0.708115 9.50118L0.701172 12.6297L3.29792 12.8952C3.46983 13.5381 3.72524 14.1637 4.06318 14.7542L2.40626 16.7708L4.91634 19.2916L6.94004 17.6435C7.52926 17.9843 8.15346 18.2425 8.79551 18.4169L9.0503 21.0149L12.6077 21.0222L12.8736 18.4258C13.5165 18.2542 14.1415 17.9991 14.7326 17.6606L16.749 19.3178L19.2698 16.808L17.6216 14.7843C17.9626 14.1951 18.2206 13.5709 18.3948 12.9285L20.9928 12.6743L21.0001 9.50004H15.3299C15.934 11.2405 15.5458 13.1715 14.1926 14.5187C10.1915 18.5016 4.7207 14.0569 6.27373 9.50004H3.49145L0.708555 9.50101H0.708202V9.50118H0.708115Z" fill="url(#paint1_linear_195_1763)"/>
<defs>
<linearGradient id="paint0_linear_195_1763" x1="4.25743" y1="2.58003" x2="19.202" y2="14.9951" gradientUnits="userSpaceOnUse">
<stop stop-color="#FEEDB1"/>
<stop offset="1" stop-color="#E7A92D"/>
</linearGradient>
<linearGradient id="paint1_linear_195_1763" x1="4.25743" y1="19.42" x2="19.202" y2="7.00494" gradientUnits="userSpaceOnUse">
<stop stop-color="#FEEDB1"/>
<stop offset="1" stop-color="#E7A92D"/>
</linearGradient>
</defs>
</svg>
