<svg width="54" height="27" viewBox="0 0 54 27" fill="none" xmlns="http://www.w3.org/2000/svg">
<g clip-path="url(#clip0_818_8033)">
<path d="M6.6892 16.318C11.0634 19.6494 16.094 14.4699 17.4464 17.1555L12.9745 7.91084C11.5232 5.03071 4.74197 11.3536 1.09988 7.19531L4.62764 11.5229C4.94331 11.9096 5.18459 12.318 5.33404 12.7137L6.68901 16.3167L6.6892 16.318Z" fill="url(#paint0_linear_818_8033)"/>
<path d="M18.2519 18.7848C19.3352 20.054 12.3317 19.873 12.9534 21.0615L7.62688 10.0978C7.00505 8.90787 13.7562 9.53084 12.9254 7.82111L18.2533 18.7846L18.2519 18.7848Z" fill="url(#paint1_linear_818_8033)"/>
<path d="M9.83285 15.2746C8.44046 12.3752 7.29764 9.97939 7.29389 9.95247C7.29346 9.9251 7.36678 10.0383 7.46089 10.2036C7.55499 10.3688 7.73 10.6531 7.85348 10.8348C7.98028 11.016 8.17525 11.2735 8.28884 11.4086C8.40576 11.5432 8.63112 11.7759 8.79355 11.9213C8.95312 12.0705 9.20036 12.2658 9.34153 12.3559C9.48318 12.4494 9.73619 12.589 9.90678 12.6715C10.0769 12.7507 10.3489 12.8569 10.5144 12.9024C10.6798 12.9479 11.0714 13.0374 11.3876 13.0962C11.7043 13.1584 12.2102 13.2423 12.5141 13.2857C12.818 13.329 13.3064 13.3845 13.5975 13.4091C13.8886 13.4336 14.35 13.4654 14.6222 13.4755C14.8944 13.4856 15.3454 13.4913 15.6228 13.4904C15.9003 13.4894 16.5277 13.45 17.0153 13.4026C17.6666 13.3393 18.1414 13.2732 18.8249 13.1505C19.333 13.0557 20.0569 12.9068 20.4374 12.8195C20.8174 12.7288 21.3668 12.5905 21.6633 12.5081C21.9603 12.4289 22.5064 12.2671 22.8827 12.1495C23.259 12.0319 23.9626 11.7864 24.449 11.6089C24.9349 11.428 25.7222 11.1262 26.2 10.9362C26.6779 10.7461 27.5036 10.4047 28.0408 10.179C28.578 9.95323 29.67 9.48212 30.4678 9.13432C31.266 8.78988 32.3584 8.32214 32.8956 8.09638C33.4328 7.87063 34.259 7.53258 34.7369 7.34253C35.2147 7.15248 35.7989 6.92361 36.0371 6.83554C36.2525 6.75269 36.6301 6.61627 36.9173 6.5125L37.0032 6.48143C37.2969 6.37877 37.7268 6.23313 37.957 6.15991L38.0179 6.14146C38.2525 6.07033 38.6046 5.96364 38.8342 5.89705C39.0852 5.82779 39.7551 5.65556 40.3211 5.51496C41.3231 5.27246 41.4023 5.25799 43.0293 5.03128C44.6857 4.79704 44.7123 4.79334 45.3492 4.79719C45.7048 4.79907 46.3004 4.82239 46.6755 4.84215C47.0511 4.86526 47.685 4.92097 48.081 4.96869C48.4769 5.01641 49.0297 5.09713 49.307 5.14422C49.5849 5.19468 49.9523 5.28067 50.1286 5.33155C50.3054 5.38579 50.5637 5.49041 50.7063 5.56656C50.8451 5.63982 51.0578 5.78166 51.1762 5.87833C51.2913 5.97547 51.4603 6.14397 51.5503 6.25491C51.6402 6.36584 51.767 6.5711 51.8374 6.71218C51.9045 6.85373 51.9914 7.08855 52.0286 7.23426C52.071 7.39297 52.1053 7.63856 52.1163 7.83936C52.1255 8.02671 52.1184 8.31578 52.0973 8.47991C52.0799 8.64695 51.6059 11.4395 51.0434 14.6902C50.4804 17.9375 50.0171 20.588 50.0086 20.5755C49.9996 20.5596 50.0079 20.4247 50.0271 20.2711C50.043 20.118 50.0534 19.8524 50.0503 19.6848C50.0463 19.5105 50.0183 19.2606 49.9839 19.1111C49.95 18.9649 49.8821 18.7446 49.8306 18.618C49.7791 18.4914 49.6779 18.2997 49.6013 18.1869C49.5246 18.0742 49.3902 17.9111 49.3002 17.8242C49.2136 17.7368 49.0474 17.6125 48.9365 17.5457C48.8261 17.4822 48.6617 17.3953 48.5721 17.3598C48.4821 17.3209 48.1531 17.2433 47.8368 17.1845C47.5211 17.129 46.9853 17.0493 46.6449 17.011C46.3045 16.9727 45.7871 16.9282 45.4969 16.9103C45.2072 16.8958 44.7311 16.8799 44.4428 16.8755C43.9652 16.8734 43.7949 16.8903 42.573 17.0605C41.5366 17.2015 41.0803 17.2788 40.5888 17.3953C40.2382 17.4785 39.7215 17.6088 39.4444 17.6851C39.1674 17.7615 38.7053 17.8944 38.4196 17.9823C38.134 18.0701 37.5945 18.255 37.2244 18.3923C36.8538 18.5263 36.2753 18.7475 35.9379 18.8768C35.601 19.0095 34.9888 19.256 34.576 19.4267C34.1631 19.5974 32.9909 20.1002 31.9725 20.5405C30.9541 20.9808 29.5954 21.5542 28.9515 21.8154C28.3075 22.0766 27.4116 22.4244 26.9608 22.5901C26.51 22.7558 25.7817 22.9945 25.3428 23.1242C24.9039 23.254 24.2383 23.4325 23.8583 23.5231C23.4783 23.6138 22.8136 23.751 22.3782 23.8323C21.8796 23.9223 21.2819 24.0056 20.7678 24.0567C20.2237 24.1119 19.7566 24.1358 19.3739 24.1343C19.0552 24.1307 18.5686 24.1127 18.2851 24.094C18.0048 24.0747 17.5416 24.0295 17.2557 23.9939C16.9731 23.9578 16.4715 23.8803 16.1481 23.819C15.8248 23.7577 15.4295 23.6653 15.273 23.6117C15.1171 23.5614 14.9081 23.4705 14.8062 23.4195C14.7072 23.3647 14.4803 23.218 14.3065 23.0879C14.1331 22.9612 13.911 22.7761 13.8092 22.6771C13.7107 22.5776 13.5592 22.4135 13.4707 22.3127C13.3855 22.2114 13.2331 22.0166 13.1328 21.8796C13.0325 21.7427 12.8206 21.3881 12.6603 21.0881C12.4967 20.7885 11.2253 18.174 9.83285 15.2746Z" fill="url(#paint2_linear_818_8033)"/>
<path d="M9.83285 15.2746C8.44046 12.3752 7.29764 9.97939 7.29389 9.95247C7.29346 9.9251 7.36678 10.0383 7.46089 10.2036C7.55499 10.3688 7.73 10.6531 7.85348 10.8348C7.98028 11.016 8.17525 11.2735 8.28884 11.4086C8.40576 11.5432 8.63112 11.7759 8.79355 11.9213C8.95312 12.0705 9.20036 12.2658 9.34153 12.3559C9.48318 12.4494 9.73619 12.589 9.90678 12.6715C10.0769 12.7507 10.3489 12.8569 10.5144 12.9024C10.6798 12.9479 11.0714 13.0374 11.3876 13.0962C11.7043 13.1584 12.2102 13.2423 12.5141 13.2857C12.818 13.329 13.3064 13.3845 13.5975 13.4091C13.8886 13.4336 14.35 13.4654 14.6222 13.4755C14.8944 13.4856 15.3454 13.4913 15.6228 13.4904C15.9003 13.4894 16.5277 13.45 17.0153 13.4026C17.6666 13.3393 18.1414 13.2732 18.8249 13.1505C19.333 13.0557 20.0569 12.9068 20.4374 12.8195C20.8174 12.7288 21.3668 12.5905 21.6633 12.5081C21.9603 12.4289 22.5064 12.2671 22.8827 12.1495C23.259 12.0319 23.9626 11.7864 24.449 11.6089C24.9349 11.428 25.7222 11.1262 26.2 10.9362C26.6779 10.7461 27.5036 10.4047 28.0408 10.179C28.578 9.95323 29.67 9.48212 30.4678 9.13432C31.266 8.78988 32.3584 8.32214 32.8956 8.09638C33.4328 7.87063 34.259 7.53258 34.7369 7.34253C35.2147 7.15248 35.7989 6.92361 36.0371 6.83555C36.2525 6.7527 36.63 6.61631 36.9171 6.51255L37.0032 6.48143C37.2969 6.37877 37.7268 6.23313 37.957 6.15991L38.018 6.14142C38.2527 6.07029 38.6046 5.96363 38.8342 5.89705C39.0852 5.82779 39.7551 5.65556 40.3211 5.51496C41.3231 5.27246 41.4023 5.25799 43.0293 5.03128C44.6857 4.79704 44.7123 4.79334 45.3492 4.79719C45.7048 4.79907 46.3004 4.82239 46.6755 4.84215C47.0511 4.86527 47.685 4.92097 48.081 4.96869C48.4769 5.01641 49.0297 5.09713 49.307 5.14422C49.5849 5.19468 49.9523 5.28067 50.1286 5.33155C50.3054 5.38579 50.5637 5.49041 50.7063 5.56656C50.8451 5.63982 51.0578 5.78166 51.1762 5.87833C51.2913 5.97547 51.4603 6.14397 51.5503 6.25491C51.6402 6.36584 51.767 6.5711 51.8374 6.71218C51.9045 6.85373 51.9914 7.08855 52.0286 7.23426C52.071 7.39297 52.1053 7.63856 52.1163 7.83936C52.1255 8.02671 52.1184 8.31578 52.0972 8.47991C52.0799 8.64695 51.6059 11.4395 51.0434 14.6902C50.4804 17.9375 50.0171 20.588 50.0086 20.5755C49.9996 20.5596 50.0079 20.4247 50.0271 20.2711C50.043 20.118 50.0534 19.8524 50.0503 19.6848C50.0463 19.5105 50.0183 19.2606 49.9839 19.1111C49.95 18.9649 49.8821 18.7446 49.8306 18.618C49.7791 18.4914 49.6779 18.2997 49.6013 18.1869C49.5246 18.0742 49.3902 17.9111 49.3002 17.8242C49.2136 17.7368 49.0473 17.6125 48.9365 17.5457C48.8261 17.4822 48.6617 17.3953 48.5721 17.3598C48.4821 17.3209 48.1531 17.2433 47.8368 17.1845C47.5211 17.129 46.9853 17.0493 46.6449 17.011C46.3045 16.9727 45.7871 16.9282 45.4969 16.9103C45.2072 16.8958 44.7311 16.8799 44.4428 16.8755C43.9652 16.8734 43.7949 16.8903 42.573 17.0605C41.5366 17.2015 41.0803 17.2788 40.5888 17.3953C40.2382 17.4785 39.7215 17.6088 39.4444 17.6851C39.1674 17.7615 38.7052 17.8944 38.4196 17.9823C38.134 18.0701 37.5945 18.255 37.2244 18.3923C36.8538 18.5263 36.2753 18.7475 35.9379 18.8768C35.601 19.0095 34.9888 19.256 34.576 19.4267C34.1631 19.5974 32.9909 20.1002 31.9725 20.5405C30.9541 20.9808 29.5954 21.5542 28.9515 21.8154C28.3075 22.0766 27.4116 22.4244 26.9608 22.5901C26.51 22.7558 25.7817 22.9945 25.3428 23.1242C24.9039 23.254 24.2383 23.4325 23.8583 23.5231C23.4783 23.6138 22.8136 23.751 22.3781 23.8323C21.8796 23.9223 21.2819 24.0056 20.7678 24.0567C20.2237 24.1119 19.7566 24.1358 19.3739 24.1343C19.0552 24.1307 18.5686 24.1127 18.2851 24.094C18.0048 24.0747 17.5416 24.0295 17.2557 23.9939C16.9731 23.9578 16.4715 23.8802 16.1481 23.819C15.8248 23.7577 15.4295 23.6653 15.273 23.6117C15.1171 23.5614 14.9081 23.4705 14.8062 23.4195C14.7072 23.3647 14.4803 23.218 14.3065 23.0879C14.1331 22.9612 13.911 22.7761 13.8092 22.6771C13.7107 22.5776 13.5592 22.4135 13.4707 22.3127C13.3855 22.2114 13.2331 22.0166 13.1328 21.8796C13.0325 21.7427 12.8206 21.3881 12.6603 21.0881C12.4967 20.7885 11.2253 18.174 9.83285 15.2746Z" fill="url(#paint3_linear_818_8033)"/>
<path d="M20.224 18.4612C20.2858 18.9662 20.2204 19.4402 20.0276 19.8831C19.8397 20.3248 19.5381 20.706 19.1227 21.0267C18.7123 21.3463 18.2078 21.5797 17.6092 21.727C16.9617 21.8864 16.3654 21.9056 15.8206 21.7848C15.2757 21.6639 14.8153 21.4208 14.4392 21.0555C14.0631 20.6901 13.8038 20.218 13.6614 19.6391C13.5189 19.0602 13.5295 18.5217 13.693 18.0236C13.8566 17.5254 14.1517 17.0964 14.5782 16.7365C15.0048 16.3766 15.5418 16.1169 16.1894 15.9575C16.7879 15.8103 17.3431 15.7829 17.855 15.8754C18.3718 15.9668 18.8159 16.1645 19.1873 16.4685C19.5624 16.7665 19.8403 17.1559 20.0211 17.6369L18.2991 18.0607C18.1982 17.8618 18.0633 17.7051 17.8947 17.5905C17.7297 17.4698 17.5345 17.3956 17.3091 17.3678C17.0826 17.3351 16.8294 17.3532 16.5498 17.422C16.2358 17.4993 15.9799 17.6221 15.782 17.7905C15.5841 17.9588 15.4503 18.166 15.3808 18.4121C15.3101 18.6532 15.3109 18.921 15.3834 19.2153C15.4558 19.5097 15.5793 19.7473 15.7539 19.928C15.9284 20.1088 16.1431 20.2303 16.3977 20.2925C16.6512 20.3498 16.9349 20.3398 17.2489 20.2626C17.5285 20.1937 17.7623 20.0972 17.9502 19.9729C18.137 19.8437 18.2754 19.6873 18.3655 19.5039C18.4606 19.3192 18.506 19.1129 18.502 18.8849L20.224 18.4612Z" fill="white"/>
<path d="M21.1803 21.05L20.2433 15.4438L21.97 15.1552L22.6784 19.3935L22.1687 19.1022L24.504 14.7317L26.3278 14.4269L22.7575 20.7864L21.1803 21.05ZM23.4253 17.9778L24.5311 16.7326L27.3471 20.0193L25.3737 20.3491L23.4253 17.9778Z" fill="white"/>
<path d="M31.1101 18.8619C30.4732 19.106 29.8699 19.2047 29.3 19.158C28.7349 19.1094 28.2384 18.9291 27.8104 18.617C27.387 18.3031 27.0687 17.8678 26.8553 17.3111C26.642 16.7544 26.5878 16.2179 26.6929 15.7015C26.8027 15.1832 27.0515 14.7172 27.4394 14.3034C27.832 13.8878 28.3467 13.558 28.9836 13.3138C29.6205 13.0697 30.2215 12.9719 30.7866 13.0205C31.3564 13.0672 31.853 13.2475 32.2763 13.5614C32.7043 13.8735 33.025 14.3079 33.2384 14.8646C33.4518 15.4213 33.5036 15.9587 33.3938 16.477C33.2887 16.9934 33.0399 17.4594 32.6473 17.875C32.2594 18.2888 31.747 18.6178 31.1101 18.8619ZM30.5486 17.397C30.8647 17.2759 31.1161 17.12 31.3028 16.9294C31.4924 16.7323 31.6114 16.5135 31.6599 16.2731C31.7066 16.0279 31.6785 15.7709 31.5754 15.502C31.4723 15.2331 31.3224 15.0254 31.1256 14.879C30.927 14.7279 30.6922 14.6447 30.4213 14.6295C30.1532 14.6078 29.8612 14.6575 29.5451 14.7787C29.229 14.8998 28.9762 15.059 28.7866 15.2561C28.5999 15.4467 28.4832 15.6645 28.4365 15.9097C28.388 16.1501 28.4152 16.4048 28.5183 16.6737C28.6214 16.9426 28.7722 17.1527 28.9708 17.3038C29.1676 17.4502 29.4 17.5343 29.6681 17.556C29.939 17.5712 30.2326 17.5182 30.5486 17.397Z" fill="white"/>
<path d="M36.1771 10.8834C36.6541 10.7504 37.0853 10.7167 37.4707 10.7823C37.861 10.8465 38.1869 10.9995 38.4485 11.2413C38.7086 11.4782 38.8936 11.7938 39.0036 12.188C39.1122 12.5773 39.1171 12.9431 39.0185 13.2853C38.9199 13.6275 38.7202 13.9271 38.4195 14.1841C38.1236 14.4397 37.7372 14.634 37.2602 14.767L34.9169 15.4205L34.5423 14.0774L36.7761 13.4544C36.9903 13.3946 37.1408 13.295 37.2277 13.1553C37.3195 13.0143 37.3397 12.8514 37.2881 12.6664C37.2338 12.4718 37.1316 12.3403 36.9814 12.272C36.8361 12.2024 36.6564 12.1974 36.4422 12.2572L34.3544 12.8394L34.9051 11.8519L36.2733 16.7575L34.5724 17.2318L33.0454 11.7568L36.1771 10.8834Z" fill="white"/>
<path d="M43.3184 14.5096C42.6425 14.6006 42.0326 14.5578 41.4888 14.3812C40.9501 14.2039 40.5083 13.9142 40.1636 13.512C39.8239 13.1091 39.6142 12.6122 39.5347 12.0214C39.4552 11.4305 39.5259 10.8959 39.747 10.4175C39.9731 9.93848 40.3225 9.54223 40.7952 9.2288C41.2729 8.91469 41.8497 8.71213 42.5257 8.62113C43.2017 8.53013 43.8091 8.57326 44.3478 8.75053C44.8916 8.92713 45.3333 9.21687 45.673 9.61975C46.0178 10.022 46.2299 10.5185 46.3095 11.1093C46.389 11.7002 46.3157 12.2352 46.0896 12.7142C45.8685 13.1926 45.5191 13.5888 45.0414 13.9029C44.5687 14.2164 43.9944 14.4186 43.3184 14.5096ZM43.1091 12.9549C43.4446 12.9097 43.7251 12.8159 43.9506 12.6733C44.1805 12.5252 44.3467 12.3396 44.4492 12.1168C44.5511 11.889 44.5828 11.6324 44.5444 11.347C44.506 11.0616 44.4079 10.825 44.25 10.6372C44.0915 10.4444 43.8822 10.3095 43.622 10.2323C43.3662 10.1495 43.0705 10.1307 42.735 10.1759C42.3995 10.221 42.1169 10.3177 41.887 10.4659C41.6615 10.6084 41.4978 10.7936 41.3959 11.0214C41.2934 11.2442 41.2613 11.4984 41.2997 11.7838C41.3382 12.0692 41.4366 12.3083 41.5951 12.5011C41.7529 12.6888 41.9598 12.8241 42.2156 12.9069C42.4758 12.984 42.7737 13 43.1091 12.9549Z" fill="white"/>
<path d="M47.276 8.40545L49.088 8.56281L48.4841 12.1009L47.261 11.9947L47.276 8.40545ZM47.6831 14.2298C47.4012 14.2053 47.1817 14.1051 47.0245 13.9292C46.8674 13.7533 46.8 13.5369 46.8223 13.2802C46.845 13.0185 46.9489 12.8145 47.134 12.6683C47.3192 12.5221 47.5527 12.4612 47.8345 12.4857C48.1164 12.5102 48.3359 12.6104 48.4931 12.7863C48.6502 12.9623 48.7174 13.1811 48.6947 13.4428C48.6724 13.6995 48.5687 13.901 48.3836 14.0472C48.1984 14.1934 47.9649 14.2543 47.6831 14.2298Z" fill="white"/>
</g>
<defs>
<linearGradient id="paint0_linear_818_8033" x1="14.7009" y1="13.7823" x2="5.16985" y2="18.3363" gradientUnits="userSpaceOnUse">
<stop stop-color="#4A000C"/>
<stop offset="0.07" stop-color="#650109"/>
<stop offset="0.22" stop-color="#A60404"/>
<stop offset="0.57" stop-color="#4A000C"/>
<stop offset="0.77" stop-color="#8B0206"/>
<stop offset="0.87" stop-color="#A60404"/>
<stop offset="0.99" stop-color="#A60404"/>
<stop offset="1" stop-color="#A60404"/>
</linearGradient>
<linearGradient id="paint1_linear_818_8033" x1="15.7136" y1="13.4247" x2="10.5492" y2="15.4883" gradientUnits="userSpaceOnUse">
<stop stop-color="#4A000C"/>
<stop offset="0.19" stop-color="#4A000C"/>
<stop offset="0.24" stop-color="#620109"/>
<stop offset="0.3" stop-color="#7A0207"/>
<stop offset="0.37" stop-color="#8E0206"/>
<stop offset="0.45" stop-color="#9B0304"/>
<stop offset="0.55" stop-color="#A30304"/>
<stop offset="0.74" stop-color="#A60404"/>
<stop offset="0.75" stop-color="#9F0304"/>
<stop offset="0.83" stop-color="#7A0207"/>
<stop offset="0.89" stop-color="#5F000A"/>
<stop offset="0.95" stop-color="#4F000B"/>
<stop offset="1" stop-color="#4A000C"/>
</linearGradient>
<linearGradient id="paint2_linear_818_8033" x1="30.6667" y1="6.69181" x2="44.4337" y2="26.5532" gradientUnits="userSpaceOnUse">
<stop stop-color="#BB1D1B"/>
<stop offset="0.546444" stop-color="#FF0300"/>
<stop offset="1" stop-color="#550D0C"/>
</linearGradient>
<linearGradient id="paint3_linear_818_8033" x1="30.6667" y1="6.69181" x2="44.4337" y2="26.5532" gradientUnits="userSpaceOnUse">
<stop stop-color="#BB1D1B"/>
<stop offset="0.546444" stop-color="#FF0300"/>
<stop offset="1" stop-color="#550D0C"/>
</linearGradient>
<clipPath id="clip0_818_8033">
<rect width="53.1395" height="26.984" fill="white" transform="translate(0.689575)"/>
</clipPath>
</defs>
</svg>
