<svg width="16" height="19" viewBox="0 0 16 19" fill="none" xmlns="http://www.w3.org/2000/svg">
<path id="$" d="M8.16634 17.6696C6.55875 17.6696 5.14519 17.4409 3.92564 16.9836C2.71995 16.5263 1.77757 15.8818 1.09851 15.0503C0.419439 14.2188 0.0660471 13.2557 0.0383301 12.1608H5.27684C5.34613 12.6597 5.63716 13.0547 6.14993 13.3457C6.67655 13.6229 7.38333 13.7615 8.27028 13.7615C9.06021 13.7615 9.66999 13.6645 10.0996 13.4705C10.5292 13.2764 10.744 12.9785 10.744 12.5766C10.744 12.3687 10.6817 12.1955 10.5569 12.0569C10.4461 11.9044 10.252 11.7867 9.97487 11.7035C9.6977 11.6065 9.33045 11.5441 8.87312 11.5164L6.39938 11.3293C4.16816 11.163 2.56058 10.6641 1.57662 9.8326C0.59267 8.98724 0.100693 7.88548 0.100693 6.52735C0.100693 5.39095 0.41251 4.44165 1.03614 3.67943C1.67363 2.90335 2.56058 2.3213 3.69697 1.93326C4.84723 1.53136 6.18457 1.33042 7.70901 1.33042C9.20573 1.33042 10.5292 1.55215 11.6795 1.99562C12.8297 2.42524 13.7444 3.03501 14.4234 3.82495C15.1025 4.60102 15.4767 5.51568 15.546 6.56893H10.3283C10.2728 6.19475 10.0303 5.88293 9.60069 5.63348C9.18494 5.37017 8.52666 5.23851 7.62586 5.23851C6.91907 5.23851 6.3578 5.32859 5.94205 5.50875C5.5263 5.67505 5.31842 5.95222 5.31842 6.34026C5.31842 6.52042 5.36692 6.6798 5.46393 6.81838C5.56094 6.95696 5.73417 7.07476 5.98363 7.17177C6.24694 7.25492 6.60726 7.31729 7.06459 7.35886L9.85015 7.56674C11.333 7.67761 12.5179 7.9132 13.4049 8.27352C14.3057 8.61998 14.957 9.10503 15.3589 9.72867C15.7608 10.3384 15.9617 11.0937 15.9617 11.9945C15.9617 13.1309 15.6361 14.1287 14.9847 14.988C14.3334 15.8333 13.4256 16.4916 12.2615 16.9628C11.0974 17.434 9.73235 17.6696 8.16634 17.6696ZM5.75496 19V15.965H10.1828V19H5.75496ZM5.75496 3.70022V0H10.1828V3.70022H5.75496Z" fill="url(#paint0_linear_238_3838)"/>
<defs>
<linearGradient id="paint0_linear_238_3838" x1="2.82803" y1="2.6421" x2="19.9653" y2="9.41462" gradientUnits="userSpaceOnUse">
<stop stop-color="#FEEDB1"/>
<stop offset="1" stop-color="#E7A92D"/>
</linearGradient>
</defs>
</svg>
