<svg width="14" height="19" viewBox="0 0 14 19" fill="none" xmlns="http://www.w3.org/2000/svg">
<g id="Group 478">
<path id="Vector" d="M0.834805 8.70068H2.81631C3.18905 8.70068 3.49315 9.00479 3.49315 9.37753V17.8233C3.49315 18.1961 3.18905 18.5002 2.81631 18.5002H0.834805C0.462064 18.5002 0.157959 18.1961 0.157959 17.8233V9.37747C0.157959 9.00479 0.462126 8.70068 0.834805 8.70068Z" fill="#FFD630"/>
<path id="Vector_2" d="M1.82568 8.70068H2.8164C3.18914 8.70068 3.49325 9.00479 3.49325 9.37753V17.8233C3.49325 18.1961 3.18914 18.5002 2.8164 18.5002H1.82568V8.70068Z" fill="#F5BE18"/>
<path id="Vector_3" d="M5.52401 5.89502H7.50552C7.87826 5.89502 8.18236 6.19913 8.18236 6.57187V17.8231C8.18236 18.1958 7.87826 18.4999 7.50552 18.4999H5.52401C5.15127 18.4999 4.84717 18.1958 4.84717 17.8231V6.5718C4.84711 6.19912 5.15121 5.89502 5.52401 5.89502Z" fill="#FFD630"/>
<path id="Vector_4" d="M6.51392 5.89502H7.50464C7.87738 5.89502 8.18148 6.19913 8.18148 6.57187V17.8231C8.18148 18.1958 7.87738 18.4999 7.50464 18.4999H6.51392V5.89502Z" fill="#F5BE18"/>
<path id="Vector_5" d="M12.8608 4.10003V17.8231C12.8608 18.1959 12.5567 18.5 12.184 18.5H10.2025C9.82973 18.5 9.52563 18.1959 9.52563 17.8231V4.10003H8.54468L11.1933 0.5L13.8417 4.10003H12.8608Z" fill="#FFD630"/>
<path id="Vector_6" d="M12.8609 4.10003V17.8231C12.8609 18.1959 12.5568 18.5 12.1841 18.5H11.1934V0.5L13.8418 4.10003H12.8609Z" fill="#F5BE18"/>
<path id="Vector_7" d="M10.5652 5.61084L8.02466 8.81847L9.52545 8.88717C9.52545 8.88717 9.08407 12.34 6.7396 14.3019C4.39513 16.2637 1.93311 15.6457 1.93311 15.6457C1.93311 15.6457 4.60116 16.4598 7.52435 15.1552C10.4475 13.8505 11.193 11.0647 11.193 8.89687H12.5564L10.5652 5.61084Z" fill="#F7F7F8"/>
</g>
</svg>
