<svg width="18" height="19" viewBox="0 0 18 19" fill="none" xmlns="http://www.w3.org/2000/svg">
<g id="Group 479">
<path id="Vector" d="M8.99988 18.5003C13.9704 18.5003 17.9998 14.4709 17.9998 9.50037C17.9998 4.52987 13.9704 0.500488 8.99988 0.500488C4.02939 0.500488 0 4.52987 0 9.50037C0 14.4709 4.02939 18.5003 8.99988 18.5003Z" fill="#CB9E31"/>
<path id="Vector_2" d="M8.99994 0.500172C13.9707 0.500172 18 4.52971 18 9.50023C18 14.4707 13.9704 18.5002 8.99994 18.5002L8.95703 18.4996V0.500402L8.99994 0.5V0.500172Z" fill="url(#paint0_linear_195_1528)"/>
<path id="Vector_3" d="M8.99997 2.51611C12.8572 2.51611 15.9841 5.64301 15.9841 9.50022C15.9841 13.3574 12.8572 16.4844 8.99997 16.4844C5.14276 16.4844 2.01587 13.3575 2.01587 9.50028C2.01587 5.64306 5.14276 2.51611 8.99997 2.51611Z" fill="#F7F7F8"/>
<g id="Group">
<path id="Vector_4" d="M15.1033 9.18213H14.3701C14.1951 9.18213 14.052 9.32526 14.052 9.50022V9.50045C14.052 9.67542 14.1951 9.81837 14.3701 9.81837H15.1033C15.2783 9.81837 15.4213 9.67519 15.4213 9.50045V9.50022C15.4213 9.32526 15.2781 9.18213 15.1033 9.18213Z" fill="#5B5B5B"/>
<path id="Vector_5" d="M2.89629 9.18213H3.62954C3.80451 9.18213 3.94763 9.32526 3.94763 9.50022V9.50045C3.94763 9.67542 3.80445 9.81837 3.62954 9.81837H2.89629C2.72133 9.81837 2.57837 9.67519 2.57837 9.50045V9.50022C2.57837 9.32526 2.72155 9.18213 2.89629 9.18213Z" fill="#5B5B5B"/>
<path id="Vector_6" d="M9.31806 15.6039V14.8707C9.31806 14.6957 9.17487 14.5527 8.99996 14.5527H8.99973C8.82477 14.5527 8.68164 14.6959 8.68164 14.8707V15.6039C8.68164 15.7789 8.82483 15.922 8.99973 15.922H8.99996C9.17487 15.9221 9.31806 15.7788 9.31806 15.6039Z" fill="#5B5B5B"/>
<path id="Vector_7" d="M9.31806 3.39671V4.12996C9.31806 4.30492 9.17487 4.44805 8.99996 4.44805H8.99973C8.82477 4.44805 8.68164 4.30486 8.68164 4.12996V3.39671C8.68164 3.22174 8.82483 3.07861 8.99973 3.07861H8.99996C9.17487 3.07856 9.31806 3.22174 9.31806 3.39671Z" fill="#5B5B5B"/>
<path id="Vector_8" d="M4.80778 13.9482L5.33784 13.4415C5.46427 13.3206 5.46881 13.1182 5.34794 12.9917V12.9914C5.22707 12.865 5.02468 12.8605 4.89796 12.9813L4.36813 13.488C4.2417 13.6089 4.23717 13.8113 4.35803 13.938H4.35827C4.47913 14.0645 4.68152 14.069 4.80778 13.9482Z" fill="#5B5B5B"/>
<path id="Vector_9" d="M13.6318 5.51275L13.1018 6.01946C12.9753 6.14033 12.7729 6.1358 12.6522 6.00936L12.652 6.00913C12.5311 5.8827 12.5356 5.68031 12.6621 5.55933L13.1921 5.05262C13.3186 4.93175 13.521 4.93628 13.6419 5.06271C13.7629 5.18926 13.7583 5.39165 13.6318 5.51275Z" fill="#5B5B5B"/>
<path id="Vector_10" d="M13.6749 13.4368L13.1393 12.9359C13.0116 12.8165 12.8092 12.8233 12.6897 12.9509L12.6895 12.9512C12.5698 13.0789 12.5767 13.2812 12.7044 13.4007L13.24 13.9014C13.3679 14.0209 13.5703 14.014 13.6898 13.8864V13.8862C13.8092 13.7585 13.8026 13.556 13.6748 13.4366L13.6749 13.4368Z" fill="#5B5B5B"/>
<path id="Vector_11" d="M4.7595 5.09927L5.29513 5.59996C5.42283 5.7194 5.4296 5.92178 5.30999 6.04954H5.30976C5.19032 6.17723 4.98793 6.184 4.86018 6.06439L4.32455 5.56371C4.19668 5.44427 4.19009 5.24188 4.30952 5.11413C4.42896 4.98644 4.63135 4.97944 4.75933 5.0991L4.7595 5.09927Z" fill="#5B5B5B"/>
</g>
<path id="Vector_12" d="M8.99989 12.4324C10.6192 12.4324 11.9319 11.1197 11.9319 9.50038C11.9319 7.88107 10.6192 6.56836 8.99989 6.56836C7.38058 6.56836 6.06787 7.88107 6.06787 9.50038C6.06787 11.1197 7.38058 12.4324 8.99989 12.4324Z" fill="#CCCCCC"/>
<g id="Group_2">
<path id="Vector_13" d="M9.33616 4.85059H8.66479V11.0677H9.33616V4.85059Z" fill="#4D4D4D"/>
<path id="Vector_14" d="M12.8118 9.16455H7.45459V9.8359H12.8118V9.16455Z" fill="#4D4D4D"/>
</g>
<path id="Vector_15" d="M8.9996 10.5646C9.58752 10.5646 10.0641 10.088 10.0641 9.50008C10.0641 8.91216 9.58752 8.43555 8.9996 8.43555C8.41167 8.43555 7.93506 8.91216 7.93506 9.50008C7.93506 10.088 8.41167 10.5646 8.9996 10.5646Z" fill="url(#paint1_linear_195_1528)"/>
<path id="Vector_16" d="M8.99981 9.88488C9.2122 9.88488 9.38439 9.7127 9.38439 9.5003C9.38439 9.28791 9.2122 9.11572 8.99981 9.11572C8.78741 9.11572 8.61523 9.28791 8.61523 9.5003C8.61523 9.7127 8.78741 9.88488 8.99981 9.88488Z" fill="#E3E3E3"/>
</g>
<defs>
<linearGradient id="paint0_linear_195_1528" x1="10.5413" y1="3.00307" x2="21.1957" y2="5.52705" gradientUnits="userSpaceOnUse">
<stop stop-color="#FEEDB1"/>
<stop offset="1" stop-color="#E7A92D"/>
</linearGradient>
<linearGradient id="paint1_linear_195_1528" x1="8.30806" y1="8.73161" x2="10.4754" y2="9.7536" gradientUnits="userSpaceOnUse">
<stop stop-color="#FEEDB1"/>
<stop offset="1" stop-color="#E7A92D"/>
</linearGradient>
</defs>
</svg>
