<svg width="24" height="21" viewBox="-2 0 24 21" fill="none" xmlns="http://www.w3.org/2000/svg">
<g id="Group">
<path id="Vector" d="M17.7181 20.5966C17.117 20.5966 16.5474 20.3579 16.1139 19.9244L13.3362 17.1467C13.2355 17.0459 13.1788 16.9093 13.1788 16.7669C13.1788 16.6243 13.2355 16.4878 13.3362 16.3869L15.6155 14.1075C15.7163 14.0068 15.853 13.9502 15.9955 13.9502C16.138 13.9502 16.2746 14.0068 16.3754 14.1075L19.1532 16.8852C19.5714 17.3035 19.8098 17.8531 19.8247 18.4333C19.8398 19.0237 19.6224 19.5745 19.2129 19.9842C18.8178 20.3791 18.2871 20.5966 17.7181 20.5966ZM14.476 16.767L16.8738 19.1648C17.1043 19.3954 17.4041 19.5223 17.7182 19.5223C18.0001 19.5223 18.261 19.4166 18.453 19.2245C18.6523 19.0252 18.7579 18.7541 18.7505 18.461C18.7427 18.1576 18.6159 17.8678 18.3934 17.6453L15.9957 15.2476L14.476 16.767Z" fill="#CB9E31"/>
<path id="Vector_2" d="M12.1966 18.8237C12.0591 18.8237 11.9216 18.7712 11.8166 18.6664C11.6069 18.4566 11.6069 18.1163 11.8166 17.9065L17.5151 12.2079C17.7249 11.9981 18.065 11.9981 18.2749 12.2079C18.4847 12.4177 18.4847 12.7579 18.2749 12.9676L12.5765 18.6663C12.4715 18.7711 12.3341 18.8236 12.1966 18.8236L12.1966 18.8237Z" fill="#CB9E31"/>
<path id="Vector_3" d="M15.2357 20.3435C15.0982 20.3435 14.9608 20.291 14.8558 20.1862C14.646 19.9764 14.646 19.6361 14.8558 19.4263L18.6549 15.6273C18.8646 15.4175 19.2048 15.4175 19.4146 15.6273C19.6244 15.8371 19.6244 16.1773 19.4146 16.3871L15.6156 20.1862C15.5107 20.291 15.3733 20.3435 15.2357 20.3435Z" fill="#CB9E31"/>
<path id="Vector_4" d="M6.20087 11.3088C6.05834 11.3088 5.9218 11.2522 5.82102 11.1515L1.47967 6.81016C1.40574 6.73623 1.35501 6.6424 1.33366 6.54007L0.284417 1.51082C0.246538 1.32944 0.304903 1.14128 0.438643 1.01317C0.572382 0.884933 0.762836 0.834685 0.942483 0.880294L5.79065 2.11044C5.88438 2.13422 5.97 2.18292 6.03842 2.25124L10.3798 6.59259C10.4805 6.69328 10.5371 6.82992 10.5371 6.97244C10.5371 7.11496 10.4805 7.25151 10.3798 7.3523L6.58075 11.1513C6.47997 11.2523 6.3434 11.3088 6.20087 11.3088ZM2.3528 6.16374L6.20087 10.0118L7.34056 8.87213L3.75916 5.29073C3.65431 5.18579 3.60184 5.04828 3.60184 4.91078C3.60184 4.77328 3.65431 4.63577 3.75916 4.53093C3.96895 4.32114 4.30918 4.32114 4.51899 4.53093L8.10039 8.11232L9.24007 6.97264L5.38309 3.11566L1.51183 2.13339L2.3528 6.16374Z" fill="#CB9E31"/>
<path id="Vector_5" d="M14.8558 16.1645C14.7183 16.1645 14.5808 16.112 14.4758 16.0072L11.5194 13.0508C11.4187 12.95 11.3621 12.8133 11.3621 12.6709C11.3621 12.5284 11.4187 12.3917 11.5194 12.2909L13.4189 10.3914C13.6289 10.1816 13.9689 10.1817 14.1787 10.3914L17.1349 13.3476C17.2357 13.4484 17.2922 13.5851 17.2922 13.7276C17.2922 13.8701 17.2356 14.0067 17.1349 14.1075L15.2354 16.0071C15.1306 16.1119 14.9931 16.1644 14.8556 16.1644L14.8558 16.1645ZM12.6592 12.671L14.8558 14.8676L15.9955 13.7279L13.7989 11.5313L12.6592 12.671Z" fill="#CB9E31"/>
<path id="Vector_6" d="M12.956 18.064C12.8185 18.064 12.6811 18.0115 12.5762 17.9067L9.61975 14.9505C9.40995 14.7407 9.40995 14.4004 9.61975 14.1906L11.5193 12.2911C11.7291 12.0813 12.0692 12.0813 12.2791 12.2911L15.2353 15.2473C15.4451 15.4571 15.4451 15.7974 15.2353 16.0072L13.3358 17.9067C13.2309 18.0115 13.0935 18.064 12.9559 18.064H12.956ZM10.7596 14.5705L12.956 16.767L14.0957 15.6274L11.8992 13.4308L10.7596 14.5705Z" fill="#CB9E31"/>
<path id="Vector_7" d="M8.10011 9.40916C7.9626 9.40916 7.8251 9.35678 7.72016 9.25184L3.75878 5.29046C3.54899 5.08067 3.54899 4.74044 3.75878 4.53063C3.96857 4.32084 4.30881 4.32084 4.51861 4.53063L8.47999 8.49201C8.68978 8.7018 8.68978 9.04204 8.47999 9.25184C8.37514 9.35678 8.23751 9.40916 8.10011 9.40916Z" fill="#CB9E31"/>
<path id="Vector_8" d="M14.8558 16.1644C14.7183 16.1644 14.5808 16.1119 14.4758 16.0071L11.5194 13.0506C11.3096 12.8408 11.3096 12.5007 11.5194 12.2909C11.7293 12.0811 12.0693 12.0811 12.2792 12.2909L15.2354 15.2471C15.4452 15.4569 15.4452 15.7971 15.2354 16.0069C15.1306 16.1118 14.9932 16.1642 14.8557 16.1642L14.8558 16.1644Z" fill="#CB9E31"/>
<path id="Vector_9" d="M7.04335 18.064C6.90584 18.064 6.76834 18.0115 6.6635 17.9067L2.86447 14.1077C2.76378 14.0069 2.70715 13.8702 2.70715 13.7277C2.70715 13.5852 2.76378 13.4486 2.86447 13.3478L13.961 2.2512C14.0295 2.18278 14.1151 2.13417 14.2088 2.1104L19.0572 0.880254C19.2366 0.834741 19.4272 0.884892 19.561 1.01312C19.6947 1.14136 19.7531 1.3294 19.7153 1.51078L18.6661 6.54003C18.6447 6.64236 18.594 6.73619 18.52 6.81022L7.42323 17.9068C7.31828 18.0116 7.18085 18.064 7.04335 18.064ZM4.00403 13.7277L7.04335 16.767L17.6469 6.16371L18.4877 2.13338L14.6164 3.11565L4.00403 13.7277Z" fill="#CB9E31"/>
<path id="Vector_10" d="M2.28169 20.5966C1.71282 20.5966 1.18201 20.3791 0.787069 19.9842C0.377531 19.5745 0.160207 19.0238 0.175297 18.4333C0.190082 17.8531 0.428565 17.3035 0.846812 16.8852L3.62455 14.1075C3.72534 14.0068 3.86198 13.9502 4.0045 13.9502C4.14702 13.9502 4.28357 14.0068 4.38445 14.1075L6.66384 16.3869C6.87363 16.5967 6.87363 16.9369 6.66384 17.1466L3.8861 19.9244C3.45252 20.3579 2.88273 20.5966 2.28169 20.5966ZM4.00435 15.2474L1.60659 17.6451C1.38405 17.8677 1.25717 18.1574 1.24942 18.4608C1.24198 18.754 1.34751 19.0251 1.54685 19.2243C1.73886 19.4164 1.99985 19.5221 2.28164 19.5221C2.59569 19.5221 2.89554 19.3952 3.12603 19.1646L5.52379 16.7668L4.00435 15.2474Z" fill="#CB9E31"/>
<path id="Vector_11" d="M7.80336 18.8238C7.66585 18.8238 7.52835 18.7714 7.42351 18.6665L1.72485 12.9679C1.51506 12.7581 1.51506 12.4178 1.72485 12.2081C1.93464 11.9983 2.27487 11.9983 2.48468 12.2081L8.18334 17.9068C8.39313 18.1166 8.39313 18.4568 8.18334 18.6666C8.07839 18.7715 7.94088 18.8239 7.80339 18.8239L7.80336 18.8238Z" fill="#CB9E31"/>
<path id="Vector_12" d="M4.7642 20.3435C4.62669 20.3435 4.48919 20.291 4.38435 20.1862L0.585322 16.3871C0.375531 16.1774 0.375531 15.8371 0.585322 15.6273C0.795113 15.4175 1.13535 15.4175 1.34515 15.6273L5.14418 19.4263C5.35397 19.6361 5.35397 19.9764 5.14418 20.1862C5.03923 20.291 4.90172 20.3435 4.76422 20.3435H4.7642Z" fill="#CB9E31"/>
<path id="Vector_13" d="M5.14398 16.1644C5.00648 16.1644 4.86897 16.1119 4.76403 16.0071C4.55424 15.7973 4.55424 15.457 4.76403 15.2472L11.4809 8.53039C11.6907 8.3206 12.0309 8.3206 12.2407 8.53039C12.4505 8.74018 12.4505 9.08042 12.2407 9.29022L5.52386 16.0071C5.41892 16.1119 5.28148 16.1644 5.14398 16.1644Z" fill="#CB9E31"/>
</g>
</svg>
