<svg width="32" height="28" viewBox="-4.5 0 32 28" fill="none" xmlns="http://www.w3.org/2000/svg">
<path fill-rule="evenodd" clip-rule="evenodd" d="M11.5932 13.7335C15.158 13.7335 18.0477 10.8438 18.0477 7.27897C18.0477 3.71429 15.158 0.824463 11.5932 0.824463C8.02844 0.824463 5.13872 3.71441 5.13872 7.27897C5.13872 10.8438 8.02844 13.7335 11.5932 13.7335ZM0.616556 22.0195C3.31236 25.2226 7.05141 27.1757 11.6601 27.1757C16.3556 27.1757 20.0948 25.2226 22.7905 22.0195C22.9644 21.7069 22.9644 21.3163 22.7905 21.0819C20.095 17.8008 16.3559 15.9257 11.6601 15.9257C7.05141 15.9257 3.31221 17.8006 0.616556 21.0819C0.355679 21.3163 0.355679 21.7069 0.616556 22.0195Z" fill="#1C1A29"/>
</svg>
