<svg width="24" height="24" viewBox="0 0 24 24" fill="none" xmlns="http://www.w3.org/2000/svg">
<g id="person_add_24">
<path id="Vector" fill-rule="evenodd" clip-rule="evenodd" d="M12.0006 5.13057C10.3528 5.13057 9.07316 6.4107 9.07316 7.92178C9.07316 9.43285 10.3528 10.713 12.0006 10.713C13.6484 10.713 14.9281 9.43285 14.9281 7.92178C14.9281 6.4107 13.6484 5.13057 12.0006 5.13057ZM7.27316 7.92178C7.27316 5.35565 9.42074 3.33057 12.0006 3.33057C14.5805 3.33057 16.7281 5.35565 16.7281 7.92178C16.7281 10.4879 14.5805 12.513 12.0006 12.513C9.42074 12.513 7.27316 10.4879 7.27316 7.92178ZM12.0006 15.7428C7.07472 15.7428 5.82837 18.4982 5.71934 19.5496C5.66808 20.044 5.22573 20.4033 4.73132 20.352C4.23691 20.3007 3.87768 19.8584 3.92894 19.364C4.13887 17.3394 6.20964 13.9428 12.0006 13.9428C17.7916 13.9428 19.8624 17.3394 20.0723 19.364C20.1235 19.8584 19.7643 20.3007 19.2699 20.352C18.7755 20.4033 18.3331 20.044 18.2819 19.5496C18.1729 18.4982 16.9265 15.7428 12.0006 15.7428Z" fill="#CB9E31"/>
</g>
</svg>
