<svg width="48" height="48" viewBox="0 0 48 48" fill="none" xmlns="http://www.w3.org/2000/svg">
<g id="Icon">
<path id="Vector" d="M0 23.04C0 12.1776 0 6.7488 3.3744 3.3744C6.7488 0 12.1776 0 23.04 0H24.96C35.8224 0 41.2512 0 44.6256 3.3744C48 6.7488 48 12.1776 48 23.04V24.96C48 35.8224 48 41.2512 44.6256 44.6256C41.2512 48 35.8224 48 24.96 48H23.04C12.1776 48 6.7488 48 3.3744 44.6256C0 41.2512 0 35.8224 0 24.96V23.04Z" fill="#0077FF"/>
<path id="Vector_2" d="M27.9984 0C19.1328 0.0288 14.4144 0.3264 11.3712 3.3696C7.99683 6.744 7.99683 12.1728 7.99683 23.0352V24.9552C7.99683 35.8176 7.99683 41.2464 11.3712 44.6208C14.4144 47.664 19.1328 47.9616 27.9984 47.9904C36.864 47.9616 41.5824 47.664 44.6256 44.6208C48 41.2464 48 35.8176 48 24.9552V23.0352C48 12.1728 48 6.744 44.6256 3.3696C41.5824 0.3312 36.864 0.0336 27.9984 0Z" fill="#FF2B42"/>
<path id="Vector_3" d="M33.8688 19.7327C36.2976 21.1343 37.5072 21.8351 37.9152 22.7471C38.2704 23.5439 38.2704 24.4559 37.9152 25.2527C37.5072 26.1695 36.2928 26.8655 33.8688 28.2671L27.2208 32.1071C24.792 33.5087 23.5824 34.2095 22.584 34.1039C21.7152 34.0127 20.928 33.5567 20.4144 32.8511C19.824 32.0399 19.824 30.6383 19.824 27.8399V20.1599C19.824 17.3567 19.824 15.9551 20.4144 15.1487C20.928 14.4431 21.7152 13.9871 22.584 13.8959C23.5776 13.7903 24.792 14.4911 27.2208 15.8927L33.8688 19.7327Z" fill="white"/>
</g>
</svg>
