<svg width="153" height="170" viewBox="0 0 153 170" fill="none" xmlns="http://www.w3.org/2000/svg">
<g style="mix-blend-mode:color-dodge" filter="url(#filter0_f_452_5768)">
<path d="M140.533 83.4576C140.533 85.7158 140.928 88.152 141.456 90.6411C141.72 91.8867 142.019 93.1494 142.319 94.4122L142.379 94.6646C142.66 95.8442 142.941 97.023 143.196 98.1924C144.296 103.225 144.903 107.979 143.113 111.647C141.488 114.975 137.928 116.885 133.959 118.611C133.27 118.911 132.566 119.205 131.861 119.501C130.556 120.048 129.245 120.598 127.997 121.189C126.069 122.101 124.258 123.127 122.795 124.427C121.248 125.801 119.96 127.516 118.779 129.342C118.064 130.447 117.378 131.608 116.696 132.762C116.257 133.506 115.819 134.248 115.376 134.969C113.095 138.685 110.626 141.967 106.759 143.247C103.757 144.242 99.997 144.247 96.0976 143.993C94.7498 143.906 93.383 143.787 92.0291 143.669C89.4936 143.449 87.003 143.232 84.7665 143.232C80.0451 143.232 76.5865 141.856 73.2969 139.993C72.0603 139.293 70.8525 138.527 69.6071 137.737C69.1892 137.472 68.7671 137.204 68.3383 136.935C66.6356 135.868 64.8366 134.79 62.8094 133.821C60.6279 132.778 57.7151 132.217 54.7989 131.656C54.2077 131.542 53.6164 131.428 53.031 131.311C49.5147 130.603 46.2157 129.75 44.1898 127.951C41.3695 125.446 39.2567 122.036 37.4249 118.371C36.5097 116.54 35.6675 114.652 34.8423 112.787C34.7813 112.649 34.7203 112.511 34.6593 112.373C33.8982 110.652 33.1479 108.955 32.3675 107.355C31.7296 106.048 31.0856 104.795 30.4565 103.571C27.432 97.6845 24.7523 92.4691 24.7523 85.174C24.7523 80.4504 26.2205 76.4876 28.2275 72.6993C29.223 70.8202 30.3484 68.9888 31.4927 67.1264L31.524 67.0755C32.6775 65.1983 33.8486 63.2899 34.9116 61.2854C35.8901 59.4401 36.74 57.4923 37.5649 55.5361C37.7321 55.1396 37.8982 54.7428 38.0641 54.3465C38.7184 52.784 39.3699 51.2279 40.0752 49.7146C41.8431 45.9213 43.9289 42.4423 47.1598 39.926C48.7086 38.7198 50.4263 37.0607 52.2186 35.3296C53.0301 34.5459 53.8568 33.7474 54.69 32.9695C57.3857 30.4528 60.1564 28.1434 62.7906 27.0946C66.2586 25.7138 69.6925 25.7088 73.2987 26.0591C74.409 26.1669 75.5398 26.3092 76.6931 26.4544C79.2658 26.7783 81.9501 27.1162 84.7665 27.1162C91.5725 27.1162 98.1132 28.2121 104.211 30.2311C108.14 31.5322 111.261 33.6673 114.163 36.1583C115.615 37.4047 117.01 38.7379 118.425 40.1007C118.529 40.201 118.633 40.3015 118.738 40.4021C120.05 41.6665 121.384 42.9523 122.795 44.2049C123.557 44.8824 124.328 45.5584 125.101 46.236C131.802 52.1104 138.646 58.1108 141.572 66.3935C142.59 69.2783 142.347 71.8532 141.833 74.5604C141.723 75.1401 141.601 75.7274 141.476 76.3254C141.019 78.5084 140.533 80.834 140.533 83.4576Z" stroke="#FCDF89" stroke-width="0.612791"/>
</g>
<g filter="url(#filter1_f_452_5768)">
<path d="M136.519 105.882C135.621 107.954 135.014 110.346 134.508 112.84C134.255 114.088 134.026 115.365 133.799 116.643L133.754 116.899C133.542 118.092 133.33 119.285 133.099 120.46C132.106 125.514 130.771 130.118 127.669 132.77C124.855 135.177 120.828 135.513 116.501 135.517C115.749 135.517 114.986 135.508 114.221 135.499C112.807 135.481 111.384 135.464 110.005 135.509C107.873 135.579 105.804 135.799 103.944 136.41C101.978 137.055 100.114 138.116 98.3032 139.321C97.2077 140.051 96.1167 140.843 95.0323 141.63C94.3329 142.138 93.6362 142.644 92.9429 143.13C89.3719 145.631 85.8004 147.66 81.7436 147.296C78.5932 147.013 75.1418 145.522 71.6653 143.737C70.4637 143.121 69.2571 142.468 68.0618 141.821C65.8235 140.61 63.6248 139.42 61.573 138.53C57.2414 136.651 54.6158 134.013 52.3391 130.995C51.4833 129.86 50.6801 128.677 49.8519 127.457C49.574 127.047 49.2933 126.634 49.0068 126.216C47.8695 124.56 46.6481 122.855 45.174 121.159C43.5876 119.334 41.1384 117.66 38.6863 115.985C38.1892 115.646 37.692 115.306 37.2018 114.965C34.2576 112.916 31.5701 110.822 30.4276 108.365C28.8369 104.944 28.2556 100.975 28.0333 96.8841C27.9222 94.8402 27.9009 92.7729 27.886 90.7334C27.885 90.5824 27.8839 90.4316 27.8828 90.2809C27.8696 88.3988 27.8565 86.5431 27.7769 84.7657C27.7118 83.3126 27.6197 81.9065 27.5297 80.5329C27.0972 73.9294 26.714 68.0784 29.6169 61.3857C31.4965 57.0521 34.4204 54.0008 37.769 51.3239C39.43 49.9962 41.1912 48.7638 42.9821 47.5106L43.0312 47.4763C44.8363 46.2131 46.6701 44.9283 48.443 43.5123C50.075 42.2088 51.6297 40.76 53.1649 39.2936C53.476 38.9963 53.7863 38.6985 54.0962 38.4009C55.3182 37.2278 56.5352 36.0594 57.7844 34.9517C60.9157 32.1751 64.2136 29.8134 68.179 28.7906C70.0799 28.3002 72.3159 27.4617 74.6491 26.5867C75.7053 26.1906 76.7815 25.787 77.8555 25.4049C81.33 24.1687 84.7909 23.1525 87.6249 23.2385C91.356 23.3518 94.5082 24.7135 97.6773 26.4698C98.653 27.0106 99.6338 27.5911 100.634 28.1832C102.865 29.5041 105.194 30.8823 107.777 32.003C114.021 34.7112 119.586 38.3192 124.377 42.5978C127.464 45.355 129.478 48.5558 131.149 51.9959C131.985 53.7172 132.734 55.4952 133.49 57.3085C133.545 57.442 133.601 57.5756 133.657 57.7095C134.357 59.3917 135.07 61.1022 135.865 62.8124C136.295 63.7376 136.734 64.6645 137.173 65.5937C140.983 73.6494 144.875 81.8777 144.262 90.6405C144.049 93.6924 142.801 95.9578 141.253 98.2371C140.921 98.7252 140.575 99.2151 140.222 99.714C138.935 101.535 137.563 103.475 136.519 105.882Z" stroke="#FCDF89" stroke-width="0.612791"/>
</g>
<g filter="url(#filter2_f_452_5768)">
<path d="M123.091 125.232C121.395 126.771 119.841 128.722 118.349 130.791C117.602 131.827 116.865 132.899 116.132 133.97L115.986 134.184C115.3 135.185 114.618 136.183 113.925 137.155C110.932 141.358 107.874 144.913 104.069 146.019C100.634 147.018 96.9248 145.718 92.9729 143.935C92.2953 143.629 91.6081 143.308 90.9167 142.986C89.6304 142.385 88.3294 141.778 87.048 141.248C85.0662 140.43 83.059 139.765 81.0699 139.55C78.9731 139.324 76.8065 139.528 74.6484 139.882C73.3463 140.095 72.0118 140.371 70.6928 140.643C69.8474 140.817 69.0083 140.99 68.1881 141.145C63.906 141.952 59.9163 142.305 56.4745 140.361C53.7767 138.837 51.2776 136.099 48.8462 133.043C48.0153 131.998 47.1895 130.913 46.3689 129.833C44.8224 127.8 43.294 125.79 41.7828 124.125C38.6565 120.68 37.3689 117.248 36.5452 113.593C36.2346 112.215 35.9922 110.817 35.7406 109.366C35.6558 108.877 35.5701 108.382 35.4803 107.88C35.1259 105.898 34.7129 103.828 34.0634 101.658C33.3572 99.3001 31.7885 96.7238 30.2444 94.188C29.933 93.6766 29.6226 93.1669 29.3205 92.6609C27.4751 89.5703 25.9382 86.6238 25.9103 84.0099C25.8707 80.2965 26.9597 76.4834 28.4377 72.6765C29.1756 70.7759 30.0052 68.8895 30.832 67.0247C30.8933 66.8865 30.9545 66.7484 31.0158 66.6105C31.7786 64.8911 32.5335 63.1896 33.1956 61.5314C33.7396 60.1687 34.2381 58.8419 34.7238 57.5491C37.0495 51.3589 39.0826 45.9477 44.4256 41.0991C47.873 37.9708 51.7415 36.4122 55.8689 35.3595C57.9199 34.8363 60.0243 34.4405 62.1757 34.0358L62.2298 34.0256C64.3937 33.6185 66.6034 33.2017 68.8131 32.639C70.8512 32.1201 72.8756 31.4366 74.8796 30.7325C75.2873 30.5892 75.6939 30.4452 76.0996 30.3015C77.6957 29.7363 79.2786 29.1756 80.8669 28.6829C84.8486 27.4477 88.7706 26.6714 92.7334 27.3605C94.684 27.6998 97.0948 27.8588 99.5905 28.0234C100.712 28.0974 101.851 28.1725 102.973 28.2656C106.65 28.5708 110.168 29.0686 112.657 30.2863C115.945 31.8946 118.221 34.3875 120.375 37.2799C121.031 38.1607 121.68 39.0859 122.344 40.0333C123.839 42.1635 125.411 44.4054 127.317 46.5056C131.869 51.5212 135.435 57.0736 138.024 62.9163C139.679 66.6509 140.192 70.3535 140.297 74.1541C140.349 76.0571 140.3 77.9776 140.241 79.9418C140.237 80.0866 140.233 80.2316 140.228 80.3769C140.174 82.1973 140.118 84.0554 140.138 85.9479C140.149 86.9692 140.167 87.9938 140.184 89.0197C140.336 97.9426 140.489 106.958 136.362 114.615C134.949 117.237 132.933 118.752 130.599 120.182C130.105 120.484 129.594 120.785 129.07 121.092C127.144 122.222 125.06 123.446 123.091 125.232Z" stroke="#FCDF89" stroke-width="1.22558"/>
</g>
<g filter="url(#filter3_f_452_5768)">
<path d="M81.0451 136.885C78.9564 136.649 76.6727 136.76 74.3477 136.985C73.1831 137.098 72.0002 137.241 70.8212 137.384L70.5854 137.413C69.4832 137.547 68.3854 137.68 67.2991 137.792C62.6 138.276 58.3262 138.32 55.2834 136.384C52.5382 134.638 51.1937 131.322 50.0298 127.527C49.8308 126.878 49.6361 126.212 49.4401 125.542C49.0751 124.295 48.7056 123.031 48.2945 121.829C47.6586 119.971 46.9002 118.184 45.8414 116.681C44.7257 115.098 43.2716 113.728 41.7224 112.458C40.7881 111.692 39.7904 110.94 38.8053 110.197C38.1746 109.721 37.549 109.25 36.9485 108.781C33.8054 106.326 31.1658 103.807 30.4255 100.287C29.8442 97.5223 30.2136 94.1585 30.8444 90.6404C31.0596 89.4405 31.3064 88.2179 31.5519 87.0022C32.015 84.7086 32.4732 82.4392 32.7045 80.3919C33.1812 76.1725 34.7562 73.2219 36.7669 70.4511C37.5255 69.4057 38.339 68.3952 39.1839 67.3456C39.4689 66.9916 39.7575 66.6331 40.0487 66.2674C41.197 64.8253 42.3717 63.2883 43.4715 61.5281C44.6693 59.6112 45.4941 56.9676 46.3034 54.3737C46.4665 53.8511 46.6289 53.3305 46.7936 52.8184C47.8029 49.6799 48.8956 46.8565 50.6632 45.2681C53.184 43.0029 56.4556 41.4493 59.9632 40.1647C61.7142 39.5235 63.511 38.9537 65.2925 38.3948C65.4247 38.3533 65.5568 38.3119 65.6888 38.2705C67.3312 37.7556 68.9578 37.2457 70.4984 36.6981C71.7659 36.2476 72.9804 35.7877 74.1632 35.3399C79.8226 33.197 84.7574 31.3286 91.3059 32.0684C95.5282 32.5454 98.9296 34.2573 102.144 36.455C103.742 37.5474 105.285 38.7535 106.864 39.9879L106.903 40.0184C108.491 41.2594 110.114 42.5271 111.838 43.7067C113.429 44.7951 115.124 45.7743 116.819 46.7261C117.164 46.9198 117.509 47.1123 117.853 47.3044C119.207 48.0596 120.548 48.808 121.845 49.6011C125.099 51.5896 127.994 53.8106 129.91 56.9401C130.857 58.4882 132.208 60.2449 133.604 62.0609C134.231 62.8759 134.867 63.7028 135.479 64.5281C137.493 67.2403 139.272 69.9523 139.936 72.3885C140.815 75.6082 140.479 78.6695 139.794 81.8953C139.586 82.8757 139.343 83.8794 139.093 84.908C138.532 87.224 137.941 89.6656 137.649 92.2482C136.954 98.4025 135.295 104.204 132.847 109.51C131.284 112.897 129.055 115.482 126.509 117.849C125.234 119.034 123.885 120.16 122.5 121.307C122.398 121.392 122.295 121.476 122.193 121.561C120.909 122.624 119.597 123.71 118.308 124.868C117.613 125.493 116.919 126.124 116.225 126.756C110.182 132.255 104.089 137.8 96.3457 139.589C93.7033 140.199 91.4546 139.733 89.0642 138.994C88.559 138.838 88.0447 138.668 87.5182 138.495C85.576 137.854 83.4689 137.158 81.0451 136.885Z" stroke="#FCDF89" stroke-width="1.22558"/>
</g>
<g style="mix-blend-mode:color-dodge" filter="url(#filter4_f_452_5768)">
<path d="M137.275 83.0891C137.275 85.2096 137.646 87.4967 138.142 89.8322C138.39 91.001 138.67 92.1859 138.952 93.3705L139.009 93.6087C139.272 94.715 139.536 95.8202 139.775 96.9165C140.808 101.638 141.376 106.092 139.699 109.526C138.177 112.642 134.841 114.432 131.115 116.05C130.468 116.332 129.808 116.608 129.146 116.885C127.921 117.399 126.689 117.915 125.517 118.469C123.707 119.326 122.005 120.288 120.629 121.51C119.175 122.8 117.965 124.411 116.855 126.125C116.184 127.162 115.54 128.252 114.9 129.335C114.487 130.033 114.076 130.728 113.661 131.404C111.52 134.89 109.205 137.964 105.582 139.163C102.767 140.094 99.2404 140.099 95.5799 139.862C94.3156 139.779 93.033 139.668 91.7622 139.557C89.3813 139.35 87.0417 139.147 84.9414 139.147C80.5132 139.147 77.2696 137.858 74.1832 136.111C73.0227 135.455 71.8895 134.736 70.7205 133.995C70.3281 133.747 69.9317 133.495 69.5289 133.243C67.9303 132.241 66.2407 131.229 64.3367 130.32C62.2863 129.34 59.5488 128.814 56.8111 128.287C56.2564 128.181 55.7016 128.074 55.1525 127.964C51.8508 127.299 48.7588 126.5 46.8614 124.816C44.2164 122.469 42.2343 119.272 40.515 115.835C39.656 114.117 38.8656 112.346 38.0909 110.597C38.0336 110.467 37.9764 110.338 37.9192 110.208C37.2047 108.594 36.5001 107.001 35.7673 105.5C35.1681 104.273 34.5633 103.097 33.9726 101.948C31.1335 96.4264 28.6202 91.5382 28.6202 84.6994C28.6202 80.2722 29.9972 76.5577 31.8805 73.0052C32.8147 71.2429 33.8709 69.5252 34.9453 67.7779L34.9746 67.7303C36.0573 65.9693 37.1571 64.1785 38.1554 62.2973C39.0744 60.5654 39.8725 58.7374 40.6469 56.9022C40.8039 56.53 40.9599 56.1578 41.1157 55.7859C41.7298 54.3201 42.3413 52.8607 43.0033 51.4414C44.6624 47.8837 46.619 44.6231 49.6486 42.2652C51.1034 41.133 52.7171 39.5754 54.4002 37.9509C55.1617 37.2158 55.9374 36.4671 56.719 35.7379C59.2497 33.3768 61.8486 31.2126 64.3178 30.2301C67.5694 28.9364 70.7895 28.9314 74.1739 29.2599C75.2152 29.3609 76.2762 29.4944 77.3585 29.6306C79.7743 29.9345 82.2963 30.2517 84.9414 30.2517C91.3287 30.2517 97.467 31.2795 103.189 33.173C106.875 34.3926 109.803 36.3939 112.526 38.73C113.889 39.8989 115.198 41.1493 116.526 42.4278C116.624 42.522 116.722 42.6163 116.82 42.7108C118.052 43.897 119.305 45.1033 120.629 46.2786C121.345 46.9143 122.069 47.5484 122.794 48.184C129.085 53.6957 135.506 59.3215 138.251 67.0869C139.206 69.7884 138.978 72.2001 138.496 74.7387C138.393 75.2819 138.278 75.8325 138.16 76.3932C137.732 78.4414 137.275 80.6257 137.275 83.0891Z" stroke="#FCDF89" stroke-width="0.612791"/>
</g>
<g filter="url(#filter5_f_452_5768)">
<path d="M132.667 104.543C131.832 106.47 131.267 108.694 130.797 111.012C130.562 112.172 130.349 113.359 130.138 114.546L130.096 114.784C129.899 115.894 129.703 117.002 129.488 118.092C128.565 122.79 127.325 127.059 124.45 129.519C121.841 131.749 118.108 132.062 114.087 132.065C113.388 132.066 112.68 132.057 111.97 132.048C110.655 132.032 109.332 132.016 108.05 132.058C106.069 132.124 104.144 132.328 102.412 132.896C100.583 133.496 98.8496 134.484 97.1661 135.604C96.148 136.282 95.1335 137.018 94.1256 137.75C93.4758 138.222 92.8287 138.692 92.1851 139.143C88.8672 141.467 85.5544 143.347 81.7935 143.01C78.8708 142.748 75.6671 141.364 72.437 139.706C71.3215 139.134 70.2009 138.527 69.0904 137.926C67.0101 136.8 64.9656 135.694 63.0584 134.867C59.0381 133.123 56.6012 130.675 54.4872 127.872C53.6924 126.819 52.9465 125.72 52.1771 124.586C51.9188 124.205 51.6579 123.821 51.3916 123.433C50.3347 121.893 49.1992 120.308 47.8287 118.732C46.3527 117.034 44.074 115.477 41.7956 113.92C41.3339 113.605 40.8723 113.29 40.4173 112.973C37.6809 111.069 35.1889 109.126 34.1302 106.849C32.654 103.675 32.114 99.9898 31.9075 96.1897C31.8043 94.2912 31.7845 92.3707 31.7707 90.4757C31.7697 90.3355 31.7687 90.1955 31.7677 90.0555C31.7554 88.3067 31.7432 86.582 31.6692 84.9299C31.6087 83.5789 31.5231 82.2718 31.4395 80.9952C31.0378 74.8597 30.6821 69.429 33.3771 63.2156C35.1216 59.1935 37.8355 56.361 40.9455 53.8749C42.4882 52.6417 44.1242 51.4969 45.7884 50.3324L45.8337 50.3006C47.5109 49.127 49.2154 47.9329 50.8633 46.6166C52.3805 45.4048 53.8257 44.0581 55.2522 42.6955C55.5414 42.4192 55.8297 42.1424 56.1178 41.8659C57.2531 40.7759 58.3835 39.6906 59.5439 38.6617C62.4525 36.0826 65.5137 33.8909 69.1932 32.9418C70.9606 32.4859 73.0401 31.706 75.2086 30.8928C76.1898 30.5248 77.1892 30.15 78.1861 29.7953C81.4146 28.6466 84.6269 27.7039 87.2556 27.7837C90.7172 27.8888 93.6425 29.1521 96.5861 30.7834C97.4916 31.2852 98.4023 31.8243 99.3314 32.3743C101.405 33.6019 103.571 34.8837 105.973 35.9255C111.772 38.441 116.941 41.7922 121.39 45.7662C124.256 48.3255 126.126 51.2968 127.678 54.4918C128.454 56.0906 129.15 57.7421 129.852 59.427C129.904 59.5511 129.956 59.6754 130.007 59.7998C130.658 61.3627 131.321 62.9524 132.06 64.5418C132.46 65.4015 132.867 66.2628 133.275 67.1261C136.815 74.612 140.429 82.252 139.86 90.388C139.662 93.218 138.505 95.319 137.067 97.4358C136.76 97.8888 136.438 98.3436 136.111 98.8068C134.914 100.499 133.638 102.304 132.667 104.543Z" stroke="#FCDF89" stroke-width="0.612791"/>
</g>
<g filter="url(#filter6_f_452_5768)">
<path d="M120.387 122.725C118.831 124.137 117.4 125.931 116.017 127.849C115.325 128.809 114.642 129.803 113.961 130.798L113.824 130.998C113.188 131.927 112.553 132.856 111.908 133.762C109.131 137.661 106.243 141.041 102.609 142.097C99.3135 143.055 95.7831 141.802 92.1172 140.148C91.4808 139.861 90.8391 139.562 90.1952 139.261C89.004 138.705 87.8056 138.145 86.6198 137.655C84.7873 136.898 82.9491 136.291 81.1374 136.096C79.2233 135.889 77.2371 136.075 75.2415 136.402C74.0347 136.6 72.8068 136.853 71.5869 137.105C70.8004 137.267 70.0171 137.429 69.245 137.574C65.2644 138.325 61.471 138.674 58.1831 136.817C55.628 135.374 53.2789 132.793 51.0187 129.952C50.2381 128.97 49.4668 127.956 48.7025 126.951C47.2707 125.068 45.8637 123.218 44.4666 121.678C41.5218 118.433 40.3099 115.198 39.5382 111.774C39.248 110.486 39.0212 109.178 38.7871 107.828C38.7086 107.375 38.6292 106.917 38.5464 106.454C38.2177 104.615 37.836 102.703 37.2368 100.702C36.5914 98.5466 35.1564 96.1893 33.7216 93.8324C33.4309 93.3548 33.1402 92.8772 32.856 92.4013C31.147 89.5391 29.677 86.7418 29.6502 84.2311C29.6129 80.7305 30.6391 77.1502 32.0164 73.6025C32.7045 71.8301 33.4777 70.0721 34.2459 68.3396C34.3027 68.2114 34.3595 68.0834 34.4163 67.9555C35.1255 66.3569 35.825 64.7804 36.4382 63.2445C36.9396 61.9885 37.4001 60.7623 37.8499 59.5646C40.0115 53.8085 41.9248 48.7136 46.9403 44.1623C50.1869 41.2161 53.8267 39.7532 57.6847 38.7692C59.5985 38.281 61.5608 37.9119 63.557 37.5364L63.6114 37.5262C65.6232 37.1477 67.6682 36.7618 69.7121 36.2414C71.5938 35.7623 73.4655 35.1306 75.3266 34.4766C75.704 34.344 76.0807 34.2106 76.4571 34.0773C77.9407 33.5519 79.4178 33.0287 80.899 32.5692C84.6119 31.4174 88.3041 30.6815 92.0479 31.3326C93.8462 31.6453 96.0623 31.7914 98.3733 31.9438C99.4189 32.0128 100.484 32.083 101.538 32.1705C104.953 32.4539 108.269 32.9183 110.631 34.074C113.742 35.5958 115.887 37.9521 117.897 40.6513C118.516 41.4816 119.123 42.348 119.743 43.2319C121.127 45.2049 122.572 47.2649 124.332 49.2039C128.58 53.8852 131.909 59.0681 134.326 64.5223C135.883 68.0349 136.362 71.5127 136.46 75.0633C136.509 76.8401 136.463 78.6315 136.408 80.4561C136.404 80.5905 136.4 80.7251 136.396 80.8598C136.346 82.5521 136.294 84.2734 136.313 86.0262C136.323 86.9743 136.339 87.9268 136.356 88.8816C136.497 97.1613 136.642 105.611 132.772 112.791C131.426 115.288 129.506 116.726 127.324 118.062C126.857 118.348 126.377 118.63 125.887 118.917C124.1 119.966 122.194 121.085 120.387 122.725Z" stroke="#FCDF89" stroke-width="0.612791"/>
</g>
<g filter="url(#filter7_f_452_5768)">
<path d="M81.1118 133.619C79.1987 133.403 77.0985 133.504 74.9437 133.713C73.8652 133.818 72.7691 133.949 71.6734 134.083L71.4531 134.109C70.4298 134.234 69.4077 134.358 68.396 134.463C64.037 134.911 59.9769 134.968 57.0633 133.115C54.4215 131.434 53.1511 128.259 52.0716 124.74C51.8844 124.13 51.7026 123.508 51.5201 122.884C51.1822 121.728 50.842 120.565 50.4618 119.454C49.8741 117.736 49.179 116.103 48.2163 114.737C47.1995 113.293 45.8692 112.039 44.4373 110.865C43.5715 110.155 42.6543 109.463 41.7434 108.776C41.1566 108.334 40.5725 107.894 40.0065 107.452C37.0846 105.17 34.5591 102.778 33.85 99.4063C33.2985 96.7833 33.6513 93.6133 34.2378 90.3426C34.4401 89.2144 34.6708 88.0718 34.8995 86.9394C35.3283 84.8164 35.7499 82.7288 35.9636 80.837C36.4132 76.8574 37.9014 74.0734 39.7868 71.4754C40.4959 70.4982 41.2576 69.552 42.0439 68.5752C42.3079 68.2472 42.5747 67.9158 42.8432 67.5787C43.9081 66.2413 44.9923 64.8223 46.0062 63.1996C47.0994 61.4501 47.8533 59.0349 48.6059 56.6242C48.7583 56.136 48.9106 55.6479 49.0657 55.1656C50.0002 52.2599 51.0324 49.5657 52.7358 48.0351C55.1154 45.8968 58.1926 44.4393 61.4623 43.2419C63.0958 42.6437 64.7708 42.1126 66.4258 41.5933C66.5484 41.5549 66.6708 41.5165 66.7931 41.4781C68.3203 40.9994 69.827 40.527 71.2537 40.0199C72.421 39.605 73.5428 39.1801 74.6381 38.7651C79.9004 36.7716 84.552 35.0095 90.7048 35.7047C94.6864 36.1545 97.8879 37.7694 100.894 39.8247C102.386 40.8445 103.825 41.9696 105.29 43.1147L105.33 43.1457C106.806 44.2995 108.308 45.4722 109.902 46.5629C111.369 47.5672 112.936 48.4722 114.51 49.3561C114.829 49.5353 115.149 49.7137 115.468 49.8918C116.726 50.5938 117.978 51.2924 119.188 52.0324C122.223 53.8872 124.957 55.9774 126.769 58.9386C127.642 60.3648 128.882 61.978 130.175 63.6591C130.759 64.4191 131.354 65.193 131.931 65.9697C133.801 68.4882 135.482 71.0439 136.115 73.3608C136.948 76.4128 136.626 79.3065 135.986 82.318C135.789 83.2434 135.561 84.1841 135.329 85.1441C134.809 87.2886 134.266 89.5295 133.997 91.9125C133.348 97.659 131.799 103.077 129.512 108.033C128.041 111.221 125.943 113.651 123.564 115.863C122.373 116.97 121.114 118.02 119.827 119.086C119.733 119.164 119.638 119.243 119.543 119.322C118.349 120.31 117.134 121.315 115.94 122.388C115.295 122.968 114.65 123.555 114.004 124.143C108.398 129.246 102.684 134.448 95.4174 136.127C92.8942 136.709 90.7508 136.26 88.5148 135.569C88.0368 135.421 87.5532 135.262 87.0605 135.099C85.2588 134.505 83.3341 133.87 81.1118 133.619Z" stroke="#FCDF89" stroke-width="0.612791"/>
</g>
<g style="mix-blend-mode:plus-lighter" filter="url(#filter8_f_452_5768)">
<circle cx="19.1221" cy="79.6333" r="1.83837" fill="#FFF3C1"/>
</g>
<g style="mix-blend-mode:plus-lighter" filter="url(#filter9_f_452_5768)">
<circle cx="50.3744" cy="105.983" r="1.22558" fill="#FFF3C1"/>
</g>
<g style="mix-blend-mode:plus-lighter" filter="url(#filter10_f_452_5768)">
<circle cx="147.195" cy="61.8623" r="1.22558" fill="#FFF3C1"/>
</g>
<g style="mix-blend-mode:plus-lighter" filter="url(#filter11_f_452_5768)">
<circle cx="138.617" cy="128.043" r="1.22558" fill="#FFF3C1"/>
</g>
<g style="mix-blend-mode:plus-lighter" filter="url(#filter12_f_452_5768)">
<circle cx="89.5929" cy="136.623" r="1.22558" fill="#FFF3C1"/>
</g>
<defs>
<filter id="filter0_f_452_5768" x="23.2203" y="24.333" width="122.558" height="121.333" filterUnits="userSpaceOnUse" color-interpolation-filters="sRGB">
<feFlood flood-opacity="0" result="BackgroundImageFix"/>
<feBlend mode="normal" in="SourceGraphic" in2="BackgroundImageFix" result="shape"/>
<feGaussianBlur stdDeviation="0.612791" result="effect1_foregroundBlur_452_5768"/>
</filter>
<filter id="filter1_f_452_5768" x="25.7003" y="21.7012" width="120.158" height="127.169" filterUnits="userSpaceOnUse" color-interpolation-filters="sRGB">
<feFlood flood-opacity="0" result="BackgroundImageFix"/>
<feBlend mode="normal" in="SourceGraphic" in2="BackgroundImageFix" result="shape"/>
<feGaussianBlur stdDeviation="0.612791" result="effect1_foregroundBlur_452_5768"/>
</filter>
<filter id="filter2_f_452_5768" x="17.943" y="19.1367" width="130.342" height="135.195" filterUnits="userSpaceOnUse" color-interpolation-filters="sRGB">
<feFlood flood-opacity="0" result="BackgroundImageFix"/>
<feBlend mode="normal" in="SourceGraphic" in2="BackgroundImageFix" result="shape"/>
<feGaussianBlur stdDeviation="3.67675" result="effect1_foregroundBlur_452_5768"/>
</filter>
<filter id="filter3_f_452_5768" x="25.8456" y="27.6143" width="118.909" height="116.546" filterUnits="userSpaceOnUse" color-interpolation-filters="sRGB">
<feFlood flood-opacity="0" result="BackgroundImageFix"/>
<feBlend mode="normal" in="SourceGraphic" in2="BackgroundImageFix" result="shape"/>
<feGaussianBlur stdDeviation="1.83837" result="effect1_foregroundBlur_452_5768"/>
</filter>
<filter id="filter4_f_452_5768" x="27.0883" y="27.5459" width="115.205" height="113.979" filterUnits="userSpaceOnUse" color-interpolation-filters="sRGB">
<feFlood flood-opacity="0" result="BackgroundImageFix"/>
<feBlend mode="normal" in="SourceGraphic" in2="BackgroundImageFix" result="shape"/>
<feGaussianBlur stdDeviation="0.612791" result="effect1_foregroundBlur_452_5768"/>
</filter>
<filter id="filter5_f_452_5768" x="29.6312" y="26.2471" width="111.82" height="118.334" filterUnits="userSpaceOnUse" color-interpolation-filters="sRGB">
<feFlood flood-opacity="0" result="BackgroundImageFix"/>
<feBlend mode="normal" in="SourceGraphic" in2="BackgroundImageFix" result="shape"/>
<feGaussianBlur stdDeviation="0.612791" result="effect1_foregroundBlur_452_5768"/>
</filter>
<filter id="filter6_f_452_5768" x="21.9893" y="23.4287" width="122.151" height="126.661" filterUnits="userSpaceOnUse" color-interpolation-filters="sRGB">
<feFlood flood-opacity="0" result="BackgroundImageFix"/>
<feBlend mode="normal" in="SourceGraphic" in2="BackgroundImageFix" result="shape"/>
<feGaussianBlur stdDeviation="3.67675" result="effect1_foregroundBlur_452_5768"/>
</filter>
<filter id="filter7_f_452_5768" x="29.5914" y="31.5674" width="111.007" height="108.811" filterUnits="userSpaceOnUse" color-interpolation-filters="sRGB">
<feFlood flood-opacity="0" result="BackgroundImageFix"/>
<feBlend mode="normal" in="SourceGraphic" in2="BackgroundImageFix" result="shape"/>
<feGaussianBlur stdDeviation="1.83837" result="effect1_foregroundBlur_452_5768"/>
</filter>
<filter id="filter8_f_452_5768" x="16.0581" y="76.5693" width="6.12792" height="6.12792" filterUnits="userSpaceOnUse" color-interpolation-filters="sRGB">
<feFlood flood-opacity="0" result="BackgroundImageFix"/>
<feBlend mode="normal" in="SourceGraphic" in2="BackgroundImageFix" result="shape"/>
<feGaussianBlur stdDeviation="0.612791" result="effect1_foregroundBlur_452_5768"/>
</filter>
<filter id="filter9_f_452_5768" x="47.9233" y="103.532" width="4.90234" height="4.90234" filterUnits="userSpaceOnUse" color-interpolation-filters="sRGB">
<feFlood flood-opacity="0" result="BackgroundImageFix"/>
<feBlend mode="normal" in="SourceGraphic" in2="BackgroundImageFix" result="shape"/>
<feGaussianBlur stdDeviation="0.612791" result="effect1_foregroundBlur_452_5768"/>
</filter>
<filter id="filter10_f_452_5768" x="144.744" y="59.4111" width="4.90234" height="4.90234" filterUnits="userSpaceOnUse" color-interpolation-filters="sRGB">
<feFlood flood-opacity="0" result="BackgroundImageFix"/>
<feBlend mode="normal" in="SourceGraphic" in2="BackgroundImageFix" result="shape"/>
<feGaussianBlur stdDeviation="0.612791" result="effect1_foregroundBlur_452_5768"/>
</filter>
<filter id="filter11_f_452_5768" x="136.165" y="125.592" width="4.90234" height="4.90234" filterUnits="userSpaceOnUse" color-interpolation-filters="sRGB">
<feFlood flood-opacity="0" result="BackgroundImageFix"/>
<feBlend mode="normal" in="SourceGraphic" in2="BackgroundImageFix" result="shape"/>
<feGaussianBlur stdDeviation="0.612791" result="effect1_foregroundBlur_452_5768"/>
</filter>
<filter id="filter12_f_452_5768" x="87.1417" y="134.172" width="4.90234" height="4.90234" filterUnits="userSpaceOnUse" color-interpolation-filters="sRGB">
<feFlood flood-opacity="0" result="BackgroundImageFix"/>
<feBlend mode="normal" in="SourceGraphic" in2="BackgroundImageFix" result="shape"/>
<feGaussianBlur stdDeviation="0.612791" result="effect1_foregroundBlur_452_5768"/>
</filter>
</defs>
</svg>
