<svg width="170" height="169" viewBox="0 0 170 169" fill="none" xmlns="http://www.w3.org/2000/svg">
<g style="mix-blend-mode:color-dodge" filter="url(#filter0_f_475_17762)">
<path d="M140.9 82.9581C140.9 85.2163 141.295 87.6524 141.823 90.1416C142.087 91.3872 142.386 92.6499 142.686 93.9126L142.746 94.1651C143.027 95.3447 143.307 96.5235 143.563 97.6928C144.663 102.725 145.27 107.48 143.48 111.148C141.855 114.476 138.295 116.386 134.326 118.111C133.636 118.411 132.933 118.706 132.228 119.002C130.923 119.549 129.612 120.099 128.364 120.689C126.436 121.602 124.625 122.627 123.161 123.927C121.615 125.301 120.327 127.017 119.146 128.843C118.431 129.948 117.745 131.109 117.063 132.263C116.624 133.007 116.186 133.748 115.743 134.469C113.462 138.185 110.993 141.468 107.126 142.748C104.124 143.742 100.364 143.747 96.4645 143.494C95.1168 143.406 93.75 143.287 92.396 143.17C89.8605 142.949 87.37 142.732 85.1335 142.732C80.412 142.732 76.9534 141.357 73.6638 139.494C72.4272 138.794 71.2195 138.028 69.974 137.238C69.5562 136.973 69.1341 136.705 68.7052 136.436C67.0026 135.368 65.2036 134.29 63.1764 133.321C60.9948 132.278 58.082 131.718 55.1658 131.156C54.5747 131.043 53.9833 130.929 53.3979 130.811C49.8817 130.103 46.5826 129.251 44.5568 127.452C41.7365 124.947 39.6236 121.536 37.7918 117.872C36.8766 116.041 36.0344 114.153 35.2093 112.287C35.1482 112.149 35.0872 112.011 35.0263 111.874C34.2652 110.152 33.5148 108.455 32.7344 106.856C32.0965 105.549 31.4525 104.295 30.8234 103.071C27.799 97.185 25.1192 91.9696 25.1192 84.6745C25.1192 79.9509 26.5875 75.9881 28.5944 72.1998C29.5899 70.3207 30.7153 68.4892 31.8597 66.6269L31.891 66.5759C33.0444 64.6988 34.2155 62.7904 35.2785 60.7859C36.2571 58.9406 37.107 56.9928 37.9318 55.0366C38.099 54.6401 38.2651 54.2433 38.4311 53.847C39.0853 52.2845 39.7369 50.7284 40.4421 49.2151C42.21 45.4218 44.2958 41.9428 47.5267 39.4265C49.0756 38.2203 50.7933 36.5612 52.5856 34.8301C53.397 34.0464 54.2237 33.2479 55.057 32.4699C57.7526 29.9533 60.5234 27.6439 63.1576 26.5951C66.6256 25.2143 70.0594 25.2093 73.6657 25.5595C74.7759 25.6674 75.9068 25.8097 77.06 25.9549C79.6328 26.2788 82.3171 26.6167 85.1335 26.6167C91.9395 26.6167 98.4802 27.7126 104.578 29.7316C108.507 31.0327 111.628 33.1677 114.53 35.6588C115.982 36.9052 117.377 38.2384 118.792 39.6012C118.896 39.7015 119 39.802 119.105 39.9025C120.417 41.167 121.751 42.4528 123.161 43.7054C123.924 44.3829 124.695 45.0588 125.468 45.7365C132.169 51.6109 139.013 57.6112 141.938 65.894C142.957 68.7788 142.714 71.3537 142.2 74.0609C142.09 74.6406 141.967 75.2279 141.842 75.8259C141.386 78.0089 140.9 80.3345 140.9 82.9581Z" stroke="#8AFE84" stroke-width="0.612791"/>
</g>
<g filter="url(#filter1_f_475_17762)">
<path d="M136.886 105.382C135.988 107.454 135.381 109.846 134.875 112.34C134.622 113.588 134.393 114.865 134.166 116.143L134.121 116.399C133.909 117.592 133.697 118.785 133.466 119.96C132.473 125.014 131.138 129.618 128.036 132.27C125.222 134.677 121.195 135.013 116.868 135.017C116.115 135.017 115.353 135.008 114.588 134.999C113.174 134.981 111.751 134.964 110.372 135.009C108.24 135.079 106.171 135.299 104.31 135.91C102.345 136.555 100.481 137.616 98.6701 138.821C97.5746 139.551 96.4836 140.343 95.3993 141.13C94.6998 141.638 94.0032 142.144 93.3099 142.63C89.7389 145.131 86.1673 147.16 82.1106 146.796C78.9601 146.513 75.5087 145.022 72.0322 143.237C70.8306 142.621 69.624 141.968 68.4287 141.321C66.1904 140.11 63.9918 138.92 61.94 138.03C57.6084 136.151 54.9827 133.513 52.7061 130.495C51.8502 129.36 51.047 128.177 50.2188 126.957C49.9409 126.547 49.6602 126.134 49.3738 125.716C48.2365 124.06 47.015 122.355 45.5409 120.659C43.9546 118.834 41.5053 117.16 39.0532 115.485C38.5562 115.146 38.0589 114.806 37.5688 114.465C34.6246 112.416 31.9371 110.322 30.7945 107.865C29.2039 104.444 28.6226 100.475 28.4002 96.3841C28.2891 94.3402 28.2678 92.2729 28.253 90.2334C28.2519 90.0824 28.2508 89.9316 28.2498 89.7809C28.2365 87.8988 28.2234 86.0431 28.1438 84.2657C28.0787 82.8126 27.9866 81.4065 27.8966 80.0329C27.4642 73.4294 27.081 67.5784 29.9838 60.8857C31.8634 56.5521 34.7873 53.5008 38.136 50.8239C39.7969 49.4962 41.5581 48.2638 43.349 47.0106L43.3981 46.9763C45.2032 45.7131 47.037 44.4283 48.8099 43.0123C50.4419 41.7088 51.9967 40.26 53.5318 38.7936C53.843 38.4963 54.1532 38.1985 54.4632 37.9009C55.6851 36.7278 56.9021 35.5594 58.1513 34.4517C61.2826 31.6751 64.5805 29.3134 68.5459 28.2906C70.4469 27.8002 72.6829 26.9617 75.016 26.0867C76.0723 25.6906 77.1485 25.287 78.2225 24.9049C81.6969 23.6687 85.1578 22.6525 87.9918 22.7385C91.7229 22.8518 94.8752 24.2135 98.0443 25.9698C99.0199 26.5106 100.001 27.0911 101.001 27.6832C103.232 29.0041 105.561 30.3823 108.144 31.503C114.388 34.2112 119.953 37.8192 124.743 42.0978C127.831 44.855 129.845 48.0558 131.516 51.4959C132.352 53.2172 133.101 54.9952 133.857 56.8085C133.912 56.942 133.968 57.0756 134.024 57.2095C134.724 58.8917 135.437 60.6022 136.232 62.3124C136.662 63.2376 137.101 64.1645 137.54 65.0937C141.35 73.1494 145.241 81.3777 144.629 90.1405C144.416 93.1924 143.168 95.4578 141.62 97.7371C141.288 98.2252 140.942 98.7151 140.589 99.214C139.302 101.035 137.93 102.975 136.886 105.382Z" stroke="#8AFE84" stroke-width="0.612791"/>
</g>
<g filter="url(#filter2_f_475_17762)">
<path d="M123.458 124.732C121.762 126.271 120.208 128.222 118.716 130.291C117.969 131.327 117.232 132.399 116.499 133.47L116.353 133.684C115.667 134.685 114.985 135.683 114.292 136.655C111.299 140.858 108.241 144.413 104.436 145.519C101.001 146.518 97.2917 145.218 93.3398 143.435C92.6622 143.129 91.975 142.808 91.2836 142.486C89.9974 141.885 88.6964 141.278 87.4149 140.748C85.4332 139.93 83.426 139.265 81.4369 139.05C79.34 138.824 77.1734 139.028 75.0153 139.382C73.7133 139.595 72.3788 139.871 71.0597 140.143C70.2143 140.317 69.3752 140.49 68.5551 140.645C64.2729 141.452 60.2832 141.805 56.8415 139.861C54.1436 138.337 51.6446 135.599 49.2132 132.543C48.3822 131.498 47.5565 130.413 46.7358 129.333C45.1893 127.3 43.6609 125.29 42.1497 123.625C39.0234 120.18 37.7358 116.748 36.9121 113.093C36.6015 111.715 36.3591 110.317 36.1075 108.866C36.0228 108.377 35.937 107.882 35.8472 107.38C35.4928 105.398 35.0799 103.328 34.4303 101.158C33.7242 98.8001 32.1554 96.2238 30.6113 93.688C30.2999 93.1766 29.9895 92.6669 29.6874 92.1609C27.8421 89.0703 26.3051 86.1238 26.2772 83.5099C26.2376 79.7965 27.3267 75.9834 28.8046 72.1765C29.5425 70.2759 30.3721 68.3895 31.1989 66.5247C31.2602 66.3865 31.3215 66.2484 31.3827 66.1105C32.1455 64.3911 32.9005 62.6896 33.5625 61.0314C34.1066 59.6687 34.6051 58.3419 35.0908 57.0491C37.4165 50.8589 39.4495 45.4477 44.7926 40.5991C48.2399 37.4708 52.1085 35.9122 56.2359 34.8595C58.2868 34.3363 60.3912 33.9405 62.5427 33.5358L62.5968 33.5256C64.7607 33.1185 66.9703 32.7017 69.18 32.139C71.2181 31.6201 73.2425 30.9366 75.2466 30.2325C75.6543 30.0892 76.0608 29.9452 76.4665 29.8015C78.0626 29.2363 79.6456 28.6756 81.2338 28.1829C85.2156 26.9477 89.1376 26.1714 93.1003 26.8605C95.0509 27.1998 97.4617 27.3588 99.9575 27.5234C101.079 27.5974 102.218 27.6725 103.339 27.7656C107.017 28.0708 110.535 28.5686 113.024 29.7863C116.312 31.3946 118.588 33.8875 120.742 36.7799C121.398 37.6607 122.047 38.5859 122.711 39.5333C124.206 41.6635 125.778 43.9054 127.684 46.0056C132.236 51.0212 135.802 56.5736 138.391 62.4163C140.046 66.1509 140.559 69.8535 140.664 73.6541C140.716 75.5571 140.667 77.4776 140.608 79.4418C140.604 79.5866 140.6 79.7316 140.595 79.8769C140.541 81.6973 140.485 83.5554 140.505 85.4479C140.516 86.4692 140.533 87.4938 140.551 88.5197C140.703 97.4426 140.856 106.458 136.729 114.115C135.316 116.737 133.3 118.252 130.966 119.682C130.472 119.984 129.96 120.285 129.437 120.592C127.511 121.722 125.427 122.946 123.458 124.732Z" stroke="#8AFE84" stroke-width="1.22558"/>
</g>
<g filter="url(#filter3_f_475_17762)">
<path d="M81.4121 136.385C79.3234 136.149 77.0396 136.26 74.7146 136.485C73.55 136.598 72.3671 136.741 71.1881 136.884L70.9523 136.913C69.8501 137.047 68.7524 137.18 67.6661 137.292C62.967 137.776 58.6931 137.82 55.6503 135.884C52.9052 134.138 51.5607 130.822 50.3967 127.027C50.1977 126.378 50.0031 125.712 49.8071 125.042C49.4421 123.795 49.0725 122.531 48.6614 121.329C48.0256 119.471 47.2671 117.684 46.2084 116.181C45.0927 114.598 43.6386 113.228 42.0893 111.958C41.155 111.192 40.1573 110.44 39.1722 109.697C38.5415 109.221 37.916 108.75 37.3155 108.281C34.1724 105.826 31.5327 103.307 30.7925 99.7868C30.2111 97.0223 30.5805 93.6585 31.2114 90.1404C31.4265 88.9405 31.6733 87.7179 31.9188 86.5022C32.3819 84.2086 32.8401 81.9392 33.0714 79.8919C33.5481 75.6725 35.1231 72.7219 37.1339 69.9511C37.8925 68.9057 38.7059 67.8952 39.5509 66.8456C39.8358 66.4916 40.1244 66.1331 40.4156 65.7674C41.564 64.3253 42.7386 62.7883 43.8384 61.0281C45.0362 59.1112 45.861 56.4676 46.6704 53.8737C46.8334 53.3511 46.9959 52.8305 47.1606 52.3184C48.1699 49.1799 49.2625 46.3565 51.0302 44.7681C53.551 42.5029 56.8225 40.9493 60.3302 39.6647C62.0811 39.0235 63.878 38.4537 65.6594 37.8948C65.7916 37.8533 65.9237 37.8119 66.0557 37.7705C67.6981 37.2556 69.3247 36.7457 70.8654 36.1981C72.1329 35.7476 73.3473 35.2877 74.5301 34.8399C80.1896 32.697 85.1244 30.8286 91.6728 31.5684C95.8951 32.0454 99.2965 33.7573 102.511 35.955C104.109 37.0474 105.652 38.2535 107.231 39.4879L107.27 39.5184C108.858 40.7594 110.481 42.0271 112.205 43.2067C113.796 44.2951 115.491 45.2743 117.186 46.2261C117.531 46.4198 117.876 46.6123 118.22 46.8044C119.573 47.5596 120.914 48.308 122.212 49.1011C125.466 51.0896 128.361 53.3106 130.277 56.4401C131.224 57.9882 132.575 59.7449 133.971 61.5609C134.598 62.3759 135.234 63.2028 135.846 64.0281C137.86 66.7403 139.638 69.4523 140.303 71.8885C141.182 75.1082 140.846 78.1695 140.161 81.3953C139.953 82.3757 139.709 83.3794 139.46 84.408C138.899 86.724 138.308 89.1656 138.016 91.7482C137.321 97.9025 135.662 103.704 133.214 109.01C131.651 112.397 129.422 114.982 126.876 117.349C125.601 118.534 124.252 119.66 122.867 120.807C122.764 120.892 122.662 120.976 122.56 121.061C121.276 122.124 119.964 123.21 118.675 124.368C117.979 124.993 117.286 125.624 116.592 126.256C110.549 131.755 104.456 137.3 96.7127 139.089C94.0702 139.699 91.8215 139.233 89.4312 138.494C88.926 138.338 88.4116 138.168 87.8852 137.995C85.943 137.354 83.8358 136.658 81.4121 136.385Z" stroke="#8AFE84" stroke-width="1.22558"/>
</g>
<g style="mix-blend-mode:color-dodge" filter="url(#filter4_f_475_17762)">
<path d="M137.642 82.5886C137.642 84.7092 138.013 86.9962 138.509 89.3317C138.757 90.5005 139.037 91.6854 139.319 92.87L139.376 93.1082C139.639 94.2145 139.903 95.3197 140.142 96.416C141.175 101.138 141.743 105.592 140.065 109.026C138.544 112.141 135.208 113.931 131.482 115.55C130.835 115.831 130.175 116.108 129.513 116.385C128.288 116.898 127.056 117.415 125.884 117.969C124.074 118.825 122.372 119.788 120.996 121.009C119.542 122.3 118.332 123.911 117.222 125.625C116.551 126.661 115.907 127.751 115.267 128.834C114.854 129.532 114.443 130.228 114.028 130.904C111.887 134.389 109.572 137.463 105.949 138.662C103.134 139.594 99.6074 139.599 95.9469 139.361C94.6826 139.279 93.4 139.167 92.1291 139.057C89.7482 138.85 87.4087 138.647 85.3084 138.647C80.8802 138.647 77.6365 137.358 74.5501 135.611C73.3897 134.954 72.2565 134.236 71.0874 133.495C70.695 133.246 70.2986 132.995 69.8958 132.742C68.2972 131.741 66.6076 130.729 64.7036 129.819C62.6532 128.84 59.9157 128.313 57.1781 127.787C56.6233 127.68 56.0685 127.573 55.5195 127.463C52.2177 126.799 49.1258 126 47.2283 124.316C44.5834 121.968 42.6012 118.771 40.8819 115.334C40.023 113.617 39.2325 111.846 38.4579 110.096C38.4006 109.967 38.3433 109.837 38.2861 109.708C37.5716 108.093 36.867 106.5 36.1343 105C35.535 103.773 34.9302 102.597 34.3395 101.448C31.5005 95.9259 28.9872 91.0377 28.9872 84.1989C28.9872 79.7717 30.3641 76.0572 32.2474 72.5047C33.1817 70.7425 34.2379 69.0247 35.3122 67.2774L35.3415 67.2298C36.4243 65.4688 37.524 63.678 38.5223 61.7968C39.4413 60.0649 40.2395 58.2369 41.0138 56.4017C41.1708 56.0296 41.3268 55.6573 41.4826 55.2854C42.0968 53.8196 42.7083 52.3602 43.3702 50.9409C45.0294 47.3832 46.9859 44.1226 50.0155 41.7647C51.4703 40.6325 53.0841 39.0749 54.7671 37.4504C55.5287 36.7153 56.3044 35.9666 57.086 35.2374C59.6167 32.8763 62.2155 30.7121 64.6848 29.7296C67.9364 28.4359 71.1564 28.4309 74.5409 28.7594C75.5821 28.8604 76.6431 28.9939 77.7255 29.1301C80.1413 29.434 82.6632 29.7512 85.3084 29.7512C91.6957 29.7512 97.8339 30.779 103.556 32.6725C107.242 33.8921 110.17 35.8934 112.893 38.2295C114.256 39.3984 115.565 40.6488 116.893 41.9273C116.991 42.0215 117.089 42.1159 117.187 42.2103C118.419 43.3965 119.672 44.6029 120.996 45.7781C121.712 46.4138 122.436 47.0479 123.161 47.6836C129.452 53.1952 135.873 58.821 138.618 66.5864C139.573 69.288 139.344 71.6996 138.863 74.2382C138.76 74.7814 138.644 75.332 138.527 75.8927C138.099 77.9409 137.642 80.1252 137.642 82.5886Z" stroke="#8AFE84" stroke-width="0.612791"/>
</g>
<g filter="url(#filter5_f_475_17762)">
<path d="M133.034 104.043C132.199 105.97 131.634 108.194 131.164 110.512C130.929 111.672 130.716 112.859 130.505 114.046L130.463 114.284C130.266 115.394 130.07 116.502 129.855 117.592C128.932 122.29 127.692 126.559 124.817 129.019C122.208 131.249 118.475 131.562 114.453 131.565C113.755 131.566 113.047 131.557 112.337 131.548C111.022 131.532 109.699 131.516 108.417 131.558C106.436 131.624 104.511 131.828 102.779 132.396C100.95 132.996 99.2165 133.984 97.533 135.104C96.515 135.782 95.5005 136.518 94.4926 137.25C93.8427 137.722 93.1956 138.192 92.552 138.643C89.2342 140.967 85.9214 142.847 82.1604 142.51C79.2377 142.248 76.0341 140.864 72.804 139.206C71.6885 138.634 70.5678 138.027 69.4574 137.426C67.377 136.3 65.3326 135.194 63.4253 134.367C59.4051 132.623 56.9682 130.175 54.8542 127.372C54.0593 126.319 53.3135 125.22 52.544 124.086C52.2858 123.705 52.0249 123.321 51.7585 122.933C50.7016 121.393 49.5662 119.808 48.1957 118.232C46.7196 116.534 44.4409 114.977 42.1625 113.42C41.7009 113.105 41.2392 112.79 40.7842 112.473C38.0478 110.569 35.5559 108.626 34.4971 106.349C33.0209 103.175 32.481 99.4898 32.2744 95.6897C32.1712 93.7912 32.1514 91.8707 32.1376 89.9757C32.1366 89.8355 32.1356 89.6955 32.1346 89.5555C32.1223 87.8067 32.1102 86.082 32.0362 84.4299C31.9756 83.0789 31.89 81.7718 31.8064 80.4952C31.4047 74.3597 31.0491 68.929 33.744 62.7156C35.4886 58.6935 38.2025 55.861 41.3124 53.3749C42.8552 52.1417 44.4911 50.9969 46.1553 49.8324L46.2007 49.8006C47.8779 48.627 49.5823 47.4329 51.2303 46.1166C52.7475 44.9048 54.1927 43.5581 55.6191 42.1955C55.9083 41.9192 56.1967 41.6424 56.4847 41.3659C57.6201 40.2759 58.7504 39.1906 59.9108 38.1617C62.8194 35.5826 65.8806 33.3909 69.5601 32.4418C71.3276 31.9859 73.407 31.206 75.5756 30.3928C76.5567 30.0248 77.5561 29.65 78.5531 29.2953C81.7816 28.1466 84.9938 27.2039 87.6225 27.2837C91.0841 27.3888 94.0095 28.6521 96.953 30.2834C97.8585 30.7852 98.7692 31.3243 99.6983 31.8743C101.772 33.1019 103.938 34.3837 106.34 35.4255C112.139 37.941 117.307 41.2922 121.757 45.2662C124.623 47.8255 126.492 50.7968 128.045 53.9918C128.821 55.5906 129.517 57.2421 130.219 58.927C130.271 59.0511 130.323 59.1754 130.374 59.2998C131.025 60.8627 131.688 62.4524 132.427 64.0418C132.827 64.9015 133.234 65.7628 133.642 66.6261C137.182 74.112 140.795 81.752 140.227 89.888C140.029 92.718 138.872 94.819 137.434 96.9358C137.127 97.3888 136.805 97.8436 136.478 98.3068C135.281 99.9992 134.005 101.804 133.034 104.043Z" stroke="#8AFE84" stroke-width="0.612791"/>
</g>
<g filter="url(#filter6_f_475_17762)">
<path d="M120.754 122.225C119.198 123.637 117.767 125.431 116.384 127.349C115.692 128.309 115.009 129.303 114.328 130.298L114.191 130.498C113.555 131.427 112.919 132.356 112.275 133.262C109.498 137.161 106.61 140.541 102.976 141.597C99.6805 142.555 96.1501 141.302 92.4842 139.648C91.8477 139.361 91.206 139.062 90.5622 138.761C89.371 138.205 88.1725 137.645 86.9867 137.155C85.1543 136.398 83.3161 135.791 81.5043 135.596C79.5903 135.389 77.604 135.575 75.6084 135.902C74.4017 136.1 73.1738 136.353 71.9538 136.605C71.1673 136.767 70.3841 136.929 69.612 137.074C65.6313 137.825 61.8379 138.174 58.55 136.317C55.9949 134.874 53.6459 132.293 51.3856 129.452C50.605 128.47 49.8337 127.456 49.0695 126.451C47.6377 124.568 46.2306 122.718 44.8335 121.178C41.8887 117.933 40.6769 114.698 39.9051 111.274C39.615 109.986 39.3881 108.678 39.1541 107.328C39.0755 106.875 38.9962 106.417 38.9133 105.954C38.5846 104.115 38.203 102.203 37.6037 100.202C36.9583 98.0466 35.5233 95.6893 34.0886 93.3324C33.7978 92.8548 33.5071 92.3772 33.223 91.9013C31.514 89.0391 30.0439 86.2418 30.0171 83.7311C29.9798 80.2305 31.006 76.6502 32.3834 73.1025C33.0715 71.3301 33.8446 69.5721 34.6128 67.8396C34.6696 67.7114 34.7265 67.5834 34.7832 67.4555C35.4925 65.8569 36.1919 64.2804 36.8051 62.7445C37.3066 61.4885 37.7671 60.2623 38.2168 59.0646C40.3785 53.3085 42.2918 48.2136 47.3072 43.6623C50.5539 40.7161 54.1937 39.2532 58.0517 38.2692C59.9655 37.781 61.9277 37.4119 63.9239 37.0364L63.9784 37.0262C65.9901 36.6477 68.0352 36.2618 70.079 35.7414C71.9607 35.2623 73.8324 34.6306 75.6935 33.9766C76.0709 33.844 76.4477 33.7106 76.824 33.5773C78.3076 33.0519 79.7847 32.5287 81.2659 32.0692C84.9788 30.9174 88.6711 30.1815 92.4148 30.8326C94.2131 31.1453 96.4292 31.2914 98.7402 31.4438C99.7858 31.5128 100.851 31.583 101.905 31.6705C105.32 31.9539 108.636 32.4183 110.998 33.574C114.109 35.0958 116.254 37.4521 118.264 40.1513C118.883 40.9816 119.49 41.848 120.11 42.7319C121.494 44.7049 122.939 46.7649 124.699 48.7039C128.947 53.3852 132.276 58.5681 134.693 64.0223C136.25 67.5349 136.729 71.0127 136.827 74.5633C136.876 76.3401 136.83 78.1315 136.775 79.9561C136.771 80.0905 136.767 80.2251 136.763 80.3598C136.713 82.0521 136.661 83.7734 136.68 85.5262C136.69 86.4743 136.706 87.4268 136.722 88.3816C136.864 96.6613 137.009 105.111 133.139 112.291C131.793 114.788 129.873 116.226 127.691 117.562C127.224 117.848 126.744 118.13 126.254 118.417C124.467 119.466 122.561 120.585 120.754 122.225Z" stroke="#8AFE84" stroke-width="0.612791"/>
</g>
<g filter="url(#filter7_f_475_17762)">
<path d="M81.4787 133.119C79.5656 132.903 77.4654 133.004 75.3106 133.213C74.2321 133.318 73.136 133.449 72.0403 133.583L71.82 133.609C70.7967 133.734 69.7746 133.858 68.7629 133.963C64.4039 134.411 60.3438 134.468 57.4302 132.615C54.7885 130.934 53.518 127.759 52.4385 124.24C52.2513 123.63 52.0695 123.008 51.887 122.384C51.5491 121.228 51.209 120.065 50.8287 118.954C50.241 117.236 49.5459 115.603 48.5832 114.237C47.5664 112.793 46.2361 111.539 44.8042 110.365C43.9384 109.655 43.0212 108.963 42.1104 108.276C41.5235 107.834 40.9394 107.394 40.3734 106.952C37.4515 104.67 34.926 102.278 34.2169 98.9063C33.6654 96.2833 34.0182 93.1133 34.6047 89.8426C34.807 88.7144 35.0377 87.5718 35.2664 86.4394C35.6952 84.3164 36.1168 82.2288 36.3305 80.337C36.7801 76.3574 38.2683 73.5734 40.1537 70.9754C40.8628 69.9982 41.6245 69.052 42.4109 68.0752C42.6749 67.7472 42.9416 67.4158 43.2101 67.0787C44.2751 65.7413 45.3592 64.3223 46.3731 62.6996C47.4663 60.9501 48.2202 58.5349 48.9728 56.1242C49.1252 55.636 49.2775 55.1479 49.4326 54.6656C50.3671 51.7599 51.3993 49.0657 53.1027 47.5351C55.4823 45.3968 58.5595 43.9393 61.8293 42.7419C63.4627 42.1437 65.1378 41.6126 66.7928 41.0933C66.9153 41.0549 67.0377 41.0165 67.16 40.9781C68.6872 40.4994 70.1939 40.027 71.6206 39.5199C72.7879 39.105 73.9097 38.6801 75.005 38.2651C80.2673 36.2716 84.9189 34.5095 91.0718 35.2047C95.0533 35.6545 98.2548 37.2694 101.261 39.3247C102.753 40.3445 104.192 41.4696 105.657 42.6147L105.697 42.6457C107.173 43.7995 108.675 44.9722 110.268 46.0629C111.736 47.0672 113.303 47.9722 114.877 48.8561C115.196 49.0353 115.516 49.2137 115.835 49.3918C117.093 50.0938 118.345 50.7924 119.555 51.5324C122.59 53.3872 125.323 55.4774 127.136 58.4386C128.009 59.8648 129.249 61.478 130.542 63.1591C131.126 63.9191 131.721 64.693 132.298 65.4697C134.167 67.9882 135.849 70.5439 136.482 72.8608C137.314 75.9128 136.993 78.8065 136.353 81.818C136.156 82.7434 135.928 83.6841 135.696 84.6441C135.176 86.7886 134.633 89.0295 134.364 91.4125C133.715 97.159 132.166 102.577 129.879 107.533C128.408 110.721 126.31 113.151 123.931 115.363C122.74 116.47 121.481 117.52 120.194 118.586C120.1 118.664 120.005 118.743 119.91 118.822C118.716 119.81 117.501 120.815 116.307 121.888C115.662 122.468 115.017 123.055 114.371 123.643C108.765 128.746 103.051 133.948 95.7843 135.627C93.2611 136.209 91.1177 135.76 88.8817 135.069C88.4037 134.921 87.9202 134.762 87.4274 134.599C85.6257 134.005 83.701 133.37 81.4787 133.119Z" stroke="#8AFE84" stroke-width="0.612791"/>
</g>
<g style="mix-blend-mode:plus-lighter" filter="url(#filter8_f_475_17762)">
<circle cx="19.489" cy="79.1333" r="1.83837" fill="#A7B86A"/>
</g>
<g style="mix-blend-mode:plus-lighter" filter="url(#filter9_f_475_17762)">
<circle cx="50.7414" cy="105.483" r="1.22558" fill="#A7B86A"/>
</g>
<g style="mix-blend-mode:plus-lighter" filter="url(#filter10_f_475_17762)">
<circle cx="147.562" cy="61.3623" r="1.22558" fill="#A7B86A"/>
</g>
<g style="mix-blend-mode:plus-lighter" filter="url(#filter11_f_475_17762)">
<circle cx="138.983" cy="127.543" r="1.22558" fill="#A7B86A"/>
</g>
<g style="mix-blend-mode:plus-lighter" filter="url(#filter12_f_475_17762)">
<circle cx="89.9598" cy="136.123" r="1.22558" fill="#A7B86A"/>
</g>
<defs>
<filter id="filter0_f_475_17762" x="23.5872" y="23.8335" width="122.558" height="121.333" filterUnits="userSpaceOnUse" color-interpolation-filters="sRGB">
<feFlood flood-opacity="0" result="BackgroundImageFix"/>
<feBlend mode="normal" in="SourceGraphic" in2="BackgroundImageFix" result="shape"/>
<feGaussianBlur stdDeviation="0.612791" result="effect1_foregroundBlur_475_17762"/>
</filter>
<filter id="filter1_f_475_17762" x="26.0672" y="21.2017" width="120.158" height="127.168" filterUnits="userSpaceOnUse" color-interpolation-filters="sRGB">
<feFlood flood-opacity="0" result="BackgroundImageFix"/>
<feBlend mode="normal" in="SourceGraphic" in2="BackgroundImageFix" result="shape"/>
<feGaussianBlur stdDeviation="0.612791" result="effect1_foregroundBlur_475_17762"/>
</filter>
<filter id="filter2_f_475_17762" x="18.3099" y="18.6362" width="130.342" height="135.196" filterUnits="userSpaceOnUse" color-interpolation-filters="sRGB">
<feFlood flood-opacity="0" result="BackgroundImageFix"/>
<feBlend mode="normal" in="SourceGraphic" in2="BackgroundImageFix" result="shape"/>
<feGaussianBlur stdDeviation="3.67675" result="effect1_foregroundBlur_475_17762"/>
</filter>
<filter id="filter3_f_475_17762" x="26.2125" y="27.1148" width="118.909" height="116.545" filterUnits="userSpaceOnUse" color-interpolation-filters="sRGB">
<feFlood flood-opacity="0" result="BackgroundImageFix"/>
<feBlend mode="normal" in="SourceGraphic" in2="BackgroundImageFix" result="shape"/>
<feGaussianBlur stdDeviation="1.83837" result="effect1_foregroundBlur_475_17762"/>
</filter>
<filter id="filter4_f_475_17762" x="27.4552" y="27.0454" width="115.205" height="113.979" filterUnits="userSpaceOnUse" color-interpolation-filters="sRGB">
<feFlood flood-opacity="0" result="BackgroundImageFix"/>
<feBlend mode="normal" in="SourceGraphic" in2="BackgroundImageFix" result="shape"/>
<feGaussianBlur stdDeviation="0.612791" result="effect1_foregroundBlur_475_17762"/>
</filter>
<filter id="filter5_f_475_17762" x="29.9982" y="25.7471" width="111.82" height="118.334" filterUnits="userSpaceOnUse" color-interpolation-filters="sRGB">
<feFlood flood-opacity="0" result="BackgroundImageFix"/>
<feBlend mode="normal" in="SourceGraphic" in2="BackgroundImageFix" result="shape"/>
<feGaussianBlur stdDeviation="0.612791" result="effect1_foregroundBlur_475_17762"/>
</filter>
<filter id="filter6_f_475_17762" x="22.3563" y="22.9292" width="122.151" height="126.661" filterUnits="userSpaceOnUse" color-interpolation-filters="sRGB">
<feFlood flood-opacity="0" result="BackgroundImageFix"/>
<feBlend mode="normal" in="SourceGraphic" in2="BackgroundImageFix" result="shape"/>
<feGaussianBlur stdDeviation="3.67675" result="effect1_foregroundBlur_475_17762"/>
</filter>
<filter id="filter7_f_475_17762" x="29.9583" y="31.0674" width="111.007" height="108.811" filterUnits="userSpaceOnUse" color-interpolation-filters="sRGB">
<feFlood flood-opacity="0" result="BackgroundImageFix"/>
<feBlend mode="normal" in="SourceGraphic" in2="BackgroundImageFix" result="shape"/>
<feGaussianBlur stdDeviation="1.83837" result="effect1_foregroundBlur_475_17762"/>
</filter>
<filter id="filter8_f_475_17762" x="16.4251" y="76.0693" width="6.12792" height="6.12792" filterUnits="userSpaceOnUse" color-interpolation-filters="sRGB">
<feFlood flood-opacity="0" result="BackgroundImageFix"/>
<feBlend mode="normal" in="SourceGraphic" in2="BackgroundImageFix" result="shape"/>
<feGaussianBlur stdDeviation="0.612791" result="effect1_foregroundBlur_475_17762"/>
</filter>
<filter id="filter9_f_475_17762" x="48.2902" y="103.032" width="4.90234" height="4.90234" filterUnits="userSpaceOnUse" color-interpolation-filters="sRGB">
<feFlood flood-opacity="0" result="BackgroundImageFix"/>
<feBlend mode="normal" in="SourceGraphic" in2="BackgroundImageFix" result="shape"/>
<feGaussianBlur stdDeviation="0.612791" result="effect1_foregroundBlur_475_17762"/>
</filter>
<filter id="filter10_f_475_17762" x="145.111" y="58.9111" width="4.90234" height="4.90234" filterUnits="userSpaceOnUse" color-interpolation-filters="sRGB">
<feFlood flood-opacity="0" result="BackgroundImageFix"/>
<feBlend mode="normal" in="SourceGraphic" in2="BackgroundImageFix" result="shape"/>
<feGaussianBlur stdDeviation="0.612791" result="effect1_foregroundBlur_475_17762"/>
</filter>
<filter id="filter11_f_475_17762" x="136.532" y="125.092" width="4.90234" height="4.90234" filterUnits="userSpaceOnUse" color-interpolation-filters="sRGB">
<feFlood flood-opacity="0" result="BackgroundImageFix"/>
<feBlend mode="normal" in="SourceGraphic" in2="BackgroundImageFix" result="shape"/>
<feGaussianBlur stdDeviation="0.612791" result="effect1_foregroundBlur_475_17762"/>
</filter>
<filter id="filter12_f_475_17762" x="87.5087" y="133.672" width="4.90234" height="4.90234" filterUnits="userSpaceOnUse" color-interpolation-filters="sRGB">
<feFlood flood-opacity="0" result="BackgroundImageFix"/>
<feBlend mode="normal" in="SourceGraphic" in2="BackgroundImageFix" result="shape"/>
<feGaussianBlur stdDeviation="0.612791" result="effect1_foregroundBlur_475_17762"/>
</filter>
</defs>
</svg>
