<svg width="91" height="90" viewBox="0 0 91 90" fill="none" xmlns="http://www.w3.org/2000/svg">
<path d="M3.26322 78.6757H3.24962V8.81091C3.24962 5.32613 6.08478 2.49954 9.561 2.49954H81.939C85.4238 2.49954 88.2504 5.33469 88.2504 8.81091V81.1753C88.2504 84.6601 85.4152 87.4867 81.939 87.4867H9.5746C6.08981 87.4867 3.26322 84.6515 3.26322 81.1753V78.6757Z" fill="white" stroke="url(#paint0_linear_47_955)" stroke-width="4.99925"/>
<path d="M49.4391 81.8818C61.0244 81.8818 70.4161 79.91 70.4161 77.4775C70.4161 75.0451 61.0244 73.0732 49.4391 73.0732C37.8539 73.0732 28.4622 75.0451 28.4622 77.4775C28.4622 79.91 37.8539 81.8818 49.4391 81.8818Z" fill="#212A42" fill-opacity="0.1"/>
<path d="M55.7811 35.5927C55.7811 35.5927 49.5496 29.2432 41.2237 32.7739C32.8848 36.2974 22.1402 60.0952 26.6598 71.5537C37.1386 75.6497 57.1493 61.4679 59.5226 51.7711C61.9024 42.067 55.7746 35.5927 55.7746 35.5927H55.7811Z" fill="#FF7A14"/>
<path d="M31.5359 43.9905C31.4062 44.2327 31.2765 44.475 31.1533 44.7245C33.9286 50.5235 39.2393 59.222 48.1489 65.454C48.3499 65.3072 48.5574 65.1604 48.7584 65.0136C39.6089 58.7155 34.2464 49.7528 31.5424 43.9905H31.5359Z" fill="#F75408"/>
<path d="M40.9577 69.6818C36.3927 67.2447 30.6151 63.5231 26.2771 58.605C26.2187 58.8913 26.1669 59.1702 26.115 59.4565C30.3039 64.0883 35.7183 67.6411 40.1277 70.0488C40.4001 69.9313 40.6789 69.8139 40.9512 69.6818H40.9577Z" fill="#F75408"/>
<path d="M37.4237 35.571C37.2616 35.7399 37.0995 35.9087 36.9309 36.0849C39.9721 42.4564 45.9442 52.0357 56.1765 57.9595C56.3257 57.7687 56.4748 57.5778 56.6175 57.3943C46.3462 51.5072 40.4 41.8765 37.4172 35.571H37.4237Z" fill="#F75408"/>
<path d="M52.5906 39.0869C52.5906 39.0869 52.5906 39.0061 52.5906 38.852C52.5906 38.6978 52.5841 38.485 52.5646 38.2207C52.5452 37.6995 52.4933 36.9214 52.4155 35.9892C52.3896 35.5268 52.3247 35.0203 52.2663 34.4917C52.208 33.9632 52.1367 33.4127 52.0718 32.8401C51.981 32.2749 51.8838 31.6803 51.7865 31.0858C51.6957 30.4912 51.5985 29.8966 51.4558 29.302C51.3261 28.7148 51.2029 28.1276 51.0732 27.5477C50.963 26.9678 50.7944 26.4172 50.6388 25.8887C50.4831 25.3602 50.3405 24.8537 50.1978 24.3692C50.1265 24.1343 50.0617 23.8994 49.9968 23.6719C49.9255 23.4517 49.8347 23.2461 49.7634 23.0479C49.1603 21.4771 48.7583 20.4347 48.7583 20.4347L57.4149 17.8289C57.4149 17.8289 57.4863 19.2676 57.59 21.4257C57.5965 21.6899 57.616 21.9689 57.616 22.2552C57.6095 22.5414 57.5965 22.8351 57.59 23.136C57.5706 23.7379 57.5511 24.3692 57.5252 25.0299C57.5057 25.6832 57.4863 26.3512 57.402 27.0265C57.3371 27.6945 57.2658 28.3771 57.201 29.0598C57.1426 29.7351 57.0388 30.4104 56.9351 31.0711C56.8313 31.7244 56.7341 32.3703 56.6368 32.9943C56.5136 33.6109 56.3969 34.2055 56.2867 34.7707C56.1764 35.3286 56.0727 35.8571 55.943 36.3415C55.716 37.3105 55.515 38.1179 55.3464 38.6905C55.2686 38.9768 55.2103 39.197 55.1649 39.3365C55.1195 39.4759 55.1 39.5567 55.1 39.5567L52.5971 39.0869H52.5906Z" fill="#469F36"/>
<path d="M53.9978 38.2062C53.9978 38.2062 54.0691 38.1915 54.1988 38.1695C54.3349 38.1475 54.5165 38.1034 54.7499 38.0447C55.2038 37.9419 55.8717 37.7658 56.6758 37.5382C57.0778 37.4355 57.5058 37.2886 57.9597 37.1418C58.4136 36.995 58.887 36.8335 59.3733 36.672C59.8531 36.4812 60.3524 36.2903 60.8582 36.0921C61.364 35.894 61.8698 35.7031 62.3626 35.4535C62.8554 35.2186 63.3482 34.9911 63.8346 34.7562C64.3209 34.5433 64.7748 34.279 65.2157 34.0221C65.6502 33.7726 66.0717 33.5303 66.4737 33.2954C66.6682 33.178 66.8628 33.0679 67.0508 32.9651C67.2324 32.8477 67.401 32.7229 67.5631 32.6054C68.8405 31.6952 69.6964 31.0859 69.6964 31.0859L73.2888 40.379C73.2888 40.379 72.0438 40.6726 70.1763 41.1204C69.9428 41.1718 69.7094 41.2378 69.4565 41.2745C69.2036 41.3112 68.9442 41.3406 68.6784 41.3773C68.1531 41.4434 67.5955 41.5168 67.0184 41.5902C66.4478 41.6636 65.8577 41.7443 65.2546 41.759C64.6581 41.7884 64.0485 41.8177 63.4455 41.8397C62.8424 41.8838 62.2394 41.8618 61.6493 41.8397C61.0657 41.8251 60.4821 41.8104 59.9245 41.7957C59.3668 41.7517 58.8286 41.7076 58.3228 41.6709C57.8171 41.6342 57.3372 41.5902 56.8963 41.5241C56.0209 41.414 55.2817 41.3112 54.7564 41.2158C54.4971 41.1718 54.296 41.1351 54.1663 41.1057C54.0367 41.0763 53.9653 41.0617 53.9653 41.0617L53.9913 38.1842L53.9978 38.2062Z" fill="#469F36"/>
<path d="M52.4221 38.91C52.4221 38.8513 52.4675 38.844 52.5518 38.7339C52.6426 38.6164 52.7593 38.4476 52.902 38.242C53.1937 37.831 53.6023 37.207 54.0821 36.451C54.3285 36.0839 54.5749 35.6582 54.8343 35.2104C55.0937 34.77 55.366 34.3002 55.6448 33.8157C55.9042 33.3166 56.1766 32.8027 56.4489 32.2816C56.7213 31.7677 57.0001 31.2466 57.2335 30.696C57.4799 30.1602 57.7198 29.617 57.9598 29.0885C58.2127 28.5746 58.4072 28.0314 58.5952 27.5176C58.7833 27.0038 58.9713 26.512 59.1464 26.0422C59.2307 25.8073 59.315 25.5871 59.3993 25.3668C59.4706 25.1466 59.5225 24.9264 59.5873 24.7209C60.0413 23.0913 60.346 21.9976 60.346 21.9976L68.3866 26.4753C68.3866 26.4753 67.602 27.613 66.4284 29.316C66.2792 29.5216 66.1366 29.7491 65.968 29.962C65.7994 30.1675 65.6178 30.3877 65.4363 30.6079C65.0731 31.0484 64.6905 31.5108 64.2885 31.988C63.893 32.4651 63.4909 32.9569 63.037 33.4047C62.5961 33.8598 62.1487 34.3222 61.7013 34.792C61.2668 35.2618 60.7934 35.6876 60.333 36.106C59.8791 36.5244 59.4252 36.9354 58.9908 37.3318C58.5434 37.7062 58.1089 38.0659 57.6939 38.4109C57.2854 38.7485 56.8963 39.0715 56.5202 39.3431C55.7875 39.901 55.165 40.3561 54.7111 40.6717C54.4841 40.8332 54.3155 40.9507 54.1988 41.0167C54.0821 41.0901 54.0691 41.1195 54.0237 41.1342C53.3105 41.2737 52.1952 40.3121 52.4091 38.9174L52.4221 38.91Z" fill="#6DD14D"/>
<path opacity="0.2" d="M31.7758 54.8613C31.4451 54.8613 31.1079 54.7805 30.7902 54.6044C29.6619 53.9878 29.1885 52.4463 29.7397 51.169C29.9083 50.7726 30.0769 50.3836 30.2519 50.0092C30.8291 48.7467 32.1973 48.2549 33.3126 48.9082C34.4279 49.5615 34.8623 51.1103 34.2852 52.3729C34.1296 52.7105 33.974 53.0629 33.8248 53.4152C33.4358 54.3328 32.6252 54.8613 31.7823 54.8613H31.7758ZM37.3005 46.8748C40.9577 41.2594 44.6408 38.7342 44.7121 38.6902C45.7885 37.9708 46.1516 36.4 45.5227 35.1815C44.8872 33.9556 43.4995 33.5445 42.4166 34.2566C42.2351 34.374 37.9165 37.2735 33.6498 43.8212C32.9041 44.9663 33.118 46.5739 34.1296 47.4107C34.5381 47.7484 35.005 47.9098 35.4784 47.9098C36.1722 47.9098 36.8595 47.5502 37.3069 46.8675L37.3005 46.8748Z" fill="#E6FF57"/>
<defs>
<linearGradient id="paint0_linear_47_955" x1="13.2652" y1="74.2212" x2="56.4562" y2="-17.3866" gradientUnits="userSpaceOnUse">
<stop stop-color="#FEEDB1"/>
<stop offset="1" stop-color="#E7A92D"/>
</linearGradient>
</defs>
</svg>
