<svg width="100" height="100" viewBox="0 0 100 100" fill="none" xmlns="http://www.w3.org/2000/svg">
<g id="Group 2">
<circle id="Ellipse 337" cx="50" cy="50" r="50" fill="white"/>
<g id="Group">
<path id="Vector" d="M74.399 63.8292C74.399 63.8292 78.1482 68.0607 77.4065 68.2821C76.6759 68.4912 70.1862 67.4415 70.1862 67.4415L28.5966 67.8352C28.5966 67.8352 23.2491 68.5322 22.4963 67.9336C21.7546 67.3308 25.2256 64.6165 25.2256 64.6165C25.2553 64.272 25.285 63.9399 25.3221 63.6078C25.3999 62.8082 25.4889 62.0251 25.5816 61.2624C25.8004 59.3845 26.0674 57.6009 26.3567 55.9034C26.4902 55.1531 26.6163 54.4273 26.7609 53.7139V53.7016C27.3098 50.8109 27.9439 48.2236 28.578 45.9603C28.8228 45.0869 29.0675 44.2464 29.3234 43.4714C29.5237 42.8072 29.7276 42.1757 29.9427 41.5853V41.5484L29.9538 41.5361C30.7771 39.1088 31.541 37.2677 32.101 36.0459C32.6387 34.8486 32.9762 34.2418 32.9762 34.2418C32.9762 34.2418 32.9243 30.1579 33.8291 29.1246C34.7377 28.0791 38.4869 31.6996 38.4869 31.6996C38.4869 31.6996 49.0261 31.9497 50.6986 32.536C52.3711 33.1224 52.7531 34.5411 52.7531 34.5411L55.5269 34.496C55.5269 34.496 75.0479 28.4645 76.9874 28.4317C77.3768 28.4276 77.5548 28.6818 77.5956 29.1082C77.7847 30.8221 75.6895 35.1971 75.6895 35.1971C75.6895 35.1971 75.6747 35.8122 75.6561 36.9028C75.6413 37.3948 75.6264 37.9812 75.6116 38.6577C75.5782 40.2404 75.5486 42.2906 75.5115 44.6441C75.4967 45.2468 75.4929 45.8701 75.4818 46.522C75.4744 46.768 75.4781 47.0141 75.4707 47.2601C75.4484 49.015 75.3743 50.9298 75.2667 52.82C75.2111 53.7426 75.1555 54.6241 75.0924 55.5098V55.5221C74.9256 58.1011 74.7253 60.4588 74.577 61.98C74.4694 63.1363 74.4027 63.8333 74.4027 63.8333L74.399 63.8292Z" fill="url(#paint0_linear_409_2590)"/>
<g id="Vector_2" style="mix-blend-mode:multiply" opacity="0.38">
<path d="M55.5393 34.5787C55.5393 34.5787 53.5982 35.5493 52.304 37.6522C48.5834 41.966 45.4021 45.0395 45.4021 45.0395C45.4021 45.0395 34.0786 52.5885 33.6472 34.4709C37.2599 37.7601 50.695 32.5322 50.695 32.5322C52.3675 33.1186 52.6815 34.5248 52.6815 34.5248L55.5393 34.5787Z" fill="#F8C53B"/>
</g>
<g id="Vector_3" style="mix-blend-mode:multiply" opacity="0.17">
<path d="M29.9503 41.5317C29.9503 41.5317 29.9503 41.544 29.9392 41.5809V41.544L29.9503 41.5317Z" fill="#F8C53B"/>
</g>
<g id="Vector_4" style="mix-blend-mode:multiply" opacity="0.38">
<path d="M74.3991 63.8292C74.3991 63.8292 78.1483 68.0606 77.4066 68.2821C76.676 68.4912 70.1863 67.4415 70.1863 67.4415L28.5967 67.8351C28.5967 67.8351 23.2492 68.5322 22.4964 67.9335C22.2961 67.7654 22.3999 67.4456 22.6744 67.0725C22.6744 67.0725 24.7696 66.8675 25.63 66.5845C26.4792 66.3016 28.007 65.2602 27.944 64.5713C27.8698 63.8866 25.2257 64.6164 25.2257 64.6164C25.2554 64.272 25.2851 63.9399 25.3222 63.6078C25.4 62.8082 25.489 62.0251 25.5818 61.2624C25.8005 59.3845 26.0676 57.6009 26.3568 55.9034C26.4903 55.153 26.6164 54.4273 26.761 53.7138V53.7015C27.3099 50.8109 27.944 48.2236 28.5781 45.9603C28.8229 45.0869 29.0676 44.2464 29.3235 43.4714C29.5238 42.8072 29.7277 42.1757 29.9428 41.5853C29.7574 42.5939 28.5785 48.4908 29.4413 54.4222C30.5197 59.4908 33.7327 65.6791 46.4266 66.0153C59.1315 66.3638 63.5197 58.1967 65.3531 53.3437C70.907 40.4565 63.7893 39.0006 67.5099 34.3633C68.9372 32.2882 76.8021 31.8718 77.5957 29.1123C77.7848 30.8262 75.6896 35.2012 75.6896 35.2012C75.6896 35.2012 75.6748 35.8162 75.6562 36.9069C75.6414 37.3989 75.6265 37.9853 75.6117 38.6618C75.5783 40.2445 75.5487 42.2946 75.5116 44.6482C75.4968 45.2509 75.493 45.8742 75.4819 46.5261C75.4745 46.7721 75.4782 47.0181 75.4708 47.2641C75.4485 49.019 75.3744 50.9339 75.2668 52.8241C75.2112 53.7466 75.1556 54.6282 75.0925 55.5139V55.5262C74.9257 58.1052 74.7254 60.4629 74.5771 61.9841C74.4695 63.1403 74.4028 63.8374 74.4028 63.8374L74.3991 63.8292Z" fill="#F8C53B"/>
</g>
<g id="Vector_5" style="mix-blend-mode:screen" opacity="0.22">
<path d="M34.0221 29.8006C34.0221 29.8006 33.6401 33.4744 34.9344 33.5236C36.2286 33.5728 38.0012 32.7405 38.0568 32.0434C38.1125 31.3423 34.4449 29.0543 34.0221 29.8006Z" fill="#FFFAE9"/>
</g>
</g>
<path id="Ellipse 338" d="M76.5 7.60009C86.7293 13.9934 94.3025 23.8694 97.8231 35.4072C101.344 46.945 100.575 59.3666 95.6572 70.3818C90.7399 81.397 82.0061 90.2632 71.0661 95.3456C60.1261 100.428 47.7175 101.384 36.1281 98.0372C24.5386 94.6904 14.5499 87.2667 8.00341 77.1346C1.45694 67.0025 -1.20584 54.8453 0.506026 42.9045C2.21789 30.9636 8.18896 20.0442 17.3183 12.1594C26.4477 4.27467 38.1199 -0.0437577 50.1828 0.000334001L50.1351 13.034C41.2167 13.0014 32.5872 16.1941 25.8376 22.0235C19.088 27.8529 14.6735 35.9259 13.4078 44.7541C12.1422 53.5823 14.1109 62.5704 18.9508 70.0613C23.7908 77.5522 31.1758 83.0408 39.7441 85.5151C48.3125 87.9894 57.4865 87.2827 65.5747 83.5251C73.663 79.7676 80.1201 73.2126 83.7556 65.0688C87.391 56.9249 87.9598 47.7413 85.3569 39.2112C82.754 30.681 77.1549 23.3794 69.5921 18.6527L76.5 7.60009Z" fill="#CB9E31"/>
<path id="Vector_6" d="M50.0787 79.6615C60.8264 79.6615 69.5392 77.8322 69.5392 75.5756C69.5392 73.3191 60.8264 71.4897 50.0787 71.4897C39.3309 71.4897 30.6182 73.3191 30.6182 75.5756C30.6182 77.8322 39.3309 79.6615 50.0787 79.6615Z" fill="#212A42" fill-opacity="0.1"/>
</g>
<defs>
<linearGradient id="paint0_linear_409_2590" x1="32.0658" y1="33.977" x2="80.2364" y2="65.428" gradientUnits="userSpaceOnUse">
<stop stop-color="#FEEDB1"/>
<stop offset="1" stop-color="#E7A92D"/>
</linearGradient>
</defs>
</svg>
