<svg width="100" height="100" viewBox="0 0 100 100" fill="none" xmlns="http://www.w3.org/2000/svg">
<g id="Group 2">
<circle id="Ellipse 337" cx="50" cy="50" r="50" fill="white"/>
<path id="Vector" d="M50.1568 79.6615C60.9045 79.6615 69.6173 77.8322 69.6173 75.5756C69.6173 73.3191 60.9045 71.4897 50.1568 71.4897C39.4091 71.4897 30.6963 73.3191 30.6963 75.5756C30.6963 77.8322 39.4091 79.6615 50.1568 79.6615Z" fill="#212A42" fill-opacity="0.1"/>
<g id="Layer 1">
<path id="Vector_2" d="M51.3617 24.9326C43.9412 24.9326 37.9287 30.9484 37.9287 38.3656V57.5108C37.9287 64.9313 43.9445 70.9438 51.3617 70.9438C58.7822 70.9438 64.7947 64.928 64.7947 57.5108V38.3656C64.7947 30.9451 58.7789 24.9326 51.3617 24.9326Z" fill="url(#paint0_linear_409_2601)"/>
<path id="Vector_3" d="M63.6836 38.589V57.7342C63.6836 64.5274 58.155 70.0561 51.3617 70.0561C44.5685 70.0561 39.0398 64.5274 39.0398 57.7342V38.589C39.0398 37.9651 39.0865 37.3511 39.1766 36.7506C40.0675 30.8248 45.1924 26.2671 51.3617 26.2671C58.155 26.2671 63.6836 31.7958 63.6836 38.589Z" fill="url(#paint1_linear_409_2601)"/>
<path id="Vector_4" d="M39.1766 36.7506C39.1766 36.7506 39.2 36.6071 39.24 36.3402C39.2567 36.2067 39.2934 36.0432 39.3334 35.8531C39.3668 35.6595 39.4302 35.4427 39.4902 35.1991C39.627 34.712 39.8172 34.1281 40.1008 33.4841C40.3844 32.8401 40.7648 32.1361 41.2653 31.4254C41.5122 31.0684 41.7958 30.7148 42.0994 30.3577C42.2596 30.1876 42.4131 30.0041 42.5866 29.8372C42.6733 29.7505 42.7567 29.6671 42.8468 29.5803C42.9369 29.4969 43.027 29.4135 43.1204 29.3301C43.4908 28.9964 43.8878 28.6728 44.3182 28.3758C44.5284 28.2223 44.7553 28.0855 44.9822 27.9387C45.2158 27.8053 45.446 27.6651 45.6896 27.545C45.9298 27.4149 46.18 27.3048 46.4303 27.188C46.6872 27.0846 46.9408 26.9711 47.2077 26.8844C47.4713 26.7843 47.7415 26.7075 48.0118 26.6241C48.2854 26.5541 48.559 26.4773 48.8426 26.4239C49.4032 26.3072 49.9737 26.2237 50.5509 26.1904L50.7678 26.1737L50.9847 26.167C51.1315 26.167 51.2716 26.157 51.4218 26.1603C51.7087 26.167 51.9957 26.167 52.2893 26.1937C53.4537 26.2771 54.5948 26.5374 55.6659 26.9311C56.1997 27.1346 56.7169 27.3682 57.2107 27.6318C57.7012 27.9054 58.175 28.189 58.6121 28.516L58.7789 28.6327L58.9391 28.7595C59.0458 28.8429 59.1493 28.9264 59.256 29.0098C59.3561 29.0965 59.4562 29.1833 59.5563 29.27L59.7065 29.4002L59.8466 29.5369C59.94 29.627 60.0334 29.7171 60.1269 29.8072C60.217 29.9006 60.3037 29.9941 60.3905 30.0875C60.5706 30.271 60.7274 30.4679 60.8909 30.6547C61.5249 31.4254 62.0254 32.2296 62.4124 33.0036C62.8028 33.7811 63.0697 34.5318 63.2532 35.2124C63.4367 35.8931 63.5435 36.497 63.6002 37.0008C63.6136 37.1276 63.6303 37.2444 63.6403 37.3579C63.6469 37.4713 63.6536 37.5747 63.6603 37.6715C63.667 37.7682 63.6703 37.8583 63.677 37.9417C63.677 38.0252 63.677 38.0986 63.677 38.1686C63.677 38.4389 63.6803 38.5824 63.6803 38.5824C63.6803 38.5824 63.6736 38.4389 63.6636 38.1686C63.6636 38.1019 63.6569 38.0252 63.6536 37.9417C63.6469 37.8583 63.6369 37.7682 63.6303 37.6715C63.6202 37.5747 63.6136 37.468 63.6002 37.3579C63.5869 37.2477 63.5702 37.1276 63.5535 37.0042C63.4901 36.507 63.37 35.9064 63.1698 35.2325C62.9729 34.5618 62.6893 33.8211 62.2956 33.057C61.9019 32.2929 61.3948 31.5055 60.7608 30.7548C60.5973 30.5713 60.4405 30.3778 60.2603 30.2009C60.1736 30.1108 60.0835 30.0208 59.9967 29.9273C59.9033 29.8406 59.8099 29.7505 59.7165 29.6637L59.5763 29.5303L59.4295 29.4035C59.3294 29.3167 59.2327 29.2333 59.1326 29.1466C59.0291 29.0665 58.9257 28.9831 58.8189 28.903L58.6621 28.7795L58.4986 28.6628C58.0682 28.3425 57.5978 28.0655 57.114 27.7986C56.6268 27.5383 56.1163 27.3148 55.5891 27.1146C54.5348 26.7309 53.407 26.4773 52.2693 26.4039C51.989 26.3739 51.6987 26.3739 51.4118 26.3672C51.275 26.3672 51.1282 26.3706 50.988 26.3739L50.7745 26.3806L50.5609 26.3939C49.9937 26.4239 49.4298 26.504 48.8793 26.6175C48.6024 26.6708 48.3321 26.7442 48.0619 26.811C47.7949 26.8911 47.528 26.9678 47.2711 27.0646C47.0108 27.1513 46.7573 27.2614 46.507 27.3615C46.2601 27.475 46.0132 27.5817 45.7763 27.7085C45.5361 27.8253 45.3092 27.9621 45.079 28.0922C44.8588 28.2324 44.6319 28.3658 44.4217 28.516C43.9946 28.8029 43.5975 29.1199 43.2272 29.4435C43.1371 29.5269 43.0437 29.607 42.9536 29.6871C42.8668 29.7705 42.7801 29.8573 42.6933 29.9373C42.5198 30.1008 42.3663 30.281 42.2029 30.4478C41.8992 30.7948 41.6123 31.1385 41.362 31.4922C40.8616 32.1895 40.4678 32.8768 40.1709 33.5108C39.8739 34.1447 39.6737 34.722 39.5269 35.2024C39.4602 35.446 39.3935 35.6595 39.3534 35.8497C39.3101 36.0399 39.2667 36.2001 39.2467 36.3335C39.1966 36.6005 39.1699 36.7406 39.1699 36.7406L39.1766 36.7506Z" fill="#FEFEFE"/>
<path id="Vector_5" style="mix-blend-mode:multiply" d="M64.7713 38.3689C64.7713 38.3689 64.7646 38.2055 64.7546 37.8952C64.7513 37.8184 64.7513 37.7317 64.7446 37.6382C64.7379 37.5448 64.7279 37.4414 64.7179 37.3279C64.7079 37.2178 64.7012 37.0977 64.6845 36.9709C64.6679 36.8441 64.6478 36.7107 64.6312 36.5672C64.6211 36.4971 64.6111 36.4237 64.6011 36.347C64.5878 36.2736 64.5744 36.1968 64.5577 36.1168C64.5277 35.96 64.501 35.7965 64.4643 35.6263C64.4243 35.4561 64.3809 35.2826 64.3375 35.0991C64.2942 34.9189 64.2341 34.7321 64.1774 34.5419C63.9405 33.7778 63.6068 32.9337 63.1364 32.0695C62.6693 31.2054 62.052 30.3278 61.2979 29.4904C60.9176 29.0766 60.5072 28.6662 60.0567 28.2892C59.8365 28.0923 59.5963 27.9155 59.3594 27.7287C59.2393 27.6386 59.1125 27.5552 58.989 27.4651L58.8022 27.3349L58.6087 27.2115C57.581 26.5475 56.4199 26.0103 55.192 25.6466C54.5781 25.4598 53.9408 25.333 53.3002 25.2362C52.6562 25.1462 52.0056 25.1095 51.355 25.1061C51.0347 25.1195 50.6943 25.1195 50.3774 25.1528C50.2172 25.1695 50.057 25.1728 49.8969 25.1995L49.4164 25.2663C48.7791 25.373 48.1452 25.5098 47.5379 25.7C46.3201 26.0804 45.1723 26.6243 44.158 27.2982L43.9678 27.4217L43.7843 27.5518C43.6609 27.6386 43.5374 27.722 43.4173 27.8121C43.1837 27.9956 42.9468 28.1724 42.7266 28.3693C42.2795 28.7463 41.8758 29.1534 41.4954 29.5604C40.748 30.3879 40.1308 31.2554 39.6637 32.1129C39.1965 32.9704 38.8462 33.7979 38.606 34.5586C38.3591 35.316 38.2189 36 38.1255 36.5672C38.1021 36.7107 38.0821 36.8441 38.0621 36.9709C38.0454 37.0977 38.0354 37.2178 38.0221 37.3279C38.0121 37.4381 37.9987 37.5415 37.9887 37.6349C37.9787 37.7283 37.9754 37.8151 37.972 37.8918C37.952 38.1988 37.942 38.3656 37.942 38.3656H37.8986C37.8986 38.3656 37.8986 38.1988 37.8953 37.8918C37.8953 37.8151 37.8919 37.7283 37.8953 37.6316C37.8986 37.5348 37.9053 37.4314 37.9086 37.3213C37.9153 37.2078 37.9186 37.0877 37.9286 36.9576C37.942 36.8275 37.9553 36.694 37.9687 36.5472C37.9754 36.4738 37.982 36.4004 37.992 36.3236C38.0021 36.2469 38.0154 36.1702 38.0254 36.0901C38.0488 35.9299 38.0721 35.7631 38.1021 35.5929C38.1389 35.4228 38.1756 35.2426 38.2156 35.0591C38.2556 34.8756 38.3124 34.6854 38.3624 34.4885C38.5793 33.7078 38.8896 32.8403 39.3534 31.9494C39.8138 31.0585 40.4244 30.151 41.1785 29.2802C41.2685 29.1667 41.372 29.0666 41.4721 28.9598C41.5722 28.8564 41.6689 28.743 41.7757 28.6429C41.9892 28.4393 42.2028 28.2291 42.433 28.0323C42.6566 27.8288 42.9001 27.6452 43.1437 27.4517C43.2671 27.3583 43.3939 27.2715 43.5207 27.1781L43.7109 27.0413L43.9078 26.9145C44.9621 26.2305 46.1533 25.6767 47.4178 25.303C48.0484 25.1128 48.7024 24.9827 49.363 24.8859L49.8602 24.8258C50.0237 24.8025 50.1938 24.7992 50.3607 24.7858C50.701 24.7558 51.018 24.7625 51.3583 24.7524C52.0256 24.7658 52.6929 24.8092 53.3502 24.9126C54.0075 25.0194 54.6548 25.1595 55.2821 25.3564C56.5366 25.7434 57.7145 26.3073 58.7521 26.9979L58.949 27.1247L59.1392 27.2615C59.2626 27.3516 59.3894 27.4384 59.5129 27.5351C59.7531 27.7253 59.9933 27.9122 60.2169 28.1124C60.4471 28.3059 60.6573 28.5161 60.8675 28.7196C60.9743 28.8197 61.071 28.9298 61.1711 29.0366C61.2679 29.1434 61.3713 29.2435 61.4614 29.3536C62.2121 30.2144 62.8194 31.1153 63.2798 31.9961C63.7403 32.877 64.0639 33.7345 64.2908 34.5085C64.3442 34.7021 64.4009 34.8889 64.441 35.0724C64.481 35.2559 64.521 35.4328 64.5577 35.6029C64.5911 35.7731 64.6178 35.9399 64.6445 36.0968C64.6578 36.1768 64.6712 36.2536 64.6812 36.327C64.6912 36.4037 64.6979 36.4771 64.7079 36.5472C64.7246 36.6907 64.7413 36.8275 64.7546 36.9542C64.7646 37.081 64.7713 37.2045 64.7813 37.3146C64.788 37.428 64.7946 37.5315 64.8013 37.6249C64.808 37.7183 64.8047 37.8051 64.808 37.8818C64.8147 38.1921 64.8147 38.3556 64.8147 38.3556H64.7713V38.3689Z" fill="url(#paint2_linear_409_2601)"/>
<g id="Group">
<path id="Vector_6" d="M52.4262 64.3841C53.0859 64.3841 53.6207 63.8493 53.6207 63.1896C53.6207 62.5299 53.0859 61.9951 52.4262 61.9951C51.7665 61.9951 51.2317 62.5299 51.2317 63.1896C51.2317 63.8493 51.7665 64.3841 52.4262 64.3841Z" fill="url(#paint3_radial_409_2601)"/>
<path id="Vector_7" d="M53.397 63.0954C53.397 63.6659 52.9333 64.1297 52.3627 64.1297C51.7922 64.1297 51.3284 63.6659 51.3284 63.0954C51.3284 62.5248 51.7922 62.061 52.3627 62.061C52.9333 62.061 53.397 62.5248 53.397 63.0954Z" fill="url(#paint4_radial_409_2601)"/>
<path id="Vector_8" d="M52.893 62.8795C52.893 63.2765 52.5727 63.5968 52.1756 63.5968C51.7786 63.5968 51.4583 63.2765 51.4583 62.8795C51.4583 62.4824 51.7786 62.1621 52.1756 62.1621C52.5727 62.1621 52.893 62.4824 52.893 62.8795Z" fill="url(#paint5_radial_409_2601)"/>
<path id="Vector_9" d="M52.4629 62.7527C52.4629 62.9796 52.2794 63.1631 52.0525 63.1631C51.8256 63.1631 51.6421 62.9796 51.6421 62.7527C51.6421 62.5258 51.8256 62.3423 52.0525 62.3423C52.2794 62.3423 52.4629 62.5258 52.4629 62.7527Z" fill="url(#paint6_radial_409_2601)"/>
</g>
<g id="Group_2">
<path id="Vector_10" d="M51.4817 70.3859C51.4817 71.2234 50.8044 71.9007 49.9669 71.9007C49.1295 71.9007 48.4521 71.2234 48.4521 70.3859C48.4521 69.5484 49.1295 68.8711 49.9669 68.8711C50.8044 68.8711 51.4817 69.5484 51.4817 70.3859Z" fill="url(#paint7_radial_409_2601)"/>
<path id="Vector_11" d="M51.1982 70.2659C51.1982 70.9899 50.611 71.5771 49.887 71.5771C49.1629 71.5771 48.5757 70.9899 48.5757 70.2659C48.5757 69.5418 49.1629 68.9546 49.887 68.9546C50.611 68.9546 51.1982 69.5418 51.1982 70.2659Z" fill="url(#paint8_radial_409_2601)"/>
<path id="Vector_12" d="M50.5578 69.9925C50.5578 70.493 50.1507 70.9001 49.6502 70.9001C49.1497 70.9001 48.7427 70.493 48.7427 69.9925C48.7427 69.492 49.1497 69.085 49.6502 69.085C50.1507 69.085 50.5578 69.492 50.5578 69.9925Z" fill="url(#paint9_radial_409_2601)"/>
<path id="Vector_13" d="M50.0139 69.8354C50.0139 70.1224 49.7803 70.356 49.4934 70.356C49.2065 70.356 48.9729 70.1224 48.9729 69.8354C48.9729 69.5485 49.2065 69.3149 49.4934 69.3149C49.7803 69.3149 50.0139 69.5485 50.0139 69.8354Z" fill="url(#paint10_radial_409_2601)"/>
</g>
<g id="Group_3">
<path id="Vector_14" d="M40.2342 67.0302C40.2342 67.6942 39.697 68.2347 39.0297 68.2347C38.3624 68.2347 37.8252 67.6975 37.8252 67.0302C37.8252 66.3629 38.3624 65.8257 39.0297 65.8257C39.697 65.8257 40.2342 66.3629 40.2342 67.0302Z" fill="url(#paint11_radial_409_2601)"/>
<path id="Vector_15" d="M40.011 66.9375C40.011 67.5114 39.5439 67.9785 38.97 67.9785C38.3961 67.9785 37.929 67.5114 37.929 66.9375C37.929 66.3636 38.3961 65.8965 38.97 65.8965C39.5439 65.8965 40.011 66.3636 40.011 66.9375Z" fill="url(#paint12_radial_409_2601)"/>
<path id="Vector_16" d="M38.783 67.4375C39.181 67.4375 39.5037 67.1148 39.5037 66.7168C39.5037 66.3188 39.181 65.9961 38.783 65.9961C38.3849 65.9961 38.0623 66.3188 38.0623 66.7168C38.0623 67.1148 38.3849 67.4375 38.783 67.4375Z" fill="url(#paint13_radial_409_2601)"/>
<path id="Vector_17" d="M39.0699 66.59C39.0699 66.8169 38.8864 67.0037 38.6562 67.0037C38.4259 67.0037 38.2424 66.8202 38.2424 66.59C38.2424 66.3598 38.4259 66.1763 38.6562 66.1763C38.8864 66.1763 39.0699 66.3598 39.0699 66.59Z" fill="url(#paint14_radial_409_2601)"/>
</g>
<g id="Group_4">
<path id="Vector_18" d="M45.9429 71.7477C45.9429 72.6853 45.1855 73.4427 44.248 73.4427C43.3104 73.4427 42.553 72.6853 42.553 71.7477C42.553 70.8101 43.3104 70.0527 44.248 70.0527C45.1855 70.0527 45.9429 70.8101 45.9429 71.7477Z" fill="url(#paint15_radial_409_2601)"/>
<path id="Vector_19" d="M44.158 73.0812C44.9688 73.0812 45.6261 72.4239 45.6261 71.6131C45.6261 70.8023 44.9688 70.145 44.158 70.145C43.3472 70.145 42.6899 70.8023 42.6899 71.6131C42.6899 72.4239 43.3472 73.0812 44.158 73.0812Z" fill="url(#paint16_radial_409_2601)"/>
<path id="Vector_20" d="M44.909 71.3034C44.909 71.8639 44.4552 72.3177 43.8947 72.3177C43.3341 72.3177 42.8804 71.8639 42.8804 71.3034C42.8804 70.7428 43.3341 70.2891 43.8947 70.2891C44.4552 70.2891 44.909 70.7428 44.909 71.3034Z" fill="url(#paint17_radial_409_2601)"/>
<path id="Vector_21" d="M43.7177 71.7098C44.0402 71.7098 44.3016 71.4484 44.3016 71.1259C44.3016 70.8034 44.0402 70.542 43.7177 70.542C43.3952 70.542 43.1338 70.8034 43.1338 71.1259C43.1338 71.4484 43.3952 71.7098 43.7177 71.7098Z" fill="url(#paint18_radial_409_2601)"/>
</g>
<g id="Group_5">
<path id="Vector_22" d="M31.9694 50.0735C32.9055 50.0735 33.6644 49.3147 33.6644 48.3786C33.6644 47.4425 32.9055 46.6836 31.9694 46.6836C31.0333 46.6836 30.2744 47.4425 30.2744 48.3786C30.2744 49.3147 31.0333 50.0735 31.9694 50.0735Z" fill="url(#paint19_radial_409_2601)"/>
<path id="Vector_23" d="M31.8831 49.713C32.6939 49.713 33.3512 49.0557 33.3512 48.2449C33.3512 47.4341 32.6939 46.7769 31.8831 46.7769C31.0723 46.7769 30.415 47.4341 30.415 48.2449C30.415 49.0557 31.0723 49.713 31.8831 49.713Z" fill="url(#paint20_radial_409_2601)"/>
<path id="Vector_24" d="M31.6159 48.9529C32.1761 48.9529 32.6302 48.4988 32.6302 47.9386C32.6302 47.3784 32.1761 46.9243 31.6159 46.9243C31.0557 46.9243 30.6016 47.3784 30.6016 47.9386C30.6016 48.4988 31.0557 48.9529 31.6159 48.9529Z" fill="url(#paint21_radial_409_2601)"/>
<path id="Vector_25" d="M31.4389 48.345C31.7614 48.345 32.0228 48.0836 32.0228 47.7611C32.0228 47.4387 31.7614 47.1772 31.4389 47.1772C31.1164 47.1772 30.855 47.4387 30.855 47.7611C30.855 48.0836 31.1164 48.345 31.4389 48.345Z" fill="url(#paint22_radial_409_2601)"/>
</g>
<g id="Group_6">
<path id="Vector_26" d="M68.071 52.1961C69.0071 52.1961 69.7659 51.4372 69.7659 50.5011C69.7659 49.565 69.0071 48.8062 68.071 48.8062C67.1348 48.8062 66.376 49.565 66.376 50.5011C66.376 51.4372 67.1348 52.1961 68.071 52.1961Z" fill="url(#paint23_radial_409_2601)"/>
<path id="Vector_27" d="M69.4491 50.3704C69.4491 51.1812 68.7918 51.8385 67.981 51.8385C67.1702 51.8385 66.5129 51.1812 66.5129 50.3704C66.5129 49.5596 67.1702 48.9023 67.981 48.9023C68.7918 48.9023 69.4491 49.5596 69.4491 50.3704Z" fill="url(#paint24_radial_409_2601)"/>
<path id="Vector_28" d="M67.7172 51.0745C68.2774 51.0745 68.7315 50.6204 68.7315 50.0602C68.7315 49.5 68.2774 49.0459 67.7172 49.0459C67.157 49.0459 66.7029 49.5 66.7029 50.0602C66.7029 50.6204 67.157 51.0745 67.7172 51.0745Z" fill="url(#paint25_radial_409_2601)"/>
<path id="Vector_29" d="M67.5407 50.4676C67.8632 50.4676 68.1246 50.2062 68.1246 49.8837C68.1246 49.5612 67.8632 49.2998 67.5407 49.2998C67.2182 49.2998 66.9568 49.5612 66.9568 49.8837C66.9568 50.2062 67.2182 50.4676 67.5407 50.4676Z" fill="url(#paint26_radial_409_2601)"/>
</g>
<g id="Group_7">
<path id="Vector_30" d="M56.9769 56.7567C56.9769 57.4473 56.4197 58.0045 55.7291 58.0045C55.0384 58.0045 54.4812 57.4473 54.4812 56.7567C54.4812 56.066 55.0384 55.5088 55.7291 55.5088C56.4197 55.5088 56.9769 56.066 56.9769 56.7567Z" fill="url(#paint27_radial_409_2601)"/>
<path id="Vector_31" d="M56.7434 56.6592C56.7434 57.2564 56.2596 57.7402 55.6623 57.7402C55.0651 57.7402 54.5813 57.2564 54.5813 56.6592C54.5813 56.0619 55.0651 55.5781 55.6623 55.5781C56.2596 55.5781 56.7434 56.0619 56.7434 56.6592Z" fill="url(#paint28_radial_409_2601)"/>
<path id="Vector_32" d="M56.2165 56.4329C56.2165 56.8467 55.8828 57.1803 55.4691 57.1803C55.0553 57.1803 54.7217 56.8467 54.7217 56.4329C54.7217 56.0192 55.0553 55.6855 55.4691 55.6855C55.8828 55.6855 56.2165 56.0192 56.2165 56.4329Z" fill="url(#paint29_radial_409_2601)"/>
<path id="Vector_33" d="M55.7693 56.303C55.7693 56.5399 55.5758 56.7334 55.3389 56.7334C55.102 56.7334 54.9084 56.5399 54.9084 56.303C54.9084 56.0661 55.102 55.8726 55.3389 55.8726C55.5758 55.8726 55.7693 56.0661 55.7693 56.303Z" fill="url(#paint30_radial_409_2601)"/>
</g>
<g id="Group_8">
<path id="Vector_34" d="M49.6864 56.1424C49.6864 56.8331 49.1292 57.3903 48.4385 57.3903C47.7479 57.3903 47.1907 56.8331 47.1907 56.1424C47.1907 55.4517 47.7479 54.8945 48.4385 54.8945C49.1292 54.8945 49.6864 55.4517 49.6864 56.1424Z" fill="url(#paint31_radial_409_2601)"/>
<path id="Vector_35" d="M49.4531 56.0454C49.4531 56.6426 48.9693 57.1264 48.3721 57.1264C47.7748 57.1264 47.291 56.6426 47.291 56.0454C47.291 55.4482 47.7748 54.9644 48.3721 54.9644C48.9693 54.9644 49.4531 55.4482 49.4531 56.0454Z" fill="url(#paint32_radial_409_2601)"/>
<path id="Vector_36" d="M48.9259 55.8192C48.9259 56.2329 48.5923 56.5666 48.1785 56.5666C47.7648 56.5666 47.4312 56.2329 47.4312 55.8192C47.4312 55.4054 47.7648 55.0718 48.1785 55.0718C48.5923 55.0718 48.9259 55.4054 48.9259 55.8192Z" fill="url(#paint33_radial_409_2601)"/>
<path id="Vector_37" d="M48.4788 55.6887C48.4788 55.9256 48.2852 56.1191 48.0483 56.1191C47.8114 56.1191 47.6179 55.9256 47.6179 55.6887C47.6179 55.4518 47.8114 55.2583 48.0483 55.2583C48.2852 55.2583 48.4788 55.4518 48.4788 55.6887Z" fill="url(#paint34_radial_409_2601)"/>
</g>
<g id="Group_9">
<path id="Vector_38" d="M58.7155 80.1329C58.7155 80.9837 58.0248 81.671 57.1773 81.671C56.3298 81.671 55.6392 80.9804 55.6392 80.1329C55.6392 79.2854 56.3298 78.5947 57.1773 78.5947C58.0248 78.5947 58.7155 79.2854 58.7155 80.1329Z" fill="url(#paint35_radial_409_2601)"/>
<path id="Vector_39" d="M58.4282 80.0129C58.4282 80.7503 57.831 81.3442 57.0969 81.3442C56.3629 81.3442 55.7656 80.747 55.7656 80.0129C55.7656 79.2789 56.3629 78.6816 57.0969 78.6816C57.831 78.6816 58.4282 79.2789 58.4282 80.0129Z" fill="url(#paint36_radial_409_2601)"/>
<path id="Vector_40" d="M57.7773 79.7329C57.7773 80.2434 57.3636 80.6538 56.8564 80.6538C56.3493 80.6538 55.9355 80.2401 55.9355 79.7329C55.9355 79.2257 56.3493 78.812 56.8564 78.812C57.3636 78.812 57.7773 79.2257 57.7773 79.7329Z" fill="url(#paint37_radial_409_2601)"/>
<path id="Vector_41" d="M56.6934 80.103C56.9864 80.103 57.2239 79.8655 57.2239 79.5725C57.2239 79.2795 56.9864 79.042 56.6934 79.042C56.4004 79.042 56.1628 79.2795 56.1628 79.5725C56.1628 79.8655 56.4004 80.103 56.6934 80.103Z" fill="url(#paint38_radial_409_2601)"/>
</g>
<g id="Group_10">
<path id="Vector_42" d="M63.6733 45.1728C64.3312 45.1728 64.8645 44.6395 64.8645 43.9817C64.8645 43.3238 64.3312 42.7905 63.6733 42.7905C63.0155 42.7905 62.4822 43.3238 62.4822 43.9817C62.4822 44.6395 63.0155 45.1728 63.6733 45.1728Z" fill="url(#paint39_radial_409_2601)"/>
<path id="Vector_43" d="M63.6133 44.9219C64.1827 44.9219 64.6443 44.4603 64.6443 43.8909C64.6443 43.3215 64.1827 42.8599 63.6133 42.8599C63.0439 42.8599 62.5823 43.3215 62.5823 43.8909C62.5823 44.4603 63.0439 44.9219 63.6133 44.9219Z" fill="url(#paint40_radial_409_2601)"/>
<path id="Vector_44" d="M64.1405 43.6706C64.1405 44.0643 63.8201 44.3846 63.4264 44.3846C63.0327 44.3846 62.7124 44.0643 62.7124 43.6706C62.7124 43.2769 63.0327 42.9565 63.4264 42.9565C63.8201 42.9565 64.1405 43.2769 64.1405 43.6706Z" fill="url(#paint41_radial_409_2601)"/>
<path id="Vector_45" d="M63.7097 43.5481C63.7097 43.775 63.5262 43.9585 63.2993 43.9585C63.0724 43.9585 62.8889 43.775 62.8889 43.5481C62.8889 43.3212 63.0724 43.1377 63.2993 43.1377C63.5262 43.1377 63.7097 43.3212 63.7097 43.5481Z" fill="url(#paint42_radial_409_2601)"/>
</g>
<g id="Group_11">
<path id="Vector_46" d="M64.4675 75.1511C64.4675 75.755 63.977 76.2422 63.3765 76.2422C62.7759 76.2422 62.2854 75.7517 62.2854 75.1511C62.2854 74.5505 62.7759 74.0601 63.3765 74.0601C63.977 74.0601 64.4675 74.5505 64.4675 75.1511Z" fill="url(#paint43_radial_409_2601)"/>
<path id="Vector_47" d="M64.2642 75.0649C64.2642 75.5854 63.8405 76.0091 63.32 76.0091C62.7995 76.0091 62.3757 75.5854 62.3757 75.0649C62.3757 74.5443 62.7995 74.1206 63.32 74.1206C63.8405 74.1206 64.2642 74.5443 64.2642 75.0649Z" fill="url(#paint44_radial_409_2601)"/>
<path id="Vector_48" d="M63.1496 75.5218C63.5107 75.5218 63.8035 75.229 63.8035 74.8678C63.8035 74.5067 63.5107 74.2139 63.1496 74.2139C62.7884 74.2139 62.4956 74.5067 62.4956 74.8678C62.4956 75.229 62.7884 75.5218 63.1496 75.5218Z" fill="url(#paint45_radial_409_2601)"/>
<path id="Vector_49" d="M63.0329 75.1282C63.2393 75.1282 63.4066 74.9609 63.4066 74.7546C63.4066 74.5482 63.2393 74.3809 63.0329 74.3809C62.8265 74.3809 62.6592 74.5482 62.6592 74.7546C62.6592 74.9609 62.8265 75.1282 63.0329 75.1282Z" fill="url(#paint46_radial_409_2601)"/>
</g>
<g id="Group_12">
<path id="Vector_50" d="M33.2908 58.0245C34.8977 58.0245 36.2003 56.7219 36.2003 55.115C36.2003 53.5082 34.8977 52.2056 33.2908 52.2056C31.684 52.2056 30.3813 53.5082 30.3813 55.115C30.3813 56.7219 31.684 58.0245 33.2908 58.0245Z" fill="url(#paint47_radial_409_2601)"/>
<path id="Vector_51" d="M33.1408 57.4041C34.5302 57.4041 35.6565 56.2777 35.6565 54.8883C35.6565 53.4989 34.5302 52.3726 33.1408 52.3726C31.7513 52.3726 30.625 53.4989 30.625 54.8883C30.625 56.2777 31.7513 57.4041 33.1408 57.4041Z" fill="url(#paint48_radial_409_2601)"/>
<path id="Vector_52" d="M34.4253 54.3574C34.4253 55.3183 33.6445 56.0991 32.6836 56.0991C31.7226 56.0991 30.9419 55.3183 30.9419 54.3574C30.9419 53.3965 31.7226 52.6157 32.6836 52.6157C33.6445 52.6157 34.4253 53.3965 34.4253 54.3574Z" fill="url(#paint49_radial_409_2601)"/>
<path id="Vector_53" d="M33.3808 54.0537C33.3808 54.6042 32.9337 55.0547 32.3799 55.0547C31.826 55.0547 31.3789 54.6076 31.3789 54.0537C31.3789 53.4998 31.826 53.0527 32.3799 53.0527C32.9337 53.0527 33.3808 53.4998 33.3808 54.0537Z" fill="url(#paint50_radial_409_2601)"/>
</g>
<g id="Group_13">
<path id="Vector_54" d="M51.2885 33.5875C51.2885 34.2147 50.778 34.7252 50.1507 34.7252C49.5234 34.7252 49.0129 34.2147 49.0129 33.5875C49.0129 32.9602 49.5234 32.4497 50.1507 32.4497C50.778 32.4497 51.2885 32.9602 51.2885 33.5875Z" fill="url(#paint51_radial_409_2601)"/>
<path id="Vector_55" d="M51.0748 33.5014C51.0748 34.0452 50.6343 34.4857 50.0905 34.4857C49.5466 34.4857 49.1062 34.0452 49.1062 33.5014C49.1062 32.9575 49.5466 32.5171 50.0905 32.5171C50.6343 32.5171 51.0748 32.9575 51.0748 33.5014Z" fill="url(#paint52_radial_409_2601)"/>
<path id="Vector_56" d="M50.5942 33.2895C50.5942 33.6666 50.2906 33.9702 49.9136 33.9702C49.5365 33.9702 49.2329 33.6666 49.2329 33.2895C49.2329 32.9125 49.5365 32.6089 49.9136 32.6089C50.2906 32.6089 50.5942 32.9125 50.5942 33.2895Z" fill="url(#paint53_radial_409_2601)"/>
<path id="Vector_57" d="M50.187 33.1731C50.187 33.39 50.0135 33.5635 49.7966 33.5635C49.5798 33.5635 49.4062 33.39 49.4062 33.1731C49.4062 32.9562 49.5798 32.7827 49.7966 32.7827C50.0135 32.7827 50.187 32.9562 50.187 33.1731Z" fill="url(#paint54_radial_409_2601)"/>
</g>
<g id="Group_14">
<path id="Vector_58" d="M56.7735 43.8737C56.7735 44.6644 56.1329 45.3084 55.3388 45.3084C54.5447 45.3084 53.9041 44.6678 53.9041 43.8737C53.9041 43.0796 54.5447 42.439 55.3388 42.439C56.1329 42.439 56.7735 43.0796 56.7735 43.8737Z" fill="url(#paint55_radial_409_2601)"/>
<path id="Vector_59" d="M56.5066 43.7602C56.5066 44.4442 55.9527 45.0014 55.2654 45.0014C54.578 45.0014 54.0242 44.4476 54.0242 43.7602C54.0242 43.0729 54.578 42.519 55.2654 42.519C55.9527 42.519 56.5066 43.0729 56.5066 43.7602Z" fill="url(#paint56_radial_409_2601)"/>
<path id="Vector_60" d="M55.8993 43.5001C55.8993 43.9739 55.5156 44.3576 55.0418 44.3576C54.568 44.3576 54.1843 43.9739 54.1843 43.5001C54.1843 43.0263 54.568 42.6426 55.0418 42.6426C55.5156 42.6426 55.8993 43.0263 55.8993 43.5001Z" fill="url(#paint57_radial_409_2601)"/>
<path id="Vector_61" d="M54.8922 43.8441C55.165 43.8441 55.3861 43.623 55.3861 43.3503C55.3861 43.0775 55.165 42.8564 54.8922 42.8564C54.6195 42.8564 54.3984 43.0775 54.3984 43.3503C54.3984 43.623 54.6195 43.8441 54.8922 43.8441Z" fill="url(#paint58_radial_409_2601)"/>
</g>
<g id="Group_15">
<path id="Vector_62" d="M38.3489 63.019C38.3489 63.6963 37.8017 64.2435 37.1244 64.2435C36.4471 64.2435 35.8999 63.6963 35.8999 63.019C35.8999 62.3416 36.4471 61.7944 37.1244 61.7944C37.8017 61.7944 38.3489 62.3416 38.3489 63.019Z" fill="url(#paint59_radial_409_2601)"/>
<path id="Vector_63" d="M38.1222 62.9259C38.1222 63.5098 37.6484 63.9835 37.0645 63.9835C36.4806 63.9835 36.0068 63.5098 36.0068 62.9259C36.0068 62.342 36.4806 61.8682 37.0645 61.8682C37.6484 61.8682 38.1222 62.342 38.1222 62.9259Z" fill="url(#paint60_radial_409_2601)"/>
<path id="Vector_64" d="M36.8705 63.4359C37.2759 63.4359 37.6046 63.1072 37.6046 62.7018C37.6046 62.2964 37.2759 61.9678 36.8705 61.9678C36.4651 61.9678 36.1365 62.2964 36.1365 62.7018C36.1365 63.1072 36.4651 63.4359 36.8705 63.4359Z" fill="url(#paint61_radial_409_2601)"/>
<path id="Vector_65" d="M37.1648 62.5718C37.1648 62.8053 36.9779 62.9922 36.7444 62.9922C36.5108 62.9922 36.324 62.8053 36.324 62.5718C36.324 62.3382 36.5108 62.1514 36.7444 62.1514C36.9779 62.1514 37.1648 62.3382 37.1648 62.5718Z" fill="url(#paint62_radial_409_2601)"/>
</g>
<g id="Group_16">
<path id="Vector_66" d="M64.1104 56.4335C64.1104 57.1108 63.5632 57.658 62.8859 57.658C62.2086 57.658 61.6614 57.1108 61.6614 56.4335C61.6614 55.7562 62.2086 55.209 62.8859 55.209C63.5632 55.209 64.1104 55.7562 64.1104 56.4335Z" fill="url(#paint63_radial_409_2601)"/>
<path id="Vector_67" d="M63.8805 56.336C63.8805 56.9199 63.4067 57.3937 62.8228 57.3937C62.2389 57.3937 61.7651 56.9199 61.7651 56.336C61.7651 55.7521 62.2389 55.2783 62.8228 55.2783C63.4067 55.2783 63.8805 55.7521 63.8805 56.336Z" fill="url(#paint64_radial_409_2601)"/>
<path id="Vector_68" d="M62.6325 56.8475C63.0379 56.8475 63.3665 56.5188 63.3665 56.1134C63.3665 55.708 63.0379 55.3794 62.6325 55.3794C62.2271 55.3794 61.8984 55.708 61.8984 56.1134C61.8984 56.5188 62.2271 56.8475 62.6325 56.8475Z" fill="url(#paint65_radial_409_2601)"/>
<path id="Vector_69" d="M62.9228 55.9863C62.9228 56.2199 62.736 56.4067 62.5024 56.4067C62.2689 56.4067 62.082 56.2199 62.082 55.9863C62.082 55.7528 62.2689 55.5659 62.5024 55.5659C62.736 55.5659 62.9228 55.7528 62.9228 55.9863Z" fill="url(#paint66_radial_409_2601)"/>
</g>
<g id="Group_17">
<path id="Vector_70" d="M46.2166 61.8786C46.2166 62.6026 45.6294 63.1932 44.902 63.1932C44.1746 63.1932 43.5874 62.6059 43.5874 61.8786C43.5874 61.1512 44.1746 60.564 44.902 60.564C45.6294 60.564 46.2166 61.1512 46.2166 61.8786Z" fill="url(#paint67_radial_409_2601)"/>
<path id="Vector_71" d="M44.8353 62.9118C45.4636 62.9118 45.973 62.4024 45.973 61.774C45.973 61.1456 45.4636 60.6362 44.8353 60.6362C44.2069 60.6362 43.6975 61.1456 43.6975 61.774C43.6975 62.4024 44.2069 62.9118 44.8353 62.9118Z" fill="url(#paint68_radial_409_2601)"/>
<path id="Vector_72" d="M45.4159 61.5345C45.4159 61.9683 45.0622 62.3219 44.6285 62.3219C44.1947 62.3219 43.8411 61.9683 43.8411 61.5345C43.8411 61.1007 44.1947 60.7471 44.6285 60.7471C45.0622 60.7471 45.4159 61.1007 45.4159 61.5345Z" fill="url(#paint69_radial_409_2601)"/>
<path id="Vector_73" d="M44.9453 61.3982C44.9453 61.6484 44.7418 61.8486 44.4949 61.8486C44.248 61.8486 44.0444 61.6451 44.0444 61.3982C44.0444 61.1513 44.248 60.9478 44.4949 60.9478C44.7418 60.9478 44.9453 61.1513 44.9453 61.3982Z" fill="url(#paint70_radial_409_2601)"/>
</g>
<g id="Group_18">
<path id="Vector_74" d="M62.8921 68.3937C63.8968 67.3891 63.8968 65.7603 62.8921 64.7557C61.8875 63.7511 60.2587 63.7511 59.2541 64.7557C58.2495 65.7603 58.2495 67.3891 59.2541 68.3937C60.2587 69.3983 61.8875 69.3983 62.8921 68.3937Z" fill="url(#paint71_radial_409_2601)"/>
<path id="Vector_75" d="M60.9376 68.596C62.1667 68.596 63.1631 67.5996 63.1631 66.3705C63.1631 65.1414 62.1667 64.145 60.9376 64.145C59.7085 64.145 58.7122 65.1414 58.7122 66.3705C58.7122 67.5996 59.7085 68.596 60.9376 68.596Z" fill="url(#paint72_radial_409_2601)"/>
<path id="Vector_76" d="M60.5371 67.4438C61.3884 67.4438 62.0786 66.7537 62.0786 65.9023C62.0786 65.051 61.3884 64.3608 60.5371 64.3608C59.6858 64.3608 58.9956 65.051 58.9956 65.9023C58.9956 66.7537 59.6858 67.4438 60.5371 67.4438Z" fill="url(#paint73_radial_409_2601)"/>
<path id="Vector_77" d="M60.267 66.5159C60.7553 66.5159 61.1512 66.1201 61.1512 65.6318C61.1512 65.1434 60.7553 64.7476 60.267 64.7476C59.7787 64.7476 59.3828 65.1434 59.3828 65.6318C59.3828 66.1201 59.7787 66.5159 60.267 66.5159Z" fill="url(#paint74_radial_409_2601)"/>
</g>
<g id="Group_19">
<path id="Vector_78" d="M51.1762 39.5808C52.1348 38.5321 52.0617 36.905 51.0131 35.9464C49.9644 34.9878 48.3373 35.0609 47.3787 36.1095C46.4201 37.1582 46.4932 38.7854 47.5418 39.7439C48.5905 40.7025 50.2177 40.6295 51.1762 39.5808Z" fill="url(#paint75_radial_409_2601)"/>
<path id="Vector_79" d="M51.3682 37.6405C51.3682 38.8717 50.3706 39.866 49.1427 39.866C47.9149 39.866 46.9172 38.8684 46.9172 37.6405C46.9172 36.4127 47.9149 35.415 49.1427 35.415C50.3706 35.415 51.3682 36.4127 51.3682 37.6405Z" fill="url(#paint76_radial_409_2601)"/>
<path id="Vector_80" d="M48.739 38.7163C49.5903 38.7163 50.2805 38.0261 50.2805 37.1748C50.2805 36.3234 49.5903 35.6333 48.739 35.6333C47.8877 35.6333 47.1975 36.3234 47.1975 37.1748C47.1975 38.0261 47.8877 38.7163 48.739 38.7163Z" fill="url(#paint77_radial_409_2601)"/>
<path id="Vector_81" d="M49.3565 36.9037C49.3565 37.3909 48.9595 37.7879 48.4723 37.7879C47.9852 37.7879 47.5881 37.3909 47.5881 36.9037C47.5881 36.4166 47.9852 36.0195 48.4723 36.0195C48.9595 36.0195 49.3565 36.4166 49.3565 36.9037Z" fill="url(#paint78_radial_409_2601)"/>
</g>
<g id="Group_20">
<path id="Vector_82" d="M63.7634 68.8852C64.3992 68.8852 64.9145 68.3699 64.9145 67.7341C64.9145 67.0984 64.3992 66.583 63.7634 66.583C63.1277 66.583 62.6123 67.0984 62.6123 67.7341C62.6123 68.3699 63.1277 68.8852 63.7634 68.8852Z" fill="url(#paint79_radial_409_2601)"/>
<path id="Vector_83" d="M64.7018 67.6446C64.7018 68.1951 64.2547 68.6422 63.7042 68.6422C63.1536 68.6422 62.7065 68.1951 62.7065 67.6446C62.7065 67.0941 63.1536 66.647 63.7042 66.647C64.2547 66.647 64.7018 67.0941 64.7018 67.6446Z" fill="url(#paint80_radial_409_2601)"/>
<path id="Vector_84" d="M64.2141 67.4343C64.2141 67.8147 63.9038 68.125 63.5234 68.125C63.1431 68.125 62.8328 67.8147 62.8328 67.4343C62.8328 67.0539 63.1431 66.7437 63.5234 66.7437C63.9038 66.7437 64.2141 67.0539 64.2141 67.4343Z" fill="url(#paint81_radial_409_2601)"/>
<path id="Vector_85" d="M63.4034 67.7116C63.6227 67.7116 63.8005 67.5338 63.8005 67.3145C63.8005 67.0952 63.6227 66.9175 63.4034 66.9175C63.1841 66.9175 63.0063 67.0952 63.0063 67.3145C63.0063 67.5338 63.1841 67.7116 63.4034 67.7116Z" fill="url(#paint82_radial_409_2601)"/>
</g>
<g id="Group_21">
<path id="Vector_86" d="M71.3144 62.1526C71.3144 62.7899 70.7973 63.3037 70.1633 63.3037C69.5294 63.3037 69.0122 62.7865 69.0122 62.1526C69.0122 61.5186 69.5294 61.0015 70.1633 61.0015C70.7973 61.0015 71.3144 61.5186 71.3144 62.1526Z" fill="url(#paint83_radial_409_2601)"/>
<path id="Vector_87" d="M71.0973 62.0621C71.0973 62.6126 70.6502 63.0597 70.0997 63.0597C69.5491 63.0597 69.1021 62.6126 69.1021 62.0621C69.1021 61.5116 69.5491 61.0645 70.0997 61.0645C70.6502 61.0645 71.0973 61.5116 71.0973 62.0621Z" fill="url(#paint84_radial_409_2601)"/>
<path id="Vector_88" d="M70.6135 61.8518C70.6135 62.2322 70.3032 62.5425 69.9228 62.5425C69.5425 62.5425 69.2322 62.2322 69.2322 61.8518C69.2322 61.4714 69.5425 61.1611 69.9228 61.1611C70.3032 61.1611 70.6135 61.4714 70.6135 61.8518Z" fill="url(#paint85_radial_409_2601)"/>
<path id="Vector_89" d="M69.8028 62.1286C70.0221 62.1286 70.1999 61.9508 70.1999 61.7315C70.1999 61.5122 70.0221 61.3345 69.8028 61.3345C69.5835 61.3345 69.4058 61.5122 69.4058 61.7315C69.4058 61.9508 69.5835 62.1286 69.8028 62.1286Z" fill="url(#paint86_radial_409_2601)"/>
</g>
<g id="Group_22">
<path id="Vector_90" d="M37.5614 71.5604C38.1327 71.5604 38.5958 71.0973 38.5958 70.526C38.5958 69.9548 38.1327 69.4917 37.5614 69.4917C36.9902 69.4917 36.5271 69.9548 36.5271 70.526C36.5271 71.0973 36.9902 71.5604 37.5614 71.5604Z" fill="url(#paint87_radial_409_2601)"/>
<path id="Vector_91" d="M37.5082 71.3406C38.0021 71.3406 38.4024 70.9403 38.4024 70.4464C38.4024 69.9526 38.0021 69.5522 37.5082 69.5522C37.0144 69.5522 36.614 69.9526 36.614 70.4464C36.614 70.9403 37.0144 71.3406 37.5082 71.3406Z" fill="url(#paint88_radial_409_2601)"/>
<path id="Vector_92" d="M37.3447 70.8804C37.6875 70.8804 37.9653 70.6025 37.9653 70.2598C37.9653 69.917 37.6875 69.6392 37.3447 69.6392C37.002 69.6392 36.7241 69.917 36.7241 70.2598C36.7241 70.6025 37.002 70.8804 37.3447 70.8804Z" fill="url(#paint89_radial_409_2601)"/>
<path id="Vector_93" d="M37.5949 70.1495C37.5949 70.3463 37.4347 70.5065 37.2379 70.5065C37.041 70.5065 36.8809 70.3463 36.8809 70.1495C36.8809 69.9526 37.041 69.7925 37.2379 69.7925C37.4347 69.7925 37.5949 69.9526 37.5949 70.1495Z" fill="url(#paint90_radial_409_2601)"/>
</g>
<g id="Group_23">
<path id="Vector_94" d="M34.5621 66.7458C34.5621 67.3163 34.0983 67.7801 33.5277 67.7801C32.9572 67.7801 32.4934 67.3163 32.4934 66.7458C32.4934 66.1752 32.9572 65.7114 33.5277 65.7114C34.0983 65.7114 34.5621 66.1752 34.5621 66.7458Z" fill="url(#paint91_radial_409_2601)"/>
<path id="Vector_95" d="M34.3682 66.6632C34.3682 67.1571 33.9678 67.5574 33.474 67.5574C32.9802 67.5574 32.5798 67.1571 32.5798 66.6632C32.5798 66.1694 32.9802 65.769 33.474 65.769C33.9678 65.769 34.3682 66.1694 34.3682 66.6632Z" fill="url(#paint92_radial_409_2601)"/>
<path id="Vector_96" d="M33.314 67.0967C33.6567 67.0967 33.9346 66.8188 33.9346 66.4761C33.9346 66.1333 33.6567 65.8555 33.314 65.8555C32.9712 65.8555 32.6934 66.1333 32.6934 66.4761C32.6934 66.8188 32.9712 67.0967 33.314 67.0967Z" fill="url(#paint93_radial_409_2601)"/>
<path id="Vector_97" d="M33.5609 66.3658C33.5609 66.5627 33.4008 66.7228 33.2039 66.7228C33.0071 66.7228 32.8469 66.5627 32.8469 66.3658C32.8469 66.1689 33.0071 66.0088 33.2039 66.0088C33.4008 66.0088 33.5609 66.1689 33.5609 66.3658Z" fill="url(#paint94_radial_409_2601)"/>
</g>
<g id="Group_24">
<path id="Vector_98" d="M40.8614 49.3263C40.8614 49.8969 40.3976 50.3607 39.8271 50.3607C39.2565 50.3607 38.7927 49.8969 38.7927 49.3263C38.7927 48.7558 39.2565 48.292 39.8271 48.292C40.3976 48.292 40.8614 48.7558 40.8614 49.3263Z" fill="url(#paint95_radial_409_2601)"/>
<path id="Vector_99" d="M40.6678 49.2458C40.6678 49.7396 40.2674 50.14 39.7736 50.14C39.2798 50.14 38.8794 49.7396 38.8794 49.2458C38.8794 48.752 39.2798 48.3516 39.7736 48.3516C40.2674 48.3516 40.6678 48.752 40.6678 49.2458Z" fill="url(#paint96_radial_409_2601)"/>
<path id="Vector_100" d="M39.6103 49.6767C39.9531 49.6767 40.2309 49.3989 40.2309 49.0561C40.2309 48.7134 39.9531 48.4355 39.6103 48.4355C39.2676 48.4355 38.9897 48.7134 38.9897 49.0561C38.9897 49.3989 39.2676 49.6767 39.6103 49.6767Z" fill="url(#paint97_radial_409_2601)"/>
<path id="Vector_101" d="M39.5035 49.3068C39.7007 49.3068 39.8605 49.147 39.8605 48.9498C39.8605 48.7526 39.7007 48.5928 39.5035 48.5928C39.3063 48.5928 39.1465 48.7526 39.1465 48.9498C39.1465 49.147 39.3063 49.3068 39.5035 49.3068Z" fill="url(#paint98_radial_409_2601)"/>
</g>
<g id="Group_25">
<path id="Vector_102" d="M56.9772 30.6546C57.5485 30.6546 58.0115 30.1915 58.0115 29.6203C58.0115 29.049 57.5485 28.5859 56.9772 28.5859C56.406 28.5859 55.9429 29.049 55.9429 29.6203C55.9429 30.1915 56.406 30.6546 56.9772 30.6546Z" fill="url(#paint99_radial_409_2601)"/>
<path id="Vector_103" d="M57.8182 29.5412C57.8182 30.035 57.4178 30.4354 56.924 30.4354C56.4302 30.4354 56.0298 30.035 56.0298 29.5412C56.0298 29.0474 56.4302 28.647 56.924 28.647C57.4178 28.647 57.8182 29.0474 57.8182 29.5412Z" fill="url(#paint100_radial_409_2601)"/>
<path id="Vector_104" d="M56.7637 29.9707C57.1064 29.9707 57.3843 29.6928 57.3843 29.3501C57.3843 29.0073 57.1064 28.7295 56.7637 28.7295C56.4209 28.7295 56.1431 29.0073 56.1431 29.3501C56.1431 29.6928 56.4209 29.9707 56.7637 29.9707Z" fill="url(#paint101_radial_409_2601)"/>
<path id="Vector_105" d="M57.0107 29.2437C57.0107 29.4406 56.8505 29.6007 56.6536 29.6007C56.4568 29.6007 56.2966 29.4406 56.2966 29.2437C56.2966 29.0469 56.4568 28.8867 56.6536 28.8867C56.8505 28.8867 57.0107 29.0469 57.0107 29.2437Z" fill="url(#paint102_radial_409_2601)"/>
</g>
<g id="Group_26">
<path id="Vector_106" d="M60.0931 75.7116C60.0931 76.2821 59.6293 76.7459 59.0587 76.7459C58.4882 76.7459 58.0244 76.2821 58.0244 75.7116C58.0244 75.141 58.4882 74.6772 59.0587 74.6772C59.6293 74.6772 60.0931 75.141 60.0931 75.7116Z" fill="url(#paint103_radial_409_2601)"/>
<path id="Vector_107" d="M59.8995 75.631C59.8995 76.1248 59.4991 76.5252 59.0053 76.5252C58.5115 76.5252 58.1111 76.1248 58.1111 75.631C58.1111 75.1372 58.5115 74.7368 59.0053 74.7368C59.4991 74.7368 59.8995 75.1372 59.8995 75.631Z" fill="url(#paint104_radial_409_2601)"/>
<path id="Vector_108" d="M58.842 76.0605C59.1848 76.0605 59.4626 75.7827 59.4626 75.4399C59.4626 75.0972 59.1848 74.8193 58.842 74.8193C58.4993 74.8193 58.2214 75.0972 58.2214 75.4399C58.2214 75.7827 58.4993 76.0605 58.842 76.0605Z" fill="url(#paint105_radial_409_2601)"/>
<path id="Vector_109" d="M58.7352 75.6906C58.9324 75.6906 59.0922 75.5307 59.0922 75.3336C59.0922 75.1364 58.9324 74.9766 58.7352 74.9766C58.538 74.9766 58.3782 75.1364 58.3782 75.3336C58.3782 75.5307 58.538 75.6906 58.7352 75.6906Z" fill="url(#paint106_radial_409_2601)"/>
</g>
<g id="Group_27">
<path id="Vector_110" d="M36.2802 56.6936C36.2802 57.5277 35.6029 58.2051 34.7688 58.2051C33.9346 58.2051 33.2573 57.5277 33.2573 56.6936C33.2573 55.8595 33.9346 55.1821 34.7688 55.1821C35.6029 55.1821 36.2802 55.8595 36.2802 56.6936Z" fill="url(#paint107_radial_409_2601)"/>
<path id="Vector_111" d="M34.6893 57.8839C35.4116 57.8839 35.9972 57.2984 35.9972 56.576C35.9972 55.8536 35.4116 55.2681 34.6893 55.2681C33.9669 55.2681 33.3813 55.8536 33.3813 56.576C33.3813 57.2984 33.9669 57.8839 34.6893 57.8839Z" fill="url(#paint108_radial_409_2601)"/>
<path id="Vector_112" d="M35.3597 56.3002C35.3597 56.8007 34.956 57.2044 34.4555 57.2044C33.955 57.2044 33.5513 56.8007 33.5513 56.3002C33.5513 55.7997 33.955 55.396 34.4555 55.396C34.956 55.396 35.3597 55.7997 35.3597 56.3002Z" fill="url(#paint109_radial_409_2601)"/>
<path id="Vector_113" d="M34.8157 56.1435C34.8157 56.4305 34.5821 56.6641 34.2952 56.6641C34.0082 56.6641 33.7747 56.4305 33.7747 56.1435C33.7747 55.8566 34.0082 55.623 34.2952 55.623C34.5821 55.623 34.8157 55.8566 34.8157 56.1435Z" fill="url(#paint110_radial_409_2601)"/>
</g>
<g id="Group_28">
<path id="Vector_114" d="M51.5252 47.8307C51.5252 48.4013 51.0614 48.8651 50.4909 48.8651C49.9203 48.8651 49.4565 48.4013 49.4565 47.8307C49.4565 47.2602 49.9203 46.7964 50.4909 46.7964C51.0614 46.7964 51.5252 47.2602 51.5252 47.8307Z" fill="url(#paint111_radial_409_2601)"/>
<path id="Vector_115" d="M51.3314 47.7502C51.3314 48.244 50.931 48.6444 50.4372 48.6444C49.9434 48.6444 49.543 48.244 49.543 47.7502C49.543 47.2563 49.9434 46.856 50.4372 46.856C50.931 46.856 51.3314 47.2563 51.3314 47.7502Z" fill="url(#paint112_radial_409_2601)"/>
<path id="Vector_116" d="M50.8948 47.5601C50.8948 47.9037 50.6178 48.1807 50.2742 48.1807C49.9305 48.1807 49.6536 47.9037 49.6536 47.5601C49.6536 47.2164 49.9305 46.9395 50.2742 46.9395C50.6178 46.9395 50.8948 47.2164 50.8948 47.5601Z" fill="url(#paint113_radial_409_2601)"/>
<path id="Vector_117" d="M50.5212 47.4527C50.5212 47.6496 50.361 47.8097 50.1641 47.8097C49.9673 47.8097 49.8071 47.6496 49.8071 47.4527C49.8071 47.2559 49.9673 47.0957 50.1641 47.0957C50.361 47.0957 50.5212 47.2559 50.5212 47.4527Z" fill="url(#paint114_radial_409_2601)"/>
</g>
<g id="Group_29">
<path id="Vector_118" d="M54.1474 23.1477C55.9182 23.1477 57.3538 21.7122 57.3538 19.9413C57.3538 18.1704 55.9182 16.7349 54.1474 16.7349C52.3765 16.7349 50.9409 18.1704 50.9409 19.9413C50.9409 21.7122 52.3765 23.1477 54.1474 23.1477Z" fill="url(#paint115_radial_409_2601)"/>
<path id="Vector_119" d="M54.9788 22.274C56.4067 21.7207 57.1157 20.1147 56.5624 18.6868C56.0092 17.259 54.4032 16.55 52.9753 17.1032C51.5474 17.6565 50.8384 19.2625 51.3917 20.6904C51.9449 22.1182 53.5509 22.8272 54.9788 22.274Z" fill="url(#paint116_radial_409_2601)"/>
<path id="Vector_120" d="M55.3988 19.1036C55.3988 20.1646 54.538 21.0221 53.4803 21.0221C52.4226 21.0221 51.5618 20.1613 51.5618 19.1036C51.5618 18.0459 52.4226 17.1851 53.4803 17.1851C54.538 17.1851 55.3988 18.0459 55.3988 19.1036Z" fill="url(#paint117_radial_409_2601)"/>
<path id="Vector_121" d="M54.2446 18.769C54.2446 19.3763 53.7508 19.8701 53.1435 19.8701C52.5363 19.8701 52.0425 19.3763 52.0425 18.769C52.0425 18.1618 52.5363 17.668 53.1435 17.668C53.7508 17.668 54.2446 18.1618 54.2446 18.769Z" fill="url(#paint118_radial_409_2601)"/>
</g>
<g id="Group_30">
<path id="Vector_122" d="M67.1742 41.5953C67.5148 40.1477 66.6174 38.6981 65.1698 38.3575C63.7223 38.0169 62.2727 38.9143 61.9321 40.3619C61.5915 41.8094 62.4889 43.259 63.9365 43.5996C65.384 43.9402 66.8336 43.0428 67.1742 41.5953Z" fill="url(#paint119_radial_409_2601)"/>
<path id="Vector_123" d="M64.4109 43.0944C65.6972 43.0944 66.7399 42.0517 66.7399 40.7654C66.7399 39.4792 65.6972 38.4365 64.4109 38.4365C63.1247 38.4365 62.082 39.4792 62.082 40.7654C62.082 42.0517 63.1247 43.0944 64.4109 43.0944Z" fill="url(#paint120_radial_409_2601)"/>
<path id="Vector_124" d="M65.6015 40.2746C65.6015 41.1655 64.8808 41.8862 63.99 41.8862C63.0991 41.8862 62.3784 41.1655 62.3784 40.2746C62.3784 39.3838 63.0991 38.6631 63.99 38.6631C64.8808 38.6631 65.6015 39.3838 65.6015 40.2746Z" fill="url(#paint121_radial_409_2601)"/>
<path id="Vector_125" d="M64.6346 39.9911C64.6346 40.5016 64.2209 40.9154 63.7104 40.9154C63.1999 40.9154 62.7861 40.5016 62.7861 39.9911C62.7861 39.4806 63.1999 39.0669 63.7104 39.0669C64.2209 39.0669 64.6346 39.4806 64.6346 39.9911Z" fill="url(#paint122_radial_409_2601)"/>
</g>
<g id="Group_31">
<path id="Vector_126" d="M59.6898 73.3229C59.6898 73.9268 59.1993 74.4173 58.5954 74.4173C57.9915 74.4173 57.501 73.9268 57.501 73.3229C57.501 72.719 57.9915 72.2285 58.5954 72.2285C59.1993 72.2285 59.6898 72.719 59.6898 73.3229Z" fill="url(#paint123_radial_409_2601)"/>
<path id="Vector_127" d="M59.486 73.2362C59.486 73.76 59.0622 74.1837 58.5384 74.1837C58.0146 74.1837 57.5908 73.76 57.5908 73.2362C57.5908 72.7123 58.0146 72.2886 58.5384 72.2886C59.0622 72.2886 59.486 72.7123 59.486 73.2362Z" fill="url(#paint124_radial_409_2601)"/>
<path id="Vector_128" d="M58.3651 73.6964C58.7281 73.6964 59.0224 73.4022 59.0224 73.0391C59.0224 72.6761 58.7281 72.3818 58.3651 72.3818C58.002 72.3818 57.7078 72.6761 57.7078 73.0391C57.7078 73.4022 58.002 73.6964 58.3651 73.6964Z" fill="url(#paint125_radial_409_2601)"/>
<path id="Vector_129" d="M58.6286 72.9224C58.6286 73.1293 58.4584 73.2995 58.2515 73.2995C58.0447 73.2995 57.8745 73.1293 57.8745 72.9224C57.8745 72.7156 58.0447 72.5454 58.2515 72.5454C58.4584 72.5454 58.6286 72.7156 58.6286 72.9224Z" fill="url(#paint126_radial_409_2601)"/>
</g>
<g id="Group_32">
<path id="Vector_130" d="M61.9122 23.5187C61.9122 24.0559 61.4751 24.493 60.9379 24.493C60.4007 24.493 59.9636 24.0559 59.9636 23.5187C59.9636 22.9815 60.4007 22.5444 60.9379 22.5444C61.4751 22.5444 61.9122 22.9815 61.9122 23.5187Z" fill="url(#paint127_radial_409_2601)"/>
<path id="Vector_131" d="M60.8879 24.286C61.3541 24.286 61.732 23.908 61.732 23.4418C61.732 22.9756 61.3541 22.5977 60.8879 22.5977C60.4216 22.5977 60.0437 22.9756 60.0437 23.4418C60.0437 23.908 60.4216 24.286 60.8879 24.286Z" fill="url(#paint128_radial_409_2601)"/>
<path id="Vector_132" d="M61.3182 23.2651C61.3182 23.5887 61.0579 23.8489 60.7343 23.8489C60.4106 23.8489 60.1504 23.5887 60.1504 23.2651C60.1504 22.9414 60.4106 22.6812 60.7343 22.6812C61.0579 22.6812 61.3182 22.9414 61.3182 23.2651Z" fill="url(#paint129_radial_409_2601)"/>
<path id="Vector_133" d="M60.9676 23.1623C60.9676 23.3458 60.8175 23.4959 60.6339 23.4959C60.4504 23.4959 60.3003 23.3458 60.3003 23.1623C60.3003 22.9788 60.4504 22.8286 60.6339 22.8286C60.8175 22.8286 60.9676 22.9788 60.9676 23.1623Z" fill="url(#paint130_radial_409_2601)"/>
</g>
<g id="Group_33">
<path id="Vector_134" d="M48.6822 28.7296C48.6822 29.3336 48.1917 29.824 47.5878 29.824C46.9839 29.824 46.4934 29.3336 46.4934 28.7296C46.4934 28.1257 46.9839 27.6353 47.5878 27.6353C48.1917 27.6353 48.6822 28.1257 48.6822 28.7296Z" fill="url(#paint131_radial_409_2601)"/>
<path id="Vector_135" d="M48.4789 28.6458C48.4789 29.1697 48.0552 29.5934 47.5313 29.5934C47.0075 29.5934 46.5837 29.1697 46.5837 28.6458C46.5837 28.122 47.0075 27.6982 47.5313 27.6982C48.0552 27.6982 48.4789 28.122 48.4789 28.6458Z" fill="url(#paint132_radial_409_2601)"/>
<path id="Vector_136" d="M47.3577 29.1037C47.7208 29.1037 48.015 28.8094 48.015 28.4464C48.015 28.0833 47.7208 27.7891 47.3577 27.7891C46.9947 27.7891 46.7004 28.0833 46.7004 28.4464C46.7004 28.8094 46.9947 29.1037 47.3577 29.1037Z" fill="url(#paint133_radial_409_2601)"/>
<path id="Vector_137" d="M47.6213 28.3336C47.6213 28.5404 47.4511 28.7106 47.2442 28.7106C47.0374 28.7106 46.8672 28.5404 46.8672 28.3336C46.8672 28.1267 47.0374 27.9565 47.2442 27.9565C47.4511 27.9565 47.6213 28.1267 47.6213 28.3336Z" fill="url(#paint134_radial_409_2601)"/>
</g>
</g>
<path id="Ellipse 338" d="M76.5 7.60009C83.732 12.1201 89.6877 18.4148 93.8007 25.8858C97.9138 33.3567 100.048 41.7556 99.9992 50.2838C99.9508 58.812 97.7218 67.1861 93.5242 74.6099C89.3266 82.0337 83.2998 88.2604 76.0169 92.698L69.235 81.5677C74.6194 78.2869 79.0751 73.6833 82.1785 68.1947C85.282 62.7061 86.9299 56.5149 86.9657 50.2098C87.0015 43.9047 85.4239 37.6952 82.383 32.1717C79.3421 26.6483 74.9389 21.9944 69.5921 18.6527L76.5 7.60009Z" fill="#C274F6"/>
</g>
<defs>
<linearGradient id="paint0_linear_409_2601" x1="61.9964" y1="58.3466" x2="37.8635" y2="22.8302" gradientUnits="userSpaceOnUse">
<stop stop-color="#E8FFFA"/>
<stop offset="1" stop-color="#86E7FF"/>
</linearGradient>
<linearGradient id="paint1_linear_409_2601" x1="42.5687" y1="34.0618" x2="63.8178" y2="62.4445" gradientUnits="userSpaceOnUse">
<stop stop-color="white"/>
<stop offset="0.440836" stop-color="#90FFF4"/>
<stop offset="1" stop-color="#8FE9FF"/>
</linearGradient>
<linearGradient id="paint2_linear_409_2601" x1="37.8986" y1="31.5624" x2="64.818" y2="31.5624" gradientUnits="userSpaceOnUse">
<stop stop-color="#E6C7FF"/>
<stop offset="1" stop-color="#F5E6FF"/>
</linearGradient>
<radialGradient id="paint3_radial_409_2601" cx="0" cy="0" r="1" gradientUnits="userSpaceOnUse" gradientTransform="translate(52.4262 63.1896) scale(1.19449)">
<stop stop-color="#47ECFF"/>
<stop offset="0.26" stop-color="#49ECFF"/>
<stop offset="0.42" stop-color="#51EDFF"/>
<stop offset="0.54" stop-color="#5FEEFF"/>
<stop offset="0.65" stop-color="#73F0FF"/>
<stop offset="0.74" stop-color="#8DF3FF"/>
<stop offset="0.83" stop-color="#ACF6FF"/>
<stop offset="0.92" stop-color="#D1FAFF"/>
<stop offset="1" stop-color="white"/>
</radialGradient>
<radialGradient id="paint4_radial_409_2601" cx="0" cy="0" r="1" gradientUnits="userSpaceOnUse" gradientTransform="translate(52.3627 63.0954) scale(1.03433 1.03433)">
<stop offset="0.08" stop-color="#47FFF9"/>
<stop offset="1" stop-color="#48DDFF"/>
</radialGradient>
<radialGradient id="paint5_radial_409_2601" cx="0" cy="0" r="1" gradientUnits="userSpaceOnUse" gradientTransform="translate(52.1756 62.8795) scale(0.717361)">
<stop offset="0.25" stop-color="#AAFFFF"/>
<stop offset="1" stop-color="#53FCFF"/>
</radialGradient>
<radialGradient id="paint6_radial_409_2601" cx="0" cy="0" r="1" gradientUnits="userSpaceOnUse" gradientTransform="translate(52.0525 62.7527) scale(0.410397 0.410396)">
<stop offset="0.3" stop-color="white"/>
<stop offset="1" stop-color="#B6FFFF"/>
</radialGradient>
<radialGradient id="paint7_radial_409_2601" cx="0" cy="0" r="1" gradientUnits="userSpaceOnUse" gradientTransform="translate(49.9669 70.3859) scale(1.5148)">
<stop stop-color="#47ECFF"/>
<stop offset="0.26" stop-color="#49ECFF"/>
<stop offset="0.42" stop-color="#51EDFF"/>
<stop offset="0.54" stop-color="#5FEEFF"/>
<stop offset="0.65" stop-color="#73F0FF"/>
<stop offset="0.74" stop-color="#8DF3FF"/>
<stop offset="0.83" stop-color="#ACF6FF"/>
<stop offset="0.92" stop-color="#D1FAFF"/>
<stop offset="1" stop-color="white"/>
</radialGradient>
<radialGradient id="paint8_radial_409_2601" cx="0" cy="0" r="1" gradientUnits="userSpaceOnUse" gradientTransform="translate(49.8903 70.2659) scale(1.31127)">
<stop offset="0.08" stop-color="#47FFF9"/>
<stop offset="1" stop-color="#48DDFF"/>
</radialGradient>
<radialGradient id="paint9_radial_409_2601" cx="0" cy="0" r="1" gradientUnits="userSpaceOnUse" gradientTransform="translate(49.6536 69.9925) scale(0.907545)">
<stop offset="0.25" stop-color="#AAFFFF"/>
<stop offset="1" stop-color="#53FCFF"/>
</radialGradient>
<radialGradient id="paint10_radial_409_2601" cx="0" cy="0" r="1" gradientUnits="userSpaceOnUse" gradientTransform="translate(49.4934 69.8354) scale(0.520503 0.520505)">
<stop offset="0.3" stop-color="white"/>
<stop offset="1" stop-color="#B6FFFF"/>
</radialGradient>
<radialGradient id="paint11_radial_409_2601" cx="0" cy="0" r="1" gradientUnits="userSpaceOnUse" gradientTransform="translate(39.033 67.0302) scale(1.2045)">
<stop stop-color="#47ECFF"/>
<stop offset="0.26" stop-color="#49ECFF"/>
<stop offset="0.42" stop-color="#51EDFF"/>
<stop offset="0.54" stop-color="#5FEEFF"/>
<stop offset="0.65" stop-color="#73F0FF"/>
<stop offset="0.74" stop-color="#8DF3FF"/>
<stop offset="0.83" stop-color="#ACF6FF"/>
<stop offset="0.92" stop-color="#D1FAFF"/>
<stop offset="1" stop-color="white"/>
</radialGradient>
<radialGradient id="paint12_radial_409_2601" cx="0" cy="0" r="1" gradientUnits="userSpaceOnUse" gradientTransform="translate(38.97 66.9375) scale(1.04101)">
<stop offset="0.08" stop-color="#47FFF9"/>
<stop offset="1" stop-color="#48DDFF"/>
</radialGradient>
<radialGradient id="paint13_radial_409_2601" cx="0" cy="0" r="1" gradientUnits="userSpaceOnUse" gradientTransform="translate(38.783 66.7168) scale(0.720697 0.720699)">
<stop offset="0.25" stop-color="#AAFFFF"/>
<stop offset="1" stop-color="#53FCFF"/>
</radialGradient>
<radialGradient id="paint14_radial_409_2601" cx="0" cy="0" r="1" gradientUnits="userSpaceOnUse" gradientTransform="translate(38.6562 66.59) scale(0.413734 0.413736)">
<stop offset="0.3" stop-color="white"/>
<stop offset="1" stop-color="#B6FFFF"/>
</radialGradient>
<radialGradient id="paint15_radial_409_2601" cx="0" cy="0" r="1" gradientUnits="userSpaceOnUse" gradientTransform="translate(44.248 71.7477) scale(1.69497)">
<stop stop-color="#47ECFF"/>
<stop offset="0.26" stop-color="#49ECFF"/>
<stop offset="0.42" stop-color="#51EDFF"/>
<stop offset="0.54" stop-color="#5FEEFF"/>
<stop offset="0.65" stop-color="#73F0FF"/>
<stop offset="0.74" stop-color="#8DF3FF"/>
<stop offset="0.83" stop-color="#ACF6FF"/>
<stop offset="0.92" stop-color="#D1FAFF"/>
<stop offset="1" stop-color="white"/>
</radialGradient>
<radialGradient id="paint16_radial_409_2601" cx="0" cy="0" r="1" gradientUnits="userSpaceOnUse" gradientTransform="translate(44.158 71.6131) scale(1.46809)">
<stop offset="0.08" stop-color="#47FFF9"/>
<stop offset="1" stop-color="#48DDFF"/>
</radialGradient>
<radialGradient id="paint17_radial_409_2601" cx="0" cy="0" r="1" gradientUnits="userSpaceOnUse" gradientTransform="translate(43.8947 71.3034) scale(1.01432)">
<stop offset="0.25" stop-color="#AAFFFF"/>
<stop offset="1" stop-color="#53FCFF"/>
</radialGradient>
<radialGradient id="paint18_radial_409_2601" cx="0" cy="0" r="1" gradientUnits="userSpaceOnUse" gradientTransform="translate(43.7177 71.1259) scale(0.583898)">
<stop offset="0.3" stop-color="white"/>
<stop offset="1" stop-color="#B6FFFF"/>
</radialGradient>
<radialGradient id="paint19_radial_409_2601" cx="0" cy="0" r="1" gradientUnits="userSpaceOnUse" gradientTransform="translate(31.9694 48.3786) scale(1.69497)">
<stop stop-color="#47ECFF"/>
<stop offset="0.26" stop-color="#49ECFF"/>
<stop offset="0.42" stop-color="#51EDFF"/>
<stop offset="0.54" stop-color="#5FEEFF"/>
<stop offset="0.65" stop-color="#73F0FF"/>
<stop offset="0.74" stop-color="#8DF3FF"/>
<stop offset="0.83" stop-color="#ACF6FF"/>
<stop offset="0.92" stop-color="#D1FAFF"/>
<stop offset="1" stop-color="white"/>
</radialGradient>
<radialGradient id="paint20_radial_409_2601" cx="0" cy="0" r="1" gradientUnits="userSpaceOnUse" gradientTransform="translate(31.8831 48.2449) scale(1.46809)">
<stop offset="0.08" stop-color="#47FFF9"/>
<stop offset="1" stop-color="#48DDFF"/>
</radialGradient>
<radialGradient id="paint21_radial_409_2601" cx="0" cy="0" r="1" gradientUnits="userSpaceOnUse" gradientTransform="translate(31.6159 47.9386) scale(1.01431)">
<stop offset="0.25" stop-color="#AAFFFF"/>
<stop offset="1" stop-color="#53FCFF"/>
</radialGradient>
<radialGradient id="paint22_radial_409_2601" cx="0" cy="0" r="1" gradientUnits="userSpaceOnUse" gradientTransform="translate(31.4389 47.7611) scale(0.583898)">
<stop offset="0.3" stop-color="white"/>
<stop offset="1" stop-color="#B6FFFF"/>
</radialGradient>
<radialGradient id="paint23_radial_409_2601" cx="0" cy="0" r="1" gradientUnits="userSpaceOnUse" gradientTransform="translate(68.071 50.5011) scale(1.69497 1.69497)">
<stop stop-color="#47ECFF"/>
<stop offset="0.26" stop-color="#49ECFF"/>
<stop offset="0.42" stop-color="#51EDFF"/>
<stop offset="0.54" stop-color="#5FEEFF"/>
<stop offset="0.65" stop-color="#73F0FF"/>
<stop offset="0.74" stop-color="#8DF3FF"/>
<stop offset="0.83" stop-color="#ACF6FF"/>
<stop offset="0.92" stop-color="#D1FAFF"/>
<stop offset="1" stop-color="white"/>
</radialGradient>
<radialGradient id="paint24_radial_409_2601" cx="0" cy="0" r="1" gradientUnits="userSpaceOnUse" gradientTransform="translate(67.981 50.3704) scale(1.46809 1.46809)">
<stop offset="0.08" stop-color="#47FFF9"/>
<stop offset="1" stop-color="#48DDFF"/>
</radialGradient>
<radialGradient id="paint25_radial_409_2601" cx="0" cy="0" r="1" gradientUnits="userSpaceOnUse" gradientTransform="translate(67.7172 50.0602) scale(1.01432)">
<stop offset="0.25" stop-color="#AAFFFF"/>
<stop offset="1" stop-color="#53FCFF"/>
</radialGradient>
<radialGradient id="paint26_radial_409_2601" cx="0" cy="0" r="1" gradientUnits="userSpaceOnUse" gradientTransform="translate(67.5407 49.8837) scale(0.583898)">
<stop offset="0.3" stop-color="white"/>
<stop offset="1" stop-color="#B6FFFF"/>
</radialGradient>
<radialGradient id="paint27_radial_409_2601" cx="0" cy="0" r="1" gradientUnits="userSpaceOnUse" gradientTransform="translate(55.7291 56.7567) scale(1.24787 1.24787)">
<stop stop-color="#47ECFF"/>
<stop offset="0.26" stop-color="#49ECFF"/>
<stop offset="0.42" stop-color="#51EDFF"/>
<stop offset="0.54" stop-color="#5FEEFF"/>
<stop offset="0.65" stop-color="#73F0FF"/>
<stop offset="0.74" stop-color="#8DF3FF"/>
<stop offset="0.83" stop-color="#ACF6FF"/>
<stop offset="0.92" stop-color="#D1FAFF"/>
<stop offset="1" stop-color="white"/>
</radialGradient>
<radialGradient id="paint28_radial_409_2601" cx="0" cy="0" r="1" gradientUnits="userSpaceOnUse" gradientTransform="translate(55.6657 56.6592) scale(1.08105)">
<stop offset="0.08" stop-color="#47FFF9"/>
<stop offset="1" stop-color="#48DDFF"/>
</radialGradient>
<radialGradient id="paint29_radial_409_2601" cx="0" cy="0" r="1" gradientUnits="userSpaceOnUse" gradientTransform="translate(55.4691 56.4329) scale(0.74739)">
<stop offset="0.25" stop-color="#AAFFFF"/>
<stop offset="1" stop-color="#53FCFF"/>
</radialGradient>
<radialGradient id="paint30_radial_409_2601" cx="0" cy="0" r="1" gradientUnits="userSpaceOnUse" gradientTransform="translate(55.3389 56.303) scale(0.430417 0.430416)">
<stop offset="0.3" stop-color="white"/>
<stop offset="1" stop-color="#B6FFFF"/>
</radialGradient>
<radialGradient id="paint31_radial_409_2601" cx="0" cy="0" r="1" gradientUnits="userSpaceOnUse" gradientTransform="translate(48.4385 56.1424) scale(1.24787)">
<stop stop-color="#47ECFF"/>
<stop offset="0.26" stop-color="#49ECFF"/>
<stop offset="0.42" stop-color="#51EDFF"/>
<stop offset="0.54" stop-color="#5FEEFF"/>
<stop offset="0.65" stop-color="#73F0FF"/>
<stop offset="0.74" stop-color="#8DF3FF"/>
<stop offset="0.83" stop-color="#ACF6FF"/>
<stop offset="0.92" stop-color="#D1FAFF"/>
<stop offset="1" stop-color="white"/>
</radialGradient>
<radialGradient id="paint32_radial_409_2601" cx="0" cy="0" r="1" gradientUnits="userSpaceOnUse" gradientTransform="translate(48.3721 56.0454) scale(1.08105)">
<stop offset="0.08" stop-color="#47FFF9"/>
<stop offset="1" stop-color="#48DDFF"/>
</radialGradient>
<radialGradient id="paint33_radial_409_2601" cx="0" cy="0" r="1" gradientUnits="userSpaceOnUse" gradientTransform="translate(48.1785 55.8192) scale(0.74739 0.747389)">
<stop offset="0.25" stop-color="#AAFFFF"/>
<stop offset="1" stop-color="#53FCFF"/>
</radialGradient>
<radialGradient id="paint34_radial_409_2601" cx="0" cy="0" r="1" gradientUnits="userSpaceOnUse" gradientTransform="translate(48.0483 55.6887) scale(0.430417)">
<stop offset="0.3" stop-color="white"/>
<stop offset="1" stop-color="#B6FFFF"/>
</radialGradient>
<radialGradient id="paint35_radial_409_2601" cx="0" cy="0" r="1" gradientUnits="userSpaceOnUse" gradientTransform="translate(57.174 80.1329) scale(1.53816)">
<stop stop-color="#47ECFF"/>
<stop offset="0.26" stop-color="#49ECFF"/>
<stop offset="0.42" stop-color="#51EDFF"/>
<stop offset="0.54" stop-color="#5FEEFF"/>
<stop offset="0.65" stop-color="#73F0FF"/>
<stop offset="0.74" stop-color="#8DF3FF"/>
<stop offset="0.83" stop-color="#ACF6FF"/>
<stop offset="0.92" stop-color="#D1FAFF"/>
<stop offset="1" stop-color="white"/>
</radialGradient>
<radialGradient id="paint36_radial_409_2601" cx="0" cy="0" r="1" gradientUnits="userSpaceOnUse" gradientTransform="translate(57.0936 80.0129) scale(1.33129)">
<stop offset="0.08" stop-color="#47FFF9"/>
<stop offset="1" stop-color="#48DDFF"/>
</radialGradient>
<radialGradient id="paint37_radial_409_2601" cx="0" cy="0" r="1" gradientUnits="userSpaceOnUse" gradientTransform="translate(56.8531 79.7329) scale(0.92089 0.920892)">
<stop offset="0.25" stop-color="#AAFFFF"/>
<stop offset="1" stop-color="#53FCFF"/>
</radialGradient>
<radialGradient id="paint38_radial_409_2601" cx="0" cy="0" r="1" gradientUnits="userSpaceOnUse" gradientTransform="translate(56.6934 79.5725) scale(0.530513 0.530512)">
<stop offset="0.3" stop-color="white"/>
<stop offset="1" stop-color="#B6FFFF"/>
</radialGradient>
<radialGradient id="paint39_radial_409_2601" cx="0" cy="0" r="1" gradientUnits="userSpaceOnUse" gradientTransform="translate(63.6733 43.9817) scale(1.19115 1.19115)">
<stop stop-color="#47ECFF"/>
<stop offset="0.26" stop-color="#49ECFF"/>
<stop offset="0.42" stop-color="#51EDFF"/>
<stop offset="0.54" stop-color="#5FEEFF"/>
<stop offset="0.65" stop-color="#73F0FF"/>
<stop offset="0.74" stop-color="#8DF3FF"/>
<stop offset="0.83" stop-color="#ACF6FF"/>
<stop offset="0.92" stop-color="#D1FAFF"/>
<stop offset="1" stop-color="white"/>
</radialGradient>
<radialGradient id="paint40_radial_409_2601" cx="0" cy="0" r="1" gradientUnits="userSpaceOnUse" gradientTransform="translate(63.6133 43.8909) scale(1.031)">
<stop offset="0.08" stop-color="#47FFF9"/>
<stop offset="1" stop-color="#48DDFF"/>
</radialGradient>
<radialGradient id="paint41_radial_409_2601" cx="0" cy="0" r="1" gradientUnits="userSpaceOnUse" gradientTransform="translate(63.4264 43.6706) scale(0.714024 0.714025)">
<stop offset="0.25" stop-color="#AAFFFF"/>
<stop offset="1" stop-color="#53FCFF"/>
</radialGradient>
<radialGradient id="paint42_radial_409_2601" cx="0" cy="0" r="1" gradientUnits="userSpaceOnUse" gradientTransform="translate(63.3026 43.5481) scale(0.410397)">
<stop offset="0.3" stop-color="white"/>
<stop offset="1" stop-color="#B6FFFF"/>
</radialGradient>
<radialGradient id="paint43_radial_409_2601" cx="0" cy="0" r="1" gradientUnits="userSpaceOnUse" gradientTransform="translate(63.3765 75.1511) scale(1.09106 1.09106)">
<stop stop-color="#47ECFF"/>
<stop offset="0.26" stop-color="#49ECFF"/>
<stop offset="0.42" stop-color="#51EDFF"/>
<stop offset="0.54" stop-color="#5FEEFF"/>
<stop offset="0.65" stop-color="#73F0FF"/>
<stop offset="0.74" stop-color="#8DF3FF"/>
<stop offset="0.83" stop-color="#ACF6FF"/>
<stop offset="0.92" stop-color="#D1FAFF"/>
<stop offset="1" stop-color="white"/>
</radialGradient>
<radialGradient id="paint44_radial_409_2601" cx="0" cy="0" r="1" gradientUnits="userSpaceOnUse" gradientTransform="translate(63.32 75.0649) scale(0.944248 0.944245)">
<stop offset="0.08" stop-color="#47FFF9"/>
<stop offset="1" stop-color="#48DDFF"/>
</radialGradient>
<radialGradient id="paint45_radial_409_2601" cx="0" cy="0" r="1" gradientUnits="userSpaceOnUse" gradientTransform="translate(63.1496 74.8678) scale(0.653966)">
<stop offset="0.25" stop-color="#AAFFFF"/>
<stop offset="1" stop-color="#53FCFF"/>
</radialGradient>
<radialGradient id="paint46_radial_409_2601" cx="0" cy="0" r="1" gradientUnits="userSpaceOnUse" gradientTransform="translate(63.0329 74.7546) scale(0.373696 0.373693)">
<stop offset="0.3" stop-color="white"/>
<stop offset="1" stop-color="#B6FFFF"/>
</radialGradient>
<radialGradient id="paint47_radial_409_2601" cx="0" cy="0" r="1" gradientUnits="userSpaceOnUse" gradientTransform="translate(33.2908 55.115) scale(2.90948)">
<stop stop-color="#47ECFF"/>
<stop offset="0.26" stop-color="#49ECFF"/>
<stop offset="0.42" stop-color="#51EDFF"/>
<stop offset="0.54" stop-color="#5FEEFF"/>
<stop offset="0.65" stop-color="#73F0FF"/>
<stop offset="0.74" stop-color="#8DF3FF"/>
<stop offset="0.83" stop-color="#ACF6FF"/>
<stop offset="0.92" stop-color="#D1FAFF"/>
<stop offset="1" stop-color="white"/>
</radialGradient>
<radialGradient id="paint48_radial_409_2601" cx="0" cy="0" r="1" gradientUnits="userSpaceOnUse" gradientTransform="translate(33.1408 54.8883) scale(2.51577)">
<stop offset="0.08" stop-color="#47FFF9"/>
<stop offset="1" stop-color="#48DDFF"/>
</radialGradient>
<radialGradient id="paint49_radial_409_2601" cx="0" cy="0" r="1" gradientUnits="userSpaceOnUse" gradientTransform="translate(32.6836 54.3574) scale(1.74169)">
<stop offset="0.25" stop-color="#AAFFFF"/>
<stop offset="1" stop-color="#53FCFF"/>
</radialGradient>
<radialGradient id="paint50_radial_409_2601" cx="0" cy="0" r="1" gradientUnits="userSpaceOnUse" gradientTransform="translate(32.3832 54.0537) scale(1.00097)">
<stop offset="0.3" stop-color="white"/>
<stop offset="1" stop-color="#B6FFFF"/>
</radialGradient>
<radialGradient id="paint51_radial_409_2601" cx="0" cy="0" r="1" gradientUnits="userSpaceOnUse" gradientTransform="translate(50.1507 33.5875) scale(1.13777)">
<stop stop-color="#47ECFF"/>
<stop offset="0.26" stop-color="#49ECFF"/>
<stop offset="0.42" stop-color="#51EDFF"/>
<stop offset="0.54" stop-color="#5FEEFF"/>
<stop offset="0.65" stop-color="#73F0FF"/>
<stop offset="0.74" stop-color="#8DF3FF"/>
<stop offset="0.83" stop-color="#ACF6FF"/>
<stop offset="0.92" stop-color="#D1FAFF"/>
<stop offset="1" stop-color="white"/>
</radialGradient>
<radialGradient id="paint52_radial_409_2601" cx="0" cy="0" r="1" gradientUnits="userSpaceOnUse" gradientTransform="translate(50.0905 33.5014) scale(0.984286)">
<stop offset="0.08" stop-color="#47FFF9"/>
<stop offset="1" stop-color="#48DDFF"/>
</radialGradient>
<radialGradient id="paint53_radial_409_2601" cx="0" cy="0" r="1" gradientUnits="userSpaceOnUse" gradientTransform="translate(49.9136 33.2895) scale(0.680659)">
<stop offset="0.25" stop-color="#AAFFFF"/>
<stop offset="1" stop-color="#53FCFF"/>
</radialGradient>
<radialGradient id="paint54_radial_409_2601" cx="0" cy="0" r="1" gradientUnits="userSpaceOnUse" gradientTransform="translate(49.7966 33.1731) scale(0.390378)">
<stop offset="0.3" stop-color="white"/>
<stop offset="1" stop-color="#B6FFFF"/>
</radialGradient>
<radialGradient id="paint55_radial_409_2601" cx="0" cy="0" r="1" gradientUnits="userSpaceOnUse" gradientTransform="translate(55.3388 43.8737) scale(1.43472)">
<stop stop-color="#47ECFF"/>
<stop offset="0.26" stop-color="#49ECFF"/>
<stop offset="0.42" stop-color="#51EDFF"/>
<stop offset="0.54" stop-color="#5FEEFF"/>
<stop offset="0.65" stop-color="#73F0FF"/>
<stop offset="0.74" stop-color="#8DF3FF"/>
<stop offset="0.83" stop-color="#ACF6FF"/>
<stop offset="0.92" stop-color="#D1FAFF"/>
<stop offset="1" stop-color="white"/>
</radialGradient>
<radialGradient id="paint56_radial_409_2601" cx="0" cy="0" r="1" gradientUnits="userSpaceOnUse" gradientTransform="translate(55.2654 43.7602) scale(1.2412)">
<stop offset="0.08" stop-color="#47FFF9"/>
<stop offset="1" stop-color="#48DDFF"/>
</radialGradient>
<radialGradient id="paint57_radial_409_2601" cx="0" cy="0" r="1" gradientUnits="userSpaceOnUse" gradientTransform="translate(55.0418 43.5001) scale(0.857496)">
<stop offset="0.25" stop-color="#AAFFFF"/>
<stop offset="1" stop-color="#53FCFF"/>
</radialGradient>
<radialGradient id="paint58_radial_409_2601" cx="0" cy="0" r="1" gradientUnits="userSpaceOnUse" gradientTransform="translate(54.8922 43.3503) scale(0.493811)">
<stop offset="0.3" stop-color="white"/>
<stop offset="1" stop-color="#B6FFFF"/>
</radialGradient>
<radialGradient id="paint59_radial_409_2601" cx="0" cy="0" r="1" gradientUnits="userSpaceOnUse" gradientTransform="translate(37.1278 63.019) scale(1.22452)">
<stop stop-color="#47ECFF"/>
<stop offset="0.26" stop-color="#49ECFF"/>
<stop offset="0.42" stop-color="#51EDFF"/>
<stop offset="0.54" stop-color="#5FEEFF"/>
<stop offset="0.65" stop-color="#73F0FF"/>
<stop offset="0.74" stop-color="#8DF3FF"/>
<stop offset="0.83" stop-color="#ACF6FF"/>
<stop offset="0.92" stop-color="#D1FAFF"/>
<stop offset="1" stop-color="white"/>
</radialGradient>
<radialGradient id="paint60_radial_409_2601" cx="0" cy="0" r="1" gradientUnits="userSpaceOnUse" gradientTransform="translate(37.0612 62.9259) scale(1.05769)">
<stop offset="0.08" stop-color="#47FFF9"/>
<stop offset="1" stop-color="#48DDFF"/>
</radialGradient>
<radialGradient id="paint61_radial_409_2601" cx="0" cy="0" r="1" gradientUnits="userSpaceOnUse" gradientTransform="translate(36.8705 62.7018) scale(0.734044)">
<stop offset="0.25" stop-color="#AAFFFF"/>
<stop offset="1" stop-color="#53FCFF"/>
</radialGradient>
<radialGradient id="paint62_radial_409_2601" cx="0" cy="0" r="1" gradientUnits="userSpaceOnUse" gradientTransform="translate(36.7444 62.5718) scale(0.420407)">
<stop offset="0.3" stop-color="white"/>
<stop offset="1" stop-color="#B6FFFF"/>
</radialGradient>
<radialGradient id="paint63_radial_409_2601" cx="0" cy="0" r="1" gradientUnits="userSpaceOnUse" gradientTransform="translate(62.8859 56.4335) scale(1.22452)">
<stop stop-color="#47ECFF"/>
<stop offset="0.26" stop-color="#49ECFF"/>
<stop offset="0.42" stop-color="#51EDFF"/>
<stop offset="0.54" stop-color="#5FEEFF"/>
<stop offset="0.65" stop-color="#73F0FF"/>
<stop offset="0.74" stop-color="#8DF3FF"/>
<stop offset="0.83" stop-color="#ACF6FF"/>
<stop offset="0.92" stop-color="#D1FAFF"/>
<stop offset="1" stop-color="white"/>
</radialGradient>
<radialGradient id="paint64_radial_409_2601" cx="0" cy="0" r="1" gradientUnits="userSpaceOnUse" gradientTransform="translate(62.8228 56.336) scale(1.05769)">
<stop offset="0.08" stop-color="#47FFF9"/>
<stop offset="1" stop-color="#48DDFF"/>
</radialGradient>
<radialGradient id="paint65_radial_409_2601" cx="0" cy="0" r="1" gradientUnits="userSpaceOnUse" gradientTransform="translate(62.6325 56.1134) scale(0.734044)">
<stop offset="0.25" stop-color="#AAFFFF"/>
<stop offset="1" stop-color="#53FCFF"/>
</radialGradient>
<radialGradient id="paint66_radial_409_2601" cx="0" cy="0" r="1" gradientUnits="userSpaceOnUse" gradientTransform="translate(62.5024 55.9863) scale(0.420406 0.420407)">
<stop offset="0.3" stop-color="white"/>
<stop offset="1" stop-color="#B6FFFF"/>
</radialGradient>
<radialGradient id="paint67_radial_409_2601" cx="0" cy="0" r="1" gradientUnits="userSpaceOnUse" gradientTransform="translate(44.9053 61.8786) scale(1.3146 1.31461)">
<stop stop-color="#47ECFF"/>
<stop offset="0.26" stop-color="#49ECFF"/>
<stop offset="0.42" stop-color="#51EDFF"/>
<stop offset="0.54" stop-color="#5FEEFF"/>
<stop offset="0.65" stop-color="#73F0FF"/>
<stop offset="0.74" stop-color="#8DF3FF"/>
<stop offset="0.83" stop-color="#ACF6FF"/>
<stop offset="0.92" stop-color="#D1FAFF"/>
<stop offset="1" stop-color="white"/>
</radialGradient>
<radialGradient id="paint68_radial_409_2601" cx="0" cy="0" r="1" gradientUnits="userSpaceOnUse" gradientTransform="translate(44.8353 61.774) scale(1.13777 1.13777)">
<stop offset="0.08" stop-color="#47FFF9"/>
<stop offset="1" stop-color="#48DDFF"/>
</radialGradient>
<radialGradient id="paint69_radial_409_2601" cx="0" cy="0" r="1" gradientUnits="userSpaceOnUse" gradientTransform="translate(44.6285 61.5345) scale(0.787429)">
<stop offset="0.25" stop-color="#AAFFFF"/>
<stop offset="1" stop-color="#53FCFF"/>
</radialGradient>
<radialGradient id="paint70_radial_409_2601" cx="0" cy="0" r="1" gradientUnits="userSpaceOnUse" gradientTransform="translate(44.4915 61.3982) scale(0.450436 0.450438)">
<stop offset="0.3" stop-color="white"/>
<stop offset="1" stop-color="#B6FFFF"/>
</radialGradient>
<radialGradient id="paint71_radial_409_2601" cx="0" cy="0" r="1" gradientUnits="userSpaceOnUse" gradientTransform="translate(61.0712 66.575) scale(2.57249)">
<stop stop-color="#47ECFF"/>
<stop offset="0.26" stop-color="#49ECFF"/>
<stop offset="0.42" stop-color="#51EDFF"/>
<stop offset="0.54" stop-color="#5FEEFF"/>
<stop offset="0.65" stop-color="#73F0FF"/>
<stop offset="0.74" stop-color="#8DF3FF"/>
<stop offset="0.83" stop-color="#ACF6FF"/>
<stop offset="0.92" stop-color="#D1FAFF"/>
<stop offset="1" stop-color="white"/>
</radialGradient>
<radialGradient id="paint72_radial_409_2601" cx="0" cy="0" r="1" gradientUnits="userSpaceOnUse" gradientTransform="translate(60.9376 66.3705) scale(2.22549)">
<stop offset="0.08" stop-color="#47FFF9"/>
<stop offset="1" stop-color="#48DDFF"/>
</radialGradient>
<radialGradient id="paint73_radial_409_2601" cx="0" cy="0" r="1" gradientUnits="userSpaceOnUse" gradientTransform="translate(60.5371 65.9023) scale(1.54149 1.54149)">
<stop offset="0.25" stop-color="#AAFFFF"/>
<stop offset="1" stop-color="#53FCFF"/>
</radialGradient>
<radialGradient id="paint74_radial_409_2601" cx="0" cy="0" r="1" gradientUnits="userSpaceOnUse" gradientTransform="translate(60.267 65.6317) scale(0.884189)">
<stop offset="0.3" stop-color="white"/>
<stop offset="1" stop-color="#B6FFFF"/>
</radialGradient>
<radialGradient id="paint75_radial_409_2601" cx="0" cy="0" r="1" gradientUnits="userSpaceOnUse" gradientTransform="translate(49.2789 37.8448) scale(2.57249)">
<stop stop-color="#47ECFF"/>
<stop offset="0.26" stop-color="#49ECFF"/>
<stop offset="0.42" stop-color="#51EDFF"/>
<stop offset="0.54" stop-color="#5FEEFF"/>
<stop offset="0.65" stop-color="#73F0FF"/>
<stop offset="0.74" stop-color="#8DF3FF"/>
<stop offset="0.83" stop-color="#ACF6FF"/>
<stop offset="0.92" stop-color="#D1FAFF"/>
<stop offset="1" stop-color="white"/>
</radialGradient>
<radialGradient id="paint76_radial_409_2601" cx="0" cy="0" r="1" gradientUnits="userSpaceOnUse" gradientTransform="translate(49.1427 37.6405) scale(2.22549)">
<stop offset="0.08" stop-color="#47FFF9"/>
<stop offset="1" stop-color="#48DDFF"/>
</radialGradient>
<radialGradient id="paint77_radial_409_2601" cx="0" cy="0" r="1" gradientUnits="userSpaceOnUse" gradientTransform="translate(48.739 37.1748) scale(1.54149)">
<stop offset="0.25" stop-color="#AAFFFF"/>
<stop offset="1" stop-color="#53FCFF"/>
</radialGradient>
<radialGradient id="paint78_radial_409_2601" cx="0" cy="0" r="1" gradientUnits="userSpaceOnUse" gradientTransform="translate(48.4723 36.9037) scale(0.884189)">
<stop offset="0.3" stop-color="white"/>
<stop offset="1" stop-color="#B6FFFF"/>
</radialGradient>
<radialGradient id="paint79_radial_409_2601" cx="0" cy="0" r="1" gradientUnits="userSpaceOnUse" gradientTransform="translate(63.7634 67.7341) scale(1.15111 1.15112)">
<stop stop-color="#47ECFF"/>
<stop offset="0.26" stop-color="#49ECFF"/>
<stop offset="0.42" stop-color="#51EDFF"/>
<stop offset="0.54" stop-color="#5FEEFF"/>
<stop offset="0.65" stop-color="#73F0FF"/>
<stop offset="0.74" stop-color="#8DF3FF"/>
<stop offset="0.83" stop-color="#ACF6FF"/>
<stop offset="0.92" stop-color="#D1FAFF"/>
<stop offset="1" stop-color="white"/>
</radialGradient>
<radialGradient id="paint80_radial_409_2601" cx="0" cy="0" r="1" gradientUnits="userSpaceOnUse" gradientTransform="translate(63.7042 67.6446) scale(0.997633 0.997634)">
<stop offset="0.08" stop-color="#47FFF9"/>
<stop offset="1" stop-color="#48DDFF"/>
</radialGradient>
<radialGradient id="paint81_radial_409_2601" cx="0" cy="0" r="1" gradientUnits="userSpaceOnUse" gradientTransform="translate(63.5234 67.4343) scale(0.690668)">
<stop offset="0.25" stop-color="#AAFFFF"/>
<stop offset="1" stop-color="#53FCFF"/>
</radialGradient>
<radialGradient id="paint82_radial_409_2601" cx="0" cy="0" r="1" gradientUnits="userSpaceOnUse" gradientTransform="translate(63.4034 67.3145) scale(0.397052)">
<stop offset="0.3" stop-color="white"/>
<stop offset="1" stop-color="#B6FFFF"/>
</radialGradient>
<radialGradient id="paint83_radial_409_2601" cx="0" cy="0" r="1" gradientUnits="userSpaceOnUse" gradientTransform="translate(70.1633 62.1526) scale(1.15111 1.15112)">
<stop stop-color="#47ECFF"/>
<stop offset="0.26" stop-color="#49ECFF"/>
<stop offset="0.42" stop-color="#51EDFF"/>
<stop offset="0.54" stop-color="#5FEEFF"/>
<stop offset="0.65" stop-color="#73F0FF"/>
<stop offset="0.74" stop-color="#8DF3FF"/>
<stop offset="0.83" stop-color="#ACF6FF"/>
<stop offset="0.92" stop-color="#D1FAFF"/>
<stop offset="1" stop-color="white"/>
</radialGradient>
<radialGradient id="paint84_radial_409_2601" cx="0" cy="0" r="1" gradientUnits="userSpaceOnUse" gradientTransform="translate(70.103 62.0621) scale(0.997631)">
<stop offset="0.08" stop-color="#47FFF9"/>
<stop offset="1" stop-color="#48DDFF"/>
</radialGradient>
<radialGradient id="paint85_radial_409_2601" cx="0" cy="0" r="1" gradientUnits="userSpaceOnUse" gradientTransform="translate(69.9228 61.8518) scale(0.690668)">
<stop offset="0.25" stop-color="#AAFFFF"/>
<stop offset="1" stop-color="#53FCFF"/>
</radialGradient>
<radialGradient id="paint86_radial_409_2601" cx="0" cy="0" r="1" gradientUnits="userSpaceOnUse" gradientTransform="translate(69.8028 61.7315) scale(0.397052)">
<stop offset="0.3" stop-color="white"/>
<stop offset="1" stop-color="#B6FFFF"/>
</radialGradient>
<radialGradient id="paint87_radial_409_2601" cx="0" cy="0" r="1" gradientUnits="userSpaceOnUse" gradientTransform="translate(37.5614 70.526) scale(1.03433 1.03434)">
<stop stop-color="#47ECFF"/>
<stop offset="0.26" stop-color="#49ECFF"/>
<stop offset="0.42" stop-color="#51EDFF"/>
<stop offset="0.54" stop-color="#5FEEFF"/>
<stop offset="0.65" stop-color="#73F0FF"/>
<stop offset="0.74" stop-color="#8DF3FF"/>
<stop offset="0.83" stop-color="#ACF6FF"/>
<stop offset="0.92" stop-color="#D1FAFF"/>
<stop offset="1" stop-color="white"/>
</radialGradient>
<radialGradient id="paint88_radial_409_2601" cx="0" cy="0" r="1" gradientUnits="userSpaceOnUse" gradientTransform="translate(37.5082 70.4464) scale(0.894199)">
<stop offset="0.08" stop-color="#47FFF9"/>
<stop offset="1" stop-color="#48DDFF"/>
</radialGradient>
<radialGradient id="paint89_radial_409_2601" cx="0" cy="0" r="1" gradientUnits="userSpaceOnUse" gradientTransform="translate(37.3447 70.2598) scale(0.6206)">
<stop offset="0.25" stop-color="#AAFFFF"/>
<stop offset="1" stop-color="#53FCFF"/>
</radialGradient>
<radialGradient id="paint90_radial_409_2601" cx="0" cy="0" r="1" gradientUnits="userSpaceOnUse" gradientTransform="translate(37.2379 70.1495) scale(0.357012)">
<stop offset="0.3" stop-color="white"/>
<stop offset="1" stop-color="#B6FFFF"/>
</radialGradient>
<radialGradient id="paint91_radial_409_2601" cx="0" cy="0" r="1" gradientUnits="userSpaceOnUse" gradientTransform="translate(33.5277 66.7424) scale(1.03433 1.03434)">
<stop stop-color="#47ECFF"/>
<stop offset="0.26" stop-color="#49ECFF"/>
<stop offset="0.42" stop-color="#51EDFF"/>
<stop offset="0.54" stop-color="#5FEEFF"/>
<stop offset="0.65" stop-color="#73F0FF"/>
<stop offset="0.74" stop-color="#8DF3FF"/>
<stop offset="0.83" stop-color="#ACF6FF"/>
<stop offset="0.92" stop-color="#D1FAFF"/>
<stop offset="1" stop-color="white"/>
</radialGradient>
<radialGradient id="paint92_radial_409_2601" cx="0" cy="0" r="1" gradientUnits="userSpaceOnUse" gradientTransform="translate(33.474 66.6632) scale(0.894199)">
<stop offset="0.08" stop-color="#47FFF9"/>
<stop offset="1" stop-color="#48DDFF"/>
</radialGradient>
<radialGradient id="paint93_radial_409_2601" cx="0" cy="0" r="1" gradientUnits="userSpaceOnUse" gradientTransform="translate(33.314 66.4761) scale(0.620601)">
<stop offset="0.25" stop-color="#AAFFFF"/>
<stop offset="1" stop-color="#53FCFF"/>
</radialGradient>
<radialGradient id="paint94_radial_409_2601" cx="0" cy="0" r="1" gradientUnits="userSpaceOnUse" gradientTransform="translate(33.2039 66.3658) scale(0.357012 0.357015)">
<stop offset="0.3" stop-color="white"/>
<stop offset="1" stop-color="#B6FFFF"/>
</radialGradient>
<radialGradient id="paint95_radial_409_2601" cx="0" cy="0" r="1" gradientUnits="userSpaceOnUse" gradientTransform="translate(39.8271 49.3263) scale(1.03433)">
<stop stop-color="#47ECFF"/>
<stop offset="0.26" stop-color="#49ECFF"/>
<stop offset="0.42" stop-color="#51EDFF"/>
<stop offset="0.54" stop-color="#5FEEFF"/>
<stop offset="0.65" stop-color="#73F0FF"/>
<stop offset="0.74" stop-color="#8DF3FF"/>
<stop offset="0.83" stop-color="#ACF6FF"/>
<stop offset="0.92" stop-color="#D1FAFF"/>
<stop offset="1" stop-color="white"/>
</radialGradient>
<radialGradient id="paint96_radial_409_2601" cx="0" cy="0" r="1" gradientUnits="userSpaceOnUse" gradientTransform="translate(39.7736 49.2458) scale(0.894198)">
<stop offset="0.08" stop-color="#47FFF9"/>
<stop offset="1" stop-color="#48DDFF"/>
</radialGradient>
<radialGradient id="paint97_radial_409_2601" cx="0" cy="0" r="1" gradientUnits="userSpaceOnUse" gradientTransform="translate(39.6103 49.0561) scale(0.6206)">
<stop offset="0.25" stop-color="#AAFFFF"/>
<stop offset="1" stop-color="#53FCFF"/>
</radialGradient>
<radialGradient id="paint98_radial_409_2601" cx="0" cy="0" r="1" gradientUnits="userSpaceOnUse" gradientTransform="translate(39.5035 48.9498) scale(0.357012)">
<stop offset="0.3" stop-color="white"/>
<stop offset="1" stop-color="#B6FFFF"/>
</radialGradient>
<radialGradient id="paint99_radial_409_2601" cx="0" cy="0" r="1" gradientUnits="userSpaceOnUse" gradientTransform="translate(56.9772 29.6203) scale(1.03433)">
<stop stop-color="#47ECFF"/>
<stop offset="0.26" stop-color="#49ECFF"/>
<stop offset="0.42" stop-color="#51EDFF"/>
<stop offset="0.54" stop-color="#5FEEFF"/>
<stop offset="0.65" stop-color="#73F0FF"/>
<stop offset="0.74" stop-color="#8DF3FF"/>
<stop offset="0.83" stop-color="#ACF6FF"/>
<stop offset="0.92" stop-color="#D1FAFF"/>
<stop offset="1" stop-color="white"/>
</radialGradient>
<radialGradient id="paint100_radial_409_2601" cx="0" cy="0" r="1" gradientUnits="userSpaceOnUse" gradientTransform="translate(56.924 29.5412) scale(0.894199)">
<stop offset="0.08" stop-color="#47FFF9"/>
<stop offset="1" stop-color="#48DDFF"/>
</radialGradient>
<radialGradient id="paint101_radial_409_2601" cx="0" cy="0" r="1" gradientUnits="userSpaceOnUse" gradientTransform="translate(56.7637 29.3501) scale(0.620601)">
<stop offset="0.25" stop-color="#AAFFFF"/>
<stop offset="1" stop-color="#53FCFF"/>
</radialGradient>
<radialGradient id="paint102_radial_409_2601" cx="0" cy="0" r="1" gradientUnits="userSpaceOnUse" gradientTransform="translate(56.6536 29.2437) scale(0.357012)">
<stop offset="0.3" stop-color="white"/>
<stop offset="1" stop-color="#B6FFFF"/>
</radialGradient>
<radialGradient id="paint103_radial_409_2601" cx="0" cy="0" r="1" gradientUnits="userSpaceOnUse" gradientTransform="translate(59.0587 75.7116) scale(1.03433 1.03433)">
<stop stop-color="#47ECFF"/>
<stop offset="0.26" stop-color="#49ECFF"/>
<stop offset="0.42" stop-color="#51EDFF"/>
<stop offset="0.54" stop-color="#5FEEFF"/>
<stop offset="0.65" stop-color="#73F0FF"/>
<stop offset="0.74" stop-color="#8DF3FF"/>
<stop offset="0.83" stop-color="#ACF6FF"/>
<stop offset="0.92" stop-color="#D1FAFF"/>
<stop offset="1" stop-color="white"/>
</radialGradient>
<radialGradient id="paint104_radial_409_2601" cx="0" cy="0" r="1" gradientUnits="userSpaceOnUse" gradientTransform="translate(59.0053 75.631) scale(0.894199)">
<stop offset="0.08" stop-color="#47FFF9"/>
<stop offset="1" stop-color="#48DDFF"/>
</radialGradient>
<radialGradient id="paint105_radial_409_2601" cx="0" cy="0" r="1" gradientUnits="userSpaceOnUse" gradientTransform="translate(58.842 75.4399) scale(0.620601)">
<stop offset="0.25" stop-color="#AAFFFF"/>
<stop offset="1" stop-color="#53FCFF"/>
</radialGradient>
<radialGradient id="paint106_radial_409_2601" cx="0" cy="0" r="1" gradientUnits="userSpaceOnUse" gradientTransform="translate(58.7352 75.3336) scale(0.357012)">
<stop offset="0.3" stop-color="white"/>
<stop offset="1" stop-color="#B6FFFF"/>
</radialGradient>
<radialGradient id="paint107_radial_409_2601" cx="0" cy="0" r="1" gradientUnits="userSpaceOnUse" gradientTransform="translate(34.7688 56.6936) scale(1.51146)">
<stop stop-color="#47ECFF"/>
<stop offset="0.26" stop-color="#49ECFF"/>
<stop offset="0.42" stop-color="#51EDFF"/>
<stop offset="0.54" stop-color="#5FEEFF"/>
<stop offset="0.65" stop-color="#73F0FF"/>
<stop offset="0.74" stop-color="#8DF3FF"/>
<stop offset="0.83" stop-color="#ACF6FF"/>
<stop offset="0.92" stop-color="#D1FAFF"/>
<stop offset="1" stop-color="white"/>
</radialGradient>
<radialGradient id="paint108_radial_409_2601" cx="0" cy="0" r="1" gradientUnits="userSpaceOnUse" gradientTransform="translate(34.6893 56.576) scale(1.30793)">
<stop offset="0.08" stop-color="#47FFF9"/>
<stop offset="1" stop-color="#48DDFF"/>
</radialGradient>
<radialGradient id="paint109_radial_409_2601" cx="0" cy="0" r="1" gradientUnits="userSpaceOnUse" gradientTransform="translate(34.4521 56.3002) scale(0.904208)">
<stop offset="0.25" stop-color="#AAFFFF"/>
<stop offset="1" stop-color="#53FCFF"/>
</radialGradient>
<radialGradient id="paint110_radial_409_2601" cx="0" cy="0" r="1" gradientUnits="userSpaceOnUse" gradientTransform="translate(34.2952 56.1435) scale(0.520504)">
<stop offset="0.3" stop-color="white"/>
<stop offset="1" stop-color="#B6FFFF"/>
</radialGradient>
<radialGradient id="paint111_radial_409_2601" cx="0" cy="0" r="1" gradientUnits="userSpaceOnUse" gradientTransform="translate(50.4875 47.8307) scale(1.03433 1.03433)">
<stop stop-color="#47ECFF"/>
<stop offset="0.26" stop-color="#49ECFF"/>
<stop offset="0.42" stop-color="#51EDFF"/>
<stop offset="0.54" stop-color="#5FEEFF"/>
<stop offset="0.65" stop-color="#73F0FF"/>
<stop offset="0.74" stop-color="#8DF3FF"/>
<stop offset="0.83" stop-color="#ACF6FF"/>
<stop offset="0.92" stop-color="#D1FAFF"/>
<stop offset="1" stop-color="white"/>
</radialGradient>
<radialGradient id="paint112_radial_409_2601" cx="0" cy="0" r="1" gradientUnits="userSpaceOnUse" gradientTransform="translate(50.4338 47.7502) scale(0.894199)">
<stop offset="0.08" stop-color="#47FFF9"/>
<stop offset="1" stop-color="#48DDFF"/>
</radialGradient>
<radialGradient id="paint113_radial_409_2601" cx="0" cy="0" r="1" gradientUnits="userSpaceOnUse" gradientTransform="translate(50.2742 47.5601) scale(0.6206)">
<stop offset="0.25" stop-color="#AAFFFF"/>
<stop offset="1" stop-color="#53FCFF"/>
</radialGradient>
<radialGradient id="paint114_radial_409_2601" cx="0" cy="0" r="1" gradientUnits="userSpaceOnUse" gradientTransform="translate(50.1675 47.4527) scale(0.357012)">
<stop offset="0.3" stop-color="white"/>
<stop offset="1" stop-color="#B6FFFF"/>
</radialGradient>
<radialGradient id="paint115_radial_409_2601" cx="0" cy="0" r="1" gradientUnits="userSpaceOnUse" gradientTransform="translate(54.1474 19.9413) scale(3.20644)">
<stop stop-color="#47ECFF"/>
<stop offset="0.26" stop-color="#49ECFF"/>
<stop offset="0.42" stop-color="#51EDFF"/>
<stop offset="0.54" stop-color="#5FEEFF"/>
<stop offset="0.65" stop-color="#73F0FF"/>
<stop offset="0.74" stop-color="#8DF3FF"/>
<stop offset="0.83" stop-color="#ACF6FF"/>
<stop offset="0.92" stop-color="#D1FAFF"/>
<stop offset="1" stop-color="white"/>
</radialGradient>
<radialGradient id="paint116_radial_409_2601" cx="0" cy="0" r="1" gradientUnits="userSpaceOnUse" gradientTransform="translate(53.9781 19.6878) scale(2.77268)">
<stop offset="0.08" stop-color="#47FFF9"/>
<stop offset="1" stop-color="#48DDFF"/>
</radialGradient>
<radialGradient id="paint117_radial_409_2601" cx="0" cy="0" r="1" gradientUnits="userSpaceOnUse" gradientTransform="translate(53.477 19.1036) scale(1.91852)">
<stop offset="0.25" stop-color="#AAFFFF"/>
<stop offset="1" stop-color="#53FCFF"/>
</radialGradient>
<radialGradient id="paint118_radial_409_2601" cx="0" cy="0" r="1" gradientUnits="userSpaceOnUse" gradientTransform="translate(53.1435 18.769) scale(1.10107)">
<stop offset="0.3" stop-color="white"/>
<stop offset="1" stop-color="#B6FFFF"/>
</radialGradient>
<radialGradient id="paint119_radial_409_2601" cx="0" cy="0" r="1" gradientUnits="userSpaceOnUse" gradientTransform="translate(64.5534 40.9754) scale(2.69261)">
<stop stop-color="#47ECFF"/>
<stop offset="0.26" stop-color="#49ECFF"/>
<stop offset="0.42" stop-color="#51EDFF"/>
<stop offset="0.54" stop-color="#5FEEFF"/>
<stop offset="0.65" stop-color="#73F0FF"/>
<stop offset="0.74" stop-color="#8DF3FF"/>
<stop offset="0.83" stop-color="#ACF6FF"/>
<stop offset="0.92" stop-color="#D1FAFF"/>
<stop offset="1" stop-color="white"/>
</radialGradient>
<radialGradient id="paint120_radial_409_2601" cx="0" cy="0" r="1" gradientUnits="userSpaceOnUse" gradientTransform="translate(64.411 40.7654) scale(2.32892)">
<stop offset="0.08" stop-color="#47FFF9"/>
<stop offset="1" stop-color="#48DDFF"/>
</radialGradient>
<radialGradient id="paint121_radial_409_2601" cx="0" cy="0" r="1" gradientUnits="userSpaceOnUse" gradientTransform="translate(63.99 40.2746) scale(1.61156)">
<stop offset="0.25" stop-color="#AAFFFF"/>
<stop offset="1" stop-color="#53FCFF"/>
</radialGradient>
<radialGradient id="paint122_radial_409_2601" cx="0" cy="0" r="1" gradientUnits="userSpaceOnUse" gradientTransform="translate(63.7104 39.9911) scale(0.924228)">
<stop offset="0.3" stop-color="white"/>
<stop offset="1" stop-color="#B6FFFF"/>
</radialGradient>
<radialGradient id="paint123_radial_409_2601" cx="0" cy="0" r="1" gradientUnits="userSpaceOnUse" gradientTransform="translate(58.5954 73.3229) scale(1.09439 1.09439)">
<stop stop-color="#47ECFF"/>
<stop offset="0.26" stop-color="#49ECFF"/>
<stop offset="0.42" stop-color="#51EDFF"/>
<stop offset="0.54" stop-color="#5FEEFF"/>
<stop offset="0.65" stop-color="#73F0FF"/>
<stop offset="0.74" stop-color="#8DF3FF"/>
<stop offset="0.83" stop-color="#ACF6FF"/>
<stop offset="0.92" stop-color="#D1FAFF"/>
<stop offset="1" stop-color="white"/>
</radialGradient>
<radialGradient id="paint124_radial_409_2601" cx="0" cy="0" r="1" gradientUnits="userSpaceOnUse" gradientTransform="translate(58.5384 73.2362) scale(0.947584 0.947582)">
<stop offset="0.08" stop-color="#47FFF9"/>
<stop offset="1" stop-color="#48DDFF"/>
</radialGradient>
<radialGradient id="paint125_radial_409_2601" cx="0" cy="0" r="1" gradientUnits="userSpaceOnUse" gradientTransform="translate(58.3651 73.0391) scale(0.657303)">
<stop offset="0.25" stop-color="#AAFFFF"/>
<stop offset="1" stop-color="#53FCFF"/>
</radialGradient>
<radialGradient id="paint126_radial_409_2601" cx="0" cy="0" r="1" gradientUnits="userSpaceOnUse" gradientTransform="translate(58.2515 72.9224) scale(0.377032 0.377031)">
<stop offset="0.3" stop-color="white"/>
<stop offset="1" stop-color="#B6FFFF"/>
</radialGradient>
<radialGradient id="paint127_radial_409_2601" cx="0" cy="0" r="1" gradientUnits="userSpaceOnUse" gradientTransform="translate(60.9379 23.5187) scale(0.974275)">
<stop stop-color="#47ECFF"/>
<stop offset="0.26" stop-color="#49ECFF"/>
<stop offset="0.42" stop-color="#51EDFF"/>
<stop offset="0.54" stop-color="#5FEEFF"/>
<stop offset="0.65" stop-color="#73F0FF"/>
<stop offset="0.74" stop-color="#8DF3FF"/>
<stop offset="0.83" stop-color="#ACF6FF"/>
<stop offset="0.92" stop-color="#D1FAFF"/>
<stop offset="1" stop-color="white"/>
</radialGradient>
<radialGradient id="paint128_radial_409_2601" cx="0" cy="0" r="1" gradientUnits="userSpaceOnUse" gradientTransform="translate(60.8879 23.4418) scale(0.84415)">
<stop offset="0.08" stop-color="#47FFF9"/>
<stop offset="1" stop-color="#48DDFF"/>
</radialGradient>
<radialGradient id="paint129_radial_409_2601" cx="0" cy="0" r="1" gradientUnits="userSpaceOnUse" gradientTransform="translate(60.7343 23.2651) scale(0.583898)">
<stop offset="0.25" stop-color="#AAFFFF"/>
<stop offset="1" stop-color="#53FCFF"/>
</radialGradient>
<radialGradient id="paint130_radial_409_2601" cx="0" cy="0" r="1" gradientUnits="userSpaceOnUse" gradientTransform="translate(60.6339 23.1623) scale(0.333656)">
<stop offset="0.3" stop-color="white"/>
<stop offset="1" stop-color="#B6FFFF"/>
</radialGradient>
<radialGradient id="paint131_radial_409_2601" cx="0" cy="0" r="1" gradientUnits="userSpaceOnUse" gradientTransform="translate(47.5878 28.7296) scale(1.09439)">
<stop stop-color="#47ECFF"/>
<stop offset="0.26" stop-color="#49ECFF"/>
<stop offset="0.42" stop-color="#51EDFF"/>
<stop offset="0.54" stop-color="#5FEEFF"/>
<stop offset="0.65" stop-color="#73F0FF"/>
<stop offset="0.74" stop-color="#8DF3FF"/>
<stop offset="0.83" stop-color="#ACF6FF"/>
<stop offset="0.92" stop-color="#D1FAFF"/>
<stop offset="1" stop-color="white"/>
</radialGradient>
<radialGradient id="paint132_radial_409_2601" cx="0" cy="0" r="1" gradientUnits="userSpaceOnUse" gradientTransform="translate(47.5313 28.6458) scale(0.947584)">
<stop offset="0.08" stop-color="#47FFF9"/>
<stop offset="1" stop-color="#48DDFF"/>
</radialGradient>
<radialGradient id="paint133_radial_409_2601" cx="0" cy="0" r="1" gradientUnits="userSpaceOnUse" gradientTransform="translate(47.3577 28.4464) scale(0.657302)">
<stop offset="0.25" stop-color="#AAFFFF"/>
<stop offset="1" stop-color="#53FCFF"/>
</radialGradient>
<radialGradient id="paint134_radial_409_2601" cx="0" cy="0" r="1" gradientUnits="userSpaceOnUse" gradientTransform="translate(47.2442 28.3336) scale(0.377032)">
<stop offset="0.3" stop-color="white"/>
<stop offset="1" stop-color="#B6FFFF"/>
</radialGradient>
</defs>
</svg>
