<svg width="101" height="100" viewBox="0 0 101 100" fill="none" xmlns="http://www.w3.org/2000/svg">
<g id="Group 2">
<ellipse id="Ellipse 337" cx="50.5" cy="50" rx="50" ry="50" fill="white"/>
<path id="Ellipse 338" d="M76.9999 7.60009C84.3648 12.2032 90.4037 18.6452 94.5218 26.2918C98.64 33.9385 100.695 42.5259 100.485 51.2084C100.275 59.8909 97.8076 68.369 93.3248 75.8077C88.842 83.2464 82.4988 89.3891 74.9201 93.6309L68.5544 82.2575C74.1576 79.1214 78.8472 74.5799 82.1615 69.0803C85.4757 63.5807 87.3003 57.3126 87.4555 50.8934C87.6107 44.4742 86.0911 38.1253 83.0465 32.472C80.0018 26.8186 75.5371 22.0558 70.0921 18.6527L76.9999 7.60009Z" fill="#9691FF"/>
<g id="OBJECTS">
<path id="Vector" d="M52.0148 86.1916C64.2098 86.1916 74.0958 84.116 74.0958 81.5555C74.0958 78.9951 64.2098 76.9194 52.0148 76.9194C39.8198 76.9194 29.9338 78.9951 29.9338 81.5555C29.9338 84.116 39.8198 86.1916 52.0148 86.1916Z" fill="#212A42" fill-opacity="0.1"/>
<g id="Group">
<path id="Vector_2" d="M58.6907 37.4655C58.6907 37.4655 52.1312 30.7818 43.3671 34.4984C34.5893 38.2073 23.2792 63.2576 28.0367 75.3192C39.0669 79.6308 60.1309 64.7025 62.6291 54.4954C65.1341 44.2806 58.6839 37.4655 58.6839 37.4655H58.6907Z" fill="#FF7A14"/>
<g id="Group_2">
<path id="Vector_3" d="M33.1693 46.3057C33.0328 46.5606 32.8963 46.8156 32.7666 47.0783C35.688 53.1825 41.2782 62.3388 50.6567 68.8989C50.8682 68.7444 51.0867 68.5898 51.2983 68.4353C41.6673 61.8057 36.0224 52.3712 33.1761 46.3057H33.1693Z" fill="#F75408"/>
<path id="Vector_4" d="M43.0871 73.3487C38.2818 70.7834 32.2001 66.8659 27.6338 61.689C27.5723 61.9903 27.5177 62.2839 27.4631 62.5853C31.8725 67.4609 37.5719 71.2007 42.2134 73.7351C42.5001 73.6114 42.7936 73.4878 43.0802 73.3487H43.0871Z" fill="#F75408"/>
<path id="Vector_5" d="M39.3671 37.4429C39.1965 37.6206 39.0259 37.7983 38.8484 37.9837C42.0496 44.6906 48.3361 54.7741 59.1069 61.0097C59.2639 60.8088 59.4209 60.6079 59.5711 60.4147C48.7592 54.2178 42.5001 44.0802 39.3603 37.4429H39.3671Z" fill="#F75408"/>
</g>
<path id="Vector_6" d="M55.3323 41.144C55.3323 41.144 55.3323 41.059 55.3323 40.8967C55.3323 40.7344 55.3255 40.5104 55.305 40.2322C55.2845 39.6836 55.2299 38.8646 55.148 37.8832C55.1207 37.3965 55.0525 36.8633 54.991 36.307C54.9296 35.7506 54.8545 35.1711 54.7863 34.5684C54.6907 33.9735 54.5883 33.3476 54.4859 32.7217C54.3904 32.0959 54.288 31.47 54.1378 30.8441C54.0013 30.226 53.8716 29.6078 53.7351 28.9974C53.6191 28.387 53.4416 27.8075 53.2778 27.2511C53.114 26.6948 52.9638 26.1617 52.8136 25.6517C52.7386 25.4044 52.6703 25.1572 52.602 24.9176C52.527 24.6858 52.4314 24.4695 52.3563 24.2609C51.7215 22.6073 51.2983 21.5101 51.2983 21.5101L60.4106 18.7671C60.4106 18.7671 60.4857 20.2815 60.5949 22.5532C60.6017 22.8314 60.6222 23.125 60.6222 23.4264C60.6154 23.7277 60.6017 24.0368 60.5949 24.3536C60.5744 24.9872 60.5539 25.6517 60.5266 26.3471C60.5062 27.0348 60.4857 27.7379 60.3969 28.4488C60.3287 29.1519 60.2536 29.8705 60.1853 30.5891C60.1239 31.3 60.0147 32.0109 59.9055 32.7063C59.7963 33.394 59.6939 34.0739 59.5915 34.7307C59.4618 35.3798 59.339 36.0056 59.2229 36.6006C59.1069 37.1878 58.9977 37.7442 58.8612 38.2541C58.6223 39.2741 58.4107 40.124 58.2332 40.7267C58.1513 41.0281 58.0899 41.2599 58.0421 41.4067C57.9943 41.5535 57.9738 41.6385 57.9738 41.6385L55.3391 41.144H55.3323Z" fill="#469F36"/>
<path id="Vector_7" d="M56.8134 40.2167C56.8134 40.2167 56.8885 40.2012 57.025 40.1781C57.1684 40.1549 57.3595 40.1085 57.6052 40.0467C58.083 39.9385 58.786 39.7531 59.6324 39.5136C60.0556 39.4054 60.5061 39.2508 60.9839 39.0963C61.4617 38.9418 61.96 38.7718 62.4719 38.6018C62.977 38.4009 63.5026 38.2 64.035 37.9914C64.5674 37.7827 65.0998 37.5819 65.6185 37.3191C66.1373 37.0719 66.656 36.8323 67.168 36.5851C67.6799 36.361 68.1577 36.0828 68.6218 35.8124C69.0791 35.5497 69.5228 35.2947 69.946 35.0475C70.1508 34.9238 70.3555 34.8079 70.5535 34.6997C70.7446 34.5761 70.9221 34.4448 71.0927 34.3211C72.4374 33.363 73.3383 32.7217 73.3383 32.7217L77.1198 42.5038C77.1198 42.5038 75.8092 42.8129 73.8434 43.2842C73.5977 43.3383 73.352 43.4079 73.0858 43.4465C72.8196 43.4851 72.5466 43.5161 72.2667 43.5547C71.7138 43.6242 71.1268 43.7015 70.5193 43.7788C69.9187 43.856 69.2976 43.941 68.6628 43.9565C68.0348 43.9874 67.3932 44.0183 66.7584 44.0415C66.1236 44.0878 65.4888 44.0647 64.8677 44.0415C64.2534 44.026 63.6391 44.0106 63.0521 43.9951C62.4651 43.9488 61.8985 43.9024 61.3661 43.8638C60.8337 43.8251 60.3286 43.7788 59.8645 43.7092C58.943 43.5933 58.1649 43.4851 57.612 43.3847C57.339 43.3383 57.1274 43.2997 56.9909 43.2688C56.8544 43.2379 56.7793 43.2224 56.7793 43.2224L56.8066 40.1935L56.8134 40.2167Z" fill="#469F36"/>
<path id="Vector_8" d="M55.1549 40.9579C55.1549 40.8961 55.2027 40.8883 55.2914 40.7724C55.387 40.6488 55.5098 40.4711 55.66 40.2547C55.9672 39.822 56.3972 39.1652 56.9023 38.3694C57.1617 37.983 57.421 37.5349 57.6941 37.0636C57.9671 36.5999 58.2538 36.1054 58.5473 35.5955C58.8203 35.07 59.107 34.5292 59.3937 33.9805C59.6803 33.4397 59.9738 32.8911 60.2196 32.3116C60.4789 31.7475 60.7315 31.1757 60.984 30.6194C61.2502 30.0785 61.455 29.5067 61.6529 28.9658C61.8509 28.425 62.0488 27.9073 62.2331 27.4128C62.3219 27.1655 62.4106 26.9337 62.4993 26.7019C62.5744 26.4701 62.629 26.2383 62.6973 26.0219C63.1751 24.3066 63.4959 23.1553 63.4959 23.1553L71.9597 27.8686C71.9597 27.8686 71.1338 29.0663 69.8983 30.8589C69.7413 31.0753 69.5912 31.3148 69.4137 31.5389C69.2363 31.7552 69.0451 31.987 68.854 32.2188C68.4718 32.6824 68.0691 33.1692 67.6459 33.6715C67.2295 34.1737 66.8063 34.6914 66.3285 35.1628C65.8644 35.6418 65.3934 36.1286 64.9224 36.6231C64.4651 37.1176 63.9668 37.5658 63.4822 38.0062C63.0044 38.4467 62.5266 38.8794 62.0693 39.2966C61.5983 39.6907 61.141 40.0693 60.7042 40.4324C60.2742 40.7879 59.8646 41.1279 59.4687 41.4138C58.6974 42.001 58.0422 42.4801 57.5644 42.8123C57.3255 42.9823 57.148 43.1059 57.0251 43.1755C56.9023 43.2527 56.8886 43.2836 56.8409 43.2991C56.09 43.4459 54.916 42.4337 55.1413 40.9656L55.1549 40.9579Z" fill="#6DD14D"/>
<path id="Vector_9" opacity="0.2" d="M33.4219 57.7485C33.0738 57.7485 32.7189 57.6635 32.3844 57.4781C31.1967 56.829 30.6985 55.2064 31.2787 53.8619C31.4561 53.4447 31.6336 53.0352 31.8179 52.6411C32.4254 51.3121 33.8656 50.7944 35.0396 51.4821C36.2136 52.1698 36.6709 53.8001 36.0634 55.1291C35.8996 55.4846 35.7358 55.8555 35.5788 56.2264C35.1693 57.1922 34.3161 57.7485 33.4287 57.7485H33.4219ZM39.2374 49.3418C43.087 43.4307 46.964 40.7727 47.0391 40.7264C48.1722 39.9691 48.5544 38.3156 47.8923 37.0329C47.2234 35.7426 45.7627 35.3099 44.6228 36.0594C44.4317 36.183 39.8858 39.2351 35.3945 46.1274C34.6096 47.3328 34.8348 49.025 35.8996 49.9058C36.3296 50.2612 36.8211 50.4312 37.3194 50.4312C38.0497 50.4312 38.7732 50.0526 39.2442 49.334L39.2374 49.3418Z" fill="#E6FF57"/>
</g>
</g>
</g>
</svg>
