<svg width="100" height="100" viewBox="0 0 100 100" fill="none" xmlns="http://www.w3.org/2000/svg">
<ellipse cx="50" cy="50" rx="50" ry="50" fill="white"/>
<path d="M100 50C100 77.6143 77.6142 100 50 100C22.3858 100 2.71146e-06 77.6142 1.74676e-06 50C7.82049e-07 22.3858 22.3858 3.8951e-06 50 8.69996e-06C77.6142 1.35048e-05 100 22.3858 100 50ZM13.0337 50C13.0337 70.4159 29.5841 86.9663 50 86.9663C70.4159 86.9663 86.9663 70.4159 86.9662 50C86.9662 29.5841 70.4159 13.0337 50 13.0337C29.5841 13.0337 13.0337 29.5841 13.0337 50Z" fill="#CB9E31"/>
<path d="M50.001 79.6606C60.7488 79.6606 69.4615 77.8312 69.4615 75.5747C69.4615 73.3181 60.7488 71.4888 50.001 71.4888C39.2533 71.4888 30.5405 73.3181 30.5405 75.5747C30.5405 77.8312 39.2533 79.6606 50.001 79.6606Z" fill="#212A42" fill-opacity="0.1"/>
<path fill-rule="evenodd" clip-rule="evenodd" d="M48.8792 21.5374C49.1811 21.5423 49.6703 21.5716 49.9722 21.6009C50.2741 21.6303 50.7894 21.7085 51.1173 21.7769C51.4452 21.8453 51.9397 21.9723 52.2104 22.0603C52.481 22.1483 52.9286 22.3095 53.1993 22.417C53.47 22.5245 53.9072 22.7249 54.1622 22.8568C54.4173 22.9888 54.8441 23.2233 55.0991 23.3797C55.3542 23.5361 55.7914 23.8293 56.062 24.0297C56.3327 24.2349 56.7647 24.577 57.0198 24.792C57.2696 25.0119 57.7068 25.4321 57.9879 25.7253C58.2637 26.0186 58.6645 26.473 58.8727 26.7271C59.0757 26.9812 59.5077 27.5872 59.8304 28.071C60.1584 28.5645 60.6164 29.3464 60.8714 29.8546C61.1265 30.3531 61.47 31.1105 61.6366 31.5405C61.8083 31.9706 62.0426 32.6401 62.1571 33.031C62.2716 33.4219 62.4485 34.111 62.5474 34.5703C62.6463 35.0297 62.7765 35.7529 62.8337 36.1829C62.891 36.613 62.9586 37.3851 62.9847 37.8933C63.0107 38.4357 63.0055 39.2518 62.9795 39.848C62.9534 40.4148 62.8702 41.358 62.7973 41.9492C62.7244 42.5405 62.5631 43.5863 62.4329 44.2704C62.3028 44.9546 62.0582 46.0736 61.8864 46.7529C61.7198 47.4272 61.3087 48.8395 60.9807 49.8901C60.5539 51.2487 60.1427 52.4068 59.5546 53.9363C59.0965 55.1092 58.3939 56.8195 57.9983 57.7333C57.5975 58.6471 56.9677 60.0007 56.6034 60.7386C56.239 61.4765 55.6092 62.6542 55.2136 63.353C54.7452 64.1642 54.2924 64.8777 53.9592 65.3273C53.6678 65.7084 53.2566 66.1922 53.0432 66.4023C52.8298 66.6076 52.4862 66.8959 52.2884 67.0474C52.0854 67.1989 51.7627 67.4139 51.5597 67.5214C51.3567 67.6338 51.0444 67.7755 50.8571 67.8439C50.6697 67.9074 50.3366 67.9954 50.1128 68.0394C49.8941 68.0834 49.6027 68.1176 49.4673 68.1176C49.3268 68.1176 49.0041 68.0834 48.7491 68.0443C48.494 68.0003 48.1036 67.8928 47.8902 67.8048C47.6768 67.7217 47.3489 67.5507 47.1615 67.4334C46.9742 67.3161 46.6358 67.0571 46.4068 66.8519C46.1778 66.6515 45.8134 66.2753 45.5948 66.0163C45.3762 65.7622 45.09 65.3859 44.9494 65.1855C44.8141 64.9852 44.4706 64.433 44.1947 63.9638C43.9136 63.4947 43.414 62.5956 43.0808 61.975C42.7477 61.3495 42.2116 60.2793 41.8837 59.6049C41.561 58.9256 41.0561 57.831 40.7698 57.1713C40.4836 56.5116 40.0255 55.4268 39.7549 54.7524C39.479 54.0829 39.0574 52.9932 38.818 52.3335C38.5733 51.6738 38.1934 50.6084 37.9748 49.9634C37.7561 49.3184 37.3918 48.1749 37.1576 47.4223C36.9286 46.6698 36.6267 45.6045 36.4861 45.0523C36.3404 44.5001 36.1322 43.6449 36.0229 43.1464C35.9084 42.648 35.747 41.8466 35.6637 41.3628C35.5753 40.879 35.4607 40.0776 35.4035 39.5791C35.3254 38.9439 35.2942 38.333 35.2942 37.5267C35.2942 36.8963 35.315 36.0802 35.341 35.7186C35.3723 35.357 35.4555 34.6875 35.5336 34.2282C35.6065 33.7737 35.7678 33.0114 35.8928 32.5423C36.0177 32.0731 36.2519 31.345 36.4081 30.9297C36.5642 30.5143 36.8297 29.8741 37.0014 29.5125C37.1784 29.1509 37.5115 28.5352 37.7457 28.1442C37.98 27.7533 38.3599 27.1816 38.5889 26.8737C38.8232 26.5658 39.25 26.0478 39.5362 25.7253C39.8277 25.4028 40.2858 24.9483 40.5564 24.7138C40.8271 24.4841 41.2331 24.1518 41.4621 23.9808C41.6911 23.8048 42.1335 23.5019 42.451 23.3064C42.7685 23.1109 43.2734 22.8373 43.5857 22.6907C43.8928 22.5441 44.4185 22.3291 44.7516 22.2069C45.09 22.0896 45.6469 21.9284 45.9904 21.8453C46.3339 21.7671 46.8961 21.6694 47.2396 21.6254C47.5831 21.5814 47.9683 21.5423 48.0984 21.5325C48.2286 21.5276 48.5773 21.5276 48.8792 21.5374ZM47.1355 29.3366C46.9065 29.5516 46.5994 29.8986 46.4537 30.0989C46.3027 30.2993 46.0685 30.6756 45.9227 30.9297C45.777 31.1838 45.5532 31.6382 45.4231 31.9315C45.2982 32.2295 45.1108 32.7329 45.0119 33.0554C44.9078 33.3779 44.7672 33.9301 44.6944 34.2771C44.6215 34.6289 44.5278 35.2544 44.4758 35.6698C44.4133 36.266 44.3977 36.7204 44.4185 37.7955C44.4393 38.7875 44.4758 39.369 44.5538 39.9114C44.6163 40.317 44.7204 40.9474 44.7985 41.3042C44.8713 41.656 45.0015 42.2033 45.09 42.5112C45.1784 42.819 45.3502 43.3615 45.4803 43.7084C45.6052 44.0603 45.8759 44.6613 46.0737 45.0523C46.2767 45.4432 46.589 45.971 46.7712 46.2251C46.9533 46.4792 47.2396 46.8408 47.4062 47.0265C47.5727 47.2073 47.885 47.4956 48.0984 47.6569C48.3118 47.8182 48.6658 48.0283 48.8792 48.1211C49.155 48.2482 49.3684 48.3019 49.6079 48.3215C49.8994 48.341 49.9878 48.3264 50.2325 48.214C50.4042 48.1358 50.6541 47.955 50.8675 47.7546C51.0549 47.5738 51.3203 47.2709 51.4556 47.0803C51.591 46.8946 51.8252 46.4939 51.9761 46.2007C52.1323 45.9075 52.3717 45.3357 52.5175 44.9301C52.658 44.5294 52.8402 43.9332 52.913 43.6107C52.9911 43.2882 53.0952 42.7506 53.1473 42.4135C53.1993 42.0763 53.2722 41.4312 53.3086 40.9719C53.345 40.4734 53.3555 39.7893 53.3398 39.2615C53.319 38.7778 53.2826 38.1523 53.2514 37.8688C53.2201 37.5854 53.1368 37.0283 53.0692 36.6227C52.9963 36.222 52.8714 35.6258 52.7881 35.3033C52.7048 34.9808 52.5435 34.453 52.429 34.1305C52.3145 33.808 52.1011 33.2802 51.9553 32.9577C51.8096 32.6351 51.5441 32.122 51.3672 31.824C51.185 31.521 50.8883 31.0714 50.7009 30.8222C50.5135 30.5778 50.196 30.1967 49.993 29.9817C49.7953 29.7618 49.4413 29.4441 49.2123 29.2731C48.9885 29.1021 48.6814 28.9066 48.5409 28.8479C48.3951 28.7844 48.2129 28.7307 48.1245 28.7355C48.036 28.7355 47.8746 28.7795 47.7601 28.8382C47.6456 28.8919 47.3645 29.1167 47.1355 29.3366Z" fill="#FF0000"/>
<g filter="url(#filter0_i_409_2560)">
<path fill-rule="evenodd" clip-rule="evenodd" d="M48.8792 21.5374C49.1811 21.5423 49.6703 21.5716 49.9722 21.6009C50.2741 21.6303 50.7894 21.7085 51.1173 21.7769C51.4452 21.8453 51.9397 21.9723 52.2104 22.0603C52.481 22.1483 52.9286 22.3095 53.1993 22.417C53.47 22.5245 53.9072 22.7249 54.1622 22.8568C54.4173 22.9888 54.8441 23.2233 55.0991 23.3797C55.3542 23.5361 55.7914 23.8293 56.062 24.0297C56.3327 24.2349 56.7647 24.577 57.0198 24.792C57.2696 25.0119 57.7068 25.4321 57.9879 25.7253C58.2637 26.0186 58.6645 26.473 58.8727 26.7271C59.0757 26.9812 59.5077 27.5872 59.8304 28.071C60.1584 28.5645 60.6164 29.3464 60.8714 29.8546C61.1265 30.3531 61.47 31.1105 61.6366 31.5405C61.8083 31.9706 62.0426 32.6401 62.1571 33.031C62.2716 33.4219 62.4485 34.111 62.5474 34.5703C62.6463 35.0297 62.7765 35.7529 62.8337 36.1829C62.891 36.613 62.9586 37.3851 62.9847 37.8933C63.0107 38.4357 63.0055 39.2518 62.9795 39.848C62.9534 40.4148 62.8702 41.358 62.7973 41.9492C62.7244 42.5405 62.5631 43.5863 62.4329 44.2704C62.3028 44.9546 62.0582 46.0736 61.8864 46.7529C61.7198 47.4272 61.3087 48.8395 60.9807 49.8901C60.5539 51.2487 60.1427 52.4068 59.5546 53.9363C59.0965 55.1092 58.3939 56.8195 57.9983 57.7333C57.5975 58.6471 56.9677 60.0007 56.6034 60.7386C56.239 61.4765 55.6092 62.6542 55.2136 63.353C54.7452 64.1642 54.2924 64.8777 53.9592 65.3273C53.6678 65.7084 53.2566 66.1922 53.0432 66.4023C52.8298 66.6076 52.4862 66.8959 52.2884 67.0474C52.0854 67.1989 51.7627 67.4139 51.5597 67.5214C51.3567 67.6338 51.0444 67.7755 50.8571 67.8439C50.6697 67.9074 50.3366 67.9954 50.1128 68.0394C49.8941 68.0834 49.6027 68.1176 49.4673 68.1176C49.3268 68.1176 49.0041 68.0834 48.7491 68.0443C48.494 68.0003 48.1036 67.8928 47.8902 67.8048C47.6768 67.7217 47.3489 67.5507 47.1615 67.4334C46.9742 67.3161 46.6358 67.0571 46.4068 66.8519C46.1778 66.6515 45.8134 66.2753 45.5948 66.0163C45.3762 65.7622 45.09 65.3859 44.9494 65.1855C44.8141 64.9852 44.4706 64.433 44.1947 63.9638C43.9136 63.4947 43.414 62.5956 43.0808 61.975C42.7477 61.3495 42.2116 60.2793 41.8837 59.6049C41.561 58.9256 41.0561 57.831 40.7698 57.1713C40.4836 56.5116 40.0255 55.4268 39.7549 54.7524C39.479 54.0829 39.0574 52.9932 38.818 52.3335C38.5733 51.6738 38.1934 50.6084 37.9748 49.9634C37.7561 49.3184 37.3918 48.1749 37.1576 47.4223C36.9286 46.6698 36.6267 45.6045 36.4861 45.0523C36.3404 44.5001 36.1322 43.6449 36.0229 43.1464C35.9084 42.648 35.747 41.8466 35.6637 41.3628C35.5753 40.879 35.4607 40.0776 35.4035 39.5791C35.3254 38.9439 35.2942 38.333 35.2942 37.5267C35.2942 36.8963 35.315 36.0802 35.341 35.7186C35.3723 35.357 35.4555 34.6875 35.5336 34.2282C35.6065 33.7737 35.7678 33.0114 35.8928 32.5423C36.0177 32.0731 36.2519 31.345 36.4081 30.9297C36.5642 30.5143 36.8297 29.8741 37.0014 29.5125C37.1784 29.1509 37.5115 28.5352 37.7457 28.1442C37.98 27.7533 38.3599 27.1816 38.5889 26.8737C38.8232 26.5658 39.25 26.0478 39.5362 25.7253C39.8277 25.4028 40.2858 24.9483 40.5564 24.7138C40.8271 24.4841 41.2331 24.1518 41.4621 23.9808C41.6911 23.8048 42.1335 23.5019 42.451 23.3064C42.7685 23.1109 43.2734 22.8373 43.5857 22.6907C43.8928 22.5441 44.4185 22.3291 44.7516 22.2069C45.09 22.0896 45.6469 21.9284 45.9904 21.8453C46.3339 21.7671 46.8961 21.6694 47.2396 21.6254C47.5831 21.5814 47.9683 21.5423 48.0984 21.5325C48.2286 21.5276 48.5773 21.5276 48.8792 21.5374ZM47.1355 29.3366C46.9065 29.5516 46.5994 29.8986 46.4537 30.0989C46.3027 30.2993 46.0685 30.6756 45.9227 30.9297C45.777 31.1838 45.5532 31.6382 45.4231 31.9315C45.2982 32.2295 45.1108 32.7329 45.0119 33.0554C44.9078 33.3779 44.7672 33.9301 44.6944 34.2771C44.6215 34.6289 44.5278 35.2544 44.4758 35.6698C44.4133 36.266 44.3977 36.7204 44.4185 37.7955C44.4393 38.7875 44.4758 39.369 44.5538 39.9114C44.6163 40.317 44.7204 40.9474 44.7985 41.3042C44.8713 41.656 45.0015 42.2033 45.09 42.5112C45.1784 42.819 45.3502 43.3615 45.4803 43.7084C45.6052 44.0603 45.8759 44.6613 46.0737 45.0523C46.2767 45.4432 46.589 45.971 46.7712 46.2251C46.9533 46.4792 47.2396 46.8408 47.4062 47.0265C47.5727 47.2073 47.885 47.4956 48.0984 47.6569C48.3118 47.8182 48.6658 48.0283 48.8792 48.1211C49.155 48.2482 49.3684 48.3019 49.6079 48.3215C49.8994 48.341 49.9878 48.3264 50.2325 48.214C50.4042 48.1358 50.6541 47.955 50.8675 47.7546C51.0549 47.5738 51.3203 47.2709 51.4556 47.0803C51.591 46.8946 51.8252 46.4939 51.9761 46.2007C52.1323 45.9075 52.3717 45.3357 52.5175 44.9301C52.658 44.5294 52.8402 43.9332 52.913 43.6107C52.9911 43.2882 53.0952 42.7506 53.1473 42.4135C53.1993 42.0763 53.2722 41.4312 53.3086 40.9719C53.345 40.4734 53.3555 39.7893 53.3398 39.2615C53.319 38.7778 53.2826 38.1523 53.2514 37.8688C53.2201 37.5854 53.1368 37.0283 53.0692 36.6227C52.9963 36.222 52.8714 35.6258 52.7881 35.3033C52.7048 34.9808 52.5435 34.453 52.429 34.1305C52.3145 33.808 52.1011 33.2802 51.9553 32.9577C51.8096 32.6351 51.5441 32.122 51.3672 31.824C51.185 31.521 50.8883 31.0714 50.7009 30.8222C50.5135 30.5778 50.196 30.1967 49.993 29.9817C49.7953 29.7618 49.4413 29.4441 49.2123 29.2731C48.9885 29.1021 48.6814 28.9066 48.5409 28.8479C48.3951 28.7844 48.2129 28.7307 48.1245 28.7355C48.036 28.7355 47.8746 28.7795 47.7601 28.8382C47.6456 28.8919 47.3645 29.1167 47.1355 29.3366Z" fill="url(#paint0_linear_409_2560)" style="mix-blend-mode:plus-lighter"/>
<path fill-rule="evenodd" clip-rule="evenodd" d="M48.8792 21.5374C49.1811 21.5423 49.6703 21.5716 49.9722 21.6009C50.2741 21.6303 50.7894 21.7085 51.1173 21.7769C51.4452 21.8453 51.9397 21.9723 52.2104 22.0603C52.481 22.1483 52.9286 22.3095 53.1993 22.417C53.47 22.5245 53.9072 22.7249 54.1622 22.8568C54.4173 22.9888 54.8441 23.2233 55.0991 23.3797C55.3542 23.5361 55.7914 23.8293 56.062 24.0297C56.3327 24.2349 56.7647 24.577 57.0198 24.792C57.2696 25.0119 57.7068 25.4321 57.9879 25.7253C58.2637 26.0186 58.6645 26.473 58.8727 26.7271C59.0757 26.9812 59.5077 27.5872 59.8304 28.071C60.1584 28.5645 60.6164 29.3464 60.8714 29.8546C61.1265 30.3531 61.47 31.1105 61.6366 31.5405C61.8083 31.9706 62.0426 32.6401 62.1571 33.031C62.2716 33.4219 62.4485 34.111 62.5474 34.5703C62.6463 35.0297 62.7765 35.7529 62.8337 36.1829C62.891 36.613 62.9586 37.3851 62.9847 37.8933C63.0107 38.4357 63.0055 39.2518 62.9795 39.848C62.9534 40.4148 62.8702 41.358 62.7973 41.9492C62.7244 42.5405 62.5631 43.5863 62.4329 44.2704C62.3028 44.9546 62.0582 46.0736 61.8864 46.7529C61.7198 47.4272 61.3087 48.8395 60.9807 49.8901C60.5539 51.2487 60.1427 52.4068 59.5546 53.9363C59.0965 55.1092 58.3939 56.8195 57.9983 57.7333C57.5975 58.6471 56.9677 60.0007 56.6034 60.7386C56.239 61.4765 55.6092 62.6542 55.2136 63.353C54.7452 64.1642 54.2924 64.8777 53.9592 65.3273C53.6678 65.7084 53.2566 66.1922 53.0432 66.4023C52.8298 66.6076 52.4862 66.8959 52.2884 67.0474C52.0854 67.1989 51.7627 67.4139 51.5597 67.5214C51.3567 67.6338 51.0444 67.7755 50.8571 67.8439C50.6697 67.9074 50.3366 67.9954 50.1128 68.0394C49.8941 68.0834 49.6027 68.1176 49.4673 68.1176C49.3268 68.1176 49.0041 68.0834 48.7491 68.0443C48.494 68.0003 48.1036 67.8928 47.8902 67.8048C47.6768 67.7217 47.3489 67.5507 47.1615 67.4334C46.9742 67.3161 46.6358 67.0571 46.4068 66.8519C46.1778 66.6515 45.8134 66.2753 45.5948 66.0163C45.3762 65.7622 45.09 65.3859 44.9494 65.1855C44.8141 64.9852 44.4706 64.433 44.1947 63.9638C43.9136 63.4947 43.414 62.5956 43.0808 61.975C42.7477 61.3495 42.2116 60.2793 41.8837 59.6049C41.561 58.9256 41.0561 57.831 40.7698 57.1713C40.4836 56.5116 40.0255 55.4268 39.7549 54.7524C39.479 54.0829 39.0574 52.9932 38.818 52.3335C38.5733 51.6738 38.1934 50.6084 37.9748 49.9634C37.7561 49.3184 37.3918 48.1749 37.1576 47.4223C36.9286 46.6698 36.6267 45.6045 36.4861 45.0523C36.3404 44.5001 36.1322 43.6449 36.0229 43.1464C35.9084 42.648 35.747 41.8466 35.6637 41.3628C35.5753 40.879 35.4607 40.0776 35.4035 39.5791C35.3254 38.9439 35.2942 38.333 35.2942 37.5267C35.2942 36.8963 35.315 36.0802 35.341 35.7186C35.3723 35.357 35.4555 34.6875 35.5336 34.2282C35.6065 33.7737 35.7678 33.0114 35.8928 32.5423C36.0177 32.0731 36.2519 31.345 36.4081 30.9297C36.5642 30.5143 36.8297 29.8741 37.0014 29.5125C37.1784 29.1509 37.5115 28.5352 37.7457 28.1442C37.98 27.7533 38.3599 27.1816 38.5889 26.8737C38.8232 26.5658 39.25 26.0478 39.5362 25.7253C39.8277 25.4028 40.2858 24.9483 40.5564 24.7138C40.8271 24.4841 41.2331 24.1518 41.4621 23.9808C41.6911 23.8048 42.1335 23.5019 42.451 23.3064C42.7685 23.1109 43.2734 22.8373 43.5857 22.6907C43.8928 22.5441 44.4185 22.3291 44.7516 22.2069C45.09 22.0896 45.6469 21.9284 45.9904 21.8453C46.3339 21.7671 46.8961 21.6694 47.2396 21.6254C47.5831 21.5814 47.9683 21.5423 48.0984 21.5325C48.2286 21.5276 48.5773 21.5276 48.8792 21.5374ZM47.1355 29.3366C46.9065 29.5516 46.5994 29.8986 46.4537 30.0989C46.3027 30.2993 46.0685 30.6756 45.9227 30.9297C45.777 31.1838 45.5532 31.6382 45.4231 31.9315C45.2982 32.2295 45.1108 32.7329 45.0119 33.0554C44.9078 33.3779 44.7672 33.9301 44.6944 34.2771C44.6215 34.6289 44.5278 35.2544 44.4758 35.6698C44.4133 36.266 44.3977 36.7204 44.4185 37.7955C44.4393 38.7875 44.4758 39.369 44.5538 39.9114C44.6163 40.317 44.7204 40.9474 44.7985 41.3042C44.8713 41.656 45.0015 42.2033 45.09 42.5112C45.1784 42.819 45.3502 43.3615 45.4803 43.7084C45.6052 44.0603 45.8759 44.6613 46.0737 45.0523C46.2767 45.4432 46.589 45.971 46.7712 46.2251C46.9533 46.4792 47.2396 46.8408 47.4062 47.0265C47.5727 47.2073 47.885 47.4956 48.0984 47.6569C48.3118 47.8182 48.6658 48.0283 48.8792 48.1211C49.155 48.2482 49.3684 48.3019 49.6079 48.3215C49.8994 48.341 49.9878 48.3264 50.2325 48.214C50.4042 48.1358 50.6541 47.955 50.8675 47.7546C51.0549 47.5738 51.3203 47.2709 51.4556 47.0803C51.591 46.8946 51.8252 46.4939 51.9761 46.2007C52.1323 45.9075 52.3717 45.3357 52.5175 44.9301C52.658 44.5294 52.8402 43.9332 52.913 43.6107C52.9911 43.2882 53.0952 42.7506 53.1473 42.4135C53.1993 42.0763 53.2722 41.4312 53.3086 40.9719C53.345 40.4734 53.3555 39.7893 53.3398 39.2615C53.319 38.7778 53.2826 38.1523 53.2514 37.8688C53.2201 37.5854 53.1368 37.0283 53.0692 36.6227C52.9963 36.222 52.8714 35.6258 52.7881 35.3033C52.7048 34.9808 52.5435 34.453 52.429 34.1305C52.3145 33.808 52.1011 33.2802 51.9553 32.9577C51.8096 32.6351 51.5441 32.122 51.3672 31.824C51.185 31.521 50.8883 31.0714 50.7009 30.8222C50.5135 30.5778 50.196 30.1967 49.993 29.9817C49.7953 29.7618 49.4413 29.4441 49.2123 29.2731C48.9885 29.1021 48.6814 28.9066 48.5409 28.8479C48.3951 28.7844 48.2129 28.7307 48.1245 28.7355C48.036 28.7355 47.8746 28.7795 47.7601 28.8382C47.6456 28.8919 47.3645 29.1167 47.1355 29.3366Z" fill="#1F2E7E" fill-opacity="0.2" style="mix-blend-mode:color-dodge"/>
</g>
<g filter="url(#filter1_i_409_2560)">
<path fill-rule="evenodd" clip-rule="evenodd" d="M48.8792 21.5374C49.1811 21.5423 49.6703 21.5716 49.9722 21.6009C50.2741 21.6303 50.7894 21.7085 51.1173 21.7769C51.4452 21.8453 51.9397 21.9723 52.2104 22.0603C52.481 22.1483 52.9286 22.3095 53.1993 22.417C53.47 22.5245 53.9072 22.7249 54.1622 22.8568C54.4173 22.9888 54.8441 23.2233 55.0991 23.3797C55.3542 23.5361 55.7914 23.8293 56.062 24.0297C56.3327 24.2349 56.7647 24.577 57.0198 24.792C57.2696 25.0119 57.7068 25.4321 57.9879 25.7253C58.2637 26.0186 58.6645 26.473 58.8727 26.7271C59.0757 26.9812 59.5077 27.5872 59.8304 28.071C60.1584 28.5645 60.6164 29.3464 60.8714 29.8546C61.1265 30.3531 61.47 31.1105 61.6366 31.5405C61.8083 31.9706 62.0426 32.6401 62.1571 33.031C62.2716 33.4219 62.4485 34.111 62.5474 34.5703C62.6463 35.0297 62.7765 35.7529 62.8337 36.1829C62.891 36.613 62.9586 37.3851 62.9847 37.8933C63.0107 38.4357 63.0055 39.2518 62.9795 39.848C62.9534 40.4148 62.8702 41.358 62.7973 41.9492C62.7244 42.5405 62.5631 43.5863 62.4329 44.2704C62.3028 44.9546 62.0582 46.0736 61.8864 46.7529C61.7198 47.4272 61.3087 48.8395 60.9807 49.8901C60.5539 51.2487 60.1427 52.4068 59.5546 53.9363C59.0965 55.1092 58.3939 56.8195 57.9983 57.7333C57.5975 58.6471 56.9677 60.0007 56.6034 60.7386C56.239 61.4765 55.6092 62.6542 55.2136 63.353C54.7452 64.1642 54.2924 64.8777 53.9592 65.3273C53.6678 65.7084 53.2566 66.1922 53.0432 66.4023C52.8298 66.6076 52.4862 66.8959 52.2884 67.0474C52.0854 67.1989 51.7627 67.4139 51.5597 67.5214C51.3567 67.6338 51.0444 67.7755 50.8571 67.8439C50.6697 67.9074 50.3366 67.9954 50.1128 68.0394C49.8941 68.0834 49.6027 68.1176 49.4673 68.1176C49.3268 68.1176 49.0041 68.0834 48.7491 68.0443C48.494 68.0003 48.1036 67.8928 47.8902 67.8048C47.6768 67.7217 47.3489 67.5507 47.1615 67.4334C46.9742 67.3161 46.6358 67.0571 46.4068 66.8519C46.1778 66.6515 45.8134 66.2753 45.5948 66.0163C45.3762 65.7622 45.09 65.3859 44.9494 65.1855C44.8141 64.9852 44.4706 64.433 44.1947 63.9638C43.9136 63.4947 43.414 62.5956 43.0808 61.975C42.7477 61.3495 42.2116 60.2793 41.8837 59.6049C41.561 58.9256 41.0561 57.831 40.7698 57.1713C40.4836 56.5116 40.0255 55.4268 39.7549 54.7524C39.479 54.0829 39.0574 52.9932 38.818 52.3335C38.5733 51.6738 38.1934 50.6084 37.9748 49.9634C37.7561 49.3184 37.3918 48.1749 37.1576 47.4223C36.9286 46.6698 36.6267 45.6045 36.4861 45.0523C36.3404 44.5001 36.1322 43.6449 36.0229 43.1464C35.9084 42.648 35.747 41.8466 35.6637 41.3628C35.5753 40.879 35.4607 40.0776 35.4035 39.5791C35.3254 38.9439 35.2942 38.333 35.2942 37.5267C35.2942 36.8963 35.315 36.0802 35.341 35.7186C35.3723 35.357 35.4555 34.6875 35.5336 34.2282C35.6065 33.7737 35.7678 33.0114 35.8928 32.5423C36.0177 32.0731 36.2519 31.345 36.4081 30.9297C36.5642 30.5143 36.8297 29.8741 37.0014 29.5125C37.1784 29.1509 37.5115 28.5352 37.7457 28.1442C37.98 27.7533 38.3599 27.1816 38.5889 26.8737C38.8232 26.5658 39.25 26.0478 39.5362 25.7253C39.8277 25.4028 40.2858 24.9483 40.5564 24.7138C40.8271 24.4841 41.2331 24.1518 41.4621 23.9808C41.6911 23.8048 42.1335 23.5019 42.451 23.3064C42.7685 23.1109 43.2734 22.8373 43.5857 22.6907C43.8928 22.5441 44.4185 22.3291 44.7516 22.2069C45.09 22.0896 45.6469 21.9284 45.9904 21.8453C46.3339 21.7671 46.8961 21.6694 47.2396 21.6254C47.5831 21.5814 47.9683 21.5423 48.0984 21.5325C48.2286 21.5276 48.5773 21.5276 48.8792 21.5374ZM47.1355 29.3366C46.9065 29.5516 46.5994 29.8986 46.4537 30.0989C46.3027 30.2993 46.0685 30.6756 45.9227 30.9297C45.777 31.1838 45.5532 31.6382 45.4231 31.9315C45.2982 32.2295 45.1108 32.7329 45.0119 33.0554C44.9078 33.3779 44.7672 33.9301 44.6944 34.2771C44.6215 34.6289 44.5278 35.2544 44.4758 35.6698C44.4133 36.266 44.3977 36.7204 44.4185 37.7955C44.4393 38.7875 44.4758 39.369 44.5538 39.9114C44.6163 40.317 44.7204 40.9474 44.7985 41.3042C44.8713 41.656 45.0015 42.2033 45.09 42.5112C45.1784 42.819 45.3502 43.3615 45.4803 43.7084C45.6052 44.0603 45.8759 44.6613 46.0737 45.0523C46.2767 45.4432 46.589 45.971 46.7712 46.2251C46.9533 46.4792 47.2396 46.8408 47.4062 47.0265C47.5727 47.2073 47.885 47.4956 48.0984 47.6569C48.3118 47.8182 48.6658 48.0283 48.8792 48.1211C49.155 48.2482 49.3684 48.3019 49.6079 48.3215C49.8994 48.341 49.9878 48.3264 50.2325 48.214C50.4042 48.1358 50.6541 47.955 50.8675 47.7546C51.0549 47.5738 51.3203 47.2709 51.4556 47.0803C51.591 46.8946 51.8252 46.4939 51.9761 46.2007C52.1323 45.9075 52.3717 45.3357 52.5175 44.9301C52.658 44.5294 52.8402 43.9332 52.913 43.6107C52.9911 43.2882 53.0952 42.7506 53.1473 42.4135C53.1993 42.0763 53.2722 41.4312 53.3086 40.9719C53.345 40.4734 53.3555 39.7893 53.3398 39.2615C53.319 38.7778 53.2826 38.1523 53.2514 37.8688C53.2201 37.5854 53.1368 37.0283 53.0692 36.6227C52.9963 36.222 52.8714 35.6258 52.7881 35.3033C52.7048 34.9808 52.5435 34.453 52.429 34.1305C52.3145 33.808 52.1011 33.2802 51.9553 32.9577C51.8096 32.6351 51.5441 32.122 51.3672 31.824C51.185 31.521 50.8883 31.0714 50.7009 30.8222C50.5135 30.5778 50.196 30.1967 49.993 29.9817C49.7953 29.7618 49.4413 29.4441 49.2123 29.2731C48.9885 29.1021 48.6814 28.9066 48.5409 28.8479C48.3951 28.7844 48.2129 28.7307 48.1245 28.7355C48.036 28.7355 47.8746 28.7795 47.7601 28.8382C47.6456 28.8919 47.3645 29.1167 47.1355 29.3366Z" fill="url(#paint1_linear_409_2560)" style="mix-blend-mode:color-dodge"/>
</g>
<path opacity="0.2" d="M37.9918 35.4416C37.8035 35.4416 37.6116 35.3956 37.4308 35.2953C36.7886 34.9444 36.5192 34.067 36.8329 33.3401C36.9289 33.1145 37.0248 32.8931 37.1245 32.68C37.4529 31.9614 38.2316 31.6815 38.8664 32.0533C39.5012 32.4251 39.7485 33.3067 39.42 34.0253C39.3314 34.2174 39.2429 34.418 39.158 34.6185C38.9365 35.1408 38.4752 35.4416 37.9954 35.4416H37.9918ZM41.1361 30.896C43.2176 27.7 45.3139 26.2628 45.3545 26.2377C45.9671 25.8283 46.1738 24.9342 45.8158 24.2407C45.4542 23.543 44.6644 23.3091 44.048 23.7143C43.9447 23.7812 41.4868 25.4314 39.0583 29.1581C38.6339 29.8098 38.7557 30.7248 39.3314 31.201C39.5639 31.3932 39.8297 31.4851 40.0991 31.4851C40.494 31.4851 40.8852 31.2804 41.1398 30.8919L41.1361 30.896Z" fill="#F8E8B4"/>
<path opacity="0.2" d="M48.5353 63.9376C46.1781 60.9391 45.4912 58.4921 45.4805 58.4456C45.2898 57.7338 44.5096 57.2507 43.7378 57.3667C42.9609 57.4849 42.4854 58.1575 42.671 58.8714C42.7011 58.9908 43.4735 61.8488 46.2216 65.3464C46.7023 65.9578 47.6078 66.1366 48.2439 65.7446C48.5006 65.5862 48.6731 65.3641 48.7597 65.109C48.8867 64.7351 48.8186 64.2988 48.5326 63.9328L48.5353 63.9376Z" fill="#F8E8B4"/>
<defs>
<filter id="filter0_i_409_2560" x="30.1177" y="21.5293" width="32.884" height="55.2158" filterUnits="userSpaceOnUse" color-interpolation-filters="sRGB">
<feFlood flood-opacity="0" result="BackgroundImageFix"/>
<feBlend mode="normal" in="SourceGraphic" in2="BackgroundImageFix" result="shape"/>
<feColorMatrix in="SourceAlpha" type="matrix" values="0 0 0 0 0 0 0 0 0 0 0 0 0 0 0 0 0 0 127 0" result="hardAlpha"/>
<feOffset dx="-5.17647" dy="8.62745"/>
<feGaussianBlur stdDeviation="21.5686"/>
<feComposite in2="hardAlpha" operator="arithmetic" k2="-1" k3="1"/>
<feColorMatrix type="matrix" values="0 0 0 0 0.980989 0 0 0 0 0.0724056 0 0 0 0 0.0724056 0 0 0 0.87 0"/>
<feBlend mode="lighten" in2="shape" result="effect1_innerShadow_409_2560"/>
</filter>
<filter id="filter1_i_409_2560" x="30.1177" y="21.5293" width="32.884" height="55.2158" filterUnits="userSpaceOnUse" color-interpolation-filters="sRGB">
<feFlood flood-opacity="0" result="BackgroundImageFix"/>
<feBlend mode="normal" in="SourceGraphic" in2="BackgroundImageFix" result="shape"/>
<feColorMatrix in="SourceAlpha" type="matrix" values="0 0 0 0 0 0 0 0 0 0 0 0 0 0 0 0 0 0 127 0" result="hardAlpha"/>
<feOffset dx="-5.17647" dy="8.62745"/>
<feGaussianBlur stdDeviation="21.5686"/>
<feComposite in2="hardAlpha" operator="arithmetic" k2="-1" k3="1"/>
<feColorMatrix type="matrix" values="0 0 0 0 0.980989 0 0 0 0 0.0724056 0 0 0 0 0.0724056 0 0 0 0.87 0"/>
<feBlend mode="lighten" in2="shape" result="effect1_innerShadow_409_2560"/>
</filter>
<linearGradient id="paint0_linear_409_2560" x1="60.7452" y1="71.3532" x2="44.9142" y2="71.4175" gradientUnits="userSpaceOnUse">
<stop stop-color="#FF6F6F"/>
<stop offset="0.635171" stop-color="#181818"/>
<stop offset="1" stop-color="#1D1D1D"/>
</linearGradient>
<linearGradient id="paint1_linear_409_2560" x1="44.353" y1="13.118" x2="54.5612" y2="19.2379" gradientUnits="userSpaceOnUse">
<stop stop-color="#FF6F6F"/>
<stop offset="0.635171" stop-color="#181818"/>
<stop offset="1" stop-color="#1D1D1D"/>
</linearGradient>
</defs>
</svg>
