<svg width="53" height="53" viewBox="0 0 53 53" fill="none" xmlns="http://www.w3.org/2000/svg">
<g id="Avatars">
<path id="Vector" d="M22.2517 5.73682C17.5619 6.57098 13.7085 8.70732 10.6914 12.1458C9.15257 13.8976 8.36607 15.6753 8.26857 17.9308C8.18515 19.8852 8.3964 21.7685 8.90232 23.5809" stroke="#A59EA1" stroke-width="3.25"/>
<path id="Vector_2" d="M8.90173 23.5808L9.37298 25.0108" stroke="#9F999D" stroke-width="3.25"/>
<path id="Vector_3" d="M9.37236 25.0107C7.80586 25.8379 7.64986 28.2851 8.30149 29.6989C9.04574 31.3141 11.0185 32.5036 12.8482 31.8162C12.8713 31.8078 12.8965 31.8079 12.9193 31.8166C12.942 31.8253 12.9607 31.8419 12.9717 31.8634C15.12 35.9437 18.3099 37.9961 22.6259 39.132C22.6469 39.1372 22.665 39.1501 22.6767 39.1681C22.6884 39.186 22.6929 39.2078 22.6893 39.2292C22.6856 39.2505 22.6741 39.2699 22.6569 39.2835C22.6398 39.2971 22.6183 39.3039 22.5966 39.3026C22.3431 39.2842 22.1416 39.3216 21.9921 39.4147" stroke="#FFE3D3" stroke-width="3.25"/>
<path id="Vector_4" d="M21.9926 39.4148C19.1115 39.7772 16.1621 41.0593 15.3366 44.0412C15.3212 44.0955 15.3272 44.1536 15.3536 44.2036C15.3799 44.2535 15.4245 44.2914 15.478 44.3093L17.0266 44.8374" stroke="#9BADC5" stroke-width="3.25"/>
<path id="Vector_5" d="M33.1673 39.9349L31.8007 39.5579" stroke="#92A7B9" stroke-width="3.25"/>
<path id="Vector_6" d="M31.802 39.5575L29.8488 39.2341" stroke="#FDC6BC" stroke-width="3.25"/>
<path id="Vector_7" d="M29.8488 39.2345L31.5534 38.7974" stroke="#FFE3D3" stroke-width="3.25"/>
<path id="Vector_8" d="M31.5531 38.7974C35.1281 37.6891 38.1977 35.3914 39.9267 32.026C39.9533 31.9748 39.9975 31.9351 40.0511 31.9141C40.1046 31.8932 40.1638 31.8925 40.2176 31.9123C41.7061 32.4615 43.3945 31.5548 44.259 30.3441C45.4745 28.646 45.2697 26.4669 43.6675 25.0515" stroke="#FDD4C5" stroke-width="3.25"/>
<path id="Vector_9" d="M43.6669 25.0514C44.4762 22.8002 44.8142 20.4786 44.6809 18.0866C44.5168 15.1161 43.0234 12.9029 40.984 11.0179C37.7481 8.02786 33.9126 6.22356 29.4774 5.60498" stroke="#969197" stroke-width="3.25"/>
<path id="Vector_10" d="M29.477 5.60499C27.0579 5.25941 24.6491 5.30328 22.2506 5.73661" stroke="#9F999D" stroke-width="3.25"/>
<path id="Vector_11" d="M29.478 5.60498C29.4791 5.65156 29.4926 5.70086 29.5186 5.75286C29.5295 5.77576 29.5461 5.79553 29.5668 5.81031C29.5876 5.82509 29.6118 5.8344 29.6372 5.83735C30.6951 5.94948 31.5872 6.14448 32.5119 6.71485C35.3654 8.46823 38.3375 11.6776 38.7177 15.173C38.8672 16.5445 38.2481 17.7535 36.7092 17.6024C36.0105 17.5341 35.432 17.1246 34.4472 17.3261C34.0735 17.4025 33.5974 17.6722 33.0562 17.6446C33.0032 17.6424 32.9517 17.6516 32.9019 17.6722C32.5812 17.8131 32.26 17.845 31.9382 17.7681C31.3419 17.6267 31.2281 16.9345 30.4644 17.6219C29.7743 18.2437 28.8957 18.4143 27.8286 18.1337" stroke="#362C36" stroke-width="3.25"/>
<path id="Vector_12" d="M27.8287 18.1338L27.0845 17.6381C27.0416 17.6098 26.9914 17.5948 26.9402 17.5951C26.8889 17.5954 26.839 17.6109 26.7969 17.6398C25.0565 18.8081 24.0896 18.917 22.424 17.5244C22.3849 17.4918 22.3355 17.4743 22.2849 17.4749C22.2342 17.4755 22.1855 17.4942 22.1477 17.5276C21.111 18.4441 20.3261 19.3282 18.8717 18.449C18.5836 18.2746 18.2943 18.1706 18.004 18.137C17.9371 18.1297 17.8694 18.1406 17.8079 18.1687C17.7465 18.1967 17.6935 18.2407 17.6546 18.2963C16.7186 19.6515 15.8834 20.5778 14.0569 20.3909C13.9994 20.3855 13.9561 20.4082 13.9269 20.4591L13.5369 21.1368" stroke="#9D6E64" stroke-width="3.25"/>
<path id="Vector_13" d="M13.5363 21.1367C12.7509 22.7726 12.3305 24.5075 12.2753 26.3416C12.2655 26.6536 12.1632 27.0111 12.1144 27.3247C12.1047 27.3876 12.0705 27.4076 12.012 27.3848C11.5505 27.211 11.037 26.0247 10.6942 25.3455C10.4 24.7637 9.89142 24.8921 9.37305 25.0107" stroke="#9F7D72" stroke-width="3.25"/>
<path id="Vector_14" d="M8.90173 23.5806C9.08482 23.5601 9.21427 23.7155 9.29011 24.047C9.29748 24.0808 9.31606 24.1109 9.34286 24.1326C9.36965 24.1542 9.40308 24.1661 9.43771 24.1663C9.47234 24.1665 9.50614 24.155 9.53363 24.1336C9.56111 24.1123 9.58066 24.0823 9.58911 24.0486C9.76028 23.3499 10.0279 22.7118 10.3919 22.1344C11.2358 20.7965 12.0521 19.4434 12.8407 18.0751C14.4186 15.3354 16.302 14.5099 19.3342 13.7169C23.5251 12.62 21.2647 7.89126 24.518 6.16876C24.5657 6.14385 24.5922 6.10485 24.5976 6.05176C24.6756 5.27176 22.4754 6.18826 22.2511 5.73651" stroke="#453840" stroke-width="3.25"/>
<path id="Vector_15" d="M43.6675 25.0514C42.3545 24.4956 41.9564 25.7257 41.5712 26.7381C41.5306 26.8421 41.4217 26.9429 41.3356 26.9949C41.3171 27.0059 41.2961 27.0124 41.2746 27.0137C41.253 27.015 41.2314 27.0112 41.2117 27.0024C41.1919 26.9936 41.1746 26.9803 41.1611 26.9634C41.1476 26.9465 41.1383 26.9267 41.1341 26.9055C40.9575 26.0431 40.8281 25.1721 40.7457 24.2925C40.6677 23.4605 40.411 23.025 39.7431 22.6009C39.6922 22.5694 39.6537 22.5266 39.6277 22.4725C39.3547 21.9211 39.1884 21.3377 39.1289 20.7224C39.1207 20.6349 39.0793 20.5538 39.0132 20.4955C38.9471 20.4373 38.8612 20.4062 38.773 20.4087C36.7921 20.4754 36.4639 19.8627 35.6205 18.2589C35.5817 18.1848 35.5183 18.1265 35.4412 18.0942C35.364 18.0618 35.278 18.0574 35.198 18.0817C34.2896 18.3531 33.5242 19.06 32.5054 18.6814C31.8749 18.4474 31.3532 17.0954 30.6334 17.695C29.7439 18.4371 28.809 18.5833 27.8286 18.1337" stroke="#94675D" stroke-width="3.25"/>
<path id="Vector_16" d="M36.3325 22.0529C35.0704 20.6804 33.5288 20.0396 31.7077 20.1306C29.9885 20.2167 30.1786 22.3779 31.5972 22.3584C31.7435 22.3563 32.0555 22.2745 32.5332 22.1131" stroke="#998279" stroke-width="3.25"/>
<path id="Vector_17" d="M35.7464 25.4919C35.3813 25.0467 34.9431 24.7477 34.4318 24.5949C34.3754 24.5787 34.3191 24.5798 34.2628 24.5982L33.9865 24.6908C33.9345 24.7081 33.8814 24.7163 33.8273 24.7152C33.3538 24.7011 33.0814 24.798 33.0099 25.006" stroke="#FFE3D3" stroke-width="3.25"/>
<path id="Vector_18" d="M33.0102 25.0059C29.6237 27.3394 32.8981 32.9472 35.2966 29.7005" stroke="#8A6D60" stroke-width="3.25"/>
<path id="Vector_19" d="M35.2966 29.7004C35.367 29.7568 35.4738 29.7963 35.6168 29.8191" stroke="#FFE3D3" stroke-width="3.25"/>
<path id="Vector_20" d="M35.212 30.9045C34.1444 31.1613 31.9783 32.6254 33.6358 33.8084C34.249 34.2472 34.9867 34.3615 35.849 34.1513" stroke="#FEAB90" stroke-width="3.25"/>
<path id="Vector_21" d="M29.8481 39.2341L29.3362 39.291" stroke="#FEAB90" stroke-width="3.25"/>
<path id="Vector_22" d="M29.3362 39.2913C27.5183 39.5068 25.6956 39.5128 23.868 39.3091" stroke="#FB937E" stroke-width="3.25"/>
<path id="Vector_23" d="M23.8681 39.3089L22.8671 39.2731C22.8151 39.271 22.7712 39.2878 22.7355 39.3235C22.6098 39.4481 22.4706 39.5153 22.3178 39.525C22.2706 39.5281 22.2257 39.5462 22.1896 39.5767C22.1535 39.6072 22.1281 39.6485 22.1172 39.6945C22.1063 39.7405 22.1104 39.7888 22.129 39.8323C22.1475 39.8758 22.1796 39.9122 22.2203 39.9361C23.4673 40.6706 24.7727 41.3965 26.1366 42.1136C26.4605 42.2837 27.1224 42.8595 28.1223 43.841" stroke="#FEAB90" stroke-width="3.25"/>
<path id="Vector_24" d="M28.1226 43.8412C26.9234 44.0958 25.6759 44.0433 24.3802 43.6836" stroke="#938C8D" stroke-width="3.25"/>
<path id="Vector_25" d="M24.38 43.6837C22.9337 43.2319 21.2632 42.0115 21.1544 40.3833C21.1349 40.093 21.1972 39.8812 21.3412 39.7479C21.4907 39.6103 21.7079 39.4993 21.9929 39.4148" stroke="#9B9199" stroke-width="3.25"/>
<path id="Vector_26" d="M31.5526 38.7972C31.5016 38.7745 31.4583 38.7306 31.4226 38.6656C31.3976 38.6212 31.4096 38.5903 31.4583 38.573C33.5448 37.8667 35.0615 36.519 36.0083 34.53C36.0993 34.3382 36.0359 34.2229 35.8491 34.1514" stroke="#FDB899" stroke-width="3.25"/>
<path id="Vector_27" d="M35.8495 34.1514C37.2942 33.8264 38.7112 32.749 38.9744 31.2247C39.0275 30.9203 38.9083 30.7508 38.6169 30.7161C37.4762 30.5818 36.3414 30.6446 35.2125 30.9046" stroke="#FC9C82" stroke-width="3.25"/>
<path id="Vector_28" d="M35.2114 30.9046C35.1172 30.4864 35.2521 30.1246 35.6161 29.8191" stroke="#FDB899" stroke-width="3.25"/>
<path id="Vector_29" d="M35.6172 29.8193C36.5164 28.346 36.5597 26.9035 35.7472 25.4919" stroke="#FDD4C5" stroke-width="3.25"/>
<path id="Vector_30" d="M35.7472 25.4917C35.505 24.5297 35.1134 24.3265 34.2782 23.9138C34.2381 23.8943 34.2224 23.8629 34.231 23.8195C34.2457 23.7529 33.4494 23.1403 33.3292 23.0249C33.0074 22.7178 32.4793 22.838 32.2534 22.5195C32.2198 22.4719 32.2296 22.435 32.2827 22.409C32.4213 22.3397 32.5047 22.2411 32.5329 22.1133" stroke="#FDB899" stroke-width="3.25"/>
<path id="Vector_31" d="M32.5326 22.1131C34.0081 21.9457 35.3146 22.82 36.5577 23.5415C36.783 23.6726 36.9331 23.613 37.0078 23.3627C37.1151 23.002 36.5837 22.3682 36.3318 22.053" stroke="#97736B" stroke-width="3.25"/>
<path id="Vector_32" d="M36.3313 22.0534C36.2869 21.9061 36.1975 21.7853 36.0632 21.691C36.0209 21.6618 35.9987 21.6206 35.9965 21.5675C35.9787 21.145 34.4105 20.43 34.1522 20.3147C33.6484 20.0888 32.9123 19.9962 32.3045 19.6809C32.2926 19.6744 32.285 19.6657 32.2818 19.6549C32.2796 19.6495 32.2785 19.6435 32.2785 19.637C32.2753 19.6099 32.2639 19.5932 32.2444 19.5867C30.9525 19.1154 29.4835 19.7475 28.3444 19.1885C28.0617 19.0499 27.728 18.8451 27.3434 18.5743C27.2979 18.5429 27.2497 18.538 27.1988 18.5597C26.2823 18.9513 25.7785 19.4989 24.6979 19.5054C23.8675 19.5087 23.2127 18.9139 22.3677 19.0975C21.8 19.2199 21.2735 19.4507 20.7882 19.7898C20.7752 19.7974 20.7746 19.8066 20.7865 19.8174L20.8207 19.8466C20.8337 19.8575 20.832 19.8651 20.8158 19.8694C20.2611 20.0178 19.7985 19.9079 19.428 19.5395C18.5018 18.6165 17.465 20.1148 16.6818 20.5535C16.2279 20.8081 15.7485 21.0042 15.2437 21.1418C13.9697 21.4863 13.604 22.0046 13.0922 23.1925C13.0916 23.1942 13.0908 23.1958 13.0896 23.1972C13.0885 23.1986 13.0871 23.1997 13.0855 23.2005C13.0839 23.2014 13.0822 23.2019 13.0804 23.202C13.0786 23.2022 13.0768 23.202 13.0751 23.2015C13.0734 23.2009 13.0718 23.2001 13.0704 23.1989C13.0691 23.1978 13.0679 23.1964 13.0671 23.1948C13.0663 23.1932 13.0658 23.1915 13.0656 23.1897C13.0654 23.1879 13.0656 23.1861 13.0662 23.1844C13.1843 22.5138 13.3765 21.879 13.643 21.2799C13.6658 21.2279 13.6539 21.1857 13.6073 21.1532C13.5878 21.1391 13.564 21.1336 13.5358 21.1369" stroke="#FDB899" stroke-width="3.25"/>
<path id="Vector_33" d="M23.868 39.3091C25.0104 41.6264 28.1272 41.2803 29.3362 39.2913" stroke="#FA7667" stroke-width="3.25"/>
<path id="Vector_34" d="M31.8012 39.5579C32.2253 41.8881 30.1859 43.4221 28.1222 43.8414" stroke="#916F76" stroke-width="3.25"/>
<path id="Vector_35" d="M24.3802 43.6836C24.8417 43.9555 25.3758 44.124 25.9825 44.189C26.0345 44.1953 26.0835 44.2162 26.1239 44.2491L28.2266 46.0171C28.2689 46.0518 28.2846 46.0967 28.2737 46.152L28.2217 46.4266" stroke="#2F567F" stroke-width="3.25"/>
<path id="Vector_36" d="M28.2214 46.4264C24.2287 46.6263 20.7399 45.9909 17.0267 44.8372" stroke="#839BBA" stroke-width="3.25"/>
<path id="Vector_37" d="M35.2963 29.7005C35.6516 29.1404 35.8054 28.5099 35.7578 27.809C35.6213 25.82 34.7053 24.8856 33.0099 25.0059" stroke="#89898C" stroke-width="3.25"/>
<path id="Vector_38" d="M33.1671 39.9348C34.9562 40.7132 37.0118 42.0359 37.202 44.2183C37.2063 44.2757 37.1819 44.3158 37.1288 44.3386C34.2894 45.5638 31.32 46.2599 28.2206 46.4267" stroke="#7B96AE" stroke-width="3.25"/>
<path id="Vector_39" d="M9.95847 18.3597C11.031 19.1755 12.0563 17.5944 12.7128 16.6925C14.4386 14.32 16.1936 11.8841 18.142 9.68875C18.2666 9.55008 18.3857 9.38812 18.4995 9.20287C18.5122 9.1825 18.5204 9.15948 18.5235 9.13537C18.5266 9.11126 18.5245 9.08662 18.5173 9.06312C18.0867 7.75337 15.3128 10.0251 14.7067 10.5175C13.1229 11.8034 11.7698 13.306 10.6475 15.0252C10.1112 15.8459 9.09885 17.7049 9.95847 18.3597Z" stroke="#574850" stroke-width="3.25"/>
<path id="Vector_40" d="M42.1432 26.3839L42.0262 26.4538C41.985 26.4781 41.9525 26.5145 41.9336 26.5578C41.5354 27.4743 40.9017 29.2504 41.0967 30.3034C41.1064 30.3544 41.1303 30.3966 41.1682 30.4302C42.1481 31.3223 43.5521 29.6372 43.8413 28.8084C44.1484 27.9261 44.0396 25.9728 42.7249 25.9712C42.5223 25.9712 42.3533 26.0839 42.2179 26.3092C42.1998 26.3401 42.1741 26.3658 42.1432 26.3839Z" stroke="#FC9C82" stroke-width="3.25"/>
<path id="Vector_41" d="M16.4706 23.6457C16.82 23.6538 17.9721 22.8039 18.6595 22.4773C19.3929 22.1274 20.1734 22.0645 21.0011 22.2888C23.2062 22.8852 23.3297 20.0008 21.149 20.1292C19.2575 20.2413 16.8509 21.3382 16.2106 23.2768C16.1969 23.3185 16.1931 23.3627 16.1996 23.4061C16.2061 23.4495 16.2226 23.4907 16.2479 23.5266C16.2731 23.5624 16.3064 23.5919 16.3451 23.6125C16.3838 23.6332 16.4268 23.6446 16.4706 23.6457Z" stroke="#998279" stroke-width="3.25"/>
<path id="Vector_42" d="M18.077 29.8793C18.8982 30.6409 19.6744 30.805 20.4056 30.3717C21.6796 29.6144 21.977 27.9391 21.4814 26.5757C21.2452 25.9279 20.7843 25.4035 20.0985 25.0027" stroke="#8A6D60" stroke-width="3.25"/>
<path id="Vector_43" d="M20.098 25.0026C19.0655 24.7058 18.2677 24.8775 17.7043 25.5177C17.2461 26.0399 17.017 26.7127 17.017 27.536C17.017 28.4536 17.3701 29.2347 18.0765 29.8792" stroke="#FFE3D3" stroke-width="3.25"/>
<path id="Vector_44" d="M20.0985 25.0028C19.3737 24.9562 18.8331 25.1355 18.4767 25.5407C17.3652 26.8049 17.232 28.2512 18.077 29.8794" stroke="#89898C" stroke-width="3.25"/>
<path id="Vector_45" d="M10.0473 30.1719C10.5121 30.5792 10.9953 30.7331 11.4968 30.6334C11.8625 30.5619 11.9925 30.2629 11.9242 29.92C11.7975 29.2749 11.1182 25.6382 10.0018 26.0217C9.64002 26.1462 9.40277 26.3239 9.2901 26.5547C8.61843 27.9348 8.87085 29.1406 10.0473 30.1719Z" stroke="#FEAB90" stroke-width="3.25"/>
<path id="Vector_46" d="M26.9685 30.9698C26.9143 30.9394 26.8488 30.927 26.7719 30.9324C26.7188 30.9367 26.6809 30.9627 26.6581 31.0104C26.552 31.2303 26.3727 31.3636 26.1203 31.4101C26.0672 31.421 26.0293 31.402 26.0065 31.3533L25.9561 31.2493C25.9431 31.2205 25.9205 31.1972 25.8921 31.1834C25.8638 31.1696 25.8315 31.1661 25.8007 31.1736C25.7699 31.1811 25.7424 31.199 25.7231 31.2243C25.7037 31.2497 25.6936 31.2809 25.6945 31.3126C25.701 31.6951 25.7812 31.9274 25.935 32.0098" stroke="#FFCCAD" stroke-width="3.25"/>
<path id="Vector_47" d="M25.9346 32.0099C25.8642 32.1887 25.9205 32.3192 26.1036 32.4016C26.895 32.7558 27.506 32.2569 27.779 31.5273C28.0466 30.8145 27.8944 30.1683 27.3224 29.5887C27.1794 29.4435 27.0212 29.4381 26.8479 29.5724C26.8312 29.585 26.8202 29.6037 26.8171 29.6244C26.8141 29.645 26.8193 29.6661 26.8316 29.6829C27.1241 30.0751 27.1696 30.5041 26.9681 30.9699" stroke="#FDB899" stroke-width="3.25"/>
<path id="Vector_48" d="M25.9354 32.0095C26.4457 31.8437 26.7902 31.4971 26.9689 30.9695" stroke="#FDBD9F" stroke-width="3.25"/>
<path id="Vector_49" d="M14.7648 31.5869C14.2724 33.7611 16.4986 34.6971 18.2683 34.2974C19.3473 34.0536 20.5384 33.1972 19.4041 32.0272C18.2125 30.7987 16.8226 30.4635 15.2344 31.0214C14.9923 31.1059 14.8168 31.3578 14.7648 31.5869Z" stroke="#FEAB90" stroke-width="3.25"/>
<path id="Vector_50" d="M23.6356 36.5562C25.2975 37.3784 26.9891 37.3952 28.7105 36.6065" stroke="#FEAB90" stroke-width="3.25"/>
<path id="Vector_51" d="M28.7106 36.6068C29.47 36.3707 30.1579 35.9947 30.7743 35.4791C31.3398 35.0078 31.8761 34.1043 31.5868 33.3389C31.5775 33.3141 31.5602 33.2929 31.5377 33.2786C31.5152 33.2643 31.4885 33.2575 31.4617 33.2593C31.3057 33.2712 31.1546 33.3037 31.0083 33.3568C27.8298 34.4997 24.6307 34.497 21.4111 33.3487C21.3774 33.3367 21.3414 33.3328 21.3059 33.3373C21.2705 33.3417 21.2365 33.3544 21.2069 33.3743C21.1772 33.3942 21.1525 33.4207 21.135 33.4519C21.1174 33.483 21.1073 33.5178 21.1056 33.5534C21.0698 34.2684 21.2979 34.8887 21.7897 35.4141C22.2024 35.855 22.8178 36.2358 23.6357 36.5564" stroke="#907166" stroke-width="3.25"/>
<path id="Vector_52" d="M28.7105 36.6067C28.3064 36.1679 27.8167 35.8917 27.2415 35.778C26.3152 35.5943 23.9265 35.3863 23.6356 36.5563" stroke="#8F554F" stroke-width="3.25"/>
<path id="Vector_53" d="M33.6122 28.3522C33.7425 28.3389 33.8617 28.2688 33.9435 28.1573C34.0253 28.0458 34.063 27.9019 34.0483 27.7574C34.0336 27.6129 33.9678 27.4796 33.8652 27.3868C33.7627 27.294 33.6318 27.2493 33.5015 27.2625C33.3711 27.2758 33.252 27.3459 33.1702 27.4574C33.0884 27.5689 33.0507 27.7128 33.0654 27.8573C33.08 28.0018 33.1459 28.1351 33.2484 28.2279C33.351 28.3207 33.4818 28.3654 33.6122 28.3522Z" stroke="#89898C" stroke-width="3.25"/>
<path id="Vector_54" d="M19.6321 28.3741C19.6955 28.3815 19.7599 28.3747 19.8217 28.354C19.8835 28.3333 19.9414 28.2991 19.9922 28.2534C20.043 28.2077 20.0857 28.1514 20.1177 28.0877C20.1498 28.024 20.1707 27.9541 20.1791 27.882C20.1962 27.7365 20.1618 27.5909 20.0834 27.4774C20.005 27.3639 19.889 27.2916 19.761 27.2766C19.6977 27.2692 19.6332 27.276 19.5715 27.2967C19.5097 27.3174 19.4517 27.3515 19.4009 27.3972C19.3501 27.4429 19.3075 27.4992 19.2754 27.563C19.2433 27.6267 19.2225 27.6966 19.214 27.7686C19.1969 27.9142 19.2314 28.0597 19.3098 28.1733C19.3882 28.2868 19.5041 28.359 19.6321 28.3741Z" stroke="#89898C" stroke-width="3.25"/>
<path id="Vector_55" d="M29.4775 5.60499C29.4786 5.65157 29.4921 5.70086 29.5181 5.75286C29.529 5.77577 29.5456 5.79554 29.5663 5.81032C29.5871 5.8251 29.6113 5.83441 29.6367 5.83736C30.6946 5.94949 31.5867 6.14449 32.5114 6.71486C35.3649 8.46824 38.337 11.6776 38.7172 15.173C38.8667 16.5445 38.2476 17.7535 36.7087 17.6024C36.01 17.5341 35.4315 17.1246 34.4467 17.3261C34.073 17.4025 33.5969 17.6722 33.0557 17.6446C33.0026 17.6424 32.9512 17.6517 32.9014 17.6722C32.5807 17.8131 32.2595 17.845 31.9377 17.7681C31.3414 17.6267 31.2276 16.9345 30.4639 17.6219C29.7738 18.2437 28.8952 18.4143 27.8281 18.1337L27.0839 17.6381C27.041 17.6097 26.9908 17.5947 26.9395 17.595C26.8883 17.5953 26.8384 17.6109 26.7962 17.6397C25.0559 18.8081 24.089 18.917 22.4234 17.5244C22.3843 17.4918 22.3349 17.4742 22.2842 17.4748C22.2336 17.4754 22.1849 17.4942 22.1471 17.5276C21.1104 18.4441 20.3255 19.3281 18.8711 18.449C18.5829 18.2746 18.2937 18.1706 18.0034 18.137C17.9365 18.1297 17.8688 18.1406 17.8073 18.1686C17.7458 18.1966 17.6929 18.2407 17.654 18.2962C16.718 19.6515 15.8827 20.5777 14.0562 20.3909C13.9988 20.3854 13.9555 20.4082 13.9262 20.4591L13.5362 21.1367C12.7508 22.7726 12.3305 24.5075 12.2752 26.3416C12.2655 26.6536 12.1631 27.0111 12.1144 27.3247C12.1046 27.3876 12.0705 27.4076 12.012 27.3849C11.5505 27.211 11.037 26.0247 10.6941 25.3455C10.4 24.7637 9.89136 24.8921 9.37298 25.0107L8.90173 23.5807C9.08482 23.5602 9.21427 23.7156 9.29011 24.0471C9.29748 24.0809 9.31606 24.111 9.34286 24.1327C9.36965 24.1543 9.40308 24.1662 9.43771 24.1664C9.47234 24.1666 9.50614 24.1551 9.53363 24.1337C9.56111 24.1124 9.58066 24.0824 9.58911 24.0487C9.76028 23.35 10.0279 22.7119 10.3919 22.1345C11.2358 20.7966 12.0521 19.4435 12.8407 18.0752C14.4186 15.3355 16.302 14.51 19.3342 13.717C23.5251 12.6201 21.2647 7.89136 24.518 6.16886C24.5657 6.14395 24.5922 6.10495 24.5976 6.05186C24.6756 5.27186 22.4754 6.18836 22.2511 5.73661C24.6496 5.30328 27.0584 5.25941 29.4775 5.60499Z" fill="#3F333C"/>
<path id="Vector_56" d="M29.478 5.60498C33.9132 6.22356 37.7487 8.02786 40.9846 11.0179C43.024 12.9029 44.5174 15.1161 44.6815 18.0866C44.8147 20.4786 44.4767 22.8002 43.6675 25.0514C42.3545 24.4956 41.9564 25.7257 41.5712 26.7381C41.5306 26.8421 41.4217 26.9429 41.3356 26.9949C41.3171 27.0059 41.2961 27.0124 41.2746 27.0137C41.253 27.015 41.2314 27.0112 41.2117 27.0024C41.1919 26.9936 41.1746 26.9803 41.1611 26.9634C41.1476 26.9465 41.1383 26.9267 41.1341 26.9055C40.9575 26.0432 40.8281 25.1721 40.7457 24.2925C40.6677 23.4605 40.411 23.025 39.7431 22.6009C39.6922 22.5694 39.6537 22.5266 39.6277 22.4725C39.3547 21.9211 39.1884 21.3377 39.1289 20.7224C39.1207 20.6349 39.0793 20.5538 39.0132 20.4955C38.9471 20.4373 38.8612 20.4062 38.773 20.4087C36.7921 20.4754 36.4639 19.8627 35.6205 18.2589C35.5817 18.1848 35.5183 18.1265 35.4412 18.0942C35.364 18.0618 35.278 18.0574 35.198 18.0817C34.2896 18.3531 33.5242 19.06 32.5054 18.6814C31.8749 18.4474 31.3532 17.0954 30.6334 17.695C29.7439 18.4371 28.809 18.5833 27.8286 18.1337C28.8957 18.4143 29.7743 18.2437 30.4644 17.6219C31.2281 16.9345 31.3419 17.6267 31.9382 17.7681C32.26 17.845 32.5812 17.8131 32.9019 17.6722C32.9517 17.6516 33.0032 17.6424 33.0562 17.6446C33.5974 17.6722 34.0735 17.4025 34.4472 17.3261C35.432 17.1246 36.0105 17.5341 36.7092 17.6024C38.2481 17.7535 38.8672 16.5445 38.7177 15.173C38.3375 11.6776 35.3654 8.46823 32.5119 6.71485C31.5872 6.14448 30.6951 5.94948 29.6372 5.83735C29.6118 5.8344 29.5876 5.82509 29.5668 5.81031C29.5461 5.79553 29.5295 5.77576 29.5186 5.75286C29.4926 5.70086 29.4791 5.65156 29.478 5.60498Z" fill="#2D242F"/>
<path id="Vector_57" d="M22.2517 5.73651C22.4759 6.18826 24.6762 5.27176 24.5982 6.05176C24.5928 6.10485 24.5662 6.14385 24.5186 6.16876C21.2653 7.89126 23.5257 12.62 19.3348 13.7169C16.3026 14.5099 14.4192 15.3354 12.8413 18.0751C12.0526 19.4434 11.2364 20.7965 10.3924 22.1344C10.0284 22.7118 9.76086 23.3499 9.58969 24.0486C9.58124 24.0823 9.56169 24.1123 9.53421 24.1336C9.50672 24.155 9.47292 24.1665 9.43829 24.1663C9.40366 24.1661 9.37024 24.1542 9.34344 24.1326C9.31665 24.1109 9.29806 24.0808 9.29069 24.047C9.21486 23.7155 9.0854 23.5601 8.90232 23.5806C8.3964 21.7682 8.18515 19.8848 8.26857 17.9305C8.36607 15.675 9.15257 13.8973 10.6914 12.1455C13.7085 8.70701 17.5619 6.57068 22.2517 5.73651ZM9.95857 18.3595C11.0311 19.1753 12.0564 17.5941 12.7129 16.6923C14.4387 14.3198 16.1937 11.8839 18.1421 9.68851C18.2666 9.54985 18.3858 9.38788 18.4996 9.20263C18.5123 9.18226 18.5205 9.15925 18.5236 9.13514C18.5267 9.11103 18.5246 9.08639 18.5174 9.06289C18.0868 7.75314 15.3129 10.0249 14.7068 10.5173C13.123 11.8032 11.7699 13.3058 10.6476 15.025C10.1113 15.8456 9.09894 17.7046 9.95857 18.3595Z" fill="#4B3D44"/>
<path id="Vector_58" d="M9.95847 18.3597C9.09885 17.7049 10.1112 15.8459 10.6475 15.0252C11.7698 13.306 13.1229 11.8034 14.7067 10.5175C15.3128 10.0251 18.0867 7.75337 18.5173 9.06312C18.5245 9.08662 18.5266 9.11126 18.5235 9.13537C18.5204 9.15948 18.5122 9.1825 18.4995 9.20287C18.3857 9.38812 18.2666 9.55008 18.142 9.68875C16.1936 11.8841 14.4386 14.32 12.7128 16.6925C12.0563 17.5944 11.031 19.1755 9.95847 18.3597Z" fill="#62525B"/>
<path id="Vector_59" d="M27.8277 18.1338C28.8081 18.5834 29.743 18.4371 30.6324 17.695C31.3523 17.0954 31.8739 18.4474 32.5044 18.6814C33.5233 19.06 34.2887 18.3531 35.197 18.0818C35.2771 18.0575 35.3631 18.0619 35.4402 18.0942C35.5173 18.1266 35.5808 18.1848 35.6195 18.2589C36.4629 19.8628 36.7912 20.4754 38.772 20.4088C38.8603 20.4063 38.9462 20.4373 39.0123 20.4956C39.0784 20.5538 39.1197 20.6349 39.1279 20.7224C39.1875 21.3377 39.3538 21.9211 39.6268 22.4725C39.6528 22.5267 39.6913 22.5695 39.7422 22.6009C40.41 23.025 40.6668 23.4605 40.7448 24.2925C40.8271 25.1722 40.9566 26.0432 41.1332 26.9055C41.1374 26.9267 41.1467 26.9466 41.1602 26.9634C41.1737 26.9803 41.191 26.9937 41.2108 27.0024C41.2305 27.0112 41.2521 27.0151 41.2736 27.0138C41.2952 27.0125 41.3161 27.006 41.3347 26.9949C41.4208 26.9429 41.5297 26.8421 41.5703 26.7381C41.9554 25.7258 42.3535 24.4956 43.6665 25.0514C45.2688 26.4668 45.4735 28.6459 44.258 30.344C43.3935 31.5546 41.7052 32.4614 40.2167 31.9122C40.1629 31.8924 40.1037 31.8931 40.0502 31.914C39.9966 31.935 39.9524 31.9747 39.9258 32.0259C38.1968 35.3913 35.1272 37.689 31.5522 38.7973C31.5013 38.7745 31.4579 38.7306 31.4222 38.6656C31.3973 38.6212 31.4092 38.5904 31.4579 38.573C33.5444 37.8667 35.0611 36.519 36.0079 34.53C36.0989 34.3383 36.0355 34.2229 35.8487 34.1514C37.2933 33.8264 38.7103 32.749 38.9735 31.2248C39.0266 30.9204 38.9075 30.7508 38.616 30.7161C37.4753 30.5818 36.3405 30.6446 35.2117 30.9046C35.1174 30.4865 35.2523 30.1247 35.6163 29.8191C36.5155 28.3458 36.5588 26.9034 35.7463 25.4918C35.5042 24.5298 35.1125 24.3266 34.2773 23.9139C34.2372 23.8944 34.2215 23.863 34.2302 23.8196C34.2448 23.753 33.4485 23.1404 33.3283 23.025C33.0065 22.7179 32.4784 22.8381 32.2525 22.5196C32.219 22.472 32.2287 22.4351 32.2818 22.4091C32.4205 22.3398 32.5039 22.2412 32.532 22.1134C34.0075 21.946 35.314 22.8203 36.5572 23.5418C36.7825 23.6729 36.9325 23.6133 37.0073 23.363C37.1145 23.0023 36.5832 22.3685 36.3313 22.0533C36.2869 21.9059 36.1975 21.7851 36.0632 21.6909C36.0209 21.6616 35.9987 21.6205 35.9965 21.5674C35.9787 21.1449 34.4105 20.4299 34.1522 20.3145C33.6484 20.0886 32.9123 19.996 32.3045 19.6808C32.2926 19.6743 32.285 19.6656 32.2818 19.6548C32.2796 19.6494 32.2785 19.6434 32.2785 19.6369C32.2753 19.6098 32.2639 19.593 32.2444 19.5865C30.9525 19.1153 29.4835 19.7474 28.3444 19.1884C28.0617 19.0497 27.728 18.845 27.3434 18.5741C27.2979 18.5427 27.2497 18.5379 27.1988 18.5595C26.2823 18.9511 25.7785 19.4988 24.6979 19.5053C23.8675 19.5085 23.2127 18.9138 22.3677 19.0974C21.8 19.2198 21.2735 19.4506 20.7882 19.7897C20.7752 19.7972 20.7746 19.8064 20.7865 19.8173L20.8207 19.8465C20.8337 19.8574 20.832 19.8649 20.8158 19.8693C20.2611 20.0177 19.7985 19.9077 19.428 19.5394C18.5018 18.6164 17.465 20.1146 16.6818 20.5534C16.2279 20.808 15.7485 21.0041 15.2437 21.1416C13.9697 21.4861 13.604 22.0045 13.0922 23.1924C13.0916 23.1941 13.0908 23.1957 13.0896 23.1971C13.0885 23.1984 13.0871 23.1996 13.0855 23.2004C13.0839 23.2012 13.0822 23.2017 13.0804 23.2019C13.0786 23.2021 13.0768 23.2019 13.0751 23.2013C13.0734 23.2008 13.0718 23.1999 13.0704 23.1988C13.0691 23.1976 13.0679 23.1962 13.0671 23.1947C13.0663 23.1931 13.0658 23.1913 13.0656 23.1896C13.0654 23.1878 13.0656 23.186 13.0662 23.1843C13.1843 22.5137 13.3765 21.8789 13.643 21.2798C13.6658 21.2278 13.6539 21.1855 13.6073 21.153C13.5878 21.1389 13.564 21.1335 13.5358 21.1368L13.9258 20.4591C13.955 20.4082 13.9984 20.3855 14.0558 20.3909C15.8823 20.5778 16.7175 19.6515 17.6535 18.2963C17.6924 18.2407 17.7454 18.1967 17.8069 18.1687C17.8683 18.1406 17.936 18.1297 18.0029 18.137C18.2933 18.1706 18.5825 18.2746 18.8707 18.449C20.325 19.3282 21.1099 18.4441 22.1467 17.5276C22.1845 17.4942 22.2331 17.4755 22.2838 17.4749C22.3345 17.4743 22.3838 17.4918 22.4229 17.5244C24.0885 18.917 25.0554 18.8081 26.7958 17.6398C26.838 17.6109 26.8878 17.5954 26.9391 17.5951C26.9903 17.5948 27.0406 17.6098 27.0834 17.6381L27.8277 18.1338ZM42.1423 26.3839L42.0253 26.4538C41.9841 26.4781 41.9517 26.5145 41.9327 26.5578C41.5345 27.4743 40.9008 29.2504 41.0958 30.3034C41.1055 30.3543 41.1294 30.3966 41.1673 30.4302C42.1472 31.3223 43.5512 29.6371 43.8404 28.8084C44.1475 27.926 44.0387 25.9728 42.724 25.9712C42.5215 25.9712 42.3525 26.0838 42.217 26.3091C42.1989 26.34 42.1732 26.3658 42.1423 26.3839Z" fill="#FBA98B"/>
<path id="Vector_60" d="M36.3311 22.0534C35.069 20.6808 33.5274 20.04 31.7064 20.131C29.9871 20.2171 30.1772 22.3784 31.5959 22.3589C31.7421 22.3567 32.0541 22.2749 32.5319 22.1135C32.5037 22.2414 32.4203 22.3399 32.2816 22.4093C32.2285 22.4353 32.2188 22.4721 32.2524 22.5198C32.4782 22.8383 33.0064 22.718 33.3281 23.0251C33.4484 23.1405 34.2446 23.7532 34.23 23.8198C34.2213 23.8631 34.237 23.8945 34.2771 23.914C35.1124 24.3268 35.504 24.5299 35.7461 25.4919C35.381 25.0467 34.9428 24.7476 34.4315 24.5949C34.3752 24.5786 34.3188 24.5797 34.2625 24.5982L33.9862 24.6908C33.9342 24.7081 33.8812 24.7162 33.827 24.7152C33.3536 24.7011 33.0811 24.798 33.0096 25.006C29.6231 27.3395 32.8975 32.9474 35.296 29.7006C35.3664 29.757 35.4731 29.7965 35.6161 29.8193C35.2521 30.1248 35.1172 30.4866 35.2115 30.9048C34.1439 31.1615 31.9777 32.6257 33.6352 33.8087C34.2484 34.2474 34.9862 34.3617 35.8485 34.1515C36.0354 34.223 36.0987 34.3384 36.0077 34.5302C35.0609 36.5192 33.5442 37.8668 31.4577 38.5732C31.409 38.5905 31.3971 38.6214 31.422 38.6658C31.4577 38.7308 31.5011 38.7747 31.552 38.7974L29.8474 39.2345L29.3355 39.2914C27.5177 39.507 25.6949 39.5129 23.8674 39.3093L22.8664 39.2735C22.8144 39.2714 22.7705 39.2882 22.7347 39.3239C22.6091 39.4485 22.4699 39.5156 22.3171 39.5254C22.2699 39.5285 22.225 39.5466 22.1889 39.5771C22.1527 39.6076 22.1274 39.6489 22.1165 39.6949C22.1055 39.7409 22.1097 39.7892 22.1282 39.8327C22.1468 39.8762 22.1788 39.9126 22.2196 39.9365C23.4665 40.671 24.7719 41.3969 26.1359 42.114C26.4598 42.2841 27.1217 42.8599 28.1216 43.8414C26.9224 44.096 25.6749 44.0434 24.3792 43.6838C22.933 43.232 21.2625 42.0117 21.1536 40.3834C21.1341 40.0931 21.1964 39.8813 21.3405 39.748C21.49 39.6104 21.7072 39.4994 21.9921 39.4149C22.1416 39.3217 22.3431 39.2844 22.5966 39.3028C22.6183 39.304 22.6398 39.2972 22.6569 39.2836C22.6741 39.2701 22.6856 39.2507 22.6892 39.2293C22.6929 39.208 22.6884 39.1862 22.6767 39.1682C22.665 39.1502 22.6469 39.1374 22.6259 39.1322C18.3099 37.9963 15.12 35.9439 12.9717 31.8635C12.9607 31.8421 12.942 31.8254 12.9193 31.8168C12.8965 31.8081 12.8713 31.808 12.8482 31.8164C11.0185 32.5038 9.04574 31.3143 8.30149 29.699C7.64986 28.2853 7.80586 25.838 9.37236 25.0109C9.89074 24.8923 10.3994 24.7639 10.6935 25.3456C11.0364 26.0249 11.5499 27.2111 12.0114 27.385C12.0699 27.4078 12.104 27.3877 12.1137 27.3249C12.1625 27.0113 12.2649 26.6538 12.2746 26.3418C12.3299 24.5077 12.7502 22.7727 13.5356 21.1369C13.5638 21.1336 13.5876 21.1391 13.6071 21.1532C13.6537 21.1857 13.6656 21.2279 13.6429 21.2799C13.3764 21.879 13.1841 22.5138 13.066 23.1844C13.0655 23.1861 13.0653 23.1879 13.0654 23.1897C13.0656 23.1915 13.0661 23.1932 13.0669 23.1948C13.0678 23.1964 13.0689 23.1978 13.0703 23.1989C13.0716 23.2001 13.0732 23.2009 13.0749 23.2015C13.0766 23.202 13.0784 23.2022 13.0802 23.202C13.082 23.2019 13.0837 23.2014 13.0853 23.2005C13.0869 23.1997 13.0883 23.1986 13.0894 23.1972C13.0906 23.1958 13.0915 23.1942 13.092 23.1925C13.6039 22.0046 13.9695 21.4863 15.2435 21.1418C15.7483 21.0042 16.2277 20.8081 16.6816 20.5535C17.4649 20.1148 18.5016 18.6165 19.4279 19.5395C19.7984 19.9079 20.2609 20.0178 20.8156 19.8694C20.8319 19.8651 20.8335 19.8575 20.8205 19.8466L20.7864 19.8174C20.7744 19.8066 20.775 19.7974 20.788 19.7898C21.2733 19.4507 21.7998 19.2199 22.3675 19.0975C23.2125 18.9139 23.8674 19.5087 24.6977 19.5054C25.7784 19.4989 26.2821 18.9513 27.1986 18.5597C27.2495 18.538 27.2977 18.5429 27.3432 18.5743C27.7278 18.8451 28.0615 19.0499 28.3442 19.1885C29.4834 19.7475 30.9524 19.1154 32.2442 19.5867C32.2637 19.5932 32.2751 19.6099 32.2784 19.637C32.2784 19.6435 32.2794 19.6495 32.2816 19.6549C32.2849 19.6657 32.2924 19.6744 32.3044 19.6809C32.9121 19.9962 33.6482 20.0888 34.152 20.3147C34.4104 20.43 35.9785 21.145 35.9964 21.5675C35.9985 21.6206 36.0207 21.6618 36.063 21.691C36.1973 21.7853 36.2867 21.9061 36.3311 22.0534ZM16.4704 23.6459C16.8197 23.654 17.9719 22.8041 18.6592 22.4775C19.3927 22.1276 20.1732 22.0648 21.0009 22.289C23.206 22.8854 23.3295 20.001 21.1487 20.1294C19.2572 20.2415 16.8506 21.3384 16.2104 23.277C16.1967 23.3187 16.1929 23.363 16.1994 23.4063C16.2058 23.4497 16.2224 23.491 16.2476 23.5268C16.2729 23.5627 16.3062 23.5921 16.3449 23.6128C16.3835 23.6335 16.4265 23.6448 16.4704 23.6459ZM18.0759 29.8794C18.897 30.641 19.6732 30.8051 20.4045 30.3718C21.6785 29.6145 21.9759 27.9391 21.4802 26.5758C21.2441 25.9279 20.7831 25.4036 20.0974 25.0028C19.0649 24.7059 18.2671 24.8777 17.7037 25.5179C17.2455 26.0401 17.0164 26.7128 17.0164 27.5362C17.0164 28.4537 17.3695 29.2348 18.0759 29.8794ZM10.0467 30.1719C10.5115 30.5792 10.9947 30.7331 11.4962 30.6334C11.8619 30.5619 11.9919 30.2629 11.9236 29.92C11.7969 29.2749 11.1176 25.6382 10.0012 26.0217C9.63941 26.1462 9.40216 26.3239 9.28949 26.5546C8.61782 27.9348 8.87024 29.1406 10.0467 30.1719ZM26.9679 30.9698C26.9137 30.9394 26.8482 30.927 26.7712 30.9324C26.7182 30.9367 26.6802 30.9627 26.6575 31.0104C26.5513 31.2303 26.372 31.3636 26.1196 31.4101C26.0665 31.421 26.0286 31.402 26.0059 31.3533L25.9555 31.2493C25.9424 31.2205 25.9198 31.1972 25.8915 31.1834C25.8631 31.1696 25.8308 31.1662 25.8 31.1736C25.7692 31.1811 25.7418 31.199 25.7225 31.2243C25.7031 31.2497 25.693 31.2809 25.6939 31.3127C25.7004 31.6951 25.7805 31.9274 25.9344 32.0098C25.8639 32.1885 25.9203 32.3191 26.1034 32.4014C26.8947 32.7557 27.5057 32.2568 27.7787 31.5272C28.0463 30.8143 27.8941 30.1681 27.3221 29.5885C27.1791 29.4434 27.0209 29.4379 26.8476 29.5723C26.8309 29.5849 26.8199 29.6035 26.8169 29.6242C26.8138 29.6449 26.819 29.6659 26.8314 29.6828C27.1239 30.0749 27.1694 30.5039 26.9679 30.9698ZM14.7641 31.5873C14.2717 33.7615 16.498 34.6975 18.2676 34.2978C19.3466 34.054 20.5377 33.1976 19.4035 32.0276C18.2118 30.7991 16.8219 30.4639 15.2337 31.0218C14.9916 31.1063 14.8161 31.3582 14.7641 31.5873ZM23.635 36.5565C25.2968 37.3788 26.9884 37.3956 28.7099 36.6069C29.4693 36.3707 30.1572 35.9948 30.7736 35.4791C31.3391 35.0079 31.8754 34.1044 31.5861 33.339C31.5768 33.3142 31.5595 33.293 31.537 33.2787C31.5145 33.2643 31.4878 33.2576 31.461 33.2594C31.305 33.2713 31.1539 33.3038 31.0076 33.3569C27.8291 34.4998 24.63 34.4971 21.4104 33.3488C21.3767 33.3368 21.3407 33.3329 21.3052 33.3374C21.2698 33.3418 21.2358 33.3545 21.2062 33.3744C21.1765 33.3943 21.1519 33.4208 21.1343 33.4519C21.1167 33.483 21.1066 33.5178 21.1049 33.5535C21.0691 34.2685 21.2972 34.8887 21.789 35.4142C22.2017 35.8551 22.8171 36.2359 23.635 36.5565Z" fill="#FFC7A7"/>
<path id="Vector_61" d="M16.4706 23.6457C16.4268 23.6446 16.3838 23.6332 16.3451 23.6125C16.3064 23.5919 16.2731 23.5624 16.2479 23.5266C16.2226 23.4907 16.2061 23.4495 16.1996 23.4061C16.1931 23.3627 16.1969 23.3185 16.2106 23.2768C16.8509 21.3382 19.2575 20.2413 21.149 20.1292C23.3297 20.0008 23.2062 22.8852 21.0011 22.2888C20.1734 22.0645 19.3929 22.1274 18.6595 22.4773C17.9721 22.8039 16.82 23.6538 16.4706 23.6457Z" fill="#333C4A"/>
<path id="Vector_62" d="M36.3325 22.0529C36.5844 22.3682 37.1157 23.0019 37.0085 23.3627C36.9337 23.6129 36.7837 23.6725 36.5584 23.5414C35.3152 22.8199 34.0087 21.9457 32.5332 22.1131C32.0555 22.2745 31.7435 22.3563 31.5972 22.3584C30.1786 22.3779 29.9885 20.2167 31.7077 20.1306C33.5288 20.0396 35.0704 20.6804 36.3325 22.0529Z" fill="#333C4A"/>
<path id="Vector_63" d="M35.7464 25.4919C36.5589 26.9035 36.5156 28.346 35.6164 29.8193C35.4734 29.7965 35.3667 29.757 35.2963 29.7007C35.6516 29.1406 35.8054 28.5101 35.7578 27.8092C35.6213 25.8202 34.7053 24.8858 33.0099 25.006C33.0814 24.798 33.3538 24.7011 33.8273 24.7152C33.8814 24.7163 33.9345 24.7081 33.9865 24.6908L34.2628 24.5982C34.3191 24.5798 34.3754 24.5787 34.4318 24.5949C34.9431 24.7477 35.3813 25.0467 35.7464 25.4919Z" fill="#FEFEFE"/>
<path id="Vector_64" d="M20.098 25.0026C19.3732 24.956 18.8326 25.1353 18.4762 25.5405C17.3647 26.8047 17.2315 28.251 18.0765 29.8792C17.3701 29.2347 17.017 28.4536 17.017 27.536C17.017 26.7127 17.2461 26.0399 17.7043 25.5177C18.2677 24.8775 19.0655 24.7058 20.098 25.0026Z" fill="#FEFEFE"/>
<path id="Vector_65" d="M35.2966 29.7005C32.8981 32.9473 29.6237 27.3394 33.0102 25.0059C34.7056 24.8856 35.6216 25.82 35.7581 27.809C35.8058 28.5099 35.6519 29.1404 35.2966 29.7005ZM33.6116 28.3522C33.7419 28.339 33.8611 28.2689 33.9429 28.1573C34.0247 28.0458 34.0624 27.902 34.0477 27.7575C34.033 27.613 33.9672 27.4797 33.8646 27.3869C33.7621 27.294 33.6312 27.2493 33.5009 27.2626C33.3705 27.2758 33.2514 27.3459 33.1696 27.4574C33.0878 27.569 33.0501 27.7128 33.0648 27.8573C33.0794 28.0018 33.1453 28.1351 33.2478 28.2279C33.3504 28.3207 33.4812 28.3654 33.6116 28.3522Z" fill="#141319"/>
<path id="Vector_66" d="M20.0985 25.0028C20.7842 25.4036 21.2452 25.928 21.4813 26.5758C21.977 27.9392 21.6796 29.6146 20.4056 30.3718C19.6743 30.8051 18.8981 30.641 18.077 29.8794C17.232 28.2512 17.3652 26.8049 18.4767 25.5407C18.8331 25.1355 19.3737 24.9562 20.0985 25.0028ZM19.6326 28.3742C19.696 28.3816 19.7604 28.3748 19.8222 28.3541C19.884 28.3334 19.9419 28.2992 19.9927 28.2535C20.0435 28.2078 20.0862 28.1515 20.1183 28.0878C20.1503 28.0241 20.1712 27.9542 20.1797 27.8821C20.1967 27.7366 20.1623 27.591 20.0839 27.4775C20.0055 27.364 19.8895 27.2917 19.7616 27.2767C19.6982 27.2693 19.6338 27.2761 19.572 27.2968C19.5102 27.3175 19.4522 27.3517 19.4014 27.3973C19.3507 27.443 19.308 27.4994 19.2759 27.5631C19.2439 27.6268 19.223 27.6967 19.2145 27.7688C19.1974 27.9143 19.2319 28.0598 19.3103 28.1734C19.3887 28.2869 19.5046 28.3591 19.6326 28.3742Z" fill="#141319"/>
<path id="Vector_67" d="M10.0473 30.1719C8.87085 29.1406 8.61843 27.9348 9.2901 26.5547C9.40277 26.3239 9.64002 26.1462 10.0018 26.0217C11.1182 25.6382 11.7975 29.2749 11.9242 29.92C11.9925 30.2629 11.8625 30.5619 11.4968 30.6334C10.9953 30.7331 10.5121 30.5792 10.0473 30.1719Z" fill="#FC8E79"/>
<path id="Vector_68" d="M42.2179 26.3092C42.3533 26.0839 42.5223 25.9712 42.7249 25.9712C44.0396 25.9728 44.1484 27.9261 43.8413 28.8084C43.5521 29.6372 42.1481 31.3223 41.1682 30.4302C41.1303 30.3966 41.1064 30.3544 41.0967 30.3034C40.9017 29.2504 41.5354 27.4743 41.9336 26.5578C41.9525 26.5145 41.985 26.4781 42.0262 26.4538L42.1432 26.3839C42.1741 26.3658 42.1998 26.3401 42.2179 26.3092Z" fill="#FC8E79"/>
<path id="Vector_69" d="M19.2136 27.7684C19.178 28.0714 19.3652 28.3425 19.6317 28.3738C19.8982 28.4051 20.1431 28.1848 20.1787 27.8817C20.2143 27.5787 20.0271 27.3076 19.7606 27.2763C19.4941 27.245 19.2492 27.4653 19.2136 27.7684Z" fill="#FEFEFE"/>
<path id="Vector_70" d="M33.0648 27.8571C33.0954 28.158 33.3402 28.3795 33.6116 28.352C33.8831 28.3244 34.0783 28.0581 34.0478 27.7572C34.0172 27.4563 33.7724 27.2348 33.501 27.2623C33.2295 27.2899 33.0343 27.5562 33.0648 27.8571Z" fill="#FEFEFE"/>
<path id="Vector_71" d="M25.9346 32.0099C26.4449 31.8442 26.7894 31.4975 26.9681 30.9699C27.1696 30.5041 27.1241 30.0751 26.8316 29.6829C26.8193 29.6661 26.8141 29.645 26.8171 29.6244C26.8202 29.6037 26.8312 29.585 26.8479 29.5724C27.0212 29.4381 27.1794 29.4435 27.3224 29.5887C27.8944 30.1683 28.0466 30.8145 27.779 31.5273C27.506 32.2569 26.895 32.7558 26.1036 32.4016C25.9205 32.3192 25.8642 32.1887 25.9346 32.0099Z" fill="#FBA98B"/>
<path id="Vector_72" d="M35.849 34.1514C34.9867 34.3615 34.249 34.2472 33.6358 33.8085C31.9783 32.6255 34.1444 31.1614 35.212 30.9046C36.3409 30.6446 37.4757 30.5818 38.6164 30.7161C38.9078 30.7508 39.027 30.9203 38.9739 31.2247C38.7107 32.749 37.2937 33.8264 35.849 34.1514Z" fill="#FC8E79"/>
<path id="Vector_73" d="M18.2683 34.2974C16.4986 34.6971 14.2724 33.7611 14.7648 31.5869C14.8168 31.3578 14.9923 31.1059 15.2344 31.0214C16.8226 30.4635 18.2125 30.7987 19.4041 32.0272C20.5384 33.1972 19.3473 34.0536 18.2683 34.2974Z" fill="#FC8E79"/>
<path id="Vector_74" d="M26.9685 30.9698C26.7898 31.4973 26.4453 31.844 25.935 32.0098C25.7812 31.9274 25.701 31.6951 25.6945 31.3126C25.6936 31.2809 25.7037 31.2497 25.7231 31.2243C25.7424 31.199 25.7699 31.1811 25.8007 31.1736C25.8315 31.1661 25.8638 31.1696 25.8921 31.1834C25.9205 31.1972 25.9431 31.2205 25.9561 31.2493L26.0065 31.3533C26.0293 31.402 26.0672 31.421 26.1203 31.4101C26.3727 31.3636 26.552 31.2303 26.6581 31.0104C26.6809 30.9627 26.7188 30.9367 26.7719 30.9324C26.8488 30.927 26.9143 30.9394 26.9685 30.9698Z" fill="#FED0B2"/>
<path id="Vector_75" d="M28.7106 36.6068C28.3065 36.1681 27.8168 35.8918 27.2416 35.7781C26.3153 35.5944 23.9266 35.3864 23.6357 36.5564C22.8178 36.2358 22.2024 35.855 21.7897 35.4141C21.2979 34.8887 21.0698 34.2684 21.1056 33.5534C21.1073 33.5178 21.1174 33.483 21.135 33.4519C21.1525 33.4207 21.1772 33.3942 21.2069 33.3743C21.2365 33.3544 21.2705 33.3417 21.3059 33.3373C21.3414 33.3328 21.3774 33.3367 21.4111 33.3487C24.6307 34.497 27.8298 34.4997 31.0083 33.3568C31.1546 33.3037 31.3057 33.2712 31.4617 33.2593C31.4885 33.2575 31.5152 33.2643 31.5377 33.2786C31.5602 33.2929 31.5775 33.3141 31.5868 33.3389C31.8761 34.1043 31.3398 35.0078 30.7743 35.4791C30.1579 35.9947 29.47 36.3707 28.7106 36.6068Z" fill="#211B24"/>
<path id="Vector_76" d="M28.7109 36.6067C26.9894 37.3954 25.2978 37.3786 23.636 36.5563C23.9269 35.3863 26.3156 35.5943 27.2419 35.778C27.8171 35.8917 28.3068 36.1679 28.7109 36.6067Z" fill="#FC8E79"/>
<path id="Vector_77" d="M23.8681 39.3089C25.0105 41.6261 28.1272 41.28 29.3362 39.291L29.8481 39.2341L31.8013 39.5575C32.2255 41.8878 30.1861 43.4218 28.1223 43.841C27.1224 42.8595 26.4605 42.2837 26.1366 42.1136C24.7727 41.3965 23.4673 40.6706 22.2203 39.9361C22.1796 39.9122 22.1475 39.8758 22.129 39.8323C22.1104 39.7888 22.1063 39.7405 22.1172 39.6945C22.1281 39.6485 22.1535 39.6072 22.1896 39.5767C22.2257 39.5462 22.2706 39.5281 22.3178 39.525C22.4706 39.5153 22.6098 39.4481 22.7355 39.3235C22.7712 39.2878 22.8151 39.271 22.8671 39.2731L23.8681 39.3089Z" fill="#FC8E79"/>
<path id="Vector_78" d="M23.868 39.3091C25.6956 39.5128 27.5183 39.5068 29.3362 39.2913C28.1272 41.2803 25.0104 41.6264 23.868 39.3091Z" fill="#F75E54"/>
<path id="Vector_79" d="M21.9926 39.4148C21.7077 39.4993 21.4905 39.6103 21.341 39.7479C21.1969 39.8812 21.1346 40.093 21.1541 40.3833C21.263 42.0115 22.9335 43.2319 24.3798 43.6837C24.8413 43.9556 25.3753 44.124 25.982 44.189C26.034 44.1954 26.083 44.2162 26.1234 44.2492L28.2261 46.0172C28.2684 46.0518 28.2841 46.0968 28.2733 46.152L28.2213 46.4267C24.2286 46.6265 20.7398 45.9912 17.0266 44.8374L15.478 44.3093C15.4245 44.2914 15.3799 44.2535 15.3536 44.2036C15.3272 44.1536 15.3212 44.0955 15.3366 44.0412C16.1621 41.0593 19.1115 39.7772 21.9926 39.4148Z" fill="#375B8B"/>
<path id="Vector_80" d="M31.8016 39.5579L33.1683 39.9349C34.9574 40.7132 37.013 42.036 37.2031 44.2184C37.2075 44.2758 37.1831 44.3159 37.13 44.3386C34.2906 45.5639 31.3212 46.2599 28.2217 46.4267L28.2738 46.1521C28.2846 46.0969 28.2689 46.0519 28.2266 46.0172L26.1239 44.2492C26.0835 44.2163 26.0345 44.1955 25.9825 44.1891C25.3758 44.1241 24.8417 43.9557 24.3802 43.6837C25.6759 44.0434 26.9234 44.0959 28.1226 43.8414C30.1864 43.4221 32.2257 41.8881 31.8016 39.5579Z" fill="#265073"/>
</g>
</svg>
