<svg width="32" height="32" viewBox="0 0 32 32" fill="none" xmlns="http://www.w3.org/2000/svg">
<g id="Avatars">
<path id="Vector" d="M8.06519 5.13623C6.96119 5.97623 6.0062 6.96723 5.2002 8.10923" stroke="#6B9483" stroke-width="2"/>
<path id="Vector_2" d="M5.19973 8.10889C4.2184 9.50622 3.51673 11.0679 3.09473 12.7939" stroke="#618F7D" stroke-width="2"/>
<path id="Vector_3" d="M3.09514 12.7939C2.60214 14.6459 2.62314 16.9019 2.87114 18.7869" stroke="#4F867B" stroke-width="2"/>
<path id="Vector_4" d="M14.5974 2.64209C12.1868 2.89009 10.0094 3.72142 8.06543 5.13609" stroke="#6C9886" stroke-width="2"/>
<path id="Vector_5" d="M28.9812 13.342C28.7498 12.1253 28.3648 10.963 27.8262 9.85498" stroke="#5A9483" stroke-width="2"/>
<path id="Vector_6" d="M27.8264 9.85488C26.3444 6.84988 23.6324 4.58788 20.5234 3.42188" stroke="#639884" stroke-width="2"/>
<path id="Vector_7" d="M20.5237 3.42216C18.6123 2.75016 16.637 2.49016 14.5977 2.64216" stroke="#6D9D8A" stroke-width="2"/>
<path id="Vector_8" d="M20.5236 3.42224C20.4986 3.49424 20.4766 3.54124 20.3906 3.51824C19.9966 3.41357 19.6033 3.3039 19.2106 3.18924C19.0446 3.14124 18.915 3.11824 18.8216 3.12024C18.4846 3.13024 18.0436 3.38724 18.3206 3.77824C18.338 3.80357 18.345 3.83124 18.3416 3.86124C18.3016 4.21124 18.0276 4.26224 17.7956 4.42224C17.7716 4.4389 17.7453 4.44524 17.7166 4.44124C17.594 4.4259 17.4763 4.44124 17.3636 4.48724C17.3579 4.48917 17.3531 4.49317 17.3504 4.49845C17.3476 4.50372 17.3469 4.5099 17.3485 4.51578C17.3502 4.52165 17.3539 4.5268 17.3591 4.53021C17.3643 4.53362 17.3706 4.53506 17.3766 4.53424C17.8766 4.47557 18.1886 4.60757 18.3126 4.93024" stroke="#9BC79F" stroke-width="2"/>
<path id="Vector_9" d="M18.3121 4.93006L17.2181 4.72106C17.1721 4.71239 17.1718 4.70239 17.2171 4.69106C17.2805 4.67572 17.3128 4.63439 17.3141 4.56706C17.3155 4.53173 17.2984 4.51339 17.2631 4.51206C15.4738 4.43406 13.7515 4.71973 12.0961 5.36906C11.9008 5.44573 11.6935 5.55139 11.4741 5.68606C10.9701 5.99606 10.4611 6.28306 9.98712 6.62006C9.16512 7.20506 8.44012 7.62606 7.87012 8.54706" stroke="#B7CCA1" stroke-width="2"/>
<path id="Vector_10" d="M7.87019 8.54689L7.58919 8.89889C7.56719 8.92689 7.54619 8.92655 7.52619 8.89789C7.17119 8.40289 6.77119 8.44189 6.27419 8.33289C6.01953 8.27689 5.76019 8.26722 5.49619 8.30389C5.48054 8.306 5.46461 8.30375 5.45014 8.2974C5.43568 8.29105 5.42324 8.28084 5.41419 8.26789C5.37219 8.20655 5.31853 8.18522 5.2532 8.20389C5.2332 8.20922 5.22086 8.20189 5.2162 8.18189L5.2002 8.10889" stroke="#9BC79F" stroke-width="2"/>
<path id="Vector_11" d="M27.826 9.85498C27.7853 9.86431 27.77 9.89665 27.78 9.95198C27.784 9.97598 27.7763 9.98098 27.757 9.96698L27.733 9.94898C27.703 9.92698 27.6723 9.92631 27.641 9.94698C27.4883 10.0503 27.3253 10.0986 27.152 10.092C26.9753 10.0846 26.8533 10.0926 26.786 10.116C26.59 10.1833 26.398 10.2866 26.21 10.426" stroke="#88BE99" stroke-width="2"/>
<path id="Vector_12" d="M26.2103 10.4258C25.7856 9.57915 25.2433 8.98148 24.5833 8.63281" stroke="#77B395" stroke-width="2"/>
<path id="Vector_13" d="M24.5833 8.63307C24.2243 7.89707 23.3373 7.18407 22.4903 7.50307C22.4563 7.51641 22.4293 7.50774 22.4093 7.47707C21.6813 6.37207 20.0853 5.62307 18.8743 5.22607" stroke="#4B8983" stroke-width="2"/>
<path id="Vector_14" d="M18.8745 5.22618C18.8138 5.08618 18.6265 4.98751 18.3125 4.93018" stroke="#ADC89B" stroke-width="2"/>
<path id="Vector_15" d="M23.7595 7.08302C23.4281 7.08769 23.1051 7.14302 22.7905 7.24902C22.7098 7.27635 22.7118 7.29302 22.7965 7.29902C23.2065 7.32769 23.5848 7.45602 23.9315 7.68402C23.9748 7.71269 23.9898 7.70169 23.9765 7.65102L23.8345 7.14002C23.8302 7.12347 23.8205 7.10884 23.8069 7.0985C23.7933 7.08816 23.7766 7.0827 23.7595 7.08302Z" stroke="#88BE99" stroke-width="2"/>
<path id="Vector_16" d="M18.8738 5.22596C18.0131 4.97129 17.1415 4.84096 16.2588 4.83496" stroke="#668F84" stroke-width="2"/>
<path id="Vector_17" d="M16.2591 4.83496C13.0131 4.95363 10.3384 6.23863 8.23511 8.68996" stroke="#689E8F" stroke-width="2"/>
<path id="Vector_18" d="M8.23512 8.68988L7.87012 8.54688" stroke="#ADC89B" stroke-width="2"/>
<path id="Vector_19" d="M16.2591 4.83496C16.4037 4.90763 16.5527 4.94396 16.7061 4.94396C16.718 4.94423 16.7296 4.94749 16.7399 4.95343C16.7502 4.95937 16.7589 4.9678 16.7651 4.97796C16.8311 5.09063 16.8117 5.14863 16.7071 5.15196C15.8204 5.18463 15.1604 5.54729 14.7271 6.23996C14.6751 6.32329 14.6871 6.33396 14.7631 6.27196C15.5501 5.63696 16.4151 5.24296 17.4211 5.32296C18.0977 5.37629 18.6284 5.46663 19.0131 5.59396C20.1951 5.98496 20.5781 7.12296 19.9041 8.15896C19.8985 8.16751 19.8913 8.17485 19.8829 8.18052C19.8744 8.1862 19.8649 8.19009 19.8549 8.19196C19.8449 8.19383 19.8346 8.19365 19.8246 8.19141C19.8147 8.18918 19.8053 8.18494 19.7971 8.17896C19.1624 7.73029 18.4621 7.48063 17.6961 7.42996C17.5511 7.42096 17.4141 7.36496 17.2971 7.35896C16.4391 7.31163 15.5814 7.30396 14.7241 7.33596C13.1061 7.39596 11.2341 7.88996 9.92607 8.85496C8.98907 9.54696 8.32707 10.153 7.65807 11.158C7.62807 11.2026 7.53274 11.2903 7.37207 11.421" stroke="#066077" stroke-width="2"/>
<path id="Vector_20" d="M7.37223 11.4209L6.78223 11.8479" stroke="#3A8F8C" stroke-width="2"/>
<path id="Vector_21" d="M6.78223 11.8479C6.85423 11.3892 7.00956 10.9709 7.24822 10.5929C7.25701 10.5788 7.26263 10.563 7.26471 10.5465C7.26678 10.5301 7.26525 10.5135 7.26023 10.4979L7.21523 10.3579" stroke="#054F6A" stroke-width="2"/>
<path id="Vector_22" d="M7.21484 10.3579C7.50484 9.77794 7.84484 9.22194 8.23484 8.68994" stroke="#4C998D" stroke-width="2"/>
<path id="Vector_23" d="M9.74929 7.72199C9.61129 7.83899 9.13629 8.26499 9.20529 8.45099C9.2119 8.46919 9.22249 8.4857 9.23628 8.49929C9.25008 8.51288 9.26675 8.52322 9.28505 8.52954C9.30336 8.53587 9.32285 8.53803 9.3421 8.53585C9.36134 8.53368 9.37986 8.52723 9.39629 8.51699C10.7356 7.68565 12.1023 6.90165 13.4963 6.16499C13.6823 6.06699 13.8553 5.91699 14.0163 5.78799C14.0398 5.76896 14.0569 5.74318 14.0654 5.71413C14.0738 5.68508 14.0731 5.65414 14.0634 5.62549C14.0537 5.59684 14.0355 5.57184 14.0111 5.55387C13.9868 5.5359 13.9575 5.52582 13.9273 5.52499C13.7466 5.51965 13.56 5.55165 13.3673 5.62099C12.0353 6.10365 10.8293 6.80399 9.74929 7.72199Z" stroke="#82AA97" stroke-width="2"/>
<path id="Vector_24" d="M24.5832 8.63309C24.3238 8.60442 24.0438 8.48242 23.7432 8.26709" stroke="#317A7F" stroke-width="2"/>
<path id="Vector_25" d="M23.7431 8.26715C23.6471 8.28648 23.5614 8.27148 23.4861 8.22215C23.1131 7.97815 22.6661 7.84515 22.2541 7.67615C22.1328 7.62682 22.0064 7.58648 21.8751 7.55515C21.8324 7.54515 21.7947 7.55448 21.7621 7.58315L20.2841 8.87415C20.2768 8.88046 20.2683 8.88521 20.2591 8.88809C20.2499 8.89097 20.2403 8.89192 20.2307 8.89089C20.2211 8.88986 20.2119 8.88686 20.2035 8.88209C20.1951 8.87731 20.1878 8.87087 20.1821 8.86315C19.9161 8.50915 19.5651 8.27648 19.1291 8.16515C19.1197 8.16239 19.1097 8.16304 19.1008 8.167C19.0919 8.17096 19.0847 8.17796 19.0805 8.18674C19.0763 8.19553 19.0753 8.20553 19.0778 8.21495C19.0803 8.22437 19.0861 8.23259 19.0941 8.23815L19.9571 8.85415C19.9755 8.86737 19.9905 8.88491 20.0006 8.90524C20.0107 8.92556 20.0156 8.94805 20.015 8.97074C20.0145 8.99343 20.0083 9.01563 19.9972 9.0354C19.986 9.05516 19.9702 9.0719 19.9511 9.08415C18.5318 9.99015 16.9774 10.6228 15.2881 10.9821C12.9571 11.4781 10.4991 12.0151 8.66708 13.6671C8.05408 14.2201 8.09809 14.9801 8.20609 15.7561C8.25509 16.1111 8.17509 16.3811 8.04109 16.6851C8.0294 16.7118 8.01147 16.7352 7.9888 16.7535C7.96612 16.7718 7.93936 16.7843 7.91076 16.7901C7.88216 16.7959 7.85255 16.7947 7.82442 16.7867C7.79629 16.7787 7.77045 16.7641 7.74908 16.7441L7.16309 16.1921" stroke="#043F5F" stroke-width="2"/>
<path id="Vector_26" d="M7.16358 16.1921C6.99558 15.9408 6.88591 15.6001 6.83458 15.1701C6.74391 14.4161 6.77558 13.7054 6.92958 13.0381" stroke="#398081" stroke-width="2"/>
<path id="Vector_27" d="M6.92913 13.038C7.02979 13.01 7.12179 13.003 7.20512 13.017C7.21604 13.019 7.2273 13.0174 7.23726 13.0126C7.24722 13.0077 7.25537 12.9998 7.26051 12.9899C7.26564 12.9801 7.26751 12.9689 7.26582 12.9579C7.26413 12.947 7.25898 12.9368 7.25112 12.929C7.16712 12.845 7.05046 12.7853 6.90112 12.75" stroke="#1F6674" stroke-width="2"/>
<path id="Vector_28" d="M6.90112 12.7499C6.98446 12.3186 7.14146 11.8756 7.37213 11.4209" stroke="#398081" stroke-width="2"/>
<path id="Vector_29" d="M11.2704 10.9029C11.2671 10.9149 11.2654 10.9273 11.2654 10.9399C11.2652 10.9452 11.2663 10.9505 11.2687 10.9552C11.2712 10.9599 11.2748 10.9639 11.2793 10.9667C11.2838 10.9696 11.2889 10.9712 11.2942 10.9714C11.2995 10.9716 11.3047 10.9704 11.3094 10.9679C12.5334 10.3499 14.1264 9.76295 15.0414 9.37695C16.1014 8.92995 17.2594 8.58194 18.2504 8.00294C18.2572 7.99917 18.2628 7.99348 18.2664 7.98659C18.27 7.9797 18.2716 7.9719 18.2708 7.96415C18.2701 7.9564 18.2671 7.94904 18.2622 7.94296C18.2574 7.93688 18.2508 7.93236 18.2434 7.92995C16.4204 7.27995 14.8974 7.67794 13.1464 8.44594C11.5594 9.14294 10.3534 10.1549 9.32243 11.5289C9.23443 11.6459 8.47543 12.6479 8.53343 12.6849C8.54283 12.6913 8.55399 12.6943 8.56507 12.6936C8.57615 12.6929 8.58651 12.6884 8.59443 12.6809C9.3831 11.9663 10.2411 11.3473 11.1684 10.8239C11.1804 10.8172 11.1942 10.8141 11.2079 10.8151C11.2216 10.8161 11.2348 10.8212 11.2457 10.8296C11.2565 10.838 11.2647 10.8495 11.2691 10.8625C11.2735 10.8756 11.274 10.8896 11.2704 10.9029Z" stroke="#066077" stroke-width="2"/>
<path id="Vector_30" d="M8.39627 11.137C8.56227 11.118 9.17828 10.519 9.36328 10.388C10.1686 9.81731 10.9759 9.24864 11.7853 8.68197C11.8683 8.62397 11.9793 8.61297 12.0273 8.47797C12.0328 8.46266 12.034 8.44614 12.0307 8.4302C12.0275 8.41425 12.02 8.3995 12.0089 8.38754C11.9979 8.37559 11.9838 8.36688 11.9682 8.36237C11.9525 8.35786 11.936 8.35773 11.9203 8.36197C11.1643 8.56697 10.4213 8.82397 9.80327 9.31997C9.22127 9.78664 8.71161 10.3233 8.27427 10.93C8.25928 10.9506 8.25064 10.9752 8.24942 11.0007C8.2482 11.0262 8.25445 11.0515 8.26741 11.0735C8.28037 11.0955 8.29947 11.1132 8.32236 11.1245C8.34525 11.1357 8.37094 11.1401 8.39627 11.137Z" stroke="#066077" stroke-width="2"/>
<path id="Vector_31" d="M23.7432 8.26709C23.8178 8.36376 23.8998 8.44409 23.9892 8.50809C25.9282 9.89009 25.8192 14.8401 24.6692 16.6521" stroke="#306972" stroke-width="2"/>
<path id="Vector_32" d="M24.6695 16.6519L24.0695 16.9249C24.0401 16.9382 24.0195 16.9599 24.0075 16.9899C23.7588 17.6145 23.8821 18.1329 24.3775 18.5449" stroke="#7A5D58" stroke-width="2"/>
<path id="Vector_33" d="M24.3768 18.5452C24.1075 18.6878 23.8041 18.6355 23.4668 18.3882" stroke="#695053" stroke-width="2"/>
<path id="Vector_34" d="M23.4675 18.3879L23.3135 17.9629" stroke="#7A5D58" stroke-width="2"/>
<path id="Vector_35" d="M23.3131 17.963C23.1681 16.978 23.2971 15.976 23.2861 15.02C23.2841 14.844 23.1564 14.5384 22.9031 14.103" stroke="#7F695E" stroke-width="2"/>
<path id="Vector_36" d="M22.9031 14.1031C22.2098 12.9337 21.7981 11.6777 21.6681 10.3351C21.6676 10.3292 21.6653 10.3237 21.6616 10.3192C21.6579 10.3146 21.6529 10.3114 21.6472 10.3097C21.6416 10.3081 21.6356 10.3082 21.6301 10.3101C21.6245 10.3119 21.6196 10.3154 21.6161 10.3201C19.1531 13.4871 14.6991 14.5641 10.8871 14.1841C10.8809 14.1834 10.8751 14.1811 10.8701 14.1774C10.8651 14.1737 10.8612 14.1688 10.8588 14.1631C10.8563 14.1574 10.8554 14.1511 10.8562 14.145C10.8569 14.1388 10.8593 14.133 10.8631 14.1281C11.3031 13.5527 11.8824 13.1917 12.6011 13.0451C12.6098 13.0437 12.6138 13.0387 12.6131 13.0301C12.6131 13.0214 12.6124 13.0127 12.6111 13.0041C12.6098 12.9967 12.6058 12.9931 12.5991 12.9931C11.6561 13.0061 9.68108 13.3041 9.07108 13.9951C8.51108 14.6291 8.69508 15.6101 8.68708 16.3761C8.67708 17.2811 8.42609 18.4811 7.28809 18.5651" stroke="#775956" stroke-width="2"/>
<path id="Vector_37" d="M7.28809 18.5649C8.03009 18.1879 8.29209 17.0049 7.36609 16.6499" stroke="#7A5D58" stroke-width="2"/>
<path id="Vector_38" d="M7.36609 16.6499C7.28275 16.5612 7.21509 16.4086 7.16309 16.1919" stroke="#386F74" stroke-width="2"/>
<path id="Vector_39" d="M7.21563 10.3579L6.39062 12.2429" stroke="#4A7876" stroke-width="2"/>
<path id="Vector_40" d="M6.3898 12.2432C6.31047 12.2925 6.2558 12.3688 6.2258 12.4722C6.2158 12.5062 6.19347 12.5218 6.1588 12.5192C5.95547 12.5038 5.8148 12.5255 5.7368 12.5842C5.35747 12.8695 4.93181 13.0392 4.45981 13.0932C4.42914 13.0972 4.4048 13.1115 4.3868 13.1362L4.1748 13.4262" stroke="#7FB998" stroke-width="2"/>
<path id="Vector_41" d="M4.17496 13.4262C4.11963 13.4175 4.08963 13.4052 4.08496 13.3892" stroke="#9BC79F" stroke-width="2"/>
<path id="Vector_42" d="M4.08473 13.3889C4.13973 13.3339 4.11573 13.2749 4.05573 13.2379C3.75639 13.0546 3.43606 12.9066 3.09473 12.7939" stroke="#7FB998" stroke-width="2"/>
<path id="Vector_43" d="M6.28555 9.45493L6.29455 9.31793C6.29496 9.31228 6.29425 9.3066 6.29245 9.30123C6.29066 9.29586 6.28783 9.29089 6.28411 9.28662C6.28039 9.28234 6.27587 9.27884 6.2708 9.27632C6.26572 9.2738 6.2602 9.27231 6.25455 9.27193L6.18855 9.26793C6.12526 9.26378 6.06393 9.26944 6.01788 9.28366C5.97183 9.29789 5.94476 9.31955 5.94255 9.34393L5.93955 9.38193C5.93865 9.39412 5.944 9.40661 5.95528 9.41869C5.96656 9.43077 5.98355 9.4422 6.00528 9.45232C6.02702 9.46245 6.05307 9.47107 6.08194 9.47769C6.11081 9.48432 6.14194 9.48882 6.17355 9.49093L6.23955 9.49593C6.24528 9.49634 6.25103 9.49559 6.25647 9.49374C6.26191 9.49188 6.26691 9.48896 6.2712 9.48514C6.27549 9.48132 6.27897 9.47667 6.28144 9.47149C6.2839 9.4663 6.2853 9.46067 6.28555 9.45493Z" stroke="#9BC79F" stroke-width="2"/>
<path id="Vector_44" d="M26.21 10.4263C26.5553 11.0996 26.8433 11.8543 27.074 12.6903C27.084 12.7269 27.108 12.7419 27.146 12.7353C27.238 12.7179 27.3046 12.7356 27.346 12.7883" stroke="#6EAF95" stroke-width="2"/>
<path id="Vector_45" d="M27.3458 12.7881L27.2818 13.1221C27.2751 13.1574 27.2548 13.1804 27.2208 13.1911L26.8148 13.3171C26.8016 13.3212 26.7902 13.3297 26.7824 13.341C26.7746 13.3524 26.7708 13.366 26.7716 13.3798C26.7724 13.3936 26.7778 13.4067 26.7869 13.4171C26.7959 13.4274 26.8082 13.4345 26.8218 13.4371L27.2378 13.5151C27.2523 13.5179 27.266 13.5241 27.2776 13.5331C27.2893 13.5422 27.2986 13.5538 27.3048 13.5671C27.4028 13.7738 27.4601 14.0144 27.4768 14.2891" stroke="#93B997" stroke-width="2"/>
<path id="Vector_46" d="M27.4775 14.2891L27.4975 14.7191C27.4989 14.7504 27.5145 14.7707 27.5445 14.7801C27.6635 14.8171 27.7015 15.5141 27.7245 15.6631C27.7299 15.6971 27.7255 15.7297 27.7115 15.7611C27.6342 15.9357 27.6305 16.1104 27.7005 16.2851C27.7132 16.3171 27.7125 16.3487 27.6985 16.3801C27.6432 16.5034 27.6189 16.6194 27.6255 16.7281" stroke="#6EAF95" stroke-width="2"/>
<path id="Vector_47" d="M27.6249 16.728C27.5642 16.874 27.4699 16.9717 27.3419 17.021C27.3105 17.033 27.3105 17.046 27.3419 17.06L27.4919 17.126" stroke="#93B997" stroke-width="2"/>
<path id="Vector_48" d="M27.4917 17.126C27.5077 17.826 27.421 18.5446 27.2317 19.282C26.9937 20.207 26.8577 21.079 26.2757 21.929C26.1804 22.0683 26.1224 22.183 26.1017 22.273C26.069 22.4163 26.077 22.549 26.1257 22.671" stroke="#65AA94" stroke-width="2"/>
<path id="Vector_49" d="M26.1257 22.6709L26.1117 23.2039C26.1104 23.2452 26.0891 23.2666 26.0477 23.2679C25.5331 23.2852 25.4237 23.3316 25.7197 23.4069" stroke="#93B997" stroke-width="2"/>
<path id="Vector_50" d="M25.7201 23.4072C25.0988 24.2186 24.5151 25.0516 23.9691 25.9062C23.6451 26.4122 23.0611 26.7072 22.5181 26.9122C21.8374 27.1682 21.1511 27.4082 20.4591 27.6322C20.3678 27.6616 20.2691 27.7476 20.1631 27.8902" stroke="#65AA94" stroke-width="2"/>
<path id="Vector_51" d="M20.1631 27.8903C19.7531 26.5603 19.2981 25.5853 18.0311 24.8473C18.0011 24.83 17.9894 24.8043 17.9961 24.7703C18.0208 24.6396 17.9931 24.5853 17.9131 24.6073" stroke="#539B8F" stroke-width="2"/>
<path id="Vector_52" d="M17.9131 24.6069C20.2911 24.0219 22.4941 22.7689 23.3301 20.3049C23.3421 20.2682 23.3664 20.2562 23.4031 20.2689C24.4131 20.6269 25.4621 20.2949 26.0331 19.4069C26.5151 18.6559 26.4131 17.8119 25.7521 17.2239C25.4691 16.9729 25.0271 16.8589 24.6691 16.6519" stroke="#A79878" stroke-width="2"/>
<path id="Vector_53" d="M23.0592 24.2622L22.7582 24.3182C22.751 24.3196 22.7444 24.3233 22.7395 24.3288C22.7346 24.3342 22.7315 24.3411 22.7309 24.3484C22.7302 24.3558 22.7319 24.3631 22.7358 24.3694C22.7396 24.3756 22.7454 24.3805 22.7522 24.3832C22.8342 24.4152 22.9192 24.4239 23.0072 24.4092C23.0251 24.4064 23.0435 24.4094 23.0595 24.4179C23.0756 24.4264 23.0885 24.4398 23.0962 24.4562C23.1449 24.5595 23.1672 24.6712 23.1632 24.7912C23.163 24.7983 23.1651 24.8053 23.1691 24.8111C23.1732 24.8169 23.179 24.8213 23.1858 24.8236C23.1925 24.8258 23.1998 24.8258 23.2065 24.8236C23.2133 24.8214 23.2191 24.817 23.2232 24.8112C23.2779 24.7345 23.2849 24.6545 23.2442 24.5712C23.2116 24.5045 23.2319 24.4762 23.3052 24.4862C23.3726 24.4962 23.4332 24.4822 23.4872 24.4442C23.4941 24.4395 23.4995 24.433 23.503 24.4255C23.5066 24.4179 23.508 24.4096 23.5073 24.4012C23.5066 24.3928 23.5038 24.3847 23.499 24.3777C23.4943 24.3707 23.4878 24.365 23.4802 24.3612L23.3702 24.3072C23.3416 24.2939 23.3229 24.2719 23.3142 24.2412L23.2062 23.8492C23.2039 23.8382 23.1975 23.8284 23.1883 23.8219C23.1792 23.8153 23.1679 23.8124 23.1567 23.8138C23.1455 23.8152 23.1352 23.8207 23.1279 23.8293C23.1206 23.8379 23.1168 23.8489 23.1172 23.8602L23.1102 24.2022C23.1096 24.2362 23.0926 24.2562 23.0592 24.2622Z" stroke="#93B997" stroke-width="2"/>
<path id="Vector_54" d="M28.9811 13.3418C29.3851 15.8018 29.3161 18.2308 28.5681 20.6128" stroke="#598F80" stroke-width="2"/>
<path id="Vector_55" d="M28.5678 20.6133C28.2298 21.5719 27.7795 22.4709 27.2168 23.3103" stroke="#568679" stroke-width="2"/>
<path id="Vector_56" d="M27.2169 23.31C26.6619 23.611 27.5189 21.805 27.5449 21.756C28.2099 20.535 28.1879 18.831 28.0999 17.457C28.0899 17.3057 28.0283 17.167 27.9149 17.041" stroke="#76B597" stroke-width="2"/>
<path id="Vector_57" d="M27.9152 17.041L27.6252 16.728" stroke="#A3C49A" stroke-width="2"/>
<path id="Vector_58" d="M27.4767 14.2888C27.56 14.1102 27.6027 13.9238 27.6047 13.7298C27.6047 13.7114 27.6083 13.6932 27.6154 13.6763C27.6224 13.6593 27.6327 13.6438 27.6457 13.6308C27.7924 13.4788 27.9717 13.3875 28.1837 13.3568C28.3764 13.3288 28.3787 13.2835 28.1907 13.2208C28.0047 13.1598 27.6647 13.3328 27.6197 12.9838C27.5937 12.7838 27.5594 12.5855 27.5167 12.3888C27.5144 12.3794 27.509 12.3709 27.5013 12.3648C27.4936 12.3588 27.4841 12.3555 27.4744 12.3555C27.4647 12.3555 27.4554 12.3588 27.448 12.3648C27.4406 12.3709 27.4356 12.3794 27.4337 12.3888L27.3457 12.7878" stroke="#A3C49A" stroke-width="2"/>
<path id="Vector_59" d="M22.9035 14.1031L22.7305 14.1261C22.7005 14.1301 22.6765 14.1201 22.6585 14.0961C22.1505 13.3961 21.7779 12.6284 21.5405 11.7931C21.5292 11.7531 21.5085 11.7471 21.4785 11.7751C18.7805 14.2821 15.5265 14.9661 11.9315 14.7621C11.4405 14.7341 11.0595 14.5731 10.6375 14.3581C10.5135 14.2954 10.3899 14.2671 10.2665 14.2731C9.75553 14.2971 9.24653 14.2241 9.19353 14.9121C9.12853 15.7341 8.91853 16.5621 8.88253 17.3381C8.83653 18.2991 8.77853 19.0511 8.97053 19.7631" stroke="#F29362" stroke-width="2"/>
<path id="Vector_60" d="M8.97021 19.7629C8.16955 20.0489 7.59488 19.8389 7.24621 19.1329C7.14555 18.9276 7.15955 18.7383 7.28821 18.5649" stroke="#EE875C" stroke-width="2"/>
<path id="Vector_61" d="M6.78263 11.8481L6.39062 12.2431" stroke="#386F74" stroke-width="2"/>
<path id="Vector_62" d="M6.90112 12.75L6.92913 13.038" stroke="#539689" stroke-width="2"/>
<path id="Vector_63" d="M7.36574 16.6499C7.29441 16.6979 7.21774 16.7196 7.13574 16.7149" stroke="#AF9D7A" stroke-width="2"/>
<path id="Vector_64" d="M7.13625 16.7148C5.62725 16.9468 5.53425 18.7368 6.46225 19.6448" stroke="#9BBE99" stroke-width="2"/>
<path id="Vector_65" d="M6.46191 19.645L6.93492 20.008" stroke="#AF9D7A" stroke-width="2"/>
<path id="Vector_66" d="M6.93552 20.0078C7.12818 20.2138 7.04752 20.2625 6.69352 20.1538C6.66685 20.1458 6.64285 20.1505 6.62151 20.1678C6.51551 20.2525 6.40785 20.3358 6.29851 20.4178C6.11951 20.5528 5.86251 20.5778 5.69651 20.7758C5.54651 20.9568 5.62152 21.1818 5.36252 21.3598C5.33452 21.3785 5.31485 21.4041 5.30352 21.4368C5.20552 21.7118 5.10051 22.0078 4.76151 21.9388C4.74272 21.9348 4.72312 21.9382 4.70674 21.9483C4.69037 21.9583 4.67848 21.9743 4.67351 21.9928C4.65085 22.0788 4.59118 22.1185 4.49452 22.1118C4.45585 22.1098 4.43085 22.1271 4.41952 22.1638L4.40052 22.2218C4.38852 22.2591 4.36752 22.2655 4.33752 22.2408L4.27552 22.1898C4.26986 22.1849 4.26287 22.1819 4.25545 22.1812C4.24804 22.1804 4.24055 22.182 4.23396 22.1857C4.22737 22.1893 4.22199 22.195 4.21852 22.2018C4.21505 22.2086 4.21366 22.2162 4.21451 22.2238L4.23051 22.3548C4.23518 22.3908 4.22118 22.4008 4.18852 22.3848L4.06052 22.3238C4.05867 22.3228 4.05714 22.3212 4.05613 22.3194C4.05513 22.3175 4.0547 22.3154 4.05493 22.3134C4.05515 22.3114 4.05601 22.3095 4.05737 22.3082C4.05874 22.3068 4.06054 22.306 4.06252 22.3058L4.09752 22.2998C4.12152 22.2958 4.12485 22.2855 4.10752 22.2688L4.07451 22.2348C4.06251 22.2228 4.04885 22.2211 4.03351 22.2298C4.02151 22.2371 4.00318 22.2441 3.97852 22.2508" stroke="#60A894" stroke-width="2"/>
<path id="Vector_67" d="M3.97809 22.2511C3.41343 21.1591 3.04443 20.0044 2.87109 18.7871" stroke="#4B7C75" stroke-width="2"/>
<path id="Vector_68" d="M4.08511 13.3892C3.99111 13.3792 3.93478 13.4182 3.91611 13.5062C3.91333 13.519 3.91338 13.5323 3.91626 13.5451C3.91914 13.5579 3.92478 13.5699 3.93278 13.5802C3.94078 13.5906 3.95095 13.5991 3.96258 13.6052C3.97421 13.6112 3.98702 13.6146 4.00011 13.6152C4.08011 13.6186 4.14478 13.5876 4.19411 13.5222C4.20878 13.5022 4.20944 13.4816 4.19611 13.4602L4.17511 13.4262" stroke="#89BD9E" stroke-width="2"/>
<path id="Vector_69" d="M3.71057 18.4693C3.68324 18.5446 3.7099 18.5966 3.79057 18.6253C3.80364 18.6298 3.81756 18.6315 3.83133 18.63C3.8451 18.6286 3.85838 18.6241 3.87023 18.617C3.88207 18.6098 3.89219 18.6001 3.89986 18.5886C3.90752 18.577 3.91255 18.564 3.91457 18.5503C3.93524 18.4143 3.87924 18.3743 3.74657 18.4303C3.72995 18.4379 3.71701 18.4519 3.71057 18.4693Z" stroke="#89BD9E" stroke-width="2"/>
<path id="Vector_70" d="M23.3129 17.963L23.3159 18.011C23.3186 18.0464 23.3019 18.064 23.2659 18.064H23.2169C23.1863 18.064 23.1702 18.0487 23.1689 18.018C23.1682 17.994 23.1666 17.9687 23.1639 17.942C23.1572 17.878 23.1509 17.878 23.1449 17.942C22.8219 21.305 21.0339 22.907 18.0369 24.026C17.6789 24.1594 17.3206 24.3057 16.9619 24.465" stroke="#F69764" stroke-width="2"/>
<path id="Vector_71" d="M16.9626 24.4648L15.1416 24.5988" stroke="#E58B5F" stroke-width="2"/>
<path id="Vector_72" d="M15.1411 24.5991L14.6221 24.6551" stroke="#A19B7B" stroke-width="2"/>
<path id="Vector_73" d="M14.6222 24.6551C11.9022 24.2251 9.8162 22.8411 9.0332 20.0781" stroke="#A6A27E" stroke-width="2"/>
<path id="Vector_74" d="M9.03273 20.0782L8.96973 19.7632" stroke="#F69764" stroke-width="2"/>
<path id="Vector_75" d="M19.034 15.5579C18.892 15.7779 18.9036 15.9619 19.069 16.1099C19.324 16.3369 19.624 16.2199 19.941 16.1639C20.511 16.0639 21.227 16.6379 21.62 17.0339C21.732 17.1472 21.8303 17.1429 21.915 17.0209C21.9311 16.9976 21.9411 16.9707 21.9439 16.9425C21.9467 16.9143 21.9422 16.8859 21.931 16.8599C21.5756 16.0212 20.965 15.4906 20.099 15.2679C19.705 15.1669 19.258 15.2099 19.034 15.5579Z" stroke="#8E543A" stroke-width="2"/>
<path id="Vector_76" d="M12.1156 15.36C11.3106 15.351 10.2626 15.884 10.0866 16.737C10.0606 16.8636 10.1023 16.9533 10.2116 17.006C10.2416 17.0206 10.2709 17.019 10.2996 17.001C10.9456 16.586 11.3936 16.046 12.2456 16.441C13.3776 16.967 13.4396 15.375 12.1156 15.36Z" stroke="#8E543A" stroke-width="2"/>
<path id="Vector_77" d="M10.3447 18.9341C10.4054 19.2201 10.5304 19.3621 10.7197 19.3601" stroke="#E7A269" stroke-width="2"/>
<path id="Vector_78" d="M10.7197 19.3599C11.2487 19.5929 12.0767 19.8339 12.6537 19.6329C12.6655 19.6286 12.6756 19.6205 12.6824 19.6099C12.6893 19.5992 12.6926 19.5866 12.6917 19.5739C12.6891 19.5299 12.6691 19.5089 12.6317 19.5109" stroke="#F9CCAF" stroke-width="2"/>
<path id="Vector_79" d="M12.6323 19.511C13.3593 19.008 13.2613 18.091 12.5753 17.635C11.7783 17.105 10.7983 17.443 10.2773 18.18C10.0786 18.4607 10.1013 18.712 10.3453 18.934" stroke="#94563A" stroke-width="2"/>
<path id="Vector_80" d="M12.6319 19.5108C12.0849 19.7578 11.4639 19.5108 11.3069 18.9398C11.2089 18.5848 11.4439 17.9788 11.8809 17.9558C11.9002 17.9549 11.9193 17.9603 11.9352 17.9714C11.951 17.9824 11.9627 17.9985 11.9684 18.0169C11.9742 18.0354 11.9736 18.0552 11.9668 18.0733C11.96 18.0914 11.9474 18.1067 11.9309 18.1168C11.8296 18.1795 11.7853 18.2678 11.7979 18.3818C11.8015 18.4132 11.8126 18.4433 11.8302 18.4695C11.8479 18.4957 11.8717 18.5172 11.8995 18.5322C11.9273 18.5473 11.9583 18.5553 11.9899 18.5558C12.0215 18.5563 12.0527 18.5491 12.0809 18.5348C12.4069 18.3718 12.4019 18.0558 12.0739 17.9118C11.3259 17.5818 10.5119 18.1548 10.3779 18.9078" stroke="#937F7E" stroke-width="2"/>
<path id="Vector_81" d="M10.3777 18.9082C10.3677 18.9295 10.3567 18.9382 10.3447 18.9342" stroke="#805539" stroke-width="2"/>
<path id="Vector_82" d="M10.7199 19.3602C10.5279 19.2602 10.4139 19.1095 10.3779 18.9082" stroke="#E6CBAE" stroke-width="2"/>
<path id="Vector_83" d="M19.0569 18.855C18.9869 19.2183 19.1806 19.4816 19.6379 19.645C20.0819 19.803 21.7679 19.843 21.6879 19.026" stroke="#F9CCAF" stroke-width="2"/>
<path id="Vector_84" d="M21.6878 19.0261C21.8958 18.7641 21.9608 18.5041 21.7548 18.2071C20.9728 17.0781 18.9498 17.1871 19.0568 18.8551" stroke="#8E543A" stroke-width="2"/>
<path id="Vector_85" d="M21.6878 19.0262C21.5428 17.4772 19.4568 17.5682 19.8348 18.4012C19.8468 18.4278 19.8646 18.4514 19.8868 18.4704C19.909 18.4893 19.9351 18.5031 19.9633 18.5109C19.9914 18.5186 20.021 18.52 20.0497 18.5151C20.0785 18.5101 20.1058 18.4989 20.1298 18.4822L20.2868 18.3722" stroke="#8D7D7E" stroke-width="2"/>
<path id="Vector_86" d="M20.2871 18.372L20.4411 18.188" stroke="#370F0E" stroke-width="2"/>
<path id="Vector_87" d="M20.4412 18.188L20.6392 18.394" stroke="#4B1F1A" stroke-width="2"/>
<path id="Vector_88" d="M20.6392 18.394C20.5099 18.9054 20.1962 19.096 19.6982 18.966C19.6725 18.9592 19.6451 18.9613 19.6207 18.9721C19.5963 18.9828 19.5764 19.0016 19.5641 19.0253C19.5519 19.049 19.5481 19.0762 19.5534 19.1023C19.5587 19.1284 19.5727 19.152 19.5932 19.169L19.7392 19.292C19.7719 19.3194 19.7776 19.3514 19.7562 19.388L19.6692 19.543" stroke="#370F0E" stroke-width="2"/>
<path id="Vector_89" d="M19.6696 19.543C19.395 19.4596 19.191 19.2303 19.0576 18.855" stroke="#8D7D7E" stroke-width="2"/>
<path id="Vector_90" d="M19.6689 19.5432C20.5409 19.8652 21.11 18.8792 20.743 18.2152C20.603 17.9642 20.2949 17.8292 20.0629 18.0512" stroke="#A28783" stroke-width="2"/>
<path id="Vector_91" d="M20.0635 18.0513C19.9445 18.1193 19.8835 18.3523 20.0575 18.3633C20.0645 18.3639 20.0716 18.3626 20.0779 18.3594C20.0843 18.3562 20.0896 18.3514 20.0934 18.3453C20.0972 18.3392 20.0993 18.3322 20.0995 18.325C20.0997 18.3178 20.098 18.3106 20.0945 18.3043C20.0258 18.1809 20.0315 18.1066 20.1115 18.0813" stroke="#97B2B1" stroke-width="2"/>
<path id="Vector_92" d="M20.1111 18.0811C20.1971 18.1291 20.2557 18.2261 20.2871 18.3721" stroke="#A28783" stroke-width="2"/>
<path id="Vector_93" d="M20.6392 18.394C20.7032 18.258 20.6372 18.1893 20.4412 18.188" stroke="#60281F" stroke-width="2"/>
<path id="Vector_94" d="M20.1115 18.0813C20.1148 18.0746 20.0988 18.0646 20.0635 18.0513" stroke="#414341" stroke-width="2"/>
<path id="Vector_95" d="M21.6283 19.8761L21.4733 20.0031C21.4658 20.0092 21.4597 20.0167 21.4551 20.0252C21.4506 20.0337 21.4478 20.043 21.4469 20.0525C21.4459 20.0621 21.4469 20.0718 21.4497 20.081C21.4525 20.0902 21.4571 20.0987 21.4633 20.1061L21.5003 20.1501C21.549 20.2095 21.6087 20.2559 21.666 20.2792C21.7234 20.3024 21.7738 20.3006 21.8063 20.2741L21.8293 20.2551C21.8454 20.242 21.8566 20.2231 21.8622 20.1997C21.8678 20.1762 21.8678 20.1486 21.862 20.1184C21.8562 20.0882 21.8449 20.056 21.8287 20.0237C21.8124 19.9914 21.7915 19.9596 21.7673 19.9301L21.7313 19.8861C21.7252 19.8787 21.7177 19.8725 21.7092 19.868C21.7007 19.8635 21.6914 19.8606 21.6819 19.8597C21.6723 19.8588 21.6626 19.8598 21.6534 19.8626C21.6442 19.8654 21.6357 19.87 21.6283 19.8761Z" stroke="#FBB27F" stroke-width="2"/>
<path id="Vector_96" d="M14.1865 22.353C14.6832 22.6644 15.2165 22.8977 15.7865 23.053" stroke="#94563A" stroke-width="2"/>
<path id="Vector_97" d="M15.7861 23.0531C16.4608 23.1938 17.1035 23.0914 17.7141 22.7461" stroke="#C76341" stroke-width="2"/>
<path id="Vector_98" d="M17.7139 22.7459C18.1372 22.5486 18.5172 22.2959 18.8539 21.9879C18.8939 21.9513 18.8876 21.9383 18.8349 21.9489C17.3029 22.2576 15.7899 22.3569 14.2959 22.2469" stroke="#94563A" stroke-width="2"/>
<path id="Vector_99" d="M14.2963 22.247C13.507 22.1156 12.781 21.9103 12.1183 21.631C12.0696 21.6103 12.0406 21.6256 12.0313 21.677L12.0123 21.771C12.0056 21.8076 12.0203 21.8303 12.0563 21.839L14.1863 22.353" stroke="#E58B5F" stroke-width="2"/>
<path id="Vector_100" d="M14.2958 22.2471C14.2078 22.2677 14.1711 22.3031 14.1858 22.3531" stroke="#7E3E2E" stroke-width="2"/>
<path id="Vector_101" d="M17.7141 22.7463C17.6081 22.681 17.4955 22.645 17.3761 22.6383C17.3428 22.6363 17.3135 22.6243 17.2881 22.6023C17.1521 22.4803 16.9991 22.429 16.8291 22.4483C16.3431 22.5043 15.9611 22.4783 15.7861 23.0533" stroke="#601611" stroke-width="2"/>
<path id="Vector_102" d="M17.9135 24.6072C17.6748 24.6459 17.4335 24.6352 17.1895 24.5752" stroke="#9D8F75" stroke-width="2"/>
<path id="Vector_103" d="M17.1889 24.5748L16.9619 24.4648" stroke="#E07F59" stroke-width="2"/>
<path id="Vector_104" d="M23.4676 18.388L23.3936 19.931C23.393 19.9461 23.3968 19.9612 23.4046 19.9743C23.4124 19.9874 23.4239 19.9981 23.4376 20.005C23.9606 20.265 24.7096 19.696 24.9756 19.301C25.3816 18.697 24.6956 18.121 24.2606 17.835C24.2339 17.8176 24.2156 17.7933 24.2056 17.762L24.0676 17.315C24.0629 17.2996 24.0589 17.3 24.0556 17.316C23.9506 17.852 24.0206 18.054 24.4386 18.393C24.4501 18.4023 24.4577 18.4156 24.4599 18.4304C24.4621 18.4452 24.4588 18.4603 24.4506 18.473C24.4279 18.5056 24.4036 18.5296 24.3776 18.545" stroke="#E07F59" stroke-width="2"/>
<path id="Vector_105" d="M9.03354 20.0778C8.52221 20.3558 7.99555 20.4161 7.45355 20.2588C7.28255 20.2088 7.12155 20.0698 6.93555 20.0078" stroke="#A29678" stroke-width="2"/>
<path id="Vector_106" d="M6.46208 19.6448C6.11742 19.1715 5.97541 18.6675 6.03608 18.1328C6.06908 17.8418 6.31208 17.2768 6.52008 17.0898C6.68208 16.9458 6.88741 16.8208 7.13608 16.7148" stroke="#DDAC7D" stroke-width="2"/>
<path id="Vector_107" d="M27.9152 17.041C27.6972 17.2303 27.5562 17.2587 27.4922 17.126" stroke="#9BBE99" stroke-width="2"/>
<path id="Vector_108" d="M16.7761 29.3963L18.1891 29.1973" stroke="#407975" stroke-width="2"/>
<path id="Vector_109" d="M18.1895 29.1971L18.6555 29.1101C18.6915 29.1035 18.7101 29.0815 18.7115 29.0441C18.7241 28.4361 18.6871 27.8308 18.6005 27.2281C18.5996 27.2191 18.602 27.21 18.6073 27.2025C18.6126 27.1951 18.6203 27.1898 18.6292 27.1876C18.638 27.1854 18.6474 27.1865 18.6555 27.1907C18.6636 27.1948 18.67 27.2017 18.6735 27.2101C18.8755 27.7768 19.0101 28.3588 19.0775 28.9561C19.0784 28.9637 19.0809 28.9711 19.0848 28.9776C19.0888 28.9841 19.094 28.9897 19.1002 28.994C19.1063 28.9983 19.1133 29.0011 19.1206 29.0024C19.1279 29.0036 19.1354 29.0032 19.1425 29.0011L20.3645 28.6661" stroke="#3B7273" stroke-width="2"/>
<path id="Vector_110" d="M20.3643 28.6661C23.2876 27.6894 25.5719 25.9041 27.2173 23.3101" stroke="#4D8178" stroke-width="2"/>
<path id="Vector_111" d="M20.3641 28.6661L20.1631 27.8901" stroke="#5BA191" stroke-width="2"/>
<path id="Vector_112" d="M25.7197 23.4069C25.8497 23.4229 25.9574 23.4669 26.0427 23.5389C26.0681 23.5602 26.0824 23.5872 26.0857 23.6199L26.1537 24.1949C26.1611 24.2536 26.1781 24.2566 26.2047 24.2039C26.3287 23.9569 26.3077 23.7399 26.4007 23.5419C26.4167 23.5086 26.4431 23.4912 26.4797 23.4899C26.6011 23.4852 26.6991 23.4399 26.7737 23.3539C26.78 23.3466 26.7843 23.3378 26.7862 23.3283C26.788 23.3189 26.7873 23.3091 26.7842 23.3C26.781 23.2908 26.7755 23.2827 26.7683 23.2764C26.761 23.2701 26.7522 23.2657 26.7427 23.2639L26.4797 23.2129C26.4603 23.2088 26.4419 23.2006 26.4258 23.1887C26.4098 23.1767 26.3965 23.1615 26.3867 23.1439L26.1257 22.6709" stroke="#9BBE99" stroke-width="2"/>
<path id="Vector_113" d="M11.5774 18.3824C11.5838 18.387 11.5917 18.3894 11.6007 18.3894C11.6097 18.3894 11.6195 18.387 11.6297 18.3825C11.6398 18.3779 11.6501 18.3711 11.6599 18.3626C11.6697 18.3542 11.6789 18.3441 11.6869 18.333C11.6948 18.3219 11.7015 18.31 11.7064 18.298C11.7113 18.286 11.7144 18.2741 11.7155 18.263C11.7166 18.2519 11.7157 18.2418 11.7129 18.2333C11.71 18.2248 11.7052 18.2181 11.6988 18.2135C11.6924 18.2089 11.6845 18.2065 11.6756 18.2065C11.6666 18.2065 11.6568 18.2089 11.6466 18.2135C11.6364 18.2181 11.6262 18.2248 11.6163 18.2333C11.6065 18.2418 11.5974 18.2519 11.5894 18.263C11.5814 18.2741 11.5748 18.2859 11.5699 18.298C11.565 18.31 11.5619 18.3218 11.5608 18.3329C11.5597 18.344 11.5606 18.3541 11.5634 18.3626C11.5663 18.3711 11.571 18.3778 11.5774 18.3824Z" stroke="#684633" stroke-width="2"/>
<path id="Vector_114" d="M3.97852 22.251C5.81752 25.775 9.09351 28.305 13.0175 29.061" stroke="#3D7472" stroke-width="2"/>
<path id="Vector_115" d="M13.0176 29.061L13.3836 29.139" stroke="#316267" stroke-width="2"/>
<path id="Vector_116" d="M13.3828 29.1392C14.4748 29.3712 15.6058 29.4568 16.7758 29.3962" stroke="#3D7472" stroke-width="2"/>
<path id="Vector_117" d="M14.6222 24.6553C14.6442 24.8806 14.5862 24.9783 14.4482 24.9483" stroke="#4D998F" stroke-width="2"/>
<path id="Vector_118" d="M14.4485 24.9482C13.5451 25.3469 12.8735 26.0249 12.4335 26.9822C12.1761 27.5416 11.9995 28.0846 11.9035 28.6112C11.9029 28.6156 11.9038 28.6199 11.906 28.6236C11.9082 28.6272 11.9115 28.6299 11.9155 28.6312C11.9241 28.6339 11.9328 28.6366 11.9415 28.6392C11.9675 28.6472 11.9828 28.6379 11.9875 28.6112C12.2135 27.3492 12.8535 26.0592 13.9165 25.3022" stroke="#80B798" stroke-width="2"/>
<path id="Vector_119" d="M13.9163 25.3019C14.0056 25.3485 14.0909 25.3372 14.1723 25.2679C14.2003 25.2439 14.2293 25.2422 14.2593 25.2629C14.3039 25.2942 14.3449 25.3129 14.3823 25.3189" stroke="#4D998F" stroke-width="2"/>
<path id="Vector_120" d="M14.3818 25.3188L14.4038 25.8408C14.4044 25.8579 14.4103 25.8743 14.4207 25.8881C14.431 25.9018 14.4454 25.9122 14.4618 25.9178C14.5998 25.9645 14.7075 25.9268 14.7848 25.8048C14.7959 25.7871 14.8128 25.7725 14.8327 25.7636C14.8525 25.7547 14.8742 25.7519 14.8941 25.7558C14.914 25.7596 14.931 25.7698 14.9422 25.7848C14.9534 25.7997 14.9582 25.8184 14.9558 25.8378C14.9305 26.0618 15.0165 26.2048 15.2138 26.2668C15.2492 26.2782 15.2752 26.2672 15.2918 26.2339L15.4648 25.8898C15.4686 25.8823 15.4741 25.8759 15.4809 25.871C15.4877 25.8661 15.4956 25.863 15.5039 25.8619C15.5122 25.8609 15.5206 25.8618 15.5285 25.8648C15.5363 25.8677 15.5433 25.8726 15.5488 25.8788L15.9028 26.2878C15.9262 26.3145 15.957 26.3335 15.9913 26.3425C16.0256 26.3514 16.0618 26.3499 16.0952 26.338C16.1285 26.3262 16.1576 26.3046 16.1786 26.276C16.1996 26.2475 16.2115 26.2133 16.2128 26.1779C16.2168 26.0625 16.2538 25.9425 16.3238 25.8178" stroke="#A2C4A5" stroke-width="2"/>
<path id="Vector_121" d="M16.3242 25.8182L16.3352 25.7932C16.3486 25.7632 16.3609 25.7635 16.3722 25.7942C16.4416 25.9848 16.5562 26.1428 16.7162 26.2682C16.7315 26.2803 16.7504 26.2871 16.77 26.2877C16.7897 26.2882 16.809 26.2824 16.8252 26.2712C17.0032 26.1485 17.0969 25.9768 17.1062 25.7562C17.1069 25.7381 17.114 25.7209 17.1263 25.7076C17.1385 25.6943 17.1551 25.6858 17.173 25.6837C17.191 25.6815 17.2091 25.6858 17.2242 25.6958C17.2392 25.7058 17.2502 25.7208 17.2552 25.7382C17.2899 25.8568 17.3859 25.9392 17.5432 25.9852" stroke="#8DB797" stroke-width="2"/>
<path id="Vector_122" d="M17.5432 25.9849C17.6339 26.0729 17.7319 26.1312 17.8372 26.1599C17.8516 26.1636 17.8649 26.1706 17.8764 26.1803C17.8878 26.19 17.8969 26.2021 17.9032 26.2159C17.9639 26.3505 18.0009 26.4749 18.0142 26.5889C18.1015 27.3529 18.1599 28.2222 18.1892 29.1969" stroke="#4D998F" stroke-width="2"/>
<path id="Vector_123" d="M13.3836 29.1392C13.3802 28.5266 13.4559 27.9266 13.6106 27.3392C13.6292 27.2692 13.6219 27.2666 13.5886 27.3312C13.3066 27.8772 13.1162 28.4539 13.0176 29.0612" stroke="#468E86" stroke-width="2"/>
<path id="Vector_124" d="M17.1896 24.5752C16.9663 25.1352 16.4979 25.3669 15.7846 25.2702C15.3959 25.2175 15.1816 24.9939 15.1416 24.5992" stroke="#8C8270" stroke-width="2"/>
<path id="Vector_125" d="M17.5431 25.9851C17.8461 25.9851 17.8371 25.4361 17.8481 25.2151C17.8484 25.2058 17.846 25.1967 17.8411 25.1888C17.8362 25.1809 17.8291 25.1746 17.8206 25.1707C17.8122 25.1669 17.8028 25.1656 17.7936 25.1671C17.7844 25.1686 17.7759 25.1728 17.7691 25.1791C17.3671 25.5564 16.8731 25.7398 16.2871 25.7291" stroke="#88B094" stroke-width="2"/>
<path id="Vector_126" d="M16.2868 25.7293C15.6968 25.7763 14.8888 25.7293 14.5378 25.1903C14.5172 25.1583 14.4898 25.151 14.4558 25.1683C14.4138 25.1896 14.3892 25.24 14.3818 25.3193" stroke="#9DBDA3" stroke-width="2"/>
<path id="Vector_127" d="M13.9163 25.3022C14.1629 25.2036 14.3403 25.0856 14.4483 24.9482" stroke="#7BB095" stroke-width="2"/>
<path id="Vector_128" d="M16.2871 25.729L16.3241 25.818" stroke="#DDDBAB" stroke-width="2"/>
<path id="Vector_129" d="M20.5232 3.42216C20.4982 3.49416 20.4762 3.54116 20.3902 3.51816C19.9962 3.41349 19.6029 3.30382 19.2102 3.18916C19.0442 3.14116 18.9145 3.11816 18.8212 3.12016C18.4842 3.13016 18.0432 3.38716 18.3202 3.77816C18.3375 3.80349 18.3445 3.83116 18.3412 3.86116C18.3012 4.21116 18.0272 4.26216 17.7952 4.42216C17.7712 4.43882 17.7449 4.44516 17.7162 4.44116C17.5935 4.42582 17.4759 4.44116 17.3632 4.48716C17.3574 4.48909 17.3527 4.49309 17.3499 4.49837C17.3471 4.50364 17.3465 4.50982 17.3481 4.51569C17.3497 4.52157 17.3535 4.52671 17.3587 4.53013C17.3639 4.53354 17.3701 4.53498 17.3762 4.53416C17.8762 4.47549 18.1882 4.60749 18.3122 4.93016L17.2182 4.72116C17.1722 4.71249 17.1719 4.70249 17.2172 4.69116C17.2805 4.67582 17.3129 4.63449 17.3142 4.56716C17.3155 4.53182 17.2985 4.51349 17.2632 4.51216C15.4739 4.43416 13.7515 4.71982 12.0962 5.36916C11.9009 5.44582 11.6935 5.55149 11.4742 5.68616C10.9702 5.99616 10.4612 6.28316 9.9872 6.62016C9.16519 7.20516 8.44019 7.62616 7.87019 8.54716L7.58919 8.89916C7.56719 8.92716 7.54619 8.92682 7.52619 8.89816C7.17119 8.40316 6.77119 8.44216 6.27419 8.33316C6.01953 8.27716 5.76019 8.26749 5.49619 8.30416C5.48054 8.30627 5.46461 8.30402 5.45014 8.29767C5.43568 8.29132 5.42324 8.28111 5.41419 8.26816C5.37219 8.20682 5.31853 8.18549 5.2532 8.20416C5.2332 8.20949 5.22086 8.20216 5.2162 8.18216L5.2002 8.10916C6.0062 6.96716 6.96119 5.97616 8.06519 5.13616C10.0092 3.72149 12.1865 2.89016 14.5972 2.64216C16.6365 2.49016 18.6119 2.75016 20.5232 3.42216Z" fill="#A5CBA5"/>
<path id="Vector_130" d="M20.5236 3.42224C23.6326 4.58824 26.3446 6.85024 27.8266 9.85524C27.786 9.86457 27.7706 9.8969 27.7807 9.95224C27.7846 9.97624 27.777 9.98124 27.7576 9.96724L27.7336 9.94924C27.7036 9.92724 27.673 9.92657 27.6416 9.94724C27.489 10.0506 27.326 10.0989 27.1526 10.0922C26.976 10.0849 26.854 10.0929 26.7866 10.1162C26.5906 10.1836 26.3986 10.2869 26.2106 10.4262C25.786 9.57957 25.2436 8.9819 24.5836 8.63324C24.2246 7.89724 23.3376 7.18424 22.4906 7.50324C22.4566 7.51657 22.4296 7.5079 22.4096 7.47724C21.6816 6.37224 20.0856 5.62324 18.8746 5.22624C18.814 5.08624 18.6266 4.98757 18.3126 4.93024C18.1886 4.60757 17.8766 4.47557 17.3766 4.53424C17.3706 4.53506 17.3643 4.53362 17.3591 4.53021C17.3539 4.5268 17.3502 4.52165 17.3485 4.51578C17.3469 4.5099 17.3476 4.50372 17.3504 4.49845C17.3531 4.49317 17.3579 4.48917 17.3636 4.48724C17.4763 4.44124 17.594 4.4259 17.7166 4.44124C17.7453 4.44524 17.7716 4.4389 17.7956 4.42224C18.0276 4.26224 18.3016 4.21124 18.3416 3.86124C18.345 3.83124 18.338 3.80357 18.3206 3.77824C18.0436 3.38724 18.4846 3.13024 18.8216 3.12024C18.915 3.11824 19.0446 3.14124 19.2106 3.18924C19.6033 3.3039 19.9966 3.41357 20.3906 3.51824C20.4766 3.54124 20.4986 3.49424 20.5236 3.42224ZM23.7596 7.08324C23.4283 7.0879 23.1053 7.14324 22.7906 7.24924C22.71 7.27657 22.712 7.29324 22.7966 7.29924C23.2066 7.3279 23.585 7.45624 23.9316 7.68424C23.975 7.7129 23.99 7.7019 23.9766 7.65124L23.8346 7.14024C23.8304 7.12369 23.8207 7.10906 23.807 7.09872C23.7934 7.08837 23.7767 7.08292 23.7596 7.08324Z" fill="#91C299"/>
<path id="Vector_131" d="M18.3121 4.93006C18.6261 4.98739 18.8135 5.08606 18.8741 5.22606C18.0135 4.97139 17.1418 4.84106 16.2591 4.83506C13.0131 4.95373 10.3385 6.23873 8.23512 8.69006L7.87012 8.54706C8.44012 7.62606 9.16512 7.20506 9.98712 6.62006C10.4611 6.28306 10.9701 5.99606 11.4741 5.68606C11.6935 5.55139 11.9008 5.44573 12.0961 5.36906C13.7515 4.71973 15.4738 4.43406 17.2631 4.51206C17.2984 4.51339 17.3155 4.53173 17.3141 4.56706C17.3128 4.63439 17.2805 4.67572 17.2171 4.69106C17.1718 4.70239 17.1721 4.71239 17.2181 4.72106L18.3121 4.93006Z" fill="#C8CD9C"/>
<path id="Vector_132" d="M16.2592 4.83496C16.4039 4.90763 16.5529 4.94396 16.7062 4.94396C16.7181 4.94423 16.7298 4.94749 16.7401 4.95343C16.7504 4.95937 16.759 4.9678 16.7652 4.97796C16.8312 5.09063 16.8119 5.14863 16.7072 5.15196C15.8206 5.18463 15.1606 5.54729 14.7272 6.23996C14.6752 6.32329 14.6872 6.33396 14.7632 6.27196C15.5502 5.63696 16.4152 5.24296 17.4212 5.32296C18.0979 5.37629 18.6286 5.46663 19.0132 5.59396C20.1952 5.98496 20.5782 7.12296 19.9042 8.15896C19.8987 8.16751 19.8915 8.17485 19.883 8.18052C19.8746 8.1862 19.865 8.19009 19.855 8.19196C19.845 8.19383 19.8347 8.19364 19.8248 8.19141C19.8149 8.18917 19.8055 8.18494 19.7972 8.17896C19.1626 7.73029 18.4622 7.48063 17.6962 7.42996C17.5512 7.42096 17.4142 7.36496 17.2972 7.35896C16.4392 7.31163 15.5816 7.30396 14.7242 7.33596C13.1062 7.39596 11.2342 7.88996 9.92622 8.85496C8.98922 9.54696 8.32722 10.153 7.65822 11.158C7.62822 11.2026 7.53289 11.2903 7.37223 11.421L6.78223 11.848C6.85423 11.3893 7.00956 10.971 7.24822 10.593C7.25701 10.5788 7.26263 10.563 7.26471 10.5466C7.26678 10.5302 7.26525 10.5136 7.26023 10.498L7.21523 10.358C7.50523 9.77796 7.84523 9.22196 8.23523 8.68996C10.3386 6.23863 13.0132 4.95363 16.2592 4.83496ZM9.74922 7.72196C9.61122 7.83896 9.13622 8.26496 9.20522 8.45096C9.21183 8.46917 9.22242 8.48567 9.23622 8.49927C9.25001 8.51286 9.26668 8.52319 9.28498 8.52952C9.30329 8.53585 9.32278 8.538 9.34203 8.53583C9.36127 8.53366 9.37979 8.52721 9.39622 8.51696C10.7356 7.68563 12.1022 6.90163 13.4962 6.16496C13.6822 6.06696 13.8552 5.91696 14.0162 5.78796C14.0397 5.76893 14.0569 5.74316 14.0653 5.71411C14.0737 5.68505 14.073 5.65412 14.0633 5.62546C14.0536 5.59681 14.0354 5.57182 14.0111 5.55385C13.9867 5.53588 13.9575 5.5258 13.9272 5.52496C13.7466 5.51963 13.5599 5.55163 13.3672 5.62096C12.0352 6.10363 10.8292 6.80396 9.74922 7.72196Z" fill="#076F81"/>
<path id="Vector_133" d="M16.2596 4.83496C17.1422 4.84096 18.0139 4.97129 18.8746 5.22596C20.0856 5.62296 21.6816 6.37196 22.4096 7.47696C22.4296 7.50763 22.4566 7.51629 22.4906 7.50296C23.3376 7.18396 24.2246 7.89696 24.5836 8.63296C24.3242 8.60429 24.0442 8.48229 23.7436 8.26696C23.6476 8.28629 23.5619 8.27129 23.4866 8.22196C23.1136 7.97796 22.6666 7.84496 22.2546 7.67596C22.1332 7.62663 22.0069 7.58629 21.8756 7.55496C21.8329 7.54496 21.7952 7.55429 21.7626 7.58296L20.2846 8.87396C20.2773 8.88027 20.2688 8.88502 20.2596 8.8879C20.2504 8.89078 20.2408 8.89173 20.2312 8.8907C20.2216 8.88967 20.2123 8.88667 20.204 8.8819C20.1956 8.87713 20.1883 8.87068 20.1826 8.86296C19.9166 8.50896 19.5656 8.27629 19.1296 8.16496C19.1202 8.1622 19.1102 8.16286 19.1013 8.16681C19.0924 8.17077 19.0852 8.17777 19.081 8.18655C19.0768 8.19534 19.0758 8.20534 19.0783 8.21476C19.0808 8.22418 19.0866 8.2324 19.0946 8.23796L19.9576 8.85396C19.976 8.86719 19.9909 8.88473 20.001 8.90505C20.0112 8.92537 20.0161 8.94786 20.0155 8.97055C20.0149 8.99324 20.0088 9.01544 19.9977 9.03521C19.9865 9.05498 19.9707 9.07172 19.9516 9.08396C18.5322 9.98996 16.9779 10.6226 15.2886 10.982C12.9576 11.478 10.4996 12.015 8.66758 13.667C8.05458 14.22 8.09858 14.98 8.20658 15.756C8.25558 16.111 8.17558 16.381 8.04158 16.685C8.0299 16.7116 8.01197 16.7351 7.98929 16.7533C7.96661 16.7716 7.93985 16.7841 7.91125 16.7899C7.88265 16.7957 7.85304 16.7945 7.82491 16.7865C7.79678 16.7785 7.77095 16.7639 7.74958 16.744L7.16358 16.192C6.99558 15.9406 6.88591 15.6 6.83458 15.17C6.74391 14.416 6.77558 13.7053 6.92958 13.038C7.03025 13.01 7.12224 13.003 7.20558 13.017C7.21649 13.0189 7.22775 13.0174 7.23771 13.0125C7.24768 13.0076 7.25582 12.9997 7.26096 12.9899C7.2661 12.9801 7.26796 12.9688 7.26627 12.9579C7.26458 12.9469 7.25943 12.9368 7.25158 12.929C7.16758 12.845 7.05091 12.7853 6.90158 12.75C6.98491 12.3186 7.14191 11.8756 7.37258 11.421C7.53324 11.2903 7.62858 11.2026 7.65858 11.158C8.32758 10.153 8.98958 9.54696 9.92658 8.85496C11.2346 7.88996 13.1066 7.39596 14.7246 7.33596C15.5819 7.30396 16.4396 7.31163 17.2976 7.35896C17.4146 7.36496 17.5516 7.42096 17.6966 7.42996C18.4626 7.48063 19.1629 7.73029 19.7976 8.17896C19.8058 8.18494 19.8152 8.18918 19.8251 8.19141C19.8351 8.19365 19.8454 8.19383 19.8554 8.19196C19.8654 8.19009 19.8749 8.1862 19.8834 8.18052C19.8918 8.17485 19.899 8.16751 19.9046 8.15896C20.5786 7.12296 20.1956 5.98496 19.0136 5.59396C18.6289 5.46663 18.0982 5.37629 17.4216 5.32296C16.4156 5.24296 15.5506 5.63696 14.7636 6.27196C14.6876 6.33396 14.6756 6.32329 14.7276 6.23996C15.1609 5.54729 15.8209 5.18463 16.7076 5.15196C16.8122 5.14863 16.8316 5.09063 16.7656 4.97796C16.7594 4.9678 16.7507 4.95937 16.7404 4.95343C16.7301 4.94749 16.7185 4.94423 16.7066 4.94396C16.5532 4.94396 16.4042 4.90763 16.2596 4.83496ZM11.2706 10.903C11.2672 10.915 11.2656 10.9273 11.2656 10.94C11.2653 10.9453 11.2665 10.9505 11.2689 10.9552C11.2713 10.9599 11.275 10.9639 11.2794 10.9668C11.2839 10.9696 11.289 10.9712 11.2943 10.9714C11.2996 10.9716 11.3049 10.9704 11.3096 10.968C12.5336 10.35 14.1266 9.76296 15.0416 9.37696C16.1016 8.92996 17.2596 8.58196 18.2506 8.00296C18.2574 7.99918 18.2629 7.9935 18.2666 7.98661C18.2702 7.97972 18.2717 7.97192 18.271 7.96417C18.2702 7.95642 18.2673 7.94905 18.2624 7.94298C18.2575 7.9369 18.251 7.93238 18.2436 7.92996C16.4206 7.27996 14.8976 7.67796 13.1466 8.44596C11.5596 9.14296 10.3536 10.155 9.32258 11.529C9.23458 11.646 8.47558 12.648 8.53358 12.685C8.54297 12.6913 8.55413 12.6943 8.56521 12.6936C8.5763 12.6929 8.58665 12.6884 8.59458 12.681C9.38324 11.9663 10.2412 11.3473 11.1686 10.824C11.1806 10.8172 11.1943 10.8141 11.208 10.8151C11.2218 10.8161 11.2349 10.8212 11.2458 10.8296C11.2567 10.838 11.2648 10.8495 11.2693 10.8625C11.2737 10.8756 11.2741 10.8897 11.2706 10.903ZM8.39658 11.137C8.56258 11.118 9.17858 10.519 9.36358 10.388C10.1689 9.8173 10.9762 9.24863 11.7856 8.68196C11.8686 8.62396 11.9796 8.61296 12.0276 8.47796C12.0331 8.46265 12.0343 8.44613 12.031 8.43018C12.0278 8.41424 12.0203 8.39949 12.0092 8.38753C11.9982 8.37557 11.9841 8.36687 11.9685 8.36236C11.9528 8.35785 11.9363 8.35771 11.9206 8.36196C11.1646 8.56696 10.4216 8.82396 9.80358 9.31996C9.22158 9.78663 8.71191 10.3233 8.27458 10.93C8.25958 10.9506 8.25094 10.9752 8.24972 11.0007C8.2485 11.0262 8.25475 11.0515 8.26771 11.0735C8.28067 11.0954 8.29977 11.1132 8.32266 11.1244C8.34556 11.1357 8.37125 11.1401 8.39658 11.137Z" fill="#04506C"/>
<path id="Vector_134" d="M9.20529 8.45099C9.13629 8.26499 9.61129 7.83899 9.74929 7.72199C10.8293 6.80399 12.0353 6.10365 13.3673 5.62099C13.56 5.55165 13.7466 5.51965 13.9273 5.52499C13.9575 5.52582 13.9868 5.5359 14.0111 5.55387C14.0355 5.57184 14.0537 5.59684 14.0634 5.62549C14.0731 5.65414 14.0738 5.68508 14.0654 5.71413C14.0569 5.74318 14.0398 5.76896 14.0163 5.78799C13.8553 5.91699 13.6823 6.06699 13.4963 6.16499C12.1023 6.90165 10.7356 7.68565 9.39629 8.51699C9.37986 8.52723 9.36134 8.53368 9.3421 8.53585C9.32285 8.53803 9.30336 8.53587 9.28505 8.52954C9.26675 8.52322 9.25008 8.51288 9.23628 8.49929C9.22249 8.4857 9.2119 8.46919 9.20529 8.45099Z" fill="#FCE4AD"/>
<path id="Vector_135" d="M23.8345 7.14002L23.9765 7.65102C23.9898 7.70169 23.9748 7.71269 23.9315 7.68402C23.5848 7.45602 23.2065 7.32769 22.7965 7.29902C22.7118 7.29302 22.7098 7.27635 22.7905 7.24902C23.1051 7.14302 23.4281 7.08769 23.7595 7.08302C23.7766 7.0827 23.7933 7.08816 23.8069 7.0985C23.8205 7.10884 23.8302 7.12347 23.8345 7.14002Z" fill="#7EBA98"/>
<path id="Vector_136" d="M23.7431 8.26715C23.8178 8.36382 23.8998 8.44415 23.9891 8.50815C25.9281 9.89015 25.8191 14.8401 24.6691 16.6521L24.0691 16.9251C24.0397 16.9385 24.0191 16.9601 24.0071 16.9901C23.7584 17.6148 23.8818 18.1331 24.3771 18.5451C24.1078 18.6878 23.8044 18.6355 23.4671 18.3881L23.3131 17.9631C23.1681 16.9781 23.2971 15.9761 23.2861 15.0201C23.2841 14.8441 23.1564 14.5385 22.9031 14.1031C22.2098 12.9338 21.7981 11.6778 21.6681 10.3351C21.6676 10.3293 21.6653 10.3238 21.6616 10.3192C21.6579 10.3147 21.6529 10.3114 21.6472 10.3098C21.6416 10.3082 21.6356 10.3083 21.6301 10.3101C21.6245 10.312 21.6196 10.3155 21.6161 10.3201C19.1531 13.4871 14.6991 14.5641 10.8871 14.1841C10.8809 14.1835 10.8751 14.1812 10.8701 14.1775C10.8651 14.1738 10.8612 14.1688 10.8588 14.1631C10.8563 14.1575 10.8554 14.1512 10.8562 14.1451C10.8569 14.1389 10.8593 14.1331 10.8631 14.1281C11.3031 13.5528 11.8824 13.1918 12.6011 13.0451C12.6098 13.0438 12.6138 13.0388 12.6131 13.0301C12.6131 13.0215 12.6124 13.0128 12.6111 13.0041C12.6098 12.9968 12.6058 12.9931 12.5991 12.9931C11.6561 13.0061 9.68108 13.3041 9.07108 13.9951C8.51108 14.6291 8.69508 15.6101 8.68709 16.3761C8.67709 17.2811 8.42609 18.4811 7.28809 18.5651C8.03009 18.1881 8.29209 17.0051 7.36609 16.6501C7.28275 16.5615 7.21509 16.4088 7.16309 16.1921L7.74908 16.7441C7.77045 16.7641 7.79629 16.7787 7.82442 16.7867C7.85255 16.7947 7.88216 16.7959 7.91076 16.7901C7.93936 16.7843 7.96612 16.7718 7.9888 16.7535C8.01147 16.7352 8.0294 16.7118 8.04109 16.6851C8.17509 16.3811 8.25509 16.1111 8.20609 15.7561C8.09809 14.9801 8.05408 14.2201 8.66708 13.6671C10.4991 12.0151 12.9571 11.4781 15.2881 10.9821C16.9774 10.6228 18.5317 9.99015 19.9511 9.08415C19.9702 9.0719 19.986 9.05516 19.9972 9.0354C20.0083 9.01563 20.0145 8.99343 20.015 8.97074C20.0156 8.94805 20.0107 8.92556 20.0006 8.90524C19.9905 8.88491 19.9755 8.86737 19.9571 8.85415L19.0941 8.23815C19.0861 8.23259 19.0803 8.22437 19.0778 8.21495C19.0753 8.20553 19.0763 8.19553 19.0805 8.18674C19.0847 8.17796 19.0919 8.17096 19.1008 8.167C19.1097 8.16304 19.1197 8.16239 19.1291 8.16515C19.5651 8.27648 19.9161 8.50915 20.1821 8.86315C20.1878 8.87087 20.1951 8.87731 20.2035 8.88209C20.2119 8.88686 20.2211 8.88986 20.2307 8.89089C20.2403 8.89192 20.2499 8.89097 20.2591 8.88809C20.2683 8.88521 20.2768 8.88046 20.2841 8.87415L21.7621 7.58315C21.7947 7.55448 21.8324 7.54515 21.8751 7.55515C22.0064 7.58648 22.1328 7.62682 22.2541 7.67615C22.6661 7.84515 23.1131 7.97815 23.4861 8.22215C23.5614 8.27148 23.6471 8.28648 23.7431 8.26715Z" fill="#032E52"/>
<path id="Vector_137" d="M11.2704 10.9029C11.274 10.8896 11.2735 10.8756 11.2691 10.8625C11.2647 10.8495 11.2565 10.838 11.2457 10.8296C11.2348 10.8212 11.2216 10.8161 11.2079 10.8151C11.1942 10.8141 11.1804 10.8172 11.1684 10.8239C10.2411 11.3473 9.3831 11.9663 8.59443 12.6809C8.58651 12.6884 8.57615 12.6929 8.56507 12.6936C8.55399 12.6943 8.54283 12.6913 8.53343 12.6849C8.47543 12.6479 9.23443 11.6459 9.32243 11.5289C10.3534 10.1549 11.5594 9.14294 13.1464 8.44594C14.8974 7.67794 16.4204 7.27995 18.2434 7.92995C18.2508 7.93236 18.2574 7.93688 18.2622 7.94296C18.2671 7.94904 18.2701 7.9564 18.2708 7.96415C18.2716 7.9719 18.27 7.9797 18.2664 7.98659C18.2628 7.99348 18.2572 7.99917 18.2504 8.00294C17.2594 8.58194 16.1014 8.92995 15.0414 9.37695C14.1264 9.76295 12.5334 10.3499 11.3094 10.9679C11.3047 10.9704 11.2995 10.9716 11.2942 10.9714C11.2889 10.9712 11.2838 10.9696 11.2793 10.9667C11.2748 10.9639 11.2712 10.9599 11.2687 10.9552C11.2663 10.9505 11.2652 10.9452 11.2654 10.9399C11.2654 10.9273 11.2671 10.9149 11.2704 10.9029Z" fill="#076F81"/>
<path id="Vector_138" d="M5.19973 8.10889L5.21573 8.18189C5.2204 8.20189 5.23273 8.20922 5.25273 8.20389C5.31806 8.18522 5.37173 8.20655 5.41373 8.26789C5.42277 8.28084 5.43521 8.29105 5.44967 8.2974C5.46414 8.30375 5.48007 8.306 5.49573 8.30389C5.75973 8.26722 6.01906 8.27689 6.27373 8.33289C6.77073 8.44189 7.17073 8.40289 7.52573 8.89789C7.54573 8.92655 7.56673 8.92689 7.58873 8.89889L7.86973 8.54689L8.23473 8.68989C7.84473 9.22189 7.50473 9.77789 7.21473 10.3579L6.38973 12.2429C6.31039 12.2922 6.25573 12.3686 6.22573 12.4719C6.21573 12.5059 6.19339 12.5216 6.15873 12.5189C5.95539 12.5036 5.81473 12.5252 5.73673 12.5839C5.35739 12.8692 4.93173 13.0389 4.45973 13.0929C4.42906 13.0969 4.40473 13.1112 4.38673 13.1359L4.17473 13.4259C4.1194 13.4172 4.0894 13.4049 4.08473 13.3889C4.13973 13.3339 4.11573 13.2749 4.05573 13.2379C3.75639 13.0546 3.43606 12.9066 3.09473 12.7939C3.51673 11.0679 4.21839 9.50622 5.19973 8.10889ZM6.28473 9.45489L6.29373 9.31789C6.29414 9.31224 6.29342 9.30656 6.29163 9.30119C6.28984 9.29581 6.28701 9.29085 6.28329 9.28657C6.27957 9.2823 6.27505 9.2788 6.26997 9.27628C6.2649 9.27376 6.25938 9.27227 6.25373 9.27189L6.18773 9.26789C6.12443 9.26374 6.06311 9.26939 6.01706 9.28362C5.971 9.29785 5.94394 9.3195 5.94173 9.34389L5.93873 9.38189C5.93783 9.39408 5.94318 9.40657 5.95446 9.41865C5.96573 9.43073 5.98272 9.44216 6.00446 9.45228C6.02619 9.46241 6.05224 9.47103 6.08112 9.47765C6.10999 9.48427 6.14112 9.48877 6.17273 9.49089L6.23873 9.49589C6.24446 9.49629 6.25021 9.49555 6.25565 9.49369C6.26108 9.49184 6.26609 9.48892 6.27038 9.4851C6.27467 9.48127 6.27815 9.47663 6.28061 9.47144C6.28308 9.46625 6.28448 9.46063 6.28473 9.45489Z" fill="#91C299"/>
<path id="Vector_139" d="M23.7431 8.26709C24.0438 8.48242 24.3238 8.60442 24.5831 8.63309C25.2431 8.98176 25.7854 9.57942 26.2101 10.4261C26.5554 11.0994 26.8434 11.8541 27.0741 12.6901C27.0841 12.7268 27.1081 12.7418 27.1461 12.7351C27.2381 12.7178 27.3048 12.7354 27.3461 12.7881L27.2821 13.1221C27.2754 13.1574 27.2551 13.1804 27.2211 13.1911L26.8151 13.3171C26.8019 13.3212 26.7905 13.3297 26.7827 13.341C26.7749 13.3524 26.7711 13.366 26.7719 13.3798C26.7727 13.3936 26.7781 13.4067 26.7872 13.4171C26.7962 13.4274 26.8085 13.4345 26.8221 13.4371L27.2381 13.5151C27.2526 13.5179 27.2663 13.5241 27.2779 13.5331C27.2896 13.5422 27.2989 13.5538 27.3051 13.5671C27.4031 13.7738 27.4604 14.0144 27.4771 14.2891L27.4971 14.7191C27.4984 14.7504 27.5141 14.7708 27.5441 14.7801C27.6631 14.8171 27.7011 15.5141 27.7241 15.6631C27.7294 15.6971 27.7251 15.7298 27.7111 15.7611C27.6338 15.9358 27.6301 16.1104 27.7001 16.2851C27.7128 16.3171 27.7121 16.3488 27.6981 16.3801C27.6428 16.5034 27.6184 16.6194 27.6251 16.7281C27.5644 16.8741 27.4701 16.9718 27.3421 17.0211C27.3108 17.0331 27.3108 17.0461 27.3421 17.0601L27.4921 17.1261C27.5081 17.8261 27.4214 18.5448 27.2321 19.2821C26.9941 20.2071 26.8581 21.0791 26.2761 21.9291C26.1808 22.0684 26.1228 22.1831 26.1021 22.2731C26.0694 22.4164 26.0774 22.5491 26.1261 22.6711L26.1121 23.2041C26.1108 23.2454 26.0894 23.2668 26.0481 23.2681C25.5334 23.2854 25.4241 23.3318 25.7201 23.4071C25.0988 24.2184 24.5151 25.0514 23.9691 25.9061C23.6451 26.4121 23.0611 26.7071 22.5181 26.9121C21.8374 27.1681 21.1511 27.4081 20.4591 27.6321C20.3678 27.6614 20.2691 27.7474 20.1631 27.8901C19.7531 26.5601 19.2981 25.5851 18.0311 24.8471C18.0011 24.8298 17.9894 24.8041 17.9961 24.7701C18.0208 24.6394 17.9931 24.5851 17.9131 24.6071C20.2911 24.0221 22.4941 22.7691 23.3301 20.3051C23.3421 20.2684 23.3664 20.2564 23.4031 20.2691C24.4131 20.6271 25.4621 20.2951 26.0331 19.4071C26.5151 18.6561 26.4131 17.8121 25.7521 17.2241C25.4691 16.9731 25.0271 16.8591 24.6691 16.6521C25.8191 14.8401 25.9281 9.89009 23.9891 8.50809C23.8998 8.44409 23.8178 8.36376 23.7431 8.26709ZM23.0591 24.2621L22.7581 24.3181C22.7509 24.3195 22.7443 24.3232 22.7394 24.3287C22.7344 24.3341 22.7314 24.341 22.7307 24.3483C22.73 24.3557 22.7318 24.363 22.7356 24.3693C22.7395 24.3755 22.7452 24.3804 22.7521 24.3831C22.8341 24.4151 22.9191 24.4238 23.0071 24.4091C23.025 24.4063 23.0434 24.4093 23.0594 24.4178C23.0754 24.4263 23.0883 24.4397 23.0961 24.4561C23.1448 24.5594 23.1671 24.6711 23.1631 24.7911C23.1629 24.7982 23.1649 24.8052 23.169 24.811C23.1731 24.8168 23.1789 24.8212 23.1856 24.8234C23.1924 24.8257 23.1997 24.8257 23.2064 24.8235C23.2132 24.8213 23.219 24.8169 23.2231 24.8111C23.2778 24.7344 23.2848 24.6544 23.2441 24.5711C23.2114 24.5044 23.2318 24.4761 23.3051 24.4861C23.3724 24.4961 23.4331 24.4821 23.4871 24.4441C23.4939 24.4393 23.4994 24.4329 23.5029 24.4254C23.5064 24.4178 23.5079 24.4095 23.5072 24.4011C23.5065 24.3927 23.5036 24.3846 23.4989 24.3776C23.4941 24.3706 23.4876 24.3649 23.4801 24.3611L23.3701 24.3071C23.3414 24.2938 23.3228 24.2718 23.3141 24.2411L23.2061 23.8491C23.2038 23.8381 23.1974 23.8283 23.1882 23.8217C23.179 23.8152 23.1677 23.8123 23.1565 23.8137C23.1453 23.8151 23.1351 23.8206 23.1278 23.8292C23.1205 23.8378 23.1167 23.8488 23.1171 23.8601L23.1101 24.2021C23.1094 24.2361 23.0924 24.2561 23.0591 24.2621Z" fill="#5DA491"/>
<path id="Vector_140" d="M9.36328 10.388C9.17828 10.519 8.56227 11.118 8.39627 11.137C8.37094 11.1401 8.34525 11.1357 8.32236 11.1245C8.29947 11.1132 8.28037 11.0955 8.26741 11.0735C8.25445 11.0515 8.2482 11.0262 8.24942 11.0007C8.25064 10.9752 8.25928 10.9506 8.27427 10.93C8.71161 10.3233 9.22127 9.78664 9.80327 9.31997C10.4213 8.82397 11.1643 8.56697 11.9203 8.36197C11.936 8.35773 11.9525 8.35786 11.9682 8.36237C11.9838 8.36688 11.9979 8.37559 12.0089 8.38754C12.02 8.3995 12.0275 8.41425 12.0307 8.4302C12.034 8.44614 12.0328 8.46266 12.0273 8.47797C11.9793 8.61297 11.8683 8.62397 11.7853 8.68197C10.9759 9.24864 10.1686 9.81731 9.36328 10.388Z" fill="#076F81"/>
<path id="Vector_141" d="M6.28555 9.45493C6.2853 9.46067 6.2839 9.4663 6.28144 9.47149C6.27897 9.47667 6.27549 9.48132 6.2712 9.48514C6.26691 9.48896 6.26191 9.49188 6.25647 9.49374C6.25103 9.49559 6.24528 9.49634 6.23955 9.49593L6.17355 9.49093C6.14194 9.48882 6.11081 9.48432 6.08194 9.47769C6.05307 9.47107 6.02702 9.46245 6.00528 9.45232C5.98355 9.4422 5.96656 9.43077 5.95528 9.41869C5.944 9.40661 5.93865 9.39412 5.93955 9.38193L5.94255 9.34393C5.94476 9.31955 5.97183 9.29789 6.01788 9.28366C6.06393 9.26944 6.12526 9.26378 6.18855 9.26793L6.25455 9.27193C6.2602 9.27231 6.26572 9.2738 6.2708 9.27632C6.27587 9.27884 6.28039 9.28234 6.28411 9.28662C6.28783 9.29089 6.29066 9.29586 6.29245 9.30123C6.29425 9.3066 6.29496 9.31228 6.29455 9.31793L6.28555 9.45493Z" fill="#A5CBA5"/>
<path id="Vector_142" d="M27.826 9.85498C28.3646 10.963 28.7496 12.1253 28.981 13.342C29.385 15.802 29.316 18.231 28.568 20.613C28.23 21.5716 27.7796 22.4706 27.217 23.31C26.662 23.611 27.519 21.805 27.545 21.756C28.21 20.535 28.188 18.831 28.1 17.457C28.09 17.3056 28.0283 17.167 27.915 17.041L27.625 16.728C27.6183 16.6193 27.6426 16.5033 27.698 16.38C27.712 16.3486 27.7126 16.317 27.7 16.285C27.63 16.1103 27.6336 15.9356 27.711 15.761C27.725 15.7296 27.7293 15.697 27.724 15.663C27.701 15.514 27.663 14.817 27.544 14.78C27.514 14.7706 27.4983 14.7503 27.497 14.719L27.477 14.289C27.5603 14.1103 27.603 13.924 27.605 13.73C27.605 13.7116 27.6086 13.6934 27.6156 13.6764C27.6226 13.6594 27.633 13.644 27.646 13.631C27.7926 13.479 27.972 13.3876 28.184 13.357C28.3766 13.329 28.379 13.2836 28.191 13.221C28.005 13.16 27.665 13.333 27.62 12.984C27.594 12.784 27.5596 12.5856 27.517 12.389C27.5147 12.3795 27.5092 12.3711 27.5015 12.365C27.4938 12.3589 27.4844 12.3556 27.4747 12.3556C27.465 12.3556 27.4557 12.3589 27.4483 12.365C27.4409 12.3711 27.4358 12.3795 27.434 12.389L27.346 12.788C27.3046 12.7353 27.238 12.7176 27.146 12.735C27.108 12.7416 27.084 12.7266 27.074 12.69C26.8433 11.854 26.5553 11.0993 26.21 10.426C26.398 10.2866 26.59 10.1833 26.786 10.116C26.8533 10.0926 26.9753 10.0846 27.152 10.092C27.3253 10.0986 27.4883 10.0503 27.641 9.94698C27.6723 9.92631 27.703 9.92698 27.733 9.94898L27.757 9.96698C27.7763 9.98098 27.784 9.97598 27.78 9.95198C27.77 9.89665 27.7853 9.86431 27.826 9.85498Z" fill="#7EBA98"/>
<path id="Vector_143" d="M22.9032 14.1031L22.7302 14.1261C22.7002 14.1301 22.6762 14.1201 22.6582 14.0961C22.1502 13.3961 21.7775 12.6284 21.5402 11.7931C21.5289 11.7531 21.5082 11.7471 21.4782 11.7751C18.7802 14.2821 15.5262 14.9661 11.9312 14.7621C11.4402 14.7341 11.0592 14.5731 10.6372 14.3581C10.5132 14.2954 10.3895 14.2671 10.2662 14.2731C9.75521 14.2971 9.24621 14.2241 9.19321 14.9121C9.12821 15.7341 8.91821 16.5621 8.88221 17.3381C8.83621 18.2991 8.77821 19.0511 8.97021 19.7631C8.16955 20.0491 7.59488 19.8391 7.24621 19.1331C7.14555 18.9277 7.15955 18.7384 7.28821 18.5651C8.42621 18.4811 8.67721 17.2811 8.68721 16.3761C8.69521 15.6101 8.51121 14.6291 9.07121 13.9951C9.68121 13.3041 11.6562 13.0061 12.5992 12.9931C12.6059 12.9931 12.6099 12.9967 12.6112 13.0041C12.6125 13.0127 12.6132 13.0214 12.6132 13.0301C12.6139 13.0387 12.6099 13.0437 12.6012 13.0451C11.8825 13.1917 11.3032 13.5527 10.8632 14.1281C10.8595 14.133 10.8571 14.1388 10.8563 14.145C10.8556 14.1511 10.8564 14.1574 10.8589 14.1631C10.8613 14.1688 10.8652 14.1737 10.8702 14.1774C10.8752 14.1811 10.8811 14.1834 10.8872 14.1841C14.6992 14.5641 19.1532 13.4871 21.6162 10.3201C21.6198 10.3154 21.6246 10.3119 21.6302 10.3101C21.6357 10.3082 21.6417 10.3081 21.6474 10.3097C21.653 10.3114 21.658 10.3146 21.6617 10.3192C21.6654 10.3237 21.6677 10.3292 21.6682 10.3351C21.7982 11.6777 22.2099 12.9337 22.9032 14.1031Z" fill="#EA8359"/>
<path id="Vector_144" d="M7.21562 10.3579L7.26063 10.4979C7.26565 10.5135 7.26718 10.5301 7.26511 10.5465C7.26303 10.563 7.25741 10.5788 7.24862 10.5929C7.00996 10.9709 6.85463 11.3892 6.78263 11.8479L6.39062 12.2429L7.21562 10.3579Z" fill="#032E52"/>
<path id="Vector_145" d="M7.37214 11.4209C7.14147 11.8756 6.98447 12.3186 6.90114 12.7499L6.92914 13.0379C6.77514 13.7052 6.74347 14.4159 6.83414 15.1699C6.88547 15.5999 6.99514 15.9406 7.16314 16.1919C7.21514 16.4086 7.2828 16.5612 7.36614 16.6499C7.2948 16.6979 7.21814 16.7196 7.13614 16.7149C5.62714 16.9469 5.53414 18.7369 6.46214 19.6449L6.93514 20.0079C7.1278 20.2139 7.04714 20.2626 6.69314 20.1539C6.66647 20.1459 6.64247 20.1506 6.62114 20.1679C6.51514 20.2526 6.40747 20.3359 6.29814 20.4179C6.11914 20.5529 5.86214 20.5779 5.69614 20.7759C5.54614 20.9569 5.62114 21.1819 5.36214 21.3599C5.33414 21.3786 5.31447 21.4042 5.30314 21.4369C5.20514 21.7119 5.10014 22.0079 4.76114 21.9389C4.74234 21.9349 4.72274 21.9383 4.70637 21.9483C4.68999 21.9584 4.6781 21.9743 4.67314 21.9929C4.65047 22.0789 4.5908 22.1186 4.49414 22.1119C4.45547 22.1099 4.43047 22.1272 4.41914 22.1639L4.40014 22.2219C4.38814 22.2592 4.36714 22.2656 4.33714 22.2409L4.27514 22.1899C4.26948 22.185 4.26249 22.182 4.25507 22.1813C4.24766 22.1805 4.24017 22.1821 4.23358 22.1858C4.227 22.1894 4.22161 22.195 4.21815 22.2018C4.21468 22.2086 4.21328 22.2163 4.21414 22.2239L4.23014 22.3549C4.2348 22.3909 4.2208 22.4009 4.18814 22.3849L4.06014 22.3239C4.0583 22.3229 4.05676 22.3213 4.05575 22.3194C4.05475 22.3176 4.05432 22.3155 4.05455 22.3135C4.05477 22.3114 4.05563 22.3096 4.05699 22.3083C4.05836 22.3069 4.06016 22.3061 4.06214 22.3059L4.09714 22.2999C4.12114 22.2959 4.12447 22.2856 4.10714 22.2689L4.07414 22.2349C4.06214 22.2229 4.04847 22.2212 4.03314 22.2299C4.02114 22.2372 4.0028 22.2442 3.97814 22.2509C3.41347 21.1589 3.04447 20.0042 2.87114 18.7869C2.62314 16.9019 2.60214 14.6459 3.09514 12.7939C3.43647 12.9066 3.7568 13.0546 4.05614 13.2379C4.11614 13.2749 4.14014 13.3339 4.08514 13.3889C3.99114 13.3789 3.9348 13.4179 3.91614 13.5059C3.91336 13.5187 3.91341 13.532 3.91629 13.5448C3.91917 13.5575 3.9248 13.5695 3.9328 13.5799C3.9408 13.5903 3.95097 13.5988 3.9626 13.6049C3.97423 13.6109 3.98704 13.6143 4.00014 13.6149C4.08014 13.6182 4.1448 13.5872 4.19414 13.5219C4.2088 13.5019 4.20947 13.4812 4.19614 13.4599L4.17514 13.4259L4.38714 13.1359C4.40514 13.1112 4.42947 13.0969 4.46014 13.0929C4.93214 13.0389 5.3578 12.8692 5.73714 12.5839C5.81514 12.5252 5.9558 12.5036 6.15914 12.5189C6.1938 12.5216 6.21614 12.5059 6.22614 12.4719C6.25614 12.3686 6.3108 12.2922 6.39014 12.2429L6.78214 11.8479L7.37214 11.4209ZM3.71014 18.4689C3.6828 18.5442 3.70947 18.5962 3.79014 18.6249C3.80321 18.6295 3.81712 18.6311 3.83089 18.6297C3.84466 18.6282 3.85795 18.6238 3.86979 18.6166C3.88164 18.6094 3.89176 18.5997 3.89942 18.5882C3.90709 18.5767 3.91211 18.5636 3.91414 18.5499C3.9348 18.4139 3.8788 18.3739 3.74614 18.4299C3.72952 18.4375 3.71657 18.4516 3.71014 18.4689Z" fill="#6DAF96"/>
<path id="Vector_146" d="M22.9035 14.1031C23.1569 14.5384 23.2845 14.8441 23.2865 15.0201C23.2975 15.9761 23.1685 16.9781 23.3135 17.9631L23.3165 18.0111C23.3192 18.0464 23.3025 18.0641 23.2665 18.0641H23.2175C23.1869 18.0641 23.1709 18.0488 23.1695 18.0181C23.1689 17.9941 23.1672 17.9688 23.1645 17.9421C23.1579 17.8781 23.1515 17.8781 23.1455 17.9421C22.8225 21.3051 21.0345 22.9071 18.0375 24.0261C17.6795 24.1594 17.3212 24.3058 16.9625 24.4651L15.1415 24.5991L14.6225 24.6551C11.9025 24.2251 9.81653 22.8411 9.03353 20.0781L8.97053 19.7631C8.77853 19.0511 8.83653 18.2991 8.88253 17.3381C8.91853 16.5621 9.12853 15.7341 9.19353 14.9121C9.24653 14.2241 9.75553 14.2971 10.2665 14.2731C10.3899 14.2671 10.5135 14.2954 10.6375 14.3581C11.0595 14.5731 11.4405 14.7341 11.9315 14.7621C15.5265 14.9661 18.7805 14.2821 21.4785 11.7751C21.5085 11.7471 21.5292 11.7531 21.5405 11.7931C21.7779 12.6284 22.1505 13.3961 22.6585 14.0961C22.6765 14.1201 22.7005 14.1301 22.7305 14.1261L22.9035 14.1031ZM19.0345 15.5581C18.8925 15.7781 18.9042 15.9621 19.0695 16.1101C19.3245 16.3371 19.6245 16.2201 19.9415 16.1641C20.5115 16.0641 21.2275 16.6381 21.6205 17.0341C21.7325 17.1474 21.8309 17.1431 21.9155 17.0211C21.9317 16.9979 21.9417 16.9709 21.9445 16.9427C21.9473 16.9145 21.9428 16.8861 21.9315 16.8601C21.5762 16.0214 20.9655 15.4908 20.0995 15.2681C19.7055 15.1671 19.2585 15.2101 19.0345 15.5581ZM12.1155 15.3601C11.3105 15.3511 10.2625 15.8841 10.0865 16.7371C10.0605 16.8638 10.1022 16.9534 10.2115 17.0061C10.2415 17.0208 10.2709 17.0191 10.2995 17.0011C10.9455 16.5861 11.3935 16.0461 12.2455 16.4411C13.3775 16.9671 13.4395 15.3751 12.1155 15.3601ZM10.3455 18.9341C10.4062 19.2201 10.5312 19.3621 10.7205 19.3601C11.2495 19.5931 12.0775 19.8341 12.6545 19.6331C12.6663 19.6288 12.6764 19.6207 12.6832 19.6101C12.6901 19.5995 12.6934 19.5868 12.6925 19.5741C12.6899 19.5301 12.6699 19.5091 12.6325 19.5111C13.3595 19.0081 13.2615 18.0911 12.5755 17.6351C11.7785 17.1051 10.7985 17.4431 10.2775 18.1801C10.0789 18.4608 10.1015 18.7121 10.3455 18.9341ZM19.0575 18.8551C18.9875 19.2184 19.1812 19.4818 19.6385 19.6451C20.0825 19.8031 21.7685 19.8431 21.6885 19.0261C21.8965 18.7641 21.9615 18.5041 21.7555 18.2071C20.9735 17.0781 18.9505 17.1871 19.0575 18.8551ZM21.6285 19.8761L21.4735 20.0031C21.4661 20.0092 21.4599 20.0167 21.4554 20.0252C21.4509 20.0337 21.4481 20.043 21.4471 20.0525C21.4462 20.0621 21.4472 20.0718 21.45 20.081C21.4528 20.0901 21.4574 20.0987 21.4635 20.1061L21.5005 20.1501C21.5493 20.2095 21.6089 20.2559 21.6663 20.2792C21.7237 20.3024 21.7741 20.3006 21.8065 20.2741L21.8295 20.2551C21.8457 20.242 21.8569 20.2231 21.8625 20.1997C21.8681 20.1762 21.868 20.1486 21.8623 20.1184C21.8565 20.0882 21.8452 20.056 21.8289 20.0237C21.8127 19.9914 21.7918 19.9596 21.7675 19.9301L21.7315 19.8861C21.7254 19.8787 21.7179 19.8725 21.7094 19.868C21.701 19.8634 21.6917 19.8606 21.6821 19.8597C21.6725 19.8588 21.6629 19.8597 21.6537 19.8626C21.6445 19.8654 21.6359 19.87 21.6285 19.8761ZM14.1865 22.3531C14.6832 22.6644 15.2165 22.8978 15.7865 23.0531C16.4612 23.1938 17.1039 23.0914 17.7145 22.7461C18.1379 22.5488 18.5179 22.2961 18.8545 21.9881C18.8945 21.9514 18.8882 21.9384 18.8355 21.9491C17.3035 22.2578 15.7905 22.3571 14.2965 22.2471C13.5072 22.1158 13.5032 22.1934 12.8405 21.9141C12.7919 21.8934 12.7629 21.9088 12.7535 21.9601L12.7345 22.0541C12.7279 22.0908 12.7425 22.1134 12.7785 22.1221L14.1865 22.3531Z" fill="#FAA36A"/>
<path id="Vector_147" d="M27.4768 14.2888C27.4601 14.0142 27.4028 13.7735 27.3048 13.5668C27.2986 13.5535 27.2893 13.5419 27.2776 13.5329C27.266 13.5238 27.2523 13.5177 27.2378 13.5148L26.8218 13.4368C26.8082 13.4342 26.7959 13.4272 26.7869 13.4168C26.7778 13.4064 26.7724 13.3933 26.7716 13.3796C26.7708 13.3658 26.7746 13.3521 26.7824 13.3408C26.7902 13.3294 26.8016 13.321 26.8148 13.3168L27.2208 13.1908C27.2548 13.1802 27.2751 13.1572 27.2818 13.1218L27.3458 12.7878L27.4338 12.3888C27.4356 12.3794 27.4407 12.3709 27.4481 12.3648C27.4555 12.3588 27.4648 12.3555 27.4745 12.3555C27.4842 12.3555 27.4937 12.3588 27.5013 12.3648C27.509 12.3709 27.5145 12.3794 27.5168 12.3888C27.5595 12.5855 27.5938 12.7838 27.6198 12.9838C27.6648 13.3328 28.0048 13.1598 28.1908 13.2208C28.3788 13.2835 28.3765 13.3288 28.1838 13.3568C27.9718 13.3875 27.7925 13.4788 27.6458 13.6308C27.6328 13.6438 27.6225 13.6593 27.6154 13.6763C27.6084 13.6932 27.6048 13.7114 27.6048 13.7298C27.6028 13.9238 27.5601 14.1102 27.4768 14.2888Z" fill="#C8CD9C"/>
<path id="Vector_148" d="M6.90112 12.75C7.05046 12.7853 7.16712 12.845 7.25112 12.929C7.25898 12.9368 7.26413 12.947 7.26582 12.9579C7.26751 12.9689 7.26564 12.9801 7.26051 12.9899C7.25537 12.9998 7.24722 13.0077 7.23726 13.0126C7.2273 13.0174 7.21604 13.019 7.20512 13.017C7.12179 13.003 7.02979 13.01 6.92913 13.038L6.90112 12.75Z" fill="#397C7B"/>
<path id="Vector_149" d="M4.08511 13.3892C4.08978 13.4052 4.11978 13.4176 4.17511 13.4262L4.19611 13.4602C4.20944 13.4816 4.20878 13.5022 4.19411 13.5222C4.14478 13.5876 4.08011 13.6186 4.00011 13.6152C3.98702 13.6146 3.97421 13.6112 3.96258 13.6052C3.95095 13.5991 3.94078 13.5906 3.93278 13.5802C3.92478 13.5699 3.91914 13.5579 3.91626 13.5451C3.91338 13.5323 3.91333 13.519 3.91611 13.5062C3.93478 13.4182 3.99111 13.3792 4.08511 13.3892Z" fill="#A5CBA5"/>
<path id="Vector_150" d="M19.034 15.5579C19.258 15.2099 19.705 15.1669 20.099 15.2679C20.965 15.4906 21.5756 16.0212 21.931 16.8599C21.9422 16.8859 21.9467 16.9143 21.9439 16.9425C21.9411 16.9707 21.9311 16.9976 21.915 17.0209C21.8303 17.1429 21.732 17.1472 21.62 17.0339C21.227 16.6379 20.511 16.0639 19.941 16.1639C19.624 16.2199 19.324 16.3369 19.069 16.1099C18.9036 15.9619 18.892 15.7779 19.034 15.5579Z" fill="#220509"/>
<path id="Vector_151" d="M10.0866 16.737C10.2626 15.884 11.3106 15.351 12.1156 15.36C13.4396 15.375 13.3776 16.967 12.2456 16.441C11.3936 16.046 10.9456 16.586 10.2996 17.001C10.2709 17.019 10.2416 17.0206 10.2116 17.006C10.1023 16.9533 10.0606 16.8636 10.0866 16.737Z" fill="#220509"/>
<path id="Vector_152" d="M24.6689 16.6519C25.0269 16.8589 25.4689 16.9729 25.7519 17.2239C26.4129 17.8119 26.5149 18.6559 26.0329 19.4069C25.4619 20.2949 24.4129 20.6269 23.4029 20.2689C23.3663 20.2562 23.3419 20.2682 23.3299 20.3049C22.4939 22.7689 20.2909 24.0219 17.9129 24.6069C17.6742 24.6455 17.4329 24.6349 17.1889 24.5749L16.9619 24.4649C17.3206 24.3055 17.6789 24.1592 18.0369 24.0259C21.0339 22.9069 22.8219 21.3049 23.1449 17.9419C23.1509 17.8779 23.1572 17.8779 23.1639 17.9419C23.1666 17.9685 23.1682 17.9939 23.1689 18.0179C23.1702 18.0485 23.1863 18.0639 23.2169 18.0639H23.2659C23.3019 18.0639 23.3186 18.0462 23.3159 18.0109L23.3129 17.9629L23.4669 18.3879L23.3929 19.9309C23.3923 19.946 23.3961 19.9611 23.4039 19.9742C23.4118 19.9873 23.4232 19.998 23.4369 20.0049C23.9599 20.2649 24.7089 19.6959 24.9749 19.3009C25.3809 18.6969 24.6949 18.1209 24.2599 17.8349C24.2333 17.8175 24.2149 17.7932 24.2049 17.7619L24.0669 17.3149C24.0623 17.2995 24.0583 17.2999 24.0549 17.3159C23.9499 17.8519 24.0199 18.0539 24.4379 18.3929C24.4494 18.4022 24.457 18.4155 24.4592 18.4303C24.4614 18.4451 24.4581 18.4602 24.4499 18.4729C24.4272 18.5055 24.4029 18.5295 24.3769 18.5449C23.8816 18.1329 23.7582 17.6145 24.0069 16.9899C24.0189 16.9599 24.0396 16.9382 24.0689 16.9249L24.6689 16.6519Z" fill="#F18B5E"/>
<path id="Vector_153" d="M7.36608 16.6499C8.29208 17.0049 8.03008 18.1879 7.28808 18.5649C7.15942 18.7382 7.14541 18.9276 7.24608 19.1329C7.59475 19.8389 8.16941 20.0489 8.97008 19.7629L9.03308 20.0779C8.52175 20.3559 7.99508 20.4162 7.45308 20.2589C7.28208 20.2089 7.12108 20.0699 6.93508 20.0079L6.46208 19.6449C6.11742 19.1716 5.97541 18.6676 6.03608 18.1329C6.06908 17.8419 6.31208 17.2769 6.52008 17.0899C6.68208 16.9459 6.88741 16.8209 7.13608 16.7149C7.21808 16.7196 7.29475 16.6979 7.36608 16.6499Z" fill="#F18B5E"/>
<path id="Vector_154" d="M7.13625 16.7148C6.88758 16.8208 6.68225 16.9458 6.52025 17.0898C6.31225 17.2768 6.06925 17.8418 6.03625 18.1328C5.97558 18.6675 6.11758 19.1715 6.46225 19.6448C5.53425 18.7368 5.62725 16.9468 7.13625 16.7148Z" fill="#C8CD9C"/>
<path id="Vector_155" d="M27.6249 16.728L27.9149 17.041C27.6969 17.2304 27.5559 17.2587 27.4919 17.126L27.3419 17.06C27.3105 17.046 27.3105 17.033 27.3419 17.021C27.4699 16.9717 27.5642 16.874 27.6249 16.728Z" fill="#C8CD9C"/>
<path id="Vector_156" d="M27.9151 17.041C28.0284 17.167 28.0901 17.3057 28.1001 17.457C28.1881 18.831 28.2101 20.535 27.5451 21.756C27.5191 21.805 26.6621 23.611 27.2171 23.31C25.5718 25.904 23.2874 27.6893 20.3641 28.666L20.1631 27.89C20.2691 27.7473 20.3678 27.6613 20.4591 27.632C21.1511 27.408 21.8374 27.168 22.5181 26.912C23.0611 26.707 23.6451 26.412 23.9691 25.906C24.5151 25.0513 25.0988 24.2183 25.7201 23.407C25.8501 23.423 25.9578 23.467 26.0431 23.539C26.0684 23.5603 26.0828 23.5873 26.0861 23.62L26.1541 24.195C26.1614 24.2537 26.1784 24.2567 26.2051 24.204C26.3291 23.957 26.3081 23.74 26.4011 23.542C26.4171 23.5087 26.4434 23.4913 26.4801 23.49C26.6014 23.4853 26.6994 23.44 26.7741 23.354C26.7804 23.3467 26.7847 23.3379 26.7865 23.3284C26.7884 23.319 26.7877 23.3092 26.7845 23.3001C26.7814 23.291 26.7759 23.2828 26.7686 23.2765C26.7614 23.2702 26.7526 23.2659 26.7431 23.264L26.4801 23.213C26.4606 23.2089 26.4423 23.2007 26.4262 23.1888C26.4102 23.1769 26.3968 23.1616 26.3871 23.144L26.1261 22.671C26.0774 22.549 26.0694 22.4163 26.1021 22.273C26.1228 22.183 26.1808 22.0683 26.2761 21.929C26.8581 21.079 26.9941 20.207 27.2321 19.282C27.4214 18.5447 27.5081 17.826 27.4921 17.126C27.5561 17.2587 27.6971 17.2303 27.9151 17.041Z" fill="#6DAF96"/>
<path id="Vector_157" d="M23.4676 18.388C23.8049 18.6353 24.1083 18.6876 24.3776 18.545C24.4036 18.5296 24.4279 18.5056 24.4506 18.473C24.4588 18.4603 24.4621 18.4452 24.4599 18.4304C24.4577 18.4156 24.4501 18.4023 24.4386 18.393C24.0206 18.054 23.9506 17.852 24.0556 17.316C24.0589 17.3 24.0629 17.2996 24.0676 17.315L24.2056 17.762C24.2156 17.7933 24.2339 17.8176 24.2606 17.835C24.6956 18.121 25.3816 18.697 24.9756 19.301C24.7096 19.696 23.9606 20.265 23.4376 20.005C23.4239 19.9981 23.4124 19.9874 23.4046 19.9743C23.3968 19.9612 23.393 19.9461 23.3936 19.931L23.4676 18.388Z" fill="#CF7253"/>
<path id="Vector_158" d="M12.6323 19.511C12.0853 19.758 11.4643 19.511 11.3073 18.94C11.2093 18.585 11.4443 17.979 11.8813 17.956C11.9006 17.955 11.9197 17.9605 11.9355 17.9715C11.9514 17.9826 11.9631 17.9986 11.9688 18.0171C11.9745 18.0355 11.974 18.0554 11.9672 18.0735C11.9604 18.0916 11.9478 18.1069 11.9313 18.117C11.83 18.1797 11.7856 18.268 11.7983 18.382C11.8018 18.4134 11.8129 18.4435 11.8306 18.4697C11.8483 18.4959 11.872 18.5174 11.8998 18.5324C11.9276 18.5474 11.9587 18.5555 11.9903 18.556C12.0218 18.5564 12.0531 18.5492 12.0813 18.535C12.4073 18.372 12.4023 18.056 12.0743 17.912C11.3263 17.582 10.5123 18.155 10.3783 18.908C10.3683 18.9293 10.3573 18.938 10.3453 18.934C10.1013 18.712 10.0786 18.4607 10.2773 18.18C10.7983 17.443 11.7783 17.105 12.5753 17.635C13.2613 18.091 13.3593 19.008 12.6323 19.511ZM11.5776 18.3825C11.584 18.3871 11.5919 18.3894 11.6009 18.3894C11.6098 18.3894 11.6197 18.3871 11.6298 18.3825C11.64 18.3779 11.6503 18.3712 11.6601 18.3627C11.6699 18.3542 11.6791 18.3441 11.687 18.333C11.695 18.3219 11.7016 18.31 11.7065 18.298C11.7115 18.286 11.7146 18.2741 11.7157 18.263C11.7168 18.2519 11.7159 18.2419 11.713 18.2334C11.7102 18.2249 11.7054 18.2181 11.699 18.2135C11.6926 18.2089 11.6847 18.2066 11.6757 18.2066C11.6668 18.2066 11.6569 18.2089 11.6468 18.2135C11.6366 18.2181 11.6263 18.2248 11.6165 18.2333C11.6067 18.2418 11.5975 18.2519 11.5896 18.263C11.5816 18.2741 11.575 18.286 11.5701 18.298C11.5651 18.31 11.562 18.3219 11.5609 18.333C11.5598 18.3441 11.5607 18.3541 11.5636 18.3626C11.5664 18.3711 11.5712 18.3779 11.5776 18.3825Z" fill="#2D0909"/>
<path id="Vector_159" d="M21.6878 19.0261C21.5428 17.4771 19.4568 17.5681 19.8348 18.4011C19.8469 18.4277 19.8647 18.4513 19.8869 18.4702C19.9091 18.4892 19.9352 18.503 19.9633 18.5107C19.9915 18.5184 20.021 18.5199 20.0498 18.5149C20.0785 18.51 20.1059 18.4988 20.1298 18.4821L20.2868 18.3721L20.4408 18.1881L20.6388 18.3941C20.5095 18.9054 20.1958 19.0961 19.6978 18.9661C19.6721 18.9592 19.6447 18.9613 19.6203 18.9721C19.5959 18.9829 19.576 19.0017 19.5637 19.0254C19.5515 19.049 19.5477 19.0762 19.553 19.1023C19.5583 19.1285 19.5723 19.152 19.5928 19.1691L19.7388 19.2921C19.7715 19.3194 19.7772 19.3514 19.7558 19.3881L19.6688 19.5431C19.3942 19.4597 19.1902 19.2304 19.0568 18.8551C18.9498 17.1871 20.9728 17.0781 21.7548 18.2071C21.9608 18.5041 21.8958 18.7641 21.6878 19.0261Z" fill="#220509"/>
<path id="Vector_160" d="M21.6879 19.0262C21.7679 19.8432 20.0819 19.8032 19.6379 19.6452C19.1806 19.4819 18.9869 19.2186 19.0569 18.8552C19.1902 19.2306 19.3942 19.4599 19.6689 19.5432C20.5409 19.8652 21.1099 18.8792 20.7429 18.2152C20.6029 17.9642 20.2949 17.8292 20.0629 18.0512C19.9439 18.1192 19.8829 18.3522 20.0569 18.3632C20.064 18.3638 20.071 18.3625 20.0773 18.3593C20.0837 18.3562 20.089 18.3513 20.0928 18.3453C20.0966 18.3392 20.0987 18.3322 20.0989 18.325C20.0991 18.3177 20.0974 18.3106 20.0939 18.3042C20.0252 18.1809 20.0309 18.1066 20.1109 18.0812C20.1969 18.1292 20.2556 18.2262 20.2869 18.3722L20.1299 18.4822C20.106 18.4989 20.0786 18.5101 20.0499 18.5151C20.0211 18.52 19.9916 18.5186 19.9634 18.5109C19.9353 18.5031 19.9092 18.4893 19.887 18.4704C19.8647 18.4514 19.847 18.4278 19.8349 18.4012C19.4569 17.5682 21.5429 17.4772 21.6879 19.0262Z" fill="#F8F5F3"/>
<path id="Vector_161" d="M12.6319 19.5108C12.6693 19.5088 12.6893 19.5298 12.6919 19.5738C12.6928 19.5866 12.6895 19.5992 12.6827 19.6098C12.6758 19.6205 12.6657 19.6285 12.6539 19.6328C12.0769 19.8338 11.2489 19.5928 10.7199 19.3598C10.5279 19.2598 10.4139 19.1092 10.3779 18.9078C10.5119 18.1548 11.3259 17.5818 12.0739 17.9118C12.4019 18.0558 12.4069 18.3718 12.0809 18.5348C12.0527 18.5491 12.0215 18.5563 11.9899 18.5558C11.9583 18.5553 11.9273 18.5473 11.8995 18.5322C11.8717 18.5172 11.8479 18.4957 11.8302 18.4695C11.8126 18.4433 11.8015 18.4132 11.7979 18.3818C11.7853 18.2678 11.8296 18.1795 11.9309 18.1168C11.9474 18.1067 11.96 18.0914 11.9668 18.0733C11.9736 18.0552 11.9742 18.0354 11.9684 18.0169C11.9627 17.9985 11.951 17.9824 11.9352 17.9714C11.9193 17.9603 11.9002 17.9549 11.8809 17.9558C11.4439 17.9788 11.2089 18.5848 11.3069 18.9398C11.4639 19.5108 12.0849 19.7578 12.6319 19.5108Z" fill="#F8F5F3"/>
<path id="Vector_162" d="M19.6692 19.5432L19.7562 19.3882C19.7776 19.3515 19.7719 19.3195 19.7392 19.2922L19.5932 19.1692C19.5727 19.1522 19.5587 19.1286 19.5534 19.1025C19.5481 19.0763 19.5519 19.0492 19.5641 19.0255C19.5764 19.0018 19.5963 18.983 19.6207 18.9722C19.6451 18.9615 19.6725 18.9593 19.6982 18.9662C20.1962 19.0962 20.5099 18.9055 20.6392 18.3942C20.7032 18.2582 20.6372 18.1895 20.4412 18.1882L20.2872 18.3722C20.2559 18.2262 20.1972 18.1292 20.1112 18.0812C20.1146 18.0745 20.0986 18.0645 20.0632 18.0512C20.2952 17.8292 20.6032 17.9642 20.7432 18.2152C21.1102 18.8792 20.5412 19.8652 19.6692 19.5432Z" fill="#4C1813"/>
<path id="Vector_163" d="M20.0635 18.0513C20.0988 18.0646 20.1148 18.0746 20.1115 18.0813C20.0315 18.1066 20.0258 18.1809 20.0945 18.3043C20.098 18.3106 20.0997 18.3178 20.0995 18.325C20.0993 18.3322 20.0972 18.3392 20.0934 18.3453C20.0896 18.3514 20.0843 18.3562 20.0779 18.3594C20.0716 18.3626 20.0645 18.3639 20.0575 18.3633C19.8835 18.3523 19.9445 18.1193 20.0635 18.0513Z" fill="#356E6E"/>
<path id="Vector_164" d="M20.6392 18.394L20.4412 18.188C20.6372 18.1893 20.7032 18.258 20.6392 18.394Z" fill="#73382A"/>
<path id="Vector_165" d="M11.5899 18.263C11.5564 18.3096 11.551 18.3631 11.5779 18.3824C11.6049 18.4018 11.6538 18.3796 11.6874 18.333C11.7209 18.2863 11.7262 18.2329 11.6993 18.2135C11.6724 18.1942 11.6234 18.2163 11.5899 18.263Z" fill="#A2825D"/>
<path id="Vector_166" d="M3.71057 18.4693C3.71701 18.4519 3.72995 18.4379 3.74657 18.4303C3.87924 18.3743 3.93524 18.4143 3.91457 18.5503C3.91255 18.564 3.90752 18.577 3.89986 18.5886C3.89219 18.6001 3.88207 18.6098 3.87023 18.617C3.85838 18.6241 3.8451 18.6286 3.83133 18.63C3.81756 18.6315 3.80364 18.6298 3.79057 18.6253C3.7099 18.5966 3.68324 18.5446 3.71057 18.4693Z" fill="#A5CBA5"/>
<path id="Vector_167" d="M10.3777 18.9082C10.4137 19.1095 10.5277 19.2602 10.7197 19.3602C10.5304 19.3622 10.4054 19.2202 10.3447 18.9342C10.3567 18.9382 10.3677 18.9295 10.3777 18.9082Z" fill="#D3A168"/>
<path id="Vector_168" d="M21.6283 19.8761C21.6357 19.87 21.6442 19.8654 21.6534 19.8626C21.6626 19.8598 21.6723 19.8588 21.6819 19.8597C21.6914 19.8606 21.7007 19.8635 21.7092 19.868C21.7177 19.8725 21.7252 19.8787 21.7313 19.8861L21.7673 19.9301C21.7915 19.9596 21.8124 19.9914 21.8287 20.0237C21.8449 20.056 21.8562 20.0882 21.862 20.1184C21.8678 20.1486 21.8678 20.1762 21.8622 20.1997C21.8566 20.2231 21.8454 20.242 21.8293 20.2551L21.8063 20.2741C21.7738 20.3006 21.7234 20.3024 21.666 20.2792C21.6087 20.2559 21.549 20.2095 21.5003 20.1501L21.4633 20.1061C21.4571 20.0987 21.4525 20.0902 21.4497 20.081C21.4469 20.0718 21.4459 20.0621 21.4469 20.0525C21.4478 20.043 21.4506 20.0337 21.4551 20.0252C21.4597 20.0167 21.4658 20.0092 21.4733 20.0031L21.6283 19.8761Z" fill="#FCC093"/>
<path id="Vector_169" d="M6.93552 20.0078C7.12152 20.0698 7.28252 20.2088 7.45352 20.2588C7.99552 20.4161 8.52218 20.3558 9.03351 20.0778C9.81651 22.8408 11.9025 24.2248 14.6225 24.6548C14.6445 24.8801 14.5865 24.9778 14.4485 24.9478C13.5452 25.3465 12.8735 26.0245 12.4335 26.9818C12.1762 27.5411 11.9995 28.0841 11.9035 28.6108C11.903 28.6151 11.9039 28.6195 11.9061 28.6231C11.9083 28.6268 11.9116 28.6295 11.9155 28.6308C11.9242 28.6335 11.9328 28.6361 11.9415 28.6388C11.9675 28.6468 11.9828 28.6375 11.9875 28.6108C12.2135 27.3488 12.8535 26.0588 13.9165 25.3018C14.0058 25.3485 14.0912 25.3371 14.1725 25.2678C14.2005 25.2438 14.2295 25.2421 14.2595 25.2628C14.3042 25.2941 14.3452 25.3128 14.3825 25.3188L14.4045 25.8408C14.4051 25.8578 14.411 25.8743 14.4213 25.888C14.4317 25.9018 14.4461 25.9122 14.4625 25.9178C14.6005 25.9645 14.7082 25.9268 14.7855 25.8048C14.7966 25.787 14.8135 25.7725 14.8333 25.7636C14.8532 25.7547 14.8749 25.7519 14.8948 25.7557C14.9147 25.7596 14.9316 25.7698 14.9429 25.7847C14.9541 25.7996 14.9589 25.8184 14.9565 25.8378C14.9312 26.0618 15.0172 26.2048 15.2145 26.2668C15.2498 26.2781 15.2758 26.2671 15.2925 26.2338L15.4655 25.8898C15.4692 25.8823 15.4747 25.8758 15.4816 25.871C15.4884 25.8661 15.4963 25.863 15.5046 25.8619C15.5129 25.8608 15.5213 25.8618 15.5292 25.8647C15.537 25.8677 15.544 25.8725 15.5495 25.8788L15.9035 26.2878C15.9269 26.3145 15.9577 26.3335 15.992 26.3424C16.0263 26.3514 16.0624 26.3498 16.0958 26.338C16.1292 26.3261 16.1583 26.3045 16.1793 26.276C16.2003 26.2474 16.2122 26.2132 16.2135 26.1778C16.2175 26.0625 16.2545 25.9425 16.3245 25.8178L16.3355 25.7928C16.3489 25.7628 16.3612 25.7631 16.3725 25.7938C16.4418 25.9845 16.5565 26.1425 16.7165 26.2678C16.7318 26.2799 16.7507 26.2868 16.7703 26.2873C16.79 26.2879 16.8093 26.2821 16.8255 26.2708C17.0035 26.1481 17.0972 25.9765 17.1065 25.7558C17.1072 25.7378 17.1143 25.7205 17.1266 25.7073C17.1388 25.694 17.1554 25.6855 17.1733 25.6833C17.1913 25.6811 17.2094 25.6854 17.2245 25.6954C17.2395 25.7054 17.2505 25.7204 17.2555 25.7378C17.2902 25.8565 17.3862 25.9388 17.5435 25.9848C17.6342 26.0728 17.7322 26.1311 17.8375 26.1598C17.8519 26.1636 17.8653 26.1706 17.8767 26.1803C17.8881 26.1899 17.8973 26.2021 17.9035 26.2158C17.9642 26.3505 18.0012 26.4748 18.0145 26.5888C18.1018 27.3528 18.1602 28.2221 18.1895 29.1968L16.7765 29.3958C15.6065 29.4565 14.4755 29.3708 13.3835 29.1388C13.3802 28.5261 13.4558 27.9261 13.6105 27.3388C13.6292 27.2688 13.6219 27.2661 13.5885 27.3308C13.3065 27.8768 13.1162 28.4535 13.0175 29.0608C9.09351 28.3048 5.81752 25.7748 3.97852 22.2508C4.00318 22.2441 4.02151 22.2371 4.03351 22.2298C4.04885 22.2211 4.06251 22.2228 4.07451 22.2348L4.10752 22.2688C4.12485 22.2855 4.12152 22.2958 4.09752 22.2998L4.06252 22.3058C4.06054 22.306 4.05874 22.3068 4.05737 22.3082C4.05601 22.3095 4.05515 22.3114 4.05493 22.3134C4.0547 22.3154 4.05513 22.3175 4.05613 22.3194C4.05714 22.3212 4.05867 22.3228 4.06052 22.3238L4.18852 22.3848C4.22118 22.4008 4.23518 22.3908 4.23051 22.3548L4.21451 22.2238C4.21366 22.2162 4.21505 22.2086 4.21852 22.2018C4.22199 22.195 4.22737 22.1893 4.23396 22.1857C4.24055 22.182 4.24804 22.1804 4.25545 22.1812C4.26287 22.1819 4.26986 22.1849 4.27552 22.1898L4.33752 22.2408C4.36752 22.2655 4.38852 22.2591 4.40052 22.2218L4.41952 22.1638C4.43085 22.1271 4.45585 22.1098 4.49452 22.1118C4.59118 22.1185 4.65085 22.0788 4.67351 21.9928C4.67848 21.9743 4.69037 21.9583 4.70674 21.9483C4.72312 21.9382 4.74272 21.9348 4.76151 21.9388C5.10051 22.0078 5.20552 21.7118 5.30352 21.4368C5.31485 21.4041 5.33452 21.3785 5.36252 21.3598C5.62152 21.1818 5.54651 20.9568 5.69651 20.7758C5.86251 20.5778 6.11951 20.5528 6.29851 20.4178C6.40785 20.3358 6.51551 20.2525 6.62152 20.1678C6.64285 20.1505 6.66685 20.1458 6.69352 20.1538C7.04752 20.2625 7.12818 20.2138 6.93552 20.0078Z" fill="#52A091"/>
<path id="Vector_170" d="M14.976 22.539C14.888 22.5596 14.8513 22.595 14.866 22.645L12.736 22.131C12.7 22.1223 12.6853 22.0996 12.692 22.063L12.711 21.969C12.7203 21.9176 12.7493 21.9023 12.798 21.923C13.4607 22.2023 14.1867 22.4076 14.976 22.539Z" fill="#CF7253"/>
<path id="Vector_171" d="M17.7145 22.7459C17.6085 22.6806 17.4958 22.6446 17.3765 22.6379C17.3432 22.6359 17.3138 22.6239 17.2885 22.6019C17.1525 22.4799 16.9995 22.4286 16.8295 22.4479C16.3435 22.5039 15.9615 22.4779 15.7865 23.0529C15.0905 22.9639 14.0905 22.9459 12.9905 22.0639C12.9758 22.0139 13.5405 22.1139 14.2965 22.2469C15.7905 22.3569 17.3035 22.2576 18.8355 21.9489C18.8882 21.9383 18.8945 21.9513 18.8545 21.9879C18.5178 22.2959 18.1378 22.5486 17.7145 22.7459Z" fill="#2D0909"/>
<path id="Vector_172" d="M17.7141 22.7463C17.1035 23.0916 16.4608 23.194 15.7861 23.0533C15.9611 22.4783 16.3431 22.5043 16.8291 22.4483C16.9991 22.429 17.1521 22.4803 17.2881 22.6023C17.3135 22.6243 17.3428 22.6363 17.3761 22.6383C17.4955 22.645 17.6081 22.681 17.7141 22.7463Z" fill="#932318"/>
<path id="Vector_173" d="M25.7197 23.4069C25.4237 23.3316 25.5331 23.2852 26.0477 23.2679C26.0891 23.2666 26.1104 23.2452 26.1117 23.2039L26.1257 22.6709L26.3867 23.1439C26.3965 23.1615 26.4098 23.1767 26.4259 23.1887C26.4419 23.2006 26.4603 23.2088 26.4797 23.2129L26.7427 23.2639C26.7522 23.2657 26.761 23.2701 26.7683 23.2764C26.7756 23.2827 26.781 23.2908 26.7842 23.3C26.7873 23.3091 26.788 23.3189 26.7862 23.3283C26.7843 23.3378 26.7801 23.3466 26.7737 23.3539C26.6991 23.4399 26.6011 23.4852 26.4797 23.4899C26.4431 23.4912 26.4167 23.5086 26.4007 23.5419C26.3077 23.7399 26.3287 23.9569 26.2047 24.2039C26.1781 24.2566 26.1611 24.2536 26.1537 24.1949L26.0857 23.6199C26.0824 23.5872 26.0681 23.5602 26.0427 23.5389C25.9574 23.4669 25.8497 23.4229 25.7197 23.4069Z" fill="#C8CD9C"/>
<path id="Vector_174" d="M23.1102 24.2022L23.1172 23.8602C23.1168 23.8489 23.1206 23.8379 23.1279 23.8293C23.1352 23.8207 23.1455 23.8152 23.1567 23.8138C23.1679 23.8124 23.1792 23.8153 23.1883 23.8219C23.1975 23.8284 23.2039 23.8382 23.2062 23.8492L23.3142 24.2412C23.3229 24.2719 23.3416 24.2939 23.3702 24.3072L23.4802 24.3612C23.4878 24.365 23.4943 24.3707 23.499 24.3777C23.5038 24.3847 23.5066 24.3928 23.5073 24.4012C23.508 24.4096 23.5066 24.4179 23.503 24.4255C23.4995 24.433 23.4941 24.4395 23.4872 24.4442C23.4332 24.4822 23.3726 24.4962 23.3052 24.4862C23.2319 24.4762 23.2116 24.5045 23.2442 24.5712C23.2849 24.6545 23.2779 24.7345 23.2232 24.8112C23.2191 24.817 23.2133 24.8214 23.2065 24.8236C23.1998 24.8258 23.1925 24.8258 23.1858 24.8236C23.179 24.8213 23.1732 24.8169 23.1691 24.8111C23.1651 24.8053 23.163 24.7983 23.1632 24.7912C23.1672 24.6712 23.1449 24.5595 23.0962 24.4562C23.0885 24.4398 23.0756 24.4264 23.0595 24.4179C23.0435 24.4094 23.0251 24.4064 23.0072 24.4092C22.9192 24.4239 22.8342 24.4152 22.7522 24.3832C22.7454 24.3805 22.7396 24.3756 22.7358 24.3694C22.7319 24.3631 22.7302 24.3558 22.7309 24.3484C22.7315 24.3411 22.7346 24.3342 22.7395 24.3288C22.7444 24.3233 22.751 24.3196 22.7582 24.3182L23.0592 24.2622C23.0926 24.2562 23.1096 24.2362 23.1102 24.2022Z" fill="#C8CD9C"/>
<path id="Vector_175" d="M16.9626 24.4648L17.1896 24.5748C16.9663 25.1348 16.4979 25.3665 15.7846 25.2698C15.3959 25.2172 15.1816 24.9935 15.1416 24.5988L16.9626 24.4648Z" fill="#CF7253"/>
<path id="Vector_176" d="M17.1893 24.5752C17.4333 24.6352 17.6746 24.6459 17.9133 24.6072C17.9933 24.5852 18.0209 24.6395 17.9963 24.7702C17.9896 24.8042 18.0013 24.8299 18.0313 24.8472C19.2983 25.5852 19.7533 26.5602 20.1633 27.8902L20.3643 28.6662L19.1423 29.0012C19.1352 29.0032 19.1277 29.0037 19.1204 29.0024C19.1131 29.0012 19.1061 28.9984 19.1 28.9941C19.0938 28.9898 19.0886 28.9842 19.0846 28.9777C19.0807 28.9711 19.0782 28.9638 19.0773 28.9562C19.0099 28.3589 18.8753 27.7769 18.6733 27.2102C18.6698 27.2018 18.6634 27.1948 18.6553 27.1907C18.6472 27.1866 18.6378 27.1855 18.629 27.1877C18.6201 27.1899 18.6124 27.1952 18.6071 27.2026C18.6018 27.21 18.5994 27.2191 18.6003 27.2282C18.6869 27.8309 18.7239 28.4362 18.7113 29.0442C18.7099 29.0815 18.6913 29.1035 18.6553 29.1102L18.1893 29.1972C18.1599 28.2225 18.1016 27.3532 18.0143 26.5892C18.0009 26.4752 17.9639 26.3509 17.9033 26.2162C17.897 26.2025 17.8878 26.1903 17.8764 26.1806C17.865 26.171 17.8516 26.164 17.8373 26.1602C17.7319 26.1315 17.6339 26.0732 17.5433 25.9852C17.8463 25.9852 17.8373 25.4362 17.8483 25.2152C17.8486 25.2059 17.8461 25.1967 17.8412 25.1888C17.8363 25.1809 17.8292 25.1747 17.8208 25.1708C17.8123 25.167 17.8029 25.1657 17.7938 25.1672C17.7846 25.1687 17.7761 25.1729 17.7693 25.1792C17.3673 25.5565 16.8733 25.7399 16.2873 25.7292C15.6973 25.7762 14.8893 25.7292 14.5383 25.1902C14.5176 25.1582 14.4903 25.1509 14.4563 25.1682C14.4143 25.1895 14.3896 25.2399 14.3823 25.3192C14.3449 25.3132 14.3039 25.2945 14.2593 25.2632C14.2293 25.2425 14.2003 25.2442 14.1723 25.2682C14.0909 25.3375 14.0056 25.3489 13.9163 25.3022C14.1629 25.2035 14.3403 25.0855 14.4483 24.9482C14.5863 24.9782 14.6443 24.8805 14.6223 24.6552L15.1413 24.5992C15.1813 24.9939 15.3956 25.2175 15.7843 25.2702C16.4976 25.3669 16.9659 25.1352 17.1893 24.5752Z" fill="#48928C"/>
<path id="Vector_177" d="M14.4485 24.9482C14.3405 25.0856 14.1631 25.2036 13.9165 25.3022C12.8535 26.0592 12.2135 27.3492 11.9875 28.6112C11.9828 28.6379 11.9675 28.6472 11.9415 28.6392C11.9328 28.6366 11.9241 28.6339 11.9155 28.6312C11.9115 28.6299 11.9082 28.6272 11.906 28.6236C11.9038 28.6199 11.9029 28.6156 11.9035 28.6112C11.9995 28.0846 12.1761 27.5416 12.4335 26.9822C12.8735 26.0249 13.5451 25.3469 14.4485 24.9482Z" fill="#AECD9E"/>
<path id="Vector_178" d="M16.2868 25.7293L16.3238 25.8183C16.2538 25.943 16.2168 26.063 16.2128 26.1783C16.2115 26.2137 16.1996 26.2479 16.1786 26.2765C16.1576 26.305 16.1285 26.3266 16.0952 26.3385C16.0618 26.3503 16.0256 26.3519 15.9913 26.3429C15.957 26.334 15.9262 26.315 15.9028 26.2883L15.5488 25.8793C15.5433 25.873 15.5363 25.8682 15.5285 25.8652C15.5206 25.8623 15.5122 25.8613 15.5039 25.8624C15.4956 25.8635 15.4877 25.8666 15.4809 25.8715C15.4741 25.8763 15.4686 25.8828 15.4648 25.8903L15.2918 26.2343C15.2752 26.2676 15.2492 26.2786 15.2138 26.2673C15.0165 26.2053 14.9305 26.0623 14.9558 25.8383C14.9582 25.8189 14.9534 25.8001 14.9422 25.7852C14.931 25.7703 14.914 25.7601 14.8941 25.7562C14.8742 25.7524 14.8525 25.7552 14.8327 25.7641C14.8128 25.773 14.7959 25.7875 14.7848 25.8053C14.7075 25.9273 14.5998 25.965 14.4618 25.9183C14.4454 25.9127 14.431 25.9023 14.4207 25.8885C14.4103 25.8748 14.4044 25.8583 14.4038 25.8413L14.3818 25.3193C14.3892 25.24 14.4138 25.1896 14.4558 25.1683C14.4898 25.151 14.5172 25.1583 14.5378 25.1903C14.8888 25.7293 15.6968 25.7763 16.2868 25.7293Z" fill="#F1E8B9"/>
<path id="Vector_179" d="M17.5431 25.9851C17.3858 25.9391 17.2898 25.8568 17.2551 25.7381C17.2501 25.7207 17.2391 25.7057 17.2241 25.6957C17.209 25.6857 17.1909 25.6814 17.1729 25.6836C17.155 25.6858 17.1384 25.6943 17.1262 25.7075C17.1139 25.7208 17.1068 25.7381 17.1061 25.7561C17.0968 25.9768 17.0031 26.1484 16.8251 26.2711C16.8089 26.2824 16.7896 26.2882 16.7699 26.2876C16.7503 26.2871 16.7314 26.2802 16.7161 26.2681C16.5561 26.1428 16.4414 25.9848 16.3721 25.7941C16.3608 25.7634 16.3484 25.7631 16.3351 25.7931L16.3241 25.8181L16.2871 25.7291C16.8731 25.7398 17.3671 25.5564 17.7691 25.1791C17.7759 25.1728 17.7844 25.1686 17.7936 25.1671C17.8028 25.1656 17.8122 25.1669 17.8206 25.1707C17.8291 25.1746 17.8362 25.1809 17.8411 25.1888C17.846 25.1967 17.8484 25.2058 17.8481 25.2151C17.8371 25.4361 17.8461 25.9851 17.5431 25.9851Z" fill="#C8CD9C"/>
<path id="Vector_180" d="M13.3836 29.1392L13.0176 29.0612C13.1162 28.4539 13.3066 27.8772 13.5886 27.3312C13.6219 27.2666 13.6292 27.2692 13.6106 27.3392C13.4559 27.9266 13.3802 28.5266 13.3836 29.1392Z" fill="#397C7B"/>
</g>
</svg>
