<svg width="33" height="32" viewBox="0 0 33 32" fill="none" xmlns="http://www.w3.org/2000/svg">
<path d="M14.0781 3.22266C11.1921 3.73599 8.82072 5.05066 6.96406 7.16666C6.01706 8.24466 5.53306 9.33866 5.47306 10.7267C5.42172 11.9293 5.55172 13.0883 5.86306 14.2037" stroke="#A59EA1" stroke-width="2"/>
<path d="M5.86279 14.2036L6.15279 15.0836" stroke="#9F999D" stroke-width="2"/>
<path d="M6.15232 15.0835C5.18832 15.5925 5.09232 17.0985 5.49332 17.9685C5.95132 18.9625 7.16532 19.6945 8.29132 19.2715C8.30549 19.2663 8.32104 19.2664 8.33503 19.2717C8.34903 19.2771 8.36051 19.2873 8.36732 19.3005C9.68932 21.8115 11.6523 23.0745 14.3083 23.7735C14.3212 23.7767 14.3324 23.7846 14.3396 23.7957C14.3468 23.8068 14.3496 23.8202 14.3473 23.8333C14.3451 23.8464 14.338 23.8584 14.3274 23.8667C14.3169 23.8751 14.3037 23.8793 14.2903 23.8785C14.1343 23.8672 14.0103 23.8902 13.9183 23.9475" stroke="#FFE3D3" stroke-width="2"/>
<path d="M13.9188 23.9473C12.1458 24.1703 10.3308 24.9593 9.82279 26.7943C9.81327 26.8277 9.81701 26.8635 9.83321 26.8942C9.84941 26.9249 9.87684 26.9482 9.90979 26.9593L10.8628 27.2843" stroke="#9BADC5" stroke-width="2"/>
<path d="M20.7953 24.2676L19.9543 24.0356" stroke="#92A7B9" stroke-width="2"/>
<path d="M19.9552 24.0354L18.7532 23.8364" stroke="#FDC6BC" stroke-width="2"/>
<path d="M18.7532 23.8364L19.8022 23.5674" stroke="#FFE3D3" stroke-width="2"/>
<path d="M19.802 23.5674C22.002 22.8854 23.891 21.4714 24.955 19.4004C24.9714 19.3689 24.9986 19.3444 25.0315 19.3315C25.0645 19.3187 25.1009 19.3183 25.134 19.3304C26.05 19.6684 27.089 19.1104 27.621 18.3654C28.369 17.3204 28.243 15.9794 27.257 15.1084" stroke="#FDD4C5" stroke-width="2"/>
<path d="M27.2567 15.1086C27.7547 13.7233 27.9627 12.2946 27.8807 10.8226C27.7797 8.9946 26.8607 7.6326 25.6057 6.4726C23.6143 4.6326 21.254 3.52227 18.5247 3.1416" stroke="#969197" stroke-width="2"/>
<path d="M18.5244 3.14153C17.0357 2.92886 15.5534 2.95586 14.0774 3.22253" stroke="#9F999D" stroke-width="2"/>
<path d="M18.525 3.1416C18.5257 3.17027 18.534 3.2006 18.55 3.2326C18.5567 3.2467 18.5669 3.25886 18.5797 3.26796C18.5925 3.27706 18.6074 3.28278 18.623 3.2846C19.274 3.3536 19.823 3.4736 20.392 3.8246C22.148 4.9036 23.977 6.8786 24.211 9.0296C24.303 9.8736 23.922 10.6176 22.975 10.5246C22.545 10.4826 22.189 10.2306 21.583 10.3546C21.353 10.4016 21.06 10.5676 20.727 10.5506C20.6943 10.5493 20.6627 10.5549 20.632 10.5676C20.4347 10.6543 20.237 10.6739 20.039 10.6266C19.672 10.5396 19.602 10.1136 19.132 10.5366C18.7073 10.9193 18.1667 11.0243 17.51 10.8516" stroke="#362C36" stroke-width="2"/>
<path d="M17.5101 10.8518L17.0521 10.5468C17.0257 10.5293 16.9948 10.5201 16.9633 10.5203C16.9317 10.5204 16.901 10.53 16.8751 10.5478C15.8041 11.2668 15.2091 11.3338 14.1841 10.4768C14.16 10.4567 14.1297 10.4459 14.0985 10.4463C14.0673 10.4467 14.0374 10.4582 14.0141 10.4788C13.3761 11.0428 12.8931 11.5868 11.9981 11.0458C11.8208 10.9384 11.6428 10.8744 11.4641 10.8538C11.4229 10.8493 11.3813 10.856 11.3434 10.8732C11.3056 10.8905 11.273 10.9176 11.2491 10.9518C10.6731 11.7858 10.1591 12.3558 9.03509 12.2408C8.99975 12.2374 8.97309 12.2514 8.95509 12.2828L8.71509 12.6998" stroke="#9D6E64" stroke-width="2"/>
<path d="M8.71483 12.6997C8.2315 13.7064 7.97283 14.774 7.93883 15.9027C7.93283 16.0947 7.86983 16.3147 7.83983 16.5077C7.83383 16.5464 7.81283 16.5587 7.77683 16.5447C7.49283 16.4377 7.17683 15.7077 6.96583 15.2897C6.78483 14.9317 6.47183 15.0107 6.15283 15.0837" stroke="#9F7D72" stroke-width="2"/>
<path d="M5.86279 14.2038C5.97546 14.1911 6.05513 14.2868 6.10179 14.4908C6.10633 14.5115 6.11777 14.5301 6.13426 14.5434C6.15074 14.5568 6.17131 14.5641 6.19263 14.5642C6.21394 14.5643 6.23474 14.5572 6.25165 14.5441C6.26856 14.5309 6.2806 14.5125 6.28579 14.4918C6.39113 14.0618 6.55579 13.6691 6.77979 13.3138C7.29913 12.4904 7.80146 11.6578 8.28679 10.8158C9.25779 9.12977 10.4168 8.62177 12.2828 8.13377C14.8618 7.45877 13.4708 4.54877 15.4728 3.48877C15.5021 3.47344 15.5185 3.44944 15.5218 3.41677C15.5698 2.93677 14.2158 3.50077 14.0778 3.22277" stroke="#453840" stroke-width="2"/>
<path d="M27.257 15.1083C26.449 14.7663 26.204 15.5233 25.967 16.1463C25.942 16.2103 25.875 16.2723 25.822 16.3043C25.8106 16.3112 25.7977 16.3151 25.7844 16.316C25.7712 16.3168 25.7579 16.3144 25.7458 16.309C25.7336 16.3036 25.7229 16.2954 25.7146 16.285C25.7063 16.2746 25.7006 16.2624 25.698 16.2493C25.5893 15.7187 25.5097 15.1827 25.459 14.6413C25.411 14.1293 25.253 13.8613 24.842 13.6003C24.8107 13.581 24.787 13.5547 24.771 13.5213C24.603 13.182 24.5007 12.823 24.464 12.4443C24.459 12.3905 24.4335 12.3406 24.3928 12.3047C24.3522 12.2689 24.2993 12.2498 24.245 12.2513C23.026 12.2923 22.824 11.9153 22.305 10.9283C22.2811 10.8827 22.2421 10.8469 22.1946 10.827C22.1472 10.8071 22.0943 10.8044 22.045 10.8193C21.486 10.9863 21.015 11.4213 20.388 11.1883C20 11.0443 19.679 10.2123 19.236 10.5813C18.6887 11.038 18.1133 11.128 17.51 10.8513" stroke="#94675D" stroke-width="2"/>
<path d="M22.7432 13.2634C21.9665 12.4188 21.0178 12.0244 19.8972 12.0804C18.8392 12.1334 18.9562 13.4634 19.8292 13.4514C19.9192 13.4501 20.1112 13.3998 20.4052 13.3004" stroke="#998279" stroke-width="2"/>
<path d="M22.3825 15.3793C22.1578 15.1053 21.8882 14.9213 21.5735 14.8273C21.5388 14.8173 21.5042 14.818 21.4695 14.8293L21.2995 14.8863C21.2675 14.897 21.2348 14.902 21.2015 14.9013C20.9102 14.8927 20.7425 14.9523 20.6985 15.0803" stroke="#FFE3D3" stroke-width="2"/>
<path d="M20.6988 15.0806C18.6148 16.5166 20.6298 19.9676 22.1058 17.9696" stroke="#8A6D60" stroke-width="2"/>
<path d="M22.1057 17.9697C22.149 18.0044 22.2147 18.0287 22.3027 18.0427" stroke="#FFE3D3" stroke-width="2"/>
<path d="M22.0538 18.7104C21.3968 18.8684 20.0638 19.7694 21.0838 20.4974C21.4611 20.7674 21.9151 20.8378 22.4458 20.7084" stroke="#FEAB90" stroke-width="2"/>
<path d="M18.7527 23.8364L18.4377 23.8714" stroke="#FEAB90" stroke-width="2"/>
<path d="M18.4378 23.8716C17.3191 24.0042 16.1974 24.0079 15.0728 23.8826" stroke="#FB937E" stroke-width="2"/>
<path d="M15.0726 23.8825L14.4566 23.8605C14.4246 23.8591 14.3976 23.8695 14.3756 23.8915C14.2983 23.9681 14.2126 24.0095 14.1186 24.0155C14.0896 24.0174 14.0619 24.0285 14.0397 24.0473C14.0175 24.0661 14.0018 24.0915 13.9951 24.1198C13.9884 24.1481 13.991 24.1778 14.0024 24.2046C14.0138 24.2313 14.0335 24.2537 14.0586 24.2685C14.8259 24.7205 15.6293 25.1671 16.4686 25.6085C16.6679 25.7131 17.0753 26.0675 17.6906 26.6715" stroke="#FEAB90" stroke-width="2"/>
<path d="M17.6909 26.6717C16.9529 26.8284 16.1853 26.796 15.3879 26.5747" stroke="#938C8D" stroke-width="2"/>
<path d="M15.3878 26.5743C14.4978 26.2963 13.4698 25.5453 13.4028 24.5433C13.3908 24.3646 13.4291 24.2343 13.5178 24.1523C13.6098 24.0676 13.7434 23.9993 13.9188 23.9473" stroke="#9B9199" stroke-width="2"/>
<path d="M19.8016 23.5675C19.7703 23.5535 19.7436 23.5265 19.7216 23.4865C19.7063 23.4592 19.7136 23.4402 19.7436 23.4295C21.0276 22.9948 21.961 22.1655 22.5436 20.9415C22.5996 20.8235 22.5606 20.7525 22.4456 20.7085" stroke="#FDB899" stroke-width="2"/>
<path d="M22.446 20.7085C23.335 20.5085 24.207 19.8455 24.369 18.9075C24.4016 18.7202 24.3283 18.6158 24.149 18.5945C23.447 18.5118 22.7486 18.5505 22.054 18.7105" stroke="#FC9C82" stroke-width="2"/>
<path d="M22.0533 18.7105C21.9953 18.4531 22.0783 18.2305 22.3023 18.0425" stroke="#FDB899" stroke-width="2"/>
<path d="M22.303 18.0424C22.8563 17.1357 22.883 16.2481 22.383 15.3794" stroke="#FDD4C5" stroke-width="2"/>
<path d="M22.383 15.3798C22.234 14.7878 21.993 14.6628 21.479 14.4088C21.4543 14.3968 21.4446 14.3774 21.45 14.3508C21.459 14.3098 20.969 13.9328 20.895 13.8618C20.697 13.6728 20.372 13.7468 20.233 13.5508C20.2123 13.5214 20.2183 13.4988 20.251 13.4828C20.3363 13.4401 20.3876 13.3794 20.405 13.3008" stroke="#FDB899" stroke-width="2"/>
<path d="M20.4048 13.3007C21.3128 13.1977 22.1168 13.7357 22.8818 14.1797C23.0205 14.2603 23.1128 14.2237 23.1588 14.0697C23.2248 13.8477 22.8978 13.4577 22.7428 13.2637" stroke="#97736B" stroke-width="2"/>
<path d="M22.7424 13.2636C22.7151 13.173 22.6601 13.0986 22.5774 13.0406C22.5514 13.0226 22.5378 12.9973 22.5364 12.9646C22.5254 12.7046 21.5604 12.2646 21.4014 12.1936C21.0914 12.0546 20.6384 11.9976 20.2644 11.8036C20.2571 11.7996 20.2524 11.7943 20.2504 11.7876C20.2491 11.7843 20.2484 11.7806 20.2484 11.7766C20.2464 11.76 20.2394 11.7496 20.2274 11.7456C19.4324 11.4556 18.5284 11.8446 17.8274 11.5006C17.6534 11.4153 17.4481 11.2893 17.2114 11.1226C17.1834 11.1033 17.1538 11.1003 17.1224 11.1136C16.5584 11.3546 16.2484 11.6916 15.5834 11.6956C15.0724 11.6976 14.6694 11.3316 14.1494 11.4446C13.8001 11.52 13.4761 11.662 13.1774 11.8706C13.1694 11.8753 13.1691 11.881 13.1764 11.8876L13.1974 11.9056C13.2054 11.9123 13.2044 11.917 13.1944 11.9196C12.8531 12.011 12.5684 11.9433 12.3404 11.7166C11.7704 11.1486 11.1324 12.0706 10.6504 12.3406C10.3711 12.4973 10.0761 12.618 9.76543 12.7026C8.98143 12.9146 8.75643 13.2336 8.44143 13.9646C8.4411 13.9657 8.44057 13.9667 8.43986 13.9675C8.43916 13.9683 8.43829 13.969 8.43732 13.9696C8.43634 13.9701 8.43528 13.9704 8.43418 13.9705C8.43309 13.9706 8.43198 13.9705 8.43093 13.9701C8.42988 13.9698 8.4289 13.9693 8.42806 13.9686C8.42721 13.9679 8.42652 13.967 8.42601 13.966C8.4255 13.965 8.42518 13.964 8.42508 13.9629C8.42498 13.9618 8.4251 13.9607 8.42543 13.9596C8.4981 13.547 8.61643 13.1563 8.78043 12.7876C8.79443 12.7556 8.7871 12.7296 8.75843 12.7096C8.74643 12.701 8.73176 12.6976 8.71443 12.6996" stroke="#FDB899" stroke-width="2"/>
<path d="M15.0728 23.8826C15.7758 25.3086 17.6938 25.0956 18.4378 23.8716" stroke="#FA7667" stroke-width="2"/>
<path d="M19.9547 24.0356C20.2157 25.4696 18.9607 26.4136 17.6907 26.6716" stroke="#916F76" stroke-width="2"/>
<path d="M15.3879 26.5747C15.6719 26.742 16.0006 26.8457 16.3739 26.8857C16.406 26.8896 16.4361 26.9024 16.4609 26.9227L17.7549 28.0107C17.7809 28.032 17.7906 28.0597 17.7839 28.0937L17.7519 28.2627" stroke="#2F567F" stroke-width="2"/>
<path d="M17.7518 28.2627C15.2948 28.3857 13.1478 27.9947 10.8628 27.2847" stroke="#839BBA" stroke-width="2"/>
<path d="M22.1055 17.9695C22.3242 17.6249 22.4188 17.2369 22.3895 16.8056C22.3055 15.5816 21.7418 15.0065 20.6985 15.0805" stroke="#89898C" stroke-width="2"/>
<path d="M20.7952 24.2676C21.8962 24.7466 23.1612 25.5606 23.2782 26.9036C23.2809 26.9389 23.2659 26.9636 23.2332 26.9776C21.4859 27.7316 19.6586 28.1599 17.7512 28.2626" stroke="#7B96AE" stroke-width="2"/>
<path d="M6.513 10.9905C7.173 11.4925 7.804 10.5195 8.208 9.96453C9.27 8.50453 10.35 7.00554 11.549 5.65454C11.6257 5.5692 11.699 5.46954 11.769 5.35554C11.7769 5.343 11.7819 5.32883 11.7838 5.314C11.7857 5.29916 11.7844 5.284 11.78 5.26954C11.515 4.46354 9.808 5.86153 9.435 6.16453C8.46033 6.95587 7.62767 7.88054 6.937 8.93854C6.607 9.44354 5.984 10.5875 6.513 10.9905Z" stroke="#574850" stroke-width="2"/>
<path d="M26.319 15.9283L26.247 15.9713C26.2216 15.9863 26.2017 16.0087 26.19 16.0353C25.945 16.5993 25.555 17.6923 25.675 18.3403C25.681 18.3716 25.6956 18.3977 25.719 18.4183C26.322 18.9673 27.186 17.9303 27.364 17.4203C27.553 16.8773 27.486 15.6753 26.677 15.6743C26.5523 15.6743 26.4483 15.7436 26.365 15.8823C26.3538 15.9013 26.338 15.9172 26.319 15.9283Z" stroke="#FC9C82" stroke-width="2"/>
<path d="M10.5205 14.2437C10.7355 14.2487 11.4445 13.7257 11.8675 13.5247C12.3188 13.3094 12.7991 13.2707 13.3085 13.4087C14.6655 13.7757 14.7415 12.0007 13.3995 12.0797C12.2355 12.1487 10.7545 12.8237 10.3605 14.0167C10.352 14.0423 10.3497 14.0696 10.3537 14.0963C10.3577 14.123 10.3679 14.1484 10.3834 14.1704C10.3989 14.1925 10.4194 14.2106 10.4432 14.2233C10.467 14.2361 10.4935 14.243 10.5205 14.2437Z" stroke="#998279" stroke-width="2"/>
<path d="M11.509 18.0796C12.0144 18.5483 12.492 18.6493 12.942 18.3826C13.726 17.9166 13.909 16.8856 13.604 16.0466C13.4587 15.6479 13.175 15.3253 12.753 15.0786" stroke="#8A6D60" stroke-width="2"/>
<path d="M12.7527 15.0785C12.1174 14.8958 11.6264 15.0015 11.2797 15.3955C10.9977 15.7168 10.8567 16.1308 10.8567 16.6375C10.8567 17.2022 11.074 17.6828 11.5087 18.0795" stroke="#FFE3D3" stroke-width="2"/>
<path d="M12.753 15.0787C12.307 15.05 11.9743 15.1603 11.755 15.4097C11.071 16.1877 10.989 17.0777 11.509 18.0797" stroke="#89898C" stroke-width="2"/>
<path d="M6.56779 18.2594C6.85379 18.51 7.15112 18.6047 7.45979 18.5434C7.68479 18.4994 7.76479 18.3154 7.72279 18.1044C7.64479 17.7074 7.22679 15.4694 6.53979 15.7054C6.31712 15.782 6.17112 15.8914 6.10179 16.0334C5.68845 16.8827 5.84379 17.6247 6.56779 18.2594Z" stroke="#FEAB90" stroke-width="2"/>
<path d="M16.9808 18.7503C16.9475 18.7317 16.9071 18.724 16.8598 18.7273C16.8271 18.73 16.8038 18.746 16.7898 18.7753C16.7245 18.9107 16.6141 18.9927 16.4588 19.0213C16.4261 19.028 16.4028 19.0163 16.3888 18.9863L16.3578 18.9223C16.3498 18.9046 16.3359 18.8903 16.3184 18.8818C16.301 18.8733 16.2811 18.8712 16.2621 18.8758C16.2432 18.8804 16.2263 18.8914 16.2144 18.907C16.2025 18.9226 16.1963 18.9418 16.1968 18.9613C16.2008 19.1967 16.2501 19.3397 16.3448 19.3903" stroke="#FFCCAD" stroke-width="2"/>
<path d="M16.3445 19.3907C16.3011 19.5007 16.3358 19.581 16.4485 19.6317C16.9355 19.8497 17.3115 19.5427 17.4795 19.0937C17.6441 18.655 17.5505 18.2573 17.1985 17.9007C17.1105 17.8113 17.0131 17.808 16.9065 17.8907C16.8962 17.8984 16.8894 17.9099 16.8875 17.9226C16.8857 17.9353 16.8889 17.9483 16.8965 17.9587C17.0765 18.2 17.1045 18.464 16.9805 18.7507" stroke="#FDB899" stroke-width="2"/>
<path d="M16.345 19.3905C16.659 19.2885 16.871 19.0752 16.981 18.7505" stroke="#FDBD9F" stroke-width="2"/>
<path d="M9.47072 19.1304C9.16772 20.4684 10.5377 21.0444 11.6267 20.7984C12.2907 20.6484 13.0237 20.1214 12.3257 19.4014C11.5924 18.6454 10.737 18.4391 9.75972 18.7824C9.61072 18.8344 9.50272 18.9894 9.47072 19.1304Z" stroke="#FEAB90" stroke-width="2"/>
<path d="M14.9297 22.1885C15.9524 22.6945 16.9934 22.7048 18.0527 22.2195" stroke="#FEAB90" stroke-width="2"/>
<path d="M18.0526 22.2194C18.5199 22.074 18.9433 21.8427 19.3226 21.5254C19.6706 21.2354 20.0006 20.6794 19.8226 20.2084C19.8168 20.1931 19.8062 20.18 19.7924 20.1712C19.7785 20.1624 19.7621 20.1582 19.7456 20.1594C19.6496 20.1667 19.5566 20.1867 19.4666 20.2194C17.5106 20.9227 15.5419 20.921 13.5606 20.2144C13.5399 20.207 13.5177 20.2046 13.4959 20.2073C13.4741 20.2101 13.4532 20.2179 13.4349 20.2301C13.4167 20.2424 13.4015 20.2587 13.3907 20.2778C13.3799 20.297 13.3737 20.3184 13.3726 20.3404C13.3506 20.7804 13.4909 21.162 13.7936 21.4854C14.0476 21.7567 14.4263 21.991 14.9296 22.1884" stroke="#907166" stroke-width="2"/>
<path d="M18.0527 22.2195C17.804 21.9495 17.5027 21.7795 17.1487 21.7095C16.5787 21.5965 15.1087 21.4685 14.9297 22.1885" stroke="#8F554F" stroke-width="2"/>
<path d="M21.0691 17.1397C21.1493 17.1316 21.2227 17.0884 21.273 17.0198C21.3233 16.9512 21.3465 16.8627 21.3375 16.7737C21.3285 16.6848 21.2879 16.6028 21.2248 16.5457C21.1617 16.4885 21.0812 16.461 21.001 16.4692C20.9208 16.4773 20.8475 16.5205 20.7971 16.5891C20.7468 16.6577 20.7236 16.7463 20.7326 16.8352C20.7417 16.9241 20.7822 17.0061 20.8453 17.0632C20.9084 17.1204 20.9889 17.1479 21.0691 17.1397Z" stroke="#89898C" stroke-width="2"/>
<path d="M12.466 17.1532C12.505 17.1578 12.5446 17.1536 12.5826 17.1409C12.6207 17.1281 12.6563 17.1071 12.6876 17.079C12.7188 17.0509 12.7451 17.0162 12.7648 16.977C12.7846 16.9378 12.7974 16.8948 12.8026 16.8504C12.8131 16.7609 12.7919 16.6713 12.7437 16.6014C12.6954 16.5316 12.6241 16.4871 12.5453 16.4779C12.5063 16.4733 12.4667 16.4775 12.4287 16.4902C12.3906 16.503 12.355 16.524 12.3237 16.5521C12.2925 16.5802 12.2662 16.6149 12.2465 16.6541C12.2267 16.6933 12.2139 16.7363 12.2087 16.7807C12.1982 16.8702 12.2194 16.9598 12.2676 17.0297C12.3159 17.0995 12.3872 17.144 12.466 17.1532Z" stroke="#89898C" stroke-width="2"/>
<path d="M18.5248 3.14153C18.5255 3.1702 18.5338 3.20053 18.5498 3.23253C18.5565 3.24663 18.5667 3.25879 18.5795 3.26789C18.5922 3.27699 18.6071 3.28271 18.6228 3.28453C19.2738 3.35353 19.8228 3.47353 20.3918 3.82453C22.1478 4.90353 23.9768 6.87853 24.2108 9.02953C24.3028 9.87353 23.9218 10.6175 22.9748 10.5245C22.5448 10.4825 22.1888 10.2305 21.5828 10.3545C21.3528 10.4015 21.0598 10.5675 20.7268 10.5505C20.6941 10.5492 20.6625 10.5549 20.6318 10.5675C20.4345 10.6542 20.2368 10.6739 20.0388 10.6265C19.6718 10.5395 19.6018 10.1135 19.1318 10.5365C18.7071 10.9192 18.1665 11.0242 17.5098 10.8515L17.0518 10.5465C17.0254 10.5291 16.9945 10.5198 16.963 10.52C16.9314 10.5202 16.9007 10.5298 16.8748 10.5475C15.8038 11.2665 15.2088 11.3335 14.1838 10.4765C14.1597 10.4565 14.1294 10.4457 14.0982 10.4461C14.067 10.4464 14.0371 10.4579 14.0138 10.4785C13.3758 11.0425 12.8928 11.5865 11.9978 11.0455C11.8205 10.9382 11.6425 10.8742 11.4638 10.8535C11.4226 10.849 11.381 10.8558 11.3431 10.873C11.3053 10.8902 11.2727 10.9174 11.2488 10.9515C10.6728 11.7855 10.1588 12.3555 9.03479 12.2405C8.99946 12.2372 8.97279 12.2512 8.95479 12.2825L8.71479 12.6995C8.23146 13.7062 7.97279 14.7739 7.93879 15.9025C7.93279 16.0945 7.86979 16.3145 7.83979 16.5075C7.83379 16.5462 7.81279 16.5585 7.77679 16.5445C7.49279 16.4375 7.17679 15.7075 6.96579 15.2895C6.78479 14.9315 6.47179 15.0105 6.15279 15.0835L5.86279 14.2035C5.97546 14.1909 6.05513 14.2865 6.10179 14.4905C6.10633 14.5113 6.11777 14.5299 6.13426 14.5432C6.15074 14.5565 6.17131 14.5638 6.19263 14.5639C6.21394 14.5641 6.23474 14.557 6.25165 14.5438C6.26856 14.5307 6.2806 14.5123 6.28579 14.4915C6.39113 14.0615 6.55579 13.6689 6.77979 13.3135C7.29913 12.4902 7.80146 11.6575 8.28679 10.8155C9.25779 9.12953 10.4168 8.62153 12.2828 8.13353C14.8618 7.45853 13.4708 4.54853 15.4728 3.48853C15.5021 3.4732 15.5185 3.4492 15.5218 3.41653C15.5698 2.93653 14.2158 3.50053 14.0778 3.22253C15.5538 2.95586 17.0361 2.92886 18.5248 3.14153Z" fill="#3F333C"/>
<path d="M18.525 3.1416C21.2543 3.52227 23.6147 4.6326 25.606 6.4726C26.861 7.6326 27.78 8.9946 27.881 10.8226C27.963 12.2946 27.755 13.7233 27.257 15.1086C26.449 14.7666 26.204 15.5236 25.967 16.1466C25.942 16.2106 25.875 16.2726 25.822 16.3046C25.8106 16.3114 25.7977 16.3154 25.7844 16.3162C25.7712 16.317 25.7579 16.3146 25.7458 16.3092C25.7336 16.3039 25.7229 16.2956 25.7146 16.2852C25.7063 16.2749 25.7006 16.2626 25.698 16.2496C25.5893 15.7189 25.5097 15.1829 25.459 14.6416C25.411 14.1296 25.253 13.8616 24.842 13.6006C24.8107 13.5813 24.787 13.5549 24.771 13.5216C24.603 13.1823 24.5007 12.8233 24.464 12.4446C24.459 12.3908 24.4335 12.3408 24.3928 12.305C24.3522 12.2692 24.2993 12.2501 24.245 12.2516C23.026 12.2926 22.824 11.9156 22.305 10.9286C22.2811 10.883 22.2421 10.8472 22.1946 10.8273C22.1472 10.8074 22.0943 10.8047 22.045 10.8196C21.486 10.9866 21.015 11.4216 20.388 11.1886C20 11.0446 19.679 10.2126 19.236 10.5816C18.6887 11.0383 18.1133 11.1283 17.51 10.8516C18.1667 11.0243 18.7073 10.9193 19.132 10.5366C19.602 10.1136 19.672 10.5396 20.039 10.6266C20.237 10.6739 20.4347 10.6543 20.632 10.5676C20.6627 10.5549 20.6943 10.5493 20.727 10.5506C21.06 10.5676 21.353 10.4016 21.583 10.3546C22.189 10.2306 22.545 10.4826 22.975 10.5246C23.922 10.6176 24.303 9.8736 24.211 9.0296C23.977 6.8786 22.148 4.9036 20.392 3.8246C19.823 3.4736 19.274 3.3536 18.623 3.2846C18.6074 3.28278 18.5925 3.27706 18.5797 3.26796C18.5669 3.25886 18.5567 3.2467 18.55 3.2326C18.534 3.2006 18.5257 3.17027 18.525 3.1416Z" fill="#2D242F"/>
<path d="M14.0781 3.22277C14.2161 3.50077 15.5701 2.93677 15.5221 3.41677C15.5187 3.44944 15.5024 3.47344 15.4731 3.48877C13.4711 4.54877 14.8621 7.45877 12.2831 8.13377C10.4171 8.62177 9.25806 9.12977 8.28706 10.8158C7.80172 11.6578 7.29939 12.4904 6.78006 13.3138C6.55606 13.6691 6.39139 14.0618 6.28606 14.4918C6.28086 14.5125 6.26883 14.5309 6.25191 14.5441C6.235 14.5572 6.2142 14.5643 6.19289 14.5642C6.17158 14.5641 6.15101 14.5568 6.13452 14.5434C6.11803 14.5301 6.10659 14.5115 6.10206 14.4908C6.05539 14.2868 5.97572 14.1911 5.86306 14.2038C5.55172 13.0884 5.42172 11.9294 5.47306 10.7268C5.53306 9.33877 6.01706 8.24477 6.96406 7.16677C8.82072 5.05077 11.1921 3.7361 14.0781 3.22277ZM6.51306 10.9908C7.17306 11.4928 7.80406 10.5198 8.20806 9.96477C9.27006 8.50477 10.3501 7.00577 11.5491 5.65477C11.6257 5.56944 11.6991 5.46977 11.7691 5.35577C11.7769 5.34323 11.782 5.32907 11.7839 5.31423C11.7858 5.29939 11.7845 5.28423 11.7801 5.26977C11.5151 4.46377 9.80806 5.86177 9.43506 6.16477C8.46039 6.9561 7.62772 7.88077 6.93706 8.93877C6.60706 9.44377 5.98406 10.5878 6.51306 10.9908Z" fill="#4B3D44"/>
<path d="M6.513 10.9905C5.984 10.5875 6.607 9.44354 6.937 8.93854C7.62767 7.88054 8.46033 6.95587 9.435 6.16453C9.808 5.86153 11.515 4.46354 11.78 5.26954C11.7844 5.284 11.7857 5.29916 11.7838 5.314C11.7819 5.32883 11.7769 5.343 11.769 5.35554C11.699 5.46954 11.6257 5.5692 11.549 5.65454C10.35 7.00554 9.27 8.50453 8.208 9.96453C7.804 10.5195 7.173 11.4925 6.513 10.9905Z" fill="#62525B"/>
<path d="M17.5094 10.8518C18.1128 11.1284 18.6881 11.0384 19.2354 10.5818C19.6784 10.2128 19.9994 11.0448 20.3874 11.1888C21.0144 11.4218 21.4854 10.9868 22.0444 10.8198C22.0937 10.8048 22.1466 10.8075 22.1941 10.8274C22.2415 10.8473 22.2806 10.8832 22.3044 10.9288C22.8234 11.9158 23.0254 12.2928 24.2444 12.2518C24.2987 12.2502 24.3516 12.2693 24.3923 12.3052C24.4329 12.341 24.4584 12.3909 24.4634 12.4448C24.5001 12.8234 24.6024 13.1824 24.7704 13.5218C24.7864 13.5551 24.8101 13.5814 24.8414 13.6008C25.2524 13.8618 25.4104 14.1298 25.4584 14.6418C25.5091 15.1831 25.5888 15.7191 25.6974 16.2498C25.7 16.2628 25.7057 16.275 25.714 16.2854C25.7223 16.2958 25.733 16.304 25.7452 16.3094C25.7573 16.3148 25.7706 16.3172 25.7839 16.3164C25.7971 16.3156 25.81 16.3116 25.8214 16.3048C25.8744 16.2728 25.9414 16.2108 25.9664 16.1468C26.2034 15.5238 26.4484 14.7668 27.2564 15.1088C28.2424 15.9798 28.3684 17.3208 27.6204 18.3658C27.0884 19.1108 26.0494 19.6688 25.1334 19.3308C25.1003 19.3186 25.0639 19.319 25.031 19.3319C24.998 19.3448 24.9708 19.3693 24.9544 19.4008C23.8904 21.4718 22.0014 22.8858 19.8014 23.5678C19.7701 23.5538 19.7434 23.5268 19.7214 23.4868C19.7061 23.4594 19.7134 23.4404 19.7434 23.4298C21.0274 22.9951 21.9608 22.1658 22.5434 20.9418C22.5994 20.8238 22.5604 20.7528 22.4454 20.7088C23.3344 20.5088 24.2064 19.8458 24.3684 18.9078C24.4011 18.7204 24.3278 18.6161 24.1484 18.5948C23.4464 18.5121 22.7481 18.5508 22.0534 18.7108C21.9954 18.4534 22.0784 18.2308 22.3024 18.0428C22.8558 17.1361 22.8824 16.2484 22.3824 15.3798C22.2334 14.7878 21.9924 14.6628 21.4784 14.4088C21.4538 14.3968 21.4441 14.3774 21.4494 14.3508C21.4584 14.3098 20.9684 13.9328 20.8944 13.8618C20.6964 13.6728 20.3714 13.7468 20.2324 13.5508C20.2118 13.5214 20.2178 13.4988 20.2504 13.4828C20.3358 13.4401 20.3871 13.3794 20.4044 13.3008C21.3124 13.1978 22.1164 13.7358 22.8814 14.1798C23.0201 14.2604 23.1124 14.2238 23.1584 14.0698C23.2244 13.8478 22.8974 13.4578 22.7424 13.2638C22.7151 13.1731 22.6601 13.0988 22.5774 13.0408C22.5514 13.0228 22.5378 12.9974 22.5364 12.9648C22.5254 12.7048 21.5604 12.2648 21.4014 12.1938C21.0914 12.0548 20.6384 11.9978 20.2644 11.8038C20.2571 11.7998 20.2524 11.7944 20.2504 11.7878C20.2491 11.7844 20.2484 11.7808 20.2484 11.7768C20.2464 11.7601 20.2394 11.7498 20.2274 11.7458C19.4324 11.4558 18.5284 11.8448 17.8274 11.5008C17.6534 11.4154 17.4481 11.2894 17.2114 11.1228C17.1834 11.1034 17.1538 11.1004 17.1224 11.1138C16.5584 11.3548 16.2484 11.6918 15.5834 11.6958C15.0724 11.6978 14.6694 11.3318 14.1494 11.4448C13.8001 11.5201 13.4761 11.6621 13.1774 11.8708C13.1694 11.8754 13.1691 11.8811 13.1764 11.8878L13.1974 11.9058C13.2054 11.9124 13.2044 11.9171 13.1944 11.9198C12.8531 12.0111 12.5684 11.9434 12.3404 11.7168C11.7704 11.1488 11.1324 12.0708 10.6504 12.3408C10.3711 12.4974 10.0761 12.6181 9.76543 12.7028C8.98143 12.9148 8.75643 13.2338 8.44143 13.9648C8.4411 13.9658 8.44057 13.9668 8.43986 13.9676C8.43916 13.9685 8.43829 13.9692 8.43732 13.9697C8.43634 13.9702 8.43528 13.9705 8.43418 13.9706C8.43309 13.9707 8.43198 13.9706 8.43093 13.9703C8.42988 13.97 8.4289 13.9694 8.42806 13.9687C8.42721 13.968 8.42652 13.9671 8.42601 13.9662C8.4255 13.9652 8.42518 13.9641 8.42508 13.963C8.42498 13.9619 8.4251 13.9608 8.42543 13.9598C8.4981 13.5471 8.61643 13.1564 8.78043 12.7878C8.79443 12.7558 8.7871 12.7298 8.75843 12.7098C8.74643 12.7011 8.73176 12.6978 8.71443 12.6998L8.95443 12.2828C8.97243 12.2514 8.9991 12.2374 9.03443 12.2408C10.1584 12.3558 10.6724 11.7858 11.2484 10.9518C11.2724 10.9176 11.305 10.8905 11.3428 10.8732C11.3806 10.856 11.4223 10.8493 11.4634 10.8538C11.6421 10.8744 11.8201 10.9384 11.9974 11.0458C12.8924 11.5868 13.3754 11.0428 14.0134 10.4788C14.0367 10.4582 14.0666 10.4467 14.0978 10.4463C14.129 10.4459 14.1594 10.4567 14.1834 10.4768C15.2084 11.3338 15.8034 11.2668 16.8744 10.5478C16.9004 10.53 16.9311 10.5204 16.9626 10.5203C16.9941 10.5201 17.0251 10.5293 17.0514 10.5468L17.5094 10.8518ZM26.3184 15.9288L26.2464 15.9718C26.2211 15.9867 26.2011 16.0091 26.1894 16.0358C25.9444 16.5998 25.5544 17.6928 25.6744 18.3408C25.6804 18.3721 25.6951 18.3981 25.7184 18.4188C26.3214 18.9678 27.1854 17.9308 27.3634 17.4208C27.5524 16.8778 27.4854 15.6758 26.6764 15.6748C26.5518 15.6748 26.4478 15.7441 26.3644 15.8828C26.3533 15.9018 26.3374 15.9176 26.3184 15.9288Z" fill="#FBA98B"/>
<path d="M22.7423 13.2636C21.9657 12.419 21.017 12.0246 19.8963 12.0806C18.8383 12.1336 18.9553 13.4636 19.8283 13.4516C19.9183 13.4503 20.1103 13.4 20.4043 13.3006C20.387 13.3793 20.3357 13.44 20.2503 13.4826C20.2177 13.4986 20.2117 13.5213 20.2323 13.5506C20.3713 13.7466 20.6963 13.6726 20.8943 13.8616C20.9683 13.9326 21.4583 14.3096 21.4493 14.3506C21.444 14.3773 21.4537 14.3966 21.4783 14.4086C21.9923 14.6626 22.2333 14.7876 22.3823 15.3796C22.1577 15.1056 21.888 14.9216 21.5733 14.8276C21.5387 14.8176 21.504 14.8183 21.4693 14.8296L21.2993 14.8866C21.2673 14.8973 21.2347 14.9023 21.2013 14.9016C20.91 14.893 20.7423 14.9526 20.6983 15.0806C18.6143 16.5166 20.6293 19.9676 22.1053 17.9696C22.1487 18.0043 22.2143 18.0286 22.3023 18.0426C22.0783 18.2306 21.9953 18.4533 22.0533 18.7106C21.3963 18.8686 20.0633 19.7696 21.0833 20.4976C21.4607 20.7676 21.9147 20.838 22.4453 20.7086C22.5603 20.7526 22.5993 20.8236 22.5433 20.9416C21.9607 22.1656 21.0273 22.995 19.7433 23.4296C19.7133 23.4403 19.706 23.4593 19.7213 23.4866C19.7433 23.5266 19.77 23.5536 19.8013 23.5676L18.7523 23.8366L18.4373 23.8716C17.3187 24.0043 16.197 24.008 15.0723 23.8826L14.4563 23.8606C14.4243 23.8593 14.3973 23.8696 14.3753 23.8916C14.298 23.9683 14.2123 24.0096 14.1183 24.0156C14.0893 24.0175 14.0616 24.0287 14.0394 24.0475C14.0172 24.0662 14.0015 24.0916 13.9948 24.12C13.9881 24.1483 13.9907 24.178 14.0021 24.2048C14.0135 24.2315 14.0332 24.2539 14.0583 24.2686C14.8257 24.7206 15.629 25.1673 16.4683 25.6086C16.6677 25.7133 17.075 26.0676 17.6903 26.6716C16.9523 26.8283 16.1847 26.796 15.3873 26.5746C14.4973 26.2966 13.4693 25.5456 13.4023 24.5436C13.3903 24.365 13.4287 24.2346 13.5173 24.1526C13.6093 24.068 13.743 23.9996 13.9183 23.9476C14.0103 23.8903 14.1343 23.8673 14.2903 23.8786C14.3037 23.8794 14.3169 23.8752 14.3274 23.8669C14.338 23.8585 14.3451 23.8466 14.3473 23.8334C14.3496 23.8203 14.3468 23.8069 14.3396 23.7958C14.3324 23.7848 14.3212 23.7768 14.3083 23.7736C11.6523 23.0746 9.68932 21.8116 8.36732 19.3006C8.36051 19.2874 8.34903 19.2772 8.33503 19.2719C8.32104 19.2665 8.30549 19.2664 8.29132 19.2716C7.16532 19.6946 5.95132 18.9626 5.49332 17.9686C5.09232 17.0986 5.18832 15.5926 6.15232 15.0836C6.47132 15.0106 6.78432 14.9316 6.96532 15.2896C7.17632 15.7076 7.49232 16.4376 7.77632 16.5446C7.81232 16.5586 7.83332 16.5463 7.83932 16.5076C7.86932 16.3146 7.93232 16.0946 7.93832 15.9026C7.97232 14.774 8.23099 13.7063 8.71432 12.6996C8.73165 12.6976 8.74632 12.701 8.75832 12.7096C8.78699 12.7296 8.79432 12.7556 8.78032 12.7876C8.61632 13.1563 8.49799 13.547 8.42532 13.9596C8.42499 13.9607 8.42487 13.9618 8.42497 13.9629C8.42507 13.964 8.42538 13.965 8.42589 13.966C8.4264 13.967 8.4271 13.9679 8.42795 13.9686C8.42879 13.9693 8.42977 13.9698 8.43082 13.9701C8.43187 13.9705 8.43297 13.9706 8.43407 13.9705C8.43517 13.9704 8.43623 13.9701 8.43721 13.9696C8.43818 13.969 8.43905 13.9683 8.43975 13.9675C8.44046 13.9667 8.44099 13.9657 8.44132 13.9646C8.75632 13.2336 8.98132 12.9146 9.76532 12.7026C10.076 12.618 10.371 12.4973 10.6503 12.3406C11.1323 12.0706 11.7703 11.1486 12.3403 11.7166C12.5683 11.9433 12.853 12.011 13.1943 11.9196C13.2043 11.917 13.2053 11.9123 13.1973 11.9056L13.1763 11.8876C13.169 11.881 13.1693 11.8753 13.1773 11.8706C13.476 11.662 13.8 11.52 14.1493 11.4446C14.6693 11.3316 15.0723 11.6976 15.5833 11.6956C16.2483 11.6916 16.5583 11.3546 17.1223 11.1136C17.1537 11.1003 17.1833 11.1033 17.2113 11.1226C17.448 11.2893 17.6533 11.4153 17.8273 11.5006C18.5283 11.8446 19.4323 11.4556 20.2273 11.7456C20.2393 11.7496 20.2463 11.76 20.2483 11.7766C20.2483 11.7806 20.249 11.7843 20.2503 11.7876C20.2523 11.7943 20.257 11.7996 20.2643 11.8036C20.6383 11.9976 21.0913 12.0546 21.4013 12.1936C21.5603 12.2646 22.5253 12.7046 22.5363 12.9646C22.5377 12.9973 22.5513 13.0226 22.5773 13.0406C22.66 13.0986 22.715 13.173 22.7423 13.2636ZM10.5203 14.2436C10.7353 14.2486 11.4443 13.7256 11.8673 13.5246C12.3187 13.3093 12.799 13.2706 13.3083 13.4086C14.6653 13.7756 14.7413 12.0006 13.3993 12.0796C12.2353 12.1486 10.7543 12.8236 10.3603 14.0166C10.3519 14.0423 10.3496 14.0695 10.3536 14.0962C10.3575 14.1229 10.3677 14.1483 10.3833 14.1704C10.3988 14.1924 10.4193 14.2105 10.4431 14.2233C10.4669 14.236 10.4933 14.243 10.5203 14.2436ZM11.5083 18.0796C12.0137 18.5483 12.4913 18.6493 12.9413 18.3826C13.7253 17.9166 13.9083 16.8856 13.6033 16.0466C13.458 15.648 13.1743 15.3253 12.7523 15.0786C12.117 14.896 11.626 15.0016 11.2793 15.3956C10.9973 15.717 10.8563 16.131 10.8563 16.6376C10.8563 17.2023 11.0737 17.683 11.5083 18.0796ZM6.56732 18.2596C6.85332 18.5103 7.15065 18.605 7.45932 18.5436C7.68432 18.4996 7.76432 18.3156 7.72232 18.1046C7.64432 17.7076 7.22632 15.4696 6.53932 15.7056C6.31665 15.7823 6.17065 15.8916 6.10132 16.0336C5.68798 16.883 5.84332 17.625 6.56732 18.2596ZM16.9803 18.7506C16.947 18.732 16.9067 18.7243 16.8593 18.7276C16.8267 18.7303 16.8033 18.7463 16.7893 18.7756C16.724 18.911 16.6137 18.993 16.4583 19.0216C16.4257 19.0283 16.4023 19.0166 16.3883 18.9866L16.3573 18.9226C16.3493 18.9049 16.3354 18.8906 16.3179 18.8821C16.3005 18.8736 16.2806 18.8715 16.2616 18.8761C16.2427 18.8807 16.2258 18.8917 16.2139 18.9073C16.202 18.9229 16.1958 18.9421 16.1963 18.9616C16.2003 19.197 16.2497 19.34 16.3443 19.3906C16.301 19.5006 16.3357 19.581 16.4483 19.6316C16.9353 19.8496 17.3113 19.5426 17.4793 19.0936C17.644 18.655 17.5503 18.2573 17.1983 17.9006C17.1103 17.8113 17.013 17.808 16.9063 17.8906C16.8961 17.8984 16.8893 17.9099 16.8874 17.9226C16.8855 17.9353 16.8887 17.9483 16.8963 17.9586C17.0763 18.2 17.1043 18.464 16.9803 18.7506ZM9.47032 19.1306C9.16732 20.4686 10.5373 21.0446 11.6263 20.7986C12.2903 20.6486 13.0233 20.1216 12.3253 19.4016C11.592 18.6456 10.7367 18.4393 9.75932 18.7826C9.61032 18.8346 9.50232 18.9896 9.47032 19.1306ZM14.9293 22.1886C15.952 22.6946 16.993 22.705 18.0523 22.2196C18.5197 22.0743 18.943 21.843 19.3223 21.5256C19.6703 21.2356 20.0003 20.6796 19.8223 20.2086C19.8166 20.1933 19.806 20.1803 19.7921 20.1715C19.7782 20.1627 19.7618 20.1585 19.7453 20.1596C19.6493 20.167 19.5563 20.187 19.4663 20.2196C17.5103 20.923 15.5417 20.9213 13.5603 20.2146C13.5396 20.2073 13.5174 20.2049 13.4956 20.2076C13.4738 20.2103 13.4529 20.2181 13.4347 20.2304C13.4164 20.2426 13.4012 20.259 13.3904 20.2781C13.3796 20.2973 13.3734 20.3187 13.3723 20.3406C13.3503 20.7806 13.4907 21.1623 13.7933 21.4856C14.0473 21.757 14.426 21.9913 14.9293 22.1886Z" fill="#FFC7A7"/>
<path d="M10.5205 14.2437C10.4935 14.243 10.467 14.2361 10.4432 14.2233C10.4194 14.2106 10.3989 14.1925 10.3834 14.1704C10.3679 14.1484 10.3577 14.123 10.3537 14.0963C10.3497 14.0696 10.352 14.0423 10.3605 14.0167C10.7545 12.8237 12.2355 12.1487 13.3995 12.0797C14.7415 12.0007 14.6655 13.7757 13.3085 13.4087C12.7991 13.2707 12.3188 13.3094 11.8675 13.5247C11.4445 13.7257 10.7355 14.2487 10.5205 14.2437Z" fill="#333C4A"/>
<path d="M22.7432 13.2634C22.8982 13.4574 23.2252 13.8474 23.1592 14.0694C23.1132 14.2234 23.0208 14.2601 22.8822 14.1794C22.1172 13.7354 21.3132 13.1974 20.4052 13.3004C20.1112 13.3998 19.9192 13.4501 19.8292 13.4514C18.9562 13.4634 18.8392 12.1334 19.8972 12.0804C21.0178 12.0244 21.9665 12.4188 22.7432 13.2634Z" fill="#333C4A"/>
<path d="M22.3825 15.3793C22.8825 16.248 22.8558 17.1357 22.3025 18.0423C22.2145 18.0283 22.1488 18.004 22.1055 17.9693C22.3242 17.6247 22.4188 17.2367 22.3895 16.8053C22.3055 15.5813 21.7418 15.0063 20.6985 15.0803C20.7425 14.9523 20.9102 14.8927 21.2015 14.9013C21.2348 14.902 21.2675 14.897 21.2995 14.8863L21.4695 14.8293C21.5042 14.818 21.5388 14.8173 21.5735 14.8273C21.8882 14.9213 22.1578 15.1053 22.3825 15.3793Z" fill="#FEFEFE"/>
<path d="M12.7527 15.0785C12.3067 15.0498 11.974 15.1602 11.7547 15.4095C11.0707 16.1875 10.9887 17.0775 11.5087 18.0795C11.074 17.6828 10.8567 17.2022 10.8567 16.6375C10.8567 16.1308 10.9977 15.7168 11.2797 15.3955C11.6264 15.0015 12.1174 14.8958 12.7527 15.0785Z" fill="#FEFEFE"/>
<path d="M22.1058 17.9695C20.6298 19.9675 18.6148 16.5165 20.6988 15.0805C21.7421 15.0065 22.3058 15.5816 22.3898 16.8055C22.4191 17.2369 22.3245 17.6249 22.1058 17.9695ZM21.0688 17.1398C21.1491 17.1317 21.2224 17.0885 21.2727 17.0199C21.3231 16.9513 21.3463 16.8627 21.3372 16.7738C21.3282 16.6849 21.2877 16.6029 21.2246 16.5458C21.1615 16.4886 21.0809 16.4611 21.0007 16.4693C20.9205 16.4774 20.8472 16.5206 20.7968 16.5892C20.7465 16.6578 20.7233 16.7463 20.7323 16.8353C20.7414 16.9242 20.7819 17.0062 20.845 17.0633C20.9081 17.1205 20.9886 17.148 21.0688 17.1398Z" fill="#141319"/>
<path d="M12.753 15.0787C13.175 15.3253 13.4587 15.648 13.604 16.0467C13.909 16.8857 13.726 17.9167 12.942 18.3827C12.492 18.6493 12.0143 18.5483 11.509 18.0797C10.989 17.0777 11.071 16.1877 11.755 15.4097C11.9743 15.1603 12.307 15.05 12.753 15.0787ZM12.4663 17.1533C12.5053 17.1579 12.545 17.1537 12.583 17.141C12.621 17.1282 12.6567 17.1072 12.6879 17.0791C12.7192 17.051 12.7454 17.0163 12.7652 16.9771C12.7849 16.9379 12.7977 16.8949 12.803 16.8505C12.8135 16.761 12.7923 16.6714 12.744 16.6015C12.6958 16.5317 12.6244 16.4872 12.5457 16.478C12.5067 16.4734 12.467 16.4776 12.429 16.4903C12.391 16.5031 12.3553 16.5241 12.3241 16.5522C12.2928 16.5803 12.2666 16.615 12.2468 16.6542C12.2271 16.6934 12.2142 16.7364 12.209 16.7808C12.1985 16.8703 12.2197 16.9599 12.268 17.0298C12.3162 17.0996 12.3876 17.1441 12.4663 17.1533Z" fill="#141319"/>
<path d="M6.56779 18.2594C5.84379 17.6247 5.68845 16.8827 6.10179 16.0334C6.17112 15.8914 6.31712 15.782 6.53979 15.7054C7.22679 15.4694 7.64479 17.7074 7.72279 18.1044C7.76479 18.3154 7.68479 18.4994 7.45979 18.5434C7.15112 18.6047 6.85379 18.51 6.56779 18.2594Z" fill="#FC8E79"/>
<path d="M26.365 15.8823C26.4483 15.7436 26.5523 15.6743 26.677 15.6743C27.486 15.6753 27.553 16.8773 27.364 17.4203C27.186 17.9303 26.322 18.9673 25.719 18.4183C25.6956 18.3977 25.681 18.3716 25.675 18.3403C25.555 17.6923 25.945 16.5993 26.19 16.0353C26.2017 16.0087 26.2216 15.9863 26.247 15.9713L26.319 15.9283C26.338 15.9172 26.3538 15.9013 26.365 15.8823Z" fill="#FC8E79"/>
<path d="M12.2085 16.7806C12.1865 16.9671 12.3017 17.1339 12.4657 17.1532C12.6298 17.1724 12.7805 17.0369 12.8024 16.8504C12.8243 16.6639 12.7091 16.4971 12.5451 16.4778C12.3811 16.4585 12.2304 16.5941 12.2085 16.7806Z" fill="#FEFEFE"/>
<path d="M20.7321 16.8352C20.751 17.0204 20.9016 17.1567 21.0686 17.1397C21.2357 17.1228 21.3558 16.9589 21.337 16.7738C21.3182 16.5886 21.1676 16.4522 21.0005 16.4692C20.8335 16.4862 20.7133 16.65 20.7321 16.8352Z" fill="#FEFEFE"/>
<path d="M16.3445 19.3907C16.6585 19.2887 16.8705 19.0753 16.9805 18.7507C17.1045 18.464 17.0765 18.2 16.8965 17.9587C16.8889 17.9483 16.8857 17.9353 16.8875 17.9226C16.8894 17.9099 16.8962 17.8984 16.9065 17.8907C17.0131 17.808 17.1105 17.8113 17.1985 17.9007C17.5505 18.2573 17.6441 18.655 17.4795 19.0937C17.3115 19.5427 16.9355 19.8497 16.4485 19.6317C16.3358 19.581 16.3011 19.5007 16.3445 19.3907Z" fill="#FBA98B"/>
<path d="M22.4458 20.7085C21.9151 20.8378 21.4611 20.7675 21.0838 20.4975C20.0638 19.7695 21.3968 18.8685 22.0538 18.7105C22.7485 18.5505 23.4468 18.5118 24.1488 18.5945C24.3281 18.6158 24.4015 18.7202 24.3688 18.9075C24.2068 19.8455 23.3348 20.5085 22.4458 20.7085Z" fill="#FC8E79"/>
<path d="M11.6267 20.7984C10.5377 21.0444 9.16772 20.4684 9.47072 19.1304C9.50272 18.9894 9.61072 18.8344 9.75972 18.7824C10.737 18.4391 11.5924 18.6454 12.3257 19.4014C13.0237 20.1214 12.2907 20.6484 11.6267 20.7984Z" fill="#FC8E79"/>
<path d="M16.9808 18.7503C16.8708 19.075 16.6588 19.2883 16.3448 19.3903C16.2501 19.3397 16.2008 19.1967 16.1968 18.9613C16.1963 18.9418 16.2025 18.9226 16.2144 18.907C16.2263 18.8914 16.2432 18.8804 16.2621 18.8758C16.2811 18.8712 16.301 18.8733 16.3184 18.8818C16.3359 18.8903 16.3498 18.9046 16.3578 18.9223L16.3888 18.9863C16.4028 19.0163 16.4261 19.028 16.4588 19.0213C16.6141 18.9927 16.7245 18.9107 16.7898 18.7753C16.8038 18.746 16.8271 18.73 16.8598 18.7273C16.9071 18.724 16.9475 18.7317 16.9808 18.7503Z" fill="#FED0B2"/>
<path d="M18.0526 22.2194C17.8039 21.9494 17.5026 21.7794 17.1486 21.7094C16.5786 21.5964 15.1086 21.4684 14.9296 22.1884C14.4263 21.991 14.0476 21.7567 13.7936 21.4854C13.4909 21.162 13.3506 20.7804 13.3726 20.3404C13.3737 20.3184 13.3799 20.297 13.3907 20.2778C13.4015 20.2587 13.4167 20.2424 13.4349 20.2301C13.4532 20.2179 13.4741 20.2101 13.4959 20.2073C13.5177 20.2046 13.5399 20.207 13.5606 20.2144C15.5419 20.921 17.5106 20.9227 19.4666 20.2194C19.5566 20.1867 19.6496 20.1667 19.7456 20.1594C19.7621 20.1582 19.7785 20.1624 19.7924 20.1712C19.8062 20.18 19.8168 20.1931 19.8226 20.2084C20.0006 20.6794 19.6706 21.2354 19.3226 21.5254C18.9433 21.8427 18.5199 22.074 18.0526 22.2194Z" fill="#211B24"/>
<path d="M18.0529 22.2195C16.9936 22.7049 15.9526 22.6945 14.9299 22.1885C15.1089 21.4685 16.5789 21.5965 17.1489 21.7095C17.5029 21.7795 17.8043 21.9495 18.0529 22.2195Z" fill="#FC8E79"/>
<path d="M15.0726 23.8824C15.7756 25.3084 17.6936 25.0954 18.4376 23.8714L18.7526 23.8364L19.9546 24.0354C20.2156 25.4694 18.9606 26.4134 17.6906 26.6714C17.0753 26.0674 16.6679 25.7131 16.4686 25.6084C15.6293 25.1671 14.8259 24.7204 14.0586 24.2684C14.0335 24.2537 14.0138 24.2313 14.0024 24.2045C13.991 24.1778 13.9884 24.1481 13.9951 24.1198C14.0018 24.0914 14.0175 24.066 14.0397 24.0472C14.0619 24.0285 14.0896 24.0173 14.1186 24.0154C14.2126 24.0094 14.2983 23.9681 14.3756 23.8914C14.3976 23.8694 14.4246 23.8591 14.4566 23.8604L15.0726 23.8824Z" fill="#FC8E79"/>
<path d="M15.0728 23.8826C16.1974 24.0079 17.3191 24.0042 18.4378 23.8716C17.6938 25.0956 15.7758 25.3086 15.0728 23.8826Z" fill="#F75E54"/>
<path d="M13.9188 23.9478C13.7435 23.9998 13.6098 24.0681 13.5178 24.1528C13.4291 24.2348 13.3908 24.3651 13.4028 24.5438C13.4698 25.5458 14.4978 26.2968 15.3878 26.5748C15.6718 26.7421 16.0005 26.8458 16.3738 26.8858C16.4058 26.8897 16.436 26.9025 16.4608 26.9228L17.7548 28.0108C17.7808 28.0321 17.7905 28.0598 17.7838 28.0938L17.7518 28.2628C15.2948 28.3858 13.1478 27.9948 10.8628 27.2848L9.90979 26.9598C9.87684 26.9487 9.84941 26.9254 9.83321 26.8947C9.81701 26.864 9.81327 26.8282 9.82279 26.7948C10.3308 24.9598 12.1458 24.1708 13.9188 23.9478Z" fill="#375B8B"/>
<path d="M19.9549 24.0356L20.7959 24.2676C21.8969 24.7466 23.1619 25.5606 23.2789 26.9036C23.2816 26.939 23.2666 26.9636 23.2339 26.9776C21.4866 27.7316 19.6593 28.16 17.7519 28.2626L17.7839 28.0936C17.7906 28.0596 17.7809 28.032 17.7549 28.0106L16.4609 26.9226C16.4361 26.9024 16.406 26.8895 16.3739 26.8856C16.0006 26.8456 15.6719 26.742 15.3879 26.5746C16.1853 26.796 16.9529 26.8283 17.6909 26.6716C18.9609 26.4136 20.2159 25.4696 19.9549 24.0356Z" fill="#265073"/>
</svg>
